<?xml version="1.0" encoding="UTF-8" standalone="no"?>
<!-- Created with Inkscape (http://www.inkscape.org/) -->

<svg
   version="1.1"
   id="svg1"
   width="361.41068"
   height="21.253332"
   viewBox="0 0 361.41068 21.253332"
   xmlns="http://www.w3.org/2000/svg"
   xmlns:svg="http://www.w3.org/2000/svg">
  <defs
     id="defs1" />
  <g
     id="g1">
    <path
       id="path1"
       d="m 31.33563,0 c 0,1.6507 -1.33812,2.98883 -2.98883,2.98883 -1.65071,0 -2.98883,-1.33813 -2.98883,-2.98883 0,-1.6507 1.33812,-2.98883 2.98883,-2.98883 1.65071,0 2.98883,1.33813 2.98883,2.98883 z"
       style="fill:#c8a2ff;fill-opacity:1;fill-rule:nonzero;stroke:none"
       transform="matrix(1.3333333,0,0,-1.3333333,-27.168,10.626667)" />
    <path
       id="path2"
       d="m 59.68245,0 c 0,1.6507 -1.33814,2.98883 -2.98883,2.98883 -1.65071,0 -2.98883,-1.33813 -2.98883,-2.98883 0,-1.6507 1.33812,-2.98883 2.98883,-2.98883 1.65069,0 2.98883,1.33813 2.98883,2.98883 z"
       style="fill:#8fd9b8;fill-opacity:1;fill-rule:nonzero;stroke:none"
       transform="matrix(1.3333333,0,0,-1.3333333,-27.168,10.626667)" />
    <path
       id="path3"
       d="m 88.02925,0 c 0,1.6507 -1.33812,2.98883 -2.98883,2.98883 -1.65071,0 -2.98883,-1.33813 -2.98883,-2.98883 0,-1.6507 1.33812,-2.98883 2.98883,-2.98883 1.65071,0 2.98883,1.33813 2.98883,2.98883 z"
       style="fill:#c8a2ff;fill-opacity:1;fill-rule:nonzero;stroke:none"
       transform="matrix(1.3333333,0,0,-1.3333333,-27.168,10.626667)" />
    <path
       id="path4"
       d="m 116.37607,0 c 0,1.6507 -1.33814,2.98883 -2.98883,2.98883 -1.65071,0 -2.98884,-1.33813 -2.98884,-2.98883 0,-1.6507 1.33813,-2.98883 2.98884,-2.98883 1.65069,0 2.98883,1.33813 2.98883,2.98883 z"
       style="fill:#8fd9b8;fill-opacity:1;fill-rule:nonzero;stroke:none"
       transform="matrix(1.3333333,0,0,-1.3333333,-27.168,10.626667)" />
    <path
       id="path5"
       d="m 144.72287,0 c 0,1.6507 -1.33812,2.98883 -2.98883,2.98883 -1.65071,0 -2.98883,-1.33813 -2.98883,-2.98883 0,-1.6507 1.33812,-2.98883 2.98883,-2.98883 1.65071,0 2.98883,1.33813 2.98883,2.98883 z"
       style="fill:#c8a2ff;fill-opacity:1;fill-rule:nonzero;stroke:none"
       transform="matrix(1.3333333,0,0,-1.3333333,-27.168,10.626667)" />
    <path
       id="path6"
       d="m 173.06969,0 c 0,1.6507 -1.33814,2.98883 -2.98883,2.98883 -1.65071,0 -2.98883,-1.33813 -2.98883,-2.98883 0,-1.6507 1.33812,-2.98883 2.98883,-2.98883 1.65069,0 2.98883,1.33813 2.98883,2.98883 z"
       style="fill:#8fd9b8;fill-opacity:1;fill-rule:nonzero;stroke:none"
       transform="matrix(1.3333333,0,0,-1.3333333,-27.168,10.626667)" />
    <path
       id="path7"
       d="m 201.41649,0 c 0,1.6507 -1.33812,2.98883 -2.98883,2.98883 -1.65071,0 -2.98883,-1.33813 -2.98883,-2.98883 0,-1.6507 1.33812,-2.98883 2.98883,-2.98883 1.65071,0 2.98883,1.33813 2.98883,2.98883 z"
       style="fill:#c8a2ff;fill-opacity:1;fill-rule:nonzero;stroke:none"
       transform="matrix(1.3333333,0,0,-1.3333333,-27.168,10.626667)" />
    <path
       id="path8"
       d="m 229.7633,0 c 0,1.6507 -1.33813,2.98883 -2.98882,2.98883 -1.65072,0 -2.98884,-1.33813 -2.98884,-2.98883 0,-1.6507 1.33812,-2.98883 2.98884,-2.98883 1.65069,0 2.98882,1.33813 2.98882,2.98883 z"
       style="fill:#8fd9b8;fill-opacity:1;fill-rule:nonzero;stroke:none"
       transform="matrix(1.3333333,0,0,-1.3333333,-27.168,10.626667)" />
    <path
       id="path9"
       d="m 258.1101,0 c 0,1.6507 -1.33811,2.98883 -2.98882,2.98883 -1.6507,0 -2.98883,-1.33813 -2.98883,-2.98883 0,-1.6507 1.33813,-2.98883 2.98883,-2.98883 1.65071,0 2.98882,1.33813 2.98882,2.98883 z"
       style="fill:#c8a2ff;fill-opacity:1;fill-rule:nonzero;stroke:none"
       transform="matrix(1.3333333,0,0,-1.3333333,-27.168,10.626667)" />
    <path
       id="path10"
       d="m 286.45692,0 c 0,1.6507 -1.33812,2.98883 -2.98882,2.98883 -1.65072,0 -2.98884,-1.33813 -2.98884,-2.98883 0,-1.6507 1.33812,-2.98883 2.98884,-2.98883 1.6507,0 2.98882,1.33813 2.98882,2.98883 z"
       style="fill:#8fd9b8;fill-opacity:1;fill-rule:nonzero;stroke:none"
       transform="matrix(1.3333333,0,0,-1.3333333,-27.168,10.626667)" />
    <path
       id="path11"
       d="M 34.01608,0 H 51.02432"
       style="fill:none;stroke:#000000;stroke-width:0.3985;stroke-linecap:butt;stroke-linejoin:miter;stroke-miterlimit:10;stroke-dasharray:none;stroke-opacity:1"
       transform="matrix(1.3333333,0,0,-1.3333333,-27.168,10.626667)" />
    <path
       id="path12"
       d="M 62.36288,1.4174 H 79.37114"
       style="fill:none;stroke:#000000;stroke-width:0.3985;stroke-linecap:butt;stroke-linejoin:miter;stroke-miterlimit:10;stroke-dasharray:none;stroke-opacity:1"
       transform="matrix(1.3333333,0,0,-1.3333333,-27.168,10.626667)" />
    <path
       id="path13"
       d="M 62.36288,-1.4174 H 79.37114"
       style="fill:none;stroke:#000000;stroke-width:0.3985;stroke-linecap:butt;stroke-linejoin:miter;stroke-miterlimit:10;stroke-dasharray:none;stroke-opacity:1"
       transform="matrix(1.3333333,0,0,-1.3333333,-27.168,10.626667)" />
    <path
       id="path14"
       d="m 90.7097,0 h 17.00824"
       style="fill:none;stroke:#000000;stroke-width:0.3985;stroke-linecap:butt;stroke-linejoin:miter;stroke-miterlimit:10;stroke-dasharray:none;stroke-opacity:1"
       transform="matrix(1.3333333,0,0,-1.3333333,-27.168,10.626667)" />
    <path
       id="path15"
       d="m 119.0565,1.4174 h 17.00826"
       style="fill:none;stroke:#000000;stroke-width:0.3985;stroke-linecap:butt;stroke-linejoin:miter;stroke-miterlimit:10;stroke-dasharray:none;stroke-opacity:1"
       transform="matrix(1.3333333,0,0,-1.3333333,-27.168,10.626667)" />
    <path
       id="path16"
       d="m 119.0565,-1.4174 h 17.00826"
       style="fill:none;stroke:#000000;stroke-width:0.3985;stroke-linecap:butt;stroke-linejoin:miter;stroke-miterlimit:10;stroke-dasharray:none;stroke-opacity:1"
       transform="matrix(1.3333333,0,0,-1.3333333,-27.168,10.626667)" />
    <path
       id="path17"
       d="m 147.40332,0 h 17.00824"
       style="fill:none;stroke:#000000;stroke-width:0.3985;stroke-linecap:butt;stroke-linejoin:miter;stroke-miterlimit:10;stroke-dasharray:none;stroke-opacity:1"
       transform="matrix(1.3333333,0,0,-1.3333333,-27.168,10.626667)" />
    <path
       id="path18"
       d="m 175.75012,1.4174 h 17.00826"
       style="fill:none;stroke:#000000;stroke-width:0.3985;stroke-linecap:butt;stroke-linejoin:miter;stroke-miterlimit:10;stroke-dasharray:none;stroke-opacity:1"
       transform="matrix(1.3333333,0,0,-1.3333333,-27.168,10.626667)" />
    <path
       id="path19"
       d="m 175.75012,-1.4174 h 17.00826"
       style="fill:none;stroke:#000000;stroke-width:0.3985;stroke-linecap:butt;stroke-linejoin:miter;stroke-miterlimit:10;stroke-dasharray:none;stroke-opacity:1"
       transform="matrix(1.3333333,0,0,-1.3333333,-27.168,10.626667)" />
    <path
       id="path20"
       d="m 204.09694,0 h 17.00824"
       style="fill:none;stroke:#000000;stroke-width:0.3985;stroke-linecap:butt;stroke-linejoin:miter;stroke-miterlimit:10;stroke-dasharray:none;stroke-opacity:1"
       transform="matrix(1.3333333,0,0,-1.3333333,-27.168,10.626667)" />
    <path
       id="path21"
       d="M 232.44374,1.4174 H 249.452"
       style="fill:none;stroke:#000000;stroke-width:0.3985;stroke-linecap:butt;stroke-linejoin:miter;stroke-miterlimit:10;stroke-dasharray:none;stroke-opacity:1"
       transform="matrix(1.3333333,0,0,-1.3333333,-27.168,10.626667)" />
    <path
       id="path22"
       d="M 232.44374,-1.4174 H 249.452"
       style="fill:none;stroke:#000000;stroke-width:0.3985;stroke-linecap:butt;stroke-linejoin:miter;stroke-miterlimit:10;stroke-dasharray:none;stroke-opacity:1"
       transform="matrix(1.3333333,0,0,-1.3333333,-27.168,10.626667)" />
    <path
       id="path23"
       d="M 260.79056,0 H 277.7988"
       style="fill:none;stroke:#000000;stroke-width:0.3985;stroke-linecap:butt;stroke-linejoin:miter;stroke-miterlimit:10;stroke-dasharray:none;stroke-opacity:1"
       transform="matrix(1.3333333,0,0,-1.3333333,-27.168,10.626667)" />
  </g>
</svg>
