<?xml version="1.0" encoding="UTF-8" standalone="no"?>
<!-- Created with Inkscape (http://www.inkscape.org/) -->

<svg
   version="1.1"
   id="svg1"
   width="361.41068"
   height="65.848"
   viewBox="0 0 361.41068 65.848"
   xmlns="http://www.w3.org/2000/svg"
   xmlns:svg="http://www.w3.org/2000/svg">
  <defs
     id="defs1" />
  <g
     id="g1">
    <path
       id="path1"
       d="m 70.867,8.50412 h 56.69362 V -8.50412 H 70.867 V 8.50412"
       style="fill:#fffb80;fill-opacity:1;fill-rule:nonzero;stroke:none"
       transform="matrix(1.3333333,0,0,-1.3333333,-27.168,27.489333)" />
    <path
       id="path2"
       d="m 31.33563,0 c 0,1.6507 -1.33812,2.98883 -2.98883,2.98883 -1.65071,0 -2.98883,-1.33813 -2.98883,-2.98883 0,-1.6507 1.33812,-2.98883 2.98883,-2.98883 1.65071,0 2.98883,1.33813 2.98883,2.98883 z"
       style="fill:#c8a2ff;fill-opacity:1;fill-rule:nonzero;stroke:none"
       transform="matrix(1.3333333,0,0,-1.3333333,-27.168,27.489333)" />
    <path
       id="path3"
       d="m 59.68245,0 c 0,1.6507 -1.33814,2.98883 -2.98883,2.98883 -1.65071,0 -2.98883,-1.33813 -2.98883,-2.98883 0,-1.6507 1.33812,-2.98883 2.98883,-2.98883 1.65069,0 2.98883,1.33813 2.98883,2.98883 z"
       style="fill:#8fd9b8;fill-opacity:1;fill-rule:nonzero;stroke:none"
       transform="matrix(1.3333333,0,0,-1.3333333,-27.168,27.489333)" />
    <path
       id="path4"
       d="m 88.02925,0 c 0,1.6507 -1.33812,2.98883 -2.98883,2.98883 -1.65071,0 -2.98883,-1.33813 -2.98883,-2.98883 0,-1.6507 1.33812,-2.98883 2.98883,-2.98883 1.65071,0 2.98883,1.33813 2.98883,2.98883 z"
       style="fill:#c8a2ff;fill-opacity:1;fill-rule:nonzero;stroke:none"
       transform="matrix(1.3333333,0,0,-1.3333333,-27.168,27.489333)" />
    <path
       id="path5"
       d="m 116.37607,0 c 0,1.6507 -1.33814,2.98883 -2.98883,2.98883 -1.65071,0 -2.98884,-1.33813 -2.98884,-2.98883 0,-1.6507 1.33813,-2.98883 2.98884,-2.98883 1.65069,0 2.98883,1.33813 2.98883,2.98883 z"
       style="fill:#8fd9b8;fill-opacity:1;fill-rule:nonzero;stroke:none"
       transform="matrix(1.3333333,0,0,-1.3333333,-27.168,27.489333)" />
    <path
       id="path6"
       d="m 144.72287,0 c 0,1.6507 -1.33812,2.98883 -2.98883,2.98883 -1.65071,0 -2.98883,-1.33813 -2.98883,-2.98883 0,-1.6507 1.33812,-2.98883 2.98883,-2.98883 1.65071,0 2.98883,1.33813 2.98883,2.98883 z"
       style="fill:#c8a2ff;fill-opacity:1;fill-rule:nonzero;stroke:none"
       transform="matrix(1.3333333,0,0,-1.3333333,-27.168,27.489333)" />
    <path
       id="path7"
       d="m 173.06969,0 c 0,1.6507 -1.33814,2.98883 -2.98883,2.98883 -1.65071,0 -2.98883,-1.33813 -2.98883,-2.98883 0,-1.6507 1.33812,-2.98883 2.98883,-2.98883 1.65069,0 2.98883,1.33813 2.98883,2.98883 z"
       style="fill:#8fd9b8;fill-opacity:1;fill-rule:nonzero;stroke:none"
       transform="matrix(1.3333333,0,0,-1.3333333,-27.168,27.489333)" />
    <path
       id="path8"
       d="m 201.41649,0 c 0,1.6507 -1.33812,2.98883 -2.98883,2.98883 -1.65071,0 -2.98883,-1.33813 -2.98883,-2.98883 0,-1.6507 1.33812,-2.98883 2.98883,-2.98883 1.65071,0 2.98883,1.33813 2.98883,2.98883 z"
       style="fill:#c8a2ff;fill-opacity:1;fill-rule:nonzero;stroke:none"
       transform="matrix(1.3333333,0,0,-1.3333333,-27.168,27.489333)" />
    <path
       id="path9"
       d="m 229.7633,0 c 0,1.6507 -1.33813,2.98883 -2.98882,2.98883 -1.65072,0 -2.98884,-1.33813 -2.98884,-2.98883 0,-1.6507 1.33812,-2.98883 2.98884,-2.98883 1.65069,0 2.98882,1.33813 2.98882,2.98883 z"
       style="fill:#8fd9b8;fill-opacity:1;fill-rule:nonzero;stroke:none"
       transform="matrix(1.3333333,0,0,-1.3333333,-27.168,27.489333)" />
    <path
       id="path10"
       d="m 258.1101,0 c 0,1.6507 -1.33811,2.98883 -2.98882,2.98883 -1.6507,0 -2.98883,-1.33813 -2.98883,-2.98883 0,-1.6507 1.33813,-2.98883 2.98883,-2.98883 1.65071,0 2.98882,1.33813 2.98882,2.98883 z"
       style="fill:#c8a2ff;fill-opacity:1;fill-rule:nonzero;stroke:none"
       transform="matrix(1.3333333,0,0,-1.3333333,-27.168,27.489333)" />
    <path
       id="path11"
       d="m 286.45692,0 c 0,1.6507 -1.33812,2.98883 -2.98882,2.98883 -1.65072,0 -2.98884,-1.33813 -2.98884,-2.98883 0,-1.6507 1.33812,-2.98883 2.98884,-2.98883 1.6507,0 2.98882,1.33813 2.98882,2.98883 z"
       style="fill:#8fd9b8;fill-opacity:1;fill-rule:nonzero;stroke:none"
       transform="matrix(1.3333333,0,0,-1.3333333,-27.168,27.489333)" />
    <path
       id="path12"
       d="M 34.01608,0 H 51.02432"
       style="fill:none;stroke:#000000;stroke-width:0.3985;stroke-linecap:butt;stroke-linejoin:miter;stroke-miterlimit:10;stroke-dasharray:none;stroke-opacity:1"
       transform="matrix(1.3333333,0,0,-1.3333333,-27.168,27.489333)" />
    <path
       id="path13"
       d="M 62.36288,1.4174 H 79.37114"
       style="fill:none;stroke:#000000;stroke-width:0.3985;stroke-linecap:butt;stroke-linejoin:miter;stroke-miterlimit:10;stroke-dasharray:none;stroke-opacity:1"
       transform="matrix(1.3333333,0,0,-1.3333333,-27.168,27.489333)" />
    <path
       id="path14"
       d="M 62.36288,-1.4174 H 79.37114"
       style="fill:none;stroke:#000000;stroke-width:0.3985;stroke-linecap:butt;stroke-linejoin:miter;stroke-miterlimit:10;stroke-dasharray:none;stroke-opacity:1"
       transform="matrix(1.3333333,0,0,-1.3333333,-27.168,27.489333)" />
    <path
       id="path15"
       d="m 90.7097,0 h 17.00824"
       style="fill:none;stroke:#000000;stroke-width:0.3985;stroke-linecap:butt;stroke-linejoin:miter;stroke-miterlimit:10;stroke-dasharray:none;stroke-opacity:1"
       transform="matrix(1.3333333,0,0,-1.3333333,-27.168,27.489333)" />
    <path
       id="path16"
       d="m 119.0565,1.4174 h 17.00826"
       style="fill:none;stroke:#000000;stroke-width:0.3985;stroke-linecap:butt;stroke-linejoin:miter;stroke-miterlimit:10;stroke-dasharray:none;stroke-opacity:1"
       transform="matrix(1.3333333,0,0,-1.3333333,-27.168,27.489333)" />
    <path
       id="path17"
       d="m 119.0565,-1.4174 h 17.00826"
       style="fill:none;stroke:#000000;stroke-width:0.3985;stroke-linecap:butt;stroke-linejoin:miter;stroke-miterlimit:10;stroke-dasharray:none;stroke-opacity:1"
       transform="matrix(1.3333333,0,0,-1.3333333,-27.168,27.489333)" />
    <path
       id="path18"
       d="m 147.40332,0 h 17.00824"
       style="fill:none;stroke:#000000;stroke-width:0.3985;stroke-linecap:butt;stroke-linejoin:miter;stroke-miterlimit:10;stroke-dasharray:none;stroke-opacity:1"
       transform="matrix(1.3333333,0,0,-1.3333333,-27.168,27.489333)" />
    <path
       id="path19"
       d="m 175.75012,1.4174 h 17.00826"
       style="fill:none;stroke:#000000;stroke-width:0.3985;stroke-linecap:butt;stroke-linejoin:miter;stroke-miterlimit:10;stroke-dasharray:none;stroke-opacity:1"
       transform="matrix(1.3333333,0,0,-1.3333333,-27.168,27.489333)" />
    <path
       id="path20"
       d="m 175.75012,-1.4174 h 17.00826"
       style="fill:none;stroke:#000000;stroke-width:0.3985;stroke-linecap:butt;stroke-linejoin:miter;stroke-miterlimit:10;stroke-dasharray:none;stroke-opacity:1"
       transform="matrix(1.3333333,0,0,-1.3333333,-27.168,27.489333)" />
    <path
       id="path21"
       d="m 204.09694,0 h 17.00824"
       style="fill:none;stroke:#000000;stroke-width:0.3985;stroke-linecap:butt;stroke-linejoin:miter;stroke-miterlimit:10;stroke-dasharray:none;stroke-opacity:1"
       transform="matrix(1.3333333,0,0,-1.3333333,-27.168,27.489333)" />
    <path
       id="path22"
       d="M 232.44374,1.4174 H 249.452"
       style="fill:none;stroke:#000000;stroke-width:0.3985;stroke-linecap:butt;stroke-linejoin:miter;stroke-miterlimit:10;stroke-dasharray:none;stroke-opacity:1"
       transform="matrix(1.3333333,0,0,-1.3333333,-27.168,27.489333)" />
    <path
       id="path23"
       d="M 232.44374,-1.4174 H 249.452"
       style="fill:none;stroke:#000000;stroke-width:0.3985;stroke-linecap:butt;stroke-linejoin:miter;stroke-miterlimit:10;stroke-dasharray:none;stroke-opacity:1"
       transform="matrix(1.3333333,0,0,-1.3333333,-27.168,27.489333)" />
    <path
       id="path24"
       d="M 260.79056,0 H 277.7988"
       style="fill:none;stroke:#000000;stroke-width:0.3985;stroke-linecap:butt;stroke-linejoin:miter;stroke-miterlimit:10;stroke-dasharray:none;stroke-opacity:1"
       transform="matrix(1.3333333,0,0,-1.3333333,-27.168,27.489333)" />
    <g
       id="g24"
       aria-label="t&#10;1"
       transform="matrix(1.3333333,0,0,1.3333333,175.328,19.24)">
      <path
         id="path25"
         d="m 2.050875,-3.9856641 h 0.9375 c 0.1992187,0 0.3046875,0 0.3046875,-0.1992187 0,-0.1054688 -0.1054688,-0.1054688 -0.28125,-0.1054688 H 2.1329062 c 0.3632813,-1.4179687 0.4101563,-1.6171875 0.4101563,-1.6757812 0,-0.1757813 -0.1171875,-0.2695313 -0.2929688,-0.2695313 -0.023437,0 -0.3046875,0.011719 -0.3984375,0.3515625 l -0.3867187,1.59375 h -0.9375 c -0.19921875,0 -0.29296875,0 -0.29296875,0.1875 0,0.1171875 0.0703125,0.1171875 0.26953125,0.1171875 h 0.8789062 c -0.7148437,2.8242188 -0.74999995,3.00000004 -0.74999995,3.17578129 0,0.5390625 0.37499995,0.9140625 0.91406245,0.9140625 1.0078125,0 1.5820313,-1.45312499 1.5820313,-1.53515629 0,-0.09375 -0.082031,-0.09375 -0.1171875,-0.09375 -0.09375,0 -0.1054688,0.023437 -0.1523438,0.140625 -0.4335937,1.03125004 -0.9609375,1.27734379 -1.3007812,1.27734379 -0.1992188,0 -0.3046875,-0.12890625 -0.3046875,-0.45703125 0,-0.24609375 0.023437,-0.31640625 0.058594,-0.48046874 z m 0,0"
         style="fill:#000000;fill-opacity:1;fill-rule:nonzero;stroke:none" />
      <path
         id="path26"
         d="m 5.9297812,-2.9368359 c 0,-0.1875 -0.011719,-0.1992188 -0.2109375,-0.1992188 -0.4453125,0.4335938 -1.078125,0.4453125 -1.359375,0.4453125 v 0.2460938 c 0.1640625,0 0.6210938,0 1.0078125,-0.1875 v 3.55078121 c 0,0.23437499 0,0.32812499 -0.6914062,0.32812499 H 4.4063437 v 0.2460938 c 0.1289063,-0.011719 0.984375,-0.023437 1.2421875,-0.023437 0.2109375,0 1.0898438,0.011719 1.2421875,0.023437 V 1.2467578 H 6.6329062 c -0.703125,0 -0.703125,-0.09375 -0.703125,-0.32812499 z m 0,0"
         style="fill:#000000;fill-opacity:1;fill-rule:nonzero;stroke:none" />
    </g>
    <g
       id="g26"
       aria-label="t&#10;2"
       transform="matrix(1.3333333,0,0,1.3333333,213.12267,19.24)">
      <path
         id="path27"
         d="m 2.0496016,-3.9856641 h 0.9375 c 0.1992187,0 0.3046875,0 0.3046875,-0.1992187 0,-0.1054688 -0.1054688,-0.1054688 -0.28125,-0.1054688 H 2.1316328 c 0.3632813,-1.4179687 0.4101563,-1.6171875 0.4101563,-1.6757812 0,-0.1757813 -0.1171875,-0.2695313 -0.2929688,-0.2695313 -0.023437,0 -0.3046875,0.011719 -0.3984375,0.3515625 l -0.3867187,1.59375 H 0.52616406 c -0.19921875,0 -0.29296875,0 -0.29296875,0.1875 0,0.1171875 0.0703125,0.1171875 0.26953125,0.1171875 H 1.3816328 c -0.71484374,2.8242188 -0.74999999,3.00000004 -0.74999999,3.17578129 0,0.5390625 0.37499999,0.9140625 0.91406249,0.9140625 1.0078125,0 1.5820313,-1.45312499 1.5820313,-1.53515629 0,-0.09375 -0.082031,-0.09375 -0.1171875,-0.09375 -0.09375,0 -0.1054688,0.023437 -0.1523438,0.140625 -0.4335937,1.03125004 -0.9609375,1.27734379 -1.3007812,1.27734379 -0.1992188,0 -0.3046875,-0.12890625 -0.3046875,-0.45703125 0,-0.24609375 0.023437,-0.31640625 0.058594,-0.48046874 z m 0,0"
         style="fill:#000000;fill-opacity:1;fill-rule:nonzero;stroke:none" />
      <path
         id="path28"
         d="m 7.1150313,0.22722656 h -0.234375 c -0.023437,0.15234375 -0.082031,0.5625 -0.1757813,0.6328125 -0.058594,0.0351563 -0.5976562,0.0351563 -0.6914062,0.0351563 H 4.7244063 c 0.7382812,-0.64453125 0.984375,-0.84375 1.3945312,-1.171875 0.515625,-0.41015625 0.9960938,-0.84375006 0.9960938,-1.49999996 0,-0.8437501 -0.7382813,-1.3593751 -1.6289063,-1.3593751 -0.8671875,0 -1.453125,0.609375 -1.453125,1.2421875 0,0.3632813 0.3046875,0.3984375 0.375,0.3984375 0.1640625,0 0.375,-0.1171875 0.375,-0.375 0,-0.1289062 -0.058594,-0.3632812 -0.421875,-0.3632812 0.2226563,-0.5039063 0.6914063,-0.65625 1.0195313,-0.65625 0.703125,0 1.0664062,0.5507812 1.0664062,1.1132813 0,0.609375 -0.4335937,1.08984371 -0.65625,1.33593746 l -1.6875,1.66406244 C 4.033,1.2819141 4.033,1.2936328 4.033,1.4928516 h 2.8828125 z m 0,0"
         style="fill:#000000;fill-opacity:1;fill-rule:nonzero;stroke:none" />
    </g>
    <path
       id="path29"
       d="m 5.8000547,-2.2978672 c 0,1.40625001 -0.9726563,2.20312501 -1.9101563,2.20312501 -0.46875,0 -1.6523437,-0.24609375 -1.6523437,-2.13281251 v -3.796875 c 0,-0.3632812 0.023437,-0.46875 0.7851562,-0.46875 h 0.2460938 v -0.3164062 c -0.3515625,0.035156 -1.0898438,0.035156 -1.4648438,0.035156 -0.375,0 -1.12499996,0 -1.47656246,-0.035156 v 0.3164062 h 0.234375 c 0.77343746,0 0.79687496,0.1054688 0.79687496,0.46875 v 3.75 c 0,1.40625001 1.1484375,2.49609376 2.5078125,2.49609376 1.1484375,0 2.0390625,-0.92578125 2.2148438,-2.06249996 0.023437,-0.1992188 0.023437,-0.2929688 0.023437,-0.6914063 v -3.1875 c 0,-0.328125 0,-0.7734375 1.03125,-0.7734375 v -0.3164062 c -0.3632813,0.011719 -0.84375,0.035156 -1.1835938,0.035156 -0.3398437,0 -0.8203125,-0.023437 -1.1835937,-0.035156 v 0.3164062 c 1.03125,0 1.03125,0.46875 1.03125,0.7382813 z m 2.7744141,-1.125 v 2.66015626 c 0,0.45703125 -0.1171875,0.45703125 -0.7851563,0.45703125 V -9.921875e-4 C 8.140875,-0.01271094 8.6447813,-0.03614844 8.9143125,-0.03614844 c 0.2578125,0 0.7851563,0.0234375 1.1132815,0.0351562525 V -0.30567969 c -0.6562502,0 -0.7734377,0 -0.7734377,-0.45703125 V -2.5908359 c 0,-1.03125 0.7148437,-1.59375 1.3476567,-1.59375 0.621093,0 0.738281,0.5390625 0.738281,1.1015625 v 2.32031246 c 0,0.45703125 -0.117188,0.45703125 -0.773438,0.45703125 v 0.3046875025 c 0.339844,-0.0117187525 0.855469,-0.0351562525 1.125,-0.0351562525 0.257813,0 0.773438,0.0234375 1.113282,0.0351562525 V -0.30567969 c -0.515625,0 -0.773438,0 -0.785157,-0.3046875 V -2.5088047 c 0,-0.8554687 0,-1.171875 -0.304687,-1.5234375 -0.140625,-0.1757812 -0.46875,-0.375 -1.042969,-0.375 -0.7265625,0 -1.1953125,0.4335938 -1.4765625,1.0546875 v -1.0546875 l -1.40625,0.1171875 v 0.3046875 c 0.703125,0 0.7851563,0.070312 0.7851563,0.5625 z m 6.1904292,-0.984375 -1.394531,0.1171875 v 0.3046875 c 0.65625,0 0.738281,0.058594 0.738281,0.5507813 v 2.67187496 c 0,0.45703125 -0.105468,0.45703125 -0.773437,0.45703125 V -9.921875e-4 C 13.651617,-0.01271094 14.19068,-0.03614844 14.436773,-0.03614844 c 0.339844,0 0.691407,0.0234375 1.03125,0.0351562525 V -0.30567969 c -0.65625,0 -0.703125,-0.0585938 -0.703125,-0.4453125 z m 0.04687,-1.734375 c 0,-0.3164062 -0.246093,-0.5273437 -0.527343,-0.5273437 -0.316407,0 -0.527344,0.2695312 -0.527344,0.5273437 0,0.2695313 0.210937,0.5273438 0.527344,0.5273438 0.28125,0 0.527343,-0.1992188 0.527343,-0.5273438 z m 2.686524,2.15625 h 1.429687 v -0.3046875 h -1.429687 v -1.8398437 h -0.246094 c -0.01172,0.8203125 -0.316406,1.8867187 -1.289062,1.921875 v 0.2226562 h 0.84375 v 2.7539063 c 0,1.21874996 0.925781,1.33593746 1.289062,1.33593746 0.703125,0 0.984375,-0.703125 0.984375,-1.33593746 v -0.5742188 h -0.246094 v 0.5507813 c 0,0.73828121 -0.304687,1.11328121 -0.667968,1.11328121 -0.667969,0 -0.667969,-0.90234371 -0.667969,-1.07812501 z m 6.629883,1.8164063 c 0,-1.6289063 0.820312,-2.0507813 1.347656,-2.0507813 0.09375,0 0.714844,0.011719 1.066406,0.375 -0.410156,0.023437 -0.46875,0.328125 -0.46875,0.4570313 0,0.2578125 0.1875,0.4570312 0.457031,0.4570312 0.257813,0 0.457032,-0.1640625 0.457032,-0.46875 0,-0.6796875 -0.75,-1.0664062 -1.523438,-1.0664062 -1.242187,0 -2.15625,1.078125 -2.15625,2.3085937 0,1.27734376 0.984375,2.26171876 2.144531,2.26171876 1.335938,0 1.652344,-1.19531246 1.652344,-1.28906246 0,-0.1054688 -0.105469,-0.1054688 -0.128906,-0.1054688 -0.09375,0 -0.117188,0.046875 -0.128906,0.1054688 -0.292969,0.92578121 -0.9375,1.04296871 -1.3125,1.04296871 -0.527344,0 -1.40625,-0.421875 -1.40625,-2.02734371 z m 4.379882,-0.3398438 c 0.05859,-1.4882812 0.902344,-1.734375 1.242188,-1.734375 1.019531,0 1.125,1.3476563 1.125,1.734375 z m -0.01172,0.2109375 h 2.789062 c 0.210938,0 0.246094,0 0.246094,-0.2109375 0,-0.984375 -0.539063,-1.9570312 -1.78125,-1.9570312 -1.160156,0 -2.074219,1.03125 -2.074219,2.2734375 0,1.33593746 1.042969,2.29687496 2.191406,2.29687496 1.21875,0 1.664063,-1.1015625 1.664063,-1.28906246 0,-0.1054688 -0.08203,-0.1171875 -0.128906,-0.1171875 -0.09375,0 -0.117188,0.058594 -0.128907,0.140625 -0.351562,1.01953121 -1.253906,1.01953121 -1.347656,1.01953121 -0.503906,0 -0.902344,-0.29296875 -1.125,-0.66796875 -0.30468,-0.48046876 -0.30468,-1.13671876 -0.30468,-1.48828126 z m 5.083008,-4.6171875 -1.429688,0.1054688 v 0.3164062 c 0.703125,0 0.773438,0.070312 0.773438,0.5507813 v 5.17968746 c 0,0.45703125 -0.105469,0.45703125 -0.773438,0.45703125 v 0.3046875025 c 0.328132,-0.0117187525 0.855476,-0.0351562525 1.10157,-0.0351562525 0.257812,0 0.738281,0.0234375 1.113281,0.0351562525 V -0.30567969 c -0.667969,0 -0.785156,0 -0.785156,-0.45703125 z m 2.768554,0 -1.429687,0.1054688 v 0.3164062 c 0.703125,0 0.773437,0.070312 0.773437,0.5507813 v 5.17968746 c 0,0.45703125 -0.105469,0.45703125 -0.773437,0.45703125 V -9.921875e-4 C 35.246344,-0.01271094 35.773687,-0.03614844 36.019781,-0.03614844 c 0.257813,0 0.738281,0.0234375 1.113281,0.0351562525 V -0.30567969 c -0.667968,0 -0.785156,0 -0.785156,-0.45703125 z m 0,0"
       style="fill:#000000;fill-opacity:1;fill-rule:nonzero;stroke:none"
       aria-label="Unitcell"
       transform="matrix(1.3333333,0,0,1.3333333,80.208,54.778667)" />
  </g>
</svg>
