<?xml version="1.0" encoding="UTF-8" standalone="no"?><!DOCTYPE svg PUBLIC "-//W3C//DTD SVG 1.1//EN" "http://www.w3.org/Graphics/SVG/1.1/DTD/svg11.dtd"><svg width="100%" height="100%" viewBox="0 0 186 41" version="1.1" xmlns="http://www.w3.org/2000/svg" xmlns:xlink="http://www.w3.org/1999/xlink" xml:space="preserve" xmlns:serif="http://www.serif.com/" style="fill-rule:evenodd;clip-rule:evenodd;stroke-linecap:round;stroke-linejoin:round;stroke-miterlimit:10;"><rect id="Artboard1" x="0" y="-0" width="185.76" height="40.666" style="fill:none;"/><rect x="0" y="0" width="185.76" height="40.666" style="fill:#fff;"/><path d="M49.168,4.495c0.059,0.058 0.095,0.149 0.11,0.275c0.014,0.125 0.015,0.264 0.001,0.417c-0.014,0.152 -0.049,0.359 -0.106,0.62c-0.057,0.261 -0.111,0.567 -0.163,0.919c-0.052,0.352 -0.093,0.748 -0.123,1.19c-0.03,0.441 -0.056,0.899 -0.078,1.374c-0.022,0.474 -0.048,0.907 -0.079,1.297c-0.031,0.391 -0.058,0.726 -0.081,1.007c-0.023,0.281 -0.037,0.545 -0.042,0.792c-0.005,0.248 -0.008,0.52 -0.008,0.816c0,0.297 -0,0.618 -0,0.964l0,1.049c0,0.353 -0.005,0.685 -0.014,0.995c-0.009,0.311 -0.021,0.614 -0.036,0.91c-0.015,0.296 -0.027,0.605 -0.037,0.928c-0.01,0.322 -0.016,0.643 -0.019,0.962c-0.003,0.319 -0.004,0.61 -0.004,0.872l0,3.033c0,0.285 0.003,0.55 0.01,0.797c0.007,0.247 0.016,0.489 0.029,0.728c0.012,0.238 0.027,0.475 0.043,0.711c0.017,0.236 0.036,0.469 0.058,0.7c0.022,0.231 0.04,0.461 0.055,0.689c0.015,0.228 0.026,0.463 0.034,0.703c0.008,0.24 0.012,0.477 0.012,0.711l0,3.289c0,0.197 0.001,0.386 0.003,0.567c0.002,0.18 0.006,0.353 0.011,0.519c0.005,0.166 0.008,0.339 0.008,0.521l0,1.277c0,0.24 -0.003,0.476 -0.01,0.708c-0.007,0.232 -0.021,0.447 -0.043,0.646l-0.016,0.149l0.049,-0.447" style="fill:none;fill-rule:nonzero;stroke:#c2361a;stroke-width:0.85px;"/><path d="M46.088,21.053c-0.003,0.05 -0.097,0.193 -0.285,0.429c-0.109,0.137 -0.176,0.219 -0.203,0.249c-0.027,0.03 -0.038,0.04 -0.033,0.031c0.004,-0.009 0.015,-0.03 0.033,-0.064c0.018,-0.034 0.087,-0.15 0.208,-0.348c0.121,-0.198 0.243,-0.419 0.366,-0.662c0.123,-0.243 0.249,-0.476 0.378,-0.697c0.129,-0.221 0.26,-0.433 0.392,-0.634c0.132,-0.202 0.246,-0.353 0.342,-0.454c0.096,-0.101 0.191,-0.165 0.285,-0.191c0.094,-0.027 0.197,-0.034 0.308,-0.024c0.111,0.011 0.239,0.056 0.383,0.136c0.144,0.08 0.297,0.179 0.457,0.297c0.16,0.118 0.316,0.25 0.467,0.395c0.151,0.145 0.297,0.297 0.439,0.458c0.141,0.16 0.282,0.323 0.423,0.488c0.141,0.165 0.283,0.318 0.426,0.457c0.144,0.14 0.281,0.261 0.413,0.365c0.132,0.104 0.252,0.185 0.36,0.245c0.108,0.06 0.206,0.102 0.294,0.125c0.121,0.032 0.144,-0.035 0.069,-0.201" style="fill:none;fill-rule:nonzero;stroke:#c2361a;stroke-width:0.85px;"/><path d="M41.337,14.404c0.065,0.011 0.122,-0.046 0.169,-0.169c0.048,-0.123 0.07,-0.23 0.068,-0.32c-0.002,-0.09 -0.036,-0.176 -0.1,-0.256c-0.065,-0.081 -0.161,-0.146 -0.288,-0.196c-0.127,-0.05 -0.28,-0.065 -0.458,-0.044c-0.178,0.021 -0.374,0.152 -0.59,0.392c-0.215,0.241 -0.397,0.57 -0.545,0.989c-0.148,0.418 -0.228,0.832 -0.24,1.241c-0.012,0.409 0.064,0.712 0.23,0.908c0.165,0.196 0.377,0.287 0.636,0.272c0.259,-0.015 0.5,-0.131 0.723,-0.347c0.223,-0.216 0.4,-0.476 0.53,-0.779c0.13,-0.303 0.219,-0.592 0.265,-0.868c0.046,-0.276 0.071,-0.513 0.075,-0.711c0.003,-0.198 0.005,-0.339 0.005,-0.424c0,-0.085 -0.002,-0.13 -0.007,-0.137c-0.005,-0.007 -0.008,0.005 -0.011,0.034c-0.003,0.03 -0.004,0.103 -0.004,0.221c0,0.118 0.007,0.29 0.02,0.517c0.014,0.227 0.049,0.497 0.106,0.81c0.057,0.314 0.118,0.628 0.184,0.943c0.102,0.49 0.239,0.817 0.411,0.98" style="fill:none;fill-rule:nonzero;stroke:#c2361a;stroke-width:0.85px;"/><path d="M80.1,4.99c0.042,0.011 0.121,0.002 0.237,-0.025c0.072,-0.017 0.118,-0.034 0.138,-0.05c0.02,-0.017 0.038,-0.036 0.055,-0.058c0.017,-0.022 0.031,-0.037 0.044,-0.045c0.013,-0.008 0.024,-0.01 0.034,-0.006c0.01,0.004 0.018,0.048 0.026,0.132c0.007,0.084 0.013,0.209 0.018,0.376c0.005,0.167 0.013,0.378 0.025,0.633c0.012,0.254 0.027,0.551 0.047,0.891c0.019,0.34 0.035,0.706 0.048,1.098c0.013,0.392 0.02,0.783 0.023,1.174c0.003,0.39 0.004,0.733 0.004,1.029c0,0.296 0.001,0.562 0.003,0.799c0.002,0.237 0.01,0.482 0.025,0.736c0.014,0.254 0.024,0.532 0.03,0.834c0.005,0.302 0.012,0.608 0.019,0.917c0.007,0.309 0.011,0.605 0.011,0.888c0,0.283 0,0.551 0,0.805l0,2.098c0,0.253 -0.003,0.531 -0.011,0.833c-0.007,0.302 -0.011,0.603 -0.011,0.9c-0,0.298 -0,0.574 -0,0.828c0,0.254 0.007,0.5 0.021,0.739c0.014,0.238 0.028,0.479 0.043,0.722c0.015,0.243 0.028,0.488 0.041,0.736c0.012,0.247 0.027,0.509 0.043,0.785c0.017,0.276 0.036,0.536 0.058,0.781c0.022,0.245 0.05,0.503 0.083,0.776c0.034,0.273 0.07,0.515 0.108,0.727c0.038,0.212 0.074,0.427 0.106,0.645c0.032,0.218 0.061,0.463 0.085,0.735c0.025,0.273 0.042,0.559 0.052,0.86c0.01,0.301 0.019,0.591 0.026,0.869c0.007,0.278 0.011,0.55 0.011,0.814c0,0.264 0,0.547 0,0.847l0,3.306c0,0.263 -0.004,0.503 -0.011,0.719c-0.007,0.216 -0.011,0.403 -0.011,0.561c-0,0.157 -0,0.3 -0,0.427l0,0.336c0,0.13 0.01,0.119 0.03,-0.034" style="fill:none;fill-rule:nonzero;stroke:#c2361a;stroke-width:0.85px;"/><path d="M78.283,18.254c0.046,0.027 0.122,0.091 0.228,0.193c0.106,0.102 0.199,0.214 0.278,0.337c0.079,0.123 0.188,0.241 0.326,0.354c0.139,0.113 0.294,0.221 0.466,0.325c0.172,0.104 0.333,0.226 0.483,0.365c0.15,0.139 0.276,0.29 0.377,0.453c0.102,0.163 0.184,0.296 0.248,0.398c0.064,0.103 0.134,0.165 0.211,0.187c0.077,0.022 0.173,-0.009 0.288,-0.094c0.116,-0.085 0.233,-0.217 0.352,-0.397c0.119,-0.18 0.237,-0.388 0.354,-0.624c0.117,-0.236 0.24,-0.512 0.371,-0.83c0.13,-0.318 0.265,-0.654 0.404,-1.01c0.139,-0.355 0.246,-0.632 0.322,-0.829c0.076,-0.197 0.12,-0.314 0.131,-0.35c0.011,-0.036 0.016,-0.048 0.014,-0.035c-0.003,0.018 -0.013,0.073 -0.029,0.166" style="fill:none;fill-rule:nonzero;stroke:#c2361a;stroke-width:0.85px;"/><path d="M88.476,20.266c-0.004,-0.049 -0.03,-0.14 -0.08,-0.273c-0.05,-0.133 -0.113,-0.232 -0.189,-0.295c-0.076,-0.064 -0.182,-0.109 -0.319,-0.135c-0.136,-0.026 -0.287,-0.024 -0.452,0.007c-0.165,0.031 -0.319,0.165 -0.464,0.401c-0.145,0.237 -0.25,0.572 -0.314,1.006c-0.064,0.434 -0.047,0.851 0.052,1.25c0.099,0.399 0.288,0.669 0.568,0.81c0.28,0.141 0.566,0.158 0.859,0.051c0.293,-0.107 0.544,-0.321 0.755,-0.641c0.211,-0.32 0.358,-0.649 0.443,-0.985c0.085,-0.337 0.127,-0.611 0.127,-0.824c0,-0.212 -0.024,-0.345 -0.071,-0.399c-0.047,-0.054 -0.081,-0.06 -0.099,-0.018c-0.019,0.042 -0.017,0.177 0.005,0.406c0.022,0.229 0.087,0.508 0.194,0.836c0.107,0.328 0.227,0.645 0.36,0.948c0.133,0.304 0.26,0.538 0.379,0.703l0.089,0.124l-0.268,-0.372" style="fill:none;fill-rule:nonzero;stroke:#c2361a;stroke-width:0.85px;"/><path d="M86.485,17.602c0.035,-0 0.109,0.018 0.222,0.055c0.068,0.023 0.126,0.036 0.174,0.042c0.048,0.005 0.125,0.008 0.231,0.008c0.106,0 0.278,-0.006 0.516,-0.017c0.346,-0.016 0.853,-0.1 1.52,-0.25" style="fill:none;fill-rule:nonzero;stroke:#c2361a;stroke-width:0.85px;"/><path d="M62.448,18.869c-0.017,0.01 -0.098,0.103 -0.244,0.278c-0.079,0.095 -0.083,0.151 -0.012,0.168c0.071,0.017 0.257,-0.011 0.558,-0.085c0.301,-0.074 0.657,-0.158 1.067,-0.252c0.41,-0.094 0.87,-0.164 1.378,-0.212c0.509,-0.047 1.037,-0.101 1.584,-0.16c0.547,-0.06 1.048,-0.125 1.502,-0.196c0.454,-0.071 0.612,-0.108 0.476,-0.113" style="fill:none;fill-rule:nonzero;stroke:#000;stroke-width:0.85px;"/><path d="M62.582,21.842c-0.009,0.044 -0.007,0.135 0.008,0.275c0.009,0.085 0.05,0.141 0.122,0.169c0.072,0.028 0.217,0.044 0.434,0.05c0.217,0.006 0.549,0.009 0.998,0.009c0.448,0 0.979,-0.012 1.592,-0.035c0.614,-0.023 1.196,-0.049 1.748,-0.079c0.552,-0.029 1.009,-0.061 1.371,-0.095c0.362,-0.034 0.633,-0.055 0.813,-0.064l0.135,-0.006l-0.405,0.019" style="fill:none;fill-rule:nonzero;stroke:#000;stroke-width:0.85px;"/><path d="M20.294,10.948c-0,0.078 -0,0.201 0,0.368l0,1.986c0,0.628 -0.004,1.452 -0.013,2.472c-0.009,1.02 -0.034,2.137 -0.074,3.351c-0.04,1.215 -0.072,2.347 -0.095,3.398c-0.023,1.051 -0.041,1.964 -0.052,2.741c-0.012,0.777 -0.038,1.44 -0.078,1.992c-0.04,0.551 -0.08,0.958 -0.12,1.219c-0.04,0.262 -0.061,0.41 -0.065,0.445l-0.002,0.017l0.007,-0.071c0.011,-0.102 0.03,-0.28 0.058,-0.534" style="fill:none;fill-rule:nonzero;stroke:#000;stroke-width:0.85px;"/><path d="M19.288,11.166l0,-0.28c0,-0.104 -0.01,-0.162 -0.03,-0.173c-0.02,-0.011 -0.088,0.104 -0.203,0.344c-0.116,0.241 -0.243,0.548 -0.382,0.92c-0.139,0.373 -0.247,0.646 -0.322,0.82c-0.075,0.174 -0.111,0.169 -0.108,-0.017c0.004,-0.185 0.066,-0.528 0.186,-1.029c0.121,-0.5 0.237,-0.913 0.351,-1.239c0.113,-0.325 0.225,-0.527 0.336,-0.606c0.111,-0.078 0.258,-0.052 0.442,0.081c0.184,0.132 0.4,0.332 0.649,0.6c0.249,0.268 0.487,0.526 0.715,0.776c0.228,0.25 0.393,0.443 0.496,0.58c0.138,0.185 0.1,0.224 -0.117,0.119" style="fill:none;fill-rule:nonzero;stroke:#000;stroke-width:0.85px;"/><path d="M6.173,23.868c0.02,-0.034 0.016,-0.166 -0.012,-0.395c-0.016,-0.133 -0.041,-0.223 -0.075,-0.269c-0.034,-0.046 -0.059,-0.083 -0.074,-0.112c-0.015,-0.029 -0.028,-0.083 -0.037,-0.161c-0.01,-0.078 -0.028,-0.168 -0.057,-0.27c-0.028,-0.102 -0.062,-0.19 -0.101,-0.264c-0.039,-0.075 -0.07,-0.129 -0.092,-0.165c-0.023,-0.035 -0.036,-0.055 -0.039,-0.058c-0.003,-0.003 0.001,0.004 0.013,0.022c0.012,0.018 0.041,0.062 0.089,0.134c0.047,0.071 0.171,0.232 0.37,0.482c0.199,0.25 0.449,0.561 0.75,0.935c0.301,0.373 0.619,0.726 0.954,1.058c0.336,0.332 0.641,0.552 0.916,0.658c0.275,0.106 0.511,0.074 0.709,-0.096c0.198,-0.17 0.342,-0.467 0.434,-0.89c0.134,-0.618 -0.026,-1.295 -0.478,-2.031" style="fill:none;fill-rule:nonzero;stroke:#000;stroke-width:0.85px;"/><path d="M6.251,25.122c0.064,-0.081 0.141,-0.177 0.233,-0.288c0.092,-0.112 0.183,-0.258 0.275,-0.441c0.091,-0.182 0.191,-0.445 0.301,-0.789c0.163,-0.513 0.279,-1.065 0.35,-1.655" style="fill:none;fill-rule:nonzero;stroke:#000;stroke-width:0.85px;"/><path d="M7.585,20.594c0.093,-0.051 0.196,-0.117 0.309,-0.199c0.113,-0.081 0.222,-0.143 0.328,-0.186c0.106,-0.043 0.234,-0.064 0.383,-0.063c0.149,0.001 0.308,0.04 0.479,0.117c0.17,0.077 0.313,0.149 0.427,0.217c0.115,0.068 0.182,0.107 0.203,0.117l0.009,0.005l-0.059,-0.023c-0.078,-0.033 -0.24,-0.093 -0.485,-0.179" style="fill:none;fill-rule:nonzero;stroke:#000;stroke-width:0.85px;"/><path d="M6.863,17.313c0.081,-0.014 0.167,-0.036 0.257,-0.067c0.091,-0.031 0.184,-0.066 0.28,-0.104c0.096,-0.039 0.204,-0.067 0.325,-0.085c0.121,-0.018 0.267,0.031 0.44,0.147c0.173,0.116 0.379,0.311 0.62,0.585c0.24,0.274 0.491,0.517 0.752,0.728c0.261,0.211 0.465,0.35 0.611,0.415c0.146,0.066 0.237,0.1 0.271,0.104c0.035,0.003 0.026,-0.031 -0.026,-0.104c-0.052,-0.073 -0.156,-0.234 -0.311,-0.483c-0.155,-0.249 -0.299,-0.545 -0.43,-0.888c-0.131,-0.343 -0.222,-0.667 -0.274,-0.972c-0.052,-0.304 -0.078,-0.534 -0.079,-0.689c-0.001,-0.155 0.058,-0.231 0.178,-0.23c0.12,0.002 0.3,0.092 0.54,0.271c0.241,0.179 0.468,0.357 0.682,0.535c0.214,0.178 0.366,0.301 0.456,0.371c0.09,0.07 0.128,0.048 0.116,-0.063c-0.013,-0.112 -0.116,-0.396 -0.309,-0.851c-0.193,-0.455 -0.36,-0.907 -0.499,-1.356c-0.139,-0.449 -0.195,-0.741 -0.168,-0.877c0.027,-0.136 0.172,-0.131 0.434,0.015c0.262,0.146 0.546,0.287 0.854,0.421c0.308,0.134 0.553,0.173 0.736,0.115c0.183,-0.058 0.293,-0.257 0.33,-0.597c0.037,-0.34 -0.025,-0.742 -0.184,-1.207c-0.159,-0.465 -0.361,-0.857 -0.604,-1.177c-0.243,-0.319 -0.451,-0.522 -0.625,-0.608c-0.174,-0.086 -0.29,-0.06 -0.347,0.076c-0.058,0.136 -0.061,0.373 -0.01,0.711c0.051,0.338 0.196,0.667 0.436,0.986c0.24,0.319 0.524,0.542 0.854,0.67c0.33,0.127 0.669,0.104 1.018,-0.07c0.505,-0.251 0.806,-0.798 0.902,-1.641" style="fill:none;fill-rule:nonzero;stroke:#000;stroke-width:0.85px;"/><path d="M145.569,4.626c-0.002,-0.035 -0.002,-0.111 0.002,-0.227c0.002,-0.07 0.007,-0.12 0.014,-0.149c0.007,-0.029 0.015,-0.057 0.022,-0.084c0.007,-0.027 0.013,-0.051 0.019,-0.073c0.005,-0.022 0.008,-0.04 0.008,-0.055c0,-0.015 0.002,-0.027 0.007,-0.037c0.005,-0.01 0.011,-0.018 0.018,-0.023c0.007,-0.005 0.016,-0.008 0.025,-0.008c0.01,-0 0.018,0.009 0.026,0.027c0.007,0.018 0.011,0.119 0.011,0.303c0,0.184 -0.001,0.451 -0.003,0.801c-0.002,0.35 -0.017,0.738 -0.045,1.164c-0.028,0.426 -0.056,0.836 -0.083,1.23c-0.027,0.394 -0.052,0.75 -0.074,1.068c-0.022,0.318 -0.043,0.622 -0.062,0.912c-0.019,0.289 -0.034,0.605 -0.045,0.948c-0.01,0.343 -0.016,0.708 -0.016,1.096c-0,0.388 0.008,0.764 0.024,1.127c0.016,0.364 0.036,0.69 0.061,0.977c0.025,0.288 0.041,0.551 0.049,0.79c0.008,0.239 0.013,0.487 0.015,0.744c0.003,0.257 0.004,0.525 0.004,0.803c0,0.279 0,0.559 0,0.841c0,0.282 -0.007,0.554 -0.021,0.815c-0.014,0.261 -0.027,0.503 -0.04,0.726c-0.013,0.223 -0.02,0.443 -0.023,0.661c-0.003,0.218 -0.004,0.441 -0.004,0.67l0,5.538c0,0.23 -0.004,0.46 -0.013,0.689c-0.009,0.229 -0.023,0.45 -0.043,0.665c-0.02,0.214 -0.04,0.426 -0.062,0.636c-0.022,0.209 -0.046,0.415 -0.072,0.617c-0.026,0.202 -0.052,0.408 -0.077,0.619c-0.025,0.211 -0.046,0.412 -0.063,0.603c-0.017,0.191 -0.029,0.362 -0.034,0.514c-0.005,0.152 -0.009,0.295 -0.011,0.429c-0.002,0.134 -0.006,0.263 -0.011,0.387c-0.005,0.124 -0.01,0.255 -0.015,0.393c-0.005,0.138 -0.013,0.283 -0.025,0.436c-0.012,0.153 -0.023,0.301 -0.033,0.445c-0.01,0.144 -0.016,0.283 -0.019,0.417c-0.003,0.134 -0.004,0.264 -0.004,0.391l0,2.156c0,0.05 -0.001,0.116 -0.003,0.198c-0.002,0.082 -0.006,0.15 -0.011,0.204c-0.007,0.075 -0.047,0.02 -0.12,-0.164" style="fill:none;fill-rule:nonzero;stroke:#348ad8;stroke-width:0.85px;"/><path d="M156.592,18.45c0.051,-0.068 0.124,-0.17 0.219,-0.306c0.095,-0.136 0.178,-0.262 0.25,-0.377c0.072,-0.115 0.124,-0.21 0.157,-0.285c0.033,-0.075 0.048,-0.135 0.044,-0.182c-0.004,-0.047 -0.067,-0.089 -0.189,-0.126c-0.123,-0.037 -0.308,-0.056 -0.558,-0.058c-0.249,-0.002 -0.536,0.077 -0.859,0.236c-0.324,0.159 -0.632,0.442 -0.924,0.849c-0.292,0.407 -0.489,0.871 -0.589,1.393c-0.101,0.522 -0.079,0.962 0.064,1.321c0.143,0.359 0.357,0.579 0.642,0.662c0.285,0.082 0.554,0.047 0.806,-0.107c0.252,-0.153 0.465,-0.402 0.638,-0.748c0.173,-0.345 0.312,-0.687 0.416,-1.025c0.105,-0.338 0.176,-0.61 0.215,-0.815c0.039,-0.205 0.059,-0.34 0.059,-0.405c0.001,-0.065 0.001,-0.101 0.001,-0.107l0,-0.009c0,-0 0,0.01 0,0.03c0,0.02 0.015,0.113 0.045,0.279c0.03,0.166 0.08,0.407 0.152,0.723c0.072,0.316 0.165,0.652 0.28,1.007c0.115,0.355 0.233,0.661 0.352,0.919c0.12,0.258 0.225,0.454 0.316,0.589l0.068,0.101l-0.204,-0.304" style="fill:none;fill-rule:nonzero;stroke:#348ad8;stroke-width:0.85px;"/><path d="M162.083,18.385c-0.059,0.031 -0.05,0.046 0.028,0.044c0.078,-0.002 0.273,-0.006 0.584,-0.014c0.312,-0.007 0.668,-0.046 1.068,-0.116c0.401,-0.07 0.784,-0.128 1.152,-0.176c0.367,-0.047 0.601,-0.074 0.702,-0.08l0.076,-0.004l-0.228,0.013" style="fill:none;fill-rule:nonzero;stroke:#348ad8;stroke-width:0.85px;"/><path d="M161.82,20.616c-0.008,-0.042 0.143,-0.091 0.454,-0.148c0.311,-0.056 0.639,-0.086 0.985,-0.089c0.346,-0.003 0.712,-0.004 1.1,-0.004c0.578,0 1.166,-0.088 1.764,-0.262" style="fill:none;fill-rule:nonzero;stroke:#348ad8;stroke-width:0.85px;"/><path d="M172.408,18.844c0.061,-0.056 0.105,-0.126 0.133,-0.21c0.028,-0.084 0.029,-0.154 0.005,-0.21c-0.025,-0.056 -0.108,-0.105 -0.249,-0.147c-0.141,-0.042 -0.321,-0.068 -0.541,-0.076c-0.219,-0.008 -0.447,0.021 -0.682,0.089c-0.236,0.068 -0.459,0.236 -0.669,0.503c-0.211,0.268 -0.361,0.591 -0.452,0.97c-0.091,0.379 -0.084,0.728 0.022,1.046c0.105,0.318 0.308,0.539 0.607,0.661c0.299,0.122 0.611,0.133 0.934,0.033c0.323,-0.1 0.627,-0.338 0.911,-0.713c0.284,-0.375 0.515,-0.752 0.692,-1.131c0.177,-0.378 0.289,-0.65 0.335,-0.814c0.046,-0.164 0.069,-0.252 0.069,-0.262l0,-0.006l0,0.018l0,0.141c0,0.075 0.018,0.231 0.054,0.467c0.036,0.236 0.122,0.51 0.257,0.822c0.135,0.312 0.305,0.608 0.509,0.887c0.205,0.28 0.411,0.502 0.618,0.668c0.207,0.165 0.313,0.199 0.317,0.102" style="fill:none;fill-rule:nonzero;stroke:#348ad8;stroke-width:0.85px;"/><path d="M169.323,15.671c-0.093,0.04 -0.214,0.088 -0.362,0.143c-0.096,0.036 -0.135,0.055 -0.117,0.058c0.018,0.003 0.157,0.012 0.416,0.029c0.259,0.017 0.623,0.024 1.09,0.023c0.468,-0.001 0.978,-0.041 1.531,-0.118c0.553,-0.077 0.919,-0.131 1.097,-0.163l0.134,-0.024l-0.401,0.072" style="fill:none;fill-rule:nonzero;stroke:#348ad8;stroke-width:0.85px;"/></svg>