<?xml version="1.0" encoding="UTF-8" standalone="no"?><!DOCTYPE svg PUBLIC "-//W3C//DTD SVG 1.1//EN" "http://www.w3.org/Graphics/SVG/1.1/DTD/svg11.dtd"><svg width="100%" height="100%" viewBox="0 0 653 369" version="1.1" xmlns="http://www.w3.org/2000/svg" xmlns:xlink="http://www.w3.org/1999/xlink" xml:space="preserve" xmlns:serif="http://www.serif.com/" style="fill-rule:evenodd;clip-rule:evenodd;stroke-linecap:round;stroke-linejoin:round;stroke-miterlimit:10;"><rect id="Artboard1" x="0" y="0" width="653" height="369" style="fill:none;"/><clipPath id="_clip1"><rect x="0" y="0" width="653" height="369"/></clipPath><g clip-path="url(#_clip1)"><rect x="0" y="-0" width="653" height="369" style="fill:#fff;"/><path d="M66.634,60.699c0.249,0.696 0.327,1.492 0.233,2.387c-0.094,0.895 -0.141,2.713 -0.141,5.453c-0,2.74 0.103,5.045 0.309,6.914c0.206,1.869 0.313,4.817 0.319,8.842c0.006,4.025 -0.156,6.728 -0.487,8.107c-0.331,1.38 -0.498,3.299 -0.501,5.757c-0.003,2.458 0.115,4.201 0.354,5.227c0.24,1.026 0.361,3.305 0.365,6.836c0.003,3.532 0.079,6.146 0.228,7.843c0.149,1.697 0.211,3.562 0.187,5.594c-0.024,2.032 -0.097,3.721 -0.218,5.067c-0.121,1.346 -0.183,3.434 -0.187,6.264c-0.003,2.83 -0.211,5.271 -0.623,7.324c-0.412,2.053 -0.699,3.676 -0.86,4.87c-0.161,1.194 -0.244,2.397 -0.248,3.609c-0.004,1.212 0.025,2.61 0.086,4.194c0.061,1.584 -0.027,3.284 -0.263,5.099c-0.236,1.815 -0.373,4.279 -0.41,7.391c-0.037,3.112 0.376,4.687 1.241,4.724c0.864,0.038 1.798,0.235 2.8,0.593c1.002,0.358 2.269,0.571 3.803,0.638c1.533,0.068 3.28,-0.091 5.241,-0.476c1.961,-0.385 3.665,-0.699 5.114,-0.942c1.448,-0.243 3.369,-0.636 5.762,-1.179c2.393,-0.543 4.256,-0.911 5.588,-1.103c1.332,-0.192 2.478,-0.277 3.438,-0.253c0.96,0.024 1.711,0.155 2.256,0.394c0.544,0.239 2.087,0.362 4.628,0.369c2.542,0.007 3.948,-0.282 4.218,-0.867c0.27,-0.585 0.483,-1.65 0.638,-3.197c0.155,-1.547 0.234,-3.935 0.238,-7.164c0.003,-3.23 -0.096,-5.819 -0.299,-7.766c-0.203,-1.948 -0.409,-3.475 -0.618,-4.582c-0.209,-1.107 -0.693,-2.88 -1.452,-5.321c-0.759,-2.44 -1.175,-4.318 -1.25,-5.634c-0.075,-1.315 -0.112,-3.442 -0.112,-6.38c-0,-2.938 0.042,-4.92 0.127,-5.947c0.085,-1.026 0.277,-2.273 0.577,-3.74c0.3,-1.467 0.529,-2.841 0.688,-4.121c0.158,-1.28 0.24,-4.327 0.243,-9.142c0.004,-4.815 -0.053,-8.251 -0.172,-10.31c-0.118,-2.059 -0.238,-3.684 -0.36,-4.876c-0.122,-1.192 -0.2,-3.185 -0.233,-5.98c-0.033,-2.795 -0.05,-5.663 -0.05,-8.603c0,-2.94 0.044,-5.128 0.132,-6.563c0.088,-1.435 0.206,-2.548 0.355,-3.341c0.148,-0.793 0.437,-1.868 0.866,-3.225c0.429,-1.357 0.66,-2.429 0.694,-3.217c0.034,-0.787 -0.601,-1.275 -1.904,-1.465c-1.303,-0.189 -2.875,-0.508 -4.714,-0.956c-1.839,-0.448 -3.573,-0.708 -5.199,-0.779c-1.627,-0.071 -2.727,-0.08 -3.302,-0.025c-0.575,0.055 -1.599,0.291 -3.073,0.709c-1.474,0.418 -2.625,0.706 -3.451,0.864c-0.826,0.158 -2.057,0.255 -3.692,0.289c-1.635,0.035 -2.936,0.138 -3.905,0.31c-0.968,0.173 -1.88,0.438 -2.734,0.795c-0.855,0.357 -1.587,0.767 -2.197,1.229c-0.61,0.462 -0.924,0.817 -0.941,1.064c-0.017,0.247 0.745,0.774 2.288,1.58c1.542,0.807 2.693,1.495 3.452,2.065c0.759,0.57 1.504,1.242 2.233,2.016c0.729,0.774 1.416,1.713 2.061,2.817c0.644,1.104 1.243,2.448 1.797,4.031c0.553,1.583 1.073,3.281 1.56,5.093c0.487,1.812 0.86,3.589 1.119,5.329c0.259,1.741 0.438,3.478 0.536,5.213c0.098,1.735 0.135,4.02 0.112,6.857c-0.024,2.837 -0.358,6.222 -1.002,10.155c-0.645,3.933 -1.181,7.554 -1.61,10.863c-0.429,3.309 -0.742,6.226 -0.941,8.75c-0.198,2.524 -0.301,6.965 -0.309,13.325c-0.008,6.359 -0.099,10.788 -0.274,13.287c-0.175,2.499 -0.253,4.397 -0.233,5.693c0.02,1.296 0.253,2.05 0.698,2.261c0.445,0.211 0.912,0.317 1.403,0.318c0.49,0.001 0.965,-0.357 1.424,-1.072c0.459,-0.715 0.826,-1.561 1.103,-2.537c0.277,-0.976 0.417,-1.59 0.42,-1.843c0.005,-0.353 -0.338,-0.195 -1.029,0.474" style="fill:none;fill-rule:nonzero;stroke:#99d485;stroke-opacity:0.5;stroke-width:27.17px;"/><path d="M67.91,268.687c0.304,0.866 0.469,2.161 0.497,3.886c0.027,1.725 0.237,3.912 0.628,6.561c0.391,2.649 0.651,4.954 0.779,6.915c0.128,1.961 0.266,3.689 0.415,5.185c0.149,1.496 0.24,3.15 0.274,4.963c0.034,1.813 -0.16,3.115 -0.582,3.908c-0.422,0.793 -0.307,1.269 0.344,1.429c0.651,0.159 1.709,0.602 3.174,1.328c1.465,0.726 2.598,1.136 3.398,1.23c0.8,0.095 3.626,0.127 8.476,0.096c4.85,-0.03 7.735,-0.105 8.653,-0.223c0.918,-0.118 2.963,-0.179 6.136,-0.182c3.173,-0.003 5.189,-0.095 6.046,-0.274c0.858,-0.179 1.761,-0.285 2.709,-0.319c0.948,-0.033 1.468,-1.092 1.56,-3.175c0.092,-2.083 0.139,-5.682 0.143,-10.794c0.003,-5.113 0.064,-8.276 0.182,-9.489c0.118,-1.213 0.179,-3.013 0.182,-5.399c0.003,-2.386 0.094,-4.021 0.273,-4.905c0.179,-0.884 0.285,-1.698 0.319,-2.441c0.034,-0.743 -0.591,-0.937 -1.873,-0.582c-1.283,0.354 -2.422,0.535 -3.418,0.542c-0.996,0.007 -2.02,-0.034 -3.07,-0.122c-1.05,-0.088 -5.295,-0.133 -12.733,-0.137c-7.439,-0.003 -11.839,0.084 -13.2,0.263c-1.361,0.179 -2.73,0.361 -4.107,0.546c-1.377,0.185 -2.146,0.845 -2.309,1.98c-0.163,1.135 -0.364,2.271 -0.603,3.408c-0.239,1.137 -0.378,2.734 -0.415,4.79c-0.037,2.056 -0.084,3.482 -0.142,4.278c-0.057,0.796 -0.37,2.045 -0.937,3.748c-0.567,1.703 -0.962,3.085 -1.184,4.148c-0.222,1.063 -0.322,2.082 -0.298,3.058c0.023,0.976 0.318,1.897 0.884,2.764c0.566,0.867 1.216,1.762 1.949,2.684c0.733,0.922 1.674,1.419 2.823,1.489c1.149,0.07 2.288,-0.021 3.42,-0.276c1.131,-0.254 2.319,-0.605 3.563,-1.054c1.245,-0.448 2.521,-0.959 3.829,-1.532c1.308,-0.573 2.556,-1.176 3.742,-1.808c1.186,-0.632 2.245,-1.338 3.175,-2.118c0.931,-0.78 1.582,-1.41 1.953,-1.889c0.371,-0.48 0.709,-1.19 1.012,-2.131c0.303,-0.941 0.461,-1.815 0.472,-2.62c0.011,-0.805 -0.151,-1.414 -0.487,-1.827c-0.336,-0.413 -1.124,-0.66 -2.364,-0.741c-1.24,-0.081 -2.315,0.09 -3.227,0.515c-0.912,0.425 -1.373,0.744 -1.382,0.957c-0.013,0.301 0.698,0.444 2.135,0.429" style="fill:none;fill-rule:nonzero;stroke:#99d485;stroke-opacity:0.5;stroke-width:27.17px;"/><path d="M201.419,130.291c-0.637,0.07 -0.98,-0.26 -1.028,-0.987c-0.034,-0.516 0.067,-0.823 0.304,-0.921c0.237,-0.098 0.568,1.329 0.993,4.28c0.425,2.951 0.656,5.748 0.693,8.39c0.037,2.642 0.056,6.138 0.056,10.49c0,4.352 0.074,7.089 0.223,8.213c0.149,1.124 0.225,2.829 0.228,5.114c0.003,2.285 0.246,3.782 0.729,4.491c0.483,0.709 1.845,1.08 4.087,1.114c2.242,0.034 4.596,-0.084 7.064,-0.354c2.467,-0.27 5.601,-0.407 9.403,-0.41c3.801,-0.003 6.51,-0.125 8.126,-0.365c1.616,-0.24 3.356,-0.435 5.22,-0.588c1.863,-0.152 2.968,-0.23 3.312,-0.233c0.345,-0.003 0.728,-0.348 1.15,-1.033c0.422,-0.686 0.697,-1.402 0.825,-2.148c0.128,-0.746 0.192,-1.737 0.193,-2.972c0,-1.235 -0.131,-2.297 -0.394,-3.184c-0.263,-0.887 -0.621,-1.863 -1.074,-2.927c-0.453,-1.064 -0.76,-1.976 -0.921,-2.735c-0.161,-0.759 -0.244,-2.492 -0.248,-5.199c-0.004,-2.707 0.101,-5.248 0.313,-7.625c0.212,-2.377 0.349,-4.505 0.41,-6.386c0.061,-1.88 0.195,-3.334 0.4,-4.361c0.206,-1.027 0.491,-1.939 0.855,-2.735c0.364,-0.797 0.579,-1.266 0.643,-1.407c0.064,-0.141 0.055,-0.187 -0.028,-0.138c-0.083,0.049 -0.358,0.21 -0.826,0.485c-0.468,0.275 -1.492,0.593 -3.071,0.954c-1.58,0.361 -3.329,0.562 -5.249,0.603c-1.92,0.041 -3.787,-0.234 -5.601,-0.825c-1.814,-0.59 -3.194,-0.967 -4.138,-1.128c-0.945,-0.162 -2.247,-0.247 -3.906,-0.254c-1.66,-0.007 -2.718,0.063 -3.173,0.212c-0.456,0.148 -0.686,0.832 -0.69,2.052c-0.004,1.22 0.448,2.753 1.357,4.6c0.909,1.847 1.595,3.406 2.06,4.678c0.465,1.271 0.869,2.619 1.213,4.043c0.344,1.423 0.595,2.833 0.754,4.228c0.159,1.395 0.317,3.069 0.472,5.022c0.155,1.953 0.294,3.216 0.415,3.79c0.121,0.574 0.265,0.867 0.432,0.878c0.167,0.011 0.275,0.019 0.325,0.022c0.05,0.003 0.008,0.064 -0.123,0.182c-0.132,0.118 -0.404,0.361 -0.816,0.729c-0.412,0.368 -0.648,0.58 -0.709,0.634" style="fill:none;fill-rule:nonzero;stroke:#99d485;stroke-opacity:0.5;stroke-width:27.17px;"/><path d="M517.335,88.407c-0.905,-0.304 -1.359,0.908 -1.362,3.636c-0.003,2.728 0.039,4.606 0.127,5.636c0.088,1.03 0.251,2.187 0.491,3.473c0.24,1.286 0.542,2.671 0.906,4.157c0.365,1.486 0.55,3.77 0.557,6.851c0.007,3.082 0.056,5.182 0.147,6.299c0.091,1.117 0.137,5.747 0.137,13.89c0,8.143 -0.059,12.715 -0.177,13.717c-0.118,1.002 -0.179,2.005 -0.182,3.009c-0.003,1.004 -0.005,1.533 -0.005,1.585l0,0.017l-0,-0.222l0,-5.687c0,-3.602 0.133,-6.704 0.4,-9.307c0.267,-2.603 0.434,-4.822 0.501,-6.657c0.067,-1.835 0.101,-3.6 0.101,-5.295c0,-1.695 -0.224,-3.219 -0.673,-4.573c-0.449,-1.354 -0.692,-2.404 -0.729,-3.15c-0.037,-0.746 0.549,-1.165 1.757,-1.256c1.209,-0.091 2.89,-0.138 5.043,-0.142c2.153,-0.003 4.032,0.1 5.636,0.308c1.604,0.209 4.17,0.33 7.7,0.365c3.529,0.034 5.954,-0.023 7.275,-0.172c1.32,-0.148 2.651,-0.196 3.992,-0.142c1.341,0.054 2.8,0.083 4.378,0.086c1.577,0.003 2.408,0.005 2.491,0.005l0.055,0.002l-0.086,0.009c-0.103,0.007 -1.136,0.08 -3.099,0.218c-1.963,0.138 -6.139,0.21 -12.527,0.217c-6.388,0.006 -10.3,-0.021 -11.737,-0.081c-1.436,-0.06 -3.51,-0.091 -6.219,-0.091c-2.71,-0 -5.984,-0.016 -9.822,-0.046c-3.838,-0.03 -7.428,-0.061 -10.77,-0.091c-3.342,-0.03 -5.772,0.029 -7.29,0.178c-1.519,0.149 -2.853,0.225 -4.002,0.228c-1.149,0.003 -2.474,0.168 -3.975,0.496c-1.501,0.328 -2.74,0.51 -3.716,0.547c-0.976,0.037 -1.772,0.13 -2.386,0.278c-0.614,0.149 -1.016,0.36 -1.205,0.633c-0.266,0.385 1.131,0.232 4.191,-0.457" style="fill:none;fill-rule:nonzero;stroke:#de7b7b;stroke-opacity:0.5;stroke-width:27.17px;"/><path d="M357.015,248.271c0.811,-0.365 1.682,-0.533 2.613,-0.506c0.931,0.028 2.017,0.147 3.255,0.359c1.239,0.212 2.76,0.32 4.563,0.323c1.803,0.004 4.357,-0.19 7.661,-0.582c3.304,-0.392 6.215,-0.589 8.734,-0.593c2.519,-0.003 4.696,-0.26 6.532,-0.77c1.836,-0.51 3.076,-0.754 3.721,-0.734c0.645,0.021 1.388,0.152 2.229,0.394c0.841,0.242 2.763,0.38 5.767,0.415c3.004,0.034 7.114,0.036 12.33,0.006c5.215,-0.03 7.97,-0.06 8.264,-0.089c0.294,-0.029 0.449,-0.044 0.466,-0.046l0.004,-0.001l-0.128,-0.002l-2.71,0c-1.707,0 -3.556,-0.118 -5.547,-0.355c-1.992,-0.236 -4.258,-0.478 -6.8,-0.724c-2.542,-0.247 -4.787,-0.371 -6.734,-0.375c-1.948,-0.003 -3.242,0.051 -3.883,0.163c-0.64,0.112 -1.364,0.336 -2.171,0.673c-0.807,0.337 -2.075,0.509 -3.804,0.515c-1.729,0.007 -2.887,0.1 -3.474,0.278c-0.587,0.179 -1.232,0.482 -1.934,0.911c-0.702,0.429 -0.891,-0.024 -0.568,-1.357c0.324,-1.333 0.698,-3.183 1.124,-5.548c0.425,-2.366 0.807,-4.303 1.144,-5.812c0.338,-1.509 0.508,-5.642 0.511,-12.4c0.003,-6.758 0.051,-9.702 0.142,-8.83c0.091,0.871 0.137,5.205 0.137,13.002c0,7.797 0.12,12.617 0.36,14.461c0.24,1.844 0.361,3.608 0.365,5.292c0.003,1.684 -0.085,3.543 -0.264,5.578c-0.179,2.035 -0.27,4.66 -0.273,7.874c-0.003,3.214 -0.079,5.886 -0.228,8.016c-0.149,2.13 -0.299,4.074 -0.451,5.833c-0.152,1.758 -0.229,3.217 -0.232,4.375c-0.003,1.158 -0.062,2.173 -0.177,3.042c-0.114,0.869 -0.175,1.331 -0.182,1.386c-0.007,0.055 -0.015,0.058 -0.023,0.011c-0.012,-0.068 -0.144,-0.848 -0.398,-2.339" style="fill:none;fill-rule:nonzero;stroke:#de7b7b;stroke-opacity:0.5;stroke-width:27.17px;"/><path d="M55.332,17.301c-0.239,-0.14 -0.305,0.315 -0.196,1.364c0.108,1.05 0.168,2.155 0.179,3.316c0.011,1.161 0.017,2.356 0.017,3.585c0,1.229 0,2.325 0,3.288c0,0.963 0.01,1.798 0.029,2.505c0.019,0.707 0.034,1.384 0.046,2.031c0.011,0.647 0.017,1.319 0.017,2.016l0,26.055c0,0.552 -0.01,1.155 -0.029,1.811c-0.019,0.656 -0.063,1.337 -0.132,2.044c-0.069,0.707 -0.134,1.439 -0.196,2.196c-0.062,0.757 -0.119,1.598 -0.17,2.522c-0.052,0.924 -0.097,1.935 -0.137,3.033c-0.04,1.098 -0.09,2.206 -0.15,3.323c-0.061,1.117 -0.121,2.178 -0.182,3.185c-0.061,1.006 -0.132,1.957 -0.213,2.853c-0.081,0.896 -0.156,1.75 -0.226,2.562c-0.07,0.813 -0.131,1.59 -0.184,2.331c-0.053,0.742 -0.099,1.458 -0.14,2.149c-0.041,0.691 -0.066,1.356 -0.076,1.995c-0.01,0.639 -0.026,1.278 -0.047,1.916c-0.021,0.638 -0.032,1.272 -0.032,1.902c-0,0.63 -0,1.214 -0,1.752c0,0.538 0.005,1.109 0.014,1.712c0.009,0.603 0.034,1.287 0.074,2.051c0.04,0.764 0.09,1.619 0.15,2.565c0.06,0.946 0.115,1.886 0.166,2.82c0.051,0.934 0.087,1.799 0.11,2.595c0.022,0.797 0.033,1.493 0.034,2.088c0,0.595 0,1.127 0,1.595l0,9.871c0,0.812 0.005,1.559 0.014,2.241c0.009,0.682 0.043,1.319 0.103,1.911c0.06,0.592 0.101,1.171 0.123,1.737c0.022,0.566 0.034,1.142 0.034,1.729c0,0.586 0,1.212 0,1.877l0,8.87c0,0.633 0.015,1.229 0.044,1.786c0.029,0.558 0.044,1.149 0.046,1.774c0.001,0.626 0.016,1.272 0.046,1.939c0.029,0.667 0.044,1.335 0.046,2.003c0.001,0.668 0.016,1.337 0.046,2.005c0.029,0.668 0.044,1.365 0.046,2.091c0.001,0.726 0.002,1.488 0.002,2.285l0,33.115c0,0.519 -0.01,0.968 -0.029,1.348c-0.019,0.38 -0.034,0.704 -0.046,0.971c-0.011,0.267 -0.017,0.559 -0.017,0.878c0,0.319 -0.01,0.71 -0.029,1.172c-0.019,0.462 -0.034,0.96 -0.046,1.495c-0.011,0.535 -0.017,1.099 -0.017,1.693c-0,0.594 -0,1.243 -0,1.948l0,5.077c0,0.95 0.015,1.911 0.044,2.883c0.029,0.972 0.059,1.906 0.089,2.803c0.03,0.896 0.065,1.712 0.105,2.447c0.04,0.735 0.09,1.431 0.15,2.089c0.061,0.658 0.112,1.398 0.153,2.22c0.042,0.823 0.068,1.752 0.079,2.788c0.011,1.036 0.017,2.083 0.017,3.14l0,61.135c0,0.958 0.01,1.833 0.029,2.628c0.019,0.795 0.034,1.571 0.046,2.33c0.011,0.758 0.017,1.552 0.017,2.38c0,0.828 0,1.692 0,2.591l0,9.597c0,0.618 0.005,1.27 0.014,1.957c0.009,0.686 0.034,1.345 0.074,1.978c0.04,0.632 0.081,1.208 0.121,1.727c0.041,0.519 0.061,1.075 0.063,1.668c0.001,0.593 0.016,1.237 0.046,1.933c0.029,0.695 0.054,1.451 0.074,2.267c0.02,0.816 0.036,1.649 0.047,2.5c0.011,0.851 0.021,1.697 0.031,2.538c0.009,0.842 0.034,1.634 0.074,2.378c0.04,0.744 0.095,1.408 0.164,1.991c0.069,0.584 0.13,1.105 0.182,1.563c0.053,0.458 0.104,0.934 0.154,1.428c0.05,0.494 0.1,1.009 0.15,1.544c0.051,0.536 0.102,1.101 0.153,1.696c0.052,0.595 0.098,1.197 0.138,1.804c0.041,0.608 0.076,1.215 0.106,1.823c0.03,0.608 0.046,1.215 0.047,1.823c0.001,0.608 0.002,1.23 0.002,1.867l0,20.35l0.001,0.038l0.007,-0.138c0.008,-0.204 0.033,-0.542 0.076,-1.015" style="fill:none;fill-rule:nonzero;stroke:#000;stroke-width:3.54px;"/><path d="M19.969,49.748c0.066,0.074 0.568,0.119 1.505,0.133c0.938,0.014 1.995,-0.032 3.173,-0.139c1.178,-0.107 2.513,-0.218 4.004,-0.332c1.492,-0.114 2.949,-0.178 4.373,-0.19c1.424,-0.013 2.728,-0.019 3.91,-0.019l3.532,0c1.172,0 2.389,-0.005 3.653,-0.014c1.263,-0.009 2.529,-0.039 3.795,-0.089c1.267,-0.05 2.537,-0.081 3.811,-0.091c1.274,-0.01 2.631,-0.055 4.07,-0.133c1.439,-0.079 2.954,-0.164 4.543,-0.255c1.589,-0.091 3.073,-0.153 4.451,-0.187c1.378,-0.034 2.561,-0.05 3.547,-0.051c0.987,0 1.79,-0 2.41,-0l2.784,0c0.376,0 0.77,0.019 1.182,0.058c0.412,0.038 0.85,0.088 1.315,0.149c0.465,0.061 0.945,0.112 1.441,0.153c0.496,0.042 1.011,0.068 1.545,0.08c0.534,0.011 1.147,0.017 1.839,0.017l11.57,0c1.15,0 2.289,-0.024 3.417,-0.073c1.128,-0.048 2.128,-0.093 3,-0.135c0.872,-0.042 1.649,-0.063 2.331,-0.064c0.682,-0.001 1.362,-0.002 2.04,-0.002l17.123,0c0.663,0 1.407,-0.005 2.232,-0.014c0.825,-0.009 1.716,-0.048 2.675,-0.118c0.958,-0.07 1.909,-0.125 2.852,-0.167c0.943,-0.042 1.923,-0.063 2.942,-0.064c1.018,-0.001 2.102,-0.002 3.251,-0.002c1.149,0 2.365,-0.029 3.647,-0.086c1.283,-0.058 2.573,-0.132 3.871,-0.223c1.298,-0.091 2.498,-0.168 3.6,-0.231c1.102,-0.063 2.131,-0.095 3.087,-0.096c0.957,-0.001 1.895,-0.002 2.814,-0.002l5.714,0c0.906,0 1.741,-0.015 2.505,-0.044c0.764,-0.029 1.515,-0.045 2.254,-0.046c0.738,-0.001 1.501,-0.002 2.289,-0.002l11.801,0c0.817,0 1.622,0.015 2.415,0.044c0.793,0.029 1.584,0.059 2.373,0.09c0.789,0.03 1.568,0.046 2.338,0.047c0.77,0.001 1.55,0.002 2.339,0.002l2.242,0c0.705,0 1.309,0.005 1.811,0.014c0.502,0.009 0.933,0.053 1.292,0.132c0.359,0.078 0.72,0.163 1.082,0.255c0.363,0.091 0.785,0.163 1.266,0.216c0.482,0.053 1.033,0.085 1.656,0.096c0.622,0.011 1.248,0.017 1.878,0.017l9.931,0c1.284,0 2.725,-0.024 4.324,-0.073c1.599,-0.048 3.264,-0.093 4.994,-0.135c1.73,-0.042 3.452,-0.078 5.165,-0.108c1.713,-0.03 3.368,-0.046 4.962,-0.047c1.595,-0.001 3.119,-0.002 4.572,-0.002l13.571,0c0.588,0 1.195,0.019 1.823,0.058c0.628,0.038 1.231,0.069 1.809,0.091c0.578,0.022 1.147,0.033 1.705,0.033c0.558,0 1.12,0 1.685,0l37.864,0c1.15,0 2.219,-0.015 3.208,-0.044c0.989,-0.029 1.877,-0.044 2.663,-0.045c0.786,-0.001 1.52,-0.002 2.201,-0.002c0.681,0 1.385,0.014 2.11,0.043c0.726,0.028 1.464,0.078 2.214,0.148c0.75,0.071 1.456,0.122 2.118,0.153c0.662,0.032 1.307,0.068 1.934,0.108c0.628,0.04 1.295,0.081 2,0.121c0.706,0.041 1.433,0.071 2.181,0.091c0.748,0.02 1.459,0.036 2.133,0.047c0.674,0.011 1.29,0.017 1.85,0.017l11.64,0c0.553,0 1.176,-0.01 1.87,-0.029c0.694,-0.019 1.425,-0.034 2.193,-0.046c0.767,-0.011 1.575,-0.017 2.422,-0.017l6.75,0c1.548,0 3.443,-0.024 5.687,-0.071c2.244,-0.047 4.626,-0.132 7.148,-0.253c2.522,-0.121 4.768,-0.189 6.739,-0.203c1.971,-0.014 3.634,-0.02 4.991,-0.02l8.741,0c0.694,0 1.321,-0.019 1.881,-0.058c0.559,-0.038 1.171,-0.083 1.835,-0.133c0.664,-0.05 1.359,-0.111 2.086,-0.182c0.727,-0.071 1.485,-0.137 2.273,-0.198c0.789,-0.061 1.602,-0.102 2.44,-0.125c0.838,-0.022 1.668,-0.034 2.49,-0.034c0.821,-0 1.628,-0 2.42,-0l42.347,0c1.325,0 2.558,0.005 3.698,0.014c1.14,0.009 2.238,0.024 3.293,0.045c1.055,0.021 2.086,0.046 3.092,0.076c1.006,0.03 1.864,0.069 2.575,0.118c0.711,0.05 1.308,0.109 1.791,0.179c0.483,0.07 0.956,0.15 1.42,0.241c0.464,0.091 0.982,0.153 1.553,0.187c0.572,0.034 1.196,0.05 1.872,0.05c0.676,0 1.359,0 2.049,0l19.199,0c0.735,0 1.679,0.043 2.832,0.13c1.153,0.087 2.304,0.176 3.453,0.268c1.15,0.092 2.165,0.174 3.047,0.246c0.882,0.072 1.645,0.119 2.288,0.142c0.643,0.023 1.326,0.034 2.05,0.034c0.724,0 1.476,0 2.256,0l2.238,0c0.711,0 1.45,-0.019 2.216,-0.058c0.766,-0.038 1.554,-0.083 2.363,-0.135c0.809,-0.052 1.652,-0.093 2.529,-0.123c0.877,-0.031 1.839,-0.046 2.888,-0.048c1.048,-0.001 2.071,-0.002 3.068,-0.002l16.356,0c0.66,0 1.436,-0.005 2.331,-0.014c0.894,-0.009 1.784,-0.048 2.668,-0.118c0.884,-0.07 1.713,-0.11 2.488,-0.123c0.774,-0.013 1.525,-0.019 2.254,-0.019l14.942,0c0.943,0 1.827,0.019 2.652,0.058c0.825,0.038 1.589,0.069 2.292,0.091c0.703,0.022 1.36,0.033 1.971,0.033c0.611,0 1.248,0 1.911,0l26.384,0c0.512,0 0.971,0.015 1.379,0.044c0.408,0.029 0.818,0.045 1.233,0.046c0.414,0.001 0.872,0.002 1.373,0.002c0.501,0 1.093,0.019 1.776,0.058c0.683,0.038 1.432,0.117 2.248,0.235c0.816,0.118 1.645,0.234 2.486,0.347c0.841,0.113 1.663,0.187 2.464,0.221c0.801,0.034 1.582,0.051 2.343,0.051c0.761,0 1.521,0 2.28,0c0.76,0 1.51,-0.005 2.25,-0.014c0.74,-0.009 1.456,-0.063 2.147,-0.16c0.691,-0.098 1.351,-0.188 1.982,-0.272c0.63,-0.083 1.239,-0.151 1.828,-0.202c0.589,-0.052 1.172,-0.078 1.749,-0.079c0.577,-0.001 1.155,-0.002 1.732,-0.002l1.732,0c0.577,0 1.126,-0.015 1.645,-0.044c0.52,-0.029 1.004,-0.045 1.451,-0.045c0.448,-0.001 0.861,-0.002 1.239,-0.002l8.089,0c0.446,0 0.925,-0.005 1.438,-0.014c0.513,-0.009 1.01,-0.053 1.49,-0.132c0.48,-0.079 0.909,-0.164 1.287,-0.255c0.559,-0.135 1.159,-0.388 1.799,-0.76" style="fill:none;fill-rule:nonzero;stroke:#000;stroke-width:3.54px;"/><path d="M20.606,115.371c0,-0.056 0,-0.47 -0,-1.241l0,-0.69c0,-0.049 0.005,-0.063 0.014,-0.045c0.009,0.019 0.033,0.066 0.07,0.141c0.037,0.075 0.217,0.291 0.54,0.649c0.323,0.358 0.855,0.729 1.596,1.115c0.741,0.386 1.845,0.728 3.311,1.026c1.467,0.298 3.347,0.526 5.641,0.683c2.294,0.158 4.734,0.243 7.322,0.257c2.587,0.014 5.156,0.02 7.705,0.02l6.632,0c1.872,0 3.621,0.014 5.248,0.043c1.626,0.028 3.522,0.083 5.687,0.164c2.165,0.081 4.529,0.127 7.093,0.14c2.564,0.013 5.007,0.01 7.332,-0.009c2.324,-0.018 4.525,-0.125 6.603,-0.321c2.078,-0.196 4.248,-0.439 6.509,-0.731c2.262,-0.291 4.59,-0.56 6.986,-0.806c2.396,-0.246 4.699,-0.443 6.91,-0.589c2.211,-0.146 4.291,-0.226 6.238,-0.24c1.948,-0.014 3.933,-0.021 5.956,-0.021l30.57,0c1.768,0 3.574,0.005 5.42,0.014c1.846,0.009 3.698,0.068 5.558,0.175c1.859,0.108 3.818,0.184 5.876,0.228c2.058,0.044 4.194,0.076 6.407,0.098c2.213,0.021 4.392,0.032 6.536,0.032l11.312,0c1.769,0 3.627,0.024 5.574,0.073c1.947,0.048 4.029,0.093 6.247,0.135c2.218,0.042 4.482,0.063 6.793,0.064c2.311,0.001 4.518,0.002 6.622,0.002l35.955,0c1.415,0 2.816,0.043 4.203,0.13c1.386,0.087 2.807,0.172 4.262,0.255c1.455,0.083 2.942,0.159 4.459,0.229c1.518,0.07 3.027,0.155 4.526,0.255c1.5,0.1 3.028,0.207 4.583,0.319c1.555,0.112 3.219,0.185 4.992,0.219c1.772,0.034 3.591,0.051 5.458,0.051c1.866,0 3.599,0 5.199,0c1.6,0 3.154,0.019 4.663,0.056c1.508,0.038 3.105,0.117 4.789,0.238c1.685,0.121 3.421,0.208 5.21,0.261c1.789,0.053 3.629,0.08 5.519,0.081c1.89,0.001 3.721,-0.012 5.492,-0.041c1.771,-0.028 3.487,-0.073 5.148,-0.135c1.661,-0.062 3.341,-0.093 5.04,-0.094c1.699,-0.001 3.41,-0.006 5.134,-0.015c1.724,-0.009 3.363,-0.068 4.918,-0.176c1.555,-0.108 3.121,-0.194 4.698,-0.258c1.577,-0.064 3.218,-0.096 4.924,-0.098c1.706,-0.001 3.435,-0.002 5.188,-0.002l15.629,0c1.78,0 3.605,0.024 5.474,0.073c1.869,0.048 3.756,0.079 5.659,0.091c1.904,0.013 3.823,0.019 5.757,0.019c1.934,0 3.825,-0.053 5.673,-0.159c1.848,-0.106 3.629,-0.211 5.344,-0.314c1.715,-0.103 3.481,-0.191 5.297,-0.263c1.816,-0.072 3.638,-0.119 5.465,-0.142c1.827,-0.023 3.606,-0.034 5.338,-0.034c1.732,0 3.537,-0.029 5.414,-0.086c1.877,-0.058 3.831,-0.122 5.862,-0.194c2.031,-0.072 4.079,-0.119 6.145,-0.142c2.066,-0.022 4.151,-0.034 6.255,-0.034c2.104,-0 4.253,-0 6.446,-0l6.82,0c2.354,0 4.693,-0.029 7.019,-0.086c2.325,-0.058 4.553,-0.136 6.682,-0.237c2.13,-0.1 4.378,-0.197 6.746,-0.29c2.368,-0.093 4.832,-0.166 7.392,-0.218c2.56,-0.052 4.968,-0.088 7.222,-0.108c2.254,-0.02 4.318,-0.036 6.19,-0.047c1.872,-0.011 3.749,-0.017 5.632,-0.017l15.997,0c1.686,0 3.36,-0.014 5.019,-0.043c1.66,-0.028 3.369,-0.097 5.126,-0.207c1.758,-0.11 3.533,-0.187 5.325,-0.229c1.793,-0.043 3.566,-0.075 5.321,-0.095c1.755,-0.02 3.459,-0.065 5.113,-0.133c1.653,-0.069 3.29,-0.149 4.91,-0.24c1.62,-0.091 3.26,-0.153 4.92,-0.187c1.66,-0.034 3.32,-0.05 4.982,-0.051l41.48,0c1.147,0 2.248,-0.024 3.305,-0.073c1.057,-0.048 2.068,-0.079 3.033,-0.091c0.965,-0.012 1.919,-0.018 2.861,-0.018c0.942,0 1.908,0.005 2.898,0.014c0.99,0.009 1.958,0.039 2.904,0.089c0.946,0.05 1.821,0.076 2.625,0.077c0.804,0.001 1.576,0.002 2.318,0.002c0.742,0 1.501,0.038 2.277,0.115c0.776,0.077 1.6,0.181 2.469,0.312c0.87,0.132 1.686,0.215 2.45,0.25c0.764,0.035 1.525,0.052 2.282,0.052c0.758,0 1.47,0 2.136,0l1.331,0c0.221,0 0.246,0.027 0.077,0.082c-0.242,0.078 -1.002,0.324 -2.281,0.738" style="fill:none;fill-rule:nonzero;stroke:#000;stroke-width:3.54px;"/><path d="M21.153,183.181c-0.014,-0.43 -0.061,-0.915 -0.142,-1.456c-0.081,-0.541 -0.224,-0.849 -0.431,-0.926c-0.206,-0.076 -0.437,0.108 -0.692,0.552c-0.255,0.445 -0.366,0.938 -0.332,1.481c0.033,0.543 0.508,0.946 1.424,1.21c0.916,0.264 2.208,0.415 3.875,0.451c1.667,0.036 3.583,0.016 5.746,-0.06c2.163,-0.077 4.374,-0.152 6.632,-0.226c2.258,-0.074 4.52,-0.112 6.787,-0.113c2.266,-0.001 4.597,-0.002 6.993,-0.002c2.396,0 4.805,-0.028 7.227,-0.085c2.422,-0.056 4.68,-0.141 6.773,-0.255c2.093,-0.113 3.876,-0.171 5.346,-0.175c1.471,-0.004 2.872,0.078 4.203,0.243c1.331,0.165 2.898,0.282 4.7,0.351c1.802,0.068 3.798,0.098 5.989,0.089c2.191,-0.009 4.299,-0.048 6.324,-0.118c2.025,-0.07 4.008,-0.111 5.95,-0.123c1.942,-0.013 3.991,-0.019 6.148,-0.019c2.157,0 4.471,-0.009 6.942,-0.028c2.471,-0.018 5.007,-0.121 7.609,-0.307c2.602,-0.187 4.998,-0.314 7.187,-0.382c2.189,-0.068 4.149,-0.084 5.879,-0.047c1.73,0.037 3.604,0.082 5.621,0.136c2.017,0.053 4.39,0.076 7.119,0.067c2.728,-0.009 5.582,-0.11 8.56,-0.304c2.978,-0.194 5.795,-0.394 8.451,-0.6c2.656,-0.206 5.183,-0.348 7.58,-0.423c2.398,-0.075 4.848,-0.114 7.35,-0.115c2.502,-0.001 5.002,-0.002 7.5,-0.002l7.435,0c2.458,0 4.846,-0.014 7.165,-0.042c2.319,-0.028 4.496,-0.059 6.533,-0.091c2.036,-0.032 3.987,-0.049 5.852,-0.049l17.002,0c1.686,0 3.402,-0.029 5.149,-0.086c1.747,-0.058 3.59,-0.132 5.529,-0.223c1.94,-0.091 3.872,-0.182 5.796,-0.273c1.924,-0.091 3.897,-0.178 5.918,-0.26c2.021,-0.082 4.098,-0.144 6.231,-0.186c2.133,-0.042 4.278,-0.078 6.434,-0.108c2.156,-0.03 4.328,-0.061 6.516,-0.091c2.188,-0.03 4.318,-0.046 6.388,-0.047c2.07,-0.001 4.105,-0.002 6.103,-0.002c1.998,0 3.945,-0.014 5.84,-0.042c1.895,-0.028 3.838,-0.073 5.83,-0.135c1.992,-0.062 3.928,-0.093 5.809,-0.094c1.881,-0.001 3.693,-0.002 5.437,-0.002l5.458,0c1.895,0 3.923,-0.038 6.083,-0.115c2.16,-0.077 4.334,-0.161 6.521,-0.255c2.188,-0.093 4.299,-0.146 6.334,-0.159c2.035,-0.012 3.961,0 5.778,0.038c1.817,0.037 3.675,0.098 5.574,0.18c1.899,0.083 3.832,0.125 5.797,0.126c1.965,0.001 3.866,0.002 5.703,0.002l5.445,0c1.794,0 3.625,0.043 5.493,0.129c1.868,0.086 3.841,0.21 5.92,0.373c2.078,0.163 4.22,0.257 6.427,0.282c2.206,0.025 4.36,0.037 6.462,0.037l35.593,0c1.712,0 3.37,0.01 4.974,0.029c1.604,0.019 3.162,0.034 4.675,0.045c1.513,0.011 3.004,0.007 4.471,-0.012c1.468,-0.019 2.96,-0.034 4.477,-0.045c1.517,-0.011 3.093,-0.008 4.729,0.01c1.636,0.018 3.318,0.125 5.047,0.321c1.728,0.196 3.53,0.387 5.407,0.573c1.876,0.186 3.883,0.292 6.022,0.317c2.139,0.025 4.292,0.038 6.46,0.038l12.979,0c2.114,0 4.081,0.015 5.903,0.044c1.822,0.029 3.652,0.045 5.489,0.046c1.837,0.001 3.858,0.002 6.062,0.002l13.728,0c2.29,0 4.536,-0.005 6.738,-0.014c2.202,-0.009 4.334,-0.053 6.395,-0.132c2.061,-0.079 4.056,-0.154 5.985,-0.226c1.929,-0.072 3.816,-0.129 5.661,-0.17c1.845,-0.042 3.655,-0.097 5.43,-0.166c1.775,-0.069 3.524,-0.149 5.248,-0.24c1.724,-0.091 3.455,-0.158 5.195,-0.201c1.74,-0.043 3.505,-0.075 5.295,-0.096c1.79,-0.021 3.592,-0.037 5.406,-0.046c1.814,-0.009 3.569,-0.053 5.267,-0.132c1.698,-0.079 3.284,-0.178 4.76,-0.297c1.475,-0.12 2.946,-0.255 4.411,-0.408c1.465,-0.153 3.001,-0.261 4.607,-0.325c1.606,-0.064 3.239,-0.107 4.899,-0.127c1.66,-0.02 3.291,-0.036 4.893,-0.048c1.601,-0.011 3.26,-0.017 4.975,-0.017l14.975,0c1.428,0 2.669,-0.01 3.725,-0.029c1.056,-0.019 2.127,-0.049 3.213,-0.089c1.086,-0.04 2.276,-0.061 3.568,-0.062c1.292,-0.001 2.491,-0.002 3.595,-0.002l3.92,0c0.003,0 -0.005,0 -0.024,0c-0.026,0 -0.952,0.028 -2.778,0.083" style="fill:none;fill-rule:nonzero;stroke:#000;stroke-width:3.54px;"/><path d="M22.429,250.262c-0.125,-0.22 0.655,-0.164 2.339,0.167c1.685,0.331 3.91,0.602 6.676,0.811c2.766,0.209 5.857,0.326 9.275,0.351c3.417,0.025 6.572,0.08 9.463,0.166c2.891,0.086 5.524,0.219 7.898,0.4c2.374,0.181 4.7,0.334 6.979,0.458c2.279,0.125 4.567,0.228 6.865,0.31c2.298,0.082 4.563,0.13 6.795,0.142c2.232,0.013 4.514,-0.043 6.845,-0.168c2.331,-0.124 4.755,-0.283 7.272,-0.478c2.517,-0.194 5.008,-0.324 7.474,-0.389c2.466,-0.065 4.866,-0.133 7.2,-0.201c2.334,-0.069 4.568,-0.139 6.703,-0.211c2.135,-0.072 4.23,-0.119 6.287,-0.141c2.057,-0.023 4.117,-0.038 6.179,-0.048c2.062,-0.009 4.272,-0.096 6.63,-0.26c2.358,-0.164 4.84,-0.407 7.445,-0.727c2.605,-0.32 5.13,-0.567 7.576,-0.738c2.446,-0.172 4.629,-0.259 6.548,-0.262c1.919,-0.003 3.866,0.011 5.84,0.04c1.975,0.029 4.198,0.045 6.668,0.046c2.471,0.001 5.083,-0.003 7.837,-0.012c2.753,-0.009 5.265,-0.034 7.536,-0.074c2.27,-0.04 4.462,-0.066 6.574,-0.078c2.112,-0.011 4.392,-0.017 6.839,-0.017c2.448,0 5.006,-0.005 7.675,-0.014c2.67,-0.009 5.298,-0.082 7.886,-0.218c2.588,-0.136 5.099,-0.253 7.534,-0.349c2.435,-0.096 4.891,-0.141 7.367,-0.133c2.476,0.008 5.014,0.075 7.614,0.202c2.6,0.127 5.149,0.213 7.647,0.26c2.498,0.046 5.029,0.036 7.594,-0.029c2.565,-0.065 5.116,-0.218 7.654,-0.457c2.538,-0.239 5.057,-0.433 7.558,-0.581c2.5,-0.148 4.957,-0.224 7.37,-0.226c2.413,-0.003 4.878,0.001 7.395,0.01c2.517,0.009 4.975,0.024 7.375,0.045c2.4,0.021 4.72,0.032 6.96,0.032l6.63,0c2.18,0 4.305,0.043 6.376,0.129c2.071,0.086 3.986,0.219 5.743,0.4c1.757,0.181 3.315,0.329 4.674,0.445c1.359,0.116 2.657,0.18 3.895,0.192c1.238,0.013 2.426,0.019 3.565,0.019c1.139,0 2.245,-0.024 3.32,-0.073c1.075,-0.048 2.205,-0.079 3.392,-0.091c1.186,-0.012 2.538,-0.023 4.055,-0.032c1.517,-0.009 3.182,-0.058 4.996,-0.145c1.813,-0.088 3.672,-0.207 5.574,-0.358c1.903,-0.151 3.835,-0.297 5.796,-0.44c1.961,-0.143 3.988,-0.232 6.08,-0.267c2.092,-0.035 4.201,-0.052 6.329,-0.053c2.128,0 4.215,-0 6.263,-0c2.048,0 4.046,-0.038 5.995,-0.115c1.949,-0.077 3.937,-0.171 5.965,-0.283c2.028,-0.113 4.14,-0.18 6.336,-0.204c2.196,-0.024 4.305,-0.035 6.327,-0.035c2.022,-0 3.963,-0 5.823,-0l10.24,0c1.573,0 3.188,0.023 4.843,0.07c1.655,0.046 3.377,0.16 5.163,0.341c1.787,0.18 3.617,0.309 5.49,0.384c1.873,0.075 3.655,0.109 5.345,0.101c1.69,-0.008 3.354,-0.051 4.993,-0.13c1.639,-0.079 3.365,-0.135 5.179,-0.168c1.814,-0.034 3.783,-0.05 5.908,-0.051c2.125,0 4.378,-0 6.76,-0l7.235,0c2.442,0 4.825,-0.042 7.152,-0.127c2.327,-0.085 4.493,-0.243 6.5,-0.474c2.006,-0.231 3.981,-0.42 5.923,-0.566c1.943,-0.146 4.006,-0.231 6.191,-0.255c2.185,-0.024 4.48,-0.035 6.888,-0.036l51.325,0c1.425,0 2.853,0.005 4.285,0.014c1.432,0.009 3.009,0.068 4.73,0.175c1.721,0.108 3.426,0.208 5.113,0.3c1.687,0.092 3.245,0.17 4.673,0.233c1.428,0.063 2.781,0.095 4.06,0.096c1.278,0.001 2.618,0.007 4.02,0.016c1.401,0.009 2.874,0.048 4.419,0.118c1.545,0.07 3.064,0.135 4.558,0.196c1.494,0.061 2.912,0.102 4.253,0.124c1.342,0.021 2.704,0.047 4.087,0.078c1.383,0.03 2.836,0.06 4.359,0.091c1.523,0.03 3.138,0.085 4.845,0.164c1.708,0.079 3.264,0.159 4.669,0.241c1.405,0.082 2.529,0.129 3.371,0.142c0.843,0.013 1.457,0.019 1.844,0.019l1.092,0c0.341,0 0.767,0.005 1.277,0.014c0.51,0.009 1.135,0.068 1.875,0.176c0.74,0.108 1.583,0.208 2.527,0.3c0.944,0.092 1.928,0.179 2.953,0.261c1.025,0.082 1.994,0.139 2.908,0.17c0.914,0.032 1.822,0.063 2.724,0.093c0.902,0.03 1.775,0.056 2.618,0.076c0.843,0.02 1.529,0.041 2.058,0.062l0.581,0.03l-0.078,0.003" style="fill:none;fill-rule:nonzero;stroke:#000;stroke-width:3.54px;"/><path d="M20.242,316.614c0.153,-0.083 0.788,-0.149 1.905,-0.199c1.117,-0.05 2.529,-0.074 4.237,-0.074l25.85,0c2.887,0 5.29,0.005 7.209,0.014c1.92,0.009 3.615,0.087 5.085,0.235c1.47,0.147 3.282,0.234 5.437,0.26c2.154,0.026 4.569,0.025 7.245,-0.004c2.675,-0.028 5.249,-0.058 7.721,-0.091c2.472,-0.032 4.95,-0.049 7.433,-0.049c2.483,-0 5.165,-0.024 8.047,-0.07c2.882,-0.046 5.846,-0.179 8.894,-0.398c3.048,-0.219 5.923,-0.377 8.625,-0.475c2.702,-0.098 5.264,-0.147 7.685,-0.149c2.422,-0.002 5.041,-0.035 7.858,-0.102c2.817,-0.067 5.797,-0.185 8.94,-0.354c3.143,-0.17 6.114,-0.288 8.912,-0.355c2.798,-0.067 5.16,-0.064 7.084,0.011c1.925,0.075 3.721,0.276 5.39,0.604c1.669,0.328 3.565,0.587 5.69,0.778c2.125,0.191 4.517,0.293 7.178,0.307c2.66,0.014 5.213,0.021 7.659,0.021c2.446,0 4.692,0.014 6.739,0.043c2.047,0.028 4.129,0.087 6.247,0.177c2.117,0.09 4.468,0.152 7.051,0.185c2.584,0.034 5.311,0.05 8.182,0.051c2.871,0 5.792,-0.043 8.764,-0.128c2.972,-0.086 5.858,-0.176 8.659,-0.272c2.801,-0.095 5.41,-0.143 7.826,-0.145c2.417,-0.001 4.932,-0.002 7.545,-0.002c2.613,0 5.32,-0.038 8.121,-0.115c2.801,-0.077 5.452,-0.137 7.951,-0.182c2.499,-0.045 4.711,-0.054 6.634,-0.026c1.923,0.027 3.784,0.169 5.581,0.425c1.797,0.256 3.913,0.425 6.347,0.505c2.434,0.081 4.993,0.117 7.678,0.108c2.685,-0.009 5.214,-0.067 7.588,-0.175c2.374,-0.108 4.525,-0.208 6.454,-0.3c1.929,-0.092 3.938,-0.198 6.028,-0.318c2.09,-0.119 4.457,-0.279 7.102,-0.479c2.645,-0.2 5.356,-0.412 8.134,-0.635c2.777,-0.223 5.427,-0.393 7.95,-0.509c2.523,-0.117 4.868,-0.21 7.037,-0.28c2.169,-0.07 4.363,-0.151 6.584,-0.242c2.221,-0.091 4.619,-0.192 7.195,-0.302c2.576,-0.11 5.295,-0.207 8.158,-0.29c2.863,-0.083 5.64,-0.136 8.331,-0.158c2.692,-0.022 5.209,-0.034 7.553,-0.034c2.344,-0 4.701,0.038 7.071,0.115c2.371,0.077 4.854,0.152 7.45,0.226c2.596,0.074 5.223,0.112 7.88,0.113c2.658,0.001 5.007,0.002 7.048,0.002l11.147,0c1.842,0 3.669,-0.033 5.481,-0.1c1.812,-0.067 3.678,-0.151 5.599,-0.255c1.921,-0.103 3.854,-0.161 5.799,-0.173c1.945,-0.013 3.836,-0.019 5.673,-0.019c1.837,0 3.676,-0 5.519,-0l5.354,0c1.726,0 3.454,0.01 5.184,0.029c1.73,0.019 3.533,0.063 5.41,0.132c1.877,0.069 3.803,0.129 5.777,0.182c1.974,0.053 3.871,0.08 5.69,0.083c1.819,0.002 3.615,-0.065 5.386,-0.201c1.771,-0.136 3.587,-0.252 5.445,-0.349c1.859,-0.096 3.798,-0.145 5.818,-0.147c2.02,-0.001 4.029,0.003 6.028,0.012c1.999,0.009 3.975,0.043 5.929,0.103c1.954,0.06 3.961,0.105 6.021,0.137c2.06,0.032 4.164,0.087 6.31,0.166c2.147,0.079 4.298,0.145 6.453,0.197c2.155,0.053 4.279,0.085 6.371,0.096c2.092,0.011 4.093,0.017 6.002,0.017c1.909,0 3.881,0.005 5.917,0.014c2.036,0.009 4.228,0.091 6.576,0.247c2.348,0.155 4.754,0.344 7.218,0.567c2.463,0.223 4.718,0.392 6.763,0.509c2.045,0.117 3.84,0.181 5.383,0.194c1.543,0.013 3.081,0.055 4.614,0.128c1.533,0.073 3.13,0.158 4.792,0.255c1.662,0.097 3.213,0.167 4.651,0.208c1.439,0.042 2.773,0.063 4.002,0.064c1.229,0.001 2.499,0.002 3.809,0.002l15.715,0c1.266,0 2.636,0.014 4.108,0.041c1.473,0.027 2.945,0.155 4.416,0.381c1.472,0.227 2.859,0.409 4.163,0.548c1.304,0.138 2.482,0.208 3.534,0.211c1.052,0.003 1.997,0.004 2.835,0.004l14.521,0c1.032,0 1.74,-0.014 2.123,-0.041c0.535,-0.038 -0.191,-0.612 -2.18,-1.72" style="fill:none;fill-rule:nonzero;stroke:#000;stroke-width:3.54px;"/><path d="M120.777,349.154c-0.086,0.241 -0.178,0.545 -0.275,0.912c-0.063,0.239 0.023,0.186 0.258,-0.157c0.235,-0.343 0.432,-1.029 0.592,-2.057c0.16,-1.028 0.255,-2.281 0.284,-3.76c0.03,-1.479 0.059,-3.278 0.09,-5.398c0.03,-2.12 0.046,-4.217 0.047,-6.292c0.001,-2.074 0.002,-4.045 0.002,-5.914l0,-5.526c0,-1.816 0.019,-3.472 0.058,-4.968c0.038,-1.496 0.069,-2.823 0.091,-3.981c0.022,-1.158 0.034,-2.474 0.034,-3.948c0,-1.474 0,-3.065 0,-4.771l0,-14.215c0,-1.59 -0.01,-3.218 -0.029,-4.883c-0.019,-1.665 -0.034,-3.157 -0.046,-4.478c-0.011,-1.321 -0.012,-2.578 -0.003,-3.77c0.009,-1.193 0.077,-2.537 0.204,-4.034c0.127,-1.496 0.228,-3.055 0.303,-4.677c0.075,-1.622 0.109,-3.14 0.101,-4.555c-0.008,-1.415 -0.042,-2.795 -0.101,-4.143c-0.06,-1.347 -0.1,-2.757 -0.123,-4.229c-0.022,-1.472 -0.015,-3.026 0.022,-4.663c0.037,-1.637 0.117,-3.151 0.238,-4.544c0.121,-1.392 0.193,-2.6 0.217,-3.623c0.024,-1.023 0.036,-2.11 0.036,-3.262c0,-1.151 0.014,-2.496 0.043,-4.035c0.028,-1.539 0.092,-3.099 0.191,-4.681c0.099,-1.582 0.185,-3.156 0.259,-4.724c0.074,-1.568 0.117,-3.162 0.128,-4.782c0.011,-1.62 0.017,-3.269 0.017,-4.945l0,-5.128c0,-1.742 0.005,-3.417 0.014,-5.025c0.009,-1.609 0.034,-3.028 0.074,-4.258c0.04,-1.23 0.081,-2.391 0.121,-3.483c0.04,-1.092 0.061,-2.278 0.063,-3.557c0.001,-1.279 0.002,-2.678 0.002,-4.198l0,-4.694c0,-1.61 -0.009,-3.148 -0.028,-4.615c-0.018,-1.467 -0.11,-2.86 -0.277,-4.179c-0.166,-1.319 -0.351,-2.666 -0.555,-4.04c-0.203,-1.374 -0.363,-2.76 -0.479,-4.157c-0.116,-1.398 -0.18,-2.766 -0.193,-4.106c-0.013,-1.34 -0.052,-2.64 -0.119,-3.899c-0.067,-1.259 -0.189,-2.486 -0.368,-3.68c-0.179,-1.194 -0.351,-2.467 -0.517,-3.818c-0.166,-1.351 -0.256,-2.731 -0.27,-4.14c-0.014,-1.408 -0.021,-2.725 -0.021,-3.949c0,-1.224 -0,-2.388 -0,-3.491l0,-14.535c0,-1.155 -0.005,-2.352 -0.014,-3.592c-0.009,-1.24 -0.024,-2.548 -0.045,-3.922c-0.021,-1.375 -0.036,-2.669 -0.046,-3.883c-0.009,-1.214 -0.072,-2.339 -0.188,-3.376c-0.116,-1.037 -0.304,-2.119 -0.564,-3.248c-0.26,-1.129 -0.498,-2.32 -0.713,-3.572c-0.216,-1.252 -0.386,-2.535 -0.511,-3.848c-0.125,-1.313 -0.214,-2.687 -0.267,-4.12c-0.053,-1.434 -0.085,-2.948 -0.096,-4.543c-0.011,-1.595 0.04,-3.146 0.155,-4.652c0.115,-1.506 0.221,-2.828 0.317,-3.966c0.096,-1.138 0.145,-2.276 0.146,-3.414c0.001,-1.138 -0.037,-2.406 -0.115,-3.802c-0.078,-1.397 -0.123,-2.846 -0.137,-4.347c-0.013,-1.501 -0.02,-2.88 -0.02,-4.135c0,-1.256 0.058,-2.427 0.173,-3.513c0.115,-1.086 0.259,-2.239 0.432,-3.458c0.173,-1.219 0.297,-2.452 0.372,-3.699c0.075,-1.248 0.114,-2.413 0.115,-3.495c0.001,-1.082 0.012,-2.018 0.031,-2.808c0.019,-0.79 0.049,-1.572 0.089,-2.344c0.04,-0.773 0.061,-1.721 0.063,-2.845c0.001,-1.124 0.002,-2.25 0.002,-3.378l0,-6.191c0,-1.066 0.019,-2.201 0.056,-3.404c0.037,-1.204 0.083,-2.293 0.136,-3.268c0.053,-0.975 0.08,-1.772 0.081,-2.39c0,-0.618 -0.028,-1.196 -0.086,-1.733c-0.058,-0.537 -0.103,-1.098 -0.137,-1.685c-0.033,-0.586 -0.05,-1.04 -0.05,-1.361c0,-0.438 0.152,-0.57 0.457,-0.398" style="fill:none;fill-rule:nonzero;stroke:#000;stroke-width:3.54px;"/><path d="M187.29,18.55c-0.195,-0.052 -0.556,0.089 -1.083,0.421c-0.333,0.21 -0.482,0.425 -0.45,0.644c0.033,0.22 0.197,0.581 0.492,1.084c0.296,0.503 0.572,1.198 0.83,2.083c0.258,0.886 0.449,1.942 0.575,3.168c0.126,1.226 0.225,2.53 0.297,3.913c0.072,1.383 0.139,2.789 0.199,4.217c0.061,1.429 0.131,2.765 0.211,4.01c0.08,1.244 0.161,2.386 0.243,3.426c0.082,1.04 0.158,2.031 0.228,2.973c0.07,0.942 0.141,1.967 0.213,3.073c0.072,1.106 0.143,2.253 0.214,3.439c0.071,1.187 0.132,2.275 0.183,3.265c0.051,0.99 0.087,1.907 0.11,2.75c0.022,0.843 0.034,1.81 0.034,2.899c0,1.09 0,2.339 0,3.749l0,4.188c0,1.383 0.029,2.631 0.086,3.745c0.058,1.114 0.103,2.206 0.137,3.277c0.034,1.071 0.05,2.24 0.05,3.508c0,1.268 0,2.533 0,3.793l0,6.696c0,0.986 -0.014,1.974 -0.042,2.966c-0.028,0.991 -0.083,2.041 -0.164,3.148c-0.081,1.108 -0.152,2.287 -0.213,3.539c-0.061,1.252 -0.112,2.488 -0.154,3.707c-0.042,1.22 -0.063,2.34 -0.064,3.36c-0.001,1.021 -0.002,1.944 -0.002,2.77l0,20.53c0,0.926 0.01,1.834 0.029,2.724c0.019,0.89 0.034,1.858 0.046,2.904c0.011,1.045 0.017,2.198 0.017,3.457l0,11.534c0,1.14 0.005,2.252 0.014,3.335c0.009,1.084 0.053,2.22 0.132,3.41c0.079,1.19 0.159,2.493 0.241,3.91c0.082,1.417 0.144,3.001 0.186,4.751c0.042,1.751 0.063,3.548 0.064,5.393c0.001,1.845 0.021,3.545 0.059,5.099c0.038,1.555 0.083,2.843 0.133,3.865c0.051,1.022 0.092,1.948 0.125,2.778c0.033,0.83 0.049,1.753 0.049,2.768l0,3.42c0,1.265 0.005,2.659 0.014,4.183c0.009,1.524 0.034,2.969 0.074,4.336c0.04,1.367 0.075,2.529 0.106,3.487c0.03,0.958 0.061,1.841 0.091,2.651c0.03,0.81 0.051,1.726 0.063,2.748c0.011,1.022 0.017,2.192 0.017,3.511l0,27.126c0,1.571 0.005,3.14 0.014,4.708c0.009,1.568 0.053,3.267 0.132,5.098c0.079,1.831 0.154,3.681 0.226,5.55c0.072,1.869 0.129,3.585 0.17,5.145c0.042,1.561 0.087,2.975 0.137,4.242c0.05,1.267 0.09,2.42 0.122,3.46c0.031,1.04 0.058,2.036 0.079,2.988c0.021,0.952 0.032,1.929 0.032,2.929c0,1 0,2.07 0,3.209l0,10.258c0,1.055 -0.005,2.109 -0.014,3.16c-0.009,1.051 -0.049,2.22 -0.118,3.505c-0.07,1.285 -0.139,2.665 -0.209,4.14c-0.07,1.475 -0.15,2.909 -0.241,4.301c-0.091,1.393 -0.178,2.734 -0.26,4.023c-0.082,1.29 -0.144,2.529 -0.185,3.717c-0.042,1.188 -0.078,2.316 -0.108,3.384c-0.03,1.068 -0.046,2.137 -0.047,3.208c-0.001,1.07 -0.002,2.21 -0.002,3.42l0,20.752c0,0.064 0.007,0.069 0.02,0.015c0.02,-0.078 0.081,-0.323 0.185,-0.735" style="fill:none;fill-rule:nonzero;stroke:#000;stroke-width:3.54px;"/><path d="M255.937,344.686c-0.215,0.234 -0.374,0.512 -0.48,0.835c-0.106,0.323 -0.125,0.507 -0.06,0.553c0.065,0.046 0.298,-0.097 0.697,-0.43c0.399,-0.333 0.64,-0.888 0.722,-1.663c0.082,-0.776 0.123,-1.661 0.123,-2.656l0,-3.886c0,-1.596 -0.048,-3.464 -0.142,-5.605c-0.095,-2.141 -0.263,-4.327 -0.503,-6.559c-0.24,-2.232 -0.463,-4.268 -0.668,-6.11c-0.205,-1.842 -0.37,-3.468 -0.494,-4.878c-0.125,-1.41 -0.252,-2.759 -0.382,-4.045c-0.13,-1.287 -0.294,-2.655 -0.493,-4.104c-0.199,-1.45 -0.421,-2.969 -0.665,-4.557c-0.244,-1.588 -0.415,-3.196 -0.513,-4.823c-0.098,-1.627 -0.147,-3.305 -0.149,-5.033c-0.001,-1.728 -0.002,-3.536 -0.002,-5.422c0,-1.886 -0.043,-3.808 -0.129,-5.765c-0.086,-1.957 -0.2,-3.838 -0.344,-5.644c-0.143,-1.805 -0.222,-3.658 -0.236,-5.557c-0.014,-1.899 -0.021,-3.845 -0.021,-5.838l0,-24.135c0,-1.472 0.029,-3.026 0.086,-4.662c0.058,-1.636 0.103,-3.237 0.137,-4.804c0.033,-1.567 0.05,-3.008 0.05,-4.322c0,-1.315 0,-2.632 0,-3.953l0,-9.19c0,-1.602 0.005,-3.198 0.014,-4.787c0.009,-1.589 0.029,-3.193 0.059,-4.813c0.03,-1.619 0.056,-3.273 0.077,-4.962c0.021,-1.689 0.032,-3.303 0.032,-4.843c0,-1.54 0.005,-2.888 0.014,-4.045c0.009,-1.157 0.029,-2.3 0.059,-3.429c0.03,-1.129 0.085,-2.426 0.164,-3.892c0.079,-1.465 0.159,-2.997 0.241,-4.597c0.082,-1.6 0.153,-3.165 0.214,-4.697c0.061,-1.531 0.097,-3.057 0.11,-4.576c0.012,-1.519 0.018,-3.033 0.018,-4.543l0,-8.463c0,-1.326 0.005,-2.725 0.014,-4.198c0.009,-1.473 0.058,-2.993 0.145,-4.56c0.088,-1.567 0.169,-3.074 0.243,-4.519c0.074,-1.446 0.117,-2.813 0.128,-4.103c0.012,-1.29 0.013,-2.649 0.004,-4.077c-0.009,-1.428 -0.039,-3.004 -0.089,-4.728c-0.05,-1.723 -0.076,-3.375 -0.078,-4.956c-0.001,-1.58 0.05,-3.099 0.154,-4.556c0.104,-1.457 0.301,-3.026 0.591,-4.708c0.29,-1.682 0.553,-3.362 0.79,-5.039c0.237,-1.677 0.423,-3.242 0.557,-4.695c0.134,-1.453 0.286,-2.986 0.456,-4.598c0.17,-1.613 0.332,-3.183 0.486,-4.713c0.154,-1.53 0.249,-2.853 0.283,-3.971c0.035,-1.118 0.043,-2.139 0.025,-3.065c-0.018,-0.925 -0.087,-1.877 -0.206,-2.855c-0.119,-0.978 -0.22,-2.003 -0.303,-3.075c-0.083,-1.072 -0.136,-2.13 -0.159,-3.175c-0.022,-1.044 -0.034,-2.068 -0.034,-3.072c-0,-1.004 -0,-2.026 -0,-3.067l0,-3.171c0,-1.073 0.019,-2.089 0.058,-3.048c0.038,-0.958 0.107,-1.825 0.206,-2.601c0.099,-0.775 0.228,-1.58 0.388,-2.413c0.16,-0.833 0.312,-1.845 0.457,-3.036c0.145,-1.19 0.224,-2.464 0.238,-3.82c0.014,-1.356 -0.008,-2.636 -0.064,-3.84c-0.056,-1.203 -0.156,-2.289 -0.298,-3.258c-0.142,-0.968 -0.22,-1.985 -0.234,-3.051c-0.014,-1.066 -0.021,-2.201 -0.021,-3.404c0,-1.203 -0.014,-2.374 -0.042,-3.511c-0.028,-1.138 -0.116,-2.196 -0.264,-3.175c-0.147,-0.979 -0.279,-1.862 -0.394,-2.648c-0.116,-0.787 -0.18,-1.568 -0.192,-2.345c-0.013,-0.777 -0.019,-1.599 -0.019,-2.468c0,-0.868 0.009,-1.739 0.027,-2.611c0.018,-0.872 0.076,-1.56 0.172,-2.063c0.097,-0.503 -0.016,-0.875 -0.338,-1.116" style="fill:none;fill-rule:nonzero;stroke:#000;stroke-width:3.54px;"/><path d="M320.193,21.402c-0.357,0.342 -0.769,0.827 -1.236,1.453c-0.467,0.627 -0.772,1.263 -0.915,1.908c-0.143,0.645 -0.192,1.417 -0.147,2.316c0.045,0.899 0.172,2.067 0.381,3.502c0.209,1.435 0.382,3.193 0.519,5.275c0.137,2.082 0.203,4.489 0.196,7.222c-0.007,2.733 -0.102,5.626 -0.287,8.679c-0.185,3.053 -0.331,5.912 -0.44,8.577c-0.109,2.665 -0.146,5.03 -0.111,7.097c0.035,2.066 0.181,3.988 0.438,5.764c0.257,1.776 0.494,3.643 0.71,5.598c0.216,1.956 0.396,3.971 0.54,6.047c0.144,2.076 0.268,4.016 0.371,5.822c0.103,1.806 0.156,3.438 0.159,4.898c0.002,1.46 0.004,2.873 0.004,4.239l0,17.739c0,1.24 -0.009,2.521 -0.028,3.841c-0.018,1.32 -0.073,2.732 -0.163,4.235c-0.091,1.503 -0.143,3.049 -0.155,4.636c-0.013,1.588 -0.023,3.248 -0.033,4.981c-0.009,1.733 -0.082,3.589 -0.218,5.568c-0.136,1.979 -0.277,3.923 -0.421,5.833c-0.145,1.91 -0.224,3.662 -0.238,5.255c-0.014,1.593 -0.021,2.995 -0.021,4.204c0,1.21 0.005,2.327 0.014,3.351c0.009,1.025 0.039,2.106 0.089,3.244c0.05,1.138 0.091,2.334 0.121,3.588c0.031,1.254 0.046,2.485 0.048,3.693c0.001,1.207 0.002,2.36 0.002,3.46l0,9.164c0,1.12 0.01,2.166 0.029,3.137c0.019,0.971 0.053,1.882 0.103,2.733c0.05,0.851 0.086,1.765 0.108,2.742c0.022,0.977 0.033,2.015 0.034,3.116c0,1.1 0,2.222 0,3.365c0,1.143 0.014,2.325 0.042,3.546c0.028,1.221 0.068,2.451 0.12,3.689c0.052,1.238 0.107,2.45 0.167,3.635c0.06,1.185 0.115,2.346 0.166,3.483c0.051,1.136 0.087,2.324 0.11,3.562c0.022,1.238 0.033,2.565 0.034,3.98l0,34.16c0,1.421 0.024,2.962 0.071,4.623c0.048,1.661 0.107,3.311 0.179,4.949c0.072,1.639 0.134,3.131 0.185,4.478c0.052,1.347 0.093,2.595 0.123,3.744c0.03,1.149 0.061,2.267 0.091,3.353c0.03,1.086 0.056,2.223 0.076,3.41c0.02,1.188 0.06,2.491 0.118,3.91c0.059,1.419 0.168,2.917 0.327,4.495c0.16,1.578 0.296,2.979 0.41,4.203c0.114,1.224 0.211,2.29 0.292,3.197c0.081,0.908 0.148,1.855 0.201,2.842c0.053,0.987 0.085,1.993 0.096,3.016c0.011,1.024 0.017,2.037 0.017,3.04l0,3.108c0,1.069 -0.005,2.17 -0.014,3.303c-0.009,1.133 -0.024,2.3 -0.045,3.502c-0.021,1.202 -0.041,2.435 -0.06,3.701c-0.019,1.266 -0.068,2.493 -0.146,3.681c-0.078,1.188 -0.183,2.346 -0.314,3.472c-0.131,1.126 -0.219,2.246 -0.264,3.359c-0.045,1.113 -0.068,2.203 -0.068,3.271c0,1.068 -0,2.021 -0,2.86l0,7.958c0,0.633 0.005,1.109 0.014,1.426c0.009,0.317 0.045,0.374 0.107,0.17c0.089,-0.291 0.369,-1.207 0.84,-2.748" style="fill:none;fill-rule:nonzero;stroke:#000;stroke-width:3.54px;"/><path d="M388.459,19.944l0,-2.788c0,-0.276 0,-0.386 0,-0.33l0,6.789c0,2.143 0.014,4.431 0.042,6.865c0.028,2.435 0.107,4.801 0.235,7.099c0.128,2.298 0.249,4.451 0.363,6.457c0.113,2.006 0.187,3.837 0.221,5.492c0.034,1.655 0.051,3.135 0.051,4.441c0,1.306 0,2.614 0,3.924l0,4.297c0,1.555 0.043,3.025 0.129,4.411c0.086,1.386 0.215,2.713 0.386,3.982c0.172,1.268 0.305,2.539 0.4,3.813c0.095,1.274 0.148,2.54 0.16,3.798c0.013,1.258 0.014,2.534 0.005,3.828c-0.009,1.294 -0.043,2.603 -0.103,3.928c-0.06,1.325 -0.11,2.714 -0.152,4.169c-0.041,1.455 -0.068,2.906 -0.079,4.354c-0.011,1.448 -0.031,2.94 -0.059,4.475c-0.028,1.535 -0.092,3.069 -0.191,4.602c-0.099,1.533 -0.185,2.962 -0.259,4.287c-0.074,1.324 -0.117,2.547 -0.128,3.666c-0.011,1.12 -0.017,2.255 -0.017,3.407l0,11.858c0,1.481 -0.01,3.065 -0.029,4.751c-0.019,1.686 -0.049,3.295 -0.09,4.824c-0.04,1.53 -0.061,2.902 -0.062,4.118c-0.001,1.215 -0.002,2.38 -0.002,3.495l0,49.905c0,1.08 -0.029,2.254 -0.086,3.523c-0.058,1.269 -0.132,2.596 -0.223,3.981c-0.091,1.385 -0.158,2.791 -0.201,4.218c-0.043,1.427 -0.084,2.84 -0.125,4.238c-0.04,1.399 -0.095,2.863 -0.164,4.394c-0.069,1.531 -0.144,3.213 -0.226,5.045c-0.082,1.833 -0.129,3.697 -0.142,5.593c-0.013,1.895 -0.019,3.665 -0.019,5.309l0,4.398c0,1.289 0.005,2.404 0.014,3.346c0.009,0.942 0.043,1.873 0.103,2.791c0.06,0.918 0.1,1.893 0.123,2.922c0.022,1.029 0.034,2.119 0.034,3.269c0,1.15 0,2.351 0,3.603l0,3.721c0,1.229 0.048,2.397 0.144,3.504c0.096,1.108 0.229,2.274 0.4,3.5c0.171,1.226 0.329,2.686 0.473,4.379c0.145,1.693 0.239,3.477 0.282,5.351c0.043,1.874 0.065,3.613 0.066,5.217c0.001,1.604 0.002,3 0.002,4.188l0,6.495c0,1.071 -0.043,2.154 -0.129,3.247c-0.086,1.094 -0.195,2.23 -0.329,3.41c-0.133,1.18 -0.227,2.416 -0.28,3.71c-0.053,1.294 -0.08,2.528 -0.082,3.702c-0.001,1.174 -0.002,2.191 -0.002,3.05c0,0.859 -0.014,1.756 -0.043,2.69c-0.028,0.934 -0.068,1.985 -0.12,3.153c-0.052,1.168 -0.083,2.34 -0.094,3.518c-0.011,1.178 -0.017,2.271 -0.017,3.28l0,12.158c0,0.7 -0.015,1.419 -0.044,2.156c-0.029,0.737 -0.059,1.49 -0.09,2.259c-0.03,0.768 -0.046,1.586 -0.047,2.453c-0.001,0.866 -0.002,1.723 -0.002,2.568l0,2.063c0,0.53 0.005,0.91 0.014,1.141c0.009,0.231 0.082,0.438 0.218,0.62c0.185,0.248 0.303,0.218 0.355,-0.089" style="fill:none;fill-rule:nonzero;stroke:#000;stroke-width:3.54px;"/><path d="M455.813,345.871c-0.11,0.291 -0.223,0.678 -0.339,1.16c-0.116,0.482 -0.18,0.812 -0.191,0.991l-0.017,0.24l-0,-0.003l0,-1.839c0,-1.034 -0.009,-2.47 -0.028,-4.309c-0.018,-1.838 -0.096,-3.892 -0.235,-6.161c-0.138,-2.269 -0.24,-4.548 -0.305,-6.838c-0.065,-2.29 -0.142,-4.598 -0.23,-6.924c-0.088,-2.326 -0.236,-4.637 -0.444,-6.931c-0.208,-2.295 -0.4,-4.293 -0.577,-5.993c-0.177,-1.7 -0.296,-3.037 -0.359,-4.009c-0.063,-0.972 -0.14,-1.969 -0.23,-2.99c-0.09,-1.021 -0.176,-2.279 -0.258,-3.772c-0.082,-1.493 -0.129,-3.04 -0.142,-4.64c-0.013,-1.601 -0.019,-3.1 -0.019,-4.498l0,-3.967c0,-1.246 -0.024,-2.593 -0.071,-4.04c-0.048,-1.448 -0.108,-3.063 -0.18,-4.846c-0.073,-1.783 -0.11,-3.495 -0.111,-5.135c-0.001,-1.64 -0.002,-3.235 -0.002,-4.783c0,-1.549 -0.005,-3.204 -0.014,-4.965c-0.009,-1.761 -0.077,-3.675 -0.204,-5.742c-0.127,-2.067 -0.238,-4.054 -0.332,-5.961c-0.094,-1.908 -0.148,-3.579 -0.16,-5.014c-0.013,-1.435 -0.019,-2.803 -0.019,-4.105l0,-63.322c0,-1.533 0.009,-2.997 0.027,-4.391c0.018,-1.394 0.083,-2.701 0.192,-3.921c0.11,-1.22 0.191,-2.384 0.244,-3.491c0.053,-1.107 0.08,-2.265 0.081,-3.473c0.001,-1.208 0.002,-2.57 0.002,-4.087l0,-63.798c0,-1.44 -0.009,-2.76 -0.027,-3.96c-0.018,-1.2 -0.087,-2.455 -0.206,-3.765c-0.119,-1.31 -0.201,-2.625 -0.246,-3.944c-0.045,-1.32 -0.068,-2.555 -0.068,-3.708c0,-1.152 0.057,-2.221 0.173,-3.207c0.115,-0.986 0.273,-1.998 0.474,-3.037c0.201,-1.039 0.399,-2.115 0.592,-3.229c0.194,-1.114 0.377,-2.175 0.55,-3.183c0.173,-1.008 0.307,-1.926 0.402,-2.753c0.095,-0.827 0.172,-1.658 0.233,-2.492c0.061,-0.835 0.098,-1.747 0.11,-2.738c0.013,-0.991 0.019,-1.915 0.019,-2.772l0,-4.747c0,-0.844 0.005,-1.798 0.014,-2.863c0.009,-1.065 0.063,-2.179 0.16,-3.345c0.098,-1.165 0.184,-2.266 0.258,-3.304c0.074,-1.038 0.112,-2.053 0.113,-3.045c0.001,-0.993 -0.003,-1.967 -0.012,-2.921c-0.009,-0.955 -0.058,-1.864 -0.147,-2.728c-0.089,-0.863 -0.174,-1.663 -0.255,-2.398c-0.081,-0.735 -0.163,-1.438 -0.245,-2.106c-0.082,-0.669 -0.129,-1.366 -0.141,-2.092c-0.013,-0.726 -0.014,-1.559 -0.005,-2.499c0.013,-1.381 0.407,-3.009 1.18,-4.885" style="fill:none;fill-rule:nonzero;stroke:#000;stroke-width:3.54px;"/><path d="M518.696,22.678c0.013,-0.398 0.005,-0.713 -0.023,-0.946c-0.019,-0.159 -0.049,-0.041 -0.09,0.353c-0.041,0.394 -0.062,1.307 -0.063,2.739c-0.001,1.432 0.013,3.081 0.041,4.947c0.028,1.866 0.063,3.87 0.105,6.012c0.042,2.142 0.097,4.234 0.165,6.277c0.069,2.043 0.125,3.936 0.168,5.679c0.044,1.743 0.057,3.42 0.038,5.032c-0.018,1.612 -0.101,3.175 -0.249,4.69c-0.148,1.515 -0.26,2.916 -0.335,4.201c-0.075,1.285 -0.114,2.428 -0.115,3.43c-0.001,1.002 -0.002,2.054 -0.002,3.158l0,15.595c0,1.278 0.014,2.511 0.042,3.699c0.028,1.188 0.087,2.393 0.177,3.613c0.09,1.22 0.152,2.58 0.185,4.078c0.034,1.499 0.05,3.015 0.05,4.548c0,1.533 0,2.918 0,4.156l0,20.33c0,1.146 -0.043,2.433 -0.13,3.86c-0.087,1.428 -0.191,2.883 -0.312,4.365c-0.121,1.483 -0.209,2.812 -0.263,3.989c-0.054,1.177 -0.106,2.268 -0.155,3.273c-0.05,1.005 -0.095,2.053 -0.137,3.142c-0.041,1.089 -0.068,2.225 -0.079,3.406c-0.011,1.181 -0.017,2.413 -0.017,3.695l0,24.863c0,0.701 0.014,1.335 0.043,1.901c0.028,0.567 0.058,1.225 0.091,1.976c0.032,0.751 0.049,1.614 0.049,2.59c0,0.976 0,1.961 0,2.953c0,0.993 0.029,1.99 0.086,2.991c0.058,1.001 0.113,2.076 0.165,3.224c0.053,1.148 0.099,2.358 0.14,3.632c0.041,1.273 0.062,2.581 0.063,3.923c0.001,1.342 0.002,2.741 0.002,4.199l0,8.27c0,1.353 -0.038,2.801 -0.115,4.345c-0.077,1.543 -0.147,3.067 -0.211,4.571c-0.064,1.504 -0.102,2.822 -0.113,3.953c-0.011,1.131 -0.017,2.101 -0.017,2.908l0,4.437c0,0.708 0.015,1.484 0.044,2.328c0.029,0.844 0.059,1.75 0.09,2.719c0.03,0.969 0.06,1.973 0.09,3.014c0.03,1.041 0.103,2.098 0.221,3.171c0.118,1.073 0.268,2.108 0.449,3.104c0.181,0.996 0.334,1.98 0.459,2.952c0.125,0.972 0.233,1.95 0.324,2.932c0.091,0.982 0.182,1.983 0.273,3.003c0.091,1.02 0.183,2.085 0.274,3.197c0.091,1.111 0.173,2.229 0.245,3.353c0.072,1.124 0.129,2.22 0.17,3.286c0.041,1.067 0.068,2.126 0.079,3.178c0.011,1.052 0.017,2.134 0.017,3.245l0,35.453c0,1.707 -0.029,3.23 -0.086,4.571c-0.058,1.34 -0.141,2.589 -0.251,3.746c-0.11,1.157 -0.197,2.294 -0.261,3.41c-0.064,1.116 -0.102,2.188 -0.113,3.217c-0.011,1.028 -0.017,1.975 -0.017,2.839l0,2.5c0,0.802 -0.01,1.646 -0.029,2.532c-0.019,0.886 -0.034,1.833 -0.045,2.843c-0.011,1.009 -0.032,1.997 -0.061,2.963c-0.029,0.966 -0.044,1.886 -0.045,2.758c-0.001,0.872 -0.002,1.773 -0.002,2.701c0,0.928 0.005,1.956 0.014,3.082c0.009,1.126 0.068,2.268 0.175,3.425c0.108,1.157 0.208,2.14 0.3,2.947c0.092,0.808 0.198,1.278 0.316,1.411c0.118,0.133 0.123,0.045 0.014,-0.265c-0.158,-0.447 -0.163,-1.306 -0.016,-2.578" style="fill:none;fill-rule:nonzero;stroke:#000;stroke-width:3.54px;"/><path d="M586.877,22.04c-0.441,0.071 -0.694,0.651 -0.758,1.74c-0.064,1.089 -0.081,2.687 -0.052,4.793c0.03,2.106 0.146,4.468 0.35,7.086c0.204,2.618 0.492,5.117 0.864,7.498c0.372,2.381 0.698,4.681 0.976,6.902c0.279,2.22 0.501,4.383 0.665,6.486c0.164,2.104 0.303,4.053 0.417,5.848c0.113,1.795 0.202,3.504 0.265,5.127c0.063,1.623 0.095,3.249 0.096,4.877c0.001,1.628 0.002,3.359 0.002,5.192l0,11.921c0,1.956 -0.015,3.677 -0.044,5.163c-0.029,1.487 -0.044,2.839 -0.045,4.056c-0.001,1.217 -0.002,2.665 -0.002,4.343l0,22.134c0,1.685 0.019,3.272 0.056,4.759c0.037,1.488 0.083,2.901 0.136,4.242c0.054,1.34 0.08,2.64 0.081,3.898c0,1.258 0,2.548 0,3.869l0,9.065c0,1.639 0.005,3.28 0.014,4.921c0.009,1.642 0.082,3.215 0.218,4.719c0.136,1.505 0.276,2.976 0.42,4.414c0.144,1.438 0.267,2.896 0.369,4.373c0.103,1.477 0.195,2.975 0.277,4.493c0.082,1.518 0.144,3.027 0.186,4.528c0.042,1.501 0.063,2.966 0.064,4.395c0.001,1.429 0.002,2.853 0.002,4.271l0,24.538c0,1.249 -0.005,2.61 -0.014,4.081c-0.009,1.472 -0.024,2.981 -0.045,4.53c-0.021,1.548 -0.032,3.058 -0.032,4.53l0,4.425c0,1.479 0.01,2.904 0.029,4.275c0.019,1.372 0.035,2.721 0.046,4.048c0.011,1.327 0.008,2.706 -0.01,4.138c-0.018,1.432 -0.077,3.003 -0.177,4.715c-0.1,1.711 -0.167,3.469 -0.2,5.272c-0.034,1.803 -0.051,3.466 -0.051,4.99l0,19.484c0,1.36 -0.048,2.674 -0.142,3.941c-0.095,1.267 -0.253,2.63 -0.474,4.087c-0.221,1.458 -0.424,3.015 -0.608,4.673c-0.185,1.658 -0.3,3.226 -0.346,4.704c-0.046,1.478 -0.069,2.743 -0.07,3.794c0,1.051 -0,2.021 -0,2.911l0,3.02c0,1.123 0.005,2.404 0.014,3.842c0.009,1.438 0.053,2.864 0.132,4.279c0.079,1.415 0.149,2.632 0.211,3.651c0.062,1.019 0.123,1.925 0.184,2.717c0.061,0.792 0.107,1.712 0.14,2.762c0.033,1.049 0.049,2.273 0.049,3.671c0,1.398 0,2.794 0,4.186l0,3.789c0,1.133 0.029,2.265 0.086,3.395c0.058,1.13 0.103,2.288 0.137,3.472c0.034,1.185 0.05,2.403 0.05,3.654c0,1.252 0,2.55 0,3.897l0,5.53l0.002,0.464l0.001,-0.022c0.003,-0.118 0.011,-0.487 0.025,-1.109" style="fill:none;fill-rule:nonzero;stroke:#000;stroke-width:3.54px;"/><path d="M89.693,112.91c-0.149,-0.23 -0.388,-0.497 -0.718,-0.8c-0.33,-0.304 -0.651,-0.504 -0.965,-0.6c-0.314,-0.097 -0.599,-0.165 -0.854,-0.205c-0.255,-0.04 -0.528,-0.071 -0.819,-0.093c-0.29,-0.022 -0.646,-0.029 -1.067,-0.02c-0.421,0.009 -0.874,0.219 -1.358,0.631c-0.485,0.412 -0.937,1.101 -1.357,2.069c-0.419,0.968 -0.716,1.965 -0.889,2.992c-0.173,1.027 -0.229,1.944 -0.167,2.752c0.062,0.808 0.324,1.51 0.786,2.105c0.462,0.595 0.991,1.084 1.586,1.467c0.595,0.383 1.248,0.625 1.96,0.727c0.712,0.102 1.526,-0.105 2.444,-0.621c0.918,-0.516 1.718,-1.32 2.4,-2.412c0.683,-1.091 1.153,-2.138 1.41,-3.14c0.258,-1.002 0.38,-1.853 0.368,-2.551c-0.012,-0.699 -0.165,-1.309 -0.458,-1.83c-0.294,-0.521 -0.646,-0.978 -1.057,-1.369c-0.411,-0.391 -0.927,-0.643 -1.548,-0.754c-0.621,-0.112 -1.318,-0.059 -2.093,0.156c-0.774,0.216 -1.529,0.74 -2.264,1.571c-0.735,0.832 -1.288,1.734 -1.658,2.706c-0.37,0.972 -0.575,1.852 -0.615,2.64c-0.04,0.789 0.161,1.418 0.603,1.886c0.442,0.469 1.089,0.75 1.941,0.844c0.852,0.094 1.686,-0.069 2.503,-0.489c0.816,-0.42 1.456,-1.1 1.919,-2.042c0.463,-0.942 0.696,-1.744 0.699,-2.406l0.002,-0.497l-0.006,1.49" style="fill:none;fill-rule:nonzero;stroke:#63b633;stroke-width:7.09px;"/><path d="M123.689,281.334c0.028,-0.418 0.065,-0.847 0.112,-1.287c0.047,-0.44 0.056,-0.739 0.029,-0.896c-0.027,-0.158 -0.216,-0.243 -0.566,-0.257c-0.35,-0.014 -0.807,0.084 -1.37,0.294c-0.563,0.21 -1.091,0.502 -1.582,0.877c-0.492,0.375 -0.883,0.724 -1.174,1.048c-0.292,0.323 -0.486,0.725 -0.584,1.204c-0.098,0.48 -0.115,1.055 -0.052,1.728c0.063,0.673 0.317,1.287 0.759,1.842c0.443,0.555 0.889,0.946 1.339,1.172c0.45,0.226 0.833,0.337 1.151,0.333c0.318,-0.004 0.59,-0.266 0.818,-0.786c0.228,-0.52 0.38,-1.426 0.456,-2.72c0.076,-1.294 0.044,-2.345 -0.095,-3.155c-0.14,-0.81 -0.512,-1.246 -1.117,-1.308c-0.605,-0.063 -1.294,0.03 -2.068,0.277c-0.774,0.247 -1.572,0.766 -2.393,1.557c-0.821,0.791 -1.484,1.75 -1.988,2.876c-0.504,1.127 -0.599,2.154 -0.284,3.081c0.315,0.927 1.183,1.514 2.605,1.761c1.421,0.247 2.734,0.311 3.937,0.193c1.203,-0.118 2.094,-0.536 2.674,-1.253c0.58,-0.717 0.926,-1.603 1.04,-2.66c0.114,-1.057 0.01,-2.048 -0.311,-2.971c-0.322,-0.924 -0.943,-1.51 -1.863,-1.758c-0.92,-0.248 -1.745,-0.234 -2.475,0.042c-0.73,0.276 -1.215,0.646 -1.457,1.112c-0.341,0.656 0.805,1.341 3.436,2.056" style="fill:none;fill-rule:nonzero;stroke:#63b633;stroke-width:7.09px;"/><path d="M191.59,280.787c-0.028,-0.398 -0.095,-0.807 -0.198,-1.228c-0.104,-0.421 -0.192,-0.705 -0.264,-0.851c-0.072,-0.146 -0.138,-0.26 -0.198,-0.341c-0.06,-0.081 -0.193,-0.163 -0.399,-0.245c-0.206,-0.082 -0.522,-0.129 -0.949,-0.142c-0.427,-0.013 -0.923,0.157 -1.488,0.509c-0.565,0.352 -1.045,0.987 -1.44,1.904c-0.395,0.918 -0.6,1.839 -0.617,2.766c-0.017,0.927 0.321,1.668 1.011,2.223c0.691,0.555 1.604,0.861 2.738,0.917c1.135,0.056 2.194,-0.129 3.178,-0.553c0.984,-0.425 1.787,-1.018 2.409,-1.78c0.622,-0.762 1.027,-1.564 1.214,-2.404c0.187,-0.84 0.197,-1.595 0.03,-2.264c-0.167,-0.669 -0.644,-1.089 -1.431,-1.259c-0.788,-0.17 -1.72,-0.113 -2.799,0.171c-1.079,0.284 -2.089,0.828 -3.03,1.632c-0.941,0.804 -1.626,1.745 -2.055,2.821c-0.428,1.076 -0.42,2.073 0.026,2.989c0.445,0.916 1.42,1.483 2.922,1.702c1.503,0.219 2.878,0.065 4.125,-0.46c1.248,-0.525 2.075,-1.393 2.481,-2.602c0.406,-1.21 0.49,-2.262 0.25,-3.156c-0.24,-0.895 -0.598,-1.419 -1.075,-1.573c-0.686,-0.222 -1.329,0.04 -1.93,0.786" style="fill:none;fill-rule:nonzero;stroke:#63b633;stroke-width:7.09px;"/><path d="M226.589,246.973c-0.311,-0.175 -0.628,-0.367 -0.952,-0.578c-0.324,-0.211 -0.548,-0.411 -0.673,-0.602c-0.125,-0.19 -0.238,-0.387 -0.338,-0.59c-0.1,-0.203 -0.273,-0.353 -0.519,-0.45c-0.246,-0.097 -0.574,-0.123 -0.984,-0.079c-0.41,0.044 -0.863,0.353 -1.358,0.927c-0.495,0.574 -0.9,1.309 -1.214,2.205c-0.315,0.896 -0.487,1.757 -0.516,2.583c-0.029,0.826 0.168,1.518 0.593,2.077c0.425,0.559 1.023,0.922 1.796,1.088c0.772,0.167 1.555,0.066 2.346,-0.302c0.792,-0.368 1.403,-1.364 1.835,-2.989c0.431,-1.625 0.375,-3.085 -0.167,-4.38c-0.543,-1.295 -1.352,-1.986 -2.427,-2.075c-1.075,-0.089 -2.094,0.332 -3.057,1.263c-0.963,0.931 -1.598,2.04 -1.908,3.329c-0.309,1.289 -0.296,2.321 0.042,3.095c0.337,0.775 1.01,1.203 2.018,1.286c1.008,0.083 1.919,-0.123 2.733,-0.615c0.814,-0.493 1.119,-1.132 0.915,-1.919" style="fill:none;fill-rule:nonzero;stroke:#63b633;stroke-width:7.09px;"/><path d="M220.483,178.707c-0.36,-0.154 -0.72,-0.347 -1.079,-0.578c-0.359,-0.231 -0.606,-0.399 -0.741,-0.503c-0.135,-0.104 -0.292,-0.163 -0.47,-0.175c-0.178,-0.013 -0.456,0.052 -0.834,0.193c-0.378,0.141 -0.775,0.48 -1.193,1.015c-0.417,0.535 -0.712,1.15 -0.885,1.844c-0.173,0.694 -0.037,1.402 0.409,2.123c0.445,0.721 1.15,1.301 2.114,1.739c0.964,0.438 1.899,0.699 2.806,0.781c0.907,0.083 1.641,-0.1 2.203,-0.548c0.563,-0.448 0.906,-1.187 1.032,-2.218c0.125,-1.031 0.179,-2.046 0.163,-3.045c-0.017,-1 -0.223,-1.744 -0.618,-2.233c-0.395,-0.489 -1.041,-0.604 -1.936,-0.344c-0.895,0.26 -1.837,1.048 -2.825,2.365c-0.988,1.317 -1.692,2.625 -2.111,3.922c-0.42,1.297 -0.459,2.288 -0.117,2.973c0.342,0.685 1.095,1.01 2.261,0.975c1.165,-0.035 2.179,-0.421 3.041,-1.158c0.862,-0.738 1.405,-1.478 1.631,-2.221l0.169,-0.557l-0.507,1.672" style="fill:none;fill-rule:nonzero;stroke:#63b633;stroke-width:7.09px;"/><path d="M125.78,283.739c-0.323,-0.037 -0.826,0.068 -1.51,0.315c-0.433,0.157 -0.401,0.217 0.098,0.183c0.499,-0.035 1.614,-0.2 3.346,-0.497c1.732,-0.297 3.4,-0.485 5.003,-0.565c1.603,-0.08 3.198,-0.106 4.785,-0.078c1.587,0.028 3.192,0.087 4.814,0.177c1.622,0.09 3.232,0.152 4.83,0.185c1.598,0.034 3.285,0.042 5.059,0.023c1.775,-0.018 3.622,-0.106 5.541,-0.263c1.92,-0.157 3.93,-0.351 6.03,-0.582c2.1,-0.23 4.09,-0.425 5.97,-0.582c1.88,-0.157 3.501,-0.243 4.864,-0.257c1.363,-0.014 2.653,-0.02 3.87,-0.02l3.776,0c1.301,0 2.664,-0.043 4.09,-0.129c1.425,-0.086 2.809,-0.263 4.15,-0.53c1.341,-0.268 2.632,-0.534 3.871,-0.8c1.24,-0.265 2.448,-0.495 3.624,-0.69c1.176,-0.195 2.284,-0.34 3.323,-0.437c1.04,-0.097 1.988,-0.145 2.845,-0.147c0.858,-0.001 1.68,0.037 2.469,0.115c0.788,0.078 1.675,0.123 2.661,0.137c0.985,0.014 1.933,-0.018 2.843,-0.095c0.91,-0.077 1.64,-0.138 2.19,-0.182c0.55,-0.045 1.033,-0.063 1.448,-0.054c0.415,0.009 0.841,0.053 1.278,0.131c0.437,0.079 0.815,0.159 1.134,0.241c0.318,0.082 0.562,0.154 0.731,0.215c0.169,0.061 0.265,0.112 0.287,0.154c0.023,0.042 0.073,0.063 0.151,0.064c0.078,0.001 0.226,-0.041 0.444,-0.127c0.218,-0.086 0.459,-0.243 0.721,-0.473c0.262,-0.229 0.51,-0.455 0.746,-0.678c0.235,-0.223 0.435,-0.537 0.6,-0.943c0.165,-0.405 0.28,-1.005 0.344,-1.798c0.064,-0.793 0.097,-1.758 0.098,-2.893c0.001,-1.135 -0.055,-2.349 -0.168,-3.642c-0.113,-1.293 -0.335,-2.559 -0.666,-3.798c-0.331,-1.24 -0.578,-2.452 -0.738,-3.637c-0.16,-1.185 -0.238,-2.35 -0.231,-3.496c0.007,-1.145 0.102,-2.32 0.285,-3.523c0.183,-1.203 0.384,-2.407 0.6,-3.612c0.217,-1.205 0.391,-2.449 0.523,-3.732c0.132,-1.283 0.284,-2.583 0.456,-3.899c0.172,-1.316 0.281,-2.542 0.327,-3.677c0.046,-1.135 0.041,-2.16 -0.015,-3.074c-0.056,-0.914 -0.16,-1.92 -0.31,-3.015c-0.15,-1.096 -0.316,-2.203 -0.498,-3.319c-0.181,-1.117 -0.32,-2.188 -0.417,-3.212c-0.097,-1.024 -0.145,-2.077 -0.147,-3.158c-0.001,-1.081 -0.002,-2.192 -0.002,-3.332l0,-7.405c0,-1.191 0.014,-2.354 0.042,-3.489c0.028,-1.135 0.059,-2.235 0.091,-3.3c0.033,-1.066 0.044,-2.116 0.035,-3.151c-0.009,-1.035 -0.139,-1.978 -0.39,-2.828c-0.251,-0.85 -0.507,-1.592 -0.767,-2.223c-0.26,-0.632 -0.395,-1.277 -0.403,-1.935c-0.008,-0.658 0.091,-1.263 0.296,-1.815c0.206,-0.553 0.41,-1.028 0.614,-1.425c0.204,-0.398 0.432,-0.877 0.683,-1.438c0.252,-0.561 0.458,-1.011 0.62,-1.35c0.232,-0.488 0.16,-0.902 -0.217,-1.242" style="fill:none;fill-rule:nonzero;stroke:#63b633;stroke-width:7.09px;"/><path d="M194.143,277.984c0,-0.428 0.024,-0.898 0.073,-1.412c0.048,-0.514 0.079,-0.87 0.091,-1.068c0.013,-0.198 -0.005,-0.349 -0.051,-0.453c-0.047,-0.104 -0.25,-0.172 -0.612,-0.206c-0.361,-0.034 -0.886,-0.042 -1.573,-0.023c-0.688,0.018 -1.47,0.225 -2.347,0.622c-0.877,0.397 -1.666,0.893 -2.365,1.49c-0.7,0.597 -1.237,1.188 -1.613,1.773c-0.376,0.585 -0.619,1.283 -0.73,2.094c-0.11,0.81 -0.12,1.696 -0.028,2.656c0.092,0.96 0.466,1.807 1.123,2.539c0.657,0.732 1.391,1.257 2.202,1.576c0.811,0.319 1.484,0.502 2.02,0.549c0.766,0.068 1.306,-0.36 1.62,-1.284" style="fill:none;fill-rule:nonzero;stroke:#63b633;stroke-width:7.09px;"/><path d="M225.04,246.084c-0.154,-0.251 -0.39,-0.534 -0.705,-0.848c-0.316,-0.314 -0.722,-0.494 -1.22,-0.54c-0.497,-0.046 -1.05,-0.051 -1.657,-0.013c-0.607,0.037 -1.151,0.173 -1.632,0.409c-0.48,0.235 -0.973,0.562 -1.477,0.981c-0.504,0.418 -0.991,0.928 -1.46,1.529c-0.469,0.601 -0.84,1.26 -1.113,1.976c-0.273,0.717 -0.377,1.407 -0.311,2.07c0.066,0.664 0.523,1.126 1.373,1.387c0.849,0.261 1.88,0.366 3.093,0.315c1.213,-0.051 2.14,-0.202 2.779,-0.455c0.895,-0.353 1.178,-0.828 0.848,-1.424" style="fill:none;fill-rule:nonzero;stroke:#63b633;stroke-width:7.09px;"/><path d="M424.497,247.553c-0.063,-0.301 -0.274,-0.527 -0.635,-0.678c-0.245,-0.102 -0.373,-0.149 -0.386,-0.14c-0.013,0.009 0.163,0.039 0.527,0.09c0.364,0.051 1.096,0.077 2.196,0.078c1.1,0.001 2.193,0.001 3.279,0.001l11.092,0c1.277,0 2.582,0.01 3.916,0.029c1.333,0.019 2.651,0.049 3.952,0.09c1.301,0.04 2.459,0.061 3.473,0.062c1.014,0.001 1.948,0.002 2.801,0.002l10.508,0c0.949,0 1.894,-0.029 2.837,-0.086c0.943,-0.058 1.856,-0.103 2.741,-0.137c0.884,-0.033 1.756,-0.05 2.616,-0.05c0.86,-0 1.755,-0 2.684,-0c0.929,0 1.86,-0.005 2.793,-0.014c0.933,-0.009 1.812,-0.048 2.638,-0.118c0.826,-0.07 1.565,-0.111 2.219,-0.123c0.654,-0.012 1.308,-0.019 1.962,-0.019l2.218,0c0.825,0 1.726,-0.005 2.704,-0.014c0.978,-0.009 1.963,-0.068 2.957,-0.176c0.993,-0.108 1.928,-0.194 2.805,-0.258c0.876,-0.064 1.691,-0.097 2.444,-0.098c0.753,-0.001 1.508,0.003 2.265,0.012c0.758,0.009 1.57,0.024 2.438,0.045c0.867,0.021 1.694,0.032 2.479,0.032c0.785,0 1.504,0 2.157,0l4.525,0c0.388,0 0.755,0.01 1.1,0.029c0.345,0.019 0.681,0.034 1.006,0.046c0.325,0.011 0.63,0.017 0.915,0.017c0.285,0 0.545,0.005 0.78,0.014c0.235,0.009 0.444,0.024 0.628,0.045c0.184,0.021 0.381,0.032 0.593,0.032c0.212,0 0.405,0 0.579,0c0.174,0 0.313,-0.009 0.417,-0.027c0.104,-0.018 0.182,-0.115 0.235,-0.291c0.053,-0.176 0.1,-0.481 0.14,-0.915c0.041,-0.435 0.062,-0.983 0.063,-1.645c0.001,-0.663 -0.017,-1.372 -0.054,-2.128c-0.037,-0.756 -0.131,-1.529 -0.28,-2.319c-0.149,-0.79 -0.281,-1.585 -0.394,-2.385c-0.114,-0.8 -0.216,-1.59 -0.307,-2.371c-0.091,-0.781 -0.173,-1.532 -0.245,-2.253c-0.072,-0.721 -0.138,-1.412 -0.199,-2.073c-0.061,-0.66 -0.121,-1.3 -0.182,-1.919c-0.061,-0.619 -0.112,-1.218 -0.153,-1.796c-0.042,-0.578 -0.092,-1.142 -0.152,-1.69c-0.06,-0.548 -0.11,-1.095 -0.152,-1.642c-0.042,-0.547 -0.078,-1.094 -0.108,-1.64c-0.03,-0.547 -0.046,-1.123 -0.047,-1.727c-0.001,-0.604 -0.002,-1.254 -0.002,-1.95l0,-4.559c0,-0.809 -0.014,-1.624 -0.043,-2.445c-0.028,-0.821 -0.087,-1.641 -0.177,-2.459c-0.09,-0.818 -0.166,-1.667 -0.228,-2.546c-0.062,-0.879 -0.114,-1.784 -0.155,-2.715c-0.042,-0.931 -0.073,-1.829 -0.094,-2.692c-0.021,-0.863 -0.032,-1.73 -0.032,-2.601c0,-0.871 -0,-1.708 -0,-2.51l0,-2.546c0,-0.895 0.005,-1.833 0.014,-2.815c0.009,-0.982 0.034,-1.926 0.074,-2.832c0.04,-0.905 0.076,-1.731 0.106,-2.476c0.03,-0.745 0.07,-1.491 0.12,-2.237c0.05,-0.746 0.1,-1.505 0.15,-2.275c0.05,-0.771 0.101,-1.508 0.153,-2.211c0.052,-0.703 0.093,-1.287 0.123,-1.752c0.03,-0.465 0.061,-0.88 0.091,-1.246c0.03,-0.366 0.061,-0.76 0.091,-1.183c0.03,-0.423 0.056,-0.833 0.076,-1.229c0.02,-0.396 0.051,-0.787 0.091,-1.173c0.04,-0.386 0.085,-0.741 0.135,-1.067c0.05,-0.325 0.1,-0.65 0.15,-0.974c0.05,-0.324 0.102,-0.663 0.153,-1.018c0.052,-0.354 0.102,-0.694 0.152,-1.018c0.05,-0.324 0.09,-0.649 0.122,-0.974c0.031,-0.325 0.067,-0.649 0.108,-0.972c0.04,-0.323 0.066,-0.661 0.078,-1.015c0.011,-0.353 0.032,-0.698 0.061,-1.033c0.029,-0.335 0.049,-0.675 0.059,-1.019c0.01,-0.344 0.03,-0.678 0.061,-1.003c0.03,-0.324 0.056,-0.663 0.077,-1.016c0.021,-0.353 0.041,-0.727 0.061,-1.12c0.019,-0.394 0.035,-0.769 0.046,-1.126c0.011,-0.357 0.017,-0.693 0.017,-1.008c0,-0.315 0.015,-0.61 0.044,-0.885c0.029,-0.275 0.049,-0.563 0.059,-0.866c0.01,-0.303 0.026,-0.591 0.047,-0.866c0.021,-0.275 0.047,-0.535 0.076,-0.78c0.029,-0.245 0.045,-0.455 0.046,-0.629c0.001,-0.174 0.002,-0.294 0.002,-0.359l0,-0.132c0,0 0.2,0.064 0.602,0.191" style="fill:none;fill-rule:nonzero;stroke:#c2361a;stroke-width:7.09px;"/><path d="M519.606,150.51c-0.197,0.027 -0.497,-0.119 -0.899,-0.438c-0.257,-0.204 -0.471,-0.402 -0.641,-0.593c-0.17,-0.191 -0.384,-0.413 -0.643,-0.665c-0.259,-0.252 -0.573,-0.47 -0.944,-0.656c-0.37,-0.185 -0.797,-0.301 -1.279,-0.348c-0.483,-0.046 -1.011,-0.004 -1.586,0.128c-0.575,0.131 -1.122,0.503 -1.642,1.116c-0.52,0.613 -0.918,1.293 -1.194,2.04c-0.276,0.747 -0.385,1.457 -0.327,2.131c0.059,0.674 0.42,1.286 1.085,1.836c0.665,0.55 1.48,0.998 2.445,1.342c0.965,0.344 2.013,0.565 3.142,0.665c1.13,0.099 2.21,0.117 3.241,0.054c1.031,-0.063 1.883,-0.368 2.555,-0.915c0.672,-0.547 1.18,-1.305 1.526,-2.275c0.346,-0.97 0.553,-1.948 0.623,-2.935c0.07,-0.987 -0.023,-1.836 -0.279,-2.547c-0.256,-0.711 -0.791,-1.25 -1.604,-1.617c-0.813,-0.367 -1.7,-0.595 -2.662,-0.684c-0.961,-0.089 -1.894,-0.107 -2.798,-0.052c-0.904,0.054 -1.786,0.282 -2.648,0.684c-0.862,0.402 -1.666,0.923 -2.413,1.564c-0.747,0.641 -1.324,1.326 -1.733,2.053c-0.408,0.728 -0.63,1.486 -0.663,2.273c-0.034,0.788 0.263,1.481 0.889,2.08c0.626,0.599 1.585,1.016 2.875,1.252c1.291,0.235 2.543,0.338 3.758,0.307c1.215,-0.031 2.202,-0.338 2.962,-0.92c0.76,-0.583 1.187,-1.386 1.281,-2.409c0.094,-1.023 -0.188,-1.958 -0.844,-2.803c-0.656,-0.845 -1.449,-1.371 -2.377,-1.578c-0.928,-0.206 -1.563,-0.035 -1.904,0.515" style="fill:none;fill-rule:nonzero;stroke:#c2361a;stroke-width:7.09px;"/><path d="M519.317,212.933c-0.175,0.062 -0.485,-0.069 -0.929,-0.394c-0.286,-0.209 -0.514,-0.38 -0.685,-0.513c-0.171,-0.133 -0.395,-0.26 -0.672,-0.381c-0.277,-0.122 -0.637,-0.214 -1.079,-0.278c-0.442,-0.064 -0.91,-0.097 -1.404,-0.098c-0.494,-0.001 -1.013,0.068 -1.558,0.209c-0.545,0.14 -1.078,0.57 -1.599,1.288c-0.522,0.719 -0.875,1.586 -1.061,2.603c-0.186,1.017 -0.07,1.951 0.346,2.803c0.416,0.852 1.182,1.465 2.297,1.839c1.115,0.373 2.358,0.565 3.729,0.574c1.37,0.01 2.703,-0.198 3.999,-0.623c1.295,-0.425 2.339,-1.071 3.131,-1.938c0.792,-0.867 1.288,-1.87 1.489,-3.008c0.201,-1.138 0.131,-2.18 -0.209,-3.124c-0.34,-0.945 -0.925,-1.654 -1.755,-2.128c-0.83,-0.474 -1.657,-0.786 -2.481,-0.936c-0.825,-0.15 -1.587,-0.237 -2.287,-0.261c-0.7,-0.024 -1.468,0.126 -2.303,0.45c-0.835,0.324 -1.67,0.88 -2.505,1.668c-0.835,0.788 -1.431,1.666 -1.786,2.635c-0.355,0.968 -0.433,1.858 -0.234,2.67c0.2,0.812 0.731,1.335 1.595,1.569c0.864,0.234 1.647,0.21 2.349,-0.071c0.702,-0.282 1.187,-0.808 1.456,-1.579c0.269,-0.771 0.411,-1.349 0.426,-1.734c0.021,-0.541 -0.7,-0.562 -2.162,-0.063" style="fill:none;fill-rule:nonzero;stroke:#c2361a;stroke-width:7.09px;"/><path d="M486.346,246.357c0,-0.519 0.005,-1.06 0.014,-1.623c0.009,-0.563 0.049,-1.054 0.118,-1.474c0.069,-0.42 0.106,-0.769 0.109,-1.048c0.003,-0.279 -0.158,-0.443 -0.485,-0.493c-0.327,-0.049 -0.778,0.099 -1.352,0.445c-0.574,0.346 -1.121,0.854 -1.641,1.526c-0.52,0.671 -0.937,1.415 -1.252,2.23c-0.315,0.816 -0.491,1.626 -0.53,2.43c-0.038,0.804 0.158,1.442 0.59,1.913c0.432,0.471 1.084,0.725 1.956,0.761c0.872,0.036 1.731,-0.198 2.575,-0.702c0.845,-0.504 1.581,-1.265 2.209,-2.282c0.628,-1.017 1.075,-2.137 1.343,-3.361c0.268,-1.224 0.296,-2.251 0.087,-3.083c-0.21,-0.832 -0.833,-1.321 -1.87,-1.468c-1.037,-0.146 -2.183,0.142 -3.438,0.865c-1.255,0.723 -2.352,1.776 -3.291,3.159c-0.939,1.383 -1.543,2.742 -1.812,4.077c-0.269,1.335 -0.084,2.362 0.555,3.08c0.639,0.718 1.64,1.032 3.002,0.941c1.362,-0.091 2.609,-0.604 3.742,-1.54c1.132,-0.935 1.895,-2.047 2.289,-3.335c0.394,-1.288 0.403,-2.478 0.028,-3.569c-0.526,-1.528 -1.513,-1.894 -2.96,-1.098" style="fill:none;fill-rule:nonzero;stroke:#c2361a;stroke-width:7.09px;"/><path d="M428.015,243.896c-0.138,-0.302 -0.307,-0.625 -0.507,-0.972c-0.2,-0.346 -0.341,-0.65 -0.425,-0.912c-0.083,-0.262 -0.174,-0.559 -0.272,-0.892c-0.098,-0.333 -0.318,-0.6 -0.661,-0.8c-0.343,-0.201 -0.91,-0.187 -1.702,0.043c-0.792,0.23 -1.661,0.96 -2.608,2.191c-0.946,1.232 -1.571,2.588 -1.874,4.068c-0.303,1.481 -0.058,2.706 0.738,3.675c0.795,0.969 1.821,1.552 3.078,1.748c1.257,0.197 2.262,0.052 3.014,-0.434c0.753,-0.486 1.219,-1.375 1.399,-2.667c0.18,-1.292 0.099,-2.665 -0.243,-4.118c-0.343,-1.454 -0.859,-2.542 -1.55,-3.265c-0.69,-0.723 -1.55,-0.948 -2.58,-0.677c-1.03,0.272 -2.099,1.197 -3.207,2.776c-1.109,1.579 -1.93,3.268 -2.465,5.068c-0.535,1.8 -0.571,3.267 -0.109,4.402c0.462,1.135 1.471,1.853 3.026,2.154c1.555,0.301 2.899,0.315 4.031,0.043c1.132,-0.273 1.869,-0.891 2.21,-1.856c0.341,-0.965 0.367,-2.264 0.078,-3.898c-0.29,-1.634 -0.777,-3.03 -1.463,-4.188c-0.686,-1.158 -1.172,-1.832 -1.457,-2.021c-0.398,-0.264 -0.55,0.323 -0.455,1.76" style="fill:none;fill-rule:nonzero;stroke:#c2361a;stroke-width:7.09px;"/><path d="M525.488,92.442c-0.097,0.095 -0.21,0.119 -0.341,0.072c-0.09,-0.033 -0.082,-0.305 0.023,-0.819c0.105,-0.514 0.304,-1.271 0.597,-2.27c0.293,-1 0.66,-2.29 1.1,-3.872c0.44,-1.582 0.867,-3.428 1.279,-5.54c0.412,-2.112 0.781,-4.289 1.108,-6.532c0.327,-2.243 0.698,-3.978 1.113,-5.207c0.415,-1.228 0.851,-2.141 1.31,-2.737c0.459,-0.596 0.864,-0.994 1.216,-1.194c0.352,-0.2 0.632,-0.088 0.842,0.337c0.21,0.424 0.427,1.134 0.652,2.129c0.225,0.996 0.433,2.192 0.624,3.589c0.191,1.397 0.342,2.925 0.452,4.585c0.11,1.66 0.174,3.261 0.192,4.804c0.018,1.543 0.027,2.746 0.027,3.607c0,0.861 0.017,1.55 0.052,2.065l0.026,0.387l-0.078,-1.161" style="fill:none;fill-rule:nonzero;stroke:#c2361a;stroke-width:3.54px;"/><path d="M527.479,80.497c0.093,-0.294 0.406,-0.634 0.939,-1.02c0.534,-0.386 1.294,-0.729 2.282,-1.03c0.988,-0.301 1.953,-0.528 2.896,-0.682c0.943,-0.154 1.756,-0.165 2.44,-0.035" style="fill:none;fill-rule:nonzero;stroke:#c2361a;stroke-width:3.54px;"/><path d="M543.006,79.318c-0.256,-0.013 -0.533,-0.025 -0.831,-0.037c-0.298,-0.012 -0.61,0.01 -0.936,0.067c-0.326,0.056 -0.644,0.215 -0.952,0.477c-0.308,0.262 -0.51,0.546 -0.608,0.854c-0.097,0.308 -0.017,0.587 0.241,0.837c0.258,0.25 0.659,0.451 1.203,0.603c0.544,0.152 1.051,0.323 1.522,0.511c0.471,0.189 0.855,0.484 1.152,0.886c0.297,0.402 0.482,0.896 0.553,1.484c0.071,0.587 0.03,1.163 -0.124,1.727c-0.154,0.564 -0.436,1.023 -0.845,1.376c-0.41,0.353 -0.912,0.593 -1.507,0.72c-0.595,0.127 -1.199,0.112 -1.812,-0.044c-0.613,-0.156 -0.89,-0.329 -0.832,-0.52" style="fill:none;fill-rule:nonzero;stroke:#c2361a;stroke-width:3.54px;"/><path d="M550.934,74.078c0.068,-0.169 0.271,-0.341 0.611,-0.518c0.34,-0.177 0.834,-0.285 1.483,-0.326c0.972,-0.06 1.956,-0.044 2.953,0.049" style="fill:none;fill-rule:nonzero;stroke:#c2361a;stroke-width:3.54px;"/><path d="M550.742,78.632c0.079,-0.023 0.361,-0.051 0.848,-0.085c0.487,-0.034 1.01,-0.052 1.569,-0.055c0.82,-0.005 1.769,-0.295 2.848,-0.872" style="fill:none;fill-rule:nonzero;stroke:#c2361a;stroke-width:3.54px;"/><path d="M562.895,75.998c0.051,-0.003 0.261,-0.015 0.63,-0.038c0.534,-0.032 1.496,-0.146 2.887,-0.342" style="fill:none;fill-rule:nonzero;stroke:#c2361a;stroke-width:3.54px;"/><path d="M573.759,69.551c0.241,-0.273 0.557,-0.585 0.947,-0.937c0.39,-0.352 0.751,-0.682 1.082,-0.99c0.331,-0.308 0.636,-0.608 0.915,-0.899c0.279,-0.292 0.485,-0.47 0.618,-0.536c0.132,-0.066 0.115,0.099 -0.052,0.493c-0.167,0.394 -0.409,1.017 -0.726,1.869c-0.317,0.852 -0.561,1.852 -0.733,3c-0.171,1.148 -0.255,2.307 -0.252,3.478c0.003,1.17 0.06,2.135 0.171,2.893c0.111,0.758 0.181,1.267 0.209,1.525l0.021,0.194l-0.063,-0.581" style="fill:none;fill-rule:nonzero;stroke:#c2361a;stroke-width:3.54px;"/><path d="M572.085,78.549c0.077,-0.007 0.49,-0.013 1.239,-0.019c1.09,-0.008 2.807,-0.033 5.152,-0.073" style="fill:none;fill-rule:nonzero;stroke:#c2361a;stroke-width:3.54px;"/><path d="M325.486,225.586c-0.06,-0.098 -0.123,-0.272 -0.19,-0.519c-0.066,-0.248 -0.071,-0.673 -0.013,-1.277c0.058,-0.603 0.237,-1.528 0.537,-2.774c0.3,-1.246 0.643,-2.755 1.03,-4.528c0.386,-1.773 0.733,-3.442 1.041,-5.007c0.308,-1.565 0.592,-2.87 0.851,-3.914c0.259,-1.044 0.609,-1.971 1.048,-2.782c0.44,-0.81 0.886,-1.434 1.339,-1.871c0.453,-0.437 0.78,-0.633 0.98,-0.588c0.201,0.045 0.338,0.43 0.412,1.157c0.074,0.726 0.129,1.779 0.165,3.16c0.036,1.38 0.139,2.909 0.309,4.586c0.17,1.677 0.441,3.286 0.813,4.827c0.372,1.541 0.718,2.878 1.038,4.011c0.32,1.133 0.513,2.161 0.58,3.084c0.066,0.923 0.069,1.687 0.009,2.291c-0.06,0.604 -0.108,0.966 -0.144,1.085c-0.05,0.164 -0.147,0.17 -0.292,0.018" style="fill:none;fill-rule:nonzero;stroke:#c2361a;stroke-width:3.54px;"/><path d="M326.337,218.563c0.171,-0.232 0.64,-0.496 1.405,-0.792c0.766,-0.297 1.702,-0.507 2.809,-0.63c1.668,-0.186 3.268,-0.381 4.798,-0.583" style="fill:none;fill-rule:nonzero;stroke:#c2361a;stroke-width:3.54px;"/><path d="M341.919,217.548c-0.28,-0.011 -0.665,-0.017 -1.154,-0.019c-0.489,-0.002 -0.929,0.085 -1.321,0.26c-0.392,0.175 -0.66,0.385 -0.804,0.628c-0.144,0.244 -0.143,0.485 0.004,0.723c0.147,0.238 0.418,0.481 0.813,0.731c0.395,0.249 0.855,0.516 1.379,0.801c0.524,0.285 1.043,0.625 1.558,1.023c0.515,0.397 0.899,0.875 1.153,1.433c0.254,0.558 0.323,1.157 0.21,1.795c-0.114,0.639 -0.379,1.214 -0.797,1.725c-0.417,0.511 -0.828,0.869 -1.231,1.073c-0.403,0.204 -0.809,0.285 -1.217,0.246c-0.582,-0.057 -1.135,-0.89 -1.658,-2.499" style="fill:none;fill-rule:nonzero;stroke:#c2361a;stroke-width:3.54px;"/><path d="M347.762,211.156c0.021,-0.122 0.288,-0.274 0.8,-0.457c0.512,-0.183 1.198,-0.345 2.056,-0.484c1.333,-0.217 2.365,-0.238 3.095,-0.065" style="fill:none;fill-rule:nonzero;stroke:#c2361a;stroke-width:3.54px;"/><path d="M348.42,215.984c0.02,-0.108 0.179,-0.21 0.475,-0.307c0.296,-0.097 0.824,-0.153 1.585,-0.17c1.126,-0.025 2.43,-0.093 3.912,-0.204" style="fill:none;fill-rule:nonzero;stroke:#c2361a;stroke-width:3.54px;"/><path d="M360.875,212.892c-0.101,0.001 -0.133,-0.053 -0.095,-0.163c0.027,-0.079 0.323,-0.163 0.888,-0.252c0.565,-0.089 1.192,-0.155 1.881,-0.2c1.066,-0.069 1.934,-0.119 2.605,-0.15" style="fill:none;fill-rule:nonzero;stroke:#c2361a;stroke-width:3.54px;"/><path d="M370.943,206.136c0.033,-0.151 0.158,-0.368 0.374,-0.651c0.216,-0.283 0.536,-0.559 0.96,-0.828c0.424,-0.269 0.859,-0.501 1.306,-0.697c0.447,-0.196 0.793,-0.325 1.038,-0.388c0.244,-0.063 0.388,-0.083 0.429,-0.062c0.042,0.021 0.058,0.14 0.05,0.357c-0.008,0.217 -0.023,0.584 -0.044,1.102c-0.021,0.518 -0.035,1.195 -0.042,2.031c-0.007,0.836 0.002,1.772 0.025,2.807c0.023,1.035 0.033,2.015 0.029,2.941c-0.004,0.925 -0.036,1.692 -0.096,2.3c-0.06,0.608 -0.093,1.021 -0.097,1.239l-0.004,0.164l0.011,-0.491" style="fill:none;fill-rule:nonzero;stroke:#c2361a;stroke-width:3.54px;"/><path d="M371.354,217.191c0.062,0 0.332,-0.01 0.809,-0.03c0.478,-0.02 1.097,-0.072 1.857,-0.155c1.153,-0.127 2.212,-0.21 3.178,-0.248" style="fill:none;fill-rule:nonzero;stroke:#c2361a;stroke-width:3.54px;"/><path d="M195.097,140.541c-0.125,-0.056 -0.245,-0.041 -0.361,0.044c-0.116,0.085 -0.155,0.505 -0.117,1.259c0.038,0.754 0.136,1.79 0.296,3.108c0.16,1.318 0.273,2.704 0.342,4.159c0.068,1.454 0.105,2.813 0.109,4.076c0.004,1.263 0.006,2.202 0.006,2.817l0,0.461l-0,-1.384" style="fill:none;fill-rule:nonzero;stroke:#63b633;stroke-width:3.54px;"/><path d="M194.83,139.331c-0.161,-0.039 -0.288,-0.166 -0.381,-0.381c-0.063,-0.144 0.193,-0.315 0.767,-0.515c0.574,-0.199 1.403,-0.459 2.488,-0.781c1.085,-0.321 2.168,-0.551 3.25,-0.688c1.082,-0.137 1.98,-0.088 2.694,0.148c0.714,0.236 1.155,0.66 1.323,1.272c0.168,0.611 -0.002,1.295 -0.508,2.05c-0.507,0.755 -1.211,1.49 -2.114,2.205c-0.903,0.714 -1.713,1.327 -2.431,1.839c-0.718,0.512 -1.228,0.901 -1.528,1.169c-0.3,0.268 -0.371,0.444 -0.212,0.529c0.159,0.084 0.563,0.151 1.213,0.199c0.65,0.048 1.338,0.176 2.065,0.384c0.727,0.208 1.388,0.623 1.983,1.245c0.595,0.623 1.023,1.422 1.285,2.398c0.262,0.976 0.278,1.924 0.048,2.845c-0.23,0.921 -0.666,1.698 -1.308,2.332c-0.642,0.634 -1.301,1.084 -1.976,1.351c-0.675,0.267 -1.286,0.374 -1.83,0.321c-0.545,-0.053 -1.006,-0.25 -1.383,-0.592c-0.536,-0.486 -0.498,-1.207 0.114,-2.162" style="fill:none;fill-rule:nonzero;stroke:#63b633;stroke-width:3.54px;"/><path d="M209.115,162.104c-0.017,0.345 -0.024,0.776 -0.019,1.293c0.004,0.516 0.047,0.974 0.127,1.374c0.08,0.4 0.133,0.665 0.157,0.798c0.024,0.132 -0.017,0.073 -0.123,-0.176c-0.106,-0.25 -0.267,-0.821 -0.482,-1.715c-0.215,-0.893 -0.363,-2.045 -0.444,-3.457c-0.081,-1.411 0.018,-2.767 0.298,-4.066c0.28,-1.3 0.696,-2.234 1.249,-2.801c0.553,-0.568 1.042,-0.892 1.467,-0.974c0.425,-0.081 0.787,-0.045 1.085,0.108c0.298,0.153 0.573,0.488 0.827,1.004c0.253,0.516 0.421,1.061 0.504,1.637c0.083,0.575 0.009,1.058 -0.221,1.447c-0.231,0.39 -0.695,0.651 -1.395,0.786c-1.007,0.193 -2.046,-0.337 -3.116,-1.59" style="fill:none;fill-rule:nonzero;stroke:#63b633;stroke-width:3.54px;"/><path d="M217.069,143.556c-0.057,0.05 -0.159,0.125 -0.309,0.225c-0.093,0.063 -0.137,0.093 -0.132,0.092c0.005,-0.001 0.166,-0.055 0.484,-0.159c0.318,-0.105 0.798,-0.244 1.44,-0.417c0.642,-0.173 1.378,-0.333 2.208,-0.481c0.83,-0.148 1.644,-0.263 2.443,-0.345c0.799,-0.082 1.302,-0.127 1.509,-0.135c0.207,-0.008 0.296,0.062 0.267,0.21" style="fill:none;fill-rule:nonzero;stroke:#63b633;stroke-width:3.54px;"/><path d="M216.962,148.895c-0.086,0.004 -0.164,0.049 -0.234,0.135c-0.047,0.057 0.044,0.084 0.272,0.08c0.229,-0.004 0.595,-0.052 1.099,-0.143c0.504,-0.091 1.083,-0.176 1.736,-0.254c0.964,-0.115 2.12,-0.188 3.467,-0.218" style="fill:none;fill-rule:nonzero;stroke:#63b633;stroke-width:3.54px;"/><path d="M231.391,145.836l-0.065,-0.001l0.086,-0.005c0.107,-0.004 0.375,-0.014 0.804,-0.03c0.62,-0.023 1.735,-0.187 3.345,-0.49" style="fill:none;fill-rule:nonzero;stroke:#63b633;stroke-width:3.54px;"/><path d="M240.526,138.429c0.033,-0.066 0.159,-0.196 0.378,-0.39c0.219,-0.193 0.554,-0.453 1.004,-0.78c0.451,-0.327 0.9,-0.676 1.348,-1.049c0.448,-0.373 0.8,-0.664 1.056,-0.873c0.255,-0.21 0.411,-0.288 0.465,-0.235c0.055,0.053 0.066,0.298 0.035,0.736c-0.031,0.438 -0.075,0.987 -0.133,1.648c-0.058,0.66 -0.123,1.445 -0.195,2.356c-0.072,0.91 -0.174,1.906 -0.306,2.988c-0.132,1.082 -0.271,2.129 -0.418,3.14c-0.147,1.011 -0.267,1.881 -0.36,2.61c-0.094,0.728 -0.164,1.269 -0.212,1.622c-0.047,0.353 -0.073,0.553 -0.077,0.6c-0.006,0.066 -0.039,0.002 -0.101,-0.192" style="fill:none;fill-rule:nonzero;stroke:#63b633;stroke-width:3.54px;"/><path d="M240.22,150.964c-0.083,-0.015 -0.195,0.049 -0.337,0.191c-0.093,0.093 0.026,0.154 0.356,0.182c0.33,0.028 0.982,-0.025 1.955,-0.16c1.472,-0.203 2.851,-0.347 4.138,-0.431" style="fill:none;fill-rule:nonzero;stroke:#63b633;stroke-width:3.54px;"/><path d="M59.737,278.203c-0.028,-0.111 -0.071,-0.25 -0.131,-0.417c-0.039,-0.108 -0.051,0.059 -0.036,0.5c0.014,0.442 0.023,1.201 0.027,2.277c0.004,1.076 0.006,2.439 0.006,4.09c0,1.65 0.038,3.316 0.114,4.998c0.076,1.681 0.253,2.995 0.53,3.941c0.277,0.946 0.463,1.477 0.557,1.593c0.13,0.16 0.11,-0.007 -0.063,-0.502" style="fill:none;fill-rule:nonzero;stroke:#63b633;stroke-width:3.54px;"/><path d="M60.206,276.502c0.012,-0.482 0.191,-0.95 0.537,-1.404c0.346,-0.454 0.917,-0.775 1.715,-0.963c0.797,-0.188 1.73,-0.261 2.798,-0.219c1.068,0.043 2.108,0.245 3.12,0.609c1.012,0.364 1.717,0.826 2.115,1.387c0.398,0.561 0.393,1.2 -0.015,1.917c-0.407,0.717 -1.218,1.439 -2.43,2.167c-1.213,0.728 -2.45,1.39 -3.711,1.988c-1.261,0.597 -2.142,1.075 -2.642,1.432c-0.5,0.358 -0.638,0.604 -0.415,0.738c0.223,0.134 0.686,0.245 1.389,0.33c0.703,0.086 1.471,0.182 2.305,0.29c0.833,0.107 1.659,0.368 2.478,0.782c0.819,0.414 1.535,1.028 2.15,1.842c0.614,0.814 1.031,1.677 1.25,2.588c0.219,0.912 0.198,1.768 -0.064,2.568c-0.262,0.801 -0.807,1.513 -1.635,2.137c-0.828,0.624 -1.744,1.083 -2.75,1.377c-1.006,0.294 -1.974,0.374 -2.907,0.239c-1.368,-0.198 -2.4,-0.896 -3.095,-2.094" style="fill:none;fill-rule:nonzero;stroke:#63b633;stroke-width:3.54px;"/><path d="M75.898,299.271c-0.087,0.216 -0.146,0.52 -0.176,0.911c-0.031,0.392 0.039,0.846 0.207,1.363c0.169,0.517 0.378,1.008 0.628,1.473c0.25,0.465 0.439,0.81 0.567,1.033l0.15,0.258l-0.012,-0.023c-0.036,-0.066 -0.227,-0.43 -0.575,-1.091c-0.348,-0.661 -0.768,-1.668 -1.261,-3.021c-0.493,-1.353 -0.821,-3.006 -0.984,-4.959c-0.163,-1.953 -0.084,-3.44 0.236,-4.462c0.32,-1.022 0.819,-1.578 1.496,-1.667c0.677,-0.09 1.323,0.052 1.936,0.424c0.613,0.372 1.071,0.943 1.375,1.712c0.304,0.769 0.316,1.552 0.036,2.349c-0.279,0.797 -0.822,1.404 -1.627,1.82c-1.156,0.598 -2.314,0.328 -3.473,-0.81" style="fill:none;fill-rule:nonzero;stroke:#63b633;stroke-width:3.54px;"/><path d="M81.44,280.288c0.072,-0.125 0.241,-0.284 0.506,-0.477c0.265,-0.193 0.667,-0.372 1.205,-0.538c0.791,-0.245 1.809,-0.413 3.052,-0.504" style="fill:none;fill-rule:nonzero;stroke:#63b633;stroke-width:3.54px;"/><path d="M80.507,284.869l-0.373,0l-0.082,-0.002l0.116,-0.006c0.142,-0.006 0.563,-0.055 1.262,-0.148c0.699,-0.093 1.584,-0.226 2.654,-0.397c1.622,-0.26 3.096,-0.553 4.422,-0.878" style="fill:none;fill-rule:nonzero;stroke:#63b633;stroke-width:3.54px;"/><path d="M93.51,278.998c0.006,-0.019 0.298,-0.081 0.878,-0.187c0.579,-0.106 1.224,-0.222 1.933,-0.349c1.048,-0.187 2.165,-0.623 3.352,-1.308" style="fill:none;fill-rule:nonzero;stroke:#63b633;stroke-width:3.54px;"/><path d="M102.974,271.948c0.038,-0.094 0.141,-0.242 0.309,-0.443c0.168,-0.201 0.445,-0.466 0.833,-0.795c0.388,-0.33 0.816,-0.692 1.286,-1.088c0.47,-0.396 0.862,-0.704 1.178,-0.925c0.316,-0.221 0.528,-0.307 0.635,-0.258c0.108,0.049 0.163,0.233 0.165,0.553c0.002,0.319 -0.038,0.79 -0.118,1.41c-0.081,0.621 -0.239,1.495 -0.474,2.623c-0.235,1.128 -0.449,2.45 -0.641,3.967c-0.192,1.517 -0.281,2.886 -0.267,4.106c0.014,1.221 0.069,2.098 0.164,2.632c0.095,0.534 0.15,0.84 0.167,0.917c0.023,0.109 -0.105,0.108 -0.385,-0.003" style="fill:none;fill-rule:nonzero;stroke:#63b633;stroke-width:3.54px;"/><path d="M102.371,285.363c0.222,-0.142 0.663,-0.308 1.323,-0.497c0.66,-0.189 1.378,-0.316 2.155,-0.381c1.225,-0.103 2.139,-0.124 2.743,-0.065" style="fill:none;fill-rule:nonzero;stroke:#63b633;stroke-width:3.54px;"/><path d="M61.578,71.955c0.06,-0.003 0.228,0.403 0.505,1.219c0.277,0.816 0.498,2.078 0.664,3.787c0.166,1.709 0.256,3.369 0.271,4.982c0.015,1.613 0.047,2.828 0.097,3.646c0.05,0.818 0.088,1.279 0.115,1.383c0.027,0.103 0.035,0.055 0.024,-0.147c-0.016,-0.292 0.046,-0.783 0.186,-1.474" style="fill:none;fill-rule:nonzero;stroke:#63b633;stroke-width:3.54px;"/><path d="M60.964,71.881c-0.38,-0.27 -0.396,-0.702 -0.049,-1.295c0.244,-0.416 0.901,-0.804 1.973,-1.163c1.071,-0.359 2.357,-0.645 3.858,-0.858c1.5,-0.213 2.752,-0.267 3.754,-0.161c1.002,0.106 1.599,0.431 1.791,0.975c0.192,0.544 -0.096,1.283 -0.862,2.216c-0.767,0.933 -1.863,1.864 -3.288,2.794c-1.425,0.93 -2.665,1.642 -3.719,2.137c-1.054,0.495 -1.67,0.804 -1.847,0.925c-0.177,0.121 -0.116,0.236 0.185,0.343c0.3,0.108 0.821,0.26 1.562,0.458c0.741,0.198 1.546,0.501 2.416,0.911c0.869,0.41 1.622,1.003 2.257,1.779c0.635,0.776 1.008,1.623 1.119,2.541c0.111,0.918 -0.048,1.768 -0.478,2.55c-0.43,0.783 -1.124,1.474 -2.082,2.073c-0.958,0.6 -1.998,1.008 -3.118,1.225c-1.121,0.217 -1.968,0.226 -2.54,0.027l-0.43,-0.149l1.289,0.448" style="fill:none;fill-rule:nonzero;stroke:#63b633;stroke-width:3.54px;"/><path d="M74.417,93.16c-0.087,0.425 -0.148,0.877 -0.184,1.356c-0.036,0.478 -0,0.921 0.107,1.329c0.107,0.408 0.217,0.716 0.329,0.923c0.112,0.208 0.176,0.248 0.193,0.12c0.016,-0.128 -0.077,-0.614 -0.28,-1.46c-0.203,-0.845 -0.426,-2.047 -0.67,-3.605c-0.243,-1.558 -0.277,-3.065 -0.101,-4.521c0.176,-1.456 0.582,-2.38 1.219,-2.77c0.637,-0.39 1.249,-0.472 1.837,-0.244c0.588,0.228 1.001,0.6 1.24,1.115c0.239,0.515 0.224,1.069 -0.046,1.662c-0.27,0.593 -0.773,1.133 -1.509,1.622c-0.736,0.489 -1.367,0.823 -1.892,1.002c-0.739,0.252 -1.216,-0.001 -1.429,-0.761" style="fill:none;fill-rule:nonzero;stroke:#63b633;stroke-width:3.54px;"/><path d="M82.29,75.96l-0.224,0l0.006,0c0.02,0 0.406,-0.032 1.159,-0.095c1.12,-0.094 2.317,-0.271 3.588,-0.531" style="fill:none;fill-rule:nonzero;stroke:#63b633;stroke-width:3.54px;"/><path d="M81.467,80.13c0.01,-0.036 0.308,-0.07 0.894,-0.102c0.849,-0.046 2.333,-0.228 4.45,-0.545" style="fill:none;fill-rule:nonzero;stroke:#63b633;stroke-width:3.54px;"/><path d="M93.922,77.716c-0.072,-0.036 -0.057,-0.055 0.045,-0.057c0.103,-0.002 0.359,-0.007 0.768,-0.014c0.595,-0.011 1.565,-0.069 2.911,-0.175" style="fill:none;fill-rule:nonzero;stroke:#63b633;stroke-width:3.54px;"/><path d="M102.398,72.503c0.064,-0.125 0.359,-0.34 0.887,-0.646c0.528,-0.305 1.185,-0.697 1.973,-1.176c0.788,-0.479 1.417,-0.976 1.886,-1.491c0.47,-0.516 0.76,-0.93 0.871,-1.245c0.111,-0.314 0.163,-0.452 0.153,-0.414c-0.009,0.038 -0.033,0.134 -0.07,0.287c-0.037,0.153 -0.155,0.721 -0.352,1.705c-0.197,0.984 -0.373,2.159 -0.529,3.526c-0.155,1.367 -0.293,2.666 -0.412,3.897c-0.12,1.231 -0.226,2.253 -0.318,3.067c-0.093,0.814 -0.157,1.45 -0.193,1.908l-0.028,0.344l0.082,-1.031" style="fill:none;fill-rule:nonzero;stroke:#63b633;stroke-width:3.54px;"/><path d="M102.206,83.257l-0.23,-0l0.01,-0c0.028,-0 0.099,-0.002 0.212,-0.004c0.113,-0.002 0.701,-0.041 1.763,-0.116c1.062,-0.075 2.243,-0.17 3.542,-0.285c1.3,-0.115 2.462,-0.065 3.488,0.148" style="fill:none;fill-rule:nonzero;stroke:#63b633;stroke-width:3.54px;"/><path d="M62.209,146.243c-0.06,0.127 -0.098,0.766 -0.115,1.916c-0.017,1.15 0.01,2.619 0.081,4.407c0.071,1.788 0.169,3.162 0.295,4.122c0.125,0.96 0.27,1.517 0.434,1.67c0.226,0.211 0.323,0.048 0.289,-0.488" style="fill:none;fill-rule:nonzero;stroke:#63b633;stroke-width:3.54px;"/><path d="M62.855,144.297c-0.322,-0.292 -0.274,-0.805 0.145,-1.54c0.289,-0.506 0.939,-0.891 1.952,-1.155c1.013,-0.264 2.085,-0.422 3.216,-0.474c1.131,-0.053 2.045,0.077 2.742,0.387c0.697,0.31 1.063,0.833 1.098,1.568c0.035,0.735 -0.356,1.546 -1.174,2.435c-0.818,0.888 -1.84,1.653 -3.065,2.294c-1.226,0.641 -2.163,1.071 -2.813,1.291c-0.649,0.22 -0.874,0.323 -0.675,0.31c0.2,-0.013 0.687,-0.04 1.461,-0.081c0.775,-0.041 1.625,0.085 2.55,0.377c0.926,0.292 1.835,0.845 2.728,1.658c0.893,0.813 1.539,1.726 1.94,2.739c0.4,1.013 0.49,1.89 0.27,2.633c-0.22,0.743 -0.724,1.339 -1.512,1.789c-0.788,0.45 -1.707,0.802 -2.756,1.057c-1.05,0.255 -2.079,0.381 -3.086,0.38c-1.463,-0.002 -2.295,-0.401 -2.496,-1.199" style="fill:none;fill-rule:nonzero;stroke:#63b633;stroke-width:3.54px;"/><path d="M78.888,166.434c0,0.19 0.005,0.433 0.016,0.73c0.011,0.297 0.077,0.572 0.198,0.824c0.121,0.253 0.236,0.429 0.345,0.53c0.109,0.101 0.166,0.045 0.171,-0.167c0.005,-0.212 -0.125,-0.738 -0.391,-1.576c-0.266,-0.839 -0.576,-2.006 -0.929,-3.501c-0.354,-1.495 -0.518,-3.092 -0.494,-4.791c0.024,-1.699 0.268,-2.867 0.732,-3.503c0.464,-0.637 0.98,-0.842 1.548,-0.614c0.568,0.227 1.118,0.693 1.649,1.398c0.531,0.705 0.909,1.411 1.134,2.119c0.225,0.708 0.175,1.288 -0.148,1.739c-0.462,0.645 -1.496,0.791 -3.101,0.436" style="fill:none;fill-rule:nonzero;stroke:#63b633;stroke-width:3.54px;"/><path d="M86.787,147.077c-0.09,-0.061 -0.249,-0.144 -0.477,-0.25c-0.143,-0.066 -0.235,-0.101 -0.277,-0.105l-0.034,-0.003l0.025,0.004c0.036,0.005 0.128,0.017 0.273,0.037c0.146,0.019 0.568,0.029 1.267,0.03c0.699,0 1.413,-0.012 2.142,-0.035c1.156,-0.038 1.982,0.015 2.477,0.16" style="fill:none;fill-rule:nonzero;stroke:#63b633;stroke-width:3.54px;"/><path d="M85.528,152.888c-0.19,0.03 -0.401,0.089 -0.632,0.178c-0.231,0.089 -0.343,0.154 -0.337,0.196c0.006,0.042 0.348,0.013 1.024,-0.087c0.677,-0.1 1.482,-0.221 2.416,-0.364c0.933,-0.143 1.775,-0.225 2.526,-0.247c1.17,-0.034 2.086,-0.016 2.748,0.052" style="fill:none;fill-rule:nonzero;stroke:#63b633;stroke-width:3.54px;"/><path d="M99.382,148.664c-0.03,-0.002 0.019,-0.007 0.147,-0.016c0.128,-0.009 0.447,-0.032 0.957,-0.068c0.749,-0.054 1.733,-0.136 2.952,-0.248" style="fill:none;fill-rule:nonzero;stroke:#63b633;stroke-width:3.54px;"/><path d="M108.352,143.863c0.033,-0.274 0.19,-0.598 0.469,-0.974c0.28,-0.376 0.639,-0.788 1.077,-1.236c0.438,-0.448 0.832,-0.942 1.183,-1.481c0.351,-0.539 0.632,-1.008 0.843,-1.406c0.211,-0.398 0.325,-0.585 0.34,-0.559c0.016,0.026 -0.027,0.326 -0.129,0.9c-0.102,0.574 -0.159,1.328 -0.173,2.26c-0.013,0.932 0.03,1.935 0.13,3.01c0.1,1.075 0.178,2.185 0.233,3.33c0.055,1.145 0.074,2.216 0.055,3.213c-0.019,0.997 -0.046,1.765 -0.081,2.305l-0.039,0.585l0.004,-0.086" style="fill:none;fill-rule:nonzero;stroke:#63b633;stroke-width:3.54px;"/><path d="M109.285,153.245c0.101,-0.057 0.393,-0.108 0.874,-0.151c0.482,-0.044 1.22,-0.079 2.214,-0.105c1.507,-0.04 2.884,-0.149 4.133,-0.326" style="fill:none;fill-rule:nonzero;stroke:#63b633;stroke-width:3.54px;"/><path d="M527.049,269.809c-0.075,-0.262 -0.178,-0.521 -0.308,-0.778c-0.13,-0.257 -0.2,-0.402 -0.21,-0.436l-0.004,-0.013l0.03,0.117c0.027,0.103 0.095,0.362 0.204,0.776c0.109,0.414 0.377,1.28 0.803,2.6c0.427,1.32 0.871,2.847 1.334,4.581c0.463,1.734 0.946,3.47 1.448,5.208c0.502,1.738 0.957,3.037 1.363,3.896c0.406,0.86 0.747,1.282 1.024,1.267c0.277,-0.015 0.545,-0.522 0.806,-1.519c0.26,-0.998 0.473,-2.364 0.639,-4.1c0.165,-1.736 0.301,-3.281 0.407,-4.636c0.106,-1.355 0.235,-2.053 0.385,-2.094c0.151,-0.041 0.481,0.713 0.989,2.262c0.509,1.549 1.175,3.135 1.998,4.759c0.823,1.623 1.545,2.783 2.163,3.48c0.619,0.697 1.141,0.821 1.565,0.371c0.425,-0.45 0.806,-1.569 1.144,-3.358c0.338,-1.789 0.633,-4.099 0.887,-6.93c0.253,-2.831 0.502,-5.478 0.747,-7.942c0.244,-2.464 0.499,-4.044 0.764,-4.741c0.366,-0.963 0.955,-0.564 1.768,1.199" style="fill:none;fill-rule:nonzero;stroke:#c2361a;stroke-width:3.54px;"/><path d="M563.419,263.681c-0.304,-0.031 -0.61,-0.079 -0.916,-0.143c-0.307,-0.064 -0.57,-0.064 -0.791,0.001c-0.221,0.065 -0.478,0.52 -0.771,1.364c-0.293,0.844 -0.575,2.223 -0.845,4.137c-0.27,1.914 -0.442,4.15 -0.518,6.709c-0.075,2.559 0.16,4.797 0.706,6.712c0.546,1.916 1.394,3.285 2.543,4.108c1.149,0.823 2.217,1.321 3.204,1.495l0.74,0.131l-2.221,-0.392" style="fill:none;fill-rule:nonzero;stroke:#c2361a;stroke-width:3.54px;"/><path d="M572.609,272.345c0.334,-0.012 0.64,-0.206 0.918,-0.583c0.187,-0.253 0.162,-0.419 -0.073,-0.499c-0.236,-0.08 -0.603,-0.097 -1.103,-0.05c-0.499,0.046 -1.035,0.336 -1.609,0.868c-0.573,0.533 -1.137,1.305 -1.69,2.319c-0.554,1.014 -0.885,2.165 -0.995,3.454c-0.11,1.289 0.245,2.425 1.065,3.407c0.82,0.983 1.912,1.606 3.275,1.87l1.023,0.198l-3.067,-0.595" style="fill:none;fill-rule:nonzero;stroke:#c2361a;stroke-width:3.54px;"/><path d="M575.276,261.083c0.178,0.087 0.67,0.553 1.478,1.397c0.808,0.844 1.612,1.984 2.41,3.42c0.799,1.435 1.462,3.003 1.988,4.704c0.527,1.701 0.769,3.32 0.727,4.859c-0.042,1.539 -0.588,3.031 -1.638,4.478c-1.05,1.447 -2.282,2.765 -3.695,3.957l-1.06,0.893l3.18,-2.68" style="fill:none;fill-rule:nonzero;stroke:#c2361a;stroke-width:3.54px;"/><path d="M513.193,274.871c-0.069,-0.238 -0.382,-0.41 -0.937,-0.517c-0.555,-0.107 -1.098,-0.331 -1.627,-0.673c-0.53,-0.342 -1.068,-0.834 -1.617,-1.475c-0.548,-0.64 -1.082,-1.388 -1.601,-2.241c-0.519,-0.853 -1.017,-1.714 -1.493,-2.581c-0.476,-0.868 -0.845,-1.688 -1.107,-2.462c-0.262,-0.774 -0.443,-1.517 -0.542,-2.229c-0.099,-0.712 -0.238,-1.353 -0.418,-1.922c-0.18,-0.569 -0.406,-1.077 -0.678,-1.525c-0.273,-0.448 -0.487,-0.903 -0.642,-1.366c-0.155,-0.463 -0.238,-0.934 -0.248,-1.411c-0.01,-0.478 -0.015,-0.832 -0.015,-1.064c0,-0.232 -0.01,-0.365 -0.031,-0.4c-0.021,-0.035 -0.057,-0.052 -0.108,-0.052c-0.052,0 -0.106,0.02 -0.164,0.061c-0.058,0.041 -0.215,0.239 -0.472,0.594c-0.257,0.355 -0.623,0.911 -1.098,1.668c-0.475,0.756 -0.926,1.505 -1.354,2.247c-0.427,0.742 -0.724,1.276 -0.89,1.603l-0.14,0.26l0.084,-0.204c0.128,-0.29 0.323,-0.881 0.585,-1.772c0.261,-0.891 0.414,-1.708 0.458,-2.451c0.044,-0.743 0.107,-1.303 0.19,-1.68c0.083,-0.377 0.336,-0.624 0.758,-0.743c0.423,-0.119 0.94,-0.145 1.551,-0.079c0.611,0.066 1.204,0.332 1.777,0.798c0.573,0.466 1.133,0.988 1.679,1.566c0.546,0.578 1.13,1.078 1.749,1.5c0.62,0.423 1.114,0.728 1.482,0.915c0.5,0.255 0.557,0.073 0.17,-0.546" style="fill:none;fill-rule:nonzero;stroke:#c2361a;stroke-width:3.54px;"/><path d="M257.403,274.672c-0.366,-0.103 -0.788,-0.255 -1.265,-0.457c-0.477,-0.202 -0.813,-0.331 -1.008,-0.389c-0.195,-0.058 -0.27,-0.064 -0.225,-0.02c0.045,0.044 0.157,0.154 0.336,0.33c0.18,0.176 0.605,0.736 1.276,1.68c0.671,0.944 1.345,2.126 2.021,3.546c0.677,1.42 1.269,3.034 1.778,4.842c0.509,1.808 1.028,3.581 1.556,5.318c0.528,1.737 1.159,3.068 1.893,3.993c0.733,0.925 1.406,1.429 2.017,1.513c0.611,0.084 0.998,-0.087 1.161,-0.513c0.163,-0.426 0.113,-1.103 -0.149,-2.03c-0.263,-0.927 -0.632,-2.182 -1.108,-3.765c-0.476,-1.583 -0.763,-3.201 -0.86,-4.854c-0.098,-1.653 0.087,-2.867 0.554,-3.64c0.467,-0.774 1.033,-0.761 1.698,0.038c0.665,0.799 1.33,2.117 1.996,3.952c0.666,1.835 1.36,3.447 2.081,4.836c0.721,1.389 1.499,2.279 2.332,2.671c0.833,0.392 1.645,0.321 2.435,-0.211c0.79,-0.533 1.432,-1.507 1.925,-2.921c0.493,-1.415 0.815,-3.131 0.968,-5.149c0.153,-2.018 0.094,-3.913 -0.177,-5.684c-0.271,-1.771 -0.57,-2.968 -0.896,-3.59c-0.326,-0.622 -0.48,-0.893 -0.461,-0.813c0.027,0.115 0.113,0.475 0.257,1.08" style="fill:none;fill-rule:nonzero;stroke:#63b633;stroke-width:3.54px;"/><path d="M294.373,268.677c-0.186,-0.153 -0.434,-0.225 -0.744,-0.217c-0.31,0.008 -0.659,0.541 -1.048,1.598c-0.388,1.057 -0.72,2.659 -0.997,4.806c-0.276,2.148 -0.401,4.543 -0.374,7.186c0.027,2.643 0.237,5.087 0.63,7.33c0.393,2.243 0.887,4.039 1.481,5.387c0.594,1.348 1.193,2.237 1.794,2.666c0.848,0.605 1.839,-0.195 2.973,-2.398" style="fill:none;fill-rule:nonzero;stroke:#63b633;stroke-width:3.54px;"/><path d="M298.37,283.598c-0.192,-0.19 -0.379,-0.458 -0.562,-0.804c-0.183,-0.346 -0.279,-0.74 -0.289,-1.182c-0.01,-0.442 -0.005,-1.039 0.015,-1.791c0.02,-0.752 0.183,-1.501 0.488,-2.246c0.305,-0.745 0.7,-1.325 1.185,-1.74c0.485,-0.415 0.986,-0.591 1.504,-0.529c0.518,0.062 1.025,0.445 1.522,1.148c0.497,0.703 0.965,1.555 1.405,2.555c0.44,1 0.794,2.07 1.061,3.212c0.268,1.141 0.389,2.298 0.363,3.47c-0.026,1.172 -0.268,2.216 -0.726,3.131c-0.458,0.915 -0.91,1.607 -1.354,2.077c-0.444,0.469 -0.742,0.732 -0.893,0.789c-0.15,0.056 -0.231,-0.095 -0.241,-0.453c-0.01,-0.358 -0.015,-0.801 -0.015,-1.328c0,-0.527 0.055,-1.052 0.166,-1.575c0.111,-0.523 0.382,-1.163 0.815,-1.922c0.433,-0.758 0.961,-1.729 1.586,-2.911c0.625,-1.183 1.228,-2.455 1.81,-3.818c0.582,-1.363 1.044,-2.559 1.386,-3.588c0.342,-1.029 0.576,-1.809 0.703,-2.34c0.127,-0.53 0.191,-0.829 0.193,-0.895c0.003,-0.094 -0.233,0.031 -0.708,0.376" style="fill:none;fill-rule:nonzero;stroke:#63b633;stroke-width:3.54px;"/><path d="M307.229,265.613c0.113,-0.138 0.478,0.11 1.097,0.745c0.618,0.635 1.276,1.628 1.973,2.98c0.697,1.352 1.391,2.954 2.083,4.806c0.691,1.852 1.241,3.706 1.648,5.561c0.407,1.856 0.524,3.602 0.35,5.238c-0.174,1.637 -0.724,3.155 -1.65,4.555c-0.926,1.4 -1.849,2.638 -2.77,3.713c-0.921,1.076 -1.476,1.73 -1.665,1.963l-0.129,0.179l0.516,-0.496" style="fill:none;fill-rule:nonzero;stroke:#63b633;stroke-width:3.54px;"/><path d="M248.344,292.057c-0.098,-0.029 -0.424,0.008 -0.978,0.112c-0.554,0.104 -1.233,0.315 -2.037,0.634c-0.804,0.319 -1.808,0.682 -3.013,1.089c-1.205,0.407 -2.334,0.725 -3.388,0.956c-1.054,0.231 -2.015,0.363 -2.884,0.398c-0.869,0.034 -1.723,0.073 -2.561,0.116c-0.839,0.044 -1.581,0.07 -2.226,0.079c-0.645,0.009 -1.196,-0.06 -1.652,-0.206c-0.456,-0.147 -0.924,-0.357 -1.403,-0.629c-0.48,-0.273 -0.953,-0.545 -1.421,-0.818c-0.468,-0.273 -0.896,-0.589 -1.284,-0.948c-0.388,-0.359 -0.711,-0.728 -0.968,-1.106c-0.257,-0.379 -0.447,-0.715 -0.57,-1.007c-0.123,-0.293 -0.207,-0.508 -0.254,-0.647c-0.047,-0.139 -0.071,-0.225 -0.072,-0.257c-0.001,-0.032 -0.001,-0.077 -0.001,-0.135l0,-0.984c0,-0.07 0,-0.086 0,-0.046c0,0.04 -0.014,0.234 -0.042,0.584c-0.028,0.35 -0.071,0.8 -0.13,1.35c-0.058,0.551 -0.1,1.115 -0.124,1.692c-0.025,0.577 -0.037,1.127 -0.037,1.649l0,2.081c0,0.141 -0.007,0.214 -0.02,0.217c-0.013,0.004 -0.078,-0.1 -0.193,-0.311c-0.115,-0.211 -0.218,-0.535 -0.309,-0.973c-0.091,-0.438 -0.159,-0.905 -0.205,-1.402c-0.045,-0.496 -0.098,-0.932 -0.157,-1.307c-0.059,-0.375 -0.093,-0.701 -0.103,-0.978c-0.009,-0.277 0.003,-0.531 0.037,-0.761c0.034,-0.23 0.205,-0.446 0.511,-0.647c0.307,-0.201 0.684,-0.387 1.132,-0.56c0.448,-0.173 0.945,-0.287 1.49,-0.343c0.545,-0.056 1.102,-0.085 1.671,-0.085c0.569,-0.001 1.128,0.044 1.678,0.135c0.55,0.091 0.901,0.165 1.053,0.222c0.213,0.081 0.231,0.248 0.056,0.502" style="fill:none;fill-rule:nonzero;stroke:#63b633;stroke-width:3.54px;"/><path d="M280.321,291.415c-0.014,0.098 -0.072,0.157 -0.175,0.177c-0.071,0.014 -0.068,-0.034 0.009,-0.144c0.077,-0.11 0.291,-0.248 0.643,-0.414c0.352,-0.166 0.789,-0.315 1.311,-0.449c0.522,-0.134 1.009,-0.208 1.46,-0.224c0.451,-0.015 0.753,0.104 0.905,0.357c0.152,0.253 0.085,0.697 -0.203,1.331c-0.287,0.634 -0.633,1.332 -1.039,2.093c-0.406,0.762 -0.734,1.5 -0.984,2.214c-0.25,0.715 -0.468,1.397 -0.653,2.047c-0.185,0.65 -0.353,1.197 -0.505,1.643c-0.152,0.445 -0.288,0.82 -0.409,1.124c-0.121,0.304 -0.211,0.577 -0.269,0.819c-0.059,0.242 -0.071,0.445 -0.036,0.61c0.035,0.165 0.167,0.298 0.396,0.4c0.229,0.102 0.533,0.169 0.912,0.199c0.379,0.031 0.824,0.045 1.335,0.043c0.511,-0.002 1.012,-0.02 1.502,-0.055c0.49,-0.035 0.905,-0.059 1.243,-0.071l0.445,-0.019l-0.009,-0" style="fill:none;fill-rule:nonzero;stroke:#63b633;stroke-width:3.54px;"/><path d="M277.682,298.183c-0.186,0.014 -0.267,0.023 -0.244,0.025c0.017,0.002 0.059,0.006 0.125,0.013c0.067,0.007 0.468,0.004 1.205,-0.009c1.072,-0.019 2.667,-0.278 4.784,-0.779" style="fill:none;fill-rule:nonzero;stroke:#63b633;stroke-width:3.54px;"/><path d="M548.304,283.54c-0.045,0.029 -0.198,0.06 -0.46,0.095c-0.153,0.02 -0.158,0.113 -0.015,0.279c0.144,0.165 0.473,0.544 0.99,1.136c0.516,0.592 1.16,1.388 1.932,2.39c0.772,1.002 1.577,1.999 2.415,2.992c0.838,0.993 1.633,1.787 2.384,2.382c0.751,0.595 1.346,1.014 1.785,1.258c0.439,0.244 0.647,0.284 0.624,0.122" style="fill:none;fill-rule:nonzero;stroke:#c2361a;stroke-width:3.54px;"/><path d="M555.066,282.523c-0.318,0.142 -0.649,0.364 -0.993,0.666c-0.345,0.302 -0.744,0.757 -1.198,1.365c-0.454,0.608 -1.045,1.358 -1.773,2.249c-0.728,0.89 -1.498,1.808 -2.309,2.753c-1.381,1.609 -2.223,2.607 -2.524,2.993" style="fill:none;fill-rule:nonzero;stroke:#c2361a;stroke-width:3.54px;"/></g></svg>