<?xml version="1.0" encoding="UTF-8" standalone="no"?><!DOCTYPE svg PUBLIC "-//W3C//DTD SVG 1.1//EN" "http://www.w3.org/Graphics/SVG/1.1/DTD/svg11.dtd"><svg width="100%" height="100%" viewBox="0 0 809 159" version="1.1" xmlns="http://www.w3.org/2000/svg" xmlns:xlink="http://www.w3.org/1999/xlink" xml:space="preserve" xmlns:serif="http://www.serif.com/" style="fill-rule:evenodd;clip-rule:evenodd;stroke-linecap:round;stroke-linejoin:round;stroke-miterlimit:10;"><rect id="Artboard1" x="0" y="0" width="809" height="159" style="fill:none;"/><rect x="0" y="0" width="809" height="159" style="fill:#fff;"/><path d="M55.34,63.646c-0.286,-0.046 -0.583,-0.196 -0.89,-0.451c-0.307,-0.255 -0.58,-0.439 -0.818,-0.553c-0.239,-0.114 -0.49,-0.187 -0.754,-0.221c-0.264,-0.034 -0.537,-0.051 -0.819,-0.051c-0.282,-0 -0.593,0.09 -0.934,0.269c-0.341,0.18 -0.704,0.605 -1.09,1.277c-0.386,0.672 -0.728,1.519 -1.027,2.541c-0.299,1.023 -0.468,2.048 -0.508,3.076c-0.04,1.028 0.185,1.879 0.675,2.554c0.489,0.675 1.182,1.121 2.077,1.338c0.896,0.218 1.814,0.277 2.755,0.179c0.941,-0.098 1.815,-0.5 2.624,-1.206c0.809,-0.705 1.424,-1.605 1.846,-2.7c0.422,-1.094 0.649,-2.215 0.68,-3.361c0.032,-1.146 -0.156,-2.195 -0.562,-3.145c-0.406,-0.951 -0.898,-1.779 -1.476,-2.486c-0.578,-0.707 -1.116,-1.293 -1.614,-1.759c-0.499,-0.466 -1.002,-0.797 -1.511,-0.992c-0.509,-0.196 -1.205,-0.181 -2.09,0.045c-0.885,0.226 -1.772,0.803 -2.663,1.731c-0.891,0.928 -1.749,2.055 -2.573,3.381c-0.825,1.326 -1.498,2.689 -2.019,4.088c-0.522,1.399 -0.796,2.634 -0.823,3.703c-0.027,1.07 0.284,1.887 0.932,2.452c0.649,0.565 1.549,0.91 2.702,1.035c1.153,0.125 2.348,0.104 3.585,-0.064c1.237,-0.168 2.353,-0.569 3.347,-1.203c0.994,-0.634 1.754,-1.416 2.28,-2.347c0.525,-0.931 0.84,-1.984 0.944,-3.161c0.104,-1.177 -0.026,-2.36 -0.39,-3.55c-0.364,-1.19 -0.859,-2.183 -1.485,-2.981c-0.626,-0.798 -1.238,-1.376 -1.835,-1.735c-0.598,-0.359 -1.257,-0.521 -1.979,-0.486c-0.722,0.035 -1.585,0.438 -2.589,1.207c-1.004,0.77 -1.904,1.762 -2.697,2.978c-0.794,1.216 -1.347,2.438 -1.66,3.668c-0.313,1.229 -0.134,2.302 0.537,3.219c0.671,0.917 1.87,1.494 3.596,1.733c1.726,0.239 3.417,0.178 5.071,-0.181c1.654,-0.36 2.948,-1.061 3.88,-2.103c0.932,-1.042 1.486,-2.297 1.663,-3.762c0.176,-1.466 -0.087,-2.893 -0.788,-4.282c-0.702,-1.389 -1.737,-2.442 -3.107,-3.159c-1.37,-0.718 -2.796,-1.121 -4.278,-1.212c-1.482,-0.09 -2.789,0.23 -3.919,0.962c-1.131,0.732 -1.98,1.843 -2.55,3.333c-0.569,1.49 -0.849,3.04 -0.84,4.651c0.009,1.611 0.457,3.097 1.342,4.459c0.886,1.362 2.071,2.319 3.555,2.87c1.485,0.551 2.984,0.624 4.499,0.218c1.515,-0.406 2.742,-1.362 3.682,-2.869c0.94,-1.507 1.507,-3.228 1.701,-5.164c0.194,-1.936 0.015,-3.709 -0.537,-5.321c-0.552,-1.611 -1.43,-2.817 -2.632,-3.617c-1.203,-0.8 -2.431,-1.262 -3.686,-1.386c-1.255,-0.124 -2.497,0.214 -3.726,1.013c-1.229,0.8 -2.307,1.999 -3.233,3.598c-0.926,1.599 -1.562,3.352 -1.91,5.257c-0.348,1.906 -0.171,3.705 0.529,5.396c0.7,1.692 1.88,2.852 3.54,3.481c1.66,0.629 3.334,0.678 5.021,0.148c1.687,-0.531 3.125,-1.606 4.314,-3.225c1.189,-1.619 1.951,-3.414 2.286,-5.384c0.336,-1.97 0.056,-3.714 -0.839,-5.231c-0.895,-1.517 -2.29,-2.536 -4.185,-3.057c-1.895,-0.521 -3.764,-0.623 -5.607,-0.303c-1.843,0.319 -3.357,1.291 -4.54,2.915c-1.183,1.625 -1.971,3.613 -2.363,5.966c-0.392,2.353 -0.171,4.55 0.662,6.593c0.833,2.043 2.191,3.429 4.072,4.158c1.881,0.729 3.726,0.748 5.533,0.055c1.807,-0.693 3.18,-1.931 4.121,-3.715c0.94,-1.784 1.387,-3.895 1.339,-6.334c-0.047,-2.438 -0.657,-4.68 -1.831,-6.725c-1.173,-2.045 -2.688,-3.203 -4.544,-3.475c-1.856,-0.272 -3.615,0.486 -5.278,2.273c-1.663,1.787 -2.788,4.124 -3.377,7.011c-0.589,2.886 -0.478,5.552 0.333,7.996c0.81,2.444 2.237,4.136 4.281,5.076c2.044,0.94 4.169,1.086 6.375,0.44c2.206,-0.646 3.963,-1.931 5.271,-3.853c1.308,-1.922 2.075,-4.082 2.302,-6.478c0.227,-2.396 -0.111,-4.58 -1.013,-6.55c-0.902,-1.97 -2.298,-3.243 -4.188,-3.817c-1.89,-0.575 -3.744,-0.538 -5.562,0.111c-1.818,0.649 -3.245,1.873 -4.28,3.672c-1.035,1.799 -1.653,3.781 -1.853,5.944c-0.201,2.164 0.207,4.062 1.224,5.694c1.016,1.632 2.619,2.644 4.809,3.034c2.19,0.391 4.36,0.116 6.512,-0.824c2.151,-0.94 3.787,-2.321 4.908,-4.144c1.121,-1.823 1.594,-3.847 1.419,-6.073c-0.175,-2.226 -1.073,-4.132 -2.694,-5.716c-1.622,-1.584 -3.505,-2.423 -5.648,-2.517c-2.144,-0.094 -3.885,0.567 -5.224,1.982c-1.339,1.415 -2.113,3.165 -2.322,5.249c-0.209,2.085 0.193,4.006 1.205,5.764c1.012,1.758 2.39,2.898 4.133,3.421c1.743,0.522 3.237,0.395 4.481,-0.384c1.244,-0.778 2.005,-1.975 2.282,-3.59c0.277,-1.615 -0.113,-3.106 -1.17,-4.474c-1.057,-1.368 -2.507,-1.956 -4.349,-1.764c-1.842,0.192 -3.257,1.114 -4.245,2.768c-0.988,1.653 -1.388,3.236 -1.201,4.748c0.187,1.512 0.968,2.477 2.342,2.895c1.375,0.418 2.646,0.259 3.815,-0.479c1.168,-0.738 1.905,-1.679 2.209,-2.824c0.304,-1.145 0.123,-1.981 -0.543,-2.509c-0.666,-0.528 -1.641,-0.481 -2.924,0.142c-1.284,0.623 -2.206,1.419 -2.767,2.389c-0.561,0.97 -0.604,1.572 -0.13,1.807c0.474,0.235 1.223,-0.029 2.247,-0.792c1.024,-0.763 1.75,-1.615 2.179,-2.556c0.429,-0.941 0.645,-1.596 0.648,-1.965c0.003,-0.369 -0.212,-0.408 -0.645,-0.118c-0.433,0.29 -0.744,0.68 -0.93,1.168c-0.264,0.692 0.342,1.37 1.818,2.033" style="fill:none;fill-rule:nonzero;stroke:#348ad8;stroke-width:3.54px;"/><path d="M255.487,58.987c0.236,-0.055 0.534,-0.16 0.893,-0.317c0.232,-0.101 0.354,-0.177 0.367,-0.229c0.013,-0.051 0.019,-0.111 0.019,-0.181c0,-0.069 -0.043,-0.169 -0.129,-0.299c-0.086,-0.13 -0.262,-0.28 -0.529,-0.449c-0.267,-0.169 -0.629,-0.351 -1.087,-0.545c-0.458,-0.194 -1.037,-0.314 -1.737,-0.361c-0.7,-0.046 -1.507,-0.051 -2.422,-0.015c-0.915,0.036 -1.844,0.278 -2.788,0.725c-0.944,0.447 -1.829,1.128 -2.654,2.044c-0.826,0.916 -1.528,2.001 -2.106,3.257c-0.578,1.256 -0.99,2.562 -1.235,3.918c-0.245,1.357 -0.376,2.627 -0.392,3.81c-0.016,1.184 0.197,2.236 0.639,3.158c0.442,0.921 1.117,1.663 2.026,2.226c0.909,0.562 1.937,0.94 3.086,1.134c1.149,0.194 2.291,0.294 3.428,0.299c1.136,0.006 2.248,-0.203 3.335,-0.627c1.087,-0.424 2.08,-1.165 2.979,-2.226c0.899,-1.06 1.639,-2.382 2.221,-3.966c0.581,-1.584 0.955,-3.21 1.122,-4.877c0.167,-1.668 0.103,-3.045 -0.19,-4.133c-0.293,-1.088 -0.871,-1.947 -1.735,-2.576c-0.864,-0.63 -1.807,-1.151 -2.829,-1.565c-1.022,-0.414 -2.025,-0.667 -3.007,-0.761c-0.983,-0.093 -1.994,0.147 -3.035,0.721c-1.041,0.574 -2.05,1.567 -3.029,2.979c-0.978,1.412 -1.732,3.021 -2.26,4.825c-0.528,1.804 -0.74,3.557 -0.633,5.257c0.106,1.701 0.67,3.145 1.691,4.334c1.021,1.189 2.237,1.976 3.648,2.36c1.41,0.385 2.831,0.256 4.263,-0.386c1.432,-0.643 2.601,-1.863 3.509,-3.661c0.908,-1.798 1.421,-3.8 1.54,-6.005c0.119,-2.205 -0.299,-4.075 -1.255,-5.61c-0.956,-1.535 -2.253,-2.529 -3.893,-2.981c-1.639,-0.453 -3.243,-0.546 -4.81,-0.279c-1.568,0.267 -2.986,0.973 -4.254,2.119c-1.268,1.146 -2.259,2.503 -2.973,4.071c-0.714,1.568 -0.994,3.212 -0.84,4.932c0.154,1.72 1.021,3.207 2.601,4.461c1.58,1.254 3.32,2.001 5.22,2.241c1.9,0.24 3.565,-0.165 4.994,-1.214c1.43,-1.049 2.411,-2.633 2.943,-4.751c0.532,-2.118 0.51,-4.31 -0.067,-6.577c-0.577,-2.267 -1.835,-3.674 -3.774,-4.221c-1.939,-0.547 -3.692,-0.292 -5.258,0.766c-1.567,1.057 -2.775,2.739 -3.625,5.044c-0.85,2.305 -1.273,4.635 -1.269,6.991c0.004,2.355 0.709,4.078 2.115,5.169c1.406,1.091 3.148,1.349 5.225,0.775c2.078,-0.574 3.781,-1.855 5.111,-3.841c1.33,-1.987 2.055,-4.139 2.176,-6.458c0.121,-2.319 -0.338,-4.186 -1.378,-5.603c-1.04,-1.416 -2.346,-2.181 -3.919,-2.294c-1.573,-0.113 -3.049,0.374 -4.429,1.462c-1.38,1.088 -2.439,2.541 -3.177,4.359c-0.738,1.818 -1.067,3.541 -0.988,5.168c0.079,1.627 0.774,2.809 2.086,3.547c1.311,0.738 2.833,0.969 4.564,0.693c1.732,-0.276 3.184,-1.075 4.356,-2.399c1.173,-1.324 1.868,-2.858 2.087,-4.603c0.218,-1.745 -0.193,-3.208 -1.233,-4.388c-1.04,-1.18 -2.477,-1.757 -4.31,-1.731c-1.833,0.026 -3.33,0.757 -4.493,2.194c-1.162,1.437 -1.745,3.127 -1.75,5.072c-0.004,1.945 0.742,3.461 2.238,4.55c1.495,1.089 3.183,1.429 5.063,1.021c1.879,-0.409 3.316,-1.456 4.31,-3.142c0.994,-1.686 1.445,-3.513 1.353,-5.479c-0.092,-1.967 -0.786,-3.431 -2.08,-4.393c-1.295,-0.962 -2.85,-1.082 -4.667,-0.359c-1.817,0.723 -3.315,2.053 -4.496,3.991c-1.18,1.938 -1.835,3.707 -1.963,5.307c-0.128,1.6 0.351,2.543 1.439,2.827c1.088,0.285 2.378,-0.088 3.87,-1.116c1.492,-1.029 2.61,-2.304 3.353,-3.827c0.743,-1.522 1.018,-2.883 0.824,-4.082c-0.194,-1.199 -1.04,-1.837 -2.538,-1.914c-1.498,-0.077 -2.985,0.554 -4.463,1.892c-1.478,1.338 -2.445,2.879 -2.9,4.624c-0.455,1.745 -0.289,3.093 0.499,4.045c0.788,0.952 1.953,1.299 3.495,1.04c1.541,-0.259 2.784,-1.037 3.728,-2.336c0.944,-1.298 1.447,-2.616 1.508,-3.954c0.061,-1.338 -0.405,-2.2 -1.397,-2.586c-0.992,-0.387 -2.072,-0.195 -3.24,0.576c-1.168,0.77 -1.92,1.636 -2.254,2.596c-0.334,0.96 -0.257,1.64 0.234,2.039c0.49,0.399 1.284,0.431 2.381,0.095c1.097,-0.336 1.961,-0.9 2.592,-1.693c0.631,-0.793 0.968,-1.447 1.01,-1.961c0.043,-0.514 -0.346,-0.699 -1.166,-0.552c-0.82,0.146 -1.588,0.559 -2.305,1.239c-0.717,0.679 -1.195,1.214 -1.433,1.603c-0.239,0.389 -0.271,0.572 -0.096,0.548c0.175,-0.024 0.514,-0.259 1.018,-0.705c0.504,-0.446 0.849,-0.787 1.035,-1.023c0.186,-0.236 0.27,-0.337 0.254,-0.304c-0.016,0.033 -0.058,0.117 -0.123,0.25c-0.066,0.133 -0.22,0.373 -0.462,0.72c-0.242,0.347 -0.382,0.55 -0.42,0.609l-0.019,0.033l0.073,-0.097c0.107,-0.149 0.29,-0.37 0.548,-0.664" style="fill:none;fill-rule:nonzero;stroke:#348ad8;stroke-width:3.54px;"/><path d="M62.373,48.227c0.129,0.123 0.441,0.299 0.935,0.53c0.302,0.141 0.55,0.17 0.744,0.088c0.194,-0.082 0.448,-0.317 0.764,-0.704c0.316,-0.387 0.829,-0.826 1.54,-1.318c0.711,-0.492 1.742,-1.116 3.092,-1.873c1.35,-0.757 3.163,-1.702 5.44,-2.835c2.277,-1.134 4.629,-2.198 7.057,-3.193c2.428,-0.995 4.675,-1.768 6.742,-2.32c2.066,-0.552 4.073,-0.987 6.021,-1.306c1.948,-0.319 3.86,-0.649 5.735,-0.992c1.876,-0.342 3.764,-0.715 5.665,-1.118c1.901,-0.403 3.856,-0.807 5.866,-1.213c2.01,-0.406 4.126,-0.835 6.348,-1.288c2.222,-0.453 4.4,-0.908 6.534,-1.365c2.134,-0.458 4.19,-0.842 6.167,-1.152c1.978,-0.31 4.001,-0.559 6.071,-0.744c2.07,-0.186 4.241,-0.359 6.515,-0.52c2.274,-0.161 4.469,-0.319 6.585,-0.473c2.116,-0.154 4.071,-0.263 5.865,-0.327c1.794,-0.064 3.508,-0.097 5.142,-0.098c1.634,-0.001 3.246,-0.002 4.838,-0.002c1.591,0 3.157,0.019 4.699,0.056c1.541,0.037 3.029,0.169 4.464,0.395c1.434,0.226 2.719,0.476 3.853,0.749c1.134,0.273 2.257,0.556 3.368,0.849c1.111,0.293 2.254,0.581 3.428,0.866c1.174,0.285 2.286,0.583 3.336,0.895c1.05,0.312 2.055,0.644 3.017,0.998c0.962,0.353 1.963,0.722 3.003,1.105c1.041,0.384 2.098,0.802 3.171,1.254c1.073,0.452 2.113,0.945 3.119,1.479c1.006,0.533 1.952,1.089 2.839,1.667c0.887,0.578 1.649,1.102 2.288,1.573c0.639,0.47 1.183,0.865 1.633,1.185c0.449,0.32 0.901,0.602 1.355,0.847c0.454,0.245 0.938,0.426 1.453,0.543c0.515,0.117 0.964,0.182 1.346,0.194c0.382,0.013 0.678,0.019 0.886,0.019c0.208,0 0.345,-0.057 0.41,-0.171c0.065,-0.114 0.104,-0.364 0.115,-0.75c0.011,-0.386 -0.016,-0.849 -0.081,-1.391c-0.065,-0.541 -0.247,-1.13 -0.544,-1.767c-0.297,-0.637 -0.612,-1.255 -0.946,-1.854c-0.334,-0.6 -0.687,-1.169 -1.06,-1.709c-0.373,-0.54 -0.723,-1 -1.051,-1.381c-0.328,-0.38 -0.61,-0.676 -0.845,-0.886c-0.235,-0.21 -0.397,-0.328 -0.485,-0.353c-0.088,-0.025 -0.137,0.076 -0.148,0.304c-0.012,0.228 0.01,0.67 0.066,1.327c0.055,0.657 0.308,1.378 0.758,2.165c0.45,0.786 1.021,1.599 1.713,2.439c0.692,0.839 1.408,1.699 2.15,2.579c0.741,0.88 1.403,1.684 1.988,2.411c0.584,0.728 1.072,1.344 1.465,1.848c0.393,0.504 0.703,0.921 0.93,1.251c0.228,0.33 0.365,0.612 0.412,0.848c0.047,0.235 -0.038,0.44 -0.254,0.615c-0.217,0.174 -0.75,0.313 -1.601,0.417c-0.85,0.104 -1.839,0.215 -2.966,0.335c-1.127,0.119 -2.265,0.255 -3.413,0.407c-1.148,0.152 -2.012,0.288 -2.591,0.408c-0.579,0.12 -0.868,0.102 -0.865,-0.056" style="fill:none;fill-rule:nonzero;stroke:#348ad8;stroke-width:3.54px;"/><path d="M232.065,90.624c0.044,0.322 -0.39,0.686 -1.302,1.091c-0.912,0.405 -2.137,0.861 -3.675,1.366c-1.538,0.505 -3.283,1.09 -5.236,1.755c-1.953,0.665 -3.928,1.328 -5.926,1.989c-1.998,0.661 -3.878,1.252 -5.64,1.773c-1.762,0.521 -3.435,1.015 -5.02,1.482c-1.585,0.467 -3.166,0.929 -4.745,1.384c-1.579,0.456 -3.158,0.878 -4.737,1.267c-1.579,0.389 -3.255,0.746 -5.027,1.07c-1.773,0.324 -3.62,0.644 -5.543,0.959c-1.923,0.315 -3.865,0.633 -5.826,0.955c-1.962,0.322 -3.97,0.699 -6.024,1.131c-2.054,0.432 -4.027,0.857 -5.918,1.275c-1.891,0.418 -3.706,0.757 -5.445,1.017c-1.738,0.26 -3.312,0.423 -4.722,0.49c-1.41,0.067 -2.725,0.105 -3.945,0.117c-1.22,0.011 -2.437,0.017 -3.65,0.017c-1.213,0 -2.447,-0.053 -3.702,-0.159c-1.255,-0.106 -2.54,-0.22 -3.855,-0.343c-1.315,-0.123 -2.621,-0.268 -3.918,-0.437c-1.296,-0.169 -2.579,-0.365 -3.847,-0.587c-1.268,-0.222 -2.525,-0.435 -3.772,-0.639c-1.247,-0.204 -2.405,-0.363 -3.477,-0.478c-1.071,-0.115 -2.05,-0.232 -2.938,-0.352c-0.888,-0.119 -1.755,-0.294 -2.603,-0.523c-0.848,-0.23 -1.838,-0.456 -2.97,-0.68c-1.132,-0.224 -2.345,-0.399 -3.64,-0.525c-1.295,-0.126 -2.479,-0.268 -3.553,-0.426c-1.074,-0.158 -2.064,-0.4 -2.969,-0.728c-0.905,-0.328 -1.774,-0.689 -2.608,-1.085c-0.834,-0.396 -1.641,-0.742 -2.42,-1.039c-0.78,-0.297 -1.594,-0.573 -2.441,-0.826c-0.847,-0.253 -1.721,-0.555 -2.621,-0.905c-0.9,-0.35 -1.787,-0.733 -2.66,-1.148c-0.873,-0.415 -1.725,-0.815 -2.557,-1.201c-0.832,-0.386 -1.634,-0.742 -2.407,-1.069c-0.773,-0.326 -1.519,-0.631 -2.238,-0.915c-0.719,-0.284 -1.42,-0.573 -2.101,-0.868c-0.682,-0.295 -1.332,-0.579 -1.951,-0.852c-0.619,-0.274 -1.189,-0.562 -1.71,-0.864c-0.521,-0.303 -1.001,-0.606 -1.44,-0.91c-0.439,-0.304 -0.808,-0.588 -1.107,-0.854c-0.299,-0.265 -0.556,-0.51 -0.77,-0.734c-0.214,-0.224 -0.375,-0.394 -0.483,-0.511c-0.108,-0.117 -0.162,-0.182 -0.164,-0.194c-0.001,-0.013 -0.002,0.047 -0.002,0.178c0,0.131 0.005,0.498 0.014,1.101c0.009,0.603 0.177,1.297 0.503,2.082c0.326,0.785 0.868,1.603 1.626,2.452c0.758,0.849 1.539,1.628 2.344,2.335c0.805,0.707 1.442,1.274 1.911,1.701c0.469,0.427 0.775,0.696 0.917,0.807c0.142,0.112 0.196,0.163 0.162,0.156c-0.034,-0.008 -0.203,-0.108 -0.508,-0.302c-0.305,-0.194 -0.639,-0.437 -1.004,-0.729c-0.365,-0.293 -0.719,-0.61 -1.065,-0.952c-0.345,-0.342 -0.676,-0.7 -0.991,-1.074c-0.315,-0.373 -0.644,-0.767 -0.986,-1.181c-0.342,-0.414 -0.691,-0.834 -1.046,-1.259c-0.355,-0.425 -0.643,-0.856 -0.862,-1.291c-0.219,-0.435 -0.352,-0.871 -0.398,-1.306c-0.046,-0.436 -0.023,-0.847 0.07,-1.234c0.093,-0.387 0.419,-0.715 0.979,-0.984c0.56,-0.269 1.271,-0.462 2.133,-0.579c0.862,-0.117 1.831,-0.182 2.908,-0.194c1.077,-0.013 2.153,-0.019 3.23,-0.019c1.614,-0 3.143,-0.261 4.586,-0.783" style="fill:none;fill-rule:nonzero;stroke:#348ad8;stroke-width:3.54px;"/><path d="M343.367,61.035c-0.393,0.191 -0.49,0.346 -0.293,0.464c0.142,0.085 0.905,0.105 2.288,0.061c1.383,-0.045 2.826,-0.116 4.33,-0.213c1.503,-0.097 3.245,-0.294 5.225,-0.59c1.98,-0.296 3.794,-0.574 5.442,-0.834c1.648,-0.26 2.643,-0.403 2.986,-0.429l0.202,-0.003l-0.485,0.102c-0.778,0.134 -1.794,0.452 -3.049,0.954" style="fill:none;fill-rule:nonzero;stroke:#000;stroke-width:3.54px;"/><path d="M339.249,72.578c0.093,-0.404 0.618,-0.667 1.572,-0.79c0.955,-0.123 2.315,-0.093 4.081,0.092c1.766,0.185 3.953,0.35 6.562,0.498c2.608,0.147 5.225,0.27 7.851,0.37c2.626,0.099 4.318,0.183 5.075,0.249c0.758,0.067 1.21,0.464 1.357,1.192" style="fill:none;fill-rule:nonzero;stroke:#000;stroke-width:3.54px;"/><path d="M409.885,69.297c0.201,-0.124 0.624,-0.245 1.268,-0.365c0.644,-0.119 1.66,-0.184 3.047,-0.194c1.387,-0.01 3.318,-0.045 5.793,-0.103c2.475,-0.059 5.116,-0.172 7.924,-0.341c4.596,-0.276 7.674,-0.491 9.234,-0.645" style="fill:none;fill-rule:nonzero;stroke:#000;stroke-width:3.54px;"/><path d="M424.377,57.448c-0.065,0.132 -0.166,0.811 -0.303,2.037c-0.138,1.226 -0.213,2.844 -0.225,4.854c-0.013,2.01 0.096,4.028 0.325,6.054c0.229,2.026 0.556,3.689 0.98,4.988c0.425,1.299 0.791,2.198 1.1,2.697c0.308,0.499 0.463,0.484 0.462,-0.043" style="fill:none;fill-rule:nonzero;stroke:#000;stroke-width:3.54px;"/><path d="M517.654,60.954c-0.188,0.204 -0.489,0.224 -0.905,0.06c-0.284,-0.112 -0.534,-0.284 -0.75,-0.518c-0.216,-0.234 -0.568,-0.414 -1.054,-0.541c-0.486,-0.127 -1.09,-0.197 -1.811,-0.209c-0.721,-0.013 -1.505,0.099 -2.353,0.335c-0.847,0.236 -1.674,0.818 -2.48,1.745c-0.806,0.927 -1.392,2.069 -1.756,3.425c-0.364,1.356 -0.427,2.725 -0.19,4.106c0.238,1.381 0.795,2.568 1.67,3.56c0.875,0.992 1.846,1.638 2.912,1.937c1.066,0.299 2.243,0.252 3.531,-0.143c1.288,-0.395 2.555,-1.204 3.799,-2.428c1.245,-1.224 2.218,-2.486 2.92,-3.785c0.702,-1.299 1.132,-2.476 1.29,-3.53c0.158,-1.054 0.009,-1.98 -0.446,-2.778c-0.456,-0.798 -1.262,-1.533 -2.418,-2.205c-1.157,-0.672 -2.373,-1.237 -3.65,-1.694c-1.277,-0.457 -2.48,-0.705 -3.611,-0.742c-1.131,-0.037 -2.151,0.317 -3.061,1.061c-0.91,0.744 -1.676,1.876 -2.297,3.394c-0.621,1.518 -0.987,3.07 -1.099,4.656c-0.112,1.586 0.309,2.909 1.264,3.969c0.955,1.06 2.262,1.696 3.921,1.908c1.659,0.212 3.201,0.025 4.625,-0.562c1.424,-0.586 2.544,-1.493 3.36,-2.72c0.816,-1.227 1.259,-2.63 1.327,-4.21c0.069,-1.58 -0.378,-3.145 -1.34,-4.695c-0.962,-1.55 -2.231,-2.649 -3.808,-3.297c-1.577,-0.648 -3.125,-0.741 -4.644,-0.28c-1.519,0.461 -2.753,1.545 -3.701,3.251c-0.948,1.707 -1.46,3.46 -1.536,5.26c-0.076,1.8 0.542,3.264 1.855,4.392c1.313,1.128 2.915,1.74 4.805,1.838c1.891,0.098 3.495,-0.359 4.811,-1.37c1.317,-1.011 2.169,-2.393 2.556,-4.144c0.387,-1.751 0.408,-3.448 0.061,-5.091c-0.347,-1.643 -1.128,-2.643 -2.343,-3c-1.215,-0.357 -2.54,-0.004 -3.974,1.058c-1.434,1.063 -2.574,2.561 -3.42,4.494c-0.846,1.933 -1.295,3.835 -1.349,5.704c-0.053,1.87 0.58,3.198 1.9,3.986c1.32,0.788 3.048,0.937 5.185,0.448c2.137,-0.49 3.933,-1.581 5.39,-3.275c1.457,-1.694 2.309,-3.688 2.557,-5.982c0.248,-2.295 -0.2,-4.274 -1.342,-5.939c-1.142,-1.665 -2.692,-2.605 -4.651,-2.82c-1.959,-0.215 -3.751,0.4 -5.376,1.846c-1.626,1.446 -2.786,3.317 -3.48,5.614c-0.694,2.297 -0.866,4.362 -0.517,6.196c0.35,1.834 1.432,3.01 3.247,3.528c1.815,0.519 3.79,0.337 5.923,-0.544c2.134,-0.881 3.81,-2.149 5.028,-3.804c1.219,-1.655 1.84,-3.388 1.864,-5.201c0.023,-1.812 -0.629,-3.256 -1.957,-4.331c-1.328,-1.075 -3.038,-1.53 -5.128,-1.364c-2.09,0.166 -3.986,1.107 -5.687,2.823c-1.701,1.717 -2.778,3.728 -3.231,6.034c-0.453,2.306 -0.25,4.21 0.612,5.713c0.861,1.503 2.215,2.291 4.061,2.365c1.847,0.074 3.642,-0.521 5.386,-1.784c1.744,-1.264 2.918,-2.878 3.52,-4.843c0.602,-1.965 0.575,-3.788 -0.082,-5.469c-0.657,-1.681 -1.888,-2.7 -3.692,-3.056c-1.804,-0.356 -3.566,0.064 -5.285,1.261c-1.719,1.197 -2.934,2.803 -3.646,4.817c-0.712,2.014 -0.809,3.758 -0.292,5.23c0.517,1.472 1.66,2.29 3.428,2.453c1.768,0.163 3.46,-0.298 5.073,-1.383c1.614,-1.085 2.69,-2.399 3.228,-3.943c0.538,-1.544 0.54,-2.789 0.008,-3.736c-0.533,-0.947 -1.574,-1.312 -3.122,-1.095c-1.548,0.217 -2.826,0.933 -3.833,2.146c-1.007,1.213 -1.504,2.311 -1.491,3.292c0.013,0.981 0.593,1.583 1.74,1.804c1.148,0.222 2.283,0.01 3.405,-0.635c1.123,-0.645 1.85,-1.468 2.182,-2.471c0.332,-1.002 0.125,-1.726 -0.623,-2.172c-0.748,-0.446 -1.932,-0.24 -3.554,0.617c-1.622,0.857 -2.819,2.014 -3.592,3.471c-0.773,1.457 -0.892,2.597 -0.357,3.421c0.535,0.824 1.564,1.128 3.087,0.914c1.523,-0.215 2.733,-0.852 3.63,-1.913c0.897,-1.06 1.316,-2.142 1.259,-3.244c-0.057,-1.103 -0.717,-1.819 -1.979,-2.149c-1.262,-0.33 -2.532,-0.148 -3.81,0.546c-1.278,0.694 -2.081,1.514 -2.409,2.461c-0.328,0.947 -0.163,1.596 0.495,1.947c0.658,0.351 1.535,0.304 2.631,-0.14c1.096,-0.444 1.934,-1.119 2.513,-2.027c0.579,-0.907 0.927,-1.635 1.042,-2.182l0.087,-0.41l-0.26,1.231" style="fill:none;fill-rule:nonzero;stroke:#348ad8;stroke-width:3.54px;"/><path d="M719.224,63.646c0.401,-0.112 0.835,-0.351 1.301,-0.716c0.466,-0.365 0.76,-0.75 0.882,-1.155c0.122,-0.405 0.132,-0.819 0.03,-1.244c-0.102,-0.424 -0.404,-0.825 -0.906,-1.202c-0.503,-0.377 -1.144,-0.739 -1.922,-1.085c-0.779,-0.346 -1.72,-0.561 -2.824,-0.644c-1.104,-0.083 -2.272,0.196 -3.506,0.836c-1.234,0.641 -2.331,1.809 -3.291,3.507c-0.96,1.697 -1.512,3.66 -1.656,5.888c-0.144,2.228 0.254,4.195 1.194,5.901c0.94,1.706 2.27,2.713 3.991,3.019c1.721,0.306 3.505,-0.129 5.353,-1.307c1.848,-1.177 3.37,-2.887 4.566,-5.129c1.197,-2.242 1.914,-4.528 2.151,-6.857c0.238,-2.329 -0.053,-4.203 -0.871,-5.624c-0.819,-1.42 -2.052,-2.237 -3.701,-2.45c-1.648,-0.213 -3.404,0.186 -5.267,1.198c-1.863,1.012 -3.448,2.529 -4.757,4.551c-1.308,2.022 -2.074,4.064 -2.295,6.128c-0.222,2.064 0.222,3.704 1.331,4.922c1.109,1.217 2.654,1.842 4.634,1.872c1.98,0.031 3.75,-0.539 5.308,-1.709c1.558,-1.17 2.551,-2.785 2.978,-4.846c0.427,-2.061 0.203,-4.002 -0.673,-5.825c-0.875,-1.823 -2.265,-2.9 -4.167,-3.232c-1.903,-0.332 -3.729,0.136 -5.48,1.402c-1.751,1.267 -2.933,2.832 -3.547,4.697c-0.614,1.864 -0.564,3.376 0.15,4.535c0.714,1.159 1.986,1.784 3.816,1.874c1.829,0.09 3.563,-0.367 5.202,-1.37c1.638,-1.003 2.797,-2.424 3.477,-4.262c0.679,-1.838 0.789,-3.619 0.329,-5.344c-0.46,-1.725 -1.557,-2.739 -3.29,-3.042c-1.734,-0.303 -3.543,0.234 -5.428,1.61c-1.885,1.377 -3.236,3.154 -4.054,5.333c-0.818,2.178 -0.729,4.046 0.266,5.603c0.995,1.557 2.598,2.402 4.809,2.536c2.211,0.134 4.067,-0.384 5.567,-1.555c1.501,-1.171 2.364,-2.709 2.591,-4.615c0.227,-1.906 -0.125,-3.586 -1.054,-5.04c-0.929,-1.454 -2.254,-2.222 -3.975,-2.306c-1.721,-0.083 -3.458,0.607 -5.212,2.07c-1.754,1.463 -2.988,3.284 -3.702,5.462c-0.714,2.178 -0.615,4.055 0.296,5.632c0.912,1.577 2.425,2.419 4.541,2.527c2.116,0.108 3.948,-0.512 5.495,-1.861c1.548,-1.348 2.445,-3.081 2.694,-5.199c0.248,-2.118 -0.14,-4.04 -1.163,-5.767c-1.023,-1.727 -2.487,-2.696 -4.39,-2.908c-1.903,-0.211 -3.693,0.375 -5.369,1.759c-1.676,1.384 -2.797,3.104 -3.365,5.159c-0.568,2.056 -0.48,3.927 0.263,5.613c0.743,1.686 2.01,2.757 3.803,3.213c1.793,0.456 3.415,0.203 4.869,-0.757c1.454,-0.96 2.378,-2.541 2.773,-4.744c0.395,-2.203 0.17,-4.264 -0.675,-6.183c-0.845,-1.919 -2.011,-2.895 -3.497,-2.926c-1.486,-0.031 -2.765,0.763 -3.838,2.383c-1.072,1.62 -1.665,3.327 -1.78,5.121c-0.115,1.794 0.294,3.118 1.227,3.971c0.933,0.853 2.11,1.157 3.532,0.912c1.422,-0.245 2.68,-0.976 3.773,-2.191c1.093,-1.216 1.82,-2.544 2.182,-3.985c0.361,-1.441 0.255,-2.519 -0.319,-3.232c-0.574,-0.714 -1.574,-0.855 -2.999,-0.424c-1.425,0.431 -2.573,1.232 -3.443,2.403c-0.87,1.171 -1.331,2.298 -1.381,3.382c-0.05,1.084 0.335,1.857 1.157,2.318c0.822,0.461 1.693,0.603 2.613,0.426c0.92,-0.177 1.569,-0.779 1.946,-1.805c0.377,-1.027 0.465,-2.004 0.266,-2.933c-0.2,-0.929 -0.784,-1.469 -1.753,-1.621c-0.969,-0.152 -1.844,0.208 -2.623,1.08c-0.78,0.872 -1.208,1.878 -1.284,3.018c-0.076,1.14 0.198,1.992 0.821,2.555c0.624,0.563 1.29,0.768 1.998,0.613c0.708,-0.154 1.186,-0.712 1.436,-1.673c0.25,-0.961 0.33,-1.791 0.24,-2.49c-0.09,-0.699 -0.276,-1.09 -0.558,-1.172c-0.282,-0.082 -0.463,0.125 -0.543,0.622c-0.08,0.497 -0.048,0.978 0.095,1.445c0.143,0.466 0.35,0.775 0.623,0.927c0.272,0.152 0.53,0.22 0.776,0.205c0.245,-0.016 0.441,-0.102 0.587,-0.26c0.218,-0.235 0.445,-0.483 0.678,-0.745" style="fill:none;fill-rule:nonzero;stroke:#348ad8;stroke-width:3.54px;"/><g transform="matrix(1,0,0,1,-5.807452,-9.538821)"><g transform="matrix(14.79881,0,0,1,-916.363358,0)"><text x="66.409px" y="54.92px" style="font-family:'Helvetica';font-size:22.212px;fill:none;">-</text></g><g transform="matrix(3.500935,0,0,1,-112.299251,0)"><g transform="matrix(23.98798,0,0,23.98798,51.567539,85.533223)"></g><text x="44.903px" y="85.533px" style="font-family:'Helvetica';font-size:23.988px;fill:none;">·</text></g></g><g transform="matrix(1,0,0,0.291672,0,8.801402)"><g transform="matrix(73.802971,0,0,73.802971,724.191079,222.813637)"></g><text x="703.686px" y="222.814px" style="font-family:'Helvetica';font-size:73.803px;fill:none;">·</text></g><g transform="matrix(1,0,0,0.154705,0,10.808488)"><g transform="matrix(146.840165,0,0,146.840165,563.668787,415.697816)"></g><text x="337.478px" y="415.698px" style="font-family:'Helvetica';font-size:146.84px;fill:none;">=<tspan x="477.916px " y="415.698px ">+</tspan></text></g><g transform="matrix(1,0,0,1,22.993667,13.390058)"><g transform="matrix(1.181913,0,0,1,-39.189951,0)"><text x="215.432px" y="62.683px" style="font-family:'AppleSDGothicNeo-Regular', 'Apple SD Gothic Neo';font-size:21.708px;fill:none;">⑧</text></g><g transform="matrix(10.49023,0,0,1,-512.453419,0)"><g transform="matrix(20.504502,0,0,20.504502,67.674343,94.104542)"></g><text x="53.998px" y="94.105px" style="font-family:'Helvetica';font-size:20.505px;fill:none;">&amp;</text></g></g></svg>