<?xml version="1.0" encoding="UTF-8" standalone="no"?><!DOCTYPE svg PUBLIC "-//W3C//DTD SVG 1.1//EN" "http://www.w3.org/Graphics/SVG/1.1/DTD/svg11.dtd"><svg width="100%" height="100%" viewBox="0 0 229 139" version="1.1" xmlns="http://www.w3.org/2000/svg" xmlns:xlink="http://www.w3.org/1999/xlink" xml:space="preserve" xmlns:serif="http://www.serif.com/" style="fill-rule:evenodd;clip-rule:evenodd;stroke-linecap:round;stroke-linejoin:round;stroke-miterlimit:10;"><rect id="Artboard4" x="0" y="0" width="228.48" height="138.48" style="fill:none;"/><g id="Artboard41" serif:id="Artboard4"><rect x="0" y="0" width="228.48" height="138.48" style="fill:#fff;"/><path d="M15.723,15.032c-0.098,0.02 -0.088,0.13 0.029,0.328c0.118,0.199 0.288,0.431 0.512,0.698c0.224,0.267 0.46,0.555 0.707,0.865c0.248,0.31 0.491,0.604 0.73,0.881c0.239,0.277 0.458,0.52 0.656,0.729c0.198,0.209 0.382,0.391 0.551,0.546c0.169,0.155 0.334,0.302 0.496,0.44c0.162,0.139 0.339,0.284 0.53,0.436c0.191,0.152 0.401,0.316 0.631,0.49c0.23,0.174 0.448,0.349 0.653,0.524c0.206,0.175 0.394,0.337 0.565,0.484c0.171,0.147 0.337,0.292 0.497,0.435c0.16,0.143 0.317,0.295 0.471,0.454c0.153,0.16 0.306,0.32 0.456,0.481c0.151,0.161 0.313,0.305 0.487,0.433c0.174,0.128 0.352,0.251 0.534,0.37c0.182,0.119 0.355,0.249 0.519,0.392c0.164,0.142 0.322,0.29 0.476,0.444c0.153,0.153 0.304,0.293 0.452,0.418c0.149,0.125 0.297,0.249 0.445,0.373c0.148,0.123 0.295,0.264 0.441,0.42c0.146,0.157 0.288,0.315 0.427,0.476c0.139,0.161 0.281,0.305 0.427,0.433c0.146,0.128 0.288,0.251 0.427,0.37c0.139,0.119 0.277,0.256 0.416,0.413c0.138,0.156 0.277,0.338 0.416,0.545c0.139,0.207 0.28,0.414 0.426,0.618c0.145,0.205 0.297,0.386 0.455,0.544c0.158,0.158 0.313,0.296 0.467,0.414c0.154,0.118 0.29,0.228 0.407,0.33c0.118,0.102 0.236,0.221 0.354,0.358c0.118,0.137 0.254,0.285 0.406,0.446c0.152,0.16 0.312,0.318 0.479,0.474c0.167,0.156 0.343,0.316 0.527,0.48c0.184,0.165 0.378,0.346 0.581,0.544c0.203,0.198 0.419,0.42 0.646,0.666c0.227,0.246 0.487,0.527 0.778,0.842c0.291,0.316 0.603,0.641 0.936,0.974c0.333,0.334 0.649,0.633 0.95,0.899c0.301,0.265 0.579,0.52 0.836,0.765c0.257,0.245 0.505,0.514 0.746,0.806c0.24,0.292 0.494,0.592 0.76,0.902c0.266,0.309 0.539,0.596 0.819,0.86c0.279,0.264 0.546,0.517 0.801,0.758c0.255,0.241 0.471,0.462 0.648,0.663c0.177,0.201 0.35,0.398 0.517,0.593c0.167,0.194 0.365,0.393 0.593,0.597c0.228,0.204 0.458,0.403 0.687,0.598c0.23,0.195 0.44,0.388 0.631,0.58c0.191,0.192 0.368,0.383 0.532,0.573c0.164,0.19 0.327,0.379 0.489,0.566c0.162,0.187 0.334,0.373 0.516,0.558c0.182,0.185 0.361,0.368 0.536,0.548c0.175,0.18 0.342,0.355 0.501,0.525c0.159,0.17 0.319,0.351 0.481,0.542c0.162,0.191 0.335,0.392 0.519,0.603c0.184,0.211 0.391,0.432 0.619,0.661c0.229,0.23 0.474,0.47 0.735,0.719c0.261,0.25 0.537,0.507 0.826,0.772c0.29,0.265 0.553,0.525 0.79,0.78c0.237,0.255 0.463,0.501 0.678,0.735c0.214,0.235 0.431,0.457 0.649,0.666c0.218,0.209 0.446,0.427 0.684,0.652c0.238,0.225 0.481,0.474 0.732,0.746c0.25,0.272 0.483,0.554 0.699,0.844c0.216,0.29 0.422,0.558 0.619,0.805c0.197,0.247 0.399,0.488 0.608,0.724c0.209,0.236 0.422,0.479 0.641,0.729c0.219,0.25 0.426,0.484 0.621,0.702c0.196,0.218 0.376,0.406 0.54,0.564c0.164,0.158 0.324,0.308 0.479,0.451c0.156,0.143 0.308,0.284 0.456,0.423c0.149,0.139 0.289,0.267 0.421,0.385c0.132,0.117 0.255,0.229 0.37,0.333c0.115,0.105 0.227,0.205 0.336,0.3c0.109,0.095 0.216,0.197 0.321,0.306c0.105,0.109 0.224,0.229 0.359,0.362c0.135,0.133 0.28,0.28 0.435,0.442c0.155,0.162 0.315,0.322 0.48,0.48c0.165,0.158 0.343,0.331 0.534,0.519c0.191,0.188 0.393,0.394 0.606,0.619c0.213,0.225 0.424,0.461 0.634,0.708c0.21,0.247 0.412,0.496 0.607,0.747c0.195,0.251 0.361,0.461 0.498,0.631c0.137,0.17 0.227,0.276 0.272,0.32c0.062,0.06 0.05,-0.016 -0.038,-0.229" style="fill:none;fill-rule:nonzero;stroke:#000;stroke-width:0.85px;"/><path d="M32.515,30.477c0.013,0.07 0.004,0.149 -0.026,0.238c-0.02,0.059 -0.04,0.088 -0.059,0.088c-0.019,0 -0.046,0 -0.079,0l-0.278,0c-0.044,0 -0.067,-0.019 -0.071,-0.058c-0.003,-0.039 0.034,-0.131 0.111,-0.277c0.077,-0.146 0.266,-0.377 0.566,-0.693c0.3,-0.316 0.733,-0.753 1.299,-1.31c0.567,-0.558 1.157,-1.14 1.772,-1.747c0.615,-0.607 1.171,-1.158 1.669,-1.653c0.498,-0.495 0.952,-0.966 1.362,-1.414c0.411,-0.448 0.81,-0.878 1.197,-1.291c0.387,-0.413 0.764,-0.785 1.132,-1.116c0.368,-0.331 0.734,-0.651 1.098,-0.959c0.365,-0.308 0.719,-0.641 1.063,-0.999c0.344,-0.358 0.657,-0.702 0.94,-1.03c0.282,-0.328 0.521,-0.589 0.716,-0.782c0.195,-0.193 0.369,-0.348 0.523,-0.465c0.154,-0.117 0.327,-0.275 0.519,-0.472c0.192,-0.197 0.401,-0.438 0.627,-0.723c0.226,-0.285 0.433,-0.547 0.623,-0.786c0.189,-0.239 0.308,-0.39 0.356,-0.451c0.066,-0.085 0.021,-0.136 -0.135,-0.152" style="fill:none;fill-rule:nonzero;stroke:#000;stroke-width:0.85px;"/><path d="M47.906,46.399c0.009,0.056 0.039,0.124 0.089,0.205c0.033,0.053 0.062,0.072 0.088,0.059c0.026,-0.013 0.081,-0.07 0.166,-0.171c0.085,-0.101 0.205,-0.234 0.361,-0.4c0.155,-0.166 0.357,-0.381 0.606,-0.646c0.249,-0.265 0.557,-0.596 0.924,-0.993c0.368,-0.397 0.767,-0.808 1.199,-1.234c0.432,-0.426 0.853,-0.826 1.265,-1.199c0.412,-0.373 0.82,-0.759 1.227,-1.156c0.406,-0.397 0.798,-0.79 1.176,-1.177c0.378,-0.388 0.735,-0.746 1.069,-1.074c0.335,-0.328 0.657,-0.633 0.965,-0.913c0.309,-0.28 0.632,-0.581 0.971,-0.901c0.339,-0.32 0.688,-0.681 1.048,-1.082c0.36,-0.401 0.707,-0.803 1.041,-1.205c0.334,-0.402 0.661,-0.779 0.982,-1.131c0.321,-0.352 0.647,-0.683 0.977,-0.993c0.33,-0.31 0.664,-0.604 1.002,-0.882c0.338,-0.278 0.674,-0.56 1.01,-0.846c0.335,-0.286 0.671,-0.582 1.006,-0.888c0.335,-0.306 0.668,-0.618 0.999,-0.936c0.331,-0.318 0.668,-0.642 1.013,-0.972c0.345,-0.33 0.694,-0.665 1.049,-1.005c0.355,-0.34 0.701,-0.676 1.04,-1.007c0.338,-0.331 0.677,-0.665 1.014,-1.003c0.338,-0.337 0.676,-0.682 1.013,-1.034c0.338,-0.352 0.672,-0.691 1.004,-1.016c0.332,-0.326 0.633,-0.606 0.905,-0.843c0.272,-0.236 0.535,-0.461 0.79,-0.675c0.255,-0.213 0.523,-0.456 0.804,-0.728c0.281,-0.272 0.573,-0.559 0.876,-0.861c0.303,-0.302 0.582,-0.565 0.835,-0.79c0.253,-0.225 0.476,-0.405 0.67,-0.542c0.194,-0.136 0.387,-0.272 0.581,-0.407c0.194,-0.135 0.397,-0.302 0.611,-0.501c0.213,-0.199 0.425,-0.417 0.635,-0.655c0.21,-0.238 0.406,-0.461 0.589,-0.669c0.183,-0.208 0.367,-0.406 0.551,-0.593c0.184,-0.187 0.394,-0.394 0.63,-0.621c0.236,-0.227 0.454,-0.436 0.655,-0.626c0.201,-0.191 0.324,-0.308 0.371,-0.352c0.064,-0.06 0.033,-0.046 -0.093,0.042" style="fill:none;fill-rule:nonzero;stroke:#000;stroke-width:0.85px;"/><path d="M110.767,37.913c0.082,0 0.164,-0 0.245,-0c0.054,0 0.08,-0.015 0.076,-0.045c-0.004,-0.03 -0.039,-0.076 -0.104,-0.139c-0.065,-0.063 -0.168,-0.115 -0.308,-0.158c-0.14,-0.043 -0.326,-0.063 -0.556,-0.059c-0.231,0.003 -0.465,0.064 -0.704,0.182c-0.239,0.118 -0.442,0.305 -0.608,0.561c-0.167,0.255 -0.265,0.55 -0.294,0.884c-0.029,0.334 0.047,0.634 0.23,0.901c0.182,0.267 0.431,0.438 0.745,0.513c0.314,0.075 0.595,0.037 0.843,-0.113c0.247,-0.15 0.404,-0.408 0.468,-0.775c0.065,-0.366 0.064,-0.739 -0.004,-1.118c-0.067,-0.379 -0.135,-0.632 -0.202,-0.76c-0.094,-0.179 0.126,-0.239 0.66,-0.182" style="fill:none;fill-rule:nonzero;stroke:#000;stroke-width:0.85px;"/><path d="M114.289,38.175c-0.05,0.111 0.008,0.268 0.176,0.472c0.168,0.204 0.324,0.458 0.468,0.762c0.145,0.304 0.262,0.605 0.351,0.902c0.089,0.297 0.16,0.513 0.212,0.649c0.052,0.136 0.08,0.197 0.083,0.184c0.003,-0.013 0.011,-0.047 0.024,-0.1c0.013,-0.053 -0.003,-0.257 -0.049,-0.61c-0.045,-0.353 -0.116,-0.71 -0.211,-1.071c-0.095,-0.361 -0.163,-0.651 -0.204,-0.87c-0.041,-0.219 -0.001,-0.373 0.118,-0.462c0.12,-0.089 0.376,-0.155 0.769,-0.197c0.393,-0.042 0.816,-0.072 1.271,-0.09c0.707,-0.028 1.265,-0.078 1.674,-0.151" style="fill:none;fill-rule:nonzero;stroke:#000;stroke-width:0.85px;"/><path d="M143.95,14.813l0,0.347c0,0.121 0.009,0.221 0.027,0.3c0.018,0.079 0.087,0.154 0.206,0.227c0.12,0.072 0.291,0.181 0.513,0.325c0.222,0.145 0.493,0.365 0.814,0.66c0.32,0.295 0.656,0.617 1.008,0.966c0.352,0.348 0.689,0.661 1.012,0.938c0.322,0.277 0.618,0.554 0.888,0.83c0.27,0.276 0.505,0.545 0.706,0.806c0.201,0.261 0.398,0.51 0.59,0.747c0.192,0.237 0.372,0.446 0.541,0.628c0.169,0.182 0.336,0.356 0.501,0.521c0.165,0.165 0.329,0.331 0.492,0.499c0.163,0.167 0.332,0.35 0.506,0.548c0.174,0.198 0.351,0.398 0.531,0.601c0.18,0.202 0.354,0.393 0.522,0.571c0.168,0.178 0.323,0.335 0.465,0.471c0.142,0.136 0.269,0.258 0.382,0.368c0.113,0.109 0.228,0.232 0.347,0.367c0.119,0.135 0.239,0.286 0.36,0.453c0.121,0.167 0.258,0.333 0.41,0.499c0.152,0.166 0.31,0.317 0.476,0.455c0.165,0.138 0.32,0.256 0.465,0.354c0.144,0.098 0.276,0.196 0.396,0.293c0.12,0.097 0.246,0.206 0.379,0.327c0.133,0.121 0.285,0.243 0.456,0.367c0.171,0.124 0.351,0.243 0.541,0.358c0.189,0.115 0.368,0.221 0.537,0.319c0.169,0.098 0.33,0.192 0.484,0.282c0.154,0.09 0.298,0.181 0.432,0.273c0.134,0.092 0.275,0.196 0.423,0.311c0.147,0.115 0.298,0.246 0.451,0.391c0.153,0.145 0.309,0.292 0.466,0.44c0.158,0.148 0.314,0.296 0.47,0.445c0.156,0.148 0.311,0.303 0.467,0.462c0.155,0.16 0.309,0.328 0.46,0.505c0.151,0.177 0.307,0.361 0.466,0.552c0.16,0.191 0.333,0.388 0.519,0.589c0.186,0.201 0.381,0.409 0.585,0.622c0.204,0.213 0.402,0.423 0.595,0.628c0.193,0.205 0.369,0.391 0.528,0.557c0.159,0.166 0.313,0.331 0.461,0.494c0.148,0.163 0.3,0.335 0.455,0.516c0.155,0.181 0.323,0.374 0.504,0.577c0.181,0.203 0.38,0.415 0.598,0.636c0.218,0.221 0.438,0.441 0.662,0.659c0.224,0.219 0.433,0.427 0.626,0.625c0.194,0.198 0.366,0.378 0.518,0.54c0.152,0.162 0.305,0.324 0.46,0.489c0.155,0.164 0.338,0.365 0.549,0.603c0.211,0.237 0.45,0.5 0.716,0.789c0.266,0.288 0.523,0.569 0.77,0.843c0.247,0.273 0.466,0.524 0.658,0.752c0.192,0.228 0.369,0.431 0.532,0.61c0.163,0.179 0.326,0.338 0.489,0.475c0.163,0.137 0.335,0.277 0.516,0.42c0.182,0.143 0.358,0.291 0.529,0.443c0.171,0.153 0.34,0.311 0.508,0.476c0.168,0.165 0.333,0.329 0.496,0.492c0.163,0.163 0.334,0.335 0.513,0.516c0.179,0.181 0.397,0.404 0.657,0.671c0.259,0.267 0.515,0.538 0.767,0.813c0.252,0.276 0.487,0.532 0.704,0.769c0.217,0.237 0.415,0.446 0.594,0.625c0.179,0.18 0.355,0.352 0.53,0.517c0.174,0.165 0.356,0.342 0.546,0.531c0.189,0.189 0.377,0.378 0.564,0.568c0.187,0.19 0.398,0.393 0.634,0.61c0.236,0.217 0.517,0.486 0.845,0.807c0.327,0.321 0.642,0.651 0.943,0.991c0.302,0.339 0.581,0.662 0.837,0.969c0.256,0.307 0.499,0.604 0.728,0.892c0.229,0.288 0.466,0.57 0.71,0.847c0.244,0.277 0.499,0.557 0.764,0.839c0.265,0.282 0.51,0.54 0.735,0.773c0.225,0.233 0.434,0.449 0.627,0.65c0.193,0.2 0.389,0.396 0.587,0.588c0.198,0.192 0.418,0.395 0.66,0.611c0.242,0.216 0.474,0.423 0.697,0.62c0.222,0.198 0.429,0.387 0.619,0.567c0.191,0.18 0.39,0.36 0.598,0.54c0.208,0.18 0.409,0.357 0.605,0.532c0.196,0.175 0.382,0.348 0.56,0.518c0.178,0.17 0.344,0.336 0.498,0.497c0.154,0.161 0.287,0.297 0.398,0.409c0.111,0.112 0.205,0.203 0.281,0.275c0.076,0.071 0.16,0.148 0.251,0.23c0.091,0.082 0.188,0.166 0.29,0.255c0.102,0.088 0.175,0.15 0.218,0.185c0.043,0.035 0.027,0.014 -0.048,-0.063c-0.109,-0.112 -0.273,-0.319 -0.492,-0.623" style="fill:none;fill-rule:nonzero;stroke:#000;stroke-width:0.85px;"/><path d="M175.403,46.265c-0.066,-0.008 -0.151,0.041 -0.256,0.147c-0.069,0.069 -0.104,0.15 -0.105,0.241c-0.001,0.091 0.019,0.177 0.061,0.259c0.042,0.081 0.101,0.137 0.178,0.166c0.077,0.029 0.163,0.028 0.257,-0.003c0.094,-0.031 0.207,-0.121 0.339,-0.27c0.132,-0.149 0.298,-0.338 0.5,-0.566c0.201,-0.228 0.453,-0.512 0.755,-0.852c0.302,-0.34 0.667,-0.738 1.096,-1.194c0.429,-0.456 0.869,-0.922 1.322,-1.399c0.453,-0.477 0.883,-0.916 1.291,-1.319c0.408,-0.402 0.794,-0.774 1.16,-1.115c0.365,-0.341 0.729,-0.679 1.092,-1.015c0.362,-0.336 0.702,-0.654 1.018,-0.955c0.316,-0.301 0.606,-0.586 0.869,-0.856c0.263,-0.27 0.539,-0.56 0.827,-0.869c0.288,-0.309 0.594,-0.623 0.919,-0.942c0.325,-0.319 0.637,-0.616 0.938,-0.89c0.301,-0.274 0.587,-0.54 0.86,-0.797c0.273,-0.257 0.557,-0.536 0.852,-0.835c0.295,-0.3 0.597,-0.607 0.906,-0.921c0.309,-0.314 0.587,-0.592 0.833,-0.833c0.246,-0.241 0.478,-0.462 0.696,-0.662c0.218,-0.2 0.449,-0.41 0.692,-0.63c0.243,-0.22 0.485,-0.458 0.728,-0.715c0.243,-0.257 0.489,-0.514 0.739,-0.772c0.25,-0.258 0.522,-0.514 0.816,-0.769c0.294,-0.255 0.611,-0.523 0.95,-0.804c0.339,-0.281 0.677,-0.581 1.013,-0.9c0.336,-0.319 0.671,-0.664 1.006,-1.034c0.335,-0.37 0.677,-0.737 1.027,-1.1c0.35,-0.364 0.698,-0.696 1.046,-0.997c0.348,-0.301 0.68,-0.573 0.998,-0.816c0.318,-0.243 0.61,-0.483 0.876,-0.72c0.266,-0.237 0.534,-0.487 0.803,-0.749c0.27,-0.262 0.532,-0.519 0.788,-0.773c0.256,-0.254 0.491,-0.484 0.704,-0.69c0.214,-0.206 0.412,-0.405 0.594,-0.596c0.182,-0.191 0.382,-0.42 0.599,-0.687c0.217,-0.267 0.452,-0.555 0.704,-0.866c0.252,-0.311 0.498,-0.594 0.737,-0.85c0.239,-0.256 0.44,-0.458 0.601,-0.605c0.161,-0.147 0.29,-0.259 0.387,-0.334c0.097,-0.075 0.176,-0.136 0.238,-0.182c0.085,-0.064 0.048,-0.066 -0.109,-0.006" style="fill:none;fill-rule:nonzero;stroke:#000;stroke-width:0.85px;"/><path d="M175.468,15.629c-0.104,-0.053 -0.127,-0.044 -0.068,0.025c0.043,0.051 0.151,0.178 0.323,0.382c0.172,0.204 0.438,0.44 0.798,0.71c0.36,0.27 0.749,0.578 1.167,0.926c0.418,0.347 0.786,0.691 1.104,1.031c0.318,0.34 0.612,0.632 0.882,0.876c0.27,0.245 0.553,0.445 0.848,0.6c0.296,0.156 0.577,0.318 0.844,0.486c0.267,0.168 0.493,0.36 0.679,0.575c0.186,0.215 0.343,0.431 0.473,0.65c0.13,0.218 0.265,0.408 0.405,0.57c0.14,0.162 0.293,0.301 0.457,0.416c0.164,0.115 0.327,0.238 0.488,0.368c0.161,0.13 0.312,0.275 0.454,0.434c0.142,0.16 0.289,0.33 0.441,0.512c0.152,0.182 0.322,0.359 0.511,0.532c0.188,0.173 0.375,0.333 0.561,0.48c0.185,0.147 0.359,0.286 0.52,0.418c0.161,0.132 0.322,0.264 0.482,0.397c0.16,0.133 0.327,0.279 0.502,0.439c0.174,0.16 0.363,0.331 0.566,0.515c0.203,0.184 0.407,0.369 0.612,0.557c0.205,0.187 0.392,0.358 0.561,0.513c0.169,0.154 0.328,0.305 0.477,0.45c0.149,0.146 0.291,0.301 0.428,0.465c0.137,0.164 0.266,0.326 0.388,0.485c0.122,0.159 0.23,0.285 0.324,0.378c0.094,0.093 0.181,0.151 0.261,0.175c0.08,0.024 0.144,0.041 0.19,0.05l0.035,0.007l-0.105,-0.021" style="fill:none;fill-rule:nonzero;stroke:#000;stroke-width:0.85px;"/><path d="M16.752,110.387c0.017,-0.072 0.028,-0.147 0.035,-0.224c0.006,-0.077 0,-0.133 -0.018,-0.17c-0.018,-0.036 -0.064,-0.072 -0.138,-0.106c-0.074,-0.034 -0.156,-0.067 -0.245,-0.099c-0.089,-0.032 -0.184,-0.057 -0.283,-0.074c-0.099,-0.018 -0.209,-0.017 -0.33,0.003c-0.12,0.02 -0.236,0.125 -0.347,0.317c-0.111,0.192 -0.184,0.436 -0.218,0.733c-0.035,0.297 -0.029,0.573 0.016,0.829c0.045,0.256 0.143,0.438 0.293,0.546c0.15,0.108 0.311,0.163 0.48,0.166c0.17,0.003 0.334,-0.06 0.493,-0.187c0.159,-0.128 0.29,-0.317 0.392,-0.569c0.102,-0.252 0.174,-0.523 0.215,-0.815c0.041,-0.291 0.061,-0.551 0.06,-0.778c-0.001,-0.227 -0.042,-0.391 -0.123,-0.49c-0.081,-0.1 -0.203,-0.119 -0.367,-0.059c-0.163,0.06 -0.317,0.256 -0.46,0.588c-0.143,0.331 -0.225,0.697 -0.245,1.096c-0.02,0.399 0.087,0.708 0.321,0.926c0.234,0.218 0.543,0.3 0.926,0.244c0.383,-0.056 0.674,-0.2 0.874,-0.432l0.15,-0.174l-0.449,0.522" style="fill:none;fill-rule:nonzero;stroke:#000;stroke-width:1.7px;"/><path d="M16.62,110.081c-0.069,0.041 -0.143,0.077 -0.224,0.107c-0.08,0.03 -0.135,0.045 -0.163,0.046c-0.028,0 -0.044,0 -0.047,0l-0.002,0l0.004,0c0.004,0 0.067,0.006 0.186,0.018c0.12,0.012 0.269,0.052 0.448,0.12c0.179,0.068 0.329,0.138 0.449,0.208c0.121,0.07 0.219,0.157 0.293,0.26c0.075,0.103 0.125,0.221 0.151,0.354c0.026,0.133 0.039,0.263 0.04,0.39c0,0.127 -0.006,0.251 -0.02,0.373c-0.013,0.122 -0.069,0.245 -0.168,0.368c-0.099,0.124 -0.213,0.236 -0.341,0.337c-0.129,0.101 -0.249,0.172 -0.362,0.213c-0.112,0.041 -0.223,0.062 -0.333,0.063c-0.109,0.001 -0.214,-0.026 -0.315,-0.081c-0.1,-0.055 -0.184,-0.128 -0.251,-0.218c-0.067,-0.09 -0.123,-0.173 -0.17,-0.249c-0.047,-0.076 -0.084,-0.157 -0.112,-0.243c-0.028,-0.086 -0.043,-0.198 -0.046,-0.334c-0.003,-0.136 0.007,-0.293 0.03,-0.47c0.023,-0.177 0.058,-0.339 0.107,-0.487c0.048,-0.148 0.096,-0.264 0.142,-0.348c0.046,-0.085 0.107,-0.16 0.183,-0.226c0.076,-0.066 0.186,-0.129 0.328,-0.188c0.142,-0.059 0.301,-0.106 0.475,-0.141c0.174,-0.035 0.327,-0.055 0.459,-0.06c0.132,-0.005 0.262,-0.005 0.391,0.002c0.129,0.006 0.257,0.048 0.386,0.126c0.129,0.077 0.242,0.177 0.338,0.3c0.096,0.123 0.166,0.251 0.21,0.384c0.043,0.133 0.067,0.273 0.07,0.419c0.003,0.146 -0.006,0.272 -0.029,0.378c-0.023,0.106 -0.069,0.191 -0.138,0.253c-0.099,0.089 -0.323,0.138 -0.672,0.147" style="fill:none;fill-rule:nonzero;stroke:#000;stroke-width:1.7px;"/><path d="M48.161,110.207c-0.036,0.016 -0.122,0.029 -0.257,0.039c-0.082,0.006 -0.133,-0.008 -0.153,-0.042c-0.02,-0.034 -0.04,-0.09 -0.059,-0.167c-0.019,-0.077 -0.048,-0.149 -0.086,-0.215c-0.038,-0.066 -0.103,-0.112 -0.195,-0.138c-0.092,-0.026 -0.221,-0.021 -0.386,0.014c-0.165,0.036 -0.338,0.127 -0.519,0.275c-0.18,0.147 -0.335,0.319 -0.464,0.514c-0.129,0.195 -0.225,0.415 -0.288,0.658c-0.063,0.244 -0.1,0.492 -0.111,0.746c-0.011,0.254 0.03,0.465 0.123,0.634c0.094,0.169 0.26,0.28 0.499,0.333c0.239,0.052 0.477,0.08 0.712,0.084c0.235,0.003 0.453,-0.024 0.652,-0.084c0.2,-0.059 0.393,-0.194 0.578,-0.405c0.185,-0.211 0.337,-0.468 0.455,-0.772c0.118,-0.304 0.187,-0.607 0.207,-0.91c0.02,-0.303 -0.019,-0.556 -0.118,-0.76c-0.099,-0.204 -0.233,-0.355 -0.403,-0.453c-0.169,-0.098 -0.341,-0.156 -0.516,-0.173c-0.175,-0.017 -0.348,0.018 -0.518,0.104c-0.17,0.087 -0.336,0.247 -0.497,0.481c-0.161,0.234 -0.298,0.485 -0.413,0.753c-0.114,0.267 -0.189,0.499 -0.223,0.695c-0.035,0.196 -0.034,0.332 0.002,0.409c0.036,0.077 0.126,0.115 0.271,0.112c0.145,-0.002 0.287,-0.04 0.424,-0.114c0.138,-0.073 0.245,-0.143 0.323,-0.21c0.078,-0.066 0.133,-0.129 0.166,-0.187c0.033,-0.058 0.054,-0.109 0.062,-0.151c0.008,-0.042 0.012,-0.066 0.012,-0.072c0,-0.008 0.052,0.015 0.157,0.071" style="fill:none;fill-rule:nonzero;stroke:#000;stroke-width:1.7px;"/><path d="M80.209,110.759l0,-0.614c0,-0.086 -0.006,-0.158 -0.017,-0.214c-0.011,-0.057 -0.036,-0.1 -0.074,-0.131c-0.038,-0.03 -0.086,-0.052 -0.143,-0.064c-0.057,-0.013 -0.172,-0.013 -0.344,0c-0.172,0.013 -0.397,0.1 -0.674,0.261c-0.277,0.161 -0.535,0.389 -0.774,0.684c-0.239,0.295 -0.401,0.6 -0.485,0.914c-0.084,0.314 -0.095,0.585 -0.033,0.813c0.062,0.228 0.215,0.389 0.46,0.484c0.245,0.095 0.505,0.148 0.78,0.16c0.275,0.012 0.524,-0.025 0.748,-0.11c0.224,-0.085 0.403,-0.228 0.538,-0.429c0.135,-0.201 0.219,-0.43 0.251,-0.689c0.032,-0.259 0.027,-0.518 -0.015,-0.776c-0.043,-0.258 -0.111,-0.433 -0.204,-0.524c-0.093,-0.091 -0.191,-0.131 -0.293,-0.121c-0.102,0.01 -0.235,0.084 -0.399,0.222c-0.164,0.138 -0.316,0.314 -0.457,0.529c-0.141,0.215 -0.235,0.418 -0.282,0.61c-0.047,0.191 -0.042,0.331 0.016,0.418c0.058,0.087 0.175,0.123 0.351,0.107c0.176,-0.016 0.318,-0.089 0.429,-0.219c0.11,-0.13 0.179,-0.245 0.206,-0.346c0.027,-0.1 0.016,-0.121 -0.032,-0.064" style="fill:none;fill-rule:nonzero;stroke:#000;stroke-width:1.7px;"/><path d="M143.211,110.605c0.022,0.092 0.038,0.112 0.049,0.061c0.007,-0.038 0.026,-0.131 0.056,-0.281c0.03,-0.15 0.042,-0.272 0.038,-0.365c-0.004,-0.094 -0.036,-0.169 -0.094,-0.227c-0.058,-0.057 -0.141,-0.088 -0.249,-0.092c-0.108,-0.004 -0.234,0.055 -0.379,0.177c-0.145,0.122 -0.287,0.319 -0.427,0.593c-0.14,0.273 -0.237,0.554 -0.291,0.842c-0.055,0.288 -0.046,0.528 0.026,0.719c0.072,0.191 0.228,0.327 0.469,0.406c0.241,0.079 0.501,0.121 0.78,0.125c0.279,0.004 0.532,-0.032 0.758,-0.111c0.226,-0.078 0.404,-0.213 0.535,-0.404c0.13,-0.191 0.224,-0.404 0.282,-0.64c0.058,-0.235 0.094,-0.451 0.107,-0.647c0.013,-0.196 0.017,-0.371 0.011,-0.526c-0.006,-0.154 -0.058,-0.31 -0.156,-0.468c-0.098,-0.157 -0.226,-0.307 -0.386,-0.45c-0.159,-0.142 -0.316,-0.248 -0.47,-0.317c-0.154,-0.069 -0.305,-0.094 -0.453,-0.076c-0.148,0.018 -0.291,0.146 -0.428,0.385c-0.137,0.239 -0.249,0.538 -0.336,0.899c-0.087,0.36 -0.139,0.693 -0.157,0.998c-0.017,0.305 0.028,0.548 0.136,0.731c0.108,0.182 0.269,0.303 0.484,0.363c0.214,0.06 0.399,0.088 0.554,0.085c0.155,-0.003 0.254,-0.055 0.299,-0.155c0.045,-0.1 0.056,-0.22 0.035,-0.359c-0.022,-0.139 -0.067,-0.251 -0.134,-0.336c-0.068,-0.085 -0.12,-0.149 -0.158,-0.191c-0.052,-0.059 0.017,-0.067 0.207,-0.024" style="fill:none;fill-rule:nonzero;stroke:#000;stroke-width:1.7px;"/><path d="M175.759,109.943c0.042,0.024 0.128,0.042 0.257,0.054c0.08,0.008 0.126,-0.021 0.138,-0.086c0.011,-0.065 0.001,-0.146 -0.03,-0.243c-0.032,-0.097 -0.096,-0.182 -0.192,-0.253c-0.096,-0.072 -0.188,-0.124 -0.276,-0.157c-0.088,-0.033 -0.18,-0.049 -0.276,-0.047c-0.096,0.002 -0.22,0.051 -0.371,0.147c-0.151,0.097 -0.315,0.269 -0.493,0.517c-0.178,0.248 -0.306,0.534 -0.383,0.858c-0.078,0.324 -0.08,0.627 -0.006,0.91c0.074,0.282 0.22,0.518 0.438,0.706c0.218,0.188 0.426,0.332 0.621,0.433c0.196,0.1 0.37,0.16 0.522,0.18c0.152,0.02 0.301,0.02 0.446,-0c0.145,-0.02 0.297,-0.105 0.455,-0.255c0.158,-0.15 0.293,-0.349 0.405,-0.596c0.112,-0.247 0.181,-0.522 0.209,-0.825c0.027,-0.303 0.031,-0.579 0.011,-0.828c-0.02,-0.249 -0.089,-0.438 -0.207,-0.566c-0.118,-0.128 -0.249,-0.212 -0.392,-0.251c-0.143,-0.039 -0.293,-0.059 -0.451,-0.06c-0.157,-0.001 -0.312,0.009 -0.463,0.03c-0.151,0.02 -0.279,0.063 -0.383,0.128c-0.104,0.065 -0.19,0.139 -0.259,0.222c-0.069,0.084 -0.135,0.223 -0.199,0.417c-0.064,0.195 -0.101,0.419 -0.113,0.673c-0.012,0.254 0.014,0.484 0.075,0.689c0.062,0.205 0.144,0.357 0.246,0.456c0.102,0.099 0.2,0.15 0.292,0.153c0.093,0.003 0.165,-0.063 0.219,-0.198c0.053,-0.135 0.08,-0.277 0.082,-0.425c0.001,-0.148 -0.023,-0.249 -0.074,-0.304c-0.051,-0.055 -0.105,-0.084 -0.162,-0.087c-0.08,-0.005 -0.017,0.081 0.187,0.256" style="fill:none;fill-rule:nonzero;stroke:#000;stroke-width:1.7px;"/><path d="M209.07,110.431c0.061,-0.061 0.109,-0.137 0.144,-0.228c0.035,-0.091 0.046,-0.166 0.032,-0.225c-0.013,-0.059 -0.07,-0.11 -0.171,-0.151c-0.101,-0.042 -0.233,-0.068 -0.397,-0.079c-0.164,-0.011 -0.34,-0.017 -0.528,-0.017c-0.189,-0 -0.386,0.019 -0.592,0.058c-0.206,0.039 -0.42,0.124 -0.64,0.257c-0.221,0.133 -0.411,0.305 -0.57,0.516c-0.159,0.212 -0.25,0.427 -0.272,0.647c-0.022,0.219 0.028,0.419 0.148,0.597c0.12,0.179 0.27,0.33 0.451,0.454c0.18,0.124 0.353,0.209 0.518,0.256c0.165,0.046 0.342,0.067 0.53,0.062c0.188,-0.005 0.39,-0.085 0.606,-0.238c0.216,-0.153 0.403,-0.378 0.562,-0.673c0.159,-0.295 0.261,-0.597 0.306,-0.904c0.045,-0.307 0.024,-0.562 -0.065,-0.764c-0.088,-0.202 -0.256,-0.33 -0.502,-0.383c-0.246,-0.054 -0.513,-0.041 -0.799,0.038c-0.286,0.079 -0.55,0.242 -0.791,0.49c-0.241,0.248 -0.415,0.523 -0.523,0.826c-0.108,0.303 -0.132,0.578 -0.074,0.824c0.058,0.246 0.222,0.418 0.492,0.514c0.27,0.096 0.512,0.132 0.727,0.106c0.215,-0.025 0.363,-0.122 0.443,-0.289c0.08,-0.168 0.109,-0.331 0.086,-0.489c-0.023,-0.158 -0.076,-0.268 -0.158,-0.329c-0.082,-0.061 -0.143,-0.095 -0.184,-0.102c-0.041,-0.006 -0.05,-0.002 -0.029,0.012c0.031,0.021 0.128,0.086 0.292,0.195" style="fill:none;fill-rule:nonzero;stroke:#000;stroke-width:1.7px;"/><path d="M21.84,24.357c0.006,0.029 -0.017,0.101 -0.068,0.214c-0.031,0.068 -0.047,0.103 -0.05,0.104c-0.003,0.001 0.012,-0.061 0.045,-0.187c0.033,-0.126 0.069,-0.323 0.108,-0.592c0.039,-0.269 0.069,-0.539 0.088,-0.81c0.02,-0.271 0.036,-0.523 0.048,-0.757c0.012,-0.234 0.031,-0.423 0.057,-0.567c0.026,-0.144 0.079,-0.254 0.159,-0.329c0.08,-0.075 0.2,-0.121 0.359,-0.138c0.16,-0.017 0.371,0.014 0.635,0.092c0.264,0.078 0.554,0.193 0.872,0.345c0.479,0.229 0.949,0.4 1.413,0.514" style="fill:none;fill-rule:nonzero;stroke:#000;stroke-width:0.85px;"/><path d="M38.779,20.222c0.028,0.063 0.076,0.13 0.145,0.199c0.068,0.069 0.162,0.112 0.281,0.127c0.119,0.015 0.291,0.018 0.517,0.007c0.226,-0.011 0.492,-0.062 0.797,-0.154c0.305,-0.092 0.56,-0.168 0.765,-0.226c0.204,-0.058 0.35,-0.077 0.436,-0.057c0.086,0.021 0.142,0.133 0.168,0.338c0.026,0.204 0.056,0.441 0.091,0.711c0.054,0.411 0.164,0.731 0.331,0.959" style="fill:none;fill-rule:nonzero;stroke:#000;stroke-width:0.85px;"/><path d="M66.822,25.056c0.032,-0.097 0.219,-0.122 0.559,-0.074c0.34,0.048 0.705,0.068 1.093,0.06c0.388,-0.008 0.7,-0.028 0.936,-0.06c0.236,-0.031 0.385,-0.037 0.446,-0.015c0.061,0.021 0.093,0.121 0.093,0.3c0.001,0.179 0.008,0.385 0.021,0.618c0.013,0.233 0.073,0.45 0.178,0.651c0.159,0.303 0.269,0.599 0.329,0.887" style="fill:none;fill-rule:nonzero;stroke:#000;stroke-width:0.85px;"/><path d="M38.444,41.897c0.012,-0.043 0.008,-0.131 -0.011,-0.264c-0.012,-0.082 -0.022,-0.153 -0.032,-0.212c-0.01,-0.06 -0.015,-0.147 -0.015,-0.261c-0,-0.114 0.003,-0.281 0.009,-0.5c0.007,-0.22 0.038,-0.455 0.095,-0.706c0.057,-0.251 0.119,-0.462 0.187,-0.633c0.068,-0.171 0.145,-0.298 0.231,-0.382c0.086,-0.083 0.208,-0.131 0.366,-0.143c0.157,-0.012 0.347,0.014 0.569,0.079c0.222,0.065 0.452,0.142 0.69,0.232c0.355,0.134 0.721,0.292 1.097,0.473" style="fill:none;fill-rule:nonzero;stroke:#000;stroke-width:0.85px;"/><path d="M54.609,57.537c-0.016,0.049 -0.057,0.099 -0.124,0.149c-0.044,0.033 -0.062,0.006 -0.056,-0.083c0.007,-0.088 0.03,-0.222 0.071,-0.399c0.041,-0.178 0.079,-0.368 0.115,-0.569c0.036,-0.202 0.071,-0.427 0.103,-0.677c0.032,-0.249 0.067,-0.469 0.105,-0.66c0.038,-0.191 0.113,-0.328 0.226,-0.412c0.113,-0.084 0.315,-0.13 0.606,-0.136c0.292,-0.007 0.653,0.007 1.085,0.042c0.432,0.034 0.834,0.085 1.206,0.153c0.372,0.067 0.602,0.114 0.689,0.141c0.123,0.037 0.155,0.122 0.095,0.255" style="fill:none;fill-rule:nonzero;stroke:#000;stroke-width:0.85px;"/><path d="M156.484,30.437c-0,0.08 -0,0.152 0,0.218l0.001,0.019l0.007,-0.114c0.005,-0.107 0.028,-0.31 0.067,-0.608c0.039,-0.299 0.068,-0.593 0.086,-0.884c0.018,-0.291 0.028,-0.56 0.031,-0.809c0.003,-0.249 0.012,-0.441 0.028,-0.576c0.016,-0.135 0.071,-0.237 0.164,-0.304c0.093,-0.068 0.245,-0.107 0.454,-0.119c0.21,-0.011 0.468,-0.001 0.776,0.031c0.308,0.032 0.64,0.076 0.996,0.132c0.546,0.086 0.99,0.208 1.333,0.366" style="fill:none;fill-rule:nonzero;stroke:#000;stroke-width:0.85px;"/><path d="M181.749,24.727c0.067,0.007 0.149,0.013 0.246,0.018c0.063,0.003 0.096,-0.002 0.099,-0.015c0.003,-0.014 0.005,-0.056 0.005,-0.126l0,-0.282c0,-0.117 -0.001,-0.262 -0.003,-0.435c-0.002,-0.173 -0.006,-0.365 -0.011,-0.576c-0.005,-0.211 -0.001,-0.403 0.013,-0.575c0.014,-0.172 0.043,-0.309 0.088,-0.411c0.045,-0.102 0.104,-0.178 0.175,-0.229c0.072,-0.05 0.171,-0.08 0.297,-0.088c0.127,-0.009 0.282,-0 0.467,0.024c0.185,0.025 0.401,0.075 0.65,0.149c0.368,0.11 0.794,0.217 1.278,0.322" style="fill:none;fill-rule:nonzero;stroke:#000;stroke-width:0.85px;"/><path d="M197.892,21.622l-0.593,0l-0,-0l0.278,0l1.803,0c0.366,0 0.732,0.012 1.098,0.034c0.366,0.023 0.68,0.063 0.943,0.12c0.263,0.057 0.441,0.156 0.535,0.298c0.094,0.142 0.144,0.329 0.15,0.56c0.006,0.231 -0.001,0.455 -0.021,0.672l-0.015,0.163l0.046,-0.489" style="fill:none;fill-rule:nonzero;stroke:#000;stroke-width:0.85px;"/><path d="M180.502,38.64c-0.054,0.001 -0.045,-0.008 0.027,-0.026c0.072,-0.018 0.252,-0.063 0.541,-0.135c0.288,-0.072 0.663,-0.148 1.123,-0.228c0.46,-0.08 0.91,-0.143 1.349,-0.189c0.439,-0.046 0.754,-0.063 0.944,-0.05c0.19,0.012 0.294,0.09 0.313,0.233c0.019,0.143 0.025,0.305 0.02,0.485c-0.005,0.18 -0.008,0.321 -0.008,0.422c-0,0.145 0.054,0.225 0.161,0.241" style="fill:none;fill-rule:nonzero;stroke:#000;stroke-width:0.85px;"/><path d="M182.265,58.246c0.039,0.032 0.141,0.028 0.304,-0.012c0.103,-0.025 0.193,-0.115 0.269,-0.269c0.076,-0.154 0.139,-0.337 0.188,-0.549c0.049,-0.212 0.093,-0.461 0.129,-0.747c0.037,-0.286 0.077,-0.578 0.12,-0.877c0.043,-0.298 0.079,-0.528 0.107,-0.689c0.028,-0.161 0.063,-0.255 0.104,-0.281c0.042,-0.026 0.142,0.014 0.299,0.12c0.158,0.105 0.382,0.247 0.674,0.424c0.292,0.177 0.649,0.328 1.073,0.452c0.638,0.187 1.254,0.328 1.848,0.424" style="fill:none;fill-rule:nonzero;stroke:#000;stroke-width:0.85px;"/><path d="M12.486,9c0.044,-0.052 0.094,-0.137 0.148,-0.256c0.055,-0.118 0.079,-0.22 0.074,-0.304c-0.005,-0.084 -0.069,-0.139 -0.19,-0.166c-0.121,-0.027 -0.27,-0.021 -0.447,0.017c-0.177,0.038 -0.353,0.147 -0.528,0.326c-0.175,0.18 -0.332,0.416 -0.47,0.709c-0.138,0.293 -0.226,0.585 -0.262,0.877c-0.036,0.291 0.016,0.51 0.157,0.655c0.141,0.145 0.327,0.219 0.557,0.221c0.23,0.002 0.442,-0.076 0.636,-0.235c0.194,-0.159 0.355,-0.371 0.484,-0.635c0.129,-0.265 0.224,-0.537 0.285,-0.817c0.061,-0.28 0.1,-0.507 0.118,-0.68c0.018,-0.173 0.027,-0.281 0.028,-0.324l0,-0.046l0,0.007l0,0.129c0,0.069 0.024,0.221 0.072,0.455c0.048,0.234 0.118,0.494 0.21,0.78c0.091,0.286 0.207,0.565 0.345,0.839c0.202,0.399 0.584,0.686 1.146,0.859" style="fill:none;fill-rule:nonzero;stroke:#000;stroke-width:0.85px;"/><path d="M43.525,5.61c-0.014,-0.074 -0.039,-0.189 -0.074,-0.344c-0.022,-0.098 -0.022,-0.053 0.002,0.136c0.024,0.189 0.087,0.575 0.191,1.159c0.104,0.584 0.203,1.123 0.298,1.618c0.095,0.495 0.173,0.878 0.233,1.148c0.06,0.27 0.098,0.432 0.114,0.487c0.016,0.055 0.026,0.075 0.028,0.06c0.003,-0.015 0.009,-0.052 0.02,-0.112c0.011,-0.06 0.091,-0.204 0.24,-0.434c0.149,-0.229 0.359,-0.439 0.631,-0.63c0.272,-0.191 0.542,-0.315 0.81,-0.374c0.268,-0.058 0.522,-0.048 0.762,0.031c0.24,0.079 0.412,0.237 0.515,0.473c0.104,0.236 0.117,0.494 0.039,0.773c-0.078,0.279 -0.251,0.518 -0.521,0.717c-0.27,0.199 -0.558,0.339 -0.867,0.421c-0.308,0.082 -0.513,0.126 -0.616,0.132c-0.145,0.009 -0.27,-0.193 -0.375,-0.607" style="fill:none;fill-rule:nonzero;stroke:#000;stroke-width:0.85px;"/><path d="M83.784,7.835c0.023,-0.052 0.014,-0.144 -0.026,-0.277c-0.025,-0.085 -0.08,-0.141 -0.165,-0.169c-0.085,-0.028 -0.223,-0.038 -0.416,-0.03c-0.192,0.008 -0.431,0.087 -0.715,0.236c-0.285,0.149 -0.559,0.363 -0.824,0.641c-0.265,0.278 -0.454,0.59 -0.568,0.936c-0.114,0.346 -0.108,0.672 0.018,0.98c0.126,0.307 0.386,0.519 0.78,0.633c0.394,0.115 0.886,0.147 1.476,0.097c0.872,-0.075 1.672,-0.412 2.398,-1.013" style="fill:none;fill-rule:nonzero;stroke:#000;stroke-width:0.85px;"/><path d="M143.032,8.344c-0.037,-0.065 -0.086,-0.135 -0.146,-0.21c-0.06,-0.075 -0.113,-0.136 -0.159,-0.182c-0.046,-0.046 -0.11,-0.091 -0.193,-0.136c-0.083,-0.044 -0.228,-0.062 -0.437,-0.053c-0.208,0.009 -0.483,0.128 -0.825,0.356c-0.342,0.228 -0.636,0.533 -0.884,0.914c-0.248,0.381 -0.368,0.719 -0.361,1.011c0.007,0.293 0.149,0.483 0.425,0.57c0.276,0.088 0.562,0.099 0.858,0.034c0.296,-0.065 0.551,-0.208 0.766,-0.429c0.215,-0.221 0.395,-0.47 0.54,-0.747c0.146,-0.277 0.268,-0.501 0.368,-0.673c0.1,-0.172 0.19,-0.181 0.27,-0.026c0.08,0.155 0.163,0.394 0.249,0.717c0.086,0.324 0.204,0.624 0.354,0.902c0.15,0.277 0.302,0.411 0.456,0.402" style="fill:none;fill-rule:nonzero;stroke:#000;stroke-width:0.85px;"/><path d="M171.357,5.522c-0.025,-0.102 -0.04,-0.145 -0.046,-0.132c-0.005,0.01 -0.016,0.034 -0.034,0.074c-0.018,0.039 -0.001,0.332 0.052,0.878c0.053,0.546 0.123,1.115 0.21,1.708c0.088,0.593 0.161,1.052 0.221,1.379c0.06,0.327 0.103,0.503 0.13,0.529c0.027,0.026 0.11,-0.079 0.25,-0.314c0.139,-0.236 0.384,-0.496 0.734,-0.781c0.35,-0.285 0.737,-0.48 1.16,-0.587c0.423,-0.107 0.762,-0.07 1.016,0.112c0.254,0.181 0.391,0.469 0.412,0.862c0.021,0.393 -0.095,0.721 -0.347,0.984c-0.252,0.263 -0.602,0.429 -1.051,0.498c-0.449,0.07 -0.843,0.098 -1.181,0.086c-0.464,-0.017 -0.586,-0.211 -0.367,-0.582" style="fill:none;fill-rule:nonzero;stroke:#000;stroke-width:0.85px;"/><path d="M207.714,7.25c0.005,-0.073 -0.174,-0.081 -0.538,-0.023c-0.364,0.058 -0.701,0.213 -1.01,0.465c-0.309,0.252 -0.527,0.535 -0.654,0.847c-0.127,0.313 -0.082,0.591 0.135,0.837c0.217,0.245 0.639,0.4 1.267,0.465c0.628,0.065 1.262,0.097 1.901,0.098l0.48,0.001l-1.439,-0.002" style="fill:none;fill-rule:nonzero;stroke:#000;stroke-width:0.85px;"/><path d="M48.338,62.242c0.072,-0.037 0.14,-0.088 0.202,-0.153c0.063,-0.064 0.096,-0.113 0.099,-0.146c0.003,-0.033 0.005,-0.063 0.005,-0.092l0,-0.108c0,-0.043 -0.001,-0.086 -0.003,-0.128c-0.002,-0.042 -0.021,-0.074 -0.056,-0.096c-0.035,-0.023 -0.096,-0.036 -0.184,-0.039c-0.088,-0.003 -0.208,0.026 -0.362,0.087c-0.154,0.061 -0.303,0.239 -0.448,0.534c-0.145,0.295 -0.234,0.66 -0.265,1.095c-0.031,0.435 0.036,0.795 0.202,1.079c0.166,0.284 0.425,0.409 0.777,0.375c0.352,-0.034 0.693,-0.21 1.023,-0.528c0.329,-0.318 0.579,-0.671 0.748,-1.058c0.169,-0.387 0.271,-0.799 0.307,-1.237c0.036,-0.438 0.027,-0.907 -0.025,-1.408c-0.052,-0.501 -0.105,-1.012 -0.159,-1.533c-0.053,-0.521 -0.081,-0.934 -0.085,-1.24c-0.003,-0.305 -0.005,-0.478 -0.005,-0.52l-0.001,-0.015l-0.016,0.152c-0.012,0.133 -0.019,0.367 -0.022,0.701c-0.003,0.334 -0.002,0.714 0.002,1.14c0.004,0.425 0.028,0.878 0.07,1.357c0.042,0.479 0.094,0.976 0.154,1.492c0.06,0.515 0.133,0.964 0.22,1.345c0.086,0.381 0.194,0.643 0.324,0.786c0.13,0.142 0.252,0.221 0.367,0.236c0.115,0.015 0.195,-0.017 0.241,-0.096" style="fill:none;fill-rule:nonzero;stroke:#000;stroke-width:0.85px;"/><path d="M28.664,44.879c-0.026,0.069 -0.012,0.147 0.041,0.234c0.036,0.058 0.187,0.085 0.455,0.079c0.267,-0.006 0.627,-0.076 1.079,-0.211c0.452,-0.134 0.881,-0.32 1.287,-0.556c0.406,-0.237 0.686,-0.471 0.84,-0.702c0.154,-0.231 0.145,-0.444 -0.026,-0.638c-0.171,-0.194 -0.443,-0.338 -0.815,-0.433c-0.372,-0.094 -0.719,-0.126 -1.042,-0.095c-0.323,0.031 -0.622,0.192 -0.896,0.483c-0.275,0.291 -0.476,0.668 -0.604,1.131c-0.128,0.463 -0.14,0.916 -0.037,1.358c0.104,0.443 0.362,0.789 0.775,1.039c0.413,0.25 0.88,0.384 1.401,0.404c0.786,0.029 1.456,-0.097 2.01,-0.38" style="fill:none;fill-rule:nonzero;stroke:#000;stroke-width:0.85px;"/><path d="M176.609,63.423c0.018,0.035 0.071,-0.017 0.158,-0.157c0.087,-0.14 0.134,-0.277 0.139,-0.412c0.006,-0.135 -0.034,-0.278 -0.121,-0.428c-0.087,-0.151 -0.248,-0.272 -0.484,-0.363c-0.236,-0.091 -0.505,-0.081 -0.809,0.031c-0.304,0.112 -0.538,0.362 -0.703,0.75c-0.165,0.389 -0.225,0.763 -0.18,1.122c0.046,0.359 0.202,0.613 0.47,0.763c0.268,0.15 0.551,0.209 0.848,0.179c0.297,-0.03 0.56,-0.151 0.789,-0.361c0.229,-0.21 0.426,-0.481 0.591,-0.812c0.165,-0.331 0.298,-0.714 0.398,-1.148c0.1,-0.434 0.158,-0.903 0.172,-1.407c0.015,-0.504 0.013,-0.964 -0.005,-1.381c-0.018,-0.417 -0.049,-0.699 -0.093,-0.845c-0.044,-0.146 -0.075,-0.22 -0.093,-0.22c-0.018,-0 -0.032,0.035 -0.041,0.107c-0.009,0.072 -0.027,0.231 -0.053,0.479c-0.026,0.248 -0.05,0.595 -0.073,1.043c-0.023,0.448 -0.02,0.953 0.009,1.517c0.029,0.563 0.116,1.091 0.261,1.583c0.145,0.492 0.276,0.852 0.393,1.078c0.117,0.227 0.185,0.354 0.206,0.384c0.021,0.029 0.022,0.012 0.003,-0.052c-0.028,-0.092 -0.027,-0.261 0.001,-0.507" style="fill:none;fill-rule:nonzero;stroke:#000;stroke-width:0.85px;"/><path d="M191.461,38.399c0.019,-0.075 0.056,-0.168 0.11,-0.281c0.055,-0.113 0.09,-0.216 0.106,-0.311c0.016,-0.095 0.007,-0.18 -0.026,-0.257c-0.034,-0.077 -0.149,-0.118 -0.347,-0.123c-0.198,-0.006 -0.439,0.074 -0.724,0.238c-0.285,0.164 -0.569,0.436 -0.852,0.816c-0.283,0.379 -0.498,0.857 -0.642,1.432c-0.145,0.576 -0.217,1.229 -0.217,1.96c0,0.731 0.061,1.393 0.184,1.988c0.123,0.594 0.235,1.031 0.337,1.311c0.102,0.28 0.162,0.445 0.179,0.497c0.025,0.073 -0.265,-0.021 -0.87,-0.282" style="fill:none;fill-rule:nonzero;stroke:#000;stroke-width:0.85px;"/><path d="M186.736,42.227c0.04,-0.062 0.17,-0.135 0.389,-0.221c0.219,-0.086 0.528,-0.149 0.926,-0.189c0.597,-0.061 1.2,-0.102 1.809,-0.123" style="fill:none;fill-rule:nonzero;stroke:#000;stroke-width:0.85px;"/><path d="M15.964,103.171c-0.051,-0.038 -0.096,-0.135 -0.135,-0.292c-0.039,-0.157 -0.082,-0.292 -0.13,-0.407c-0.048,-0.115 -0.124,-0.204 -0.228,-0.266c-0.104,-0.063 -0.25,-0.084 -0.436,-0.065c-0.186,0.02 -0.387,0.162 -0.602,0.427c-0.215,0.265 -0.369,0.591 -0.462,0.978c-0.093,0.387 -0.067,0.726 0.077,1.017c0.145,0.291 0.395,0.461 0.75,0.508c0.355,0.048 0.69,-0.022 1.005,-0.211c0.315,-0.188 0.547,-0.44 0.694,-0.756c0.148,-0.315 0.229,-0.63 0.245,-0.943c0.016,-0.313 -0.005,-0.543 -0.06,-0.689c-0.056,-0.146 -0.106,-0.223 -0.152,-0.232c-0.045,-0.009 -0.07,0.068 -0.074,0.23c-0.004,0.162 0.035,0.385 0.115,0.67c0.118,0.418 0.394,0.872 0.829,1.365" style="fill:none;fill-rule:nonzero;stroke:#000;stroke-width:0.85px;"/><path d="M43.854,100.962c-0.021,-0.013 0.05,0.188 0.212,0.604c0.162,0.416 0.319,0.841 0.471,1.274c0.151,0.433 0.273,0.797 0.366,1.091c0.093,0.294 0.149,0.48 0.168,0.557c0.019,0.078 0.031,0.109 0.034,0.095c0.003,-0.014 0.011,-0.05 0.023,-0.107c0.012,-0.057 0.096,-0.215 0.25,-0.473c0.154,-0.258 0.356,-0.48 0.604,-0.664c0.249,-0.185 0.487,-0.292 0.714,-0.323c0.228,-0.03 0.424,0.057 0.59,0.261c0.166,0.204 0.284,0.467 0.356,0.786c0.072,0.32 0.09,0.604 0.056,0.854c-0.034,0.249 -0.167,0.436 -0.397,0.56c-0.231,0.124 -0.538,0.2 -0.923,0.23c-0.575,0.044 -1.006,-0.076 -1.295,-0.361" style="fill:none;fill-rule:nonzero;stroke:#000;stroke-width:0.85px;"/><path d="M79.485,102.138c-0.026,0.009 -0.117,0.007 -0.273,-0.005c-0.09,-0.007 -0.158,-0.021 -0.204,-0.043c-0.046,-0.022 -0.138,-0.023 -0.274,-0.004c-0.136,0.019 -0.336,0.152 -0.599,0.399c-0.263,0.247 -0.537,0.601 -0.824,1.063c-0.287,0.462 -0.455,0.879 -0.505,1.253c-0.05,0.374 0.119,0.627 0.507,0.76c0.563,0.193 1.46,0.169 2.691,-0.07" style="fill:none;fill-rule:nonzero;stroke:#000;stroke-width:0.85px;"/><path d="M142.638,101.137c-0.023,-0.067 -0.061,-0.147 -0.113,-0.24c-0.052,-0.093 -0.112,-0.161 -0.179,-0.203c-0.066,-0.042 -0.178,-0.07 -0.334,-0.083c-0.156,-0.013 -0.373,0.024 -0.651,0.11c-0.278,0.086 -0.562,0.268 -0.853,0.546c-0.291,0.278 -0.501,0.592 -0.63,0.942c-0.129,0.35 -0.133,0.637 -0.013,0.862c0.121,0.225 0.355,0.367 0.702,0.426c0.347,0.059 0.676,0.069 0.985,0.029c0.31,-0.04 0.55,-0.165 0.721,-0.375c0.171,-0.21 0.274,-0.465 0.31,-0.765c0.036,-0.3 0.041,-0.563 0.017,-0.791c-0.024,-0.227 -0.037,-0.319 -0.038,-0.274c-0.001,0.044 -0.004,0.156 -0.009,0.333c-0.005,0.178 0.057,0.429 0.186,0.754c0.129,0.325 0.31,0.63 0.545,0.917c0.345,0.422 0.819,0.679 1.421,0.773" style="fill:none;fill-rule:nonzero;stroke:#000;stroke-width:0.85px;"/><path d="M171.25,98.665l0,-0.312c0,-0.091 0.015,-0.058 0.044,0.098c0.029,0.156 0.119,0.479 0.271,0.969c0.152,0.49 0.325,1.031 0.521,1.621c0.196,0.591 0.37,1.065 0.521,1.423c0.152,0.358 0.244,0.554 0.277,0.588c0.033,0.034 0.054,-0.057 0.063,-0.274c0.009,-0.217 0.081,-0.473 0.216,-0.768c0.135,-0.295 0.343,-0.52 0.626,-0.675c0.283,-0.155 0.577,-0.212 0.885,-0.171c0.307,0.04 0.554,0.19 0.74,0.449c0.186,0.259 0.291,0.523 0.316,0.792c0.024,0.269 -0.045,0.497 -0.209,0.685c-0.164,0.188 -0.393,0.33 -0.687,0.426c-0.294,0.096 -0.588,0.157 -0.88,0.183c-0.293,0.027 -0.517,0.04 -0.673,0.04l-0.117,0l0.351,-0.001" style="fill:none;fill-rule:nonzero;stroke:#000;stroke-width:0.85px;"/><path d="M207.517,100.459c-0.079,-0.024 -0.179,-0.065 -0.301,-0.124c-0.121,-0.059 -0.255,-0.101 -0.402,-0.124c-0.146,-0.023 -0.328,-0.027 -0.543,-0.009c-0.216,0.017 -0.463,0.116 -0.741,0.296c-0.278,0.18 -0.519,0.42 -0.724,0.721c-0.204,0.301 -0.304,0.605 -0.299,0.913c0.005,0.307 0.182,0.565 0.529,0.774c0.347,0.209 0.786,0.363 1.316,0.464c0.53,0.101 1.076,0.162 1.637,0.184c0.561,0.022 0.8,-0.013 0.718,-0.105" style="fill:none;fill-rule:nonzero;stroke:#000;stroke-width:0.85px;"/><path d="M50.132,99.409c-0.093,0.003 -0.197,0.015 -0.312,0.034c-0.115,0.019 -0.221,0.033 -0.318,0.041c-0.097,0.008 -0.203,0.006 -0.319,-0.005c-0.116,-0.011 -0.267,-0.06 -0.453,-0.147c-0.186,-0.087 -0.438,-0.21 -0.756,-0.371c-0.318,-0.16 -0.718,-0.342 -1.2,-0.545c-0.483,-0.203 -1.036,-0.419 -1.66,-0.65c-0.624,-0.23 -1.309,-0.459 -2.054,-0.685c-0.745,-0.227 -1.509,-0.426 -2.292,-0.599c-0.783,-0.173 -1.525,-0.306 -2.226,-0.399c-0.701,-0.093 -1.352,-0.153 -1.951,-0.179c-0.6,-0.026 -1.138,-0.057 -1.616,-0.091c-0.478,-0.034 -0.941,-0.103 -1.388,-0.205c-0.447,-0.103 -0.921,-0.203 -1.421,-0.302c-0.5,-0.099 -1.028,-0.158 -1.584,-0.178c-0.556,-0.02 -1.079,-0.03 -1.569,-0.03c-0.49,-0 -0.935,0.015 -1.336,0.045c-0.401,0.03 -0.792,0.07 -1.175,0.121c-0.382,0.051 -0.78,0.101 -1.193,0.15c-0.413,0.049 -0.878,0.097 -1.394,0.146c-0.517,0.048 -1.032,0.11 -1.548,0.184c-0.515,0.075 -0.967,0.137 -1.356,0.187c-0.389,0.05 -0.755,0.08 -1.098,0.092c-0.343,0.011 -0.682,0.021 -1.015,0.03c-0.334,0.009 -0.645,0.035 -0.933,0.077c-0.288,0.042 -0.574,0.124 -0.855,0.244c-0.282,0.12 -0.569,0.261 -0.863,0.421c-0.294,0.16 -0.588,0.329 -0.882,0.508c-0.294,0.179 -0.586,0.365 -0.876,0.559c-0.29,0.194 -0.581,0.387 -0.874,0.58c-0.293,0.192 -0.601,0.386 -0.924,0.58c-0.323,0.194 -0.621,0.376 -0.893,0.544c-0.272,0.169 -0.529,0.34 -0.77,0.515c-0.241,0.174 -0.465,0.366 -0.67,0.573c-0.206,0.208 -0.397,0.428 -0.572,0.66c-0.176,0.232 -0.343,0.473 -0.502,0.72c-0.159,0.248 -0.302,0.501 -0.43,0.76c-0.128,0.259 -0.232,0.535 -0.311,0.828c-0.079,0.292 -0.15,0.618 -0.211,0.978c-0.061,0.359 -0.115,0.741 -0.162,1.143c-0.047,0.403 -0.076,0.783 -0.087,1.14c-0.011,0.357 -0.005,0.69 0.017,0.997c0.023,0.307 0.062,0.599 0.117,0.875c0.056,0.276 0.11,0.552 0.163,0.829c0.053,0.277 0.119,0.56 0.198,0.848c0.079,0.289 0.174,0.571 0.284,0.847c0.111,0.276 0.237,0.532 0.38,0.769c0.142,0.237 0.298,0.458 0.467,0.664c0.169,0.205 0.348,0.414 0.537,0.627c0.189,0.213 0.384,0.435 0.585,0.666c0.201,0.231 0.408,0.456 0.619,0.675c0.211,0.219 0.43,0.417 0.658,0.594c0.228,0.177 0.46,0.334 0.695,0.471c0.236,0.137 0.471,0.269 0.707,0.396c0.236,0.126 0.473,0.253 0.71,0.379c0.238,0.126 0.49,0.255 0.756,0.386c0.266,0.131 0.56,0.264 0.88,0.397c0.321,0.134 0.671,0.259 1.051,0.377c0.38,0.117 0.77,0.229 1.171,0.333c0.401,0.105 0.792,0.212 1.175,0.32c0.382,0.109 0.771,0.225 1.166,0.348c0.395,0.123 0.827,0.249 1.295,0.375c0.468,0.127 0.961,0.25 1.478,0.369c0.517,0.119 1.006,0.235 1.465,0.347c0.46,0.113 0.915,0.221 1.366,0.326c0.451,0.105 0.95,0.199 1.498,0.282c0.548,0.083 1.117,0.167 1.707,0.249c0.59,0.083 1.16,0.159 1.708,0.228c0.549,0.069 1.107,0.109 1.677,0.121c0.569,0.012 1.148,0.018 1.737,0.018c0.588,0 1.158,-0.002 1.71,-0.007c0.551,-0.005 1.085,-0.01 1.601,-0.018c0.516,-0.007 1.028,-0.033 1.537,-0.077c0.509,-0.045 1.002,-0.109 1.479,-0.192c0.477,-0.084 0.932,-0.167 1.365,-0.251c0.432,-0.083 0.823,-0.15 1.171,-0.2c0.348,-0.05 0.691,-0.094 1.028,-0.133c0.337,-0.039 0.67,-0.095 0.999,-0.168c0.329,-0.074 0.643,-0.165 0.943,-0.273c0.3,-0.108 0.595,-0.226 0.884,-0.351c0.29,-0.126 0.58,-0.257 0.871,-0.392c0.291,-0.136 0.573,-0.27 0.844,-0.401c0.271,-0.132 0.539,-0.265 0.803,-0.4c0.264,-0.135 0.554,-0.306 0.87,-0.511c0.316,-0.206 0.636,-0.438 0.961,-0.698c0.325,-0.259 0.589,-0.509 0.794,-0.748c0.204,-0.239 0.381,-0.484 0.529,-0.736c0.149,-0.252 0.303,-0.524 0.463,-0.816c0.16,-0.293 0.317,-0.604 0.471,-0.933c0.154,-0.329 0.29,-0.67 0.408,-1.022c0.118,-0.352 0.215,-0.689 0.289,-1.012c0.075,-0.322 0.136,-0.624 0.186,-0.905c0.049,-0.281 0.1,-0.554 0.153,-0.819c0.053,-0.265 0.11,-0.542 0.171,-0.829c0.061,-0.288 0.108,-0.592 0.141,-0.912c0.033,-0.32 0.05,-0.642 0.051,-0.965c0.001,-0.323 -0.011,-0.644 -0.033,-0.963c-0.023,-0.319 -0.06,-0.627 -0.11,-0.925c-0.051,-0.298 -0.108,-0.582 -0.173,-0.852c-0.065,-0.271 -0.147,-0.526 -0.248,-0.765c-0.101,-0.24 -0.217,-0.467 -0.35,-0.681c-0.133,-0.214 -0.289,-0.435 -0.469,-0.663c-0.18,-0.228 -0.378,-0.461 -0.594,-0.698c-0.216,-0.238 -0.419,-0.473 -0.61,-0.704c-0.191,-0.231 -0.369,-0.459 -0.535,-0.683c-0.166,-0.224 -0.324,-0.439 -0.472,-0.647c-0.149,-0.207 -0.299,-0.403 -0.452,-0.586c-0.153,-0.184 -0.343,-0.328 -0.572,-0.435c-0.326,-0.152 -1.181,0.092 -2.565,0.731" style="fill:none;fill-rule:nonzero;stroke:#000;stroke-width:0.85px;"/><path d="M60.194,91.25c0,-0.089 -0.004,-0.204 -0.013,-0.344c-0.009,-0.14 -0.053,-0.262 -0.132,-0.365c-0.079,-0.103 -0.247,-0.195 -0.504,-0.276c-0.257,-0.081 -0.619,-0.159 -1.085,-0.234c-0.466,-0.075 -1.001,-0.18 -1.603,-0.316c-0.602,-0.136 -1.216,-0.282 -1.843,-0.438c-0.627,-0.156 -1.265,-0.269 -1.915,-0.339c-0.65,-0.07 -1.314,-0.117 -1.991,-0.141c-0.678,-0.024 -1.352,-0.066 -2.023,-0.125c-0.671,-0.059 -1.312,-0.128 -1.923,-0.206c-0.611,-0.078 -1.184,-0.15 -1.721,-0.215c-0.537,-0.066 -1.096,-0.124 -1.679,-0.173c-0.583,-0.05 -1.207,-0.093 -1.872,-0.129c-0.665,-0.037 -1.338,-0.071 -2.017,-0.103c-0.68,-0.032 -1.337,-0.052 -1.972,-0.06c-0.635,-0.008 -1.289,-0.01 -1.963,-0.006c-0.674,0.004 -1.356,0.031 -2.047,0.081c-0.691,0.05 -1.337,0.085 -1.938,0.106c-0.601,0.021 -1.192,0.04 -1.773,0.057c-0.581,0.017 -1.154,0.042 -1.718,0.075c-0.564,0.033 -1.118,0.092 -1.662,0.178c-0.543,0.086 -1.05,0.172 -1.519,0.261c-0.47,0.088 -0.937,0.192 -1.402,0.311c-0.465,0.119 -0.954,0.27 -1.465,0.453c-0.512,0.183 -1.015,0.375 -1.51,0.577c-0.495,0.202 -0.96,0.384 -1.395,0.546c-0.435,0.162 -0.859,0.314 -1.272,0.455c-0.413,0.141 -0.844,0.301 -1.292,0.479c-0.449,0.178 -0.876,0.384 -1.282,0.617c-0.406,0.234 -0.776,0.478 -1.109,0.733c-0.333,0.255 -0.653,0.496 -0.962,0.72c-0.309,0.225 -0.628,0.432 -0.958,0.62c-0.33,0.189 -0.63,0.368 -0.897,0.538c-0.268,0.17 -0.513,0.337 -0.735,0.5c-0.222,0.163 -0.468,0.345 -0.737,0.547c-0.27,0.202 -0.567,0.436 -0.891,0.701c-0.325,0.265 -0.622,0.546 -0.892,0.842c-0.27,0.296 -0.504,0.589 -0.701,0.879c-0.197,0.29 -0.374,0.584 -0.53,0.882c-0.157,0.298 -0.292,0.619 -0.405,0.962c-0.113,0.344 -0.234,0.712 -0.361,1.106c-0.127,0.394 -0.27,0.816 -0.427,1.266c-0.158,0.45 -0.297,0.898 -0.418,1.345c-0.121,0.446 -0.222,0.864 -0.303,1.252c-0.081,0.388 -0.144,0.748 -0.187,1.078c-0.043,0.33 -0.066,0.65 -0.07,0.958c-0.003,0.308 -0.005,0.64 -0.005,0.995c0,0.355 -0,0.71 -0,1.064c0,0.354 0.001,0.668 0.003,0.944c0.002,0.275 0.02,0.531 0.052,0.767c0.033,0.236 0.081,0.481 0.145,0.735c0.064,0.254 0.145,0.536 0.241,0.845c0.096,0.309 0.209,0.64 0.339,0.994c0.13,0.354 0.274,0.697 0.431,1.029c0.157,0.332 0.337,0.633 0.539,0.903c0.202,0.27 0.419,0.519 0.649,0.749c0.231,0.23 0.45,0.447 0.657,0.651c0.207,0.205 0.416,0.416 0.624,0.634c0.209,0.218 0.427,0.442 0.655,0.673c0.228,0.231 0.455,0.453 0.681,0.669c0.226,0.215 0.459,0.407 0.699,0.576c0.24,0.169 0.491,0.349 0.752,0.539c0.262,0.19 0.528,0.407 0.8,0.651c0.272,0.244 0.559,0.486 0.862,0.728c0.302,0.241 0.607,0.468 0.914,0.681c0.307,0.213 0.606,0.417 0.898,0.615c0.292,0.197 0.591,0.392 0.896,0.584c0.305,0.192 0.612,0.381 0.918,0.569c0.307,0.188 0.6,0.361 0.881,0.52c0.28,0.159 0.573,0.305 0.878,0.437c0.305,0.132 0.623,0.259 0.956,0.381c0.333,0.122 0.664,0.246 0.994,0.372c0.33,0.126 0.68,0.249 1.05,0.369c0.37,0.12 0.763,0.225 1.177,0.315c0.414,0.091 0.84,0.199 1.276,0.326c0.437,0.127 0.899,0.265 1.387,0.413c0.488,0.148 1.028,0.269 1.62,0.361c0.592,0.093 1.181,0.164 1.767,0.213c0.586,0.049 1.112,0.125 1.578,0.226c0.466,0.102 0.909,0.229 1.329,0.381c0.42,0.152 0.904,0.288 1.453,0.406c0.549,0.119 1.142,0.199 1.779,0.241c0.637,0.042 1.257,0.068 1.86,0.077c0.603,0.01 1.178,0.034 1.726,0.072c0.548,0.038 1.109,0.064 1.683,0.077c0.574,0.013 1.183,0.022 1.827,0.028c0.645,0.005 1.277,0.008 1.897,0.008c0.62,0 1.188,0 1.705,0l2.935,0c0.511,0 1.014,-0.005 1.509,-0.014c0.495,-0.009 0.975,-0.016 1.44,-0.022c0.465,-0.005 0.937,-0.012 1.418,-0.019c0.48,-0.007 0.967,-0.016 1.46,-0.028c0.493,-0.012 0.988,-0.022 1.484,-0.029c0.496,-0.008 0.979,-0.02 1.449,-0.036c0.47,-0.017 0.935,-0.032 1.395,-0.047c0.46,-0.015 0.907,-0.025 1.34,-0.03c0.434,-0.005 0.863,-0.019 1.288,-0.042c0.425,-0.023 0.856,-0.066 1.293,-0.128c0.437,-0.062 0.864,-0.12 1.281,-0.174c0.417,-0.054 0.809,-0.1 1.175,-0.137c0.366,-0.037 0.726,-0.07 1.078,-0.099c0.352,-0.029 0.72,-0.079 1.102,-0.15c0.382,-0.071 0.783,-0.154 1.203,-0.248c0.42,-0.094 0.831,-0.182 1.233,-0.263c0.402,-0.081 0.792,-0.158 1.169,-0.231c0.377,-0.073 0.767,-0.163 1.169,-0.271c0.402,-0.108 0.804,-0.22 1.206,-0.337c0.402,-0.117 0.776,-0.225 1.121,-0.326c0.345,-0.101 0.664,-0.188 0.957,-0.261c0.293,-0.073 0.6,-0.158 0.922,-0.254c0.322,-0.096 0.653,-0.2 0.993,-0.312c0.34,-0.112 0.655,-0.221 0.944,-0.328c0.289,-0.107 0.577,-0.223 0.865,-0.348c0.288,-0.125 0.601,-0.261 0.937,-0.406c0.336,-0.146 0.658,-0.287 0.964,-0.424c0.306,-0.137 0.57,-0.264 0.792,-0.381c0.222,-0.117 0.427,-0.242 0.614,-0.375c0.187,-0.133 0.391,-0.282 0.613,-0.448c0.222,-0.166 0.482,-0.351 0.781,-0.554c0.299,-0.203 0.603,-0.423 0.912,-0.66c0.31,-0.237 0.59,-0.488 0.84,-0.755c0.25,-0.266 0.478,-0.546 0.683,-0.839c0.205,-0.293 0.404,-0.59 0.596,-0.892c0.192,-0.301 0.372,-0.605 0.538,-0.911c0.167,-0.306 0.316,-0.619 0.448,-0.939c0.132,-0.32 0.265,-0.658 0.398,-1.014c0.133,-0.356 0.267,-0.731 0.401,-1.126c0.134,-0.395 0.254,-0.796 0.36,-1.205c0.106,-0.408 0.18,-0.802 0.221,-1.18c0.042,-0.378 0.054,-0.738 0.036,-1.079c-0.017,-0.341 -0.063,-0.683 -0.137,-1.025c-0.074,-0.342 -0.154,-0.699 -0.242,-1.069c-0.087,-0.371 -0.178,-0.747 -0.272,-1.129c-0.094,-0.382 -0.204,-0.761 -0.329,-1.138c-0.125,-0.377 -0.274,-0.748 -0.447,-1.113c-0.173,-0.365 -0.356,-0.723 -0.548,-1.074c-0.192,-0.351 -0.378,-0.687 -0.558,-1.009c-0.18,-0.322 -0.368,-0.65 -0.564,-0.984c-0.196,-0.334 -0.405,-0.667 -0.628,-0.999c-0.223,-0.331 -0.451,-0.638 -0.683,-0.919c-0.233,-0.281 -0.497,-0.554 -0.793,-0.82c-0.296,-0.265 -0.612,-0.523 -0.947,-0.774c-0.335,-0.251 -0.658,-0.503 -0.97,-0.755c-0.312,-0.252 -0.623,-0.503 -0.934,-0.751c-0.311,-0.248 -0.654,-0.501 -1.03,-0.758c-0.376,-0.257 -0.763,-0.52 -1.16,-0.79c-0.397,-0.269 -0.766,-0.549 -1.105,-0.84c-0.34,-0.291 -0.682,-0.589 -1.028,-0.895c-0.346,-0.306 -0.742,-0.618 -1.187,-0.936c-0.445,-0.318 -0.94,-0.638 -1.484,-0.962c-0.544,-0.323 -1.084,-0.622 -1.621,-0.897c-0.536,-0.275 -1.038,-0.525 -1.504,-0.749c-0.466,-0.225 -0.929,-0.441 -1.388,-0.648c-0.459,-0.207 -0.947,-0.399 -1.464,-0.576c-0.517,-0.176 -1.071,-0.33 -1.662,-0.46c-0.591,-0.13 -1.173,-0.237 -1.746,-0.319c-0.573,-0.082 -1.137,-0.131 -1.694,-0.145c-0.557,-0.014 -1.116,0.004 -1.676,0.054c-0.561,0.05 -1.135,0.129 -1.723,0.234c-0.588,0.106 -1.097,0.223 -1.526,0.35c-0.429,0.128 -0.689,0.218 -0.78,0.27c-0.126,0.073 -0.148,0.151 -0.064,0.235" style="fill:none;fill-rule:nonzero;stroke:#000;stroke-width:0.85px;"/><path d="M111.38,103.762c0,-0.1 -0.012,-0.209 -0.037,-0.326c-0.025,-0.117 -0.089,-0.222 -0.193,-0.317c-0.104,-0.094 -0.254,-0.188 -0.449,-0.281c-0.195,-0.093 -0.456,-0.158 -0.782,-0.195c-0.326,-0.037 -0.674,0.017 -1.044,0.161c-0.37,0.144 -0.668,0.398 -0.894,0.761c-0.227,0.363 -0.321,0.753 -0.283,1.169c0.038,0.416 0.246,0.758 0.623,1.025c0.377,0.268 0.789,0.43 1.235,0.488c0.446,0.058 0.831,0.012 1.155,-0.136c0.324,-0.149 0.55,-0.402 0.68,-0.761c0.13,-0.359 0.164,-0.726 0.103,-1.101c-0.061,-0.375 -0.148,-0.625 -0.26,-0.75c-0.113,-0.125 -0.148,-0.176 -0.106,-0.152" style="fill:none;fill-rule:nonzero;stroke:#000;stroke-width:0.85px;"/><path d="M113.961,103.653c-0.022,0.055 -0.039,0.182 -0.05,0.381c-0.012,0.2 0.06,0.465 0.216,0.796c0.155,0.331 0.35,0.658 0.583,0.982c0.234,0.324 0.408,0.552 0.523,0.684c0.115,0.132 0.172,0.192 0.171,0.179c-0.001,-0.013 -0.002,-0.044 -0.005,-0.094c-0.003,-0.05 -0.067,-0.238 -0.192,-0.562c-0.125,-0.325 -0.232,-0.655 -0.32,-0.991c-0.088,-0.336 -0.14,-0.615 -0.157,-0.838c-0.017,-0.223 -0,-0.389 0.049,-0.497c0.049,-0.109 0.196,-0.189 0.439,-0.241c0.243,-0.052 0.547,-0.086 0.91,-0.103c0.538,-0.024 1.145,0.027 1.822,0.153" style="fill:none;fill-rule:nonzero;stroke:#000;stroke-width:0.85px;"/><path d="M197.652,93.678c-0.058,-0.019 -0.163,-0.056 -0.316,-0.113c-0.153,-0.057 -0.345,-0.121 -0.575,-0.193c-0.23,-0.072 -0.565,-0.156 -1.006,-0.253c-0.44,-0.097 -1.047,-0.169 -1.82,-0.215c-0.773,-0.046 -1.586,-0.079 -2.439,-0.098c-0.853,-0.019 -1.596,-0.085 -2.229,-0.198c-0.633,-0.113 -1.199,-0.243 -1.698,-0.392c-0.499,-0.148 -0.996,-0.26 -1.491,-0.334c-0.495,-0.074 -0.983,-0.114 -1.462,-0.121c-0.48,-0.006 -0.96,-0.007 -1.441,-0.003c-0.481,0.004 -0.961,0.029 -1.44,0.074c-0.48,0.045 -0.938,0.082 -1.374,0.113c-0.437,0.03 -0.866,0.066 -1.289,0.109c-0.423,0.042 -0.849,0.117 -1.28,0.224c-0.43,0.107 -0.837,0.223 -1.221,0.347c-0.384,0.124 -0.748,0.239 -1.091,0.344c-0.343,0.105 -0.685,0.202 -1.026,0.29c-0.341,0.088 -0.67,0.174 -0.99,0.256c-0.319,0.082 -0.626,0.173 -0.922,0.272c-0.295,0.099 -0.584,0.2 -0.866,0.302c-0.282,0.102 -0.561,0.21 -0.836,0.324c-0.275,0.114 -0.531,0.229 -0.765,0.346c-0.235,0.117 -0.456,0.247 -0.663,0.391c-0.207,0.144 -0.428,0.321 -0.662,0.53c-0.234,0.209 -0.483,0.434 -0.744,0.674c-0.262,0.24 -0.506,0.477 -0.732,0.711c-0.226,0.234 -0.414,0.476 -0.565,0.724c-0.151,0.249 -0.283,0.53 -0.395,0.844c-0.113,0.314 -0.207,0.638 -0.281,0.974c-0.074,0.336 -0.158,0.67 -0.251,1.002c-0.093,0.333 -0.197,0.66 -0.311,0.982c-0.114,0.322 -0.205,0.636 -0.273,0.942c-0.068,0.307 -0.108,0.619 -0.119,0.936c-0.011,0.318 -0.017,0.644 -0.017,0.979c-0,0.335 -0,0.657 -0,0.965c0,0.308 0.001,0.589 0.003,0.844c0.002,0.254 0.024,0.507 0.066,0.756c0.042,0.25 0.109,0.508 0.203,0.775c0.093,0.267 0.186,0.532 0.279,0.794c0.093,0.263 0.186,0.52 0.281,0.771c0.095,0.251 0.189,0.491 0.284,0.72c0.095,0.229 0.183,0.454 0.264,0.675c0.081,0.221 0.153,0.443 0.217,0.664c0.064,0.222 0.129,0.432 0.197,0.632c0.068,0.2 0.145,0.396 0.231,0.588c0.087,0.192 0.183,0.38 0.289,0.563c0.106,0.183 0.221,0.366 0.345,0.551c0.124,0.184 0.253,0.365 0.388,0.543c0.135,0.178 0.286,0.361 0.453,0.55c0.166,0.189 0.35,0.385 0.551,0.586c0.201,0.201 0.407,0.407 0.618,0.618c0.211,0.211 0.436,0.421 0.676,0.631c0.24,0.21 0.483,0.399 0.731,0.569c0.248,0.169 0.482,0.321 0.702,0.456c0.22,0.135 0.448,0.261 0.685,0.378c0.237,0.117 0.497,0.229 0.78,0.337c0.283,0.107 0.558,0.206 0.824,0.297c0.266,0.09 0.521,0.183 0.764,0.278c0.244,0.095 0.486,0.188 0.726,0.281c0.24,0.093 0.503,0.177 0.788,0.253c0.285,0.076 0.592,0.155 0.921,0.237c0.329,0.082 0.67,0.182 1.021,0.3c0.351,0.118 0.744,0.236 1.177,0.353c0.433,0.117 0.918,0.211 1.455,0.281c0.537,0.07 1.05,0.135 1.54,0.196c0.489,0.06 0.941,0.126 1.353,0.196c0.413,0.07 0.84,0.142 1.282,0.214c0.442,0.073 0.903,0.142 1.382,0.209c0.479,0.067 0.932,0.112 1.36,0.135c0.428,0.024 0.82,0.035 1.178,0.036c0.357,0 0.698,0 1.021,0l4.894,0c0.395,0 0.774,-0.003 1.136,-0.011c0.362,-0.007 0.688,-0.011 0.977,-0.011c0.289,-0 0.575,-0.002 0.859,-0.004c0.284,-0.002 0.584,-0.015 0.901,-0.038c0.317,-0.023 0.644,-0.054 0.982,-0.093c0.337,-0.038 0.669,-0.083 0.996,-0.134c0.327,-0.051 0.634,-0.105 0.922,-0.163c0.288,-0.058 0.566,-0.117 0.834,-0.178c0.268,-0.061 0.535,-0.122 0.803,-0.183c0.267,-0.061 0.533,-0.121 0.798,-0.182c0.265,-0.061 0.526,-0.126 0.781,-0.196c0.256,-0.07 0.502,-0.15 0.738,-0.239c0.236,-0.089 0.468,-0.185 0.694,-0.286c0.226,-0.102 0.46,-0.212 0.702,-0.33c0.242,-0.119 0.489,-0.244 0.742,-0.378c0.253,-0.133 0.492,-0.261 0.717,-0.383c0.225,-0.122 0.428,-0.246 0.609,-0.372c0.181,-0.126 0.361,-0.254 0.541,-0.382c0.18,-0.129 0.364,-0.254 0.553,-0.376c0.189,-0.122 0.368,-0.239 0.537,-0.351c0.169,-0.112 0.326,-0.226 0.473,-0.342c0.147,-0.116 0.294,-0.25 0.442,-0.402c0.148,-0.152 0.304,-0.324 0.469,-0.517c0.165,-0.193 0.325,-0.402 0.482,-0.627c0.156,-0.225 0.292,-0.452 0.408,-0.681c0.116,-0.228 0.217,-0.466 0.303,-0.713c0.086,-0.247 0.163,-0.509 0.232,-0.784c0.069,-0.276 0.135,-0.566 0.198,-0.872c0.063,-0.306 0.122,-0.608 0.176,-0.908c0.054,-0.299 0.092,-0.594 0.116,-0.883c0.023,-0.289 0.035,-0.584 0.036,-0.885c0,-0.301 -0.01,-0.599 -0.03,-0.894c-0.021,-0.295 -0.057,-0.587 -0.11,-0.875c-0.053,-0.289 -0.108,-0.596 -0.166,-0.923c-0.058,-0.327 -0.135,-0.678 -0.23,-1.056c-0.095,-0.377 -0.215,-0.75 -0.36,-1.119c-0.145,-0.369 -0.283,-0.698 -0.415,-0.988c-0.132,-0.29 -0.237,-0.558 -0.314,-0.804c-0.077,-0.246 -0.157,-0.509 -0.238,-0.789c-0.082,-0.28 -0.193,-0.579 -0.334,-0.896c-0.141,-0.318 -0.294,-0.622 -0.46,-0.913c-0.166,-0.291 -0.317,-0.566 -0.454,-0.824c-0.137,-0.258 -0.288,-0.526 -0.454,-0.805c-0.166,-0.279 -0.347,-0.561 -0.544,-0.848c-0.196,-0.286 -0.395,-0.584 -0.597,-0.892c-0.201,-0.308 -0.422,-0.6 -0.663,-0.876c-0.24,-0.276 -0.536,-0.535 -0.887,-0.778c-0.351,-0.242 -0.716,-0.453 -1.096,-0.632c-0.38,-0.179 -0.729,-0.347 -1.047,-0.503c-0.318,-0.156 -0.627,-0.321 -0.925,-0.495c-0.299,-0.174 -0.635,-0.345 -1.011,-0.511c-0.375,-0.166 -0.826,-0.293 -1.353,-0.382c-0.527,-0.089 -1.082,-0.144 -1.665,-0.165c-0.584,-0.021 -1.131,-0.053 -1.641,-0.095c-0.511,-0.042 -1.002,-0.086 -1.475,-0.13c-0.714,-0.068 -1.376,-0.063 -1.985,0.012" style="fill:none;fill-rule:nonzero;stroke:#000;stroke-width:0.85px;"/><path d="M183.74,82.675c0.04,-0.1 0.032,-0.197 -0.021,-0.291c-0.054,-0.094 -0.217,-0.157 -0.489,-0.189c-0.272,-0.032 -0.624,-0.066 -1.055,-0.099c-0.431,-0.034 -0.959,-0.072 -1.584,-0.116c-0.625,-0.043 -1.301,-0.073 -2.028,-0.089c-0.727,-0.016 -1.462,-0.024 -2.206,-0.024c-0.744,-0 -1.477,0.009 -2.199,0.027c-0.722,0.018 -1.437,0.064 -2.143,0.137c-0.706,0.073 -1.389,0.174 -2.049,0.304c-0.66,0.129 -1.313,0.267 -1.961,0.413c-0.647,0.146 -1.263,0.276 -1.847,0.389c-0.584,0.113 -1.129,0.22 -1.634,0.319c-0.505,0.1 -1.013,0.207 -1.522,0.323c-0.509,0.116 -1.025,0.244 -1.548,0.384c-0.523,0.14 -1.021,0.282 -1.495,0.425c-0.473,0.143 -0.927,0.288 -1.361,0.434c-0.434,0.146 -0.846,0.282 -1.237,0.41c-0.39,0.127 -0.782,0.249 -1.175,0.366c-0.393,0.116 -0.805,0.254 -1.236,0.413c-0.431,0.159 -0.888,0.329 -1.373,0.511c-0.484,0.182 -0.976,0.365 -1.474,0.55c-0.498,0.184 -0.993,0.374 -1.485,0.568c-0.492,0.194 -0.946,0.4 -1.362,0.618c-0.416,0.218 -0.831,0.451 -1.245,0.7c-0.414,0.249 -0.864,0.513 -1.35,0.792c-0.486,0.279 -0.969,0.552 -1.451,0.817c-0.481,0.266 -0.895,0.531 -1.24,0.794c-0.345,0.264 -0.653,0.556 -0.921,0.878c-0.269,0.321 -0.548,0.662 -0.838,1.024c-0.29,0.361 -0.607,0.719 -0.951,1.072c-0.344,0.353 -0.659,0.667 -0.944,0.94c-0.285,0.273 -0.529,0.52 -0.731,0.739c-0.202,0.22 -0.395,0.455 -0.579,0.706c-0.185,0.251 -0.38,0.525 -0.585,0.823c-0.206,0.298 -0.404,0.591 -0.595,0.881c-0.191,0.29 -0.37,0.578 -0.539,0.865c-0.168,0.287 -0.33,0.565 -0.486,0.836c-0.156,0.27 -0.313,0.546 -0.471,0.828c-0.158,0.281 -0.298,0.569 -0.419,0.862c-0.121,0.294 -0.221,0.598 -0.3,0.913c-0.079,0.315 -0.148,0.63 -0.207,0.944c-0.059,0.314 -0.117,0.611 -0.175,0.889c-0.058,0.278 -0.12,0.557 -0.186,0.835c-0.065,0.278 -0.124,0.584 -0.176,0.918c-0.052,0.333 -0.09,0.678 -0.116,1.032c-0.025,0.355 -0.043,0.688 -0.053,0.998c-0.01,0.311 -0.016,0.603 -0.019,0.876c-0.003,0.273 -0.003,0.548 -0.001,0.824c0.002,0.276 0.024,0.57 0.066,0.883c0.042,0.312 0.1,0.629 0.175,0.95c0.075,0.321 0.147,0.637 0.215,0.949c0.068,0.312 0.135,0.611 0.201,0.899c0.066,0.288 0.139,0.564 0.221,0.827c0.082,0.264 0.177,0.518 0.285,0.764c0.109,0.246 0.22,0.497 0.334,0.754c0.114,0.257 0.223,0.511 0.325,0.762c0.102,0.251 0.219,0.484 0.351,0.699c0.132,0.215 0.285,0.421 0.459,0.619c0.174,0.197 0.352,0.406 0.534,0.626c0.182,0.22 0.365,0.449 0.547,0.687c0.182,0.238 0.375,0.466 0.578,0.683c0.203,0.217 0.414,0.42 0.632,0.608c0.219,0.188 0.45,0.386 0.694,0.594c0.244,0.208 0.517,0.425 0.818,0.651c0.301,0.226 0.638,0.438 1.01,0.636c0.372,0.198 0.752,0.381 1.142,0.547c0.389,0.166 0.756,0.321 1.101,0.465c0.345,0.144 0.68,0.301 1.005,0.472c0.326,0.171 0.672,0.345 1.04,0.52c0.368,0.175 0.731,0.329 1.089,0.46c0.359,0.131 0.711,0.245 1.059,0.343c0.347,0.098 0.702,0.198 1.063,0.299c0.361,0.102 0.747,0.21 1.158,0.327c0.411,0.116 0.861,0.24 1.352,0.371c0.49,0.131 0.992,0.24 1.506,0.327c0.513,0.087 1.011,0.164 1.493,0.232c0.482,0.068 0.975,0.135 1.479,0.201c0.504,0.066 1.049,0.142 1.634,0.228c0.585,0.086 1.154,0.166 1.706,0.238c0.552,0.072 1.074,0.13 1.563,0.174c0.49,0.044 0.979,0.083 1.467,0.118c0.488,0.035 0.986,0.063 1.493,0.085c0.507,0.022 1.006,0.039 1.496,0.049c0.49,0.01 0.958,0.015 1.405,0.015c0.447,0 0.865,0.001 1.256,0.004c0.391,0.002 0.796,0.021 1.216,0.056c0.42,0.035 0.873,0.08 1.357,0.136c0.484,0.056 0.978,0.098 1.481,0.126c0.503,0.028 0.986,0.044 1.447,0.047c0.461,0.003 0.905,0.005 1.331,0.005l2.829,0c0.541,0 1.106,-0.002 1.693,-0.007c0.588,-0.004 1.153,-0.032 1.695,-0.084c0.542,-0.052 1.052,-0.108 1.53,-0.169c0.478,-0.061 0.956,-0.116 1.435,-0.165c0.479,-0.049 0.968,-0.092 1.468,-0.129c0.5,-0.037 0.987,-0.06 1.46,-0.068c0.474,-0.008 0.929,-0.013 1.366,-0.013c0.437,-0 0.903,-0.005 1.396,-0.014c0.493,-0.009 1,-0.042 1.52,-0.098c0.52,-0.056 1.025,-0.127 1.515,-0.211c0.49,-0.084 0.948,-0.167 1.374,-0.248c0.426,-0.081 0.82,-0.154 1.184,-0.22c0.363,-0.066 0.746,-0.135 1.147,-0.207c0.401,-0.072 0.834,-0.156 1.299,-0.25c0.465,-0.094 0.937,-0.195 1.416,-0.305c0.479,-0.109 0.928,-0.205 1.347,-0.287c0.419,-0.082 0.769,-0.141 1.049,-0.176c0.28,-0.035 0.531,-0.073 0.755,-0.114c0.224,-0.041 0.481,-0.096 0.772,-0.165c0.291,-0.069 0.6,-0.148 0.925,-0.235c0.325,-0.087 0.641,-0.179 0.949,-0.276c0.308,-0.096 0.606,-0.206 0.895,-0.329c0.289,-0.123 0.598,-0.257 0.927,-0.403c0.329,-0.145 0.658,-0.29 0.987,-0.433c0.329,-0.144 0.619,-0.278 0.87,-0.402c0.251,-0.125 0.501,-0.265 0.749,-0.421c0.249,-0.156 0.53,-0.34 0.844,-0.552c0.314,-0.212 0.615,-0.427 0.901,-0.644c0.287,-0.217 0.529,-0.424 0.726,-0.621c0.197,-0.197 0.393,-0.418 0.586,-0.664c0.193,-0.246 0.413,-0.514 0.659,-0.804c0.246,-0.291 0.495,-0.583 0.746,-0.878c0.252,-0.295 0.453,-0.574 0.606,-0.837c0.152,-0.264 0.274,-0.527 0.365,-0.792c0.091,-0.264 0.203,-0.555 0.337,-0.874c0.133,-0.318 0.3,-0.646 0.5,-0.982c0.2,-0.336 0.392,-0.654 0.576,-0.954c0.184,-0.3 0.325,-0.597 0.423,-0.891c0.098,-0.294 0.167,-0.596 0.208,-0.907c0.04,-0.311 0.075,-0.619 0.104,-0.926c0.029,-0.307 0.057,-0.618 0.084,-0.933c0.027,-0.315 0.042,-0.634 0.045,-0.954c0.003,-0.321 0.005,-0.637 0.005,-0.949l0,-0.92c0,-0.302 -0.001,-0.617 -0.003,-0.946c-0.002,-0.329 -0.016,-0.689 -0.042,-1.08c-0.026,-0.391 -0.065,-0.79 -0.117,-1.197c-0.052,-0.407 -0.122,-0.774 -0.208,-1.1c-0.086,-0.327 -0.188,-0.62 -0.306,-0.879c-0.118,-0.259 -0.24,-0.517 -0.366,-0.774c-0.127,-0.257 -0.251,-0.538 -0.372,-0.842c-0.122,-0.304 -0.259,-0.615 -0.413,-0.931c-0.154,-0.316 -0.321,-0.611 -0.5,-0.882c-0.179,-0.272 -0.355,-0.524 -0.529,-0.755c-0.173,-0.232 -0.335,-0.465 -0.487,-0.701c-0.151,-0.236 -0.304,-0.489 -0.456,-0.759c-0.153,-0.271 -0.314,-0.558 -0.483,-0.863c-0.169,-0.305 -0.347,-0.621 -0.534,-0.949c-0.187,-0.328 -0.377,-0.639 -0.572,-0.932c-0.194,-0.293 -0.395,-0.578 -0.604,-0.856c-0.208,-0.278 -0.422,-0.548 -0.641,-0.811c-0.219,-0.263 -0.434,-0.52 -0.645,-0.77c-0.211,-0.25 -0.435,-0.503 -0.672,-0.758c-0.237,-0.255 -0.512,-0.51 -0.824,-0.766c-0.312,-0.255 -0.661,-0.513 -1.046,-0.773c-0.385,-0.26 -0.751,-0.504 -1.099,-0.731c-0.348,-0.228 -0.652,-0.444 -0.913,-0.648c-0.26,-0.204 -0.516,-0.408 -0.768,-0.609c-0.252,-0.202 -0.544,-0.403 -0.875,-0.602c-0.332,-0.2 -0.696,-0.386 -1.094,-0.56c-0.397,-0.173 -0.785,-0.345 -1.163,-0.515c-0.378,-0.17 -0.742,-0.338 -1.093,-0.503c-0.351,-0.165 -0.704,-0.329 -1.061,-0.493c-0.356,-0.163 -0.733,-0.316 -1.13,-0.458c-0.397,-0.142 -0.817,-0.264 -1.26,-0.365c-0.443,-0.101 -0.901,-0.197 -1.375,-0.29c-0.473,-0.092 -0.93,-0.189 -1.369,-0.291c-0.44,-0.102 -0.857,-0.203 -1.252,-0.303c-0.395,-0.1 -0.782,-0.188 -1.162,-0.264c-0.38,-0.076 -0.745,-0.149 -1.096,-0.216c-0.351,-0.068 -0.682,-0.15 -0.992,-0.246c-0.31,-0.096 -0.638,-0.178 -0.986,-0.246c-0.347,-0.068 -0.721,-0.107 -1.122,-0.119c-0.4,-0.011 -0.772,-0.007 -1.116,0.014c-0.343,0.021 -0.628,0.047 -0.854,0.079c-0.226,0.032 -0.418,0.051 -0.577,0.057c-0.231,0.008 -0.594,0.06 -1.087,0.157" style="fill:none;fill-rule:nonzero;stroke:#000;stroke-width:0.85px;"/><path d="M54.506,117.608c0.092,0.03 0.193,0.08 0.305,0.15c0.111,0.07 0.224,0.126 0.339,0.169c0.115,0.043 0.278,0.058 0.491,0.046c0.213,-0.012 0.458,-0.085 0.736,-0.219c0.278,-0.134 0.532,-0.308 0.761,-0.522c0.229,-0.214 0.391,-0.453 0.487,-0.716c0.095,-0.263 0.143,-0.514 0.143,-0.753c0,-0.238 -0.052,-0.41 -0.156,-0.515c-0.104,-0.105 -0.273,-0.147 -0.504,-0.125c-0.232,0.022 -0.499,0.143 -0.801,0.364c-0.302,0.221 -0.596,0.515 -0.882,0.882c-0.286,0.367 -0.51,0.743 -0.672,1.126c-0.161,0.383 -0.238,0.698 -0.229,0.945c0.008,0.246 0.131,0.429 0.367,0.547c0.236,0.118 0.568,0.195 0.995,0.229c0.427,0.034 0.915,0.051 1.465,0.052c0.83,0.001 1.613,0.031 2.349,0.091" style="fill:none;fill-rule:nonzero;stroke:#000;stroke-width:0.85px;"/><path d="M90.577,123.011c0.011,-0.081 -0.007,-0.189 -0.053,-0.326c-0.046,-0.137 -0.154,-0.228 -0.325,-0.274c-0.171,-0.046 -0.392,-0.062 -0.663,-0.047c-0.271,0.014 -0.571,0.118 -0.901,0.312c-0.33,0.193 -0.623,0.47 -0.881,0.83c-0.258,0.36 -0.403,0.713 -0.437,1.059c-0.034,0.346 0.085,0.589 0.356,0.729c0.271,0.14 0.6,0.174 0.988,0.102c0.388,-0.072 0.743,-0.274 1.065,-0.605c0.322,-0.331 0.58,-0.741 0.775,-1.23c0.195,-0.489 0.318,-1.022 0.369,-1.601c0.051,-0.579 0.076,-1.071 0.074,-1.476c-0.002,-0.405 -0.012,-0.657 -0.031,-0.756c-0.019,-0.099 -0.035,-0.141 -0.047,-0.124c-0.013,0.017 -0.021,0.086 -0.026,0.208c-0.005,0.122 -0.013,0.327 -0.025,0.617c-0.012,0.29 -0.017,0.64 -0.015,1.05c0.002,0.41 0.04,0.824 0.114,1.244c0.074,0.419 0.181,0.792 0.32,1.117c0.14,0.326 0.271,0.569 0.394,0.731c0.123,0.162 0.224,0.266 0.303,0.312c0.111,0.064 0.195,0.001 0.251,-0.191" style="fill:none;fill-rule:nonzero;stroke:#000;stroke-width:0.85px;"/><path d="M136.819,124.652c-0.003,-0.054 -0.03,-0.143 -0.082,-0.266c-0.052,-0.124 -0.157,-0.209 -0.314,-0.257c-0.158,-0.047 -0.389,-0.064 -0.696,-0.05c-0.306,0.014 -0.635,0.135 -0.985,0.363c-0.351,0.228 -0.622,0.544 -0.815,0.946c-0.193,0.402 -0.273,0.76 -0.24,1.072c0.033,0.313 0.154,0.518 0.36,0.615c0.207,0.098 0.433,0.112 0.678,0.043c0.245,-0.069 0.484,-0.211 0.718,-0.425c0.234,-0.214 0.448,-0.479 0.642,-0.794c0.194,-0.315 0.345,-0.663 0.453,-1.045c0.108,-0.382 0.181,-0.788 0.22,-1.22c0.038,-0.432 0.066,-0.807 0.084,-1.124c0.017,-0.318 0.029,-0.532 0.034,-0.644c0.005,-0.112 0.008,-0.171 0.008,-0.178l0,-0.008l0,0.001c0,0.002 -0.001,0.016 -0.003,0.042c-0.002,0.026 -0.013,0.075 -0.032,0.148c-0.019,0.073 -0.035,0.189 -0.047,0.349c-0.013,0.159 -0.02,0.371 -0.023,0.634c-0.003,0.264 0.008,0.612 0.032,1.045c0.024,0.433 0.063,0.88 0.118,1.342c0.054,0.461 0.104,0.813 0.147,1.056c0.044,0.242 0.105,0.411 0.182,0.505l0.058,0.071l-0.175,-0.212" style="fill:none;fill-rule:nonzero;stroke:#000;stroke-width:0.85px;"/><path d="M166.809,116.383c0.083,-0.041 0.153,-0.114 0.21,-0.221c0.057,-0.107 0.081,-0.228 0.071,-0.363c-0.01,-0.135 -0.075,-0.268 -0.194,-0.397c-0.119,-0.13 -0.287,-0.221 -0.502,-0.273c-0.216,-0.052 -0.464,-0.027 -0.747,0.077c-0.282,0.104 -0.563,0.366 -0.842,0.787c-0.279,0.421 -0.481,0.939 -0.607,1.554c-0.126,0.615 -0.171,1.212 -0.136,1.793c0.036,0.581 0.105,1.032 0.208,1.354c0.103,0.322 0.159,0.54 0.17,0.655c0.01,0.115 -0.037,0.189 -0.141,0.223c-0.15,0.049 -0.423,0.027 -0.817,-0.066" style="fill:none;fill-rule:nonzero;stroke:#000;stroke-width:0.85px;"/><path d="M161.603,119.008c0.127,0 0.293,-0.007 0.495,-0.021c0.203,-0.014 0.469,-0.036 0.798,-0.067c0.482,-0.045 1.157,-0.07 2.025,-0.073" style="fill:none;fill-rule:nonzero;stroke:#000;stroke-width:0.85px;"/></g></svg>