<?xml version="1.0" encoding="UTF-8" standalone="no"?><!DOCTYPE svg PUBLIC "-//W3C//DTD SVG 1.1//EN" "http://www.w3.org/Graphics/SVG/1.1/DTD/svg11.dtd"><svg width="100%" height="100%" viewBox="0 0 1302 197" version="1.1" xmlns="http://www.w3.org/2000/svg" xmlns:xlink="http://www.w3.org/1999/xlink" xml:space="preserve" xmlns:serif="http://www.serif.com/" style="fill-rule:evenodd;clip-rule:evenodd;stroke-linecap:round;stroke-linejoin:round;stroke-miterlimit:10;"><rect id="Artboard3" x="0" y="0" width="1302" height="197" style="fill:none;"/><rect x="0" y="0" width="1302" height="197" style="fill:#fff;"/><path d="M83.069,83.368c-0.311,0 -0.703,-0.043 -1.175,-0.129c-0.472,-0.086 -0.849,-0.223 -1.13,-0.413c-0.281,-0.189 -0.676,-0.343 -1.185,-0.462c-0.509,-0.119 -1.094,-0.042 -1.756,0.23c-0.662,0.272 -1.348,0.933 -2.06,1.982c-0.712,1.049 -1.272,2.167 -1.68,3.355c-0.408,1.188 -0.653,2.252 -0.734,3.194c-0.081,0.942 -0.094,1.771 -0.039,2.488c0.055,0.717 0.289,1.361 0.7,1.933c0.412,0.572 0.909,1.087 1.492,1.546c0.583,0.459 1.232,0.844 1.947,1.154c0.715,0.31 1.452,0.506 2.209,0.585c0.757,0.08 1.589,0.04 2.493,-0.119c0.905,-0.159 1.853,-0.58 2.845,-1.263c0.992,-0.683 1.85,-1.496 2.573,-2.44c0.723,-0.944 1.268,-1.917 1.635,-2.92c0.367,-1.002 0.59,-1.938 0.67,-2.806c0.08,-0.868 -0.013,-1.63 -0.279,-2.286c-0.266,-0.656 -0.748,-1.244 -1.445,-1.764c-0.697,-0.52 -1.568,-1.072 -2.613,-1.657c-1.045,-0.585 -1.972,-1.081 -2.78,-1.488c-0.809,-0.408 -1.456,-0.661 -1.942,-0.759c-0.486,-0.098 -1.072,-0.025 -1.76,0.218c-0.688,0.243 -1.528,0.965 -2.522,2.165c-0.993,1.2 -1.96,2.618 -2.901,4.252c-0.941,1.634 -1.644,3.219 -2.108,4.756c-0.465,1.537 -0.714,2.904 -0.747,4.103c-0.033,1.198 0.173,2.238 0.616,3.12c0.444,0.881 1.12,1.588 2.027,2.12c0.908,0.532 1.95,0.846 3.125,0.943c1.176,0.097 2.446,-0.182 3.81,-0.836c1.364,-0.654 2.577,-1.627 3.637,-2.916c1.061,-1.29 1.858,-2.683 2.393,-4.179c0.535,-1.496 0.859,-2.903 0.973,-4.22c0.114,-1.317 0.038,-2.468 -0.227,-3.451c-0.265,-0.983 -0.833,-1.923 -1.705,-2.818c-0.872,-0.895 -1.836,-1.663 -2.893,-2.304c-1.057,-0.641 -2.033,-1.059 -2.928,-1.256c-0.895,-0.196 -1.761,-0.221 -2.597,-0.073c-0.837,0.148 -1.731,0.668 -2.681,1.561c-0.951,0.893 -1.786,1.95 -2.506,3.17c-0.72,1.22 -1.245,2.477 -1.576,3.77c-0.33,1.293 -0.482,2.613 -0.454,3.96c0.028,1.347 0.335,2.608 0.921,3.783c0.586,1.175 1.34,2.093 2.261,2.753c0.922,0.66 2.004,1.054 3.247,1.182c1.243,0.128 2.578,-0.004 4.003,-0.394c1.425,-0.39 2.766,-1.054 4.022,-1.993c1.256,-0.939 2.285,-1.958 3.084,-3.058c0.8,-1.1 1.306,-2.198 1.519,-3.293c0.213,-1.095 0.163,-2.199 -0.15,-3.313c-0.313,-1.114 -0.81,-2.113 -1.491,-2.997c-0.681,-0.884 -1.509,-1.546 -2.484,-1.987c-0.975,-0.44 -2.072,-0.669 -3.293,-0.685c-1.22,-0.016 -2.324,0.228 -3.312,0.733c-0.988,0.505 -1.861,1.222 -2.619,2.149c-0.758,0.927 -1.386,2.039 -1.883,3.335c-0.497,1.296 -0.789,2.604 -0.874,3.926c-0.086,1.321 0.144,2.394 0.69,3.218c0.546,0.824 1.452,1.298 2.719,1.421c1.267,0.123 2.528,-0.016 3.783,-0.419c1.255,-0.402 2.268,-1.081 3.039,-2.037c0.772,-0.956 1.223,-1.967 1.354,-3.034c0.131,-1.067 -0.042,-1.895 -0.519,-2.486c-0.477,-0.59 -1.194,-0.853 -2.15,-0.787c-0.956,0.065 -1.786,0.565 -2.49,1.498c-0.704,0.933 -1.141,1.92 -1.311,2.959c-0.17,1.04 -0.065,1.805 0.316,2.295c0.381,0.49 0.881,0.685 1.501,0.585c0.62,-0.1 1.088,-0.51 1.405,-1.231c0.317,-0.72 0.5,-1.372 0.547,-1.954c0.048,-0.582 0.071,-0.941 0.072,-1.076l0,-0.128l0,0.045c0,0.114 0.427,0.114 1.282,-0.001" style="fill:none;fill-rule:nonzero;stroke:#348ad8;stroke-width:7.09px;"/><path d="M280.758,86.375c0.122,-0.14 -0.088,-0.455 -0.63,-0.944c-0.542,-0.489 -1.225,-0.773 -2.048,-0.852c-0.823,-0.079 -1.709,-0.038 -2.659,0.121c-0.95,0.159 -1.838,0.618 -2.666,1.378c-0.828,0.759 -1.463,1.705 -1.905,2.838c-0.442,1.133 -0.671,2.298 -0.687,3.494c-0.015,1.197 0.24,2.291 0.766,3.284c0.527,0.992 1.254,1.824 2.182,2.496c0.928,0.672 2.03,1.102 3.304,1.291c1.275,0.189 2.563,0.023 3.864,-0.499c1.301,-0.522 2.431,-1.397 3.389,-2.625c0.958,-1.228 1.64,-2.593 2.045,-4.096c0.405,-1.503 0.547,-2.957 0.427,-4.362c-0.12,-1.405 -0.528,-2.636 -1.221,-3.694c-0.693,-1.058 -1.392,-1.927 -2.095,-2.609c-0.703,-0.682 -1.378,-1.2 -2.025,-1.555c-0.647,-0.355 -1.338,-0.573 -2.073,-0.653c-0.735,-0.081 -1.502,-0.066 -2.302,0.046c-0.8,0.112 -1.575,0.505 -2.325,1.181c-0.751,0.675 -1.497,1.742 -2.24,3.199c-0.742,1.457 -1.314,3.178 -1.715,5.163c-0.401,1.985 -0.499,3.78 -0.294,5.387c0.205,1.607 0.894,2.702 2.066,3.286c1.172,0.584 2.569,0.754 4.19,0.51c1.622,-0.244 3.153,-0.823 4.594,-1.737c1.441,-0.914 2.623,-1.91 3.545,-2.988c0.923,-1.078 1.551,-2.257 1.885,-3.536c0.335,-1.279 0.326,-2.612 -0.026,-3.998c-0.352,-1.386 -1.135,-2.615 -2.35,-3.688c-1.215,-1.073 -2.422,-1.794 -3.621,-2.163c-1.199,-0.369 -2.343,-0.268 -3.431,0.304c-1.088,0.572 -2.001,1.771 -2.738,3.598c-0.738,1.827 -1.177,3.655 -1.319,5.485c-0.142,1.83 0.079,3.195 0.664,4.095c0.585,0.9 1.469,1.282 2.652,1.147c1.183,-0.135 2.221,-0.759 3.112,-1.872c0.891,-1.113 1.417,-2.471 1.576,-4.074c0.159,-1.603 -0.298,-2.54 -1.373,-2.812c-1.075,-0.272 -2.042,0.079 -2.901,1.052c-0.86,0.973 -1.391,1.98 -1.595,3.022c-0.204,1.041 -0.063,1.817 0.422,2.327c0.486,0.511 1.168,0.745 2.048,0.702c0.88,-0.043 1.591,-0.369 2.134,-0.979c0.543,-0.61 0.877,-1.188 1.001,-1.735c0.124,-0.546 0.187,-0.912 0.188,-1.098l0.002,-0.257l0,0.002c0,0.022 0.192,0.427 0.576,1.215" style="fill:none;fill-rule:nonzero;stroke:#348ad8;stroke-width:7.09px;"/><path d="M549.811,83.459c-0.323,-0.018 -0.597,-0.247 -0.824,-0.685c-0.227,-0.438 -0.503,-0.721 -0.829,-0.848c-0.325,-0.127 -0.76,-0.175 -1.305,-0.143c-0.545,0.032 -1.168,0.369 -1.87,1.01c-0.702,0.642 -1.315,1.548 -1.842,2.719c-0.526,1.171 -0.881,2.4 -1.065,3.688c-0.184,1.288 -0.173,2.42 0.031,3.396c0.204,0.977 0.707,1.722 1.508,2.236c0.801,0.514 1.744,0.828 2.83,0.94c1.085,0.113 2.187,0.119 3.304,0.017c1.117,-0.102 2.145,-0.447 3.085,-1.035c0.939,-0.588 1.715,-1.406 2.327,-2.453c0.612,-1.046 1.035,-2.316 1.271,-3.809c0.235,-1.493 0.351,-3.004 0.348,-4.533c-0.003,-1.529 -0.15,-2.679 -0.441,-3.451c-0.29,-0.772 -0.758,-1.246 -1.403,-1.424c-0.645,-0.177 -1.477,-0.183 -2.498,-0.016c-1.02,0.167 -2.16,0.644 -3.419,1.43c-1.259,0.787 -2.457,1.854 -3.593,3.202c-1.137,1.348 -1.898,2.83 -2.283,4.446c-0.386,1.616 -0.27,3.097 0.348,4.441c0.618,1.345 1.482,2.296 2.591,2.853c1.109,0.557 2.168,0.778 3.176,0.661c1.008,-0.116 1.85,-0.733 2.524,-1.85c0.675,-1.117 1.091,-2.525 1.25,-4.226c0.159,-1.7 0.03,-3.248 -0.389,-4.644c-0.418,-1.396 -1.079,-2.399 -1.981,-3.009c-0.903,-0.611 -1.825,-0.777 -2.768,-0.5c-0.943,0.277 -1.741,1.171 -2.396,2.681c-0.654,1.51 -1.042,3.119 -1.162,4.827c-0.12,1.708 0.142,3.084 0.787,4.128c0.645,1.045 1.517,1.6 2.615,1.665c1.098,0.065 2.037,-0.446 2.817,-1.534c0.78,-1.088 1.241,-2.49 1.382,-4.205c0.141,-1.715 -0.136,-3.125 -0.832,-4.23c-0.696,-1.105 -1.614,-1.133 -2.756,-0.086c-1.142,1.047 -1.835,2.338 -2.081,3.873c-0.246,1.535 -0.28,2.699 -0.105,3.493c0.176,0.794 0.578,1.118 1.206,0.971c0.628,-0.146 1.18,-0.673 1.655,-1.579c0.476,-0.906 0.814,-1.696 1.016,-2.368c0.202,-0.673 0.32,-1.147 0.355,-1.424c0.035,-0.277 0.053,-0.429 0.053,-0.456l0,-0.006l0,0.202c0,0.158 0.023,0.188 0.07,0.09c0.065,-0.137 0.268,0.06 0.608,0.59" style="fill:none;fill-rule:nonzero;stroke:#348ad8;stroke-width:7.09px;"/><path d="M747.155,84.421c0.14,0.069 0.491,0.049 1.054,-0.058c0.344,-0.066 0.539,-0.232 0.587,-0.5c0.047,-0.268 0.057,-0.563 0.03,-0.887c-0.027,-0.324 -0.273,-0.575 -0.738,-0.755c-0.465,-0.18 -1.145,-0.263 -2.038,-0.249c-0.894,0.014 -1.8,0.249 -2.718,0.703c-0.918,0.455 -1.834,1.178 -2.749,2.17c-0.915,0.993 -1.66,2.212 -2.234,3.658c-0.575,1.446 -0.845,2.839 -0.81,4.177c0.034,1.338 0.589,2.442 1.664,3.312c1.075,0.87 2.398,1.443 3.968,1.718c1.57,0.275 3.195,0.221 4.876,-0.165c1.68,-0.385 3.183,-1.232 4.508,-2.539c1.325,-1.307 2.349,-2.86 3.071,-4.658c0.722,-1.799 1.154,-3.56 1.295,-5.285c0.141,-1.725 0,-3.122 -0.422,-4.19c-0.422,-1.069 -1.063,-1.832 -1.921,-2.289c-0.858,-0.457 -1.913,-0.645 -3.165,-0.565c-1.252,0.08 -2.543,0.56 -3.872,1.44c-1.33,0.88 -2.475,2.114 -3.438,3.703c-0.963,1.588 -1.568,3.278 -1.817,5.07c-0.249,1.792 0.014,3.335 0.789,4.632c0.775,1.296 1.915,2.073 3.42,2.333c1.505,0.259 2.929,-0.028 4.271,-0.863c1.343,-0.835 2.279,-2.136 2.81,-3.905c0.531,-1.769 0.564,-3.436 0.101,-5.003c-0.463,-1.566 -1.611,-2.463 -3.444,-2.691c-1.833,-0.228 -3.61,0.407 -5.334,1.903c-1.723,1.496 -2.896,3.298 -3.519,5.407c-0.623,2.108 -0.73,3.724 -0.322,4.847c0.409,1.123 1.202,1.639 2.381,1.548c1.179,-0.091 2.185,-0.669 3.019,-1.735c0.834,-1.066 1.318,-2.16 1.451,-3.284c0.133,-1.124 -0.097,-1.879 -0.691,-2.264c-0.594,-0.386 -1.364,-0.323 -2.31,0.19c-0.946,0.512 -1.57,1.171 -1.87,1.976c-0.3,0.805 -0.281,1.335 0.058,1.59c0.339,0.255 0.764,0.371 1.276,0.347c0.718,-0.034 0.863,-0.705 0.438,-2.011" style="fill:none;fill-rule:nonzero;stroke:#348ad8;stroke-width:7.09px;"/><path d="M1015.186,84.461c0.328,-0.014 0.704,-0.104 1.127,-0.271c0.423,-0.167 0.689,-0.371 0.8,-0.614c0.11,-0.243 0.129,-0.472 0.057,-0.686c-0.072,-0.215 -0.445,-0.395 -1.118,-0.54c-0.673,-0.145 -1.585,-0.215 -2.737,-0.211c-1.152,0.005 -2.401,0.341 -3.747,1.009c-1.347,0.668 -2.456,1.698 -3.328,3.089c-0.872,1.391 -1.385,2.893 -1.537,4.505c-0.153,1.613 0.242,2.969 1.183,4.067c0.941,1.099 2.147,1.828 3.617,2.189c1.47,0.36 2.959,0.464 4.469,0.31c1.51,-0.153 2.986,-0.653 4.428,-1.5c1.442,-0.847 2.623,-1.911 3.541,-3.191c0.918,-1.281 1.471,-2.723 1.657,-4.327c0.186,-1.604 -0.066,-3.073 -0.755,-4.406c-0.69,-1.334 -1.75,-2.286 -3.181,-2.856c-1.431,-0.57 -2.903,-0.753 -4.416,-0.548c-1.513,0.205 -2.821,0.95 -3.924,2.236c-1.103,1.286 -1.827,2.851 -2.171,4.695c-0.344,1.844 -0.295,3.488 0.148,4.931c0.443,1.443 1.297,2.397 2.563,2.859c1.266,0.463 2.539,0.57 3.82,0.323c1.281,-0.248 2.329,-0.92 3.144,-2.016c0.815,-1.096 1.27,-2.285 1.366,-3.565c0.096,-1.28 -0.277,-2.226 -1.118,-2.836c-0.841,-0.61 -1.972,-0.698 -3.392,-0.263c-1.421,0.435 -2.567,1.243 -3.439,2.425c-0.872,1.182 -1.328,2.17 -1.367,2.963c-0.039,0.793 0.314,1.243 1.06,1.348c0.746,0.105 1.478,-0.148 2.197,-0.758c0.718,-0.61 1.267,-1.361 1.645,-2.253c0.378,-0.892 0.602,-1.596 0.672,-2.11c0.07,-0.515 0.105,-0.806 0.105,-0.875c0,-0.068 -0.038,-0.024 -0.115,0.134c-0.11,0.227 -0.458,0.661 -1.043,1.301" style="fill:none;fill-rule:nonzero;stroke:#348ad8;stroke-width:7.09px;"/><path d="M1211.052,85.282c-0.044,-0.153 -0.274,-0.412 -0.69,-0.778c-0.416,-0.366 -1.05,-0.533 -1.899,-0.501c-0.85,0.032 -1.965,0.473 -3.347,1.323c-1.381,0.851 -2.588,2.063 -3.62,3.637c-1.032,1.574 -1.453,3.093 -1.263,4.555c0.19,1.463 1.114,2.52 2.772,3.173c1.658,0.652 3.48,0.968 5.464,0.949c1.985,-0.02 3.758,-0.42 5.319,-1.201c1.561,-0.781 2.698,-1.754 3.41,-2.921c0.712,-1.166 1.108,-2.392 1.188,-3.678c0.08,-1.285 -0.174,-2.437 -0.764,-3.454c-0.59,-1.017 -1.454,-1.783 -2.594,-2.298c-1.139,-0.515 -2.376,-0.82 -3.71,-0.915c-1.334,-0.095 -2.656,0.174 -3.967,0.805c-1.31,0.631 -2.311,1.628 -3.001,2.99c-0.69,1.362 -0.812,2.657 -0.367,3.885c0.445,1.228 1.566,2.125 3.361,2.69c1.795,0.566 3.688,0.786 5.678,0.661c1.99,-0.125 3.559,-0.742 4.707,-1.851c1.148,-1.109 1.669,-2.379 1.564,-3.808c-0.105,-1.43 -1.014,-2.496 -2.727,-3.2c-1.713,-0.704 -3.747,-0.914 -6.101,-0.632c-2.354,0.282 -4.377,1.291 -6.067,3.027c-1.691,1.736 -2.618,3.504 -2.783,5.303c-0.164,1.8 0.618,3.028 2.347,3.684c1.729,0.657 3.594,0.805 5.596,0.445c2.001,-0.36 3.46,-1.189 4.377,-2.488c0.917,-1.299 1.294,-2.57 1.132,-3.813c-0.162,-1.244 -0.944,-2.005 -2.344,-2.285c-1.4,-0.279 -2.668,-0.097 -3.801,0.547c-1.133,0.644 -1.807,1.428 -2.02,2.354c-0.213,0.926 0.051,1.549 0.791,1.87c0.741,0.321 1.575,0.293 2.501,-0.084c0.927,-0.377 1.371,-0.95 1.332,-1.72c-0.039,-0.769 -0.607,-1.293 -1.704,-1.57c-1.097,-0.278 -1.609,-0.296 -1.534,-0.054" style="fill:none;fill-rule:nonzero;stroke:#348ad8;stroke-width:7.09px;"/><path d="M97.925,69.514c0.345,-0.007 0.754,-0.057 1.225,-0.15c0.471,-0.093 1.071,-0.253 1.798,-0.478c0.728,-0.225 1.975,-0.677 3.741,-1.356c1.766,-0.679 4.111,-1.546 7.034,-2.6c2.923,-1.055 5.894,-2.005 8.911,-2.852c3.018,-0.846 5.767,-1.483 8.248,-1.909c2.481,-0.426 4.857,-0.802 7.127,-1.129c2.27,-0.326 4.521,-0.641 6.752,-0.945c2.231,-0.304 4.458,-0.603 6.683,-0.896c2.224,-0.294 4.631,-0.598 7.22,-0.911c2.589,-0.314 5.134,-0.585 7.635,-0.813c2.501,-0.228 4.909,-0.365 7.223,-0.41c2.315,-0.045 4.595,-0.078 6.84,-0.1c2.245,-0.021 4.649,-0.047 7.21,-0.076c2.561,-0.029 5.134,-0.045 7.719,-0.046c2.585,-0.001 5.15,-0.002 7.693,-0.002l7.511,0c2.464,0 4.816,0.057 7.056,0.171c2.24,0.114 4.255,0.345 6.045,0.692c1.79,0.347 3.437,0.718 4.941,1.113c1.504,0.395 3.01,0.77 4.519,1.127c1.509,0.357 2.96,0.702 4.354,1.035c1.394,0.333 2.668,0.692 3.823,1.077c1.154,0.385 2.137,0.73 2.949,1.038c0.812,0.307 1.515,0.569 2.11,0.785c0.595,0.216 1.161,0.406 1.697,0.569c0.536,0.163 1.063,0.292 1.582,0.387c0.519,0.094 0.954,0.158 1.306,0.189c0.352,0.032 0.627,0.058 0.824,0.079c0.197,0.021 0.338,0.032 0.422,0.032c0.085,0 0.138,-0.104 0.16,-0.313c0.023,-0.209 -0.056,-0.655 -0.236,-1.338c-0.18,-0.683 -0.558,-1.463 -1.136,-2.342c-0.578,-0.878 -1.128,-1.691 -1.649,-2.439c-0.522,-0.748 -0.934,-1.355 -1.235,-1.821c-0.302,-0.466 -0.531,-0.795 -0.689,-0.988c-0.158,-0.193 -0.248,-0.277 -0.272,-0.255c-0.024,0.023 0.03,0.335 0.161,0.936c0.131,0.601 0.469,1.38 1.014,2.337c0.545,0.957 1.141,1.888 1.787,2.792c0.646,0.905 1.303,1.774 1.971,2.607c0.668,0.834 1.289,1.597 1.863,2.29c0.573,0.693 1.036,1.341 1.389,1.943c0.352,0.602 0.574,1.119 0.665,1.551c0.091,0.432 -0.019,0.806 -0.331,1.123c-0.311,0.316 -1.055,0.631 -2.23,0.944c-1.71,0.455 -4.41,1.081 -8.1,1.878" style="fill:none;fill-rule:nonzero;stroke:#348ad8;stroke-width:3.54px;"/><path d="M254.053,111.166c-0.261,0.194 -0.613,0.45 -1.054,0.768c-0.441,0.318 -0.99,0.628 -1.645,0.93c-0.655,0.301 -1.507,0.686 -2.555,1.155c-1.049,0.468 -2.257,1.029 -3.623,1.681c-1.367,0.653 -2.856,1.329 -4.468,2.028c-1.611,0.7 -3.335,1.35 -5.17,1.951c-1.835,0.601 -3.739,1.147 -5.713,1.637c-1.973,0.491 -3.808,0.93 -5.503,1.32c-1.695,0.389 -3.251,0.722 -4.665,0.999c-1.415,0.277 -2.825,0.499 -4.229,0.665c-1.405,0.166 -2.903,0.306 -4.495,0.419c-1.592,0.113 -3.272,0.175 -5.038,0.189c-1.767,0.014 -3.623,0.025 -5.57,0.034c-1.947,0.009 -3.948,0.086 -6.005,0.232c-2.056,0.145 -3.972,0.32 -5.748,0.523c-1.775,0.203 -3.416,0.348 -4.923,0.435c-1.507,0.087 -2.988,0.135 -4.444,0.147c-1.455,0.011 -3.033,0.017 -4.734,0.017l-10.377,0c-1.607,0 -3.171,-0.019 -4.693,-0.056c-1.521,-0.038 -2.959,-0.155 -4.313,-0.351c-1.354,-0.197 -2.669,-0.436 -3.946,-0.718c-1.277,-0.282 -2.626,-0.536 -4.046,-0.763c-1.42,-0.226 -2.884,-0.378 -4.392,-0.454c-1.508,-0.077 -3.002,-0.13 -4.484,-0.159c-1.482,-0.029 -2.865,-0.089 -4.148,-0.179c-1.284,-0.09 -2.514,-0.209 -3.69,-0.358c-1.176,-0.149 -2.4,-0.314 -3.672,-0.496c-1.272,-0.182 -2.537,-0.379 -3.795,-0.589c-1.259,-0.211 -2.463,-0.466 -3.612,-0.767c-1.149,-0.3 -2.194,-0.656 -3.134,-1.068c-0.94,-0.412 -1.764,-0.821 -2.471,-1.227c-0.707,-0.406 -1.398,-0.792 -2.075,-1.158c-0.677,-0.366 -1.335,-0.726 -1.977,-1.082c-0.641,-0.355 -1.194,-0.681 -1.658,-0.977c-0.464,-0.296 -0.803,-0.543 -1.014,-0.739c-0.212,-0.197 -0.33,-0.333 -0.355,-0.408c-0.025,-0.075 -0.038,-0.114 -0.038,-0.115l0.014,0.166c0.009,0.112 0.11,0.478 0.303,1.098c0.193,0.62 0.499,1.358 0.918,2.214c0.419,0.856 0.867,1.71 1.343,2.563c0.476,0.853 0.894,1.608 1.253,2.266c0.36,0.658 0.654,1.16 0.881,1.505c0.227,0.345 0.365,0.558 0.412,0.638c0.047,0.08 0.06,0.097 0.04,0.052c-0.021,-0.045 -0.072,-0.158 -0.154,-0.339c-0.082,-0.181 -0.418,-0.688 -1.008,-1.52c-0.59,-0.833 -1.259,-1.74 -2.008,-2.722c-0.749,-0.982 -1.46,-1.905 -2.133,-2.771c-0.673,-0.865 -1.227,-1.618 -1.662,-2.256c-0.435,-0.639 -0.724,-1.101 -0.866,-1.387c-0.142,-0.286 0.056,-0.492 0.593,-0.617c0.537,-0.125 1.67,-0.214 3.398,-0.267c1.728,-0.053 3.607,-0.08 5.638,-0.081c3.103,-0.002 5.774,-0.194 8.011,-0.576" style="fill:none;fill-rule:nonzero;stroke:#348ad8;stroke-width:3.54px;"/><path d="M566.126,68.056c0.196,-0.242 0.419,-0.541 0.67,-0.895c0.251,-0.355 0.423,-0.66 0.518,-0.914c0.095,-0.254 0.148,-0.484 0.16,-0.688c0.013,-0.205 0.019,-0.379 0.019,-0.523c0,-0.144 0.018,-0.277 0.055,-0.399c0.037,-0.122 0.311,-0.286 0.824,-0.493c0.513,-0.207 1.498,-0.529 2.957,-0.964c1.459,-0.436 3.513,-0.98 6.163,-1.632c2.65,-0.652 5.706,-1.342 9.17,-2.07c3.463,-0.728 6.878,-1.419 10.245,-2.072c3.367,-0.653 6.453,-1.202 9.258,-1.645c2.805,-0.443 5.452,-0.775 7.94,-0.996c2.488,-0.221 4.89,-0.369 7.205,-0.444c2.315,-0.075 4.658,-0.114 7.031,-0.115c2.373,-0.001 4.887,-0.002 7.543,-0.002l21.895,0c2.244,0 4.517,0.067 6.817,0.2c2.301,0.133 4.503,0.355 6.607,0.665c2.104,0.31 4.193,0.647 6.266,1.01c2.073,0.363 4.165,0.704 6.274,1.021c2.109,0.317 4.043,0.608 5.8,0.871c1.758,0.264 3.374,0.546 4.85,0.848c1.475,0.302 2.927,0.63 4.355,0.984c1.428,0.354 2.866,0.698 4.314,1.033c1.448,0.334 2.824,0.658 4.128,0.973c1.304,0.314 2.472,0.672 3.505,1.074c1.033,0.402 1.977,0.81 2.833,1.227c0.855,0.416 1.66,0.798 2.414,1.146c0.754,0.348 1.385,0.616 1.893,0.805c0.508,0.189 0.834,0.296 0.977,0.321c0.143,0.025 0.221,0.01 0.233,-0.046c0.013,-0.056 0.015,-0.323 0.005,-0.801c-0.009,-0.478 -0.082,-1.132 -0.218,-1.961c-0.136,-0.829 -0.338,-1.768 -0.606,-2.816c-0.268,-1.048 -0.569,-2.028 -0.904,-2.939c-0.335,-0.911 -0.626,-1.603 -0.872,-2.077c-0.246,-0.474 -0.428,-0.752 -0.545,-0.836c-0.117,-0.083 -0.182,0.134 -0.194,0.651c-0.013,0.517 0.13,1.298 0.426,2.341c0.297,1.043 0.736,2.107 1.317,3.191c0.581,1.085 1.224,2.13 1.93,3.136c0.705,1.006 1.399,1.933 2.08,2.781c0.681,0.848 1.255,1.58 1.722,2.196c0.467,0.616 0.762,1.149 0.884,1.6c0.123,0.451 -0.033,0.793 -0.469,1.026c-0.436,0.233 -1.284,0.362 -2.546,0.387c-1.846,0.037 -4.395,0.057 -7.648,0.059" style="fill:none;fill-rule:nonzero;stroke:#348ad8;stroke-width:3.54px;"/><path d="M726.446,110.072c-0.619,0.071 -1.27,0.177 -1.951,0.319c-0.682,0.141 -1.35,0.307 -2.005,0.497c-0.655,0.19 -1.35,0.435 -2.085,0.734c-0.735,0.299 -1.559,0.65 -2.473,1.051c-0.914,0.402 -1.963,0.83 -3.146,1.284c-1.184,0.455 -2.549,0.895 -4.095,1.322c-1.546,0.426 -3.255,0.876 -5.128,1.349c-1.872,0.473 -3.83,1.001 -5.873,1.585c-2.043,0.584 -4.049,1.156 -6.017,1.716c-1.968,0.56 -3.919,1.027 -5.854,1.399c-1.934,0.372 -3.907,0.686 -5.918,0.942c-2.011,0.256 -4.059,0.5 -6.145,0.734c-2.086,0.234 -4.119,0.429 -6.099,0.584c-1.98,0.155 -4.013,0.275 -6.098,0.358c-2.085,0.083 -4.295,0.131 -6.63,0.144c-2.335,0.013 -4.653,0.019 -6.954,0.019c-2.301,0 -4.591,-0.009 -6.871,-0.027c-2.28,-0.018 -4.524,-0.078 -6.733,-0.177c-2.209,-0.1 -4.437,-0.195 -6.684,-0.287c-2.247,-0.091 -4.456,-0.211 -6.628,-0.36c-2.171,-0.149 -4.325,-0.357 -6.461,-0.625c-2.136,-0.268 -4.25,-0.589 -6.341,-0.962c-2.091,-0.373 -4.049,-0.704 -5.871,-0.992c-1.823,-0.288 -3.505,-0.549 -5.046,-0.782c-1.541,-0.233 -2.871,-0.51 -3.99,-0.829c-1.119,-0.32 -2.126,-0.672 -3.022,-1.056c-0.896,-0.385 -1.809,-0.73 -2.738,-1.038c-0.929,-0.307 -1.856,-0.559 -2.78,-0.755c-0.923,-0.196 -1.773,-0.375 -2.548,-0.538c-0.775,-0.163 -1.493,-0.359 -2.154,-0.588c-0.661,-0.228 -1.378,-0.475 -2.153,-0.739c-0.774,-0.264 -1.553,-0.48 -2.335,-0.646c-0.783,-0.166 -1.515,-0.315 -2.195,-0.446c-0.681,-0.131 -1.313,-0.286 -1.895,-0.466c-0.583,-0.18 -1.108,-0.381 -1.577,-0.604c-0.468,-0.223 -0.949,-0.455 -1.443,-0.697c-0.494,-0.242 -1.009,-0.456 -1.545,-0.641c-0.536,-0.185 -1.029,-0.33 -1.48,-0.434c-0.451,-0.104 -0.836,-0.196 -1.154,-0.278c-0.319,-0.082 -0.576,-0.153 -0.773,-0.214c-0.197,-0.061 -0.352,-0.112 -0.466,-0.154c-0.114,-0.042 -0.207,-0.058 -0.279,-0.05c-0.072,0.008 -0.114,0.19 -0.127,0.545c-0.013,0.355 0.009,0.917 0.065,1.686c0.056,0.769 0.26,1.604 0.615,2.503c0.354,0.9 0.725,1.723 1.113,2.471c0.388,0.748 0.72,1.34 0.997,1.777c0.277,0.437 0.489,0.755 0.637,0.955c0.148,0.2 0.233,0.304 0.257,0.309c0.024,0.006 0.022,-0.178 -0.005,-0.553c-0.027,-0.374 -0.183,-0.957 -0.466,-1.747c-0.283,-0.79 -0.598,-1.602 -0.945,-2.434c-0.346,-0.833 -0.643,-1.596 -0.889,-2.29c-0.247,-0.694 -0.443,-1.274 -0.589,-1.74c-0.146,-0.466 -0.241,-0.843 -0.284,-1.131c-0.043,-0.288 -0.042,-0.515 0.002,-0.681c0.044,-0.165 0.358,-0.315 0.941,-0.447c0.583,-0.133 1.471,-0.236 2.664,-0.31c1.193,-0.074 2.653,-0.127 4.381,-0.157c1.728,-0.03 3.397,-0.065 5.009,-0.105c2.628,-0.064 4.387,-0.197 5.276,-0.397" style="fill:none;fill-rule:nonzero;stroke:#348ad8;stroke-width:3.54px;"/><path d="M55.635,55.933c0.357,0 0.769,-0.037 1.236,-0.112c0.467,-0.075 0.786,-0.299 0.959,-0.674c0.172,-0.374 0.227,-0.804 0.165,-1.289c-0.062,-0.485 -0.347,-0.951 -0.856,-1.4c-0.509,-0.449 -1.178,-0.784 -2.01,-1.007c-0.831,-0.223 -1.755,-0.286 -2.773,-0.191c-1.017,0.095 -2.067,0.631 -3.151,1.606c-1.083,0.976 -2.033,2.315 -2.849,4.016c-0.816,1.702 -1.313,3.38 -1.489,5.036c-0.177,1.656 0.062,2.867 0.716,3.633c0.654,0.766 1.564,1.155 2.728,1.168c1.165,0.013 2.414,-0.313 3.747,-0.978c1.333,-0.665 2.563,-1.446 3.69,-2.345c1.127,-0.898 2.042,-1.808 2.747,-2.729c0.704,-0.92 1.239,-1.847 1.604,-2.78c0.365,-0.933 0.593,-1.793 0.684,-2.582c0.091,-0.788 0.123,-1.363 0.096,-1.724c-0.027,-0.361 -0.13,-0.576 -0.308,-0.645c-0.178,-0.069 -0.33,-0.099 -0.455,-0.09c-0.125,0.009 -0.204,0.191 -0.238,0.546c-0.034,0.355 -0.051,0.922 -0.051,1.7c-0,0.778 0.028,1.661 0.085,2.647c0.057,0.987 0.223,1.987 0.498,3.002c0.276,1.015 0.604,1.912 0.986,2.693c0.557,1.141 1.497,1.816 2.821,2.026" style="fill:none;fill-rule:nonzero;stroke:#000;stroke-width:3.54px;"/><path d="M288.073,41.123c-0.347,-0.181 -0.745,-0.578 -1.192,-1.192c-0.287,-0.394 -0.438,-0.579 -0.451,-0.556c-0.014,0.023 -0.021,0.56 -0.021,1.61c0,1.05 0.019,2.525 0.056,4.425c0.038,1.9 0.15,3.967 0.338,6.2c0.188,2.234 0.378,4.187 0.572,5.859c0.193,1.672 0.348,2.806 0.464,3.403c0.116,0.596 0.227,0.85 0.335,0.76c0.108,-0.09 0.424,-0.572 0.95,-1.445c0.526,-0.874 1.298,-1.772 2.318,-2.694c1.019,-0.923 2.086,-1.566 3.202,-1.931c1.115,-0.365 2.157,-0.505 3.125,-0.422c0.968,0.084 1.84,0.499 2.618,1.245c0.778,0.747 1.382,1.682 1.814,2.806c0.432,1.124 0.663,2.192 0.695,3.205c0.032,1.013 -0.183,1.817 -0.645,2.411c-0.462,0.594 -1.182,1.003 -2.16,1.227c-0.978,0.224 -2.091,0.326 -3.339,0.304c-1.248,-0.021 -2.478,-0.29 -3.69,-0.805c-1.212,-0.515 -1.984,-0.894 -2.314,-1.135c-0.471,-0.344 -0.471,-1.41 -0.002,-3.199" style="fill:none;fill-rule:nonzero;stroke:#000;stroke-width:3.54px;"/><path d="M522.742,40.531l-1.699,0c-0.379,0 -0.561,0.06 -0.547,0.18c0.014,0.12 0.186,0.693 0.516,1.718c0.33,1.025 0.718,2.328 1.164,3.908c0.446,1.58 0.815,3.08 1.106,4.5c0.291,1.42 0.49,2.586 0.598,3.498c0.107,0.912 0.172,1.534 0.195,1.869c0.023,0.334 0.034,0.51 0.034,0.526c0,0.016 0.009,-0.011 0.025,-0.081c0.017,-0.071 0.059,-0.247 0.126,-0.53c0.067,-0.283 0.413,-0.829 1.038,-1.639c0.625,-0.81 1.478,-1.517 2.558,-2.119c1.081,-0.602 2.258,-0.95 3.53,-1.041c1.272,-0.092 2.476,0.279 3.61,1.111c1.135,0.833 1.987,1.915 2.558,3.245c0.57,1.331 0.869,2.501 0.896,3.511c0.027,1.01 -0.288,1.791 -0.944,2.342c-0.657,0.552 -1.703,0.964 -3.138,1.236c-1.435,0.272 -2.949,0.432 -4.541,0.48c-1.592,0.048 -2.973,-0.041 -4.142,-0.265c-1.169,-0.224 -1.486,-0.668 -0.949,-1.332" style="fill:none;fill-rule:nonzero;stroke:#000;stroke-width:3.54px;"/><path d="M771.655,44.28c0.454,0.013 0.678,-0.194 0.671,-0.623c-0.005,-0.304 -0.298,-0.593 -0.879,-0.865c-0.581,-0.272 -1.322,-0.512 -2.221,-0.719c-0.899,-0.207 -1.961,-0.333 -3.186,-0.38c-1.225,-0.046 -2.554,0.169 -3.986,0.645c-1.432,0.476 -2.74,1.331 -3.922,2.566c-1.183,1.235 -1.996,2.556 -2.439,3.965c-0.443,1.409 -0.408,2.625 0.108,3.647c0.515,1.022 1.48,1.718 2.896,2.085c1.415,0.368 2.898,0.495 4.448,0.381c1.55,-0.114 2.97,-0.597 4.262,-1.45c1.291,-0.853 2.287,-1.947 2.988,-3.282c0.701,-1.335 1.108,-2.634 1.22,-3.896c0.112,-1.262 0.011,-1.135 -0.304,0.382c-0.315,1.517 -0.345,2.914 -0.093,4.192c0.253,1.278 0.912,2.397 1.977,3.356c1.065,0.959 1.837,1.553 2.314,1.78c0.68,0.325 1.622,-0.144 2.825,-1.405" style="fill:none;fill-rule:nonzero;stroke:#000;stroke-width:3.54px;"/><path d="M998.123,53.527c-0.12,0.062 -0.476,0.047 -1.068,-0.046c-0.355,-0.056 -0.595,-0.285 -0.72,-0.687c-0.125,-0.403 -0.285,-0.857 -0.48,-1.363c-0.195,-0.506 -0.555,-0.902 -1.078,-1.187c-0.523,-0.285 -1.306,-0.353 -2.348,-0.203c-1.042,0.15 -2.23,0.785 -3.564,1.904c-1.333,1.119 -2.458,2.494 -3.374,4.123c-0.916,1.63 -1.396,3.094 -1.441,4.394c-0.045,1.3 0.536,2.153 1.744,2.561c1.207,0.408 2.675,0.496 4.404,0.265c1.729,-0.231 3.324,-0.738 4.785,-1.523c1.461,-0.785 2.654,-1.642 3.577,-2.571c0.924,-0.929 1.558,-1.865 1.902,-2.807c0.345,-0.942 0.502,-1.812 0.473,-2.612c-0.029,-0.8 -0.188,-1.38 -0.477,-1.743c-0.288,-0.363 -0.545,-0.535 -0.77,-0.518c-0.225,0.017 -0.387,0.381 -0.484,1.091c-0.098,0.71 -0.072,1.623 0.077,2.74c0.149,1.117 0.545,2.224 1.187,3.322c0.957,1.635 2.244,2.829 3.862,3.58" style="fill:none;fill-rule:nonzero;stroke:#000;stroke-width:3.54px;"/><path d="M1213.149,34.971l0,1.735c0,0.753 0.065,1.773 0.197,3.058c0.131,1.286 0.451,2.902 0.958,4.849c0.508,1.947 0.987,3.873 1.437,5.778c0.45,1.905 0.805,3.428 1.066,4.568c0.261,1.14 0.415,1.815 0.463,2.024c0.047,0.209 0.08,0.272 0.097,0.189c0.017,-0.083 0.06,-0.292 0.129,-0.626c0.069,-0.334 0.274,-1.039 0.617,-2.116c0.343,-1.077 0.939,-2.156 1.788,-3.238c0.85,-1.082 1.888,-1.878 3.115,-2.39c1.227,-0.511 2.441,-0.671 3.641,-0.478c1.2,0.193 2.224,0.92 3.072,2.182c0.848,1.261 1.366,2.594 1.554,3.998c0.188,1.404 -0.15,2.553 -1.014,3.448c-0.864,0.894 -2.148,1.473 -3.853,1.737c-1.704,0.264 -3.367,0.328 -4.989,0.191c-1.622,-0.136 -2.826,-0.364 -3.612,-0.682c-0.786,-0.318 -1.224,-0.868 -1.313,-1.649" style="fill:none;fill-rule:nonzero;stroke:#000;stroke-width:3.54px;"/><path d="M368.984,91.388c-0.242,0.272 -0.517,0.531 -0.825,0.776c-0.308,0.245 -0.476,0.374 -0.502,0.388c-0.026,0.014 0.006,0.021 0.098,0.021l0.686,0c0.366,0 1.14,-0.028 2.325,-0.085c1.184,-0.056 2.641,-0.17 4.372,-0.341c1.731,-0.171 3.779,-0.303 6.144,-0.398c2.365,-0.094 5.018,-0.148 7.958,-0.16c2.94,-0.013 5.877,-0.019 8.812,-0.019l15.925,0c2.278,0 4.306,-0.01 6.084,-0.029c1.778,-0.019 3.388,-0.034 4.828,-0.045c1.44,-0.011 2.723,0.035 3.847,0.14c1.124,0.105 2.122,0.249 2.993,0.432c0.871,0.183 1.595,0.298 2.172,0.343c0.578,0.046 1.014,0.069 1.308,0.07c0.295,0 0.466,0 0.513,0c0.048,0 0.067,0.076 0.058,0.229c-0.009,0.152 -0.243,0.461 -0.704,0.925c-0.46,0.465 -1.2,1.053 -2.218,1.765c-1.019,0.712 -2.062,1.429 -3.13,2.151c-1.068,0.722 -1.954,1.346 -2.659,1.871c-0.704,0.525 -1.205,0.9 -1.504,1.124c-0.298,0.224 -0.461,0.348 -0.487,0.374c-0.026,0.025 -0.018,0.011 0.025,-0.042c0.043,-0.053 0.152,-0.187 0.325,-0.4c0.174,-0.213 0.69,-0.659 1.55,-1.338c0.859,-0.679 1.878,-1.369 3.055,-2.07c1.178,-0.701 2.365,-1.347 3.563,-1.939c1.198,-0.592 2.215,-1.133 3.052,-1.623c0.837,-0.491 1.398,-0.91 1.682,-1.258c0.285,-0.348 0.225,-0.717 -0.178,-1.108c-0.404,-0.391 -1.222,-0.852 -2.455,-1.384c-1.233,-0.532 -2.5,-1.078 -3.802,-1.636c-1.301,-0.559 -2.296,-0.983 -2.986,-1.272l-0.517,-0.217l1.551,0.65" style="fill:none;fill-rule:nonzero;stroke:#000;stroke-width:3.54px;"/><path d="M851.663,89.921c-0.111,0.159 -0.333,0.377 -0.667,0.655c-0.21,0.175 -0.176,0.263 0.101,0.264c0.278,0.001 1.028,-0.012 2.251,-0.04c1.223,-0.028 2.725,-0.087 4.505,-0.177c1.78,-0.09 4.238,-0.209 7.371,-0.358c3.133,-0.149 6.813,-0.299 11.039,-0.452c4.226,-0.153 8.319,-0.263 12.278,-0.329c3.96,-0.066 7.308,-0.099 10.044,-0.1c2.736,-0 5.152,0.004 7.247,0.013c2.095,0.009 3.889,0.043 5.381,0.103c1.492,0.06 2.664,0.115 3.518,0.167c0.853,0.052 1.489,0.078 1.906,0.08c0.418,0.001 0.755,0.002 1.01,0.002l1.068,0c0.065,0 0.099,0.119 0.102,0.357c0.002,0.238 -0.174,0.666 -0.53,1.283c-0.355,0.617 -0.927,1.275 -1.715,1.975c-0.788,0.7 -1.594,1.326 -2.419,1.88c-0.824,0.554 -1.525,0.997 -2.103,1.33c-0.578,0.333 -1.005,0.539 -1.279,0.619c-0.275,0.08 -0.332,-0.022 -0.171,-0.305c0.16,-0.283 0.786,-0.878 1.876,-1.783c1.09,-0.905 2.338,-1.826 3.745,-2.762c1.406,-0.937 2.627,-1.783 3.661,-2.538c1.034,-0.755 1.711,-1.467 2.03,-2.136c0.319,-0.669 0.276,-1.42 -0.129,-2.252c-0.405,-0.833 -1.208,-1.71 -2.409,-2.633c-1.771,-1.36 -4,-2.173 -6.686,-2.437" style="fill:none;fill-rule:nonzero;stroke:#000;stroke-width:3.54px;"/><path d="M382.746,157.558c-0.124,0.282 -0.246,0.592 -0.366,0.93c-0.12,0.339 -0.01,0.556 0.33,0.653c0.34,0.097 1.186,0.104 2.537,0.023c1.351,-0.082 2.975,-0.451 4.87,-1.108c1.896,-0.657 3.56,-1.448 4.993,-2.374c1.433,-0.926 2.444,-1.922 3.034,-2.989c0.59,-1.067 0.754,-2.184 0.494,-3.351c-0.26,-1.167 -0.984,-2.129 -2.171,-2.886c-1.188,-0.757 -2.47,-1.261 -3.846,-1.513c-1.377,-0.251 -2.758,-0.242 -4.143,0.026c-1.385,0.269 -2.831,0.971 -4.336,2.107c-1.505,1.136 -2.933,2.589 -4.282,4.359c-1.349,1.77 -2.333,3.753 -2.952,5.95c-0.618,2.197 -0.823,4.243 -0.612,6.139c0.211,1.896 0.922,3.362 2.133,4.398c1.211,1.036 2.777,1.678 4.696,1.925c1.92,0.247 4.097,0.138 6.533,-0.328c2.435,-0.465 4.806,-1.108 7.111,-1.928c3.787,-1.347 6.195,-2.392 7.222,-3.136" style="fill:none;fill-rule:nonzero;stroke:#000;stroke-width:3.54px;"/><path d="M403.162,131.673c-0.395,0 -0.788,0.085 -1.18,0.256c-0.392,0.171 -0.627,0.572 -0.705,1.203c-0.078,0.631 -0.027,1.391 0.153,2.279c0.179,0.888 0.547,1.606 1.102,2.153l0.416,0.41l-1.249,-1.231" style="fill:none;fill-rule:nonzero;stroke:#000;stroke-width:3.54px;"/><path d="M404.529,120.372l-0.752,-0.273l0.25,0.091" style="fill:none;fill-rule:nonzero;stroke:#000;stroke-width:3.54px;"/><path d="M857.236,155.097c0.161,0.29 0.408,0.582 0.74,0.877c0.333,0.295 0.742,0.49 1.229,0.585c0.486,0.095 1.172,0.163 2.056,0.205c0.885,0.042 2.031,-0.027 3.44,-0.205c1.409,-0.179 2.938,-0.628 4.588,-1.348c1.65,-0.72 3.045,-1.588 4.186,-2.603c1.141,-1.016 1.853,-2.09 2.136,-3.221c0.283,-1.132 0.052,-2.159 -0.693,-3.083c-0.745,-0.923 -1.893,-1.632 -3.446,-2.126c-1.552,-0.494 -3.125,-0.717 -4.718,-0.669c-1.593,0.048 -3.131,0.66 -4.614,1.838c-1.483,1.177 -2.791,2.86 -3.925,5.049c-1.134,2.189 -1.83,4.413 -2.088,6.673c-0.258,2.26 0.051,4.088 0.928,5.482c0.877,1.395 2.183,2.315 3.92,2.761c1.737,0.446 3.784,0.565 6.143,0.357c2.358,-0.208 4.773,-0.653 7.243,-1.335c2.471,-0.682 4.797,-1.455 6.978,-2.321" style="fill:none;fill-rule:nonzero;stroke:#000;stroke-width:3.54px;"/><path d="M873.459,125.931l0,-1.412c0,-0.525 0.069,-1 0.206,-1.424c0.138,-0.423 0.632,-0.803 1.482,-1.138c0.85,-0.335 1.824,-0.498 2.921,-0.488c1.097,0.01 2.065,0.314 2.905,0.914c0.84,0.599 1.305,1.547 1.395,2.843c0.091,1.295 -0.26,2.721 -1.054,4.277c-0.793,1.556 -1.509,2.951 -2.147,4.187c-0.638,1.236 -0.91,2.12 -0.818,2.652c0.093,0.532 0.718,0.814 1.875,0.845c1.704,0.046 3.723,-0.238 6.056,-0.853" style="fill:none;fill-rule:nonzero;stroke:#000;stroke-width:3.54px;"/><path d="M894.878,132.129c0.189,0.777 0.312,1.716 0.37,2.819c0.058,1.103 0.119,2.057 0.186,2.861c0.067,0.805 0.124,1.283 0.173,1.433c0.068,0.211 0.281,-0.142 0.64,-1.057" style="fill:none;fill-rule:nonzero;stroke:#000;stroke-width:3.54px;"/><path d="M897.446,125.016c-0.024,-0.088 -0.02,-0.403 0.012,-0.947c0.018,-0.31 0.177,-0.473 0.477,-0.487c0.43,-0.02 0.787,0.275 1.072,0.884" style="fill:none;fill-rule:nonzero;stroke:#000;stroke-width:3.54px;"/><path d="M914.291,130.033l0,-1.301c0,-0.449 -0.09,-0.782 -0.271,-0.998c-0.181,-0.216 -0.572,-0.373 -1.174,-0.469c-0.602,-0.097 -1.403,-0.085 -2.403,0.035c-1,0.12 -1.976,0.534 -2.928,1.241c-0.952,0.708 -1.603,1.526 -1.951,2.456c-0.349,0.93 -0.38,1.779 -0.092,2.547c0.287,0.768 0.979,1.334 2.076,1.697c1.097,0.363 2.434,0.54 4.01,0.53c1.577,-0.01 3.197,-0.244 4.861,-0.701c1.664,-0.458 3.085,-0.957 4.263,-1.498c1.179,-0.541 1.898,-0.893 2.159,-1.055c0.368,-0.23 -0.044,-1.049 -1.235,-2.455" style="fill:none;fill-rule:nonzero;stroke:#000;stroke-width:3.54px;"/><path d="M917.481,118.184c-0.161,0.397 -0.384,0.788 -0.67,1.173c-0.285,0.385 -0.53,1.008 -0.735,1.87c-0.205,0.862 -0.408,2.265 -0.609,4.209c-0.201,1.944 -0.399,4.14 -0.593,6.587c-0.193,2.447 -0.367,4.583 -0.521,6.41c-0.154,1.826 -0.263,3.07 -0.328,3.73c-0.064,0.66 -0.08,0.956 -0.047,0.885c0.047,-0.1 0.193,-0.416 0.44,-0.948" style="fill:none;fill-rule:nonzero;stroke:#000;stroke-width:3.54px;"/><path d="M419.203,127.025c0.393,-0.137 0.763,-0.344 1.108,-0.623c0.345,-0.278 0.531,-0.495 0.557,-0.651c0.026,-0.156 -0.105,-0.241 -0.394,-0.255c-0.289,-0.014 -0.742,0.026 -1.36,0.12c-0.619,0.094 -1.311,0.344 -2.077,0.75c-0.766,0.406 -1.496,0.87 -2.19,1.392c-0.694,0.522 -1.279,1.096 -1.756,1.722c-0.477,0.625 -0.762,1.253 -0.856,1.881c-0.094,0.629 0.007,1.213 0.301,1.753c0.295,0.54 0.845,1.007 1.651,1.399c0.806,0.393 1.756,0.655 2.848,0.786c1.093,0.132 2.309,0.147 3.65,0.045c1.341,-0.102 2.59,-0.351 3.747,-0.749c1.157,-0.398 2.112,-0.838 2.865,-1.321c0.753,-0.483 1.382,-1.045 1.886,-1.685c0.504,-0.64 0.926,-1.374 1.266,-2.199c0.34,-0.826 0.58,-1.592 0.719,-2.299c0.139,-0.708 0.215,-1.25 0.228,-1.628c0.013,-0.378 -0.018,-0.64 -0.093,-0.787c-0.075,-0.147 -0.314,-0.324 -0.718,-0.531c-0.404,-0.207 -0.858,-0.501 -1.363,-0.881c-0.505,-0.38 -1.03,-0.72 -1.576,-1.02c-0.546,-0.3 -0.91,-0.473 -1.092,-0.518c-0.26,-0.064 -0.605,0.165 -1.033,0.688" style="fill:none;fill-rule:nonzero;stroke:#000;stroke-width:3.54px;"/><path d="M423.368,116.678c0.141,0.089 0.305,0.423 0.493,1.002c0.115,0.355 0.135,0.88 0.06,1.575c-0.076,0.695 -0.242,1.854 -0.5,3.477c-0.258,1.623 -0.581,3.682 -0.971,6.178c-0.389,2.496 -0.851,5.006 -1.385,7.529c-0.534,2.523 -0.927,4.424 -1.178,5.701l-0.189,0.958l0.566,-2.874" style="fill:none;fill-rule:nonzero;stroke:#000;stroke-width:3.54px;"/><g transform="matrix(1,0,0,1,3.511307,-129.790634)"><g transform="matrix(2.469144,0,0,1,-57.765805,0)"><text x="39.319px" y="194.428px" style="font-family:'Helvetica';font-size:16.06px;fill:none;">a</text></g><g transform="matrix(17.458491,0,0,1,-1524.747924,0)"><g transform="matrix(18.417265,0,0,18.417265,98.77512,199.160354)"></g><text x="92.642px" y="199.16px" style="font-family:'Helvetica';font-size:18.417px;fill:none;">-</text></g></g><g transform="matrix(1,0,0,1,717.44055,-140.642325)"><g transform="matrix(1.468811,0,0,1,-231.56276,0)"><text x="493.936px" y="196.706px" style="font-family:'Helvetica';font-size:24.013px;fill:none;">b</text></g><g transform="matrix(2.788536,0,0,1,-473.552031,0)"><g transform="matrix(14.54914,0,0,14.54914,272.862238,202.538575)"></g><text x="264.771px" y="202.539px" style="font-family:'Helvetica';font-size:14.549px;fill:none;">a</text></g></g><g transform="matrix(1,0,0,1,187.28393,-137.109013)"><g transform="matrix(2.960215,0,0,1,-1109.425096,0)"><text x="565.971px" y="191.7px" style="font-family:'Helvetica';font-size:15.479px;fill:none;">a</text></g><g transform="matrix(1.556188,0,0,1,-184.331554,0)"><text x="331.419px" y="196.875px" style="font-family:'Helvetica';font-size:22.063px;fill:none;">b</text></g><g transform="matrix(1.267679,0,0,1,-26.059334,0)"><g transform="matrix(25.619275,0,0,25.619275,111.60104,199.071106)"></g><text x="97.353px" y="199.071px" style="font-family:'Helvetica';font-size:25.619px;fill:none;">b</text></g></g><g transform="matrix(1,0,0,0.055732,0,-119.998046)"><g transform="matrix(324.93045,0,0,324.93045,672.558129,3403.241087)"></g><text x="564.354px" y="3403.241px" style="font-family:'Helvetica';font-size:324.93px;fill:none;">-</text></g><g transform="matrix(1,0,0,0.84283,-0,-16.830446)"><g transform="matrix(29.336365,0,0,29.336365,91.583164,140.676799)"></g><text x="66.207px" y="140.677px" style="font-family:'AppleSDGothicNeo-Regular', 'Apple SD Gothic Neo';font-size:29.336px;fill:none;">⑧</text></g><g transform="matrix(1,0,0,0.80181,0,-21.714728)"><g transform="matrix(28.54373,0,0,28.54373,758.63366,148.15615)"></g><text x="733.943px" y="148.156px" style="font-family:'AppleSDGothicNeo-Regular', 'Apple SD Gothic Neo';font-size:28.544px;fill:none;">⑧</text></g><g transform="matrix(1,0,0,0.056213,0,-102.176929)"><g transform="matrix(364.495621,0,0,364.495621,970.289056,3527.979412)"></g><text x="848.909px" y="3527.979px" style="font-family:'Helvetica';font-size:364.496px;fill:none;">-</text></g><g transform="matrix(1,0,0,0.871815,0,-14.099086)"><g transform="matrix(23.591905,0,0,23.591905,552.461442,124.97775)"></g><text x="538.258px" y="124.978px" style="font-family:'Menlo-Regular', 'Menlo', monospace;font-size:23.592px;fill:none;">ᶖ</text></g><g transform="matrix(1,0,0,1,173.119335,-106.492995)"><g transform="matrix(2.201714,0,0,1,-1229.695653,0)"><text x="1023.285px" y="203.349px" style="font-family:'Helvetica';font-size:18.241px;fill:none;">6</text></g><g transform="matrix(1.117972,0,0,1,-10.957237,0)"><g transform="matrix(23.115411,0,0,23.115411,112.874621,204.226038)"></g><text x="92.88px" y="204.226px" style="font-family:'AppleSDGothicNeo-Regular', 'Apple SD Gothic Neo';font-size:23.115px;fill:none;">⑧</text></g></g><g transform="matrix(1,0,0,0.103647,0,-92.523086)"><g transform="matrix(147.494057,0,0,147.494057,414.961673,1848.25237)"></g><text x="365.845px" y="1848.252px" style="font-family:'Helvetica';font-size:147.494px;fill:none;">-</text></g><g transform="matrix(1,0,0,0.13603,0,-89.180426)"><g transform="matrix(112.381597,0,0,112.381597,431.474097,1383.684137)"></g><text x="365.845px" y="1383.684px" style="font-family:'Helvetica';font-size:112.382px;fill:none;">&gt;</text></g><g transform="matrix(1,0,0,0.051386,0,-79.899309)"><g transform="matrix(304.510673,0,0,304.510673,203.337725,3973.731749)"></g><text x="101.933px" y="3973.732px" style="font-family:'Helvetica';font-size:304.511px;fill:none;">-</text></g><g transform="matrix(1,0,0,0.074008,0,-80.098181)"><g transform="matrix(222.749317,0,0,222.749317,711.467888,2729.450258)"></g><text x="562.896px" y="2729.45px" style="font-family:'Helvetica';font-size:222.749px;fill:none;">&amp;</text></g><g transform="matrix(1,0,0,0.678685,0,-24.876751)"><g transform="matrix(35.204127,0,0,35.204127,923.297476,241.70034)"></g><text x="871.687px" y="241.7px" style="font-family:'Helvetica';font-size:35.204px;fill:none;">2<tspan x="893.582px 903.719px " y="241.7px 241.7px ">i4</tspan></text></g><g transform="matrix(1,0,0,1,255.357067,-78.10129)"><g transform="matrix(2.081423,0,0,1,-155.759692,0)"><text x="144.032px" y="218.238px" style="font-family:'Helvetica';font-size:26.499px;fill:none;">i<tspan x="151.399px " y="218.238px ">f</tspan></text></g><g transform="matrix(2.231034,0,0,1,-146.307951,0)"><g transform="matrix(24.464662,0,0,24.464662,132.455679,244.203158)"></g><text x="118.85px" y="244.203px" style="font-family:'Helvetica';font-size:24.465px;fill:none;">e</text></g></g><g transform="matrix(1,0,0,0.439175,0,-32.860341)"><g transform="matrix(49.777177,0,0,49.777177,881.652861,444.788155)"></g><text x="853.969px" y="444.788px" style="font-family:'Helvetica';font-size:49.777px;fill:none;">e</text></g></svg>