<?xml version="1.0" encoding="UTF-8" standalone="no"?><!DOCTYPE svg PUBLIC "-//W3C//DTD SVG 1.1//EN" "http://www.w3.org/Graphics/SVG/1.1/DTD/svg11.dtd"><svg width="100%" height="100%" viewBox="0 0 833 171" version="1.1" xmlns="http://www.w3.org/2000/svg" xmlns:xlink="http://www.w3.org/1999/xlink" xml:space="preserve" xmlns:serif="http://www.serif.com/" style="fill-rule:evenodd;clip-rule:evenodd;stroke-linecap:round;stroke-linejoin:round;stroke-miterlimit:10;"><rect id="Artboard4" x="0" y="0" width="833" height="171" style="fill:none;"/><rect x="0" y="0" width="833" height="171" style="fill:#fff;"/><path d="M99.064,76.722c-0.08,-0.083 -0.313,-0.323 -0.698,-0.719c-0.386,-0.396 -0.768,-0.687 -1.147,-0.871c-0.379,-0.185 -0.82,-0.3 -1.321,-0.346c-0.502,-0.046 -1.041,-0.037 -1.617,0.028c-0.576,0.065 -1.138,0.332 -1.687,0.802c-0.549,0.47 -1.02,1.115 -1.412,1.934c-0.392,0.819 -0.678,1.718 -0.857,2.698c-0.179,0.98 -0.286,1.888 -0.321,2.727c-0.035,0.838 -0.048,1.603 -0.039,2.296c0.009,0.692 0.119,1.349 0.331,1.97c0.212,0.621 0.538,1.182 0.977,1.683c0.44,0.501 0.936,0.893 1.488,1.176c0.553,0.283 1.237,0.435 2.055,0.455c0.817,0.02 1.789,-0.203 2.916,-0.669c1.127,-0.466 2.192,-0.984 3.195,-1.555c1.003,-0.571 1.824,-1.1 2.464,-1.588c0.639,-0.488 1.127,-1.036 1.464,-1.647c0.336,-0.61 0.534,-1.341 0.593,-2.193c0.059,-0.852 0.022,-1.706 -0.111,-2.563c-0.133,-0.857 -0.35,-1.579 -0.651,-2.166c-0.301,-0.588 -0.627,-1.057 -0.979,-1.408c-0.351,-0.351 -0.763,-0.698 -1.234,-1.039c-0.471,-0.341 -0.994,-0.724 -1.568,-1.148c-0.574,-0.424 -1.218,-0.811 -1.931,-1.162c-0.713,-0.351 -1.479,-0.556 -2.295,-0.616c-0.817,-0.06 -1.617,0.083 -2.401,0.428c-0.784,0.345 -1.498,0.838 -2.141,1.479c-0.644,0.641 -1.172,1.398 -1.587,2.27c-0.414,0.872 -0.692,1.862 -0.835,2.969c-0.143,1.107 -0.163,2.229 -0.062,3.366c0.102,1.137 0.395,2.094 0.879,2.87c0.485,0.776 1.01,1.358 1.576,1.745c0.566,0.387 1.19,0.622 1.872,0.703c0.682,0.081 1.47,0.018 2.363,-0.19c0.893,-0.208 1.812,-0.669 2.757,-1.383c0.945,-0.714 1.734,-1.549 2.367,-2.504c0.633,-0.955 1.053,-1.943 1.259,-2.965c0.206,-1.022 0.279,-1.973 0.218,-2.853c-0.061,-0.88 -0.293,-1.62 -0.697,-2.217c-0.404,-0.598 -0.906,-1.034 -1.507,-1.308c-0.601,-0.275 -1.307,-0.441 -2.118,-0.498c-0.811,-0.058 -1.702,0.113 -2.671,0.513c-0.969,0.4 -1.845,1.17 -2.628,2.311c-0.783,1.142 -1.295,2.42 -1.539,3.834c-0.243,1.415 -0.099,2.669 0.432,3.763c0.531,1.094 1.416,1.787 2.656,2.079c1.24,0.292 2.486,0.177 3.739,-0.344c1.253,-0.521 2.236,-1.397 2.95,-2.628c0.714,-1.232 1.087,-2.314 1.12,-3.248c0.033,-0.934 -0.33,-1.438 -1.088,-1.513c-0.758,-0.075 -1.588,0.367 -2.49,1.326c-0.902,0.959 -1.505,1.935 -1.811,2.93c-0.305,0.995 -0.343,1.692 -0.113,2.091c0.23,0.399 0.725,0.373 1.486,-0.077c0.76,-0.451 1.342,-1.131 1.746,-2.04c0.404,-0.91 0.63,-1.617 0.679,-2.122c0.049,-0.505 0.073,-0.788 0.074,-0.851c0,-0.088 0.203,-0.046 0.61,0.125" style="fill:none;fill-rule:nonzero;stroke:#348ad8;stroke-width:7.09px;"/><path d="M297.482,75.993c-0.135,0.101 -0.5,-0.003 -1.097,-0.311c-0.597,-0.308 -1.116,-0.495 -1.558,-0.56c-0.442,-0.065 -0.969,-0.09 -1.58,-0.074c-0.611,0.016 -1.265,0.237 -1.963,0.663c-0.697,0.426 -1.343,1.025 -1.937,1.797c-0.594,0.772 -1.058,1.593 -1.392,2.463c-0.334,0.87 -0.561,1.705 -0.68,2.508c-0.119,0.803 -0.18,1.555 -0.181,2.258c-0.001,0.703 0.031,1.356 0.096,1.958c0.066,0.602 0.246,1.148 0.542,1.637c0.296,0.49 0.664,0.933 1.105,1.332c0.441,0.398 0.966,0.737 1.577,1.016c0.61,0.279 1.341,0.453 2.193,0.521c0.852,0.069 1.787,0.094 2.806,0.076c1.019,-0.018 2.06,-0.149 3.122,-0.392c1.062,-0.243 2.077,-0.589 3.044,-1.038c0.968,-0.449 1.864,-0.989 2.69,-1.62c0.826,-0.631 1.513,-1.301 2.062,-2.01c0.549,-0.709 0.955,-1.355 1.218,-1.939c0.263,-0.584 0.413,-1.115 0.45,-1.593c0.036,-0.478 -0.06,-0.993 -0.289,-1.543c-0.229,-0.551 -0.57,-1.188 -1.023,-1.913c-0.453,-0.724 -0.912,-1.423 -1.377,-2.097c-0.465,-0.674 -0.94,-1.281 -1.426,-1.822c-0.486,-0.541 -0.972,-0.998 -1.458,-1.369c-0.486,-0.371 -1.006,-0.656 -1.56,-0.854c-0.554,-0.198 -1.124,-0.34 -1.71,-0.425c-0.586,-0.085 -1.245,-0.096 -1.977,-0.033c-0.732,0.063 -1.546,0.416 -2.444,1.059c-0.898,0.643 -1.745,1.462 -2.541,2.459c-0.796,0.996 -1.483,1.968 -2.06,2.915c-0.577,0.947 -1.012,1.828 -1.305,2.643c-0.293,0.815 -0.473,1.564 -0.542,2.247c-0.069,0.683 -0.009,1.281 0.18,1.794c0.188,0.513 0.648,0.94 1.379,1.281c0.731,0.341 1.609,0.586 2.634,0.736c1.025,0.15 2.094,0.231 3.208,0.243c1.114,0.013 2.165,-0.129 3.154,-0.425c0.989,-0.296 1.829,-0.864 2.521,-1.706c0.692,-0.842 1.196,-1.837 1.514,-2.986c0.317,-1.149 0.486,-2.196 0.507,-3.141c0.02,-0.945 -0.211,-1.611 -0.694,-1.999c-0.483,-0.388 -1.171,-0.516 -2.064,-0.384c-0.893,0.132 -1.763,0.608 -2.609,1.427c-0.847,0.82 -1.521,1.686 -2.023,2.6c-0.502,0.914 -0.804,1.672 -0.908,2.274c-0.104,0.602 0.034,0.992 0.414,1.169c0.38,0.178 0.969,0.197 1.766,0.057c0.797,-0.14 1.441,-0.492 1.931,-1.056c0.49,-0.564 0.797,-1.128 0.92,-1.69c0.123,-0.562 0.057,-0.952 -0.198,-1.17c-0.255,-0.218 -0.703,-0.229 -1.346,-0.033c-0.643,0.196 -1.157,0.56 -1.544,1.091c-0.387,0.531 -0.621,0.97 -0.702,1.315c-0.081,0.345 -0.008,0.533 0.221,0.563c0.229,0.03 0.541,-0.12 0.938,-0.45c0.396,-0.331 0.69,-0.623 0.881,-0.878c0.191,-0.254 0.286,-0.334 0.284,-0.239" style="fill:none;fill-rule:nonzero;stroke:#348ad8;stroke-width:7.09px;"/><path d="M567.082,76.084c-0.113,-0.035 -0.461,-0.193 -1.045,-0.475c-0.584,-0.282 -1.201,-0.44 -1.85,-0.475c-0.649,-0.035 -1.363,-0.048 -2.141,-0.039c-0.778,0.009 -1.499,0.134 -2.163,0.375c-0.664,0.241 -1.242,0.587 -1.735,1.037c-0.493,0.45 -0.914,1 -1.263,1.65c-0.349,0.65 -0.618,1.369 -0.807,2.155c-0.189,0.786 -0.301,1.571 -0.336,2.354c-0.035,0.783 -0.029,1.481 0.017,2.096c0.046,0.614 0.222,1.166 0.527,1.656c0.305,0.49 0.668,0.929 1.09,1.318c0.422,0.389 0.894,0.694 1.416,0.913c0.522,0.219 1.134,0.352 1.835,0.398c0.701,0.046 1.476,-0.035 2.324,-0.244c0.848,-0.209 1.674,-0.597 2.477,-1.165c0.803,-0.568 1.513,-1.152 2.128,-1.752c0.615,-0.6 1.135,-1.15 1.558,-1.649c0.423,-0.499 0.749,-1.001 0.978,-1.506c0.229,-0.505 0.386,-1.031 0.473,-1.577c0.086,-0.546 0.135,-1.078 0.147,-1.596c0.011,-0.519 -0.002,-0.982 -0.039,-1.391c-0.038,-0.409 -0.174,-0.791 -0.409,-1.148c-0.235,-0.357 -0.562,-0.717 -0.981,-1.08c-0.419,-0.364 -0.895,-0.703 -1.429,-1.02c-0.534,-0.316 -1.122,-0.584 -1.764,-0.803c-0.642,-0.219 -1.361,-0.336 -2.157,-0.353c-0.796,-0.016 -1.6,0.163 -2.411,0.537c-0.811,0.375 -1.55,0.999 -2.215,1.874c-0.666,0.875 -1.183,1.897 -1.55,3.064c-0.368,1.168 -0.576,2.335 -0.625,3.504c-0.049,1.169 0.089,2.175 0.414,3.02c0.325,0.845 0.823,1.492 1.494,1.942c0.671,0.45 1.409,0.736 2.215,0.858c0.805,0.122 1.643,0.165 2.513,0.13c0.87,-0.035 1.746,-0.282 2.628,-0.74c0.882,-0.458 1.672,-1.038 2.369,-1.742c0.697,-0.703 1.269,-1.444 1.714,-2.222c0.446,-0.778 0.735,-1.606 0.868,-2.483c0.133,-0.877 0.11,-1.738 -0.068,-2.583c-0.178,-0.846 -0.565,-1.509 -1.161,-1.991c-0.596,-0.481 -1.331,-0.732 -2.205,-0.753c-0.874,-0.02 -1.711,0.366 -2.511,1.159c-0.799,0.793 -1.373,1.667 -1.72,2.62c-0.348,0.953 -0.551,1.756 -0.61,2.407c-0.059,0.651 0.074,1.096 0.398,1.335c0.324,0.238 0.818,0.351 1.483,0.338c0.665,-0.013 1.245,-0.224 1.741,-0.631c0.496,-0.408 0.806,-0.953 0.93,-1.637c0.124,-0.684 0.054,-1.27 -0.21,-1.759c-0.264,-0.489 -0.795,-0.766 -1.592,-0.833c-0.797,-0.067 -1.492,0.1 -2.085,0.499c-0.593,0.399 -0.953,0.8 -1.08,1.202c-0.177,0.563 0.915,0.115 3.277,-1.345" style="fill:none;fill-rule:nonzero;stroke:#348ad8;stroke-width:7.09px;"/><path d="M764.698,76.966c0.177,0.111 0.533,0.189 1.07,0.234c0.336,0.028 0.527,-0.064 0.574,-0.277c0.046,-0.213 -0.006,-0.442 -0.156,-0.688c-0.15,-0.246 -0.494,-0.447 -1.031,-0.603c-0.537,-0.156 -1.119,-0.256 -1.744,-0.299c-0.625,-0.043 -1.243,-0.065 -1.851,-0.066c-0.609,-0.001 -1.246,0.079 -1.912,0.239c-0.666,0.16 -1.262,0.557 -1.787,1.189c-0.525,0.632 -0.919,1.371 -1.183,2.217c-0.263,0.846 -0.408,1.7 -0.434,2.563c-0.026,0.863 -0.026,1.675 0.002,2.439c0.027,0.763 0.178,1.442 0.451,2.037c0.273,0.595 0.65,1.089 1.129,1.482c0.479,0.393 1.05,0.688 1.711,0.886c0.662,0.198 1.448,0.32 2.36,0.367c0.911,0.046 1.917,0.065 3.016,0.056c1.099,-0.009 2.177,-0.144 3.235,-0.404c1.058,-0.26 2.025,-0.65 2.904,-1.168c0.879,-0.519 1.612,-1.149 2.201,-1.89c0.588,-0.741 1.04,-1.57 1.354,-2.487c0.314,-0.917 0.496,-1.832 0.545,-2.746c0.05,-0.913 -0.137,-1.739 -0.559,-2.477c-0.423,-0.738 -1.06,-1.364 -1.911,-1.878c-0.851,-0.514 -1.694,-0.917 -2.528,-1.207c-0.835,-0.291 -1.633,-0.5 -2.395,-0.628c-0.762,-0.128 -1.497,-0.194 -2.206,-0.198c-0.709,-0.003 -1.438,0.187 -2.186,0.57c-0.748,0.383 -1.474,1.014 -2.177,1.892c-0.703,0.878 -1.268,1.823 -1.696,2.834c-0.427,1.011 -0.702,2.009 -0.823,2.992c-0.122,0.984 -0.103,1.89 0.056,2.719c0.159,0.829 0.564,1.46 1.214,1.893c0.65,0.433 1.477,0.67 2.48,0.712c1.003,0.042 2.033,-0.192 3.088,-0.703c1.055,-0.51 1.96,-1.275 2.715,-2.294c0.754,-1.019 1.257,-2.125 1.508,-3.32c0.251,-1.194 0.347,-2.264 0.287,-3.208c-0.06,-0.945 -0.383,-1.65 -0.97,-2.116c-0.587,-0.466 -1.479,-0.504 -2.677,-0.116c-1.198,0.388 -2.294,1.33 -3.289,2.824c-0.995,1.495 -1.571,2.846 -1.726,4.054c-0.155,1.208 0.147,2.098 0.907,2.672c0.76,0.574 1.728,0.865 2.903,0.873c1.175,0.008 2.181,-0.295 3.018,-0.909c0.837,-0.614 1.387,-1.323 1.651,-2.127c0.263,-0.803 0.25,-1.373 -0.039,-1.708c-0.29,-0.335 -0.778,-0.445 -1.465,-0.329c-0.687,0.116 -1.17,0.403 -1.451,0.863c-0.28,0.46 -0.391,0.845 -0.332,1.158c0.083,0.442 1.227,0.394 3.433,-0.144" style="fill:none;fill-rule:nonzero;stroke:#348ad8;stroke-width:7.09px;"/><path d="M76.187,49.014c-0.07,-0.112 -0.445,-0.344 -1.125,-0.695c-0.68,-0.351 -1.392,-0.615 -2.137,-0.79c-0.745,-0.175 -1.541,-0.271 -2.389,-0.287c-0.848,-0.016 -1.669,0.196 -2.462,0.636c-0.793,0.44 -1.47,1.26 -2.029,2.462c-0.56,1.201 -0.898,2.492 -1.015,3.873c-0.117,1.38 0.079,2.494 0.588,3.341c0.509,0.847 1.236,1.365 2.18,1.556c0.944,0.191 1.864,0.274 2.76,0.249c0.896,-0.025 1.735,-0.169 2.52,-0.433c0.784,-0.264 1.517,-0.65 2.198,-1.156c0.681,-0.507 1.313,-1.145 1.895,-1.916c0.583,-0.771 1.08,-1.61 1.492,-2.519c0.412,-0.909 0.694,-1.757 0.846,-2.544c0.152,-0.787 0.216,-1.435 0.191,-1.942c-0.025,-0.507 -0.126,-0.882 -0.305,-1.124c-0.179,-0.242 -0.34,-0.391 -0.485,-0.446c-0.145,-0.055 -0.239,0.024 -0.282,0.239c-0.043,0.215 -0.065,0.807 -0.066,1.775c-0.001,0.968 0.099,2.034 0.3,3.198c0.201,1.164 0.521,2.226 0.959,3.187c0.64,1.401 1.995,2.569 4.065,3.502" style="fill:none;fill-rule:nonzero;stroke:#000;stroke-width:3.54px;"/><path d="M260.842,45.004c-0.014,-0.544 -0.054,-1.16 -0.12,-1.851c-0.067,-0.69 -0.124,-1.302 -0.172,-1.836c-0.048,-0.534 -0.072,-0.873 -0.072,-1.016c-0,-0.143 0.047,0.075 0.141,0.654c0.094,0.579 0.348,1.683 0.763,3.312c0.415,1.629 0.894,3.401 1.438,5.315c0.543,1.914 1.037,3.602 1.481,5.065c0.444,1.463 0.756,2.46 0.938,2.991c0.181,0.531 0.284,0.728 0.308,0.591c0.024,-0.138 0.059,-0.661 0.104,-1.57c0.046,-0.909 0.36,-1.828 0.943,-2.757c0.583,-0.928 1.433,-1.641 2.55,-2.137c1.117,-0.496 2.368,-0.676 3.751,-0.54c1.383,0.135 2.581,0.633 3.595,1.495c1.013,0.861 1.704,1.768 2.073,2.72c0.369,0.953 0.396,1.853 0.08,2.7c-0.315,0.847 -0.976,1.54 -1.982,2.08c-1.006,0.54 -2.075,0.93 -3.208,1.172c-1.664,0.354 -3.317,0.02 -4.961,-1.005" style="fill:none;fill-rule:nonzero;stroke:#000;stroke-width:3.54px;"/><path d="M538.463,50.746c-0.301,-0.115 -0.663,-0.307 -1.087,-0.576c-0.423,-0.269 -0.904,-0.452 -1.441,-0.55c-0.537,-0.098 -1.23,-0.02 -2.078,0.233c-0.848,0.253 -1.774,0.946 -2.775,2.079c-1.002,1.133 -1.823,2.505 -2.462,4.115c-0.64,1.61 -0.908,3.036 -0.807,4.277c0.102,1.241 0.722,1.995 1.861,2.263c1.139,0.268 2.365,0.076 3.678,-0.577c1.313,-0.653 2.385,-1.558 3.216,-2.714c0.831,-1.157 1.383,-2.165 1.654,-3.025c0.272,-0.86 0.425,-1.427 0.46,-1.7c0.035,-0.274 0.067,-0.404 0.094,-0.391c0.028,0.013 0.197,0.262 0.509,0.745c0.312,0.483 0.714,1.195 1.206,2.135c0.723,1.379 1.878,3.018 3.468,4.914" style="fill:none;fill-rule:nonzero;stroke:#000;stroke-width:3.54px;"/><path d="M750.186,38.605c-0.222,0.015 -0.554,-0.027 -0.995,-0.126c-0.28,-0.063 -0.423,-0.077 -0.428,-0.043c-0.005,0.034 0.099,0.371 0.311,1.011c0.212,0.64 0.533,1.665 0.962,3.077c0.43,1.412 0.926,2.978 1.49,4.698c0.564,1.72 1.092,3.133 1.584,4.238c0.492,1.105 0.854,1.788 1.085,2.049c0.231,0.26 0.456,0.014 0.676,-0.74c0.22,-0.754 0.567,-1.774 1.041,-3.061c0.474,-1.287 1.096,-2.273 1.867,-2.96c0.77,-0.686 1.677,-0.993 2.72,-0.922c1.043,0.071 2.08,0.642 3.11,1.713c1.03,1.07 1.824,2.259 2.382,3.567c0.558,1.308 0.837,2.465 0.838,3.473c0.001,1.008 -0.408,1.73 -1.227,2.167c-0.819,0.437 -1.829,0.685 -3.03,0.745c-1.201,0.06 -2.316,0.033 -3.346,-0.082c-1.03,-0.115 -1.528,-0.281 -1.493,-0.5" style="fill:none;fill-rule:nonzero;stroke:#000;stroke-width:3.54px;"/><path d="M273.172,95.959c0.02,-0.088 0.23,-0.355 0.628,-0.802c0.228,-0.254 0.144,-0.23 -0.25,0.072c-0.394,0.302 -1.398,1.036 -3.011,2.202c-1.614,1.166 -3.214,2.228 -4.801,3.185c-1.587,0.957 -3.08,1.795 -4.478,2.514c-1.398,0.719 -2.673,1.315 -3.823,1.788c-1.15,0.473 -2.364,0.927 -3.64,1.361c-1.277,0.435 -2.69,0.918 -4.242,1.45c-1.551,0.532 -3.108,1.073 -4.671,1.622c-1.563,0.549 -3.041,1.038 -4.435,1.468c-1.394,0.43 -2.807,0.833 -4.239,1.209c-1.432,0.376 -2.956,0.746 -4.571,1.111c-1.615,0.365 -3.258,0.725 -4.928,1.08c-1.67,0.355 -3.306,0.676 -4.91,0.962c-1.603,0.286 -3.18,0.561 -4.731,0.825c-1.551,0.264 -3.172,0.527 -4.865,0.789c-1.693,0.261 -3.488,0.563 -5.386,0.905c-1.898,0.342 -3.848,0.705 -5.851,1.088c-2.003,0.384 -4.001,0.783 -5.995,1.197c-1.994,0.414 -4.053,0.877 -6.176,1.389c-2.123,0.512 -4.2,1.027 -6.232,1.546c-2.032,0.518 -3.953,0.963 -5.762,1.335c-1.81,0.371 -3.581,0.675 -5.315,0.912c-1.734,0.236 -3.413,0.475 -5.038,0.718c-1.625,0.242 -3.174,0.451 -4.648,0.628c-1.474,0.176 -2.91,0.277 -4.309,0.302c-1.399,0.025 -2.849,0.038 -4.352,0.038l-14.837,0c-1.634,0 -3.242,-0.009 -4.824,-0.027c-1.582,-0.018 -3.11,-0.111 -4.583,-0.277c-1.473,-0.167 -2.875,-0.351 -4.208,-0.555c-1.332,-0.203 -2.646,-0.392 -3.94,-0.565c-1.294,-0.173 -2.63,-0.298 -4.005,-0.373c-1.376,-0.075 -2.699,-0.114 -3.971,-0.115c-1.271,-0.001 -2.481,-0.016 -3.629,-0.045c-1.148,-0.028 -2.313,-0.101 -3.494,-0.219c-1.182,-0.118 -2.375,-0.268 -3.581,-0.449c-1.206,-0.181 -2.387,-0.363 -3.544,-0.545c-1.157,-0.182 -2.311,-0.355 -3.462,-0.518c-1.152,-0.163 -2.383,-0.33 -3.693,-0.501c-1.311,-0.171 -2.674,-0.348 -4.089,-0.53c-1.415,-0.182 -2.794,-0.374 -4.136,-0.574c-1.342,-0.2 -2.66,-0.456 -3.955,-0.766c-1.294,-0.31 -2.682,-0.643 -4.161,-0.997c-1.48,-0.354 -3.091,-0.694 -4.834,-1.018c-1.743,-0.324 -3.559,-0.677 -5.449,-1.059c-1.89,-0.382 -3.75,-0.8 -5.579,-1.254c-1.829,-0.455 -3.528,-0.957 -5.097,-1.508c-1.569,-0.55 -3.025,-1.212 -4.37,-1.984c-1.345,-0.772 -2.626,-1.607 -3.845,-2.506c-1.219,-0.899 -2.478,-1.833 -3.777,-2.801c-1.299,-0.969 -2.633,-1.983 -4.003,-3.043c-1.37,-1.06 -2.608,-2.165 -3.714,-3.317c-1.106,-1.151 -2.054,-2.334 -2.845,-3.548c-0.791,-1.214 -1.382,-2.282 -1.772,-3.203c-0.39,-0.921 -0.696,-1.646 -0.918,-2.175c-0.222,-0.529 -0.561,-1.313 -1.019,-2.354c-0.458,-1.041 -0.897,-2.252 -1.319,-3.633c-0.421,-1.381 -0.737,-2.723 -0.948,-4.024c-0.21,-1.302 -0.328,-2.604 -0.353,-3.906c-0.025,-1.303 -0.038,-2.637 -0.038,-4.003c-0,-1.366 0.043,-2.767 0.129,-4.204c0.086,-1.437 0.229,-2.808 0.429,-4.113c0.2,-1.305 0.412,-2.492 0.634,-3.56c0.223,-1.068 0.411,-2.183 0.565,-3.343c0.154,-1.16 0.35,-2.351 0.588,-3.573c0.238,-1.222 0.609,-2.51 1.113,-3.863c0.504,-1.353 1.209,-2.728 2.114,-4.123c0.905,-1.395 1.982,-2.745 3.231,-4.048c1.249,-1.304 2.497,-2.501 3.743,-3.593c1.246,-1.092 2.51,-2.09 3.793,-2.996c1.283,-0.906 2.631,-1.776 4.044,-2.61c1.413,-0.834 2.892,-1.617 4.437,-2.35c1.545,-0.733 3.193,-1.42 4.944,-2.061c1.751,-0.641 3.712,-1.251 5.883,-1.83c2.171,-0.578 4.498,-1.156 6.982,-1.734c2.484,-0.577 4.878,-1.107 7.181,-1.589c2.304,-0.483 4.34,-0.835 6.108,-1.058c1.768,-0.223 3.555,-0.347 5.359,-0.372c1.804,-0.025 3.769,-0.038 5.893,-0.038c2.125,0 4.312,0.048 6.561,0.144c2.25,0.096 4.401,0.186 6.455,0.27c2.054,0.084 4.01,0.171 5.87,0.26c1.86,0.089 3.657,0.238 5.39,0.446c1.733,0.208 3.533,0.458 5.4,0.749c1.867,0.291 3.897,0.594 6.092,0.908c2.194,0.314 4.47,0.628 6.828,0.94c2.358,0.313 4.606,0.66 6.743,1.042c2.138,0.381 4.176,0.818 6.115,1.31c1.939,0.492 3.98,1.06 6.123,1.703c2.143,0.643 4.533,1.299 7.169,1.968c2.636,0.668 5.213,1.323 7.73,1.963c2.517,0.64 4.777,1.278 6.779,1.914c2.002,0.636 3.91,1.298 5.722,1.987c1.813,0.688 3.823,1.343 6.032,1.963c2.209,0.62 4.591,1.219 7.146,1.798c2.555,0.578 5.033,1.2 7.435,1.864c2.402,0.664 4.602,1.374 6.6,2.13c1.999,0.756 3.949,1.529 5.851,2.319c1.902,0.79 3.864,1.551 5.886,2.283c2.022,0.733 3.96,1.424 5.814,2.074c1.854,0.65 3.532,1.333 5.034,2.048c1.502,0.715 2.884,1.485 4.144,2.311c1.261,0.826 2.543,1.699 3.846,2.619c1.303,0.92 2.628,1.778 3.975,2.575c1.347,0.797 2.607,1.512 3.782,2.145c1.174,0.634 2.183,1.211 3.027,1.732c0.844,0.521 1.5,0.947 1.968,1.278c0.468,0.331 0.875,0.604 1.221,0.819c0.346,0.215 0.672,0.405 0.978,0.57c0.306,0.165 0.552,0.265 0.739,0.3c0.187,0.035 0.303,-0.018 0.349,-0.158c0.046,-0.14 0.037,-0.623 -0.028,-1.447c-0.065,-0.825 -0.337,-1.835 -0.817,-3.032c-0.48,-1.197 -1.067,-2.399 -1.761,-3.606c-0.694,-1.207 -1.396,-2.346 -2.107,-3.417c-0.711,-1.071 -1.334,-1.954 -1.87,-2.649c-0.535,-0.695 -0.915,-1.157 -1.139,-1.386c-0.224,-0.229 -0.349,-0.345 -0.374,-0.35c-0.025,-0.005 -0.038,0.18 -0.038,0.554c0,0.374 0.033,0.947 0.098,1.718c0.066,0.771 0.27,1.581 0.615,2.431c0.344,0.849 0.758,1.709 1.24,2.579c0.483,0.87 1.002,1.745 1.557,2.625c0.556,0.88 1.088,1.795 1.597,2.745c0.509,0.95 0.934,1.887 1.276,2.813c0.342,0.925 0.593,1.713 0.752,2.364c0.16,0.65 0.241,1.118 0.243,1.404c0.003,0.286 -0.191,0.467 -0.582,0.544c-0.391,0.077 -1.051,0.15 -1.982,0.219c-0.931,0.069 -1.853,0.168 -2.768,0.298c-1.412,0.2 -2.564,0.409 -3.455,0.628" style="fill:none;fill-rule:nonzero;stroke:#348ad8;stroke-width:3.54px;"/><path d="M751.555,98.596c-0.324,0.024 -0.793,0.326 -1.406,0.905c-0.614,0.58 -1.366,1.339 -2.256,2.28c-0.89,0.94 -1.854,1.942 -2.894,3.003c-1.039,1.062 -2.11,2.096 -3.212,3.102c-1.102,1.006 -2.225,1.947 -3.369,2.823c-1.144,0.877 -2.197,1.634 -3.158,2.273c-0.961,0.639 -1.834,1.15 -2.619,1.533c-0.785,0.383 -1.561,0.697 -2.328,0.943c-0.767,0.246 -1.627,0.471 -2.58,0.675c-0.953,0.205 -2.025,0.413 -3.213,0.624c-1.189,0.212 -2.444,0.405 -3.765,0.579c-1.321,0.174 -2.651,0.338 -3.99,0.49c-1.339,0.152 -2.613,0.26 -3.823,0.326c-1.21,0.065 -2.421,0.094 -3.634,0.087c-1.213,-0.007 -2.505,-0.146 -3.874,-0.419c-1.37,-0.272 -2.87,-0.6 -4.502,-0.984c-1.631,-0.383 -3.246,-0.801 -4.844,-1.253c-1.598,-0.452 -2.988,-1.007 -4.168,-1.667c-1.18,-0.659 -2.177,-1.503 -2.99,-2.532c-0.813,-1.029 -1.482,-2.173 -2.007,-3.433c-0.526,-1.26 -0.949,-2.529 -1.271,-3.806c-0.322,-1.277 -0.547,-2.592 -0.675,-3.944c-0.128,-1.353 -0.199,-2.743 -0.211,-4.17c-0.013,-1.428 -0.014,-2.773 -0.005,-4.037c0.009,-1.264 0.058,-2.492 0.145,-3.685c0.088,-1.193 0.235,-2.465 0.443,-3.817c0.207,-1.351 0.529,-2.702 0.966,-4.052c0.437,-1.35 0.966,-2.654 1.588,-3.912c0.622,-1.258 1.301,-2.472 2.035,-3.641c0.735,-1.169 1.536,-2.297 2.403,-3.384c0.867,-1.087 1.741,-2.065 2.623,-2.935c0.881,-0.87 1.733,-1.705 2.557,-2.505c0.824,-0.8 1.645,-1.548 2.463,-2.242c0.818,-0.694 1.653,-1.298 2.503,-1.811c0.85,-0.513 1.687,-0.945 2.509,-1.296c0.823,-0.351 1.624,-0.615 2.403,-0.793c0.78,-0.178 1.608,-0.294 2.485,-0.348c0.877,-0.054 1.79,-0.082 2.74,-0.083c0.95,-0.001 1.896,0.007 2.839,0.026c0.943,0.018 1.914,0.125 2.913,0.319c0.999,0.195 1.996,0.472 2.991,0.832c0.995,0.36 1.968,0.775 2.922,1.247c0.953,0.471 1.9,1.004 2.842,1.598c0.942,0.594 1.855,1.195 2.739,1.803c0.884,0.608 1.713,1.172 2.488,1.693c0.774,0.521 1.483,0.996 2.126,1.425c0.643,0.429 1.206,0.831 1.688,1.207c0.482,0.376 0.907,0.732 1.275,1.068c0.368,0.336 0.676,0.618 0.923,0.845c0.248,0.227 0.42,0.369 0.518,0.427c0.098,0.058 0.152,0.063 0.164,0.018c0.012,-0.045 0.017,-0.322 0.017,-0.829c0,-0.507 -0.005,-1.163 -0.014,-1.966c-0.009,-0.803 -0.067,-1.616 -0.174,-2.438c-0.107,-0.822 -0.236,-1.595 -0.388,-2.319c-0.152,-0.723 -0.318,-1.371 -0.499,-1.944c-0.181,-0.573 -0.353,-1.07 -0.516,-1.491c-0.163,-0.421 -0.302,-0.742 -0.415,-0.962c-0.114,-0.22 -0.192,-0.354 -0.235,-0.4c-0.043,-0.046 -0.075,-0.065 -0.096,-0.056c-0.021,0.009 -0.032,0.172 -0.032,0.489c0,0.317 0.061,0.815 0.185,1.495c0.123,0.68 0.374,1.413 0.751,2.2c0.378,0.787 0.818,1.595 1.321,2.424c0.503,0.829 0.998,1.645 1.487,2.448c0.488,0.803 0.917,1.542 1.286,2.216c0.369,0.674 0.678,1.268 0.927,1.78c0.248,0.513 0.396,0.915 0.444,1.205c0.048,0.29 0.011,0.515 -0.11,0.672c-0.121,0.157 -0.545,0.243 -1.272,0.257c-0.727,0.014 -1.623,0.021 -2.689,0.021c-1.066,0 -2.085,0.01 -3.055,0.029c-0.97,0.019 -1.752,0.048 -2.344,0.087c-0.592,0.038 -0.805,-0.005 -0.639,-0.131" style="fill:none;fill-rule:nonzero;stroke:#348ad8;stroke-width:3.54px;"/><path d="M409.769,73.076c-0.022,-0.291 0.594,-0.485 1.847,-0.583c1.253,-0.098 2.901,-0.146 4.945,-0.146c2.043,0 4.438,-0.023 7.184,-0.07c2.745,-0.046 5.323,-0.17 7.733,-0.369c2.41,-0.2 4.097,-0.328 5.063,-0.385l0.985,-0.077l-0.218,-0.009" style="fill:none;fill-rule:nonzero;stroke:#000;stroke-width:3.54px;"/><path d="M408.949,87.203c-0.046,-0.195 0.78,-0.319 2.479,-0.374c1.699,-0.055 3.813,-0.077 6.344,-0.068c2.531,0.009 5.362,0.043 8.494,0.103c3.132,0.059 6.018,0.11 8.659,0.152c2.641,0.042 4.325,0.068 5.053,0.079c0.728,0.011 1.162,0.235 1.303,0.674" style="fill:none;fill-rule:nonzero;stroke:#000;stroke-width:3.54px;"/></svg>