<?xml version="1.0" encoding="UTF-8" standalone="no"?><!DOCTYPE svg PUBLIC "-//W3C//DTD SVG 1.1//EN" "http://www.w3.org/Graphics/SVG/1.1/DTD/svg11.dtd"><svg width="100%" height="100%" viewBox="0 0 733 308" version="1.1" xmlns="http://www.w3.org/2000/svg" xmlns:xlink="http://www.w3.org/1999/xlink" xml:space="preserve" xmlns:serif="http://www.serif.com/" style="fill-rule:evenodd;clip-rule:evenodd;stroke-linecap:round;stroke-linejoin:round;stroke-miterlimit:10;"><rect x="0" y="0" width="733" height="308" style="fill:#fff;"/><g><path d="M105.413,98.778c0.221,-0.288 0.413,-0.625 0.575,-1.021c0.163,-0.392 0.242,-0.717 0.242,-0.971c0.004,-0.254 -0.004,-0.496 -0.025,-0.729c-0.017,-0.233 -0.146,-0.492 -0.392,-0.771c-0.242,-0.283 -0.592,-0.554 -1.05,-0.821c-0.463,-0.267 -0.971,-0.433 -1.538,-0.504c-0.563,-0.067 -1.167,-0.071 -1.813,-0.004c-0.646,0.063 -1.271,0.338 -1.871,0.817c-0.604,0.479 -1.133,1.104 -1.596,1.875c-0.463,0.767 -0.796,1.663 -1.013,2.679c-0.213,1.013 -0.271,2.05 -0.171,3.104c0.096,1.054 0.475,2.017 1.133,2.888c0.658,0.871 1.408,1.613 2.246,2.229c0.842,0.613 1.617,1.104 2.333,1.471c0.713,0.367 1.392,0.575 2.029,0.625c0.642,0.054 1.308,-0.171 2.004,-0.675c0.696,-0.504 1.313,-1.171 1.85,-2.004c0.538,-0.833 0.929,-1.721 1.183,-2.658c0.254,-0.942 0.404,-1.908 0.45,-2.913c0.046,-1 0.042,-1.942 -0.013,-2.817c-0.058,-0.879 -0.296,-1.65 -0.717,-2.317c-0.421,-0.667 -0.971,-1.242 -1.65,-1.725c-0.683,-0.483 -1.45,-0.842 -2.304,-1.075c-0.854,-0.233 -1.758,-0.325 -2.713,-0.275c-0.95,0.05 -1.771,0.404 -2.463,1.067c-0.692,0.663 -1.204,1.596 -1.542,2.792c-0.342,1.2 -0.504,2.488 -0.5,3.867c0.008,1.375 0.408,2.604 1.204,3.683c0.796,1.079 1.825,1.821 3.083,2.221c1.258,0.404 2.433,0.542 3.517,0.421c1.088,-0.121 1.958,-0.696 2.613,-1.725c0.654,-1.029 1.063,-2.283 1.221,-3.767c0.158,-1.483 0.008,-2.775 -0.446,-3.871c-0.458,-1.096 -1.267,-1.763 -2.433,-1.996c-1.167,-0.238 -2.325,0.067 -3.467,0.917c-1.142,0.846 -2.042,1.988 -2.704,3.417c-0.658,1.429 -1.017,2.688 -1.071,3.775c-0.054,1.083 0.396,1.754 1.35,2.008c0.954,0.254 1.971,0.104 3.058,-0.454c1.088,-0.558 1.829,-1.292 2.233,-2.2c0.4,-0.908 0.546,-1.608 0.433,-2.096c-0.113,-0.492 -0.5,-0.667 -1.154,-0.529c-0.658,0.142 -1.121,0.533 -1.396,1.183c-0.275,0.646 -0.388,1.175 -0.346,1.588c0.042,0.408 0.254,0.588 0.638,0.533c0.383,-0.05 0.729,-0.358 1.042,-0.925c0.313,-0.563 0.538,-1.071 0.671,-1.529c0.192,-0.646 0.721,-0.9 1.579,-0.758" style="fill:none;fill-rule:nonzero;stroke:#c2361a;stroke-width:7.08px;"/></g><g><path d="M238.938,97.959c0,-0.204 -0.088,-0.479 -0.258,-0.829c-0.175,-0.354 -0.429,-0.571 -0.771,-0.65c-0.338,-0.083 -0.733,-0.129 -1.188,-0.142c-0.45,-0.013 -0.958,0.05 -1.521,0.192c-0.567,0.142 -1.096,0.513 -1.6,1.117c-0.5,0.6 -0.846,1.317 -1.029,2.154c-0.188,0.833 -0.267,1.7 -0.242,2.604c0.025,0.9 0.179,1.767 0.463,2.6c0.283,0.833 0.613,1.55 0.988,2.15c0.371,0.6 0.783,1.046 1.233,1.338c0.454,0.292 1.017,0.463 1.696,0.513c0.679,0.05 1.475,0.017 2.392,-0.096c0.917,-0.113 1.813,-0.375 2.688,-0.783c0.875,-0.404 1.654,-0.821 2.342,-1.25c0.688,-0.425 1.263,-0.854 1.725,-1.288c0.463,-0.433 0.833,-0.95 1.117,-1.55c0.279,-0.6 0.467,-1.275 0.567,-2.033c0.096,-0.754 0.1,-1.529 0.008,-2.321c-0.092,-0.788 -0.446,-1.538 -1.063,-2.238c-0.621,-0.704 -1.396,-1.354 -2.329,-1.958c-0.933,-0.604 -1.858,-1.046 -2.775,-1.333c-0.917,-0.288 -1.763,-0.425 -2.538,-0.413c-0.771,0.008 -1.458,0.225 -2.054,0.642c-0.592,0.417 -1.117,0.958 -1.567,1.621c-0.45,0.663 -0.796,1.458 -1.038,2.388c-0.242,0.933 -0.371,1.938 -0.388,3.021c-0.017,1.079 0.175,2.1 0.579,3.063c0.404,0.963 0.954,1.696 1.646,2.2c0.696,0.504 1.458,0.767 2.283,0.783c0.825,0.017 1.629,-0.325 2.417,-1.025c0.788,-0.696 1.346,-1.629 1.679,-2.796c0.333,-1.171 0.417,-2.171 0.258,-3.013c-0.163,-0.842 -0.708,-1.342 -1.633,-1.508c-0.925,-0.167 -1.867,0.033 -2.821,0.6c-0.95,0.571 -1.596,1.308 -1.933,2.221c-0.338,0.908 -0.288,1.625 0.154,2.154c0.442,0.525 1.188,0.796 2.229,0.813c1.046,0.017 1.883,-0.229 2.513,-0.738c0.629,-0.508 0.988,-1.033 1.075,-1.575c0.088,-0.546 -0.008,-0.892 -0.288,-1.038l-0.208,-0.113l0.625,0.333" style="fill:none;fill-rule:nonzero;stroke:#c2361a;stroke-width:7.08px;"/></g><g><path d="M139.988,129.978c0.267,0.129 0.546,0.038 0.846,-0.279c0.204,-0.217 0.308,-0.488 0.308,-0.808c0,-0.321 -0.029,-0.704 -0.083,-1.154c-0.058,-0.454 -0.275,-0.938 -0.658,-1.454c-0.383,-0.517 -0.904,-0.929 -1.563,-1.246c-0.658,-0.313 -1.367,-0.479 -2.125,-0.5c-0.758,-0.017 -1.513,0.179 -2.263,0.592c-0.75,0.413 -1.421,1.083 -2.004,2.008c-0.588,0.929 -1,1.983 -1.238,3.163c-0.238,1.179 -0.313,2.279 -0.221,3.304c0.088,1.021 0.413,1.829 0.975,2.425c0.563,0.592 1.2,1.025 1.917,1.3c0.717,0.271 1.479,0.45 2.283,0.525c0.808,0.075 1.613,0.079 2.413,0.004c0.8,-0.071 1.554,-0.308 2.258,-0.7c0.7,-0.396 1.325,-0.854 1.871,-1.375c0.542,-0.525 0.971,-1.125 1.283,-1.808c0.313,-0.683 0.508,-1.438 0.588,-2.263c0.079,-0.825 -0.017,-1.671 -0.283,-2.533c-0.267,-0.863 -0.663,-1.621 -1.196,-2.279c-0.533,-0.654 -1.096,-1.196 -1.692,-1.621c-0.596,-0.425 -1.217,-0.696 -1.863,-0.808c-0.646,-0.108 -1.288,-0.004 -1.929,0.317c-0.638,0.321 -1.254,0.971 -1.846,1.942c-0.592,0.971 -1.063,2.075 -1.417,3.308c-0.354,1.229 -0.546,2.363 -0.567,3.396c-0.021,1.033 0.296,1.825 0.95,2.371c0.654,0.55 1.558,0.863 2.704,0.95c1.15,0.083 2.229,0.046 3.242,-0.117c1.013,-0.158 1.775,-0.571 2.296,-1.233c0.517,-0.658 0.646,-1.45 0.388,-2.363c-0.258,-0.917 -0.975,-1.7 -2.146,-2.346c-1.171,-0.646 -2.317,-0.988 -3.429,-1.017c-1.117,-0.029 -1.938,0.267 -2.471,0.888c-0.529,0.625 -0.679,1.275 -0.45,1.954c0.325,0.958 2.254,0.671 5.788,-0.863" style="fill:none;fill-rule:nonzero;stroke:#63b633;stroke-width:7.08px;"/></g><g><path d="M270.746,132.414c-0.325,-0.171 -0.304,-0.575 0.058,-1.213c0.367,-0.642 0.625,-1.121 0.775,-1.442c0.146,-0.321 0.213,-0.571 0.188,-0.758c-0.025,-0.188 -0.233,-0.304 -0.621,-0.35c-0.392,-0.046 -0.896,-0.058 -1.521,-0.042c-0.621,0.021 -1.267,0.192 -1.938,0.521c-0.667,0.329 -1.296,0.858 -1.888,1.583c-0.592,0.721 -1.071,1.613 -1.433,2.667c-0.367,1.054 -0.563,2.108 -0.583,3.167c-0.025,1.058 0.258,1.95 0.85,2.675c0.592,0.725 1.421,1.225 2.492,1.492c1.071,0.267 2.213,0.375 3.429,0.313c1.213,-0.058 2.396,-0.433 3.542,-1.125c1.15,-0.696 2.096,-1.583 2.833,-2.667c0.738,-1.083 1.225,-2.242 1.467,-3.475c0.242,-1.233 0.313,-2.367 0.213,-3.4c-0.1,-1.033 -0.429,-1.938 -0.992,-2.704c-0.558,-0.771 -1.283,-1.396 -2.175,-1.883c-0.892,-0.483 -1.871,-0.829 -2.942,-1.033c-1.071,-0.204 -2.025,-0.313 -2.871,-0.329c-0.842,-0.013 -1.517,0.021 -2.025,0.092c-0.508,0.075 -0.988,0.375 -1.442,0.892c-0.454,0.517 -0.883,1.267 -1.296,2.254c-0.408,0.983 -0.688,2.129 -0.829,3.425c-0.142,1.3 -0.029,2.525 0.338,3.671c0.371,1.146 1.054,2 2.05,2.563c0.996,0.563 2.038,0.858 3.125,0.883c1.083,0.025 2.038,-0.263 2.863,-0.867c0.825,-0.6 1.396,-1.392 1.721,-2.379c0.325,-0.983 0.363,-1.892 0.113,-2.725c-0.25,-0.833 -0.817,-1.354 -1.7,-1.563c-0.888,-0.204 -1.733,-0.079 -2.546,0.383c-0.813,0.458 -1.379,1.058 -1.7,1.796c-0.321,0.738 -0.488,1.35 -0.496,1.829c-0.008,0.479 0.104,0.767 0.338,0.871c0.333,0.146 0.879,-0.238 1.646,-1.154" style="fill:none;fill-rule:nonzero;stroke:#63b633;stroke-width:7.08px;"/></g><g><path d="M101.492,109.261l0,3.392c0,0.863 -0.013,1.954 -0.042,3.275c-0.025,1.325 -0.058,2.725 -0.092,4.2c-0.029,1.475 -0.046,2.938 -0.046,4.379c0,1.442 0.029,2.742 0.083,3.896c0.058,1.154 0.104,2.208 0.138,3.154c0.033,0.95 0.05,1.808 0.05,2.575l0,6.463c0,0.879 0.029,1.8 0.088,2.771c0.054,0.971 0.183,1.908 0.379,2.813c0.2,0.908 0.442,1.75 0.721,2.533c0.283,0.783 0.542,1.596 0.775,2.446c0.238,0.846 0.45,1.75 0.646,2.708c0.192,0.958 0.404,1.879 0.633,2.767c0.229,0.883 0.575,1.708 1.042,2.475c0.467,0.763 0.996,1.454 1.579,2.067c0.588,0.608 1.163,1.242 1.729,1.896c0.571,0.654 1.154,1.321 1.763,2.004c0.604,0.679 1.292,1.321 2.063,1.921c0.771,0.6 1.671,1.138 2.696,1.621c1.025,0.479 2.083,0.963 3.179,1.446c1.092,0.483 2.171,1.004 3.233,1.558c1.067,0.554 2.167,1.079 3.304,1.567c1.142,0.492 2.375,0.95 3.704,1.375c1.333,0.429 2.688,0.85 4.067,1.263c1.379,0.413 2.675,0.925 3.883,1.538c1.213,0.608 2.417,1.196 3.621,1.758c1.204,0.563 2.504,1.054 3.904,1.488c1.396,0.429 2.863,0.867 4.392,1.308c1.525,0.446 2.988,0.917 4.379,1.421c1.388,0.504 2.854,1.025 4.396,1.563c1.542,0.538 3.138,0.983 4.788,1.338c1.65,0.35 3.196,0.671 4.638,0.963c1.438,0.292 2.746,0.708 3.929,1.258c1.179,0.546 2.371,1.125 3.571,1.733c1.204,0.613 2.521,1.129 3.946,1.55c1.429,0.421 2.892,0.788 4.396,1.092c1.5,0.308 2.896,0.638 4.192,0.988c1.296,0.354 2.542,0.746 3.738,1.175c1.192,0.433 2.45,0.875 3.771,1.333c1.321,0.458 2.65,0.883 3.979,1.279c1.329,0.4 2.596,0.863 3.804,1.388c1.213,0.529 2.421,1.121 3.633,1.783c1.213,0.658 2.471,1.229 3.775,1.713c1.304,0.479 2.604,0.946 3.904,1.388c1.3,0.446 2.488,0.929 3.571,1.45c1.083,0.525 2.108,1.113 3.071,1.767c0.967,0.654 1.917,1.321 2.863,2c0.942,0.679 1.879,1.346 2.808,2.008c0.933,0.658 1.808,1.283 2.625,1.871c0.817,0.592 1.508,1.188 2.075,1.796c0.567,0.604 1.063,1.254 1.492,1.95c0.425,0.696 0.871,1.408 1.338,2.138c0.463,0.729 0.942,1.479 1.438,2.258c0.496,0.779 0.963,1.546 1.404,2.308c0.438,0.763 0.8,1.492 1.092,2.196c0.288,0.7 0.533,1.392 0.742,2.079c0.204,0.688 0.425,1.4 0.667,2.138c0.238,0.742 0.483,1.467 0.725,2.175c0.246,0.708 0.417,1.442 0.517,2.2c0.096,0.758 0.146,1.5 0.146,2.221c0.004,0.721 0.004,1.396 0.004,2.029l0,1.388c0,0.288 0.029,0.188 0.092,-0.308c0.088,-0.725 0.363,-1.792 0.833,-3.208" style="fill:none;fill-rule:nonzero;stroke:#c2361a;stroke-width:7.08px;"/></g><g><path d="M136.65,137.374c0.288,0.188 0.517,0.517 0.679,0.983c0.113,0.313 0.138,0.692 0.083,1.133c-0.058,0.446 -0.171,1.05 -0.342,1.821c-0.171,0.771 -0.296,1.579 -0.371,2.429c-0.075,0.85 -0.108,1.683 -0.1,2.496c0.008,0.813 0.15,1.571 0.429,2.275c0.279,0.7 0.692,1.3 1.246,1.796c0.55,0.492 1.146,0.921 1.779,1.279c0.633,0.358 1.333,0.696 2.096,1.008c0.763,0.313 1.658,0.654 2.679,1.029c1.025,0.371 2.1,0.775 3.225,1.208c1.125,0.433 2.171,0.838 3.138,1.204c0.967,0.367 1.921,0.658 2.863,0.867c0.942,0.208 1.933,0.333 2.983,0.367c1.05,0.033 2.15,0.113 3.3,0.238c1.15,0.125 2.379,0.383 3.692,0.767c1.308,0.388 2.671,0.817 4.088,1.292c1.417,0.475 2.804,0.979 4.163,1.513c1.363,0.533 2.763,1.079 4.204,1.638c1.442,0.558 2.967,1.063 4.571,1.513c1.604,0.45 3.213,0.9 4.825,1.354c1.613,0.454 3.217,0.942 4.817,1.454c1.6,0.508 3.221,1.071 4.875,1.675c1.65,0.608 3.288,1.129 4.921,1.563c1.633,0.433 3.2,0.792 4.704,1.083c1.508,0.288 2.946,0.558 4.313,0.808c1.371,0.254 2.792,0.525 4.263,0.817c1.475,0.292 3.046,0.654 4.721,1.083c1.675,0.429 3.383,0.904 5.125,1.417c1.742,0.513 3.458,1.063 5.15,1.65c1.696,0.583 3.354,1.138 4.975,1.654c1.621,0.521 3.233,1.067 4.838,1.642c1.6,0.571 3.142,1.217 4.629,1.929c1.483,0.713 2.871,1.483 4.163,2.313c1.292,0.829 2.504,1.604 3.638,2.329c1.129,0.725 2.175,1.417 3.129,2.075c0.958,0.658 1.9,1.404 2.821,2.233c0.917,0.833 1.871,1.663 2.85,2.488c0.983,0.825 1.896,1.588 2.746,2.292c0.846,0.7 1.604,1.379 2.267,2.042c0.663,0.658 1.275,1.296 1.838,1.904c0.558,0.608 1.063,1.254 1.513,1.938c0.454,0.683 0.863,1.371 1.229,2.063c0.367,0.692 0.692,1.317 0.979,1.867c0.283,0.554 0.533,1.058 0.738,1.517c0.208,0.458 0.35,0.954 0.425,1.496c0.075,0.542 0.113,1.142 0.113,1.796c0.004,0.658 0.004,1.313 0.004,1.971l0,3.925c0,0.6 -0.017,1.242 -0.042,1.925c-0.029,0.683 -0.104,1.429 -0.221,2.233c-0.121,0.804 -0.225,1.671 -0.321,2.6c-0.092,0.929 -0.158,1.867 -0.2,2.808c-0.042,0.942 -0.083,1.925 -0.125,2.954c-0.042,1.025 -0.079,2.113 -0.121,3.25c-0.042,1.142 -0.063,2.313 -0.063,3.504c-0.004,1.196 -0.004,2.367 -0.004,3.513l0,11.733c0,0.821 -0.004,1.663 -0.013,2.521c-0.008,0.854 -0.071,1.738 -0.188,2.65c-0.121,0.913 -0.25,1.813 -0.392,2.708c-0.142,0.892 -0.25,1.683 -0.325,2.371c-0.071,0.688 -0.121,1.25 -0.142,1.683c-0.021,0.433 -0.033,0.804 -0.033,1.113l0,0.229l0,-0.692" style="fill:none;fill-rule:nonzero;stroke:#63b633;stroke-width:7.08px;"/></g><g><path d="M136.313,268.395c0.388,0.104 0.613,-0.317 0.671,-1.263c0.054,-0.946 0.108,-1.913 0.158,-2.9c0.05,-0.988 0.108,-2.142 0.179,-3.458c0.071,-1.321 0.146,-2.642 0.225,-3.975c0.083,-1.329 0.167,-2.558 0.258,-3.692c0.092,-1.133 0.179,-2.146 0.258,-3.033c0.083,-0.888 0.129,-1.708 0.142,-2.463c0.013,-0.754 0.021,-1.475 0.021,-2.167c0,-0.692 -0.029,-1.388 -0.083,-2.096c-0.058,-0.708 -0.175,-1.446 -0.354,-2.213c-0.183,-0.767 -0.375,-1.554 -0.588,-2.363c-0.213,-0.808 -0.454,-1.617 -0.725,-2.417c-0.271,-0.8 -0.563,-1.617 -0.875,-2.442c-0.313,-0.829 -0.629,-1.671 -0.954,-2.521c-0.325,-0.85 -0.671,-1.717 -1.046,-2.592c-0.371,-0.879 -0.779,-1.792 -1.221,-2.729c-0.446,-0.942 -0.913,-1.9 -1.408,-2.871c-0.492,-0.971 -1.008,-1.908 -1.542,-2.813c-0.538,-0.904 -1.092,-1.8 -1.667,-2.692c-0.575,-0.892 -1.213,-1.763 -1.904,-2.617c-0.696,-0.854 -1.425,-1.621 -2.192,-2.296c-0.771,-0.675 -1.588,-1.304 -2.454,-1.879c-0.867,-0.579 -1.758,-1.163 -2.679,-1.75c-0.921,-0.588 -1.783,-1.163 -2.579,-1.733c-0.796,-0.571 -1.517,-1.063 -2.158,-1.471c-0.642,-0.413 -1.292,-0.808 -1.946,-1.192c-0.658,-0.383 -1.354,-0.779 -2.088,-1.183c-0.738,-0.404 -1.538,-0.858 -2.404,-1.358c-0.867,-0.504 -1.742,-1.013 -2.625,-1.529c-0.883,-0.521 -1.688,-1.021 -2.413,-1.508c-0.725,-0.488 -1.425,-1.004 -2.1,-1.558c-0.679,-0.554 -1.404,-1.158 -2.183,-1.813c-0.775,-0.658 -1.575,-1.304 -2.396,-1.942c-0.817,-0.642 -1.6,-1.275 -2.342,-1.904c-0.746,-0.629 -1.413,-1.225 -2.004,-1.796c-0.596,-0.567 -1.158,-1.204 -1.696,-1.904c-0.538,-0.704 -1.083,-1.438 -1.638,-2.208c-0.558,-0.771 -1.138,-1.525 -1.746,-2.267c-0.604,-0.738 -1.217,-1.479 -1.838,-2.217c-0.617,-0.738 -1.179,-1.525 -1.679,-2.363c-0.5,-0.833 -0.942,-1.713 -1.333,-2.633c-0.392,-0.921 -0.754,-1.858 -1.088,-2.821c-0.333,-0.958 -0.667,-1.913 -1.004,-2.867c-0.333,-0.954 -0.642,-1.904 -0.929,-2.846c-0.283,-0.942 -0.554,-1.838 -0.808,-2.679c-0.254,-0.846 -0.513,-1.696 -0.775,-2.554c-0.263,-0.858 -0.55,-1.721 -0.863,-2.583c-0.313,-0.858 -0.629,-1.717 -0.954,-2.567c-0.325,-0.85 -0.629,-1.683 -0.917,-2.492c-0.283,-0.813 -0.529,-1.638 -0.733,-2.479c-0.208,-0.842 -0.4,-1.692 -0.583,-2.55c-0.183,-0.858 -0.371,-1.738 -0.558,-2.638c-0.192,-0.896 -0.4,-1.833 -0.621,-2.804c-0.225,-0.971 -0.442,-1.967 -0.654,-2.988c-0.213,-1.021 -0.433,-2.058 -0.654,-3.108c-0.221,-1.054 -0.421,-2.096 -0.596,-3.129c-0.175,-1.033 -0.338,-2.096 -0.488,-3.2c-0.154,-1.1 -0.308,-2.271 -0.471,-3.513c-0.163,-1.242 -0.342,-2.467 -0.542,-3.675c-0.204,-1.204 -0.4,-2.354 -0.596,-3.442c-0.192,-1.088 -0.375,-2.167 -0.55,-3.242c-0.171,-1.071 -0.304,-2.233 -0.4,-3.479c-0.096,-1.25 -0.15,-2.525 -0.163,-3.833c-0.013,-1.308 -0.017,-2.517 -0.017,-3.633l0,-2.971c0,-0.867 0.025,-1.771 0.071,-2.717c0.046,-0.95 0.188,-2 0.425,-3.154c0.238,-1.158 0.446,-2.363 0.621,-3.617c0.179,-1.254 0.292,-2.471 0.346,-3.638c0.058,-1.171 0.083,-2.213 0.083,-3.125c0.004,-0.913 0.079,-1.704 0.233,-2.379c0.15,-0.671 0.479,-1.363 0.983,-2.071c0.5,-0.704 1.121,-1.479 1.854,-2.325c0.738,-0.846 1.4,-1.608 1.996,-2.288c0.596,-0.683 1.113,-1.238 1.554,-1.671c0.438,-0.429 0.917,-0.875 1.438,-1.338c0.521,-0.458 1.175,-1.046 1.967,-1.754c0.788,-0.708 1.683,-1.529 2.679,-2.454c0.996,-0.921 1.992,-1.796 2.988,-2.617c0.996,-0.817 1.896,-1.458 2.704,-1.917c0.804,-0.458 1.629,-0.817 2.463,-1.071c0.838,-0.258 1.796,-0.617 2.879,-1.083c1.083,-0.467 2.275,-1.058 3.575,-1.779c1.3,-0.725 2.546,-1.379 3.742,-1.967c1.192,-0.588 2.363,-1.05 3.513,-1.392c1.15,-0.342 2.5,-0.708 4.054,-1.108c1.55,-0.396 3.313,-0.946 5.288,-1.646c1.979,-0.7 3.825,-1.346 5.542,-1.929c1.717,-0.588 3.213,-1.008 4.492,-1.263c1.279,-0.258 2.604,-0.438 3.971,-0.538c1.367,-0.1 2.883,-0.308 4.558,-0.625c1.675,-0.313 3.313,-0.646 4.921,-0.992c1.604,-0.35 3.104,-0.613 4.5,-0.792c1.392,-0.179 2.763,-0.275 4.113,-0.292c1.346,-0.013 2.696,-0.025 4.042,-0.033c1.346,-0.008 2.679,-0.058 3.996,-0.146c1.317,-0.088 2.663,-0.2 4.038,-0.342c1.375,-0.142 2.788,-0.267 4.246,-0.383c1.454,-0.113 2.95,-0.183 4.483,-0.204c1.533,-0.021 3.142,-0.088 4.817,-0.192c1.679,-0.108 3.4,-0.267 5.171,-0.475c1.771,-0.208 3.504,-0.433 5.2,-0.667c1.696,-0.233 3.275,-0.375 4.729,-0.425c1.458,-0.046 2.908,-0.067 4.354,-0.054c1.446,0.008 2.988,0.021 4.629,0.042c1.642,0.025 3.367,0.033 5.175,0.033l5.538,0c1.879,0 3.721,0.021 5.517,0.054c1.8,0.038 3.521,0.229 5.167,0.571c1.646,0.342 3.254,0.733 4.825,1.167c1.571,0.433 3.108,0.842 4.608,1.221c1.504,0.379 2.942,0.654 4.317,0.821c1.375,0.171 2.646,0.313 3.817,0.421c1.171,0.113 2.288,0.246 3.354,0.396c1.067,0.15 2.133,0.296 3.208,0.438c1.075,0.142 2.117,0.308 3.133,0.496c1.017,0.192 1.979,0.483 2.883,0.879c0.904,0.4 1.821,0.863 2.75,1.396c0.929,0.533 1.888,1.029 2.879,1.492c0.992,0.458 1.9,0.892 2.717,1.3c0.821,0.404 1.5,0.825 2.033,1.258c0.538,0.429 1.021,0.913 1.458,1.45c0.438,0.533 0.913,1.071 1.425,1.608c0.513,0.538 1.067,1.067 1.663,1.596c0.596,0.525 1.171,1.042 1.721,1.55c0.546,0.504 1.038,1.021 1.467,1.546c0.429,0.525 0.833,1.075 1.208,1.654c0.375,0.575 0.733,1.171 1.067,1.783c0.338,0.617 0.671,1.296 1.004,2.042c0.333,0.746 0.646,1.508 0.933,2.288c0.288,0.779 0.542,1.596 0.767,2.454c0.221,0.854 0.425,1.738 0.608,2.65c0.183,0.913 0.383,1.846 0.592,2.804c0.213,0.963 0.413,1.896 0.596,2.8c0.183,0.904 0.363,1.742 0.533,2.504c0.175,0.767 0.321,1.55 0.446,2.354c0.125,0.808 0.238,1.654 0.338,2.542c0.1,0.892 0.225,1.771 0.375,2.646c0.15,0.875 0.308,1.692 0.483,2.454c0.171,0.763 0.313,1.483 0.413,2.167c0.104,0.683 0.175,1.446 0.208,2.3c0.033,0.85 0.05,1.779 0.05,2.788l0,8.863c0,0.942 0.004,1.896 0.013,2.867c0.013,0.971 0.058,1.971 0.146,3.004c0.088,1.029 0.2,2.025 0.329,2.983c0.133,0.958 0.271,1.808 0.425,2.554c0.15,0.75 0.292,1.363 0.425,1.838c0.133,0.479 0.229,0.842 0.296,1.088c0.063,0.25 0.096,0.45 0.096,0.596c0.004,0.146 0.004,0.242 0.004,0.283c0,0.046 -0.013,0 -0.033,-0.133c-0.033,-0.192 -0.133,-0.621 -0.3,-1.279" style="fill:none;fill-rule:nonzero;stroke:#63b633;stroke-width:7.08px;"/></g><g><path d="M104.229,235.221c0.238,0.192 0.346,-0.179 0.333,-1.108c-0.013,-0.933 -0.167,-1.746 -0.458,-2.433c-0.296,-0.688 -0.7,-1.379 -1.221,-2.079c-0.521,-0.7 -1.058,-1.375 -1.617,-2.025c-0.554,-0.65 -1.158,-1.292 -1.813,-1.929c-0.654,-0.638 -1.379,-1.333 -2.175,-2.088c-0.792,-0.754 -1.663,-1.538 -2.613,-2.346c-0.946,-0.808 -1.904,-1.592 -2.879,-2.342c-0.971,-0.754 -1.933,-1.483 -2.888,-2.179c-0.95,-0.7 -1.883,-1.404 -2.796,-2.113c-0.913,-0.708 -1.854,-1.446 -2.825,-2.213c-0.967,-0.767 -1.967,-1.571 -3,-2.408c-1.033,-0.838 -2.046,-1.65 -3.038,-2.433c-0.996,-0.783 -1.979,-1.475 -2.954,-2.071c-0.971,-0.592 -1.958,-1.108 -2.958,-1.55c-1,-0.438 -1.975,-0.913 -2.921,-1.425c-0.946,-0.513 -1.838,-1.117 -2.683,-1.817c-0.842,-0.704 -1.671,-1.483 -2.483,-2.342c-0.808,-0.858 -1.571,-1.667 -2.283,-2.433c-0.717,-0.763 -1.383,-1.504 -2.004,-2.225c-0.621,-0.721 -1.208,-1.488 -1.767,-2.3c-0.558,-0.813 -1.108,-1.733 -1.658,-2.758c-0.546,-1.029 -1.1,-2.033 -1.654,-3.021c-0.558,-0.988 -1.133,-1.863 -1.733,-2.621c-0.596,-0.758 -1.154,-1.45 -1.675,-2.079c-0.517,-0.629 -1.025,-1.325 -1.521,-2.092c-0.496,-0.763 -1.029,-1.563 -1.604,-2.388c-0.575,-0.829 -1.175,-1.638 -1.804,-2.421c-0.625,-0.783 -1.171,-1.533 -1.633,-2.254c-0.467,-0.721 -0.85,-1.508 -1.163,-2.371c-0.308,-0.863 -0.55,-1.842 -0.725,-2.942c-0.179,-1.096 -0.358,-2.258 -0.55,-3.492c-0.192,-1.229 -0.408,-2.463 -0.646,-3.704c-0.242,-1.238 -0.5,-2.421 -0.771,-3.546c-0.275,-1.125 -0.533,-2.275 -0.779,-3.446c-0.246,-1.171 -0.471,-2.413 -0.675,-3.725c-0.204,-1.313 -0.358,-2.7 -0.463,-4.163c-0.104,-1.463 -0.158,-2.938 -0.163,-4.429c-0.004,-1.488 -0.004,-2.958 -0.004,-4.408c0,-1.45 0.017,-2.854 0.042,-4.2c0.029,-1.35 0.071,-2.633 0.121,-3.846c0.05,-1.213 0.083,-2.367 0.096,-3.458c0.008,-1.096 0.017,-2.271 0.017,-3.529l0,-8.317c0,-1.454 -0.025,-2.929 -0.071,-4.413c-0.046,-1.488 -0.204,-3.033 -0.471,-4.642c-0.267,-1.604 -0.525,-3.171 -0.783,-4.696c-0.254,-1.521 -0.433,-3 -0.529,-4.433c-0.1,-1.433 -0.15,-2.808 -0.15,-4.125c0,-1.321 0.104,-2.608 0.313,-3.867c0.208,-1.263 0.642,-2.479 1.296,-3.654c0.654,-1.175 1.404,-2.379 2.25,-3.613c0.846,-1.233 1.733,-2.521 2.663,-3.863c0.929,-1.342 1.883,-2.796 2.863,-4.354c0.979,-1.563 1.946,-3.079 2.888,-4.546c0.946,-1.467 1.875,-2.792 2.788,-3.979c0.908,-1.183 1.833,-2.225 2.763,-3.125c0.929,-0.9 1.9,-1.804 2.908,-2.713c1.008,-0.904 2.083,-1.925 3.225,-3.05c1.138,-1.129 2.271,-2.221 3.396,-3.279c1.125,-1.058 2.25,-2.033 3.375,-2.917c1.125,-0.888 2.254,-1.758 3.388,-2.608c1.133,-0.85 2.263,-1.675 3.388,-2.479c1.125,-0.804 2.25,-1.575 3.371,-2.317c1.125,-0.742 2.304,-1.463 3.546,-2.163c1.238,-0.7 2.571,-1.379 3.992,-2.038c1.421,-0.658 2.879,-1.342 4.379,-2.05c1.5,-0.708 2.942,-1.388 4.321,-2.038c1.383,-0.65 2.742,-1.271 4.079,-1.863c1.338,-0.592 2.675,-1.083 4.013,-1.475c1.338,-0.392 2.675,-0.763 4.021,-1.117c1.346,-0.35 2.771,-0.783 4.275,-1.296c1.504,-0.513 2.988,-0.971 4.446,-1.371c1.463,-0.4 2.921,-0.754 4.379,-1.058c1.454,-0.308 2.925,-0.617 4.404,-0.929c1.479,-0.317 2.938,-0.604 4.375,-0.871c1.442,-0.267 2.858,-0.475 4.258,-0.633c1.4,-0.158 2.825,-0.242 4.279,-0.258c1.458,-0.013 2.913,-0.021 4.375,-0.021c1.458,0 2.858,-0.033 4.188,-0.1c1.333,-0.067 2.617,-0.213 3.854,-0.438c1.238,-0.229 2.508,-0.463 3.813,-0.696c1.3,-0.238 2.654,-0.379 4.058,-0.425c1.404,-0.05 2.871,-0.067 4.404,-0.058c1.538,0.008 3.125,0.025 4.763,0.046c1.638,0.021 3.192,0.033 4.658,0.033c1.467,0 2.863,0.017 4.192,0.054c1.333,0.038 2.667,0.138 4,0.296c1.338,0.158 2.7,0.275 4.096,0.35c1.396,0.075 2.767,0.117 4.117,0.117c1.354,0 2.658,0.046 3.917,0.129c1.258,0.088 2.513,0.25 3.771,0.488c1.254,0.238 2.488,0.467 3.696,0.683c1.208,0.213 2.321,0.438 3.342,0.667c1.021,0.229 2.013,0.492 2.983,0.783c0.975,0.292 2.013,0.583 3.121,0.867c1.108,0.288 2.196,0.525 3.267,0.721c1.067,0.196 2.058,0.413 2.975,0.654c0.917,0.238 1.85,0.496 2.796,0.767c0.95,0.275 1.967,0.546 3.058,0.821c1.088,0.275 2.167,0.571 3.233,0.892c1.067,0.325 2.054,0.7 2.963,1.129c0.904,0.429 1.742,0.975 2.504,1.646c0.767,0.671 1.513,1.4 2.242,2.188c0.729,0.788 1.467,1.558 2.217,2.313c0.75,0.75 1.467,1.492 2.146,2.217c0.683,0.729 1.325,1.483 1.925,2.258c0.6,0.779 1.154,1.608 1.663,2.483c0.513,0.879 0.983,1.779 1.421,2.7c0.442,0.917 0.85,1.821 1.238,2.704c0.388,0.883 0.75,1.725 1.088,2.517c0.333,0.792 0.621,1.563 0.858,2.313c0.238,0.75 0.45,1.579 0.646,2.496c0.192,0.917 0.363,1.825 0.504,2.729c0.146,0.904 0.292,1.742 0.442,2.521c0.154,0.775 0.296,1.442 0.429,1.996c0.129,0.554 0.238,1.121 0.321,1.704c0.083,0.579 0.146,1.25 0.188,2.004c0.042,0.754 0.067,1.554 0.079,2.404c0.008,0.846 0.025,1.704 0.046,2.579c0.021,0.871 0.033,1.654 0.033,2.35l0,5.767c0,0.821 -0.017,1.708 -0.042,2.658c-0.029,0.954 -0.104,1.875 -0.221,2.767c-0.121,0.896 -0.221,1.796 -0.304,2.704c-0.083,0.908 -0.154,1.821 -0.217,2.733c-0.063,0.917 -0.125,1.779 -0.196,2.592c-0.071,0.817 -0.138,1.504 -0.2,2.063c-0.063,0.554 -0.096,0.992 -0.096,1.304l0,0.542c0,0.05 0.029,-0.008 0.088,-0.175c0.083,-0.242 0.346,-0.796 0.792,-1.663" style="fill:none;fill-rule:nonzero;stroke:#c2361a;stroke-width:7.08px;"/></g><g><path d="M108.275,80.47c0.3,0.142 0.854,0.075 1.675,-0.204c0.521,-0.175 0.796,-0.396 0.829,-0.658c0.033,-0.263 -0.1,-0.517 -0.392,-0.758c-0.288,-0.246 -0.625,-0.496 -1,-0.758c-0.375,-0.263 -0.746,-0.567 -1.108,-0.908c-0.367,-0.338 -0.754,-0.671 -1.167,-1c-0.413,-0.325 -0.913,-0.592 -1.5,-0.8c-0.592,-0.213 -1.279,-0.329 -2.063,-0.354c-0.779,-0.025 -1.6,-0.004 -2.45,0.063c-0.85,0.067 -1.663,0.254 -2.433,0.571c-0.775,0.317 -1.521,0.688 -2.242,1.108c-0.721,0.421 -1.442,0.854 -2.158,1.304c-0.717,0.446 -1.396,0.879 -2.025,1.304c-0.633,0.429 -1.192,0.854 -1.675,1.279c-0.483,0.425 -0.888,0.854 -1.217,1.288c-0.329,0.438 -0.642,0.875 -0.946,1.321c-0.304,0.446 -0.65,0.925 -1.042,1.438c-0.392,0.513 -0.808,1.071 -1.254,1.675c-0.446,0.604 -0.838,1.229 -1.175,1.867c-0.342,0.638 -0.633,1.258 -0.879,1.871c-0.246,0.608 -0.463,1.183 -0.646,1.721c-0.188,0.542 -0.346,1.113 -0.475,1.713c-0.133,0.604 -0.275,1.258 -0.425,1.963c-0.154,0.708 -0.292,1.396 -0.413,2.071c-0.125,0.671 -0.204,1.267 -0.238,1.788c-0.033,0.525 -0.05,1.013 -0.05,1.471c0,0.454 0.004,0.95 0.013,1.483c0.008,0.533 0.063,1.1 0.158,1.708c0.1,0.604 0.246,1.208 0.446,1.804c0.2,0.6 0.458,1.188 0.775,1.767c0.321,0.579 0.696,1.146 1.129,1.704c0.429,0.558 0.863,1.117 1.304,1.683c0.438,0.567 0.838,1.179 1.204,1.846c0.367,0.663 0.733,1.367 1.096,2.104c0.363,0.738 0.746,1.442 1.15,2.113c0.404,0.671 0.838,1.321 1.3,1.95c0.467,0.629 0.992,1.258 1.583,1.888c0.592,0.629 1.204,1.242 1.833,1.838c0.629,0.6 1.238,1.171 1.825,1.708c0.588,0.538 1.196,1.079 1.821,1.625c0.625,0.546 1.304,1.075 2.038,1.583c0.738,0.508 1.496,1.033 2.288,1.579c0.792,0.542 1.567,1.1 2.325,1.667c0.763,0.567 1.521,1.142 2.267,1.729c0.75,0.588 1.513,1.171 2.292,1.75c0.779,0.575 1.529,1.129 2.25,1.658c0.725,0.529 1.421,1.088 2.092,1.683c0.671,0.596 1.3,1.208 1.892,1.846c0.588,0.633 1.167,1.25 1.733,1.842c0.567,0.592 1.175,1.138 1.829,1.638c0.658,0.496 1.363,0.913 2.117,1.242c0.758,0.333 1.492,0.658 2.204,0.979c0.713,0.321 1.342,0.704 1.883,1.146c0.546,0.438 1.058,0.921 1.546,1.446c0.488,0.525 0.975,0.996 1.471,1.404c0.496,0.413 1.025,0.767 1.592,1.063c0.567,0.296 1.125,0.575 1.683,0.829c0.558,0.254 1.129,0.442 1.713,0.558c0.588,0.117 1.263,0.183 2.038,0.196c0.771,0.013 1.638,0.017 2.604,0.017c0.967,0 1.983,-0.058 3.058,-0.171c1.071,-0.117 2.1,-0.288 3.088,-0.517c0.983,-0.229 1.946,-0.517 2.892,-0.858c0.942,-0.338 1.821,-0.658 2.642,-0.958c0.817,-0.296 1.492,-0.529 2.033,-0.696c0.538,-0.167 1.038,-0.313 1.5,-0.442c0.463,-0.133 1.004,-0.4 1.629,-0.8c0.621,-0.404 1.25,-0.913 1.892,-1.525c0.642,-0.608 1.2,-1.283 1.683,-2.021c0.483,-0.733 0.871,-1.496 1.163,-2.288c0.288,-0.788 0.529,-1.579 0.725,-2.379c0.196,-0.8 0.354,-1.596 0.479,-2.388c0.125,-0.788 0.238,-1.608 0.338,-2.454c0.104,-0.85 0.167,-1.738 0.188,-2.667c0.025,-0.929 0.013,-1.908 -0.033,-2.933c-0.046,-1.029 -0.25,-2.117 -0.613,-3.271c-0.363,-1.15 -0.8,-2.346 -1.313,-3.592c-0.513,-1.242 -1.063,-2.488 -1.646,-3.733c-0.583,-1.246 -1.25,-2.483 -1.992,-3.721c-0.742,-1.233 -1.538,-2.467 -2.388,-3.692c-0.85,-1.225 -1.717,-2.433 -2.604,-3.621c-0.888,-1.188 -1.879,-2.354 -2.975,-3.496c-1.096,-1.146 -2.2,-2.288 -3.321,-3.421c-1.117,-1.138 -2.117,-2.263 -2.996,-3.375c-0.879,-1.117 -1.767,-2.167 -2.663,-3.158c-0.896,-0.988 -1.917,-1.875 -3.063,-2.663c-1.146,-0.783 -2.346,-1.563 -3.6,-2.329c-1.254,-0.767 -2.55,-1.583 -3.892,-2.45c-1.346,-0.867 -2.754,-1.783 -4.229,-2.742c-1.475,-0.963 -2.883,-1.838 -4.229,-2.625c-1.346,-0.792 -2.5,-1.475 -3.454,-2.058c-0.958,-0.579 -1.704,-1.183 -2.238,-1.808c-0.533,-0.625 -0.838,-1.042 -0.904,-1.246c-0.1,-0.292 0.333,-0.7 1.304,-1.221" style="fill:none;fill-rule:nonzero;stroke:#983da2;stroke-width:3.54px;"/></g><g><path d="M262.908,88.019c0.292,0.013 0.621,0.008 0.996,-0.021c0.246,-0.017 0.192,-0.163 -0.163,-0.429c-0.354,-0.267 -0.883,-0.592 -1.588,-0.971c-0.704,-0.379 -1.396,-0.8 -2.075,-1.258c-0.675,-0.463 -1.396,-0.975 -2.163,-1.538c-0.763,-0.563 -1.646,-1.183 -2.65,-1.858c-1.004,-0.675 -2.1,-1.317 -3.288,-1.929c-1.192,-0.613 -2.446,-1.196 -3.767,-1.754c-1.325,-0.558 -2.725,-1.079 -4.208,-1.558c-1.479,-0.483 -3.025,-0.846 -4.633,-1.088c-1.608,-0.242 -3.183,-0.375 -4.729,-0.4c-1.542,-0.029 -2.938,0.021 -4.188,0.146c-1.25,0.121 -2.325,0.358 -3.229,0.708c-0.9,0.35 -1.738,0.717 -2.508,1.1c-0.771,0.383 -1.525,0.758 -2.254,1.121c-0.729,0.367 -1.442,0.808 -2.133,1.329c-0.692,0.517 -1.317,1.183 -1.879,2c-0.563,0.817 -1.025,1.85 -1.388,3.1c-0.367,1.25 -0.579,2.625 -0.638,4.121c-0.063,1.492 -0.054,2.908 0.021,4.242c0.075,1.338 0.254,2.579 0.533,3.729c0.279,1.15 0.583,2.308 0.913,3.479c0.333,1.171 0.679,2.383 1.046,3.638c0.363,1.254 0.763,2.546 1.192,3.871c0.433,1.325 0.933,2.588 1.504,3.788c0.571,1.2 1.229,2.354 1.975,3.458c0.742,1.108 1.533,2.217 2.371,3.329c0.838,1.113 1.721,2.204 2.65,3.271c0.925,1.067 1.867,2.129 2.821,3.192c0.95,1.063 1.892,2.154 2.813,3.275c0.925,1.125 1.796,2.183 2.621,3.183c0.821,1 1.683,1.933 2.579,2.796c0.896,0.863 1.825,1.708 2.788,2.529c0.958,0.821 1.908,1.671 2.842,2.546c0.933,0.879 1.854,1.813 2.767,2.804c0.908,0.988 1.917,1.913 3.021,2.771c1.108,0.858 2.275,1.6 3.508,2.225c1.238,0.625 2.383,1.208 3.446,1.746c1.067,0.538 1.975,1.071 2.733,1.6c0.758,0.525 1.525,1.013 2.3,1.463c0.775,0.45 1.638,0.796 2.583,1.038c0.946,0.242 1.921,0.383 2.925,0.417c1,0.038 1.946,0.025 2.833,-0.042c0.883,-0.063 1.725,-0.271 2.517,-0.617c0.796,-0.346 1.525,-0.7 2.188,-1.054c0.658,-0.354 1.288,-0.7 1.875,-1.033c0.592,-0.338 1.2,-0.7 1.838,-1.092c0.633,-0.392 1.271,-0.817 1.913,-1.283c0.638,-0.463 1.221,-0.938 1.742,-1.421c0.521,-0.488 1.021,-0.958 1.496,-1.417c0.479,-0.454 0.904,-0.938 1.283,-1.438c0.379,-0.504 0.708,-1.108 0.983,-1.808c0.279,-0.7 0.508,-1.5 0.696,-2.404c0.188,-0.904 0.325,-1.85 0.421,-2.829c0.092,-0.983 0.146,-1.971 0.158,-2.958c0.013,-0.992 0.021,-2.092 0.021,-3.296c0,-1.208 -0.017,-2.404 -0.042,-3.596c-0.029,-1.192 -0.121,-2.313 -0.279,-3.371c-0.154,-1.054 -0.383,-2.108 -0.683,-3.163c-0.296,-1.05 -0.663,-2.204 -1.096,-3.463c-0.433,-1.254 -0.896,-2.546 -1.388,-3.875c-0.492,-1.329 -1.071,-2.65 -1.742,-3.963c-0.671,-1.317 -1.5,-2.717 -2.492,-4.196c-0.988,-1.479 -2.204,-3.063 -3.658,-4.746c-1.45,-1.688 -3.075,-3.375 -4.867,-5.071c-1.792,-1.696 -3.546,-3.271 -5.254,-4.733c-1.713,-1.458 -3.196,-2.679 -4.45,-3.658c-1.983,-1.554 -3.421,-2.296 -4.308,-2.225" style="fill:none;fill-rule:nonzero;stroke:#983da2;stroke-width:3.54px;"/></g><g><path d="M155.95,76.385c-0.167,0.117 -0.608,0.075 -1.317,-0.121c-0.446,-0.121 -0.846,-0.329 -1.196,-0.621c-0.354,-0.292 -0.738,-0.542 -1.163,-0.75c-0.421,-0.208 -0.95,-0.329 -1.588,-0.367c-0.638,-0.038 -1.438,0.229 -2.4,0.792c-0.963,0.567 -1.917,1.496 -2.867,2.796c-0.95,1.296 -1.575,2.558 -1.875,3.788c-0.3,1.229 -0.088,2.158 0.633,2.792c0.725,0.629 1.754,1.033 3.088,1.204c1.333,0.175 2.446,0.3 3.338,0.371c0.892,0.071 1.479,0.142 1.763,0.213c0.288,0.067 0.283,0.258 -0.004,0.571c-0.292,0.313 -0.846,0.829 -1.667,1.554c-0.821,0.721 -1.521,1.613 -2.1,2.667c-0.583,1.054 -0.983,2.167 -1.196,3.338c-0.217,1.175 -0.146,2.167 0.208,2.979c0.354,0.813 1.275,1.292 2.767,1.446c1.488,0.154 3.283,0.042 5.388,-0.333c3.2,-0.575 6.046,-1.192 8.55,-1.85" style="fill:none;fill-rule:nonzero;stroke:#983da2;stroke-width:3.54px;"/></g><g><path d="M307.567,95.863l0,-4.167c0,-0.342 -0.138,-0.567 -0.413,-0.675c-0.275,-0.113 -0.842,-0.1 -1.704,0.029c-0.863,0.129 -1.908,0.529 -3.133,1.196c-1.221,0.671 -2.521,1.5 -3.896,2.496c-1.375,0.992 -2.629,2.092 -3.758,3.3c-1.129,1.208 -1.863,2.371 -2.2,3.488c-0.338,1.113 -0.104,1.913 0.7,2.396c0.8,0.479 1.942,0.708 3.425,0.679c1.483,-0.025 2.746,-0.15 3.792,-0.367c1.046,-0.221 1.742,-0.379 2.092,-0.475l0.196,-0.05l-0.563,0.179c-0.596,0.188 -1.529,0.7 -2.796,1.542c-1.271,0.842 -2.338,1.754 -3.213,2.746c-0.871,0.996 -1.4,1.963 -1.588,2.904c-0.183,0.946 0.129,1.746 0.942,2.4c0.813,0.654 2.042,1.083 3.688,1.292c1.646,0.204 3.313,0.25 4.996,0.129c2.529,-0.175 4.592,-0.879 6.188,-2.1" style="fill:none;fill-rule:nonzero;stroke:#983da2;stroke-width:3.54px;"/></g><g><path d="M240.758,238.868c0.125,0.317 0.292,0.642 0.496,0.971c0.208,0.329 0.375,0.633 0.496,0.913c0.121,0.279 0.229,0.629 0.321,1.046c0.092,0.421 0.163,0.971 0.217,1.65c0.054,0.679 0.083,1.425 0.096,2.242c0.013,0.817 0.029,1.638 0.046,2.458c0.021,0.821 0.033,1.642 0.046,2.463c0.013,0.821 0.017,1.625 0.017,2.417l0,2.3c0,0.742 -0.025,1.442 -0.071,2.104c-0.05,0.663 -0.079,1.096 -0.092,1.296c-0.013,0.204 -0.075,0.242 -0.183,0.121" style="fill:none;fill-rule:nonzero;stroke:#c2361a;stroke-width:7.08px;"/></g><g><path d="M104.617,234.734c0.279,-0.108 0.646,-0.042 1.096,0.196c0.296,0.158 0.458,0.496 0.483,1.017c0.025,0.517 0.038,1.242 0.038,2.171l0,2.975c0,1.05 0.004,2.075 0.013,3.067c0.013,0.996 0.05,2.083 0.121,3.271c0.067,1.183 0.108,2.475 0.121,3.879c0.013,1.4 0.021,2.758 0.021,4.075l0,3.55c0,1.054 0.004,1.946 0.013,2.675c0.008,0.733 0.092,1.358 0.246,1.879c0.154,0.517 0.288,0.996 0.392,1.438l0.079,0.329l-0.238,-0.988" style="fill:none;fill-rule:nonzero;stroke:#c2361a;stroke-width:7.08px;"/></g><g><path d="M361.796,110.17c-0.308,0.021 -0.788,0.046 -1.429,0.071c-0.408,0.017 -0.613,0.017 -0.617,0.008c0,-0.008 0.458,-0.046 1.383,-0.117c0.929,-0.071 2.45,-0.15 4.571,-0.238c2.121,-0.092 4.471,-0.217 7.046,-0.375c2.571,-0.158 4.904,-0.267 6.996,-0.325c2.088,-0.058 3.338,-0.079 3.75,-0.063c0.408,0.021 0.342,0.063 -0.204,0.129c-0.804,0.1 -1.6,0.5 -2.396,1.196" style="fill:none;fill-rule:nonzero;stroke:#000;stroke-width:3.54px;"/></g><g><path d="M358.504,121.89c-0.388,-0.083 -0.808,-0.008 -1.263,0.221c-0.3,0.15 -0.117,0.267 0.558,0.342c0.675,0.075 2.021,0.113 4.042,0.113c2.021,0.004 4.488,-0.013 7.396,-0.038c4.358,-0.046 8.733,0.063 13.117,0.317" style="fill:none;fill-rule:nonzero;stroke:#000;stroke-width:3.54px;"/></g><g><path d="M419.767,117.736c-0.117,0.538 0.15,0.838 0.808,0.904c0.654,0.067 1.396,0.1 2.217,0.1c0.825,0 1.979,-0.017 3.471,-0.054c1.492,-0.038 3.292,-0.133 5.404,-0.283c2.113,-0.146 4.113,-0.267 6.004,-0.35c1.892,-0.088 3.458,-0.129 4.7,-0.129c1.242,-0.004 2.121,-0.004 2.642,-0.004l0.938,0c0.142,0 0.117,0.2 -0.083,0.596" style="fill:none;fill-rule:nonzero;stroke:#000;stroke-width:3.54px;"/></g><g><path d="M504.708,98.872c0,-0.317 -0.025,-0.646 -0.083,-0.988c-0.058,-0.346 -0.213,-0.554 -0.467,-0.629c-0.258,-0.075 -0.654,-0.096 -1.188,-0.058c-0.538,0.033 -1.167,0.275 -1.892,0.725c-0.725,0.446 -1.467,1.033 -2.225,1.754c-0.763,0.725 -1.429,1.496 -2.008,2.313c-0.575,0.817 -0.958,1.633 -1.146,2.458c-0.183,0.821 -0.113,1.583 0.217,2.288c0.329,0.704 0.921,1.329 1.767,1.871c0.85,0.542 1.729,0.992 2.642,1.342c0.913,0.354 1.846,0.571 2.808,0.65c0.958,0.079 1.892,-0.058 2.796,-0.421c0.904,-0.363 1.7,-0.95 2.375,-1.763c0.679,-0.808 1.238,-1.638 1.671,-2.479c0.433,-0.842 0.721,-1.663 0.863,-2.463c0.142,-0.8 0.192,-1.579 0.15,-2.329c-0.042,-0.75 -0.333,-1.425 -0.867,-2.021c-0.538,-0.596 -1.271,-1.079 -2.2,-1.45c-0.929,-0.375 -1.975,-0.617 -3.133,-0.729c-1.163,-0.108 -2.246,-0.167 -3.258,-0.167c-1.013,0 -1.817,0.05 -2.408,0.154c-0.596,0.104 -1.029,0.438 -1.3,1.004c-0.275,0.567 -0.442,1.5 -0.5,2.8c-0.054,1.3 0.108,2.754 0.488,4.363c0.383,1.608 1.029,2.917 1.95,3.933c0.917,1.017 1.946,1.517 3.083,1.504c1.142,-0.008 2.15,-0.567 3.029,-1.667c0.879,-1.096 1.433,-2.296 1.671,-3.596c0.233,-1.3 0.283,-2.421 0.154,-3.358c-0.129,-0.938 -0.592,-1.633 -1.392,-2.088c-0.804,-0.454 -1.738,-0.592 -2.8,-0.413c-1.067,0.179 -1.85,0.45 -2.346,0.817c-0.5,0.367 -0.842,0.675 -1.025,0.933c-0.183,0.258 -0.288,0.471 -0.308,0.633c-0.025,0.167 -0.038,0.288 -0.038,0.358l0,1.5c0,0.308 0.004,0.667 0.013,1.067c0.013,0.404 0.029,0.829 0.063,1.283c0.029,0.454 0.063,0.967 0.104,1.542c0.042,0.571 0.104,1.171 0.192,1.796c0.088,0.629 0.188,1.258 0.3,1.896c0.113,0.642 0.229,1.254 0.35,1.846c0.121,0.588 0.258,1.142 0.408,1.663c0.15,0.521 0.283,1.025 0.396,1.521c0.113,0.496 0.204,1.042 0.279,1.633c0.071,0.592 0.133,1.267 0.183,2.021c0.054,0.754 0.1,1.492 0.138,2.217c0.042,0.721 0.092,1.35 0.15,1.883c0.063,0.533 0.113,1.033 0.154,1.5c0.042,0.467 0.067,0.967 0.079,1.5c0.013,0.533 0.017,1.092 0.017,1.667l0,3.404c0,0.538 0.017,1.033 0.046,1.483c0.029,0.45 0.042,0.875 0.046,1.283l0,9c0,0.325 0.029,0.667 0.088,1.029c0.058,0.363 0.108,0.75 0.15,1.163c0.042,0.417 0.075,0.875 0.096,1.375c0.021,0.504 0.042,1.021 0.058,1.558c0.021,0.538 0.05,1.104 0.092,1.696c0.038,0.596 0.088,1.217 0.15,1.863c0.058,0.646 0.117,1.321 0.167,2.017c0.05,0.696 0.104,1.371 0.154,2.021c0.046,0.65 0.113,1.288 0.192,1.904c0.079,0.621 0.171,1.25 0.271,1.896c0.1,0.646 0.217,1.329 0.346,2.046c0.133,0.717 0.267,1.413 0.396,2.083c0.133,0.671 0.25,1.3 0.35,1.892c0.1,0.588 0.196,1.167 0.275,1.738c0.083,0.567 0.163,1.108 0.233,1.629c0.071,0.517 0.117,1.054 0.142,1.608c0.021,0.554 0.033,1.129 0.033,1.729l0,13.229c0,0.604 -0.017,1.271 -0.042,2.004c-0.029,0.733 -0.104,1.5 -0.225,2.3c-0.117,0.8 -0.225,1.558 -0.317,2.271c-0.092,0.713 -0.183,1.383 -0.275,2.017c-0.092,0.629 -0.171,1.254 -0.242,1.871c-0.075,0.617 -0.15,1.254 -0.229,1.913c-0.079,0.654 -0.15,1.317 -0.213,1.983c-0.063,0.667 -0.125,1.342 -0.183,2.021c-0.063,0.679 -0.121,1.338 -0.183,1.979c-0.063,0.638 -0.121,1.3 -0.183,1.988c-0.058,0.688 -0.125,1.363 -0.196,2.033c-0.071,0.671 -0.138,1.3 -0.2,1.892c-0.058,0.588 -0.129,1.158 -0.208,1.708c-0.079,0.55 -0.167,1.083 -0.258,1.6c-0.092,0.513 -0.163,1.004 -0.217,1.463c-0.05,0.458 -0.083,0.858 -0.096,1.196c-0.008,0.338 -0.017,0.654 -0.017,0.95l0,10.979c0,0.754 -0.008,1.588 -0.025,2.492c-0.021,0.904 -0.083,1.829 -0.192,2.771c-0.108,0.942 -0.213,1.833 -0.304,2.667c-0.092,0.838 -0.15,1.588 -0.175,2.25c-0.021,0.663 -0.033,1.367 -0.033,2.108l0,2.563c0,0.967 0.004,1.888 0.017,2.767c0.008,0.879 0.054,1.596 0.142,2.146c0.088,0.55 0.2,0.988 0.329,1.317c0.133,0.329 0.238,0.688 0.308,1.079c0.075,0.388 0.113,0.821 0.113,1.296c0.004,0.475 0.004,0.975 0.004,1.496c0,0.525 -0.013,1.083 -0.042,1.679c-0.029,0.6 -0.063,1.133 -0.104,1.604c-0.042,0.471 -0.075,0.9 -0.096,1.288c-0.021,0.388 -0.033,0.763 -0.033,1.129l0,1.367l0,-0.821" style="fill:none;fill-rule:nonzero;stroke:#c2361a;stroke-width:7.08px;"/></g><g><path d="M537.888,131.319c0,-0.238 -0.008,-0.538 -0.017,-0.9c-0.008,-0.363 -0.079,-0.621 -0.217,-0.771c-0.138,-0.15 -0.346,-0.283 -0.633,-0.396c-0.288,-0.117 -0.796,-0.142 -1.525,-0.071c-0.729,0.071 -1.629,0.533 -2.696,1.392c-1.067,0.858 -1.979,1.946 -2.738,3.267c-0.763,1.317 -1.142,2.517 -1.142,3.6c0,1.079 0.508,1.783 1.525,2.117c1.017,0.333 2.163,0.363 3.442,0.092c1.279,-0.271 2.417,-0.858 3.413,-1.771c0.996,-0.913 1.708,-2.025 2.138,-3.338c0.425,-1.313 0.567,-2.638 0.417,-3.971c-0.15,-1.338 -0.7,-2.388 -1.654,-3.15c-0.958,-0.767 -2.108,-1.138 -3.45,-1.121c-1.346,0.021 -2.746,0.667 -4.196,1.946c-1.454,1.279 -2.592,2.75 -3.413,4.417c-0.821,1.663 -1.075,3.038 -0.758,4.117c0.313,1.083 1.4,1.729 3.258,1.938c1.854,0.213 3.717,0.088 5.575,-0.371c1.863,-0.458 3.321,-1.154 4.375,-2.083c1.054,-0.929 1.729,-1.983 2.025,-3.163c0.3,-1.175 0.263,-2.367 -0.104,-3.567c-0.367,-1.2 -1.071,-2.017 -2.113,-2.446c-1.042,-0.429 -2.167,-0.3 -3.375,0.392c-1.208,0.696 -2.138,1.813 -2.779,3.354c-0.646,1.538 -0.963,3.004 -0.954,4.388c0.008,1.383 0.354,2.333 1.038,2.842c0.688,0.513 1.413,0.588 2.179,0.225c0.767,-0.363 1.329,-1.05 1.692,-2.071c0.358,-1.021 0.529,-2.067 0.513,-3.133c-0.017,-1.067 -0.075,-1.525 -0.167,-1.375c-0.092,0.15 -0.321,0.525 -0.688,1.121c-0.367,0.6 -0.646,1.454 -0.833,2.563c-0.188,1.113 -0.288,2.267 -0.304,3.467c-0.017,1.2 -0.021,2.492 -0.021,3.871l0,4.446c0,1.583 0.013,3.167 0.042,4.75c0.029,1.583 0.088,3.117 0.175,4.596c0.092,1.483 0.188,2.938 0.288,4.367c0.1,1.429 0.163,2.846 0.188,4.258c0.025,1.408 0.038,2.846 0.038,4.321c0,1.475 -0.042,3.013 -0.117,4.621c-0.075,1.608 -0.179,3.179 -0.313,4.713c-0.133,1.533 -0.254,3.071 -0.363,4.617c-0.113,1.55 -0.238,3.125 -0.379,4.738c-0.142,1.608 -0.263,3.188 -0.367,4.742c-0.104,1.55 -0.163,3.092 -0.175,4.621c-0.017,1.529 -0.021,3.088 -0.021,4.675l0,4.796c0,1.608 -0.013,3.213 -0.042,4.817c-0.029,1.6 -0.088,3.246 -0.179,4.942c-0.088,1.696 -0.171,3.471 -0.242,5.321c-0.071,1.85 -0.142,3.5 -0.213,4.954c-0.075,1.45 -0.117,2.571 -0.129,3.358c-0.013,0.788 -0.017,1.525 -0.017,2.213l0,9.075c0,1.038 -0.021,2.029 -0.058,2.975c-0.038,0.942 -0.067,1.896 -0.092,2.854c-0.021,0.963 -0.033,1.867 -0.033,2.713l0,9.063c0,0.646 0.017,1.288 0.046,1.917c0.029,0.633 0.054,1.188 0.075,1.671c0.033,0.779 0.088,1.308 0.171,1.583" style="fill:none;fill-rule:nonzero;stroke:#63b633;stroke-width:7.08px;"/></g><g><path d="M671.721,133.537c0.163,0.104 0.504,0.046 1.025,-0.171c0.333,-0.138 0.517,-0.288 0.542,-0.45c0.025,-0.163 0.038,-0.329 0.038,-0.5c0,-0.171 -0.05,-0.329 -0.146,-0.475c-0.096,-0.142 -0.263,-0.263 -0.496,-0.354c-0.238,-0.096 -0.604,-0.146 -1.104,-0.158c-0.496,-0.013 -1.067,-0.021 -1.713,-0.021c-0.642,0 -1.3,0.067 -1.971,0.2c-0.667,0.133 -1.275,0.375 -1.817,0.721c-0.542,0.35 -1.021,0.854 -1.442,1.517c-0.421,0.667 -0.725,1.533 -0.917,2.604c-0.192,1.067 -0.288,2.171 -0.283,3.313c0.004,1.138 0.192,2.058 0.558,2.754c0.367,0.696 0.892,1.163 1.571,1.392c0.679,0.229 1.442,0.329 2.288,0.308c0.846,-0.025 1.713,-0.213 2.592,-0.567c0.883,-0.35 1.708,-0.792 2.471,-1.321c0.763,-0.533 1.446,-1.146 2.042,-1.838c0.596,-0.692 1.029,-1.467 1.304,-2.325c0.279,-0.854 0.388,-1.708 0.329,-2.563c-0.054,-0.854 -0.392,-1.575 -1.008,-2.163c-0.621,-0.588 -1.396,-1.021 -2.329,-1.296c-0.933,-0.275 -1.913,-0.438 -2.933,-0.483c-1.021,-0.046 -1.963,0.092 -2.821,0.417c-0.863,0.321 -1.621,0.942 -2.288,1.854c-0.663,0.908 -1.179,1.963 -1.55,3.15c-0.371,1.192 -0.5,2.367 -0.388,3.525c0.113,1.158 0.65,2.063 1.608,2.704c0.958,0.642 2.138,1.004 3.542,1.079c1.4,0.075 2.675,-0.092 3.825,-0.504c1.15,-0.413 2.025,-1.05 2.621,-1.908c0.6,-0.858 0.925,-1.8 0.975,-2.821c0.05,-1.021 -0.267,-1.904 -0.946,-2.65c-0.679,-0.746 -1.504,-1.192 -2.475,-1.333c-0.971,-0.142 -1.8,-0.096 -2.483,0.133c-0.683,0.229 -1.179,0.513 -1.483,0.85c-0.308,0.333 -0.483,0.642 -0.529,0.917c-0.05,0.271 -0.075,0.554 -0.075,0.846c0,0.292 0.021,0.658 0.058,1.096c0.038,0.442 0.142,1.004 0.321,1.692c0.179,0.692 0.375,1.525 0.588,2.508c0.213,0.979 0.421,2.067 0.621,3.254c0.204,1.192 0.388,2.388 0.55,3.596c0.167,1.204 0.304,2.383 0.417,3.525c0.113,1.146 0.188,2.313 0.221,3.496c0.033,1.183 0.05,2.425 0.05,3.725c0,1.304 -0.004,2.617 -0.013,3.946c-0.008,1.325 -0.025,2.604 -0.046,3.833c-0.021,1.233 -0.029,2.421 -0.029,3.567l0,14.367c0,1.354 0.013,2.638 0.042,3.85c0.025,1.217 0.088,2.325 0.175,3.338c0.092,1.008 0.154,1.996 0.188,2.967c0.033,0.971 0.05,2.063 0.05,3.275l0,36.788c0,1.338 -0.004,2.658 -0.013,3.954c-0.013,1.296 -0.05,2.617 -0.121,3.963c-0.067,1.346 -0.125,2.654 -0.167,3.925c-0.042,1.271 -0.063,2.425 -0.063,3.471c-0.004,1.042 -0.004,1.967 -0.004,2.775c0,0.804 -0.004,1.667 -0.013,2.575c-0.008,0.913 -0.096,1.983 -0.258,3.204c-0.167,1.225 -0.371,2.458 -0.613,3.7c-0.246,1.246 -0.413,2.288 -0.5,3.138c-0.088,0.846 -0.138,1.504 -0.146,1.971c-0.013,0.463 -0.017,0.975 -0.017,1.533c-0.004,0.808 -0.271,1.988 -0.804,3.542" style="fill:none;fill-rule:nonzero;stroke:#63b633;stroke-width:7.08px;"/></g><g><path d="M642.746,103.076c0.575,-0.158 1.067,-0.854 1.467,-2.088c0.263,-0.813 0.25,-1.583 -0.046,-2.313c-0.292,-0.729 -0.8,-1.338 -1.517,-1.825c-0.717,-0.488 -1.525,-0.829 -2.421,-1.021c-0.9,-0.196 -1.804,-0.275 -2.713,-0.242c-0.913,0.029 -1.833,0.292 -2.767,0.779c-0.933,0.488 -1.767,1.158 -2.508,2.004c-0.738,0.85 -1.229,1.846 -1.475,2.992c-0.242,1.146 -0.033,2.308 0.621,3.483c0.658,1.179 1.608,2.146 2.858,2.892c1.254,0.75 2.4,1.246 3.442,1.483c1.042,0.242 1.979,0.325 2.804,0.258c0.829,-0.071 1.55,-0.375 2.167,-0.913c0.613,-0.542 1.2,-1.304 1.754,-2.288c0.558,-0.988 1.108,-2.129 1.646,-3.429c0.542,-1.3 0.892,-2.467 1.05,-3.496c0.158,-1.029 0.038,-1.758 -0.363,-2.188c-0.396,-0.425 -1.158,-0.658 -2.283,-0.7c-1.121,-0.038 -2.338,-0.05 -3.642,-0.029c-1.304,0.017 -2.521,0.208 -3.642,0.575c-1.125,0.367 -2.113,0.988 -2.963,1.863c-0.85,0.871 -1.475,1.904 -1.871,3.092c-0.392,1.183 -0.458,2.379 -0.196,3.579c0.267,1.2 1.042,2.142 2.333,2.821c1.296,0.683 2.733,1.067 4.325,1.146c1.592,0.079 2.996,-0.192 4.221,-0.821c1.221,-0.625 2.129,-1.558 2.721,-2.796c0.592,-1.242 0.913,-2.563 0.963,-3.975c0.046,-1.408 -0.221,-2.558 -0.804,-3.458c-0.579,-0.896 -1.379,-1.429 -2.388,-1.596c-1.013,-0.167 -2.067,0.083 -3.163,0.75c-1.1,0.667 -1.979,1.496 -2.65,2.483c-0.667,0.992 -1.092,1.85 -1.267,2.571c-0.179,0.725 -0.196,1.254 -0.058,1.592c0.138,0.342 0.425,0.529 0.854,0.567c0.429,0.038 0.792,-0.058 1.083,-0.288c0.292,-0.229 0.479,-0.533 0.567,-0.908c0.088,-0.379 0.138,-0.65 0.15,-0.821l0.017,-0.225l0,3.283c0,1.038 0.008,2.263 0.029,3.667c0.017,1.404 0.071,2.875 0.163,4.417c0.092,1.538 0.142,3.029 0.154,4.471c0.013,1.442 0.017,2.833 0.017,4.175l0,16.729c0,1.021 -0.013,2.129 -0.042,3.329c-0.029,1.196 -0.046,2.413 -0.046,3.65l0,14.183c0,1.275 0.008,2.529 0.025,3.758c0.021,1.229 0.05,2.45 0.092,3.663c0.042,1.213 0.063,2.479 0.063,3.804l0,11.329c0,1.008 0.017,1.975 0.046,2.896c0.025,0.925 0.071,1.917 0.133,2.983c0.058,1.067 0.104,2.229 0.138,3.488c0.033,1.263 0.05,2.538 0.05,3.838l0,10.738c0,1.338 0.004,2.742 0.013,4.208c0.008,1.467 0.038,2.896 0.088,4.288c0.05,1.392 0.117,2.679 0.196,3.863c0.083,1.183 0.129,2.358 0.142,3.529c0.013,1.175 0.017,2.425 0.017,3.754l0,21.025c0,0.096 -0.017,0.058 -0.05,-0.104c-0.046,-0.233 -0.196,-0.588 -0.45,-1.063" style="fill:none;fill-rule:nonzero;stroke:#c2361a;stroke-width:7.08px;"/></g><g><path d="M508.354,81.007c-0.458,0.013 -0.975,0.033 -1.546,0.054c-0.575,0.025 -1.075,0.038 -1.504,0.038c-0.429,0 -0.863,-0.058 -1.304,-0.171c-0.442,-0.113 -1.017,-0.288 -1.721,-0.521c-0.708,-0.233 -1.567,-0.442 -2.583,-0.625c-1.017,-0.183 -2.038,-0.329 -3.075,-0.433c-1.033,-0.104 -2,-0.179 -2.896,-0.233c-0.896,-0.054 -1.775,-0.079 -2.638,-0.083c-0.858,0 -1.754,0.2 -2.683,0.604c-0.929,0.404 -1.838,1 -2.721,1.792c-0.888,0.788 -1.633,1.704 -2.242,2.75c-0.613,1.046 -1.075,2.138 -1.4,3.279c-0.325,1.146 -0.588,2.292 -0.792,3.45c-0.204,1.154 -0.429,2.313 -0.667,3.475c-0.242,1.167 -0.496,2.267 -0.771,3.308c-0.275,1.038 -0.542,2.017 -0.808,2.929c-0.263,0.917 -0.483,1.792 -0.658,2.625c-0.179,0.829 -0.292,1.667 -0.346,2.504c-0.054,0.838 -0.083,1.763 -0.083,2.767c-0.004,1.008 0.025,2.033 0.079,3.079c0.058,1.042 0.338,2.013 0.846,2.913c0.504,0.896 1.146,1.813 1.921,2.75c0.775,0.933 1.579,1.975 2.408,3.121c0.829,1.146 1.675,2.408 2.546,3.792c0.871,1.379 1.775,2.733 2.713,4.067c0.938,1.333 1.933,2.529 2.996,3.583c1.063,1.054 2.113,2.042 3.158,2.963c1.042,0.925 2.096,1.854 3.158,2.796c1.063,0.942 2.179,1.838 3.363,2.683c1.179,0.846 2.3,1.625 3.363,2.338c1.063,0.713 2,1.4 2.804,2.058c0.808,0.663 1.596,1.292 2.367,1.888c0.767,0.6 1.558,1.225 2.367,1.871c0.808,0.646 1.563,1.263 2.258,1.854c0.692,0.588 1.325,1.163 1.896,1.721c0.571,0.563 1.133,1.058 1.688,1.5c0.558,0.442 1.163,0.817 1.817,1.125c0.654,0.304 1.333,0.588 2.042,0.842c0.713,0.254 1.404,0.504 2.083,0.746c0.679,0.242 1.354,0.471 2.025,0.688c0.667,0.213 1.354,0.404 2.063,0.567c0.704,0.167 1.458,0.271 2.254,0.317c0.792,0.042 1.679,0.063 2.654,0.067l6,0c0.917,0 1.721,-0.008 2.408,-0.025c0.683,-0.021 1.363,-0.154 2.029,-0.408c0.667,-0.25 1.363,-0.617 2.092,-1.096c0.725,-0.483 1.421,-0.958 2.083,-1.425c0.667,-0.471 1.2,-0.883 1.604,-1.242c0.404,-0.358 0.746,-0.717 1.021,-1.079c0.275,-0.363 0.571,-0.875 0.892,-1.538c0.321,-0.667 0.654,-1.496 1,-2.488c0.346,-0.996 0.675,-1.954 0.992,-2.883c0.317,-0.929 0.554,-1.742 0.713,-2.438c0.158,-0.696 0.25,-1.358 0.275,-1.988c0.025,-0.629 0.033,-1.346 0.033,-2.158c0,-0.808 0.029,-1.746 0.088,-2.813c0.058,-1.063 0.104,-2.146 0.138,-3.242c0.033,-1.096 0.038,-2.121 0.008,-3.067c-0.025,-0.946 -0.225,-1.888 -0.596,-2.829c-0.367,-0.938 -0.858,-2.038 -1.471,-3.3c-0.613,-1.263 -1.254,-2.625 -1.921,-4.092c-0.663,-1.463 -1.4,-2.829 -2.204,-4.096c-0.804,-1.267 -1.729,-2.454 -2.783,-3.558c-1.054,-1.104 -2.15,-2.275 -3.283,-3.504c-1.138,-1.229 -2.242,-2.483 -3.317,-3.758c-1.075,-1.279 -2.192,-2.525 -3.35,-3.742c-1.154,-1.217 -2.404,-2.467 -3.75,-3.746c-1.346,-1.283 -2.679,-2.654 -4.008,-4.113c-1.325,-1.463 -2.688,-3.054 -4.079,-4.779c-1.396,-1.721 -2.854,-3.429 -4.379,-5.117c-1.525,-1.688 -2.979,-3.008 -4.367,-3.954c-2.233,-1.525 -3.817,-2.317 -4.746,-2.379" style="fill:none;fill-rule:nonzero;stroke:#983da2;stroke-width:3.54px;"/></g><g><path d="M636.683,78.91c-0.288,-0.021 -0.688,-0.121 -1.208,-0.292c-0.517,-0.175 -1.038,-0.392 -1.563,-0.654c-0.521,-0.258 -1.083,-0.508 -1.688,-0.742c-0.604,-0.238 -1.304,-0.392 -2.096,-0.471c-0.792,-0.079 -1.704,0.038 -2.738,0.35c-1.033,0.308 -2.146,1.021 -3.338,2.129c-1.196,1.113 -2.313,2.304 -3.354,3.583c-1.042,1.275 -1.888,2.425 -2.542,3.45c-0.654,1.025 -1.217,1.95 -1.683,2.771c-0.467,0.825 -0.988,1.667 -1.558,2.525c-0.571,0.858 -1.196,1.725 -1.888,2.596c-0.688,0.871 -1.304,1.704 -1.85,2.5c-0.546,0.792 -0.938,1.558 -1.183,2.3c-0.242,0.738 -0.379,1.508 -0.417,2.3c-0.038,0.796 -0.054,1.717 -0.054,2.758c0,1.046 0.013,2.196 0.042,3.458c0.025,1.258 0.196,2.542 0.508,3.846c0.313,1.308 0.733,2.579 1.263,3.821c0.525,1.238 1.188,2.446 1.979,3.621c0.792,1.175 1.6,2.363 2.421,3.567c0.821,1.204 1.617,2.392 2.388,3.558c0.771,1.171 1.608,2.254 2.513,3.25c0.904,1 1.821,1.963 2.746,2.883c0.925,0.925 1.742,1.846 2.446,2.767c0.708,0.921 1.358,1.825 1.946,2.708c0.592,0.883 1.175,1.725 1.75,2.529c0.579,0.8 1.183,1.571 1.821,2.3c0.633,0.733 1.329,1.433 2.083,2.104c0.754,0.671 1.513,1.35 2.275,2.038c0.758,0.688 1.508,1.367 2.25,2.033c0.742,0.671 1.483,1.325 2.233,1.967c0.746,0.638 1.521,1.233 2.317,1.783c0.8,0.554 1.617,1.067 2.458,1.542c0.838,0.475 1.65,0.996 2.433,1.558c0.783,0.567 1.517,1.129 2.196,1.688c0.683,0.558 1.433,1.125 2.258,1.7c0.821,0.575 1.704,1.108 2.642,1.6c0.938,0.492 1.879,0.963 2.825,1.421c0.942,0.454 1.863,0.904 2.767,1.35c0.9,0.45 1.838,0.85 2.804,1.208c0.971,0.363 1.979,0.658 3.033,0.896c1.05,0.233 2.046,0.425 2.983,0.571c0.938,0.146 1.817,0.242 2.638,0.283c0.825,0.046 1.688,0.067 2.596,0.067c0.904,0.004 1.838,-0.025 2.8,-0.083c0.967,-0.054 1.913,-0.196 2.846,-0.425c0.933,-0.225 1.817,-0.558 2.65,-0.992c0.838,-0.438 1.621,-1.008 2.354,-1.717c0.729,-0.713 1.4,-1.529 2,-2.454c0.604,-0.929 1.121,-1.85 1.554,-2.763c0.433,-0.913 0.75,-1.808 0.95,-2.692c0.2,-0.879 0.354,-1.775 0.467,-2.683c0.113,-0.913 0.258,-1.821 0.438,-2.738c0.179,-0.913 0.383,-1.767 0.604,-2.558c0.221,-0.796 0.413,-1.563 0.567,-2.304c0.158,-0.742 0.25,-1.542 0.283,-2.404c0.033,-0.867 0.058,-1.804 0.067,-2.825c0.013,-1.021 0.017,-2.017 0.017,-2.992c0,-0.975 -0.058,-1.9 -0.183,-2.775c-0.125,-0.871 -0.342,-1.758 -0.65,-2.658c-0.313,-0.9 -0.646,-1.854 -0.996,-2.863c-0.35,-1.008 -0.746,-2.046 -1.188,-3.121c-0.446,-1.071 -0.979,-2.142 -1.613,-3.204c-0.629,-1.063 -1.329,-2.117 -2.104,-3.163c-0.779,-1.042 -1.6,-2.042 -2.467,-3c-0.871,-0.954 -1.721,-1.875 -2.554,-2.758c-0.833,-0.883 -1.629,-1.817 -2.392,-2.804c-0.763,-0.988 -1.575,-2.042 -2.438,-3.171c-0.867,-1.129 -1.85,-2.263 -2.954,-3.4c-1.104,-1.138 -2.283,-2.196 -3.538,-3.175c-1.254,-0.979 -2.467,-1.933 -3.633,-2.863c-1.171,-0.929 -2.25,-1.942 -3.238,-3.042c-0.988,-1.096 -1.992,-2.217 -3.013,-3.363c-1.021,-1.146 -2.042,-2.142 -3.067,-2.988c-1.021,-0.846 -1.983,-1.55 -2.879,-2.113c-0.896,-0.563 -1.783,-1.217 -2.663,-1.967c-0.879,-0.746 -1.825,-1.596 -2.833,-2.546c-1.008,-0.95 -1.942,-1.721 -2.804,-2.317c-0.863,-0.596 -1.471,-0.963 -1.825,-1.1c-0.492,-0.188 -0.546,0.283 -0.163,1.408" style="fill:none;fill-rule:nonzero;stroke:#983da2;stroke-width:3.54px;"/></g><g><path d="M548.55,76.722c0.329,-0.529 0.608,-1.117 0.838,-1.767c0.225,-0.646 0.288,-1.175 0.188,-1.588c-0.1,-0.408 -0.4,-0.729 -0.904,-0.963c-0.504,-0.229 -1.183,-0.329 -2.038,-0.3c-0.854,0.029 -1.896,0.446 -3.121,1.25c-1.225,0.804 -2.35,1.904 -3.371,3.3c-1.017,1.396 -1.663,2.746 -1.938,4.054c-0.275,1.304 -0.029,2.333 0.729,3.088c0.758,0.754 1.7,1.242 2.829,1.458c1.129,0.221 1.992,0.363 2.592,0.433c0.6,0.071 0.908,0.204 0.921,0.4c0.013,0.196 -0.35,0.596 -1.083,1.196c-0.733,0.6 -1.521,1.388 -2.358,2.358c-0.833,0.971 -1.446,1.963 -1.829,2.979c-0.383,1.017 -0.442,1.854 -0.167,2.508c0.271,0.654 1.154,1.063 2.65,1.221c1.5,0.158 3.258,0.208 5.288,0.154c3.104,-0.083 5.233,-0.692 6.383,-1.829" style="fill:none;fill-rule:nonzero;stroke:#983da2;stroke-width:3.54px;"/></g><g><path d="M687.817,81.097l0,-2.413c0,-0.296 -0.204,-0.479 -0.613,-0.55c-0.408,-0.071 -1.263,0.158 -2.563,0.696c-1.3,0.538 -2.6,1.375 -3.9,2.517c-1.3,1.146 -2.2,2.283 -2.696,3.421c-0.5,1.142 -0.371,2.079 0.383,2.817c0.754,0.742 1.938,1.213 3.546,1.421c1.613,0.208 2.933,0.325 3.967,0.35c1.029,0.025 1.663,0.079 1.892,0.163c0.233,0.083 -0.075,0.438 -0.921,1.063c-0.846,0.629 -1.879,1.429 -3.1,2.4c-1.217,0.975 -2.138,1.954 -2.754,2.942c-0.613,0.988 -0.75,1.817 -0.408,2.488c0.342,0.675 1.288,1.133 2.833,1.383c1.546,0.246 3.225,0.396 5.033,0.45c2.775,0.083 5.025,0.429 6.754,1.042" style="fill:none;fill-rule:nonzero;stroke:#983da2;stroke-width:3.54px;"/></g></svg>