<?xml version="1.0" encoding="UTF-8" standalone="no"?><!DOCTYPE svg PUBLIC "-//W3C//DTD SVG 1.1//EN" "http://www.w3.org/Graphics/SVG/1.1/DTD/svg11.dtd"><svg width="100%" height="100%" viewBox="0 0 873 320" version="1.1" xmlns="http://www.w3.org/2000/svg" xmlns:xlink="http://www.w3.org/1999/xlink" xml:space="preserve" xmlns:serif="http://www.serif.com/" style="fill-rule:evenodd;clip-rule:evenodd;stroke-linecap:round;stroke-linejoin:round;stroke-miterlimit:10;"><rect x="0" y="0" width="873" height="320" style="fill:#fff;"/><path d="M264.484,90.456c-0.661,0.412 -1.008,1.358 -1.043,2.838c-0.034,1.48 0.128,4.103 0.486,7.868c0.358,3.766 0.54,6.656 0.547,8.671c0.007,2.015 0.085,4.06 0.233,6.137c0.149,2.077 0.284,3.742 0.405,4.995c0.122,1.253 0.185,2.916 0.188,4.991c0.004,2.075 0.079,3.712 0.228,4.91c0.148,1.198 0.344,2.539 0.587,4.021c0.243,1.483 0.411,3.195 0.502,5.136c0.092,1.941 0.139,4.58 0.142,7.914c0.003,3.335 -0.055,5.553 -0.173,6.652c-0.118,1.1 -0.179,2.403 -0.182,3.908c-0.003,1.506 0.025,2.983 0.086,4.432c0.061,1.448 0.091,3.194 0.091,5.236c0,2.042 -0.071,3.556 -0.214,4.54c-0.142,0.985 -0.218,1.51 -0.228,1.574c-0.01,0.065 -0.011,-0.006 -0.006,-0.21c0.005,-0.205 0.05,-1.875 0.132,-5.008c0.083,-3.133 0.125,-6.382 0.128,-9.744c0.003,-3.362 0.033,-6.175 0.091,-8.436c0.058,-2.261 0.088,-5.074 0.091,-8.438c0.003,-3.364 -0.129,-5.713 -0.395,-7.049c-0.267,-1.335 -0.447,-2.397 -0.543,-3.186c-0.095,-0.789 0.925,-1.216 3.06,-1.28c2.134,-0.065 4.347,-0.185 6.639,-0.36c2.292,-0.175 4.71,-0.476 7.254,-0.901c2.545,-0.425 5.191,-0.641 7.939,-0.648c2.748,-0.007 4.615,-0.1 5.601,-0.279c0.985,-0.179 1.888,-0.27 2.708,-0.273c0.82,-0.003 1.693,-0.081 2.619,-0.233c0.925,-0.152 1.496,-0.363 1.712,-0.633c0.216,-0.27 -2.98,-0.407 -9.586,-0.41c-6.606,-0.003 -10.68,0.052 -12.223,0.164c-1.542,0.112 -3.922,0.409 -7.139,0.891c-3.218,0.482 -5.928,0.863 -8.131,1.143c-2.203,0.28 -3.99,0.423 -5.36,0.43c-1.37,0.007 -2.605,-0.212 -3.704,-0.657c-1.099,-0.445 -2.385,-0.689 -3.86,-0.729c-1.474,-0.04 -3.078,0.103 -4.813,0.43c-1.735,0.327 -4.112,0.509 -7.129,0.547c-3.018,0.037 -5.215,0.087 -6.592,0.147c-1.377,0.061 -2.415,-0.012 -3.114,-0.218c-0.699,-0.205 -1.873,-0.327 -3.524,-0.365c-1.65,-0.037 -2.658,0.003 -3.023,0.122c-0.365,0.119 -0.599,0.195 -0.7,0.227c-0.101,0.033 -0.022,0.065 0.239,0.095c0.373,0.043 1.444,0.168 3.211,0.374" style="fill:none;fill-rule:nonzero;stroke:#de7b7b;stroke-opacity:0.5;stroke-width:27.17px;"/><path d="M289.27,158.262c1.611,-2.103 2.539,-3.347 2.785,-3.732c0.172,-0.269 0.282,-0.441 0.329,-0.516c0.048,-0.074 0.072,0.003 0.073,0.232c0.001,0.229 0.003,0.757 0.005,1.585c0.003,0.827 -0.146,1.135 -0.447,0.926c-0.3,-0.209 -0.481,0.694 -0.542,2.71c-0.061,2.016 -0.27,3.951 -0.627,5.807c-0.357,1.855 -0.63,3.446 -0.82,4.773c-0.19,1.327 -0.286,2.575 -0.289,3.744c-0.003,1.169 -0.112,2.29 -0.324,3.363c-0.212,1.073 -0.975,1.7 -2.289,1.883c-1.313,0.182 -2.946,0.275 -4.897,0.279c-1.951,0.003 -3.236,0.214 -3.853,0.632c-0.618,0.419 -0.945,0.736 -0.982,0.952c-0.037,0.216 0.498,0.326 1.607,0.329c1.108,0.003 3.009,-0.201 5.702,-0.613c2.693,-0.412 5.766,-0.758 9.219,-1.038c3.453,-0.28 7.067,-0.602 10.842,-0.967c3.775,-0.365 7.24,-0.55 10.394,-0.557c3.155,-0.007 4.808,-0.905 4.961,-2.695c0.153,-1.79 0.23,-7.21 0.234,-16.26c0.003,-9.05 0.048,-14.339 0.136,-15.868c0.088,-1.529 0.133,-2.835 0.137,-3.919c0.003,-1.083 -0.212,-1.601 -0.645,-1.553c-0.433,0.048 -1.221,0.327 -2.364,0.835c-1.143,0.509 -2.047,0.827 -2.713,0.956c-0.665,0.128 -2.213,0.225 -4.644,0.289c-2.431,0.064 -4.718,0.172 -6.86,0.324c-2.143,0.151 -4.355,0.229 -6.636,0.233c-2.281,0.004 -4.458,-0.111 -6.531,-0.344c-2.073,-0.233 -4.242,-0.369 -6.508,-0.41c-2.266,-0.041 -3.655,-0.048 -4.169,-0.02c-0.514,0.028 -1.211,0.218 -2.091,0.572c-0.88,0.354 -1.499,0.687 -1.857,0.997c-0.358,0.31 -0.108,1.847 0.749,4.61c0.857,2.763 1.588,5.141 2.192,7.135c0.605,1.994 1.037,4.141 1.296,6.44c0.259,2.299 0.392,5.278 0.399,8.94c0.007,3.661 0.245,5.633 0.715,5.918c0.47,0.284 1.023,0.414 1.66,0.391c0.637,-0.024 1.348,-0.466 2.132,-1.327c0.785,-0.861 1.651,-1.536 2.6,-2.025c0.949,-0.49 1.989,-0.915 3.12,-1.277c1.131,-0.361 3.323,-0.922 6.576,-1.681c3.253,-0.76 5.883,-1.458 7.89,-2.095c2.007,-0.638 3.317,-1.14 3.932,-1.508c0.614,-0.368 0.996,-0.83 1.145,-1.387c0.15,-0.557 -0.366,-0.871 -1.548,-0.942c-1.182,-0.071 -2.351,-0.092 -3.509,-0.061c-1.157,0.03 -2.059,-0.144 -2.703,-0.522c-0.645,-0.378 -1.094,-0.705 -1.347,-0.982c-0.36,-0.392 -0.035,-1.402 0.975,-3.027" style="fill:none;fill-rule:nonzero;stroke:#99d485;stroke-opacity:0.5;stroke-width:27.17px;"/><path d="M198.679,31.122c-0.357,0.027 -0.726,0.093 -1.108,0.197c-0.381,0.104 -0.596,0.207 -0.643,0.307c-0.048,0.1 -0.015,0.302 0.1,0.604c0.114,0.302 0.306,0.825 0.577,1.568c0.271,0.744 0.529,1.613 0.774,2.609c0.245,0.996 0.412,2.063 0.499,3.203c0.087,1.14 0.137,2.355 0.149,3.645c0.011,1.29 0.017,2.576 0.017,3.856l0,12.585c0,1.08 -0.015,2.192 -0.044,3.337c-0.029,1.144 -0.059,2.23 -0.09,3.259c-0.03,1.028 -0.046,2.019 -0.047,2.972c-0.001,0.953 -0.002,1.92 -0.002,2.9l0,6.185c0,1.1 0.005,2.241 0.014,3.425c0.009,1.183 0.043,2.344 0.103,3.481c0.06,1.137 0.11,2.214 0.152,3.23c0.041,1.016 0.087,2.059 0.137,3.128c0.05,1.069 0.086,2.166 0.108,3.291c0.023,1.125 0.034,2.21 0.034,3.257l0,2.942c0,0.915 -0.014,1.929 -0.042,3.041c-0.028,1.112 -0.087,2.339 -0.177,3.681c-0.09,1.342 -0.166,2.664 -0.229,3.965c-0.063,1.302 -0.095,2.502 -0.096,3.6c-0.001,1.098 -0.002,2.276 -0.002,3.533c0,1.257 0.005,2.578 0.014,3.963c0.009,1.385 0.029,2.748 0.059,4.089c0.03,1.341 0.061,2.596 0.091,3.766c0.03,1.169 0.056,2.345 0.077,3.528c0.021,1.183 0.032,2.439 0.032,3.77l0,4.194c0,1.466 -0.029,2.837 -0.086,4.113c-0.058,1.276 -0.117,2.463 -0.179,3.561c-0.062,1.098 -0.138,2.189 -0.228,3.272c-0.09,1.082 -0.18,2.175 -0.272,3.28c-0.091,1.104 -0.168,2.207 -0.23,3.31c-0.062,1.102 -0.109,2.24 -0.142,3.411c-0.032,1.171 -0.053,2.385 -0.062,3.64c-0.009,1.255 -0.025,2.409 -0.045,3.461c-0.021,1.052 -0.032,2.006 -0.032,2.863l0,8.973c0,1.076 0.005,2.098 0.014,3.063c0.009,0.965 0.043,1.886 0.103,2.761c0.06,0.875 0.105,1.685 0.136,2.429c0.032,0.744 0.068,1.45 0.108,2.12c0.04,0.67 0.081,1.348 0.122,2.036c0.04,0.688 0.061,1.385 0.063,2.093c0.001,0.708 0.002,1.45 0.002,2.228l0,10.596l0.008,0.12l0.042,-0.301c0.047,-0.468 0.195,-1.942 0.443,-4.422" style="fill:none;fill-rule:nonzero;stroke:#000;stroke-width:3.54px;"/><path d="M263.755,27.203c-0.11,0.18 -0.179,0.83 -0.206,1.95c-0.027,1.12 -0.015,3.135 0.035,6.045c0.051,2.91 0.077,6.369 0.077,10.375c0.001,4.006 0.016,7.802 0.045,11.389c0.028,3.587 0.058,6.971 0.091,10.154c0.032,3.182 0.049,6.073 0.049,8.67l0,13.203c0,2.025 0.038,3.96 0.115,5.803c0.077,1.842 0.137,3.534 0.182,5.075c0.045,1.541 0.067,2.924 0.067,4.15l0,19.035c0,1.801 0.029,3.543 0.086,5.224c0.058,1.682 0.103,3.387 0.137,5.118c0.033,1.73 0.055,3.38 0.064,4.948c0.009,1.568 0.053,3.078 0.132,4.528c0.079,1.45 0.135,2.885 0.169,4.304c0.033,1.419 0.05,2.812 0.05,4.181l0,8.453c0,1.456 0.029,2.953 0.087,4.491c0.058,1.538 0.146,3.023 0.267,4.455c0.12,1.433 0.212,2.757 0.276,3.973c0.064,1.216 0.111,2.351 0.142,3.406c0.03,1.055 0.079,2.143 0.147,3.262c0.068,1.12 0.158,2.297 0.27,3.53c0.112,1.234 0.2,2.42 0.263,3.559c0.063,1.139 0.095,2.265 0.096,3.377c0.001,1.113 0.002,2.236 0.002,3.368l0,3.549c0,1.234 -0.005,2.382 -0.014,3.445c-0.009,1.063 -0.034,1.989 -0.074,2.777c-0.04,0.788 -0.095,1.542 -0.164,2.26c-0.069,0.72 -0.12,1.449 -0.154,2.189c-0.034,0.74 -0.05,1.45 -0.05,2.128l0,5.394c0,0.393 -0.005,0.702 -0.014,0.928c-0.009,0.227 -0.053,0.47 -0.132,0.731c-0.079,0.261 -0.133,0.438 -0.164,0.528c-0.043,0.128 -0.275,0.04 -0.697,-0.265" style="fill:none;fill-rule:nonzero;stroke:#000;stroke-width:3.54px;"/><path d="M331.572,26.75c-0.009,-0.005 0.149,-0.392 0.472,-1.162c0.162,-0.385 0.244,-0.607 0.247,-0.666l0.002,-0.032l0.001,0.102l0,3.619c0,1.465 -0.009,3.363 -0.027,5.692c-0.018,2.33 -0.101,5.213 -0.249,8.648c-0.148,3.436 -0.246,6.769 -0.292,9.998c-0.046,3.23 -0.069,6.162 -0.07,8.797l0,18.263c0,2.08 -0.03,4.202 -0.088,6.367c-0.058,2.165 -0.089,4.063 -0.091,5.696c-0.002,1.633 -0.003,3.031 -0.003,4.195l0,9.2c0,1.992 -0.01,3.968 -0.029,5.929c-0.019,1.961 -0.049,3.835 -0.09,5.623c-0.04,1.788 -0.061,3.533 -0.062,5.236c-0.001,1.703 -0.002,3.434 -0.002,5.192l0,16.263c0,1.797 -0.005,3.517 -0.014,5.163c-0.009,1.645 -0.024,3.302 -0.045,4.97c-0.021,1.668 -0.041,3.314 -0.059,4.938c-0.018,1.625 -0.063,3.179 -0.135,4.663c-0.072,1.484 -0.108,2.94 -0.109,4.367c-0.001,1.427 -0.002,2.904 -0.002,4.429l0,36.792c0,0.993 0.024,2.028 0.073,3.104c0.048,1.077 0.112,1.901 0.191,2.473c0.079,0.571 0.129,0.724 0.151,0.459c0.032,-0.379 0.13,-1.571 0.295,-3.576" style="fill:none;fill-rule:nonzero;stroke:#000;stroke-width:3.54px;"/><path d="M398.828,22.463l-1.057,0c-0.355,0 -0.57,0.11 -0.647,0.329c-0.076,0.219 -0.115,0.797 -0.117,1.733c-0.001,0.936 -0.002,2.644 -0.002,5.124c0,2.48 -0.01,5.52 -0.029,9.12c-0.019,3.6 -0.049,7.115 -0.089,10.545c-0.04,3.43 -0.061,6.555 -0.062,9.374c-0.002,2.819 -0.002,5.342 -0.002,7.567l0,11.954c0,1.763 -0.019,3.34 -0.058,4.731c-0.038,1.391 -0.069,2.696 -0.091,3.915c-0.022,1.219 -0.005,2.454 0.051,3.704c0.057,1.251 0.142,2.621 0.255,4.111c0.113,1.49 0.176,3.053 0.189,4.691c0.012,1.638 0.009,3.234 -0.01,4.789c-0.019,1.555 -0.049,3.095 -0.089,4.622c-0.041,1.526 -0.081,3.108 -0.12,4.745c-0.04,1.637 -0.095,3.301 -0.165,4.992c-0.071,1.691 -0.136,3.372 -0.197,5.042c-0.061,1.67 -0.102,3.404 -0.124,5.202c-0.021,1.798 -0.043,3.589 -0.064,5.374c-0.021,1.785 -0.032,3.605 -0.032,5.462c0,1.857 -0.034,3.71 -0.1,5.561c-0.067,1.85 -0.185,3.564 -0.355,5.142c-0.17,1.578 -0.341,3.098 -0.515,4.559c-0.173,1.462 -0.282,2.858 -0.329,4.188c-0.046,1.33 -0.079,2.779 -0.098,4.347c-0.019,1.567 -0.059,3.154 -0.118,4.759c-0.06,1.605 -0.096,3.052 -0.108,4.342c-0.012,1.289 -0.019,2.491 -0.019,3.606l0,16.682c0,1.368 0.015,2.583 0.044,3.645c0.03,1.062 0.059,2.138 0.09,3.227c0.03,1.088 0.061,2.23 0.091,3.424c0.03,1.195 0.046,2.335 0.047,3.421c0.001,1.086 0.002,2.19 0.002,3.312l0,6.503c0,0.942 0.005,1.679 0.014,2.212c0.009,0.533 0.038,0.877 0.087,1.032c0.067,0.215 0.088,0.027 0.065,-0.565" style="fill:none;fill-rule:nonzero;stroke:#000;stroke-width:3.54px;"/><path d="M171.883,58.374c-0.315,-0.589 -0.667,-1.165 -1.056,-1.73c-0.389,-0.565 -0.687,-0.888 -0.893,-0.971c-0.206,-0.082 -0.39,-0.077 -0.554,0.018c-0.163,0.095 -0.282,0.238 -0.357,0.431c-0.075,0.193 -0.119,0.313 -0.13,0.359c-0.012,0.046 -0.004,0.083 0.024,0.112c0.028,0.028 0.192,0.102 0.493,0.22c0.302,0.118 0.851,0.272 1.649,0.463c0.797,0.19 2.037,0.358 3.72,0.505c1.683,0.147 3.867,0.222 6.551,0.224c2.685,0.003 5.403,0.023 8.156,0.06c2.753,0.038 5.435,0.155 8.047,0.351c2.612,0.197 5.337,0.384 8.173,0.561c2.837,0.178 5.719,0.273 8.646,0.287c2.928,0.014 5.738,0.021 8.433,0.021l7.927,0c2.59,0 5.384,-0.028 8.383,-0.085c2.999,-0.057 6.08,-0.146 9.245,-0.268c3.164,-0.122 6.121,-0.215 8.871,-0.278c2.75,-0.063 5.412,-0.095 7.986,-0.096c2.574,-0.001 5.224,-0.002 7.949,-0.002l16.108,0c2.456,0 4.727,0.038 6.812,0.115c2.085,0.077 4.237,0.138 6.454,0.182c2.217,0.045 4.553,0.044 7.008,-0.002c2.455,-0.046 4.918,-0.179 7.39,-0.398c2.472,-0.219 4.866,-0.363 7.183,-0.431c2.316,-0.068 4.675,-0.098 7.075,-0.089c2.4,0.009 5.062,0.019 7.988,0.031c2.925,0.012 6.03,-0.107 9.314,-0.359c3.284,-0.251 6.405,-0.492 9.363,-0.723c2.958,-0.231 5.726,-0.359 8.304,-0.384c2.578,-0.025 5.278,-0.038 8.099,-0.038c2.822,0 5.735,-0.076 8.743,-0.228c3.007,-0.152 5.837,-0.342 8.491,-0.568c2.654,-0.227 5.046,-0.363 7.178,-0.409c2.131,-0.047 4.142,0.016 6.032,0.188c1.89,0.171 3.789,0.371 5.699,0.6c1.91,0.228 3.834,0.355 5.772,0.38c1.939,0.025 3.681,0.014 5.231,-0.033c1.55,-0.048 2.846,-0.093 3.892,-0.137c1.05,-0.044 2.042,-0.065 2.983,-0.065c0.942,-0 1.871,-0 2.788,-0c0.917,0 1.571,-0.027 1.958,-0.082c0.542,-0.075 0.417,-0.374 -0.371,-0.896" style="fill:none;fill-rule:nonzero;stroke:#000;stroke-width:3.54px;"/><path d="M167.053,125.455l-1.787,0c-0.527,0 -0.832,0.009 -0.914,0.028c-0.082,0.018 -0.055,0.035 0.082,0.049c0.137,0.015 0.48,0.05 1.028,0.108c0.548,0.057 1.603,0.087 3.162,0.088c1.559,0.001 3.087,0.002 4.582,0.002c1.495,0 3.109,0.018 4.84,0.056c1.732,0.037 3.523,0.14 5.374,0.309c1.851,0.169 3.832,0.358 5.943,0.569c2.112,0.211 4.613,0.405 7.505,0.582c2.891,0.178 6.084,0.273 9.579,0.287c3.495,0.014 6.879,0.02 10.153,0.02c3.274,0 6.365,0 9.274,0c2.909,0 5.652,0.004 8.228,0.013c2.577,0.009 4.968,0.063 7.174,0.162c2.206,0.099 4.556,0.146 7.05,0.141c2.494,-0.005 5.073,-0.11 7.738,-0.315c2.665,-0.206 5.212,-0.363 7.643,-0.472c2.431,-0.109 4.82,-0.164 7.167,-0.165c2.348,-0.001 4.842,-0.002 7.481,-0.002c2.64,0 5.41,-0.019 8.309,-0.056c2.9,-0.038 5.77,-0.126 8.612,-0.267c2.842,-0.14 5.654,-0.257 8.436,-0.349c2.782,-0.092 5.625,-0.165 8.53,-0.217c2.905,-0.053 5.653,-0.085 8.243,-0.096c2.591,-0.011 4.985,-0.017 7.18,-0.017l6.745,0c2.3,0 4.704,-0.038 7.21,-0.112c2.507,-0.075 4.945,-0.267 7.314,-0.575c2.37,-0.309 4.572,-0.529 6.609,-0.66c2.037,-0.131 4.075,-0.198 6.113,-0.199c2.038,-0.002 4.237,-0.011 6.595,-0.03c2.358,-0.018 4.821,-0.173 7.387,-0.465c2.566,-0.292 5.108,-0.578 7.626,-0.858c2.518,-0.28 4.934,-0.445 7.249,-0.492c2.315,-0.047 4.664,-0.071 7.048,-0.072c2.384,0 4.849,-0.005 7.395,-0.014c2.546,-0.009 5.17,-0.12 7.87,-0.333c2.7,-0.213 5.239,-0.405 7.623,-0.575c2.379,-0.17 4.433,-0.22 6.154,-0.148c1.721,0.072 3.413,0.243 5.079,0.514c1.663,0.27 3.392,0.446 5.188,0.525c1.792,0.08 3.304,0.12 4.542,0.12c1.242,0 1.962,0 2.167,0l0.117,0.005l-0.321,0.028c-0.5,0.032 -1.213,0.134 -2.142,0.306" style="fill:none;fill-rule:nonzero;stroke:#000;stroke-width:3.54px;"/><path d="M169.778,193.042c-0.125,0.028 -0.493,-0.084 -1.104,-0.337c-0.36,-0.148 -0.539,-0.244 -0.538,-0.286c0.001,-0.042 0.301,-0.078 0.899,-0.108c0.598,-0.03 1.525,-0.046 2.782,-0.048c1.256,-0.001 2.78,0.046 4.569,0.141c1.79,0.095 4.057,0.243 6.803,0.445c2.746,0.202 5.843,0.361 9.292,0.477c3.449,0.115 6.772,0.18 9.97,0.192c3.198,0.012 6.241,0.019 9.13,0.019c2.888,0 5.922,-0.019 9.099,-0.056c3.178,-0.037 6.422,-0.15 9.734,-0.339c3.312,-0.189 6.487,-0.326 9.525,-0.411c3.038,-0.086 6.113,-0.14 9.224,-0.162c3.111,-0.023 6.301,-0.063 9.571,-0.12c3.27,-0.058 6.368,-0.113 9.292,-0.165c2.924,-0.053 5.69,-0.133 8.299,-0.24c2.609,-0.107 5.242,-0.232 7.899,-0.375c2.657,-0.143 5.44,-0.246 8.349,-0.31c2.908,-0.065 5.857,-0.116 8.845,-0.156c2.988,-0.04 5.88,-0.085 8.674,-0.135c2.795,-0.05 5.442,-0.14 7.942,-0.267c2.5,-0.127 5.056,-0.335 7.67,-0.625c2.613,-0.289 5.374,-0.547 8.282,-0.775c2.908,-0.228 5.778,-0.355 8.61,-0.382c2.832,-0.026 5.611,-0.039 8.338,-0.039l15.85,0c2.529,0 4.918,-0.048 7.168,-0.144c2.249,-0.096 4.27,-0.21 6.06,-0.344c1.791,-0.134 3.486,-0.207 5.085,-0.221c1.599,-0.014 3.33,-0.016 5.192,-0.007c1.863,0.009 3.762,0.12 5.7,0.333c1.938,0.213 3.776,0.424 5.513,0.632c1.738,0.208 3.533,0.325 5.387,0.35c1.854,0.025 3.808,0.042 5.86,0.051c2.053,0.009 3.911,0.115 5.572,0.318c1.667,0.203 3.071,0.437 4.217,0.703c1.15,0.266 2.317,0.433 3.5,0.502c1.188,0.068 2.446,0.103 3.775,0.103c1.329,0 2.463,-0.004 3.4,-0.013c0.938,-0.009 1.792,-0.024 2.562,-0.045c0.771,-0.021 1.596,-0.032 2.483,-0.032c0.883,-0 1.846,-0 2.887,-0l2.413,0c0.775,0 0.492,0 -0.854,0" style="fill:none;fill-rule:nonzero;stroke:#000;stroke-width:3.54px;"/><path d="M197.494,209.032c0.014,-0.487 0.07,-1.026 0.17,-1.616c0.1,-0.59 0.187,-1.041 0.261,-1.354c0.074,-0.312 0.112,-0.499 0.113,-0.558c0.001,-0.06 -0.063,0.394 -0.191,1.361c-0.128,0.967 -0.265,2.246 -0.408,3.837c-0.144,1.591 -0.193,2.957 -0.148,4.096c0.045,1.14 0.158,2.155 0.339,3.047c0.181,0.892 0.328,1.588 0.44,2.089c0.113,0.501 0.238,0.825 0.374,0.975c0.191,0.208 0.413,-0.088 0.667,-0.888" style="fill:none;fill-rule:nonzero;stroke:#000;stroke-width:3.54px;"/><path d="M594.575,29.698c-0.358,0.027 -0.729,0.093 -1.108,0.197c-0.383,0.104 -0.596,0.207 -0.646,0.307c-0.046,0.1 -0.013,0.302 0.1,0.604c0.117,0.302 0.308,0.825 0.579,1.568c0.271,0.744 0.529,1.613 0.775,2.609c0.242,0.996 0.408,2.063 0.496,3.203c0.088,1.14 0.138,2.355 0.15,3.645c0.013,1.29 0.017,2.576 0.017,3.856l0,12.585c0,1.08 -0.012,2.192 -0.042,3.337c-0.029,1.144 -0.062,2.23 -0.092,3.259c-0.029,1.028 -0.046,2.019 -0.046,2.972c0,0.953 -0.004,1.92 -0.004,2.9l0,6.185c0,1.1 0.008,2.241 0.017,3.425c0.008,1.183 0.042,2.344 0.1,3.481c0.063,1.137 0.113,2.214 0.154,3.23c0.042,1.016 0.088,2.059 0.137,3.128c0.05,1.069 0.083,2.166 0.108,3.291c0.021,1.125 0.033,2.21 0.033,3.257l0,2.942c0,0.915 -0.017,1.929 -0.042,3.041c-0.029,1.112 -0.087,2.339 -0.179,3.681c-0.092,1.342 -0.167,2.664 -0.229,3.965c-0.062,1.302 -0.096,2.502 -0.096,3.6c0,1.098 -0.004,2.276 -0.004,3.533c0,1.257 0.008,2.578 0.017,3.963c0.008,1.385 0.029,2.748 0.058,4.089c0.029,1.341 0.058,2.596 0.092,3.766c0.029,1.169 0.054,2.345 0.075,3.528c0.021,1.183 0.033,2.439 0.033,3.77l0,4.194c0,1.466 -0.029,2.837 -0.088,4.113c-0.054,1.276 -0.117,2.463 -0.179,3.561c-0.058,1.098 -0.137,2.189 -0.225,3.272c-0.092,1.082 -0.183,2.175 -0.271,3.28c-0.092,1.104 -0.171,2.207 -0.233,3.31c-0.058,1.103 -0.108,2.24 -0.138,3.411c-0.033,1.171 -0.054,2.385 -0.067,3.64c-0.008,1.255 -0.021,2.409 -0.042,3.461c-0.025,1.052 -0.033,2.006 -0.033,2.863l0,8.973c0,1.076 0.004,2.097 0.012,3.063c0.008,0.965 0.046,1.886 0.104,2.761c0.058,0.875 0.104,1.685 0.138,2.429c0.029,0.744 0.067,1.45 0.104,2.12c0.042,0.67 0.083,1.348 0.125,2.036c0.038,0.688 0.058,1.385 0.063,2.093l0,12.824l0.008,0.12l0.042,-0.301c0.046,-0.468 0.196,-1.942 0.442,-4.422" style="fill:none;fill-rule:nonzero;stroke:#000;stroke-width:3.54px;"/><path d="M659.65,25.778c-0.108,0.18 -0.179,0.83 -0.204,1.95c-0.029,1.12 -0.017,3.135 0.033,6.045c0.05,2.91 0.075,6.369 0.079,10.375c0,4.006 0.013,7.803 0.042,11.389c0.029,3.587 0.058,6.971 0.092,10.154c0.033,3.182 0.05,6.073 0.05,8.67l0,13.202c0,2.025 0.037,3.96 0.112,5.802c0.079,1.843 0.138,3.534 0.183,5.075c0.046,1.541 0.067,2.924 0.067,4.15l0,19.035c0,1.801 0.029,3.542 0.087,5.224c0.058,1.682 0.104,3.388 0.137,5.118c0.033,1.73 0.054,3.38 0.063,4.948c0.008,1.568 0.054,3.078 0.133,4.528c0.079,1.45 0.133,2.885 0.167,4.304c0.033,1.419 0.05,2.812 0.05,4.181l0,8.453c0,1.456 0.029,2.953 0.087,4.491c0.058,1.538 0.146,3.023 0.267,4.455c0.121,1.433 0.212,2.757 0.275,3.973c0.067,1.216 0.113,2.351 0.146,3.406c0.029,1.055 0.079,2.143 0.146,3.262c0.067,1.12 0.158,2.297 0.271,3.53c0.113,1.234 0.2,2.42 0.263,3.559c0.062,1.139 0.096,2.265 0.096,3.377l0,6.917c0,1.234 -0.004,2.382 -0.013,3.445c-0.008,1.063 -0.033,1.989 -0.075,2.777c-0.038,0.788 -0.096,1.542 -0.163,2.26c-0.071,0.72 -0.121,1.449 -0.154,2.189c-0.033,0.74 -0.05,1.45 -0.05,2.128l0,5.394c0,0.393 -0.004,0.702 -0.012,0.928c-0.013,0.227 -0.054,0.47 -0.133,0.731c-0.079,0.261 -0.133,0.438 -0.163,0.528c-0.042,0.128 -0.275,0.04 -0.7,-0.265" style="fill:none;fill-rule:nonzero;stroke:#000;stroke-width:3.54px;"/><path d="M727.467,25.326c-0.008,-0.005 0.15,-0.392 0.471,-1.162c0.162,-0.385 0.246,-0.607 0.246,-0.666l0.004,-0.032l0,3.721c0,1.465 -0.008,3.362 -0.025,5.692c-0.021,2.33 -0.104,5.213 -0.25,8.648c-0.15,3.436 -0.246,6.769 -0.292,9.998c-0.046,3.23 -0.071,6.162 -0.071,8.797l0,18.263c0,2.08 -0.029,4.202 -0.087,6.367c-0.058,2.165 -0.088,4.063 -0.092,5.696l0,13.395c0,1.992 -0.012,3.968 -0.029,5.929c-0.021,1.961 -0.05,3.835 -0.092,5.623c-0.042,1.788 -0.062,3.533 -0.062,5.236l0,21.456c0,1.797 -0.004,3.517 -0.017,5.163c-0.008,1.645 -0.021,3.302 -0.042,4.97c-0.021,1.668 -0.042,3.314 -0.062,4.938c-0.017,1.625 -0.062,3.179 -0.133,4.663c-0.071,1.484 -0.108,2.94 -0.108,4.367c-0.004,1.427 -0.004,2.904 -0.004,4.429l0,36.792c0,0.993 0.025,2.027 0.075,3.104c0.046,1.077 0.113,1.901 0.192,2.473c0.079,0.571 0.129,0.724 0.15,0.459c0.029,-0.379 0.129,-1.571 0.292,-3.576" style="fill:none;fill-rule:nonzero;stroke:#000;stroke-width:3.54px;"/><path d="M794.725,21.039l-1.058,0c-0.354,0 -0.571,0.11 -0.646,0.329c-0.079,0.219 -0.117,0.797 -0.117,1.733c-0.004,0.936 -0.004,2.644 -0.004,5.124c0,2.48 -0.008,5.52 -0.029,9.12c-0.017,3.6 -0.05,7.115 -0.087,10.545c-0.042,3.43 -0.063,6.555 -0.063,9.374c0,2.819 -0.004,5.342 -0.004,7.567l0,11.954c0,1.763 -0.017,3.34 -0.054,4.731c-0.042,1.391 -0.071,2.696 -0.092,3.915c-0.025,1.219 -0.008,2.454 0.05,3.704c0.058,1.251 0.142,2.621 0.254,4.111c0.113,1.49 0.175,3.053 0.188,4.691c0.013,1.638 0.013,3.234 -0.008,4.789c-0.021,1.555 -0.05,3.095 -0.087,4.622c-0.042,1.526 -0.083,3.108 -0.121,4.745c-0.042,1.638 -0.096,3.301 -0.167,4.992c-0.071,1.691 -0.137,3.372 -0.196,5.042c-0.062,1.67 -0.104,3.404 -0.125,5.202c-0.021,1.798 -0.042,3.589 -0.062,5.374c-0.021,1.785 -0.033,3.605 -0.033,5.462c0,1.857 -0.033,3.71 -0.1,5.561c-0.067,1.85 -0.183,3.564 -0.354,5.142c-0.171,1.578 -0.342,3.097 -0.513,4.559c-0.175,1.462 -0.283,2.858 -0.329,4.188c-0.046,1.33 -0.079,2.779 -0.1,4.347c-0.021,1.568 -0.058,3.154 -0.117,4.759c-0.063,1.605 -0.096,3.052 -0.108,4.342c-0.012,1.289 -0.021,2.491 -0.021,3.606l0,16.683c0,1.367 0.017,2.583 0.046,3.645c0.029,1.063 0.058,2.138 0.088,3.227c0.033,1.088 0.062,2.23 0.092,3.424c0.029,1.195 0.046,2.335 0.05,3.421l0,9.815c0,0.942 0.004,1.679 0.013,2.212c0.008,0.533 0.038,0.878 0.087,1.033c0.067,0.215 0.088,0.027 0.062,-0.565" style="fill:none;fill-rule:nonzero;stroke:#000;stroke-width:3.54px;"/><path d="M567.779,56.949c-0.317,-0.589 -0.667,-1.165 -1.058,-1.73c-0.387,-0.565 -0.687,-0.888 -0.892,-0.971c-0.208,-0.082 -0.392,-0.077 -0.554,0.018c-0.162,0.095 -0.283,0.238 -0.358,0.431c-0.075,0.193 -0.117,0.313 -0.129,0.359c-0.012,0.046 -0.004,0.083 0.025,0.112c0.025,0.028 0.192,0.102 0.492,0.22c0.3,0.118 0.85,0.272 1.65,0.462c0.796,0.19 2.038,0.358 3.721,0.505c1.679,0.147 3.867,0.222 6.55,0.224c2.683,0.003 5.404,0.023 8.154,0.06c2.754,0.038 5.438,0.155 8.05,0.351c2.613,0.197 5.333,0.384 8.171,0.561c2.837,0.178 5.721,0.273 8.646,0.287c2.929,0.014 5.738,0.021 8.433,0.021l7.929,0c2.587,0 5.383,-0.028 8.383,-0.085c3,-0.057 6.079,-0.146 9.242,-0.268c3.167,-0.122 6.121,-0.215 8.871,-0.278c2.754,-0.063 5.413,-0.095 7.988,-0.096c2.575,-0.001 5.225,-0.002 7.95,-0.002l16.108,0c2.454,0 4.725,0.038 6.812,0.115c2.083,0.077 4.238,0.137 6.454,0.182c2.217,0.045 4.554,0.044 7.008,-0.002c2.454,-0.046 4.917,-0.179 7.392,-0.398c2.471,-0.219 4.862,-0.363 7.179,-0.431c2.317,-0.068 4.675,-0.098 7.075,-0.089c2.4,0.009 5.062,0.019 7.992,0.031c2.925,0.012 6.029,-0.107 9.313,-0.359c3.283,-0.251 6.404,-0.492 9.363,-0.723c2.958,-0.231 5.725,-0.359 8.304,-0.384c2.579,-0.025 5.279,-0.038 8.1,-0.038c2.821,0 5.733,-0.076 8.742,-0.228c3.008,-0.153 5.837,-0.342 8.492,-0.568c2.654,-0.227 5.046,-0.363 7.179,-0.409c2.129,-0.047 4.142,0.016 6.029,0.188c1.892,0.171 3.792,0.371 5.7,0.6c1.908,0.228 3.833,0.355 5.771,0.38c1.938,0.025 3.683,0.014 5.233,-0.033c1.546,-0.048 2.846,-0.093 3.892,-0.137c1.046,-0.044 2.042,-0.065 2.983,-0.065c0.942,-0 1.871,-0 2.788,-0c0.917,0 1.567,-0.028 1.958,-0.082c0.538,-0.075 0.413,-0.374 -0.375,-0.896" style="fill:none;fill-rule:nonzero;stroke:#000;stroke-width:3.54px;"/><path d="M562.946,124.03l-1.787,0c-0.525,0 -0.829,0.009 -0.913,0.028c-0.083,0.018 -0.054,0.035 0.083,0.049c0.138,0.015 0.479,0.05 1.029,0.108c0.546,0.058 1.6,0.087 3.158,0.088c1.562,0.001 3.087,0.002 4.583,0.002c1.496,0 3.108,0.018 4.842,0.056c1.729,0.037 3.521,0.14 5.375,0.309c1.85,0.169 3.829,0.358 5.942,0.569c2.112,0.211 4.612,0.405 7.504,0.582c2.892,0.178 6.083,0.273 9.579,0.287c3.496,0.014 6.879,0.02 10.154,0.02c3.271,0 6.363,0 9.271,0c2.913,0 5.654,0.004 8.229,0.013c2.575,0.009 4.967,0.063 7.175,0.162c2.204,0.099 4.554,0.146 7.05,0.141c2.496,-0.005 5.075,-0.11 7.738,-0.315c2.667,-0.206 5.212,-0.363 7.642,-0.472c2.433,-0.109 4.821,-0.164 7.171,-0.165c2.346,-0.001 4.842,-0.002 7.479,-0.002c2.642,0 5.408,-0.019 8.308,-0.056c2.9,-0.037 5.771,-0.126 8.613,-0.267c2.842,-0.14 5.654,-0.257 8.438,-0.349c2.783,-0.092 5.625,-0.165 8.529,-0.218c2.904,-0.053 5.654,-0.085 8.246,-0.096c2.587,-0.011 4.983,-0.017 7.179,-0.017l6.742,0c2.304,0 4.704,-0.037 7.213,-0.112c2.508,-0.075 4.946,-0.267 7.312,-0.575c2.371,-0.309 4.575,-0.529 6.608,-0.66c2.038,-0.131 4.075,-0.198 6.117,-0.199c2.038,-0.002 4.238,-0.011 6.592,-0.03c2.362,-0.018 4.821,-0.173 7.387,-0.465c2.567,-0.292 5.108,-0.577 7.629,-0.858c2.517,-0.28 4.933,-0.445 7.246,-0.492c2.317,-0.048 4.667,-0.071 7.05,-0.072c2.383,0 4.85,-0.005 7.396,-0.014c2.546,-0.009 5.167,-0.12 7.867,-0.333c2.7,-0.213 5.242,-0.405 7.625,-0.575c2.379,-0.17 4.429,-0.22 6.15,-0.147c1.725,0.072 3.417,0.243 5.079,0.514c1.667,0.27 3.396,0.446 5.188,0.525c1.796,0.08 3.308,0.12 4.546,0.12c1.238,0 1.963,0 2.167,0l0.117,0.005l-0.321,0.028c-0.5,0.032 -1.213,0.134 -2.142,0.306" style="fill:none;fill-rule:nonzero;stroke:#000;stroke-width:3.54px;"/><path d="M565.671,191.617c-0.125,0.028 -0.492,-0.084 -1.104,-0.337c-0.358,-0.148 -0.537,-0.244 -0.537,-0.286c0.004,-0.042 0.3,-0.078 0.9,-0.108c0.6,-0.03 1.525,-0.046 2.783,-0.047c1.254,-0.001 2.779,0.046 4.567,0.141c1.792,0.095 4.058,0.243 6.804,0.445c2.746,0.202 5.842,0.361 9.292,0.477c3.45,0.115 6.771,0.18 9.971,0.192c3.196,0.012 6.242,0.019 9.129,0.019c2.888,0 5.921,-0.019 9.1,-0.056c3.175,-0.037 6.421,-0.15 9.733,-0.339c3.312,-0.189 6.488,-0.326 9.525,-0.411c3.038,-0.086 6.113,-0.14 9.225,-0.162c3.108,-0.023 6.3,-0.062 9.571,-0.12c3.271,-0.058 6.367,-0.113 9.292,-0.165c2.925,-0.053 5.692,-0.133 8.3,-0.24c2.608,-0.107 5.242,-0.232 7.9,-0.375c2.654,-0.143 5.438,-0.246 8.346,-0.31c2.908,-0.065 5.858,-0.116 8.846,-0.156c2.987,-0.04 5.879,-0.085 8.675,-0.135c2.792,-0.05 5.442,-0.14 7.942,-0.267c2.5,-0.127 5.054,-0.335 7.667,-0.625c2.613,-0.289 5.375,-0.548 8.283,-0.775c2.908,-0.228 5.779,-0.355 8.612,-0.382c2.829,-0.026 5.608,-0.039 8.337,-0.039l15.85,0c2.529,0 4.917,-0.048 7.167,-0.144c2.25,-0.096 4.271,-0.21 6.058,-0.344c1.792,-0.134 3.488,-0.207 5.088,-0.221c1.596,-0.014 3.329,-0.016 5.192,-0.007c1.862,0.009 3.763,0.12 5.7,0.333c1.937,0.213 3.775,0.424 5.512,0.633c1.738,0.208 3.533,0.325 5.388,0.35c1.854,0.025 3.808,0.042 5.858,0.051c2.054,0.009 3.913,0.115 5.575,0.318c1.663,0.203 3.071,0.437 4.217,0.703c1.15,0.266 2.312,0.433 3.5,0.502c1.188,0.068 2.442,0.103 3.775,0.103c1.329,0 2.462,-0.004 3.4,-0.013c0.937,-0.009 1.792,-0.024 2.562,-0.045c0.771,-0.021 1.596,-0.032 2.479,-0.032c0.887,-0 1.85,-0 2.888,-0l2.413,0c0.775,0 0.492,0 -0.85,0" style="fill:none;fill-rule:nonzero;stroke:#000;stroke-width:3.54px;"/><path d="M593.387,207.608c0.017,-0.487 0.071,-1.026 0.171,-1.616c0.1,-0.59 0.188,-1.041 0.262,-1.354c0.075,-0.312 0.112,-0.499 0.112,-0.558c0,-0.06 -0.062,0.394 -0.192,1.361c-0.125,0.967 -0.263,2.246 -0.408,3.838c-0.142,1.591 -0.192,2.957 -0.146,4.096c0.046,1.14 0.158,2.155 0.337,3.048c0.183,0.892 0.329,1.588 0.442,2.089c0.112,0.501 0.237,0.825 0.375,0.975c0.188,0.208 0.412,-0.087 0.667,-0.888" style="fill:none;fill-rule:nonzero;stroke:#000;stroke-width:3.54px;"/><path d="M49.205,103.854l0,-1.983c0,-0.183 -0.189,-0.338 -0.568,-0.464c-0.379,-0.126 -1.379,-0.111 -3,0.044c-1.622,0.155 -3.703,0.915 -6.244,2.281c-2.541,1.365 -4.777,3.201 -6.706,5.506c-1.929,2.305 -2.935,4.557 -3.016,6.753c-0.081,2.197 0.687,3.84 2.303,4.929c1.617,1.089 3.522,1.684 5.715,1.785c2.193,0.101 4.062,-0.136 5.606,-0.712c1.544,-0.575 2.488,-1.103 2.835,-1.584c0.346,-0.481 0.078,-0.735 -0.802,-0.763c-0.881,-0.028 -2.183,0.347 -3.908,1.123c-1.724,0.777 -3.499,1.874 -5.324,3.293c-1.825,1.418 -3.413,3.107 -4.766,5.064c-1.353,1.958 -2.172,3.908 -2.459,5.85c-0.287,1.942 0.13,3.592 1.248,4.948c1.119,1.356 2.797,2.238 5.034,2.644c2.237,0.407 4.813,0.424 7.727,0.051c4.354,-0.557 8.314,-1.994 11.879,-4.31" style="fill:none;fill-rule:nonzero;stroke:#000;stroke-width:3.54px;"/><path d="M88.305,117.525c0.013,-0.006 1.108,-0.085 3.282,-0.236c2.175,-0.151 4.355,-0.32 6.54,-0.505c2.185,-0.185 4.254,-0.33 6.206,-0.435" style="fill:none;fill-rule:nonzero;stroke:#000;stroke-width:3.54px;"/><path d="M85.741,126.867c-0.334,-0.087 -0.775,-0.049 -1.323,0.114c-0.357,0.106 -0.24,0.182 0.352,0.227c0.592,0.046 1.837,0.05 3.734,0.013c1.897,-0.037 4.03,-0.112 6.399,-0.224c3.593,-0.17 6.819,0.022 9.678,0.575" style="fill:none;fill-rule:nonzero;stroke:#000;stroke-width:3.54px;"/><path d="M489.058,114.791l-1.683,0l6.358,0c3.483,0 7.942,-0.049 13.375,-0.148" style="fill:none;fill-rule:nonzero;stroke:#000;stroke-width:3.54px;"/><path d="M485.325,127.095c-0.012,-0.39 0.396,-0.739 1.225,-1.046c0.829,-0.308 2.204,-0.469 4.121,-0.482c1.921,-0.014 4.308,0.05 7.171,0.192c4.254,0.212 8.871,0.771 13.854,1.68" style="fill:none;fill-rule:nonzero;stroke:#000;stroke-width:3.54px;"/><path d="M200.32,220.152c0,0.285 -0.014,0.626 -0.042,1.021c-0.028,0.395 -0.063,0.719 -0.105,0.971c-0.041,0.252 -0.073,0.553 -0.094,0.903c-0.021,0.35 -0.046,0.799 -0.075,1.347c-0.028,0.548 -0.097,1.237 -0.206,2.068c-0.109,0.83 -0.205,1.711 -0.289,2.641c-0.083,0.93 -0.136,1.847 -0.158,2.751c-0.022,0.903 -0.047,1.8 -0.076,2.69c-0.029,0.89 -0.097,1.806 -0.206,2.746c-0.109,0.941 -0.201,1.868 -0.275,2.781c-0.074,0.914 -0.112,1.796 -0.113,2.648c-0.001,0.852 -0.002,1.703 -0.002,2.554c0,0.85 -0.033,1.716 -0.1,2.596c-0.067,0.88 -0.152,1.727 -0.255,2.54c-0.103,0.813 -0.175,1.591 -0.218,2.333c-0.042,0.741 -0.073,1.496 -0.093,2.263c-0.02,0.768 -0.065,1.561 -0.133,2.38c-0.069,0.819 -0.134,1.615 -0.196,2.387c-0.062,0.773 -0.118,1.486 -0.17,2.138c-0.052,0.653 -0.102,1.279 -0.152,1.877c-0.05,0.599 -0.11,1.172 -0.181,1.72c-0.07,0.548 -0.127,1.072 -0.168,1.57c-0.042,0.499 -0.078,0.986 -0.108,1.463c-0.03,0.477 -0.056,0.957 -0.076,1.442c-0.02,0.484 -0.041,0.99 -0.061,1.515c-0.02,0.527 -0.041,1.048 -0.062,1.565c-0.021,0.517 -0.051,1.037 -0.09,1.563c-0.038,0.525 -0.097,1.071 -0.177,1.637c-0.08,0.566 -0.156,1.113 -0.228,1.642c-0.072,0.529 -0.119,1.004 -0.141,1.426c-0.023,0.422 -0.034,0.702 -0.034,0.843c0,0.196 0.268,-0.118 0.804,-0.943" style="fill:none;fill-rule:nonzero;stroke:#000;stroke-width:3.54px;"/><path d="M266.272,215.114c-0.242,-0.128 -0.573,-0.052 -0.993,0.227c-0.282,0.188 -0.424,0.563 -0.427,1.126c-0.002,0.562 0.053,1.289 0.167,2.179c0.114,0.89 0.287,1.894 0.52,3.012c0.233,1.118 0.388,2.303 0.467,3.554c0.079,1.251 0.118,2.476 0.118,3.676c0,1.199 0,2.318 0,3.358l0,5.96c0,1.03 -0.019,2.115 -0.056,3.256c-0.038,1.141 -0.121,2.275 -0.251,3.4c-0.13,1.126 -0.232,2.174 -0.305,3.143c-0.073,0.969 -0.159,1.889 -0.259,2.762c-0.099,0.873 -0.233,1.764 -0.403,2.675c-0.17,0.911 -0.327,1.745 -0.472,2.501c-0.145,0.756 -0.224,1.445 -0.238,2.066c-0.014,0.621 -0.02,1.245 -0.02,1.872l0,25.345l0.041,-1.639" style="fill:none;fill-rule:nonzero;stroke:#000;stroke-width:3.54px;"/><path d="M332.112,215.139c-0.344,0.132 -0.666,0.439 -0.966,0.921c-0.3,0.483 -0.457,1.073 -0.471,1.77c-0.014,0.698 0.007,1.534 0.064,2.508c0.056,0.974 0.156,2.021 0.298,3.14c0.143,1.12 0.23,2.276 0.263,3.468c0.033,1.193 0.064,2.397 0.095,3.612c0.03,1.215 0.051,2.421 0.062,3.617c0.011,1.196 0.017,2.372 0.017,3.529l0,18.202c0,0.981 -0.015,1.988 -0.044,3.02c-0.03,1.032 -0.064,2.074 -0.103,3.127c-0.04,1.053 -0.08,2.044 -0.121,2.97c-0.042,0.927 -0.068,1.75 -0.08,2.469c-0.011,0.718 -0.021,1.358 -0.03,1.918c-0.009,0.56 -0.034,1.108 -0.074,1.645c-0.04,0.537 -0.09,1.093 -0.15,1.668c-0.06,0.575 -0.129,1.224 -0.208,1.946c-0.079,0.723 -0.18,1.518 -0.3,2.385c-0.122,0.868 -0.252,1.694 -0.393,2.479c-0.141,0.785 -0.287,1.528 -0.439,2.228c-0.152,0.7 -0.29,1.395 -0.413,2.085c-0.124,0.69 -0.202,1.302 -0.236,1.837c-0.033,0.535 -0.05,0.896 -0.05,1.082l0.004,0.121l0.017,-0.203c0.02,-0.344 0.083,-1.425 0.188,-3.245" style="fill:none;fill-rule:nonzero;stroke:#000;stroke-width:3.54px;"/><path d="M396.094,219.97l0,1.282c0,0.513 -0.024,1.015 -0.072,1.506c-0.048,0.49 -0.079,1.105 -0.091,1.842c-0.012,0.738 -0.018,1.675 -0.018,2.814c0,1.139 -0.019,2.462 -0.056,3.971c-0.037,1.508 -0.107,3.043 -0.209,4.605c-0.102,1.562 -0.159,3.044 -0.172,4.448c-0.013,1.404 -0.019,2.693 -0.019,3.867l0,10.101c0,1.255 -0.005,2.448 -0.014,3.579c-0.009,1.132 -0.043,2.152 -0.101,3.06c-0.058,0.908 -0.143,1.787 -0.255,2.637c-0.111,0.85 -0.203,1.753 -0.275,2.711c-0.072,0.958 -0.144,1.972 -0.214,3.042c-0.071,1.07 -0.132,2.1 -0.183,3.09c-0.051,0.99 -0.088,1.848 -0.11,2.575c-0.022,0.727 -0.034,1.41 -0.034,2.048c-0,0.638 -0,1.354 -0,2.147l0,2.567c0,0.918 -0.043,1.843 -0.128,2.776c-0.086,0.933 -0.176,1.754 -0.272,2.465c-0.095,0.711 -0.143,1.302 -0.145,1.772c-0.001,0.471 -0.002,0.958 -0.002,1.462l0,1.574l0,-0.818" style="fill:none;fill-rule:nonzero;stroke:#000;stroke-width:3.54px;"/><path d="M164.648,255.403c-0.105,-0.284 -0.04,-0.627 0.197,-1.028c0.158,-0.268 0.458,-0.403 0.901,-0.406c0.442,-0.002 1.14,0.029 2.092,0.096c0.952,0.067 2.154,0.161 3.605,0.282c1.451,0.121 3.111,0.228 4.979,0.322c1.868,0.093 3.883,0.17 6.043,0.231c2.161,0.061 4.272,0.122 6.335,0.182c2.062,0.061 4.086,0.131 6.073,0.211c1.986,0.08 3.986,0.185 5.999,0.314c2.014,0.13 4.062,0.304 6.145,0.523c2.083,0.22 4.268,0.422 6.557,0.609c2.289,0.187 4.701,0.283 7.235,0.288c2.535,0.006 5.046,-0.016 7.534,-0.067c2.487,-0.05 4.782,-0.015 6.885,0.106c2.103,0.121 4.193,0.32 6.269,0.596c2.076,0.277 4.373,0.415 6.891,0.414c2.518,-0.001 5.035,-0.119 7.553,-0.355c2.518,-0.236 4.925,-0.457 7.222,-0.664c2.297,-0.207 4.52,-0.333 6.671,-0.379c2.15,-0.046 4.26,-0.089 6.329,-0.127c2.07,-0.038 4.151,-0.069 6.244,-0.091c2.093,-0.022 4.189,-0.033 6.287,-0.034c2.098,0 4.118,0.028 6.06,0.085c1.942,0.057 3.849,0.156 5.72,0.298c1.872,0.142 3.817,0.22 5.836,0.234c2.019,0.014 4.12,-0.003 6.302,-0.052c2.183,-0.049 4.379,-0.065 6.587,-0.05c2.209,0.015 4.382,0.141 6.52,0.378c2.138,0.237 4.372,0.39 6.701,0.46c2.329,0.07 4.819,0.048 7.469,-0.065c2.65,-0.113 5.378,-0.33 8.184,-0.652c2.805,-0.322 5.542,-0.524 8.212,-0.605c2.669,-0.081 5.324,-0.122 7.964,-0.122c2.64,-0 5.412,-0.047 8.317,-0.141c2.905,-0.094 5.872,-0.301 8.902,-0.623c3.03,-0.321 5.928,-0.56 8.694,-0.718c2.766,-0.157 5.341,-0.254 7.726,-0.288c2.385,-0.035 4.586,-0.029 6.602,0.018c2.015,0.047 3.982,0.117 5.899,0.209c1.918,0.092 3.74,0.144 5.469,0.157c1.73,0.013 3.346,0.019 4.855,0.019c1.508,0 2.887,0.014 4.129,0.042c1.246,0.028 2.367,0.059 3.358,0.091c0.992,0.032 1.863,0.053 2.608,0.062c0.746,0.01 1.442,0.063 2.096,0.161c0.65,0.098 1.288,0.213 1.917,0.344c0.633,0.132 1.121,0.215 1.467,0.25c0.35,0.035 0.558,0.052 0.625,0.052c0.067,0 0,-0.027 -0.208,-0.082c-0.3,-0.079 -0.958,-0.327 -1.983,-0.745" style="fill:none;fill-rule:nonzero;stroke:#000;stroke-width:3.54px;"/><path d="M597.883,218.694c-0.404,-0.034 -0.829,-0.097 -1.275,-0.189c-0.446,-0.092 -0.775,-0.159 -0.992,-0.201c-0.217,-0.042 -0.35,-0.063 -0.396,-0.064c-0.046,-0.001 -0.071,0.097 -0.071,0.295l0,4.545c0,1.192 0.033,2.48 0.1,3.864c0.062,1.384 0.225,2.803 0.483,4.258c0.258,1.455 0.479,2.955 0.658,4.502c0.175,1.546 0.275,3.124 0.287,4.733c0.013,1.609 -0.05,3.204 -0.196,4.786c-0.142,1.582 -0.329,3.09 -0.567,4.525c-0.233,1.434 -0.375,2.792 -0.421,4.072c-0.05,1.28 -0.071,2.548 -0.071,3.803c0,1.255 -0.004,2.53 -0.017,3.826c-0.008,1.296 -0.046,2.558 -0.117,3.785c-0.071,1.228 -0.108,2.43 -0.121,3.607c-0.013,1.177 -0.021,2.328 -0.021,3.455l0,6.214c0,0.944 0.033,1.887 0.1,2.829c0.067,0.942 0.142,1.898 0.225,2.869c0.083,0.971 0.171,1.895 0.258,2.773c0.092,0.877 0.188,1.591 0.288,2.141c0.1,0.55 0.204,0.956 0.317,1.219c0.112,0.262 0.183,0.296 0.212,0.1c0.042,-0.28 0.171,-1.16 0.392,-2.641" style="fill:none;fill-rule:nonzero;stroke:#000;stroke-width:3.54px;"/><path d="M660.208,215.011c-0.113,-0.215 -0.008,-0.553 0.312,-1.012c0.212,-0.305 0.417,-0.295 0.612,0.03c0.196,0.325 0.304,1.213 0.329,2.663c0.029,1.45 -0.017,3.218 -0.133,5.305c-0.112,2.087 -0.204,4.337 -0.271,6.75c-0.071,2.413 -0.104,4.803 -0.104,7.168l0,6.565c0,2.011 -0.058,3.885 -0.171,5.623c-0.117,1.738 -0.258,3.387 -0.433,4.945c-0.171,1.56 -0.283,2.934 -0.329,4.123c-0.046,1.189 -0.067,2.238 -0.067,3.145l0,12.703c0,1.04 0.029,2.017 0.083,2.932c0.058,0.915 0.133,1.827 0.225,2.735c0.092,0.908 0.142,1.892 0.142,2.951c0.004,1.059 0.004,2.121 0.004,3.186c0,1.065 -0.013,2.043 -0.042,2.933c-0.029,0.89 -0.046,1.667 -0.046,2.332c-0.004,0.665 -0.004,1.307 -0.004,1.925c0,0.618 -0.004,1.202 -0.013,1.753c-0.008,0.551 -0.038,0.947 -0.087,1.188c-0.067,0.33 -0.1,0.181 -0.104,-0.445" style="fill:none;fill-rule:nonzero;stroke:#000;stroke-width:3.54px;"/><path d="M726.579,214.957c0.025,-0.445 0.083,-0.895 0.167,-1.35c0.088,-0.455 0.113,-0.44 0.088,0.047c-0.029,0.486 -0.108,1.963 -0.237,4.429c-0.129,2.466 -0.058,4.959 0.217,7.478c0.279,2.519 0.596,5.134 0.958,7.846c0.358,2.711 0.571,5.367 0.629,7.967c0.062,2.6 0.038,5.021 -0.067,7.262c-0.104,2.242 -0.183,4.364 -0.229,6.367c-0.046,2.003 -0.067,3.856 -0.067,5.56l0,4.765c0,1.473 -0.004,2.93 -0.017,4.37c-0.008,1.44 -0.021,2.711 -0.042,3.812c-0.025,1.101 0.042,2.006 0.196,2.715c0.15,0.709 0.375,1.387 0.667,2.035c0.292,0.647 0.562,1.31 0.808,1.987c0.246,0.677 0.442,1.408 0.588,2.193c0.146,0.784 0.225,1.636 0.237,2.554c0.017,0.918 0.008,1.853 -0.021,2.805c-0.029,0.952 -0.075,1.861 -0.146,2.727c-0.071,0.866 -0.125,1.618 -0.154,2.255c-0.033,0.637 -0.092,1.152 -0.179,1.545c-0.088,0.393 -0.2,0.7 -0.338,0.923c-0.196,0.316 -0.612,0.344 -1.258,0.085" style="fill:none;fill-rule:nonzero;stroke:#000;stroke-width:3.54px;"/><path d="M789.883,216.684c0.058,-0.496 -0.033,-0.617 -0.275,-0.361c-0.179,0.187 -0.233,0.942 -0.171,2.264c0.067,1.323 0.333,2.909 0.808,4.76c0.475,1.851 0.946,4.04 1.417,6.567c0.475,2.527 0.771,5.164 0.896,7.91c0.125,2.747 0.188,5.217 0.188,7.409c0,2.192 -0.012,4.117 -0.042,5.774c-0.025,1.657 -0.083,3.206 -0.162,4.648c-0.079,1.442 -0.129,2.843 -0.142,4.205c-0.013,1.361 0.017,2.633 0.083,3.814c0.062,1.182 0.212,2.31 0.442,3.386c0.229,1.076 0.392,2.155 0.479,3.238c0.088,1.082 0.15,2.166 0.188,3.251c0.042,1.085 0.117,2.13 0.225,3.135c0.108,1.006 0.208,1.938 0.304,2.795c0.092,0.857 0.163,1.667 0.217,2.427c0.05,0.761 0.104,1.535 0.167,2.323c0.058,0.788 0.125,1.635 0.196,2.542c0.071,0.907 0.112,1.812 0.125,2.717c0.013,0.904 0.033,1.691 0.062,2.36c0.029,0.669 0.088,1.148 0.175,1.436c0.092,0.288 0.167,0.46 0.229,0.515c0.063,0.056 0.021,0.032 -0.125,-0.072c-0.213,-0.148 -0.875,-0.615 -1.992,-1.4" style="fill:none;fill-rule:nonzero;stroke:#000;stroke-width:3.54px;"/><path d="M570.108,255.054c-0.038,-0.125 -0.029,-0.455 0.021,-0.99c0.029,-0.317 0.075,-0.523 0.133,-0.618c0.058,-0.094 0.146,-0.157 0.267,-0.189c0.117,-0.032 0.312,-0.058 0.575,-0.08c0.267,-0.021 0.821,-0.032 1.662,-0.032l19.304,0c2.821,0 5.571,0.005 8.246,0.013c2.679,0.009 5.383,0.078 8.108,0.205c2.729,0.127 5.671,0.214 8.837,0.26c3.163,0.046 6.429,0.065 9.796,0.055c3.371,-0.009 6.604,-0.024 9.7,-0.045c3.096,-0.021 5.921,-0.032 8.471,-0.032c2.546,0 4.933,0.015 7.162,0.044c2.225,0.029 4.471,0.045 6.733,0.045c2.267,0.001 4.558,-0.013 6.875,-0.042c2.321,-0.029 4.508,-0.045 6.554,-0.045c2.05,-0.001 3.95,-0.002 5.7,-0.002l38.288,0c2.254,0 4.525,-0.042 6.821,-0.128c2.292,-0.086 4.663,-0.219 7.108,-0.4c2.45,-0.181 4.829,-0.305 7.15,-0.373c2.317,-0.067 4.525,-0.054 6.629,0.04c2.104,0.094 4.125,0.281 6.067,0.563c1.938,0.282 3.871,0.477 5.792,0.586c1.921,0.109 3.908,0.169 5.958,0.18c2.054,0.01 4.042,0.045 5.962,0.105c1.921,0.06 3.8,0.115 5.629,0.167c1.833,0.052 3.763,0.078 5.792,0.079c2.025,0.001 4.05,0.002 6.071,0.002c2.021,0 3.933,0.005 5.746,0.014c1.808,0.009 3.625,0.086 5.446,0.232c1.821,0.145 3.642,0.315 5.463,0.509c1.821,0.194 3.7,0.315 5.642,0.36c1.938,0.047 3.904,0.07 5.904,0.07c1.996,0 3.854,-0.014 5.579,-0.043c1.725,-0.03 3.346,-0.045 4.854,-0.046c1.513,-0.001 3.033,0.003 4.563,0.012c1.529,0.009 3.025,0.034 4.487,0.074c1.463,0.04 2.913,0.066 4.35,0.078c1.438,0.011 2.754,0.022 3.958,0.03c1.2,0.009 1.942,0.023 2.225,0.041l0.167,0.009l-0.379,-0.035c-0.625,-0.052 -1.396,-0.143 -2.325,-0.272" style="fill:none;fill-rule:nonzero;stroke:#000;stroke-width:3.54px;"/><path d="M221.556,93.737c-0.136,-0.115 0.491,-0.159 1.883,-0.132c1.391,0.027 2.87,-0.083 4.437,-0.329c1.567,-0.246 2.949,-0.748 4.144,-1.504c1.195,-0.757 1.991,-1.517 2.386,-2.28c0.395,-0.764 0.348,-1.414 -0.14,-1.95c-0.488,-0.537 -1.42,-0.87 -2.796,-0.999c-1.376,-0.129 -2.789,0.142 -4.24,0.814c-1.451,0.672 -2.733,1.88 -3.846,3.625c-1.113,1.745 -1.747,3.854 -1.901,6.328c-0.155,2.475 0.43,4.615 1.753,6.423c1.322,1.807 3.115,2.854 5.377,3.14c3.315,0.419 6.897,-0.51 10.747,-2.788" style="fill:none;fill-rule:nonzero;stroke:#c2361a;stroke-width:3.54px;"/><path d="M293.295,159.615c-0.153,-0.08 -0.551,-0.402 -1.193,-0.965c-0.373,-0.327 -0.451,-0.264 -0.235,0.19c0.217,0.454 0.674,1.515 1.372,3.185c0.699,1.669 1.25,3.224 1.654,4.664c0.404,1.44 0.676,2.53 0.817,3.269c0.141,0.739 0.212,0.96 0.215,0.663c0.002,-0.297 -0.078,-1.402 -0.243,-3.313c-0.164,-1.912 -0.243,-3.995 -0.237,-6.249c0.007,-2.254 0.413,-4.047 1.219,-5.378c0.806,-1.331 1.796,-1.887 2.97,-1.668c1.174,0.219 2.203,1.207 3.087,2.964c0.883,1.756 1.565,3.274 2.047,4.553c0.481,1.278 0.817,2.084 1.006,2.419c0.19,0.335 0.403,0.156 0.64,-0.536c0.237,-0.693 0.67,-1.891 1.3,-3.597c0.631,-1.705 1.449,-3.311 2.454,-4.818c1.005,-1.506 1.984,-2.29 2.937,-2.35c0.953,-0.06 1.888,0.743 2.805,2.408c0.916,1.665 1.66,3.451 2.232,5.358c0.572,1.907 0.988,3.384 1.25,4.431c0.261,1.046 0.423,1.661 0.485,1.843l0.04,0.117l-0.069,-0.213c-0.122,-0.369 -0.238,-0.75 -0.35,-1.141" style="fill:none;fill-rule:nonzero;stroke:#63b633;stroke-width:3.54px;"/><path d="M663.417,119.895l0,-1.227c0,-0.435 -0.013,-0.79 -0.042,-1.065c-0.029,-0.275 -0.133,-0.549 -0.308,-0.823c-0.175,-0.273 -0.404,-0.527 -0.683,-0.762c-0.283,-0.235 -0.654,-0.421 -1.121,-0.558c-0.467,-0.137 -1.079,-0.17 -1.837,-0.099c-0.763,0.071 -1.562,0.462 -2.404,1.173c-0.842,0.71 -1.6,1.715 -2.275,3.016c-0.679,1.3 -1.158,2.693 -1.438,4.179c-0.283,1.486 -0.367,2.854 -0.262,4.105c0.108,1.251 0.538,2.221 1.296,2.91c0.754,0.69 1.679,1.188 2.775,1.493c1.1,0.305 2.163,0.482 3.192,0.529c1.029,0.047 1.904,0.006 2.625,-0.125c0.721,-0.131 1.292,-0.526 1.708,-1.185c0.417,-0.659 0.679,-1.447 0.792,-2.364c0.113,-0.916 0.142,-1.783 0.1,-2.601c-0.046,-0.818 -0.238,-1.553 -0.567,-2.206c-0.333,-0.653 -0.742,-1.255 -1.225,-1.805c-0.483,-0.55 -0.967,-1.079 -1.458,-1.585c-0.487,-0.507 -0.963,-0.99 -1.429,-1.45c-0.462,-0.46 -0.983,-0.787 -1.554,-0.981c-0.571,-0.195 -1.2,-0.08 -1.888,0.345c-0.688,0.424 -1.242,1.268 -1.662,2.532c-0.421,1.263 -0.629,2.489 -0.625,3.676c0.004,1.188 0.371,2.107 1.104,2.758c0.729,0.651 1.642,1.035 2.729,1.152c1.087,0.116 2.104,-0.097 3.058,-0.641c0.954,-0.543 1.592,-1.445 1.912,-2.704c0.321,-1.259 0.183,-2.448 -0.413,-3.569c-0.6,-1.12 -1.633,-1.787 -3.1,-2c-1.471,-0.213 -2.812,0.267 -4.017,1.44c-1.208,1.173 -1.892,2.6 -2.046,4.282c-0.158,1.682 0.383,2.959 1.617,3.833c1.238,0.874 2.733,1.064 4.483,0.57c1.75,-0.494 3.158,-1.567 4.225,-3.218c1.067,-1.651 1.683,-3.251 1.85,-4.799c0.162,-1.548 -0.204,-2.649 -1.108,-3.303c-0.9,-0.655 -1.996,-0.828 -3.279,-0.52c-1.288,0.308 -2.408,1.047 -3.367,2.217c-0.958,1.17 -1.608,2.467 -1.946,3.893c-0.342,1.426 -0.054,2.662 0.854,3.71c0.912,1.047 2.408,1.515 4.496,1.403c2.083,-0.112 3.867,-0.887 5.346,-2.325c1.479,-1.438 2.321,-3 2.529,-4.687c0.208,-1.686 -0.262,-3.084 -1.404,-4.195c-1.142,-1.11 -2.696,-1.807 -4.654,-2.092c-1.958,-0.285 -3.762,0.005 -5.417,0.867c-1.658,0.863 -2.821,2.174 -3.5,3.933c-0.679,1.76 -0.867,3.579 -0.575,5.458c0.296,1.879 1.208,3.338 2.729,4.376c1.525,1.038 3.042,1.509 4.554,1.413c1.513,-0.096 2.721,-0.752 3.629,-1.967c0.908,-1.215 1.417,-2.689 1.525,-4.422c0.108,-1.733 -0.271,-3.343 -1.142,-4.829c-0.871,-1.487 -2.079,-2.432 -3.633,-2.839c-1.554,-0.406 -3.079,0.13 -4.571,1.606c-1.496,1.476 -2.458,3.232 -2.888,5.269c-0.429,2.036 -0.217,3.496 0.629,4.378c1.196,1.251 3.796,0.369 7.796,-2.647" style="fill:none;fill-rule:nonzero;stroke:#c2361a;stroke-width:7.09px;"/><path d="M696.5,154.438c-0.346,-0.08 -0.783,-0.204 -1.312,-0.371c-0.533,-0.167 -0.95,-0.36 -1.262,-0.578c-0.308,-0.218 -0.583,-0.536 -0.817,-0.954c-0.229,-0.418 -0.517,-0.851 -0.854,-1.3c-0.337,-0.45 -0.812,-0.737 -1.417,-0.862c-0.608,-0.125 -1.342,0.127 -2.196,0.757c-0.85,0.629 -1.533,1.683 -2.042,3.163c-0.508,1.479 -0.525,2.953 -0.054,4.421c0.471,1.469 1.413,2.515 2.821,3.139c1.408,0.624 2.754,0.826 4.042,0.605c1.288,-0.22 2.325,-1 3.117,-2.339c0.792,-1.338 1.312,-2.863 1.562,-4.574c0.25,-1.711 0.283,-3.109 0.1,-4.194c-0.183,-1.085 -0.683,-1.752 -1.504,-2c-0.817,-0.248 -1.825,-0.154 -3.021,0.282c-1.196,0.436 -2.333,1.173 -3.404,2.211c-1.075,1.038 -1.854,2.187 -2.333,3.448c-0.483,1.261 -0.475,2.406 0.025,3.435c0.504,1.028 1.625,1.708 3.362,2.039c1.742,0.331 3.458,0.285 5.15,-0.139c1.696,-0.424 3.021,-1.252 3.975,-2.484c0.954,-1.232 1.429,-2.605 1.425,-4.119c-0.004,-1.514 -0.683,-2.745 -2.037,-3.693c-1.354,-0.948 -3.088,-1.145 -5.204,-0.592c-2.121,0.553 -3.796,1.955 -5.029,4.206c-1.233,2.25 -1.717,4.429 -1.45,6.534c0.267,2.105 1.25,3.49 2.954,4.155c1.7,0.665 3.396,0.574 5.083,-0.272c1.688,-0.846 2.913,-2.15 3.683,-3.912c0.767,-1.762 1.067,-3.482 0.896,-5.16c-0.171,-1.678 -0.896,-2.723 -2.183,-3.134c-1.288,-0.411 -2.671,-0.049 -4.15,1.086c-1.483,1.135 -2.446,2.405 -2.892,3.81c-0.446,1.405 -0.358,2.4 0.254,2.985c0.612,0.586 1.533,0.562 2.754,-0.07c1.225,-0.632 2.137,-1.525 2.746,-2.677c0.604,-1.153 0.733,-2.052 0.383,-2.698c-0.354,-0.647 -0.633,-0.68 -0.842,-0.099" style="fill:none;fill-rule:nonzero;stroke:#63b633;stroke-width:7.09px;"/><path d="M648.467,89.453c-0.25,-0.227 -0.533,-0.405 -0.858,-0.535c-0.321,-0.13 -0.642,-0.09 -0.958,0.118c-0.321,0.208 -0.729,0.697 -1.229,1.469c-0.5,0.772 -1.113,1.709 -1.842,2.813c-0.729,1.104 -1.55,2.233 -2.458,3.39c-0.904,1.156 -1.792,2.254 -2.658,3.293c-0.867,1.038 -1.608,1.977 -2.225,2.815c-0.617,0.838 -1.125,1.551 -1.529,2.138c-0.4,0.587 -0.804,1.1 -1.217,1.538c-0.413,0.438 -0.908,0.884 -1.492,1.338c-0.579,0.454 -1.229,0.962 -1.954,1.525c-0.725,0.562 -1.446,1.133 -2.171,1.713c-0.725,0.58 -1.304,1.09 -1.742,1.53c-0.437,0.441 -0.783,0.864 -1.042,1.268c-0.254,0.404 -0.517,0.862 -0.779,1.373c-0.258,0.511 -0.546,1.127 -0.858,1.848c-0.312,0.721 -0.629,1.483 -0.954,2.283c-0.325,0.801 -0.617,1.561 -0.875,2.282c-0.254,0.721 -0.458,1.455 -0.6,2.203c-0.146,0.748 -0.292,1.488 -0.429,2.219c-0.142,0.731 -0.271,1.417 -0.383,2.059c-0.113,0.641 -0.188,1.227 -0.221,1.757c-0.033,0.53 -0.05,1.053 -0.05,1.57c0,0.517 0.058,1.062 0.171,1.636c0.112,0.574 0.325,1.193 0.633,1.858c0.308,0.665 0.642,1.362 0.996,2.09c0.35,0.728 0.738,1.451 1.158,2.17c0.421,0.719 0.954,1.462 1.592,2.23c0.642,0.767 1.375,1.627 2.212,2.58c0.833,0.952 1.754,2.013 2.758,3.183c1.004,1.17 2.104,2.3 3.292,3.388c1.192,1.089 2.379,2.087 3.567,2.996c1.188,0.908 2.288,1.754 3.296,2.538c1.012,0.784 1.971,1.516 2.883,2.196c0.917,0.68 1.846,1.394 2.796,2.142c0.95,0.748 1.821,1.467 2.608,2.157c0.792,0.69 1.492,1.408 2.104,2.155c0.612,0.747 1.254,1.486 1.925,2.218c0.675,0.731 1.429,1.418 2.263,2.059c0.837,0.642 1.654,1.256 2.446,1.844c0.796,0.588 1.596,1.219 2.4,1.894c0.804,0.675 1.713,1.348 2.721,2.018c1.004,0.67 1.992,1.306 2.958,1.905c0.967,0.6 1.821,1.17 2.558,1.708c0.738,0.539 1.404,1.019 1.992,1.44c0.592,0.42 1.171,0.804 1.738,1.15c0.571,0.345 1.108,0.685 1.617,1.018c0.508,0.333 0.954,0.678 1.333,1.033c0.379,0.355 0.729,0.69 1.042,1.006c0.317,0.315 0.65,0.605 1,0.871c0.354,0.266 0.733,0.501 1.15,0.705c0.413,0.205 0.846,0.398 1.3,0.581c0.454,0.182 0.892,0.374 1.308,0.576c0.417,0.201 0.829,0.413 1.233,0.636c0.404,0.222 0.867,0.407 1.387,0.553c0.521,0.146 1.104,0.226 1.75,0.24c0.642,0.014 1.296,0.03 1.954,0.05c0.658,0.019 1.288,0.063 1.887,0.132c0.6,0.068 1.179,0.12 1.738,0.153c0.558,0.033 1.175,0.05 1.858,0.05c0.683,0 1.454,-0.072 2.321,-0.215c0.867,-0.143 1.692,-0.341 2.479,-0.594c0.783,-0.253 1.479,-0.482 2.083,-0.687c0.604,-0.205 1.167,-0.374 1.683,-0.508c0.517,-0.134 1.092,-0.286 1.725,-0.456c0.629,-0.17 1.3,-0.375 2.008,-0.615c0.708,-0.24 1.429,-0.515 2.154,-0.825c0.729,-0.311 1.462,-0.687 2.2,-1.128c0.738,-0.441 1.492,-0.929 2.263,-1.465c0.771,-0.535 1.513,-1.066 2.238,-1.592c0.721,-0.526 1.417,-1.09 2.083,-1.693c0.671,-0.603 1.313,-1.307 1.921,-2.11c0.613,-0.803 1.204,-1.655 1.783,-2.553c0.579,-0.899 1.129,-1.742 1.663,-2.529c0.529,-0.788 0.992,-1.487 1.392,-2.1c0.4,-0.613 0.763,-1.198 1.088,-1.756c0.329,-0.558 0.675,-1.12 1.046,-1.686c0.371,-0.566 0.762,-1.119 1.167,-1.657c0.408,-0.539 0.783,-1.032 1.129,-1.482c0.346,-0.449 0.654,-0.896 0.917,-1.34c0.267,-0.445 0.512,-0.88 0.737,-1.307c0.225,-0.426 0.429,-0.847 0.613,-1.264c0.183,-0.416 0.346,-0.827 0.475,-1.232c0.133,-0.405 0.217,-0.791 0.254,-1.156c0.033,-0.366 0.05,-0.716 0.05,-1.052l0,-2.463c0,-0.465 -0.046,-0.95 -0.142,-1.455c-0.096,-0.505 -0.221,-1.06 -0.371,-1.662c-0.154,-0.603 -0.283,-1.252 -0.4,-1.948c-0.113,-0.695 -0.221,-1.389 -0.321,-2.079c-0.1,-0.691 -0.25,-1.337 -0.446,-1.939c-0.2,-0.602 -0.467,-1.167 -0.804,-1.695c-0.342,-0.528 -0.733,-1.055 -1.175,-1.58c-0.442,-0.526 -0.892,-1.1 -1.35,-1.724c-0.454,-0.623 -0.958,-1.298 -1.508,-2.024c-0.55,-0.725 -1.2,-1.449 -1.954,-2.17c-0.754,-0.721 -1.533,-1.416 -2.333,-2.086c-0.8,-0.67 -1.592,-1.358 -2.383,-2.064c-0.788,-0.707 -1.637,-1.463 -2.554,-2.27c-0.917,-0.807 -1.904,-1.615 -2.962,-2.426c-1.058,-0.81 -2.113,-1.606 -3.158,-2.388c-1.046,-0.782 -2.046,-1.543 -3.004,-2.283c-0.954,-0.741 -1.842,-1.47 -2.667,-2.19c-0.825,-0.719 -1.65,-1.467 -2.467,-2.245c-0.817,-0.778 -1.667,-1.528 -2.546,-2.252c-0.879,-0.723 -1.758,-1.376 -2.642,-1.957c-0.883,-0.582 -1.717,-1.127 -2.5,-1.635c-0.788,-0.509 -1.537,-1.015 -2.254,-1.52c-0.721,-0.505 -1.496,-1.083 -2.333,-1.735c-0.837,-0.653 -1.7,-1.353 -2.592,-2.101c-0.887,-0.748 -1.783,-1.448 -2.683,-2.101c-0.904,-0.653 -1.713,-1.263 -2.433,-1.832c-0.717,-0.569 -1.392,-1.156 -2.017,-1.761c-0.625,-0.605 -1.313,-1.208 -2.058,-1.809c-0.746,-0.6 -1.446,-1.15 -2.1,-1.649c-0.654,-0.499 -1.242,-0.991 -1.762,-1.477c-0.521,-0.486 -0.983,-0.934 -1.396,-1.343c-0.408,-0.41 -0.796,-0.811 -1.158,-1.204c-0.362,-0.393 -0.783,-0.798 -1.254,-1.213c-0.471,-0.416 -0.933,-0.802 -1.379,-1.159c-0.45,-0.357 -0.9,-0.693 -1.354,-1.01c-0.454,-0.316 -0.963,-0.553 -1.525,-0.712c-0.562,-0.158 -1.196,-0.259 -1.896,-0.302c-0.704,-0.043 -1.475,-0.065 -2.312,-0.066c-0.833,-0.001 -1.696,-0.002 -2.588,-0.002c-0.892,0 -1.792,0.053 -2.704,0.157c-0.908,0.105 -1.858,0.37 -2.842,0.794c-0.983,0.424 -1.6,0.802 -1.85,1.135c-0.354,0.468 0.217,1.085 1.712,1.852" style="fill:none;fill-rule:nonzero;stroke:#983da2;stroke-width:3.54px;"/><path d="M694.95,78.608c0.504,-0.2 1.108,-0.482 1.817,-0.845c0.713,-0.364 1.242,-0.688 1.587,-0.974c0.35,-0.286 0.55,-0.532 0.608,-0.739c0.062,-0.207 -0.063,-0.333 -0.363,-0.38c-0.304,-0.046 -1.038,0.093 -2.204,0.416c-1.162,0.324 -2.537,0.956 -4.117,1.898c-1.579,0.941 -3.079,2.098 -4.492,3.471c-1.413,1.373 -2.321,2.787 -2.721,4.241c-0.4,1.455 0.029,2.558 1.288,3.309c1.258,0.751 2.921,1.181 4.983,1.288c2.058,0.108 3.9,0.091 5.521,-0.051c1.625,-0.142 2.821,-0.375 3.596,-0.698c0.775,-0.323 1.15,-0.525 1.125,-0.607c-0.021,-0.081 -0.546,0.011 -1.571,0.276c-1.029,0.265 -2.238,0.829 -3.633,1.69c-1.396,0.862 -2.65,1.924 -3.771,3.187c-1.117,1.263 -1.854,2.556 -2.2,3.877c-0.35,1.321 0.083,2.336 1.3,3.045c1.213,0.71 3.146,1.051 5.792,1.024c3.929,-0.04 8.108,-0.691 12.533,-1.954" style="fill:none;fill-rule:nonzero;stroke:#983da2;stroke-width:3.54px;"/></svg>