<?xml version="1.0" encoding="UTF-8" standalone="no"?><!DOCTYPE svg PUBLIC "-//W3C//DTD SVG 1.1//EN" "http://www.w3.org/Graphics/SVG/1.1/DTD/svg11.dtd"><svg width="100%" height="100%" viewBox="0 0 286 74" version="1.1" xmlns="http://www.w3.org/2000/svg" xmlns:xlink="http://www.w3.org/1999/xlink" xml:space="preserve" xmlns:serif="http://www.serif.com/" style="fill-rule:evenodd;clip-rule:evenodd;stroke-linecap:round;stroke-linejoin:round;stroke-miterlimit:10;"><rect id="Artboard3" x="0" y="-0" width="285.99" height="73.576" style="fill:none;"/><clipPath id="_clip1"><rect x="0" y="-0" width="285.99" height="73.576"/></clipPath><g clip-path="url(#_clip1)"><rect x="-0" y="0" width="285.99" height="73.576" style="fill:#fff;"/><path d="M15.811,16.122c-0.07,-0.058 -0.14,-0.122 -0.211,-0.191c-0.071,-0.069 -0.115,-0.109 -0.133,-0.12c-0.018,-0.011 -0.017,-0.005 0.003,0.017c0.02,0.022 0.071,0.078 0.152,0.167c0.081,0.089 0.24,0.258 0.476,0.506c0.236,0.248 0.462,0.491 0.677,0.73c0.215,0.238 0.454,0.509 0.717,0.811c0.263,0.302 0.543,0.602 0.838,0.899c0.296,0.298 0.583,0.562 0.861,0.793c0.278,0.231 0.532,0.453 0.759,0.667c0.228,0.214 0.44,0.431 0.635,0.652c0.196,0.221 0.372,0.434 0.529,0.639c0.157,0.205 0.306,0.394 0.447,0.568c0.141,0.174 0.301,0.328 0.479,0.463c0.178,0.135 0.369,0.263 0.573,0.385c0.204,0.122 0.401,0.255 0.591,0.399c0.19,0.145 0.373,0.306 0.549,0.485c0.176,0.179 0.348,0.358 0.518,0.539c0.17,0.18 0.344,0.35 0.521,0.508c0.177,0.159 0.351,0.318 0.522,0.478c0.17,0.16 0.33,0.329 0.479,0.509c0.149,0.179 0.299,0.353 0.449,0.522c0.15,0.168 0.309,0.324 0.476,0.466c0.167,0.142 0.339,0.271 0.516,0.385c0.177,0.115 0.342,0.235 0.494,0.36c0.152,0.126 0.294,0.266 0.425,0.421c0.132,0.155 0.262,0.308 0.391,0.459c0.129,0.151 0.253,0.287 0.373,0.407c0.119,0.12 0.233,0.226 0.34,0.317c0.107,0.091 0.212,0.186 0.314,0.284c0.102,0.099 0.207,0.209 0.313,0.33c0.107,0.121 0.213,0.24 0.32,0.357c0.107,0.117 0.218,0.234 0.332,0.35c0.114,0.117 0.222,0.239 0.325,0.367c0.102,0.128 0.202,0.27 0.3,0.424c0.098,0.154 0.199,0.316 0.306,0.486c0.106,0.17 0.221,0.332 0.345,0.486c0.124,0.154 0.247,0.306 0.371,0.457c0.124,0.15 0.247,0.31 0.368,0.479c0.122,0.169 0.251,0.353 0.389,0.551c0.138,0.198 0.286,0.397 0.446,0.597c0.16,0.2 0.326,0.395 0.498,0.588c0.172,0.192 0.356,0.384 0.552,0.576c0.196,0.192 0.4,0.383 0.614,0.573c0.213,0.19 0.42,0.381 0.62,0.572c0.2,0.192 0.398,0.384 0.592,0.576c0.194,0.192 0.392,0.373 0.594,0.542c0.201,0.169 0.411,0.335 0.629,0.5c0.218,0.165 0.437,0.35 0.656,0.555c0.219,0.205 0.426,0.41 0.622,0.615c0.195,0.205 0.388,0.397 0.577,0.578c0.19,0.181 0.38,0.356 0.572,0.527c0.192,0.17 0.384,0.341 0.576,0.51c0.192,0.17 0.389,0.354 0.593,0.552c0.204,0.198 0.417,0.404 0.64,0.618c0.223,0.214 0.448,0.404 0.674,0.569c0.226,0.165 0.45,0.318 0.672,0.459c0.222,0.141 0.434,0.294 0.636,0.458c0.202,0.164 0.413,0.351 0.633,0.561c0.22,0.21 0.45,0.432 0.691,0.667c0.24,0.235 0.48,0.472 0.718,0.71c0.238,0.238 0.466,0.464 0.684,0.676c0.217,0.213 0.423,0.428 0.618,0.645c0.195,0.218 0.397,0.456 0.608,0.715c0.211,0.259 0.431,0.51 0.661,0.754c0.23,0.244 0.451,0.47 0.661,0.678c0.21,0.208 0.405,0.414 0.583,0.617c0.179,0.204 0.349,0.416 0.512,0.636c0.163,0.221 0.337,0.448 0.523,0.681c0.186,0.233 0.376,0.453 0.571,0.658c0.195,0.205 0.384,0.399 0.57,0.582c0.185,0.183 0.365,0.376 0.54,0.579c0.175,0.203 0.362,0.43 0.56,0.681c0.198,0.251 0.437,0.509 0.718,0.775c0.281,0.266 0.562,0.507 0.843,0.725c0.281,0.218 0.535,0.43 0.763,0.636c0.227,0.206 0.455,0.422 0.683,0.648c0.228,0.226 0.47,0.439 0.727,0.639c0.257,0.2 0.508,0.395 0.755,0.585c0.246,0.19 0.474,0.386 0.682,0.589c0.208,0.203 0.409,0.41 0.604,0.619c0.195,0.21 0.394,0.413 0.598,0.61c0.204,0.197 0.401,0.392 0.591,0.584c0.19,0.192 0.37,0.377 0.538,0.555c0.168,0.178 0.333,0.353 0.493,0.526c0.16,0.173 0.317,0.343 0.471,0.511c0.153,0.168 0.307,0.326 0.46,0.472c0.153,0.147 0.299,0.294 0.438,0.442c0.139,0.148 0.272,0.294 0.399,0.438c0.127,0.144 0.251,0.271 0.373,0.382c0.122,0.111 0.241,0.216 0.358,0.315c0.117,0.1 0.228,0.195 0.333,0.285c0.105,0.09 0.204,0.173 0.297,0.246c0.093,0.074 0.179,0.135 0.257,0.185c0.079,0.05 0.145,0.087 0.199,0.112l0.041,0.019l-0.122,-0.056" style="fill:none;fill-rule:nonzero;stroke:#000;stroke-width:0.85px;"/><path d="M31.58,32.397c0.004,0.047 0.003,0.127 -0.004,0.241l-0.003,0.04l0.004,-0.113c0.005,-0.12 0.015,-0.235 0.029,-0.347c0.014,-0.112 0.021,-0.178 0.021,-0.201c0,-0.022 0.012,-0.052 0.037,-0.09c0.025,-0.038 0.102,-0.118 0.231,-0.24c0.129,-0.122 0.355,-0.329 0.68,-0.621c0.324,-0.291 0.728,-0.648 1.212,-1.071c0.483,-0.423 0.944,-0.831 1.381,-1.224c0.437,-0.393 0.866,-0.794 1.287,-1.204c0.42,-0.409 0.834,-0.82 1.241,-1.232c0.407,-0.412 0.789,-0.785 1.146,-1.118c0.357,-0.334 0.683,-0.634 0.977,-0.901c0.294,-0.267 0.563,-0.518 0.807,-0.752c0.244,-0.234 0.497,-0.482 0.758,-0.745c0.261,-0.263 0.545,-0.546 0.853,-0.85c0.308,-0.304 0.585,-0.573 0.831,-0.807c0.246,-0.234 0.464,-0.439 0.655,-0.616c0.191,-0.177 0.382,-0.344 0.574,-0.502c0.192,-0.158 0.388,-0.33 0.589,-0.516c0.201,-0.186 0.397,-0.373 0.588,-0.561c0.191,-0.188 0.367,-0.36 0.531,-0.516c0.163,-0.156 0.341,-0.331 0.534,-0.523c0.193,-0.192 0.395,-0.405 0.607,-0.638c0.212,-0.233 0.386,-0.432 0.523,-0.599c0.137,-0.166 0.247,-0.294 0.331,-0.384c0.084,-0.09 0.165,-0.164 0.246,-0.223c0.08,-0.059 0.158,-0.097 0.234,-0.113l0.057,-0.012l-0.171,0.037" style="fill:none;fill-rule:nonzero;stroke:#000;stroke-width:0.85px;"/><path d="M48.382,47.205c0.086,0.011 0.204,-0.064 0.355,-0.225c0.151,-0.161 0.324,-0.378 0.518,-0.651c0.194,-0.273 0.424,-0.584 0.689,-0.932c0.265,-0.348 0.553,-0.713 0.866,-1.096c0.312,-0.383 0.629,-0.764 0.949,-1.144c0.321,-0.379 0.644,-0.77 0.971,-1.171c0.327,-0.401 0.676,-0.819 1.048,-1.253c0.372,-0.434 0.716,-0.815 1.032,-1.142c0.316,-0.327 0.613,-0.625 0.893,-0.893c0.28,-0.268 0.576,-0.558 0.887,-0.869c0.312,-0.311 0.645,-0.66 0.999,-1.047c0.354,-0.387 0.684,-0.743 0.991,-1.067c0.306,-0.325 0.588,-0.62 0.844,-0.886c0.256,-0.266 0.51,-0.529 0.76,-0.789c0.25,-0.26 0.504,-0.501 0.762,-0.722c0.258,-0.221 0.507,-0.419 0.748,-0.595c0.241,-0.176 0.497,-0.382 0.767,-0.619c0.27,-0.237 0.584,-0.54 0.94,-0.91c0.357,-0.37 0.705,-0.731 1.046,-1.085c0.341,-0.354 0.629,-0.636 0.866,-0.848c0.237,-0.212 0.458,-0.398 0.665,-0.558c0.206,-0.16 0.442,-0.36 0.707,-0.6c0.265,-0.239 0.538,-0.485 0.82,-0.738c0.282,-0.252 0.576,-0.503 0.882,-0.752c0.306,-0.249 0.565,-0.46 0.777,-0.633c0.212,-0.173 0.451,-0.376 0.715,-0.609c0.265,-0.233 0.544,-0.475 0.839,-0.726c0.294,-0.251 0.561,-0.465 0.799,-0.643c0.238,-0.178 0.459,-0.342 0.664,-0.493c0.205,-0.151 0.433,-0.338 0.686,-0.563c0.253,-0.225 0.532,-0.494 0.837,-0.808c0.305,-0.314 0.591,-0.612 0.858,-0.894c0.267,-0.282 0.507,-0.534 0.72,-0.757c0.213,-0.223 0.425,-0.447 0.635,-0.672c0.211,-0.225 0.453,-0.476 0.727,-0.754c0.274,-0.277 0.588,-0.586 0.94,-0.927c0.353,-0.341 0.686,-0.664 1,-0.971c0.314,-0.307 0.571,-0.556 0.769,-0.747c0.198,-0.191 0.348,-0.34 0.449,-0.447c0.101,-0.107 0.177,-0.197 0.229,-0.271c0.081,-0.114 0.144,-0.21 0.189,-0.288" style="fill:none;fill-rule:nonzero;stroke:#000;stroke-width:0.85px;"/><path d="M111.926,16.494c0.021,0.012 0.158,0.145 0.412,0.398c0.254,0.254 0.592,0.579 1.015,0.976c0.423,0.397 0.901,0.822 1.433,1.274c0.533,0.452 1.031,0.878 1.495,1.279c0.464,0.401 0.867,0.777 1.208,1.129c0.342,0.352 0.65,0.67 0.924,0.955c0.275,0.285 0.517,0.523 0.728,0.716c0.211,0.193 0.401,0.367 0.57,0.523c0.169,0.156 0.328,0.322 0.476,0.499c0.148,0.177 0.306,0.34 0.473,0.49c0.167,0.15 0.341,0.287 0.523,0.412c0.182,0.125 0.36,0.247 0.533,0.365c0.173,0.119 0.338,0.248 0.493,0.388c0.156,0.14 0.321,0.304 0.495,0.491c0.174,0.188 0.362,0.384 0.562,0.588c0.201,0.204 0.403,0.397 0.608,0.577c0.205,0.18 0.395,0.373 0.571,0.579c0.176,0.206 0.35,0.415 0.523,0.629c0.172,0.214 0.348,0.422 0.528,0.624c0.18,0.202 0.356,0.402 0.529,0.599c0.173,0.197 0.341,0.396 0.504,0.597c0.163,0.201 0.33,0.418 0.499,0.65c0.17,0.232 0.345,0.463 0.527,0.692c0.182,0.229 0.375,0.45 0.581,0.661c0.206,0.212 0.411,0.427 0.616,0.645c0.205,0.218 0.403,0.44 0.595,0.666c0.192,0.225 0.39,0.461 0.593,0.705c0.203,0.245 0.434,0.497 0.692,0.757c0.258,0.26 0.525,0.527 0.803,0.801c0.277,0.274 0.544,0.553 0.8,0.837c0.256,0.284 0.512,0.565 0.769,0.842c0.257,0.277 0.532,0.555 0.824,0.832c0.293,0.277 0.597,0.544 0.913,0.8c0.316,0.256 0.614,0.506 0.892,0.749c0.279,0.244 0.545,0.482 0.798,0.716c0.253,0.233 0.507,0.467 0.762,0.7c0.255,0.233 0.513,0.464 0.776,0.693c0.263,0.229 0.51,0.455 0.742,0.679c0.232,0.224 0.452,0.455 0.659,0.695c0.207,0.24 0.416,0.477 0.627,0.711c0.211,0.234 0.428,0.458 0.651,0.673c0.223,0.214 0.445,0.429 0.664,0.642c0.219,0.214 0.43,0.427 0.632,0.638c0.202,0.211 0.396,0.417 0.581,0.617c0.185,0.2 0.366,0.397 0.541,0.592c0.175,0.195 0.356,0.379 0.543,0.552c0.187,0.174 0.369,0.337 0.547,0.491c0.178,0.153 0.345,0.306 0.501,0.456c0.156,0.151 0.31,0.311 0.46,0.48c0.151,0.169 0.311,0.337 0.48,0.503c0.169,0.166 0.339,0.329 0.51,0.489c0.17,0.16 0.339,0.321 0.507,0.481c0.168,0.16 0.34,0.324 0.517,0.492c0.177,0.167 0.359,0.33 0.546,0.489c0.187,0.158 0.382,0.322 0.585,0.492c0.203,0.17 0.414,0.345 0.633,0.527c0.218,0.182 0.436,0.368 0.652,0.557c0.216,0.189 0.429,0.379 0.639,0.569c0.21,0.19 0.414,0.373 0.614,0.548c0.2,0.176 0.393,0.344 0.581,0.504c0.188,0.161 0.373,0.325 0.555,0.492c0.182,0.167 0.361,0.343 0.536,0.527c0.175,0.184 0.353,0.368 0.533,0.55c0.18,0.183 0.356,0.363 0.529,0.54c0.173,0.177 0.334,0.343 0.483,0.497c0.149,0.154 0.284,0.304 0.404,0.45c0.12,0.146 0.243,0.294 0.369,0.444c0.126,0.15 0.258,0.295 0.396,0.435c0.138,0.139 0.281,0.28 0.429,0.423c0.148,0.143 0.294,0.288 0.438,0.436c0.144,0.148 0.28,0.304 0.409,0.469c0.129,0.165 0.27,0.34 0.422,0.527c0.152,0.187 0.313,0.376 0.483,0.568c0.17,0.192 0.341,0.381 0.514,0.566c0.173,0.185 0.333,0.362 0.48,0.53c0.147,0.168 0.293,0.336 0.439,0.504c0.146,0.168 0.295,0.337 0.447,0.507c0.153,0.17 0.31,0.343 0.473,0.517c0.163,0.175 0.32,0.34 0.471,0.497c0.152,0.157 0.293,0.304 0.425,0.443c0.132,0.139 0.254,0.27 0.366,0.392c0.112,0.123 0.215,0.229 0.309,0.32c0.093,0.091 0.173,0.166 0.24,0.226c0.066,0.059 0.108,0.098 0.126,0.115c0.025,0.024 -0.084,0.065 -0.325,0.124" style="fill:none;fill-rule:nonzero;stroke:#000;stroke-width:0.85px;"/><path d="M128.102,32.149c-0.047,0.081 -0.101,0.103 -0.163,0.068c-0.044,-0.025 -0.054,-0.09 -0.029,-0.195c0.025,-0.105 0.12,-0.236 0.287,-0.395c0.166,-0.158 0.402,-0.377 0.708,-0.656c0.306,-0.279 0.702,-0.641 1.189,-1.085c0.487,-0.444 1.02,-0.92 1.599,-1.427c0.579,-0.507 1.153,-1.008 1.723,-1.502c0.57,-0.494 1.116,-0.982 1.638,-1.463c0.522,-0.482 1.021,-0.956 1.496,-1.424c0.476,-0.468 0.928,-0.905 1.357,-1.311c0.429,-0.406 0.834,-0.78 1.212,-1.123c0.379,-0.342 0.739,-0.676 1.08,-1.002c0.341,-0.325 0.683,-0.66 1.025,-1.005c0.342,-0.345 0.684,-0.69 1.025,-1.035c0.341,-0.346 0.659,-0.67 0.955,-0.973c0.296,-0.303 0.573,-0.61 0.832,-0.92c0.259,-0.31 0.493,-0.597 0.702,-0.861c0.209,-0.264 0.342,-0.429 0.397,-0.495l0.036,-0.046l-0.164,0.178" style="fill:none;fill-rule:nonzero;stroke:#000;stroke-width:0.85px;"/><path d="M143.465,46.743c-0.029,0.039 -0.1,0.1 -0.211,0.186c-0.069,0.052 -0.105,0.077 -0.108,0.073c-0.003,-0.004 0.039,-0.06 0.128,-0.169c0.088,-0.108 0.212,-0.242 0.371,-0.401c0.159,-0.159 0.342,-0.347 0.55,-0.563c0.207,-0.216 0.503,-0.535 0.887,-0.958c0.384,-0.422 0.816,-0.889 1.296,-1.402c0.48,-0.513 0.975,-1.012 1.486,-1.498c0.511,-0.486 1.026,-0.969 1.545,-1.449c0.519,-0.48 1.002,-0.925 1.45,-1.336c0.448,-0.411 0.868,-0.787 1.259,-1.129c0.391,-0.342 0.74,-0.634 1.046,-0.877c0.306,-0.243 0.6,-0.483 0.882,-0.72c0.282,-0.237 0.576,-0.515 0.881,-0.833c0.305,-0.318 0.616,-0.627 0.932,-0.926c0.317,-0.299 0.599,-0.546 0.847,-0.742c0.248,-0.196 0.491,-0.386 0.728,-0.572c0.237,-0.186 0.503,-0.41 0.798,-0.672c0.295,-0.262 0.589,-0.532 0.884,-0.81c0.295,-0.278 0.572,-0.535 0.83,-0.772c0.259,-0.237 0.534,-0.49 0.826,-0.76c0.292,-0.27 0.628,-0.584 1.009,-0.943c0.381,-0.359 0.773,-0.719 1.177,-1.081c0.404,-0.362 0.78,-0.681 1.127,-0.958c0.347,-0.277 0.695,-0.55 1.044,-0.82c0.349,-0.269 0.7,-0.548 1.053,-0.837c0.353,-0.289 0.69,-0.586 1.012,-0.891c0.322,-0.305 0.649,-0.612 0.981,-0.918c0.332,-0.307 0.664,-0.61 0.995,-0.909c0.331,-0.299 0.652,-0.586 0.964,-0.862c0.312,-0.276 0.615,-0.55 0.909,-0.821c0.294,-0.272 0.603,-0.552 0.925,-0.841c0.322,-0.289 0.629,-0.55 0.921,-0.78c0.292,-0.231 0.557,-0.459 0.796,-0.683c0.239,-0.225 0.486,-0.495 0.74,-0.81c0.254,-0.316 0.498,-0.602 0.731,-0.859c0.233,-0.257 0.414,-0.437 0.542,-0.54c0.128,-0.102 0.22,-0.167 0.278,-0.192c0.058,-0.026 0.117,-0.057 0.177,-0.092c0.06,-0.036 0.111,-0.072 0.151,-0.109l0.03,-0.028l-0.09,0.084" style="fill:none;fill-rule:nonzero;stroke:#000;stroke-width:0.85px;"/><path d="M208.501,16.319c-0.094,0.028 -0.188,0.059 -0.282,0.093c-0.094,0.034 -0.162,0.055 -0.202,0.063c-0.04,0.008 -0.066,0.016 -0.079,0.026c-0.013,0.009 -0.021,0.028 -0.024,0.057c-0.003,0.028 0.009,0.072 0.036,0.132c0.027,0.059 0.108,0.135 0.243,0.226c0.135,0.091 0.302,0.199 0.502,0.324c0.2,0.125 0.414,0.271 0.645,0.437c0.23,0.166 0.464,0.348 0.702,0.547c0.238,0.198 0.476,0.4 0.714,0.604c0.238,0.204 0.481,0.408 0.729,0.612c0.248,0.204 0.489,0.408 0.723,0.612c0.234,0.204 0.461,0.409 0.68,0.616c0.219,0.206 0.435,0.424 0.647,0.654c0.212,0.23 0.428,0.475 0.648,0.737c0.22,0.261 0.455,0.52 0.704,0.776c0.249,0.256 0.497,0.501 0.744,0.734c0.246,0.233 0.478,0.483 0.695,0.749c0.217,0.266 0.435,0.552 0.653,0.86c0.218,0.308 0.445,0.599 0.682,0.874c0.236,0.275 0.512,0.57 0.825,0.885c0.314,0.315 0.582,0.601 0.806,0.859c0.224,0.258 0.434,0.525 0.631,0.801c0.197,0.276 0.406,0.544 0.626,0.803c0.22,0.259 0.451,0.492 0.694,0.701c0.243,0.209 0.473,0.392 0.69,0.549c0.218,0.157 0.417,0.319 0.598,0.486c0.181,0.167 0.356,0.338 0.523,0.513c0.167,0.174 0.348,0.355 0.542,0.542c0.194,0.187 0.39,0.373 0.589,0.558c0.199,0.185 0.396,0.372 0.591,0.561c0.195,0.189 0.385,0.391 0.57,0.606c0.185,0.215 0.378,0.441 0.579,0.676c0.201,0.235 0.414,0.47 0.639,0.703c0.225,0.234 0.459,0.458 0.702,0.673c0.243,0.215 0.483,0.418 0.722,0.611c0.239,0.193 0.458,0.385 0.656,0.577c0.198,0.192 0.391,0.391 0.578,0.597c0.187,0.206 0.392,0.417 0.617,0.633c0.224,0.216 0.458,0.42 0.701,0.61c0.243,0.191 0.471,0.374 0.684,0.549c0.213,0.176 0.409,0.344 0.587,0.504c0.179,0.161 0.349,0.328 0.512,0.502c0.163,0.174 0.342,0.356 0.537,0.545c0.195,0.189 0.408,0.382 0.638,0.579c0.23,0.197 0.457,0.385 0.681,0.563c0.224,0.178 0.44,0.364 0.647,0.557c0.207,0.193 0.416,0.4 0.627,0.62c0.211,0.22 0.44,0.455 0.686,0.704c0.246,0.249 0.507,0.496 0.781,0.74c0.274,0.244 0.552,0.476 0.834,0.695c0.282,0.22 0.556,0.435 0.821,0.647c0.266,0.211 0.523,0.429 0.771,0.651c0.249,0.223 0.491,0.454 0.727,0.695c0.236,0.24 0.475,0.468 0.717,0.683c0.242,0.215 0.489,0.419 0.74,0.612c0.251,0.193 0.483,0.394 0.696,0.604c0.213,0.21 0.413,0.43 0.601,0.657c0.187,0.228 0.398,0.462 0.631,0.702c0.233,0.24 0.504,0.464 0.813,0.67c0.309,0.206 0.605,0.392 0.89,0.558c0.284,0.166 0.532,0.347 0.743,0.542c0.211,0.195 0.421,0.409 0.629,0.641c0.208,0.232 0.438,0.471 0.689,0.716c0.251,0.245 0.511,0.473 0.778,0.684c0.267,0.211 0.514,0.417 0.74,0.618c0.226,0.201 0.436,0.419 0.631,0.654c0.195,0.234 0.404,0.487 0.629,0.758c0.224,0.271 0.477,0.547 0.757,0.83c0.281,0.282 0.546,0.548 0.796,0.797c0.25,0.249 0.472,0.485 0.665,0.707c0.194,0.222 0.39,0.443 0.588,0.661c0.198,0.218 0.405,0.446 0.619,0.684c0.214,0.238 0.404,0.462 0.569,0.673c0.165,0.211 0.318,0.406 0.459,0.587c0.141,0.18 0.297,0.363 0.468,0.547c0.171,0.184 0.351,0.38 0.541,0.585c0.189,0.206 0.365,0.412 0.527,0.619c0.162,0.207 0.309,0.392 0.441,0.554c0.132,0.162 0.264,0.315 0.394,0.459c0.131,0.143 0.262,0.274 0.394,0.393c0.132,0.118 0.254,0.21 0.366,0.275c0.153,0.089 0.115,0.048 -0.116,-0.123" style="fill:none;fill-rule:nonzero;stroke:#000;stroke-width:0.85px;"/><path d="M224.493,32.404c0.054,-0.012 0.129,-0.005 0.224,0.023c0.062,0.018 0.094,0.03 0.097,0.038c0.003,0.008 -0.01,0.005 -0.039,-0.008c-0.029,-0.013 0.082,-0.174 0.334,-0.482c0.252,-0.308 0.654,-0.745 1.205,-1.311c0.551,-0.566 1.139,-1.168 1.762,-1.807c0.623,-0.638 1.21,-1.207 1.759,-1.706c0.55,-0.499 1.07,-0.942 1.56,-1.329c0.491,-0.387 0.943,-0.747 1.357,-1.079c0.414,-0.332 0.781,-0.648 1.1,-0.948c0.319,-0.3 0.612,-0.606 0.878,-0.918c0.266,-0.313 0.544,-0.626 0.834,-0.94c0.29,-0.314 0.58,-0.621 0.871,-0.92c0.291,-0.3 0.541,-0.587 0.75,-0.862c0.209,-0.275 0.409,-0.538 0.598,-0.787c0.189,-0.249 0.388,-0.474 0.597,-0.676c0.209,-0.201 0.402,-0.378 0.581,-0.53c0.179,-0.152 0.344,-0.307 0.496,-0.464c0.152,-0.157 0.277,-0.3 0.377,-0.429c0.1,-0.129 0.159,-0.209 0.179,-0.241c0.027,-0.045 -0.064,-0.036 -0.274,0.026" style="fill:none;fill-rule:nonzero;stroke:#000;stroke-width:0.85px;"/><path d="M271.959,16.275c-0.101,0.095 -0.209,0.2 -0.325,0.314c-0.116,0.114 -0.296,0.309 -0.54,0.585c-0.243,0.276 -0.525,0.591 -0.844,0.944c-0.319,0.353 -0.652,0.727 -0.999,1.122c-0.347,0.395 -0.688,0.779 -1.022,1.153c-0.334,0.374 -0.637,0.707 -0.909,0.999c-0.272,0.292 -0.547,0.579 -0.825,0.859c-0.278,0.281 -0.58,0.578 -0.908,0.891c-0.327,0.313 -0.627,0.602 -0.9,0.867c-0.273,0.265 -0.512,0.498 -0.718,0.699c-0.206,0.201 -0.419,0.411 -0.638,0.631c-0.22,0.22 -0.464,0.475 -0.732,0.767c-0.268,0.291 -0.535,0.584 -0.801,0.877c-0.266,0.293 -0.517,0.548 -0.754,0.765c-0.237,0.217 -0.469,0.415 -0.698,0.595c-0.228,0.18 -0.475,0.392 -0.74,0.637c-0.265,0.244 -0.561,0.537 -0.888,0.877c-0.326,0.34 -0.645,0.671 -0.955,0.994c-0.31,0.323 -0.6,0.608 -0.868,0.853c-0.269,0.246 -0.516,0.468 -0.741,0.665c-0.225,0.198 -0.448,0.413 -0.669,0.646c-0.22,0.233 -0.456,0.508 -0.705,0.824c-0.249,0.316 -0.501,0.634 -0.754,0.953c-0.253,0.319 -0.501,0.607 -0.744,0.861c-0.243,0.255 -0.482,0.496 -0.716,0.722c-0.234,0.227 -0.457,0.458 -0.669,0.693c-0.212,0.235 -0.426,0.47 -0.642,0.703c-0.216,0.233 -0.432,0.458 -0.649,0.673c-0.217,0.215 -0.426,0.404 -0.629,0.566c-0.202,0.162 -0.392,0.308 -0.567,0.438c-0.176,0.13 -0.357,0.266 -0.543,0.408c-0.186,0.142 -0.385,0.303 -0.595,0.481c-0.211,0.178 -0.429,0.376 -0.655,0.594c-0.226,0.218 -0.459,0.442 -0.698,0.672c-0.24,0.231 -0.487,0.464 -0.742,0.699c-0.255,0.235 -0.502,0.47 -0.741,0.704c-0.239,0.234 -0.466,0.451 -0.681,0.652c-0.214,0.201 -0.414,0.389 -0.597,0.564c-0.184,0.175 -0.352,0.341 -0.503,0.498c-0.152,0.157 -0.291,0.295 -0.418,0.415c-0.127,0.12 -0.256,0.245 -0.387,0.376c-0.131,0.13 -0.264,0.264 -0.401,0.4c-0.136,0.136 -0.269,0.272 -0.398,0.408c-0.129,0.136 -0.25,0.273 -0.363,0.412c-0.113,0.139 -0.204,0.251 -0.274,0.336c-0.069,0.085 -0.129,0.153 -0.178,0.205c-0.049,0.052 -0.089,0.093 -0.119,0.123c-0.03,0.03 -0.049,0.049 -0.057,0.057c-0.011,0.011 -0.01,-0.004 0.002,-0.047" style="fill:none;fill-rule:nonzero;stroke:#000;stroke-width:0.85px;"/><path d="M9.445,9.713c-0.028,0.089 -0.048,0.18 -0.058,0.275c-0.011,0.094 0.047,0.165 0.174,0.212c0.127,0.047 0.35,0.076 0.669,0.087c0.319,0.011 0.709,0.001 1.169,-0.032c0.461,-0.032 0.896,-0.07 1.306,-0.115c0.41,-0.044 0.728,-0.079 0.955,-0.104c0.226,-0.025 0.368,-0.055 0.423,-0.091c0.056,-0.036 0.081,-0.066 0.075,-0.091c-0.006,-0.025 -0.041,-0.041 -0.107,-0.046c-0.066,-0.005 -0.163,0.002 -0.292,0.022c-0.129,0.02 -0.287,0.085 -0.475,0.193c-0.188,0.109 -0.386,0.246 -0.595,0.412c-0.209,0.166 -0.428,0.364 -0.657,0.594c-0.229,0.23 -0.456,0.495 -0.679,0.795c-0.223,0.3 -0.389,0.581 -0.499,0.844c-0.109,0.263 -0.135,0.468 -0.077,0.616c0.058,0.148 0.24,0.242 0.546,0.282c0.306,0.04 0.643,0.059 1.012,0.057c0.558,-0.002 1.065,-0.047 1.521,-0.134" style="fill:none;fill-rule:nonzero;stroke:#000;stroke-width:0.85px;"/><path d="M45.035,9.691c-0.054,0.051 -0.121,0.111 -0.199,0.178c-0.078,0.068 -0.122,0.112 -0.131,0.132c-0.009,0.021 0.038,0.033 0.142,0.035c0.104,0.003 0.275,0.004 0.514,0.004l1.728,0c0.322,0 0.657,-0.004 1.004,-0.013c0.347,-0.009 0.672,-0.046 0.974,-0.112c0.302,-0.066 0.524,-0.13 0.664,-0.191c0.14,-0.062 0.221,-0.103 0.24,-0.124c0.02,-0.021 0.016,-0.033 -0.011,-0.036c-0.028,-0.003 -0.064,-0.004 -0.11,-0.004c-0.046,0 -0.098,0.001 -0.156,0.003c-0.058,0.002 -0.14,0.024 -0.247,0.066c-0.107,0.042 -0.24,0.11 -0.399,0.206c-0.159,0.096 -0.336,0.207 -0.532,0.335c-0.196,0.128 -0.399,0.27 -0.61,0.427c-0.211,0.157 -0.406,0.319 -0.586,0.487c-0.179,0.168 -0.321,0.319 -0.423,0.454c-0.103,0.135 -0.169,0.258 -0.198,0.367c-0.029,0.11 -0.044,0.219 -0.044,0.326c-0,0.107 0.006,0.211 0.02,0.311c0.014,0.1 0.042,0.193 0.085,0.278c0.043,0.086 0.095,0.162 0.154,0.228c0.06,0.066 0.136,0.124 0.23,0.173c0.093,0.049 0.201,0.09 0.322,0.122c0.121,0.032 0.253,0.059 0.395,0.082c0.142,0.022 0.311,0.036 0.505,0.042c0.281,0.008 0.775,-0.022 1.483,-0.09" style="fill:none;fill-rule:nonzero;stroke:#000;stroke-width:0.85px;"/><path d="M78.225,9.046c-0.036,0.023 -0.067,0.095 -0.092,0.214c-0.016,0.076 0.016,0.132 0.096,0.168c0.08,0.036 0.237,0.064 0.47,0.082c0.233,0.018 0.53,0.027 0.889,0.028c0.36,0 0.745,-0.001 1.157,-0.003c0.411,-0.002 0.754,-0.013 1.028,-0.032c0.273,-0.019 0.472,-0.032 0.596,-0.04c0.124,-0.008 0.203,-0.012 0.237,-0.012c0.034,0 0.051,-0 0.052,-0c0.001,0 -0.029,0.008 -0.088,0.024c-0.059,0.016 -0.176,0.063 -0.35,0.141c-0.174,0.078 -0.38,0.177 -0.619,0.297c-0.239,0.12 -0.488,0.256 -0.748,0.408c-0.26,0.152 -0.497,0.308 -0.711,0.469c-0.214,0.16 -0.374,0.321 -0.48,0.481c-0.106,0.16 -0.172,0.314 -0.199,0.461c-0.027,0.147 -0.04,0.285 -0.041,0.414c-0,0.129 0.021,0.254 0.065,0.373c0.044,0.119 0.11,0.226 0.199,0.32c0.089,0.094 0.191,0.174 0.307,0.24c0.115,0.066 0.259,0.119 0.432,0.156c0.172,0.038 0.415,0.055 0.727,0.052c0.312,-0.003 0.681,-0.051 1.107,-0.142c0.426,-0.091 0.761,-0.164 1.005,-0.217l0.183,-0.04l-0.549,0.12" style="fill:none;fill-rule:nonzero;stroke:#000;stroke-width:0.85px;"/><path d="M33.978,43.161c-0.016,0.094 0.008,0.152 0.07,0.173c0.044,0.015 0.13,-0.064 0.257,-0.236c0.128,-0.172 0.275,-0.384 0.442,-0.634c0.167,-0.25 0.326,-0.502 0.478,-0.756c0.152,-0.254 0.273,-0.461 0.363,-0.621c0.09,-0.16 0.145,-0.259 0.164,-0.297c0.019,-0.038 0.029,-0.046 0.029,-0.023c0,0.022 0,0.078 0,0.168c0,0.089 -0.005,0.267 -0.014,0.533c-0.009,0.266 -0.022,0.586 -0.039,0.961c-0.017,0.375 -0.044,0.817 -0.082,1.328c-0.038,0.511 -0.077,0.987 -0.116,1.428c-0.039,0.441 -0.062,0.754 -0.068,0.939c-0.006,0.185 0.005,0.288 0.032,0.308c0.038,0.029 0.1,-0.19 0.185,-0.659" style="fill:none;fill-rule:nonzero;stroke:#000;stroke-width:0.85px;"/><path d="M33.879,46.943c0.128,0.077 0.284,0.125 0.468,0.146c0.184,0.021 0.401,-0.013 0.651,-0.102c0.25,-0.089 0.508,-0.17 0.773,-0.243c0.414,-0.114 0.724,-0.147 0.929,-0.098" style="fill:none;fill-rule:nonzero;stroke:#000;stroke-width:0.85px;"/><path d="M68.265,62.561c0.096,-0.017 0.226,-0.002 0.39,0.046c0.164,0.048 0.387,0.078 0.668,0.09c0.281,0.011 0.601,0.015 0.958,0.01c0.357,-0.004 0.654,-0.02 0.891,-0.046c0.237,-0.026 0.406,-0.053 0.507,-0.08c0.101,-0.027 0.163,-0.051 0.185,-0.073c0.022,-0.022 0.032,-0.04 0.03,-0.056c-0.002,-0.015 -0.036,-0.017 -0.103,-0.007c-0.067,0.011 -0.18,0.079 -0.34,0.206c-0.16,0.126 -0.348,0.298 -0.565,0.514c-0.217,0.216 -0.451,0.456 -0.703,0.719c-0.252,0.264 -0.477,0.528 -0.675,0.794c-0.198,0.266 -0.326,0.483 -0.385,0.65c-0.059,0.167 -0.06,0.286 -0.004,0.357c0.056,0.071 0.185,0.132 0.387,0.183c0.202,0.051 0.444,0.098 0.726,0.139c0.282,0.042 0.574,0.068 0.875,0.079c0.301,0.011 0.586,0.005 0.855,-0.017c0.269,-0.022 0.482,-0.074 0.638,-0.156c0.224,-0.117 0.321,-0.396 0.293,-0.836" style="fill:none;fill-rule:nonzero;stroke:#000;stroke-width:0.85px;"/><path d="M108.952,8.664c-0.058,0.032 -0.118,0.069 -0.18,0.11c-0.041,0.027 -0.022,0.041 0.057,0.042c0.079,0 0.251,0 0.515,0c0.264,0 0.552,-0.011 0.865,-0.034c0.312,-0.023 0.665,-0.07 1.056,-0.141c0.392,-0.072 0.748,-0.135 1.069,-0.19c0.321,-0.055 0.573,-0.089 0.758,-0.102c0.184,-0.013 0.333,-0.027 0.447,-0.041c0.114,-0.014 0.196,-0.032 0.248,-0.054c0.051,-0.022 0.079,-0.036 0.082,-0.041c0.003,-0.005 -0.011,-0.008 -0.042,-0.008c-0.031,0 -0.116,0.03 -0.254,0.089c-0.138,0.059 -0.302,0.174 -0.492,0.343c-0.19,0.169 -0.389,0.363 -0.595,0.58c-0.206,0.218 -0.415,0.445 -0.627,0.683c-0.212,0.238 -0.392,0.463 -0.541,0.676c-0.149,0.213 -0.249,0.403 -0.298,0.57c-0.05,0.167 -0.055,0.303 -0.015,0.407c0.04,0.105 0.16,0.181 0.361,0.229c0.201,0.048 0.424,0.076 0.67,0.085c0.245,0.008 0.488,0.013 0.729,0.013c0.241,0 0.485,-0.017 0.732,-0.052c0.247,-0.034 0.522,-0.087 0.825,-0.158c0.303,-0.071 0.455,-0.177 0.457,-0.319" style="fill:none;fill-rule:nonzero;stroke:#000;stroke-width:0.85px;"/><path d="M142.179,8.225l-0.263,0l-0.133,-0l0.243,0c0.162,0 0.447,-0.001 0.857,-0.003c0.41,-0.002 0.883,-0.022 1.42,-0.059c0.537,-0.037 1.046,-0.079 1.526,-0.126c0.481,-0.046 0.862,-0.087 1.143,-0.121c0.281,-0.035 0.449,-0.057 0.504,-0.068c0.055,-0.011 0.075,-0.016 0.06,-0.016l-0.112,0c-0.06,-0 -0.188,0.035 -0.384,0.106c-0.196,0.071 -0.419,0.194 -0.668,0.368c-0.249,0.174 -0.502,0.382 -0.76,0.624c-0.258,0.241 -0.506,0.481 -0.745,0.72c-0.239,0.239 -0.442,0.47 -0.609,0.695c-0.167,0.224 -0.267,0.419 -0.3,0.585c-0.033,0.166 -0.011,0.298 0.066,0.397c0.077,0.099 0.22,0.177 0.427,0.232c0.208,0.055 0.46,0.086 0.758,0.092c0.298,0.006 0.634,-0.022 1.009,-0.084c0.375,-0.062 0.682,-0.123 0.921,-0.182l0.179,-0.045l-0.538,0.134" style="fill:none;fill-rule:nonzero;stroke:#000;stroke-width:0.85px;"/><path d="M174.181,8.313c-0.072,0.02 -0.165,0.051 -0.278,0.093c-0.113,0.042 -0.214,0.079 -0.303,0.111c-0.089,0.032 -0.147,0.06 -0.177,0.085c-0.029,0.025 0.042,0.041 0.213,0.049c0.172,0.008 0.477,0.012 0.916,0.012l1.497,0c0.558,0 1.091,-0.014 1.599,-0.041c0.508,-0.028 0.909,-0.067 1.202,-0.117c0.294,-0.051 0.471,-0.09 0.531,-0.118c0.06,-0.028 0.051,-0.038 -0.028,-0.03c-0.079,0.008 -0.243,0.074 -0.49,0.198c-0.248,0.124 -0.528,0.29 -0.839,0.499c-0.312,0.209 -0.632,0.438 -0.96,0.688c-0.328,0.249 -0.623,0.5 -0.884,0.751c-0.261,0.251 -0.452,0.472 -0.572,0.664c-0.12,0.192 -0.183,0.355 -0.189,0.488c-0.006,0.134 0.055,0.238 0.183,0.312c0.128,0.074 0.299,0.143 0.514,0.207c0.214,0.063 0.45,0.112 0.706,0.145c0.256,0.033 0.556,0.034 0.899,0.004c0.498,-0.045 1.186,-0.305 2.063,-0.782" style="fill:none;fill-rule:nonzero;stroke:#000;stroke-width:0.85px;"/><path d="M128.324,40.93c-0.012,-0.041 -0.058,-0.094 -0.136,-0.159c-0.049,-0.041 -0.044,-0.062 0.016,-0.062c0.06,-0 0.255,-0 0.586,-0c0.331,0 0.687,0.006 1.069,0.017c0.382,0.012 0.732,0.021 1.05,0.029c0.318,0.008 0.556,0.013 0.715,0.015c0.159,0.003 0.261,0.004 0.305,0.004l0.072,0c0.003,0 0.003,0 -0.001,0l-0.124,0c-0.046,0 -0.11,0.022 -0.193,0.065c-0.083,0.044 -0.183,0.112 -0.299,0.205c-0.116,0.093 -0.246,0.212 -0.391,0.356c-0.145,0.144 -0.297,0.319 -0.457,0.525c-0.16,0.206 -0.304,0.433 -0.433,0.68c-0.128,0.247 -0.215,0.483 -0.26,0.709c-0.045,0.225 -0.055,0.415 -0.031,0.568c0.024,0.154 0.092,0.276 0.203,0.368c0.111,0.092 0.251,0.16 0.419,0.206c0.168,0.045 0.366,0.07 0.595,0.073c0.229,0.004 0.468,0.003 0.719,-0.001c0.25,-0.004 0.454,-0.018 0.609,-0.041l0.117,-0.017l-0.35,0.052" style="fill:none;fill-rule:nonzero;stroke:#000;stroke-width:0.85px;"/><path d="M164.972,63.983l-0.405,0c-0.136,0 -0.238,0.004 -0.308,0.013c-0.07,0.009 -0.106,0.038 -0.109,0.088c-0.003,0.05 0.091,0.109 0.28,0.179c0.19,0.07 0.482,0.14 0.877,0.211c0.395,0.071 0.826,0.125 1.292,0.163c0.466,0.038 0.908,0.058 1.327,0.059c0.419,0.001 0.744,-0.025 0.976,-0.078c0.232,-0.053 0.371,-0.113 0.417,-0.18c0.046,-0.067 0.031,-0.108 -0.046,-0.125c-0.077,-0.016 -0.231,0.012 -0.462,0.085c-0.231,0.073 -0.515,0.222 -0.852,0.449c-0.337,0.226 -0.688,0.495 -1.052,0.805c-0.365,0.311 -0.666,0.627 -0.904,0.95c-0.238,0.322 -0.366,0.594 -0.383,0.814c-0.018,0.22 0.078,0.4 0.286,0.538c0.208,0.139 0.455,0.249 0.741,0.331c0.286,0.082 0.58,0.136 0.883,0.163c0.303,0.026 0.608,0.029 0.915,0.006c0.307,-0.022 0.504,-0.046 0.591,-0.071c0.123,-0.036 0.187,-0.255 0.191,-0.657" style="fill:none;fill-rule:nonzero;stroke:#000;stroke-width:0.85px;"/><path d="M204.192,9.275c0.057,0 0.145,0 0.263,0c0.075,0 0.147,0.01 0.217,0.031c0.07,0.021 0.227,0.04 0.47,0.057c0.243,0.018 0.587,0.032 1.031,0.045c0.445,0.012 0.945,0.018 1.5,0.016c0.555,-0.002 1.038,-0.028 1.448,-0.079c0.41,-0.051 0.673,-0.1 0.79,-0.148c0.117,-0.048 0.142,-0.071 0.076,-0.071c-0.067,0 -0.207,0.054 -0.422,0.162c-0.215,0.107 -0.452,0.242 -0.711,0.404c-0.259,0.162 -0.518,0.334 -0.776,0.515c-0.258,0.181 -0.504,0.379 -0.739,0.591c-0.235,0.213 -0.421,0.434 -0.56,0.665c-0.139,0.231 -0.208,0.459 -0.208,0.686c-0,0.227 0.101,0.423 0.304,0.589c0.203,0.166 0.484,0.276 0.842,0.328c0.358,0.053 0.733,0.075 1.124,0.067c0.391,-0.008 0.748,-0.059 1.071,-0.153c0.323,-0.094 0.522,-0.163 0.597,-0.208c0.107,-0.064 0.118,-0.307 0.034,-0.728" style="fill:none;fill-rule:nonzero;stroke:#000;stroke-width:0.85px;"/><path d="M236.458,9.041c-0.096,0.018 -0.096,0.036 0.003,0.055c0.073,0.014 0.257,0.049 0.551,0.105c0.294,0.056 0.662,0.09 1.105,0.101c0.443,0.011 0.911,-0.009 1.405,-0.059c0.494,-0.051 0.895,-0.11 1.203,-0.179c0.308,-0.069 0.493,-0.109 0.554,-0.121c0.061,-0.012 0.041,0.012 -0.06,0.072c-0.101,0.06 -0.247,0.155 -0.44,0.287c-0.192,0.132 -0.411,0.293 -0.654,0.482c-0.244,0.189 -0.495,0.427 -0.752,0.712c-0.258,0.285 -0.496,0.619 -0.715,1c-0.219,0.381 -0.351,0.735 -0.395,1.06c-0.044,0.325 0.045,0.566 0.268,0.723c0.222,0.157 0.517,0.254 0.885,0.291c0.367,0.037 0.738,0.051 1.113,0.04c0.375,-0.011 0.711,-0.053 1.008,-0.129c0.298,-0.075 0.531,-0.151 0.699,-0.228c0.241,-0.11 0.348,-0.326 0.319,-0.649" style="fill:none;fill-rule:nonzero;stroke:#000;stroke-width:0.85px;"/><path d="M269.268,8.575c0.018,0 0.128,0 0.33,-0l0.346,0c0.122,0 0.307,0.004 0.557,0.011c0.249,0.007 0.58,0.011 0.993,0.011c0.413,0 0.827,0 1.243,0c0.416,0 0.734,-0.004 0.954,-0.013c0.22,-0.009 0.354,-0.027 0.402,-0.053c0.049,-0.027 0.062,-0.048 0.04,-0.063c-0.022,-0.015 -0.086,-0.018 -0.192,-0.01c-0.106,0.008 -0.251,0.066 -0.435,0.174c-0.184,0.108 -0.421,0.261 -0.712,0.459c-0.291,0.199 -0.593,0.42 -0.907,0.665c-0.314,0.244 -0.588,0.49 -0.824,0.736c-0.235,0.246 -0.394,0.459 -0.477,0.637c-0.083,0.178 -0.117,0.31 -0.101,0.396c0.016,0.086 0.09,0.15 0.222,0.192c0.132,0.042 0.31,0.08 0.535,0.115c0.225,0.034 0.505,0.058 0.841,0.071c0.336,0.013 0.706,0.015 1.112,0.006c0.405,-0.009 0.76,-0.048 1.065,-0.118c0.305,-0.07 0.487,-0.122 0.546,-0.156c0.084,-0.047 0.009,-0.248 -0.226,-0.602" style="fill:none;fill-rule:nonzero;stroke:#000;stroke-width:0.85px;"/><path d="M224.666,42.196c0.092,-0 0.214,-0 0.364,-0c0.151,0 0.322,0 0.513,0l1.588,0c0.343,0 0.68,-0.002 1.013,-0.007c0.333,-0.004 0.598,-0.028 0.796,-0.07c0.198,-0.042 0.322,-0.09 0.373,-0.144c0.051,-0.053 0.07,-0.098 0.057,-0.133c-0.013,-0.035 -0.06,-0.054 -0.143,-0.058c-0.083,-0.003 -0.184,-0.004 -0.304,-0.002c-0.12,0.002 -0.264,0.041 -0.433,0.118c-0.168,0.076 -0.354,0.19 -0.557,0.341c-0.203,0.151 -0.412,0.348 -0.625,0.592c-0.214,0.244 -0.397,0.522 -0.549,0.834c-0.152,0.312 -0.25,0.616 -0.295,0.912c-0.045,0.296 -0.053,0.547 -0.024,0.752c0.029,0.206 0.101,0.359 0.217,0.459c0.116,0.101 0.27,0.175 0.462,0.222c0.192,0.048 0.423,0.076 0.695,0.084c0.272,0.009 0.573,0.009 0.904,-0c0.483,-0.013 1.005,-0.249 1.565,-0.709" style="fill:none;fill-rule:nonzero;stroke:#000;stroke-width:0.85px;"/><path d="M261.197,63.042c0.073,0 0.203,-0.017 0.388,-0.051c0.185,-0.034 0.382,-0.117 0.589,-0.25c0.207,-0.133 0.407,-0.284 0.598,-0.454c0.191,-0.17 0.335,-0.308 0.432,-0.413c0.096,-0.105 0.154,-0.165 0.173,-0.178c0.019,-0.014 0.018,0.078 -0.005,0.275c-0.022,0.197 -0.079,0.485 -0.169,0.865c-0.09,0.379 -0.186,0.792 -0.286,1.238c-0.1,0.446 -0.173,0.872 -0.219,1.278c-0.046,0.406 -0.066,0.737 -0.061,0.992c0.005,0.255 0.061,0.42 0.166,0.496c0.105,0.076 0.213,0.119 0.322,0.127l0.082,0.006l-0.246,-0.019" style="fill:none;fill-rule:nonzero;stroke:#000;stroke-width:0.85px;"/><path d="M261.109,67.592c0.126,-0 0.3,-0.005 0.524,-0.016c0.224,-0.011 0.519,-0.067 0.886,-0.169c0.367,-0.101 0.762,-0.191 1.187,-0.269c0.729,-0.133 1.154,-0.241 1.275,-0.322" style="fill:none;fill-rule:nonzero;stroke:#000;stroke-width:0.85px;"/></g></svg>