<?xml version="1.0" encoding="UTF-8" standalone="no"?><!DOCTYPE svg PUBLIC "-//W3C//DTD SVG 1.1//EN" "http://www.w3.org/Graphics/SVG/1.1/DTD/svg11.dtd"><svg width="100%" height="100%" viewBox="0 0 134 60" version="1.1" xmlns="http://www.w3.org/2000/svg" xmlns:xlink="http://www.w3.org/1999/xlink" xml:space="preserve" xmlns:serif="http://www.serif.com/" style="fill-rule:evenodd;clip-rule:evenodd;stroke-linecap:round;stroke-linejoin:round;stroke-miterlimit:10;"><rect id="Artboard2" x="0" y="0" width="133.35" height="60" style="fill:none;"/><rect x="0" y="0" width="133.35" height="60" style="fill:#fff;"/><path d="M16.336,16.474c-0.065,0.005 -0.192,0.011 -0.381,0.017c-0.115,0.004 -0.183,0.006 -0.202,0.006l-0.029,0l0.02,0c0.013,0 0.072,0.042 0.175,0.127c0.103,0.084 0.258,0.256 0.466,0.515c0.207,0.259 0.461,0.585 0.762,0.98c0.301,0.395 0.644,0.807 1.03,1.237c0.386,0.43 0.793,0.829 1.219,1.197c0.426,0.368 0.871,0.711 1.334,1.03c0.463,0.319 0.913,0.649 1.35,0.991c0.437,0.342 0.838,0.693 1.203,1.055c0.365,0.362 0.709,0.717 1.033,1.065c0.324,0.349 0.659,0.671 1.006,0.967c0.347,0.296 0.68,0.586 1,0.87c0.32,0.284 0.618,0.588 0.894,0.912c0.276,0.325 0.552,0.642 0.829,0.951c0.277,0.31 0.563,0.606 0.859,0.889c0.296,0.283 0.587,0.562 0.872,0.837c0.285,0.275 0.55,0.545 0.795,0.81c0.244,0.265 0.488,0.535 0.73,0.809c0.242,0.274 0.499,0.547 0.771,0.82c0.271,0.272 0.543,0.541 0.816,0.806c0.273,0.265 0.527,0.531 0.761,0.799c0.235,0.268 0.458,0.533 0.67,0.795c0.212,0.262 0.43,0.511 0.656,0.746c0.226,0.235 0.454,0.466 0.685,0.694c0.231,0.228 0.46,0.473 0.689,0.737c0.229,0.264 0.456,0.534 0.682,0.811c0.226,0.277 0.453,0.535 0.681,0.772c0.228,0.238 0.467,0.463 0.717,0.677c0.249,0.214 0.509,0.44 0.778,0.677c0.269,0.237 0.542,0.496 0.819,0.776c0.277,0.28 0.558,0.565 0.842,0.855c0.284,0.29 0.563,0.554 0.836,0.792c0.273,0.238 0.523,0.45 0.751,0.636c0.228,0.186 0.445,0.371 0.652,0.556c0.207,0.184 0.418,0.367 0.634,0.547c0.216,0.18 0.437,0.352 0.663,0.516c0.226,0.163 0.447,0.337 0.664,0.52c0.217,0.183 0.433,0.38 0.649,0.591c0.216,0.211 0.431,0.421 0.645,0.631c0.214,0.209 0.425,0.422 0.631,0.638c0.207,0.216 0.403,0.42 0.589,0.614c0.186,0.194 0.355,0.356 0.506,0.487c0.152,0.131 0.298,0.253 0.439,0.364c0.141,0.112 0.283,0.236 0.427,0.374c0.144,0.137 0.28,0.272 0.41,0.404c0.13,0.132 0.244,0.243 0.342,0.332c0.098,0.09 0.177,0.15 0.237,0.181c0.06,0.031 0.106,0.048 0.139,0.051c0.033,0.003 0.053,0.005 0.06,0.005c0.01,0 -0.025,-0.065 -0.106,-0.196" style="fill:none;fill-rule:nonzero;stroke:#000;stroke-width:0.85px;"/><path d="M31.76,32.356c-0.004,0.09 0.002,0.182 0.017,0.276c0.01,0.063 0.038,0.083 0.085,0.061c0.047,-0.022 0.129,-0.099 0.248,-0.231c0.118,-0.132 0.295,-0.334 0.531,-0.607c0.235,-0.273 0.574,-0.662 1.015,-1.168c0.441,-0.506 0.97,-1.105 1.588,-1.799c0.618,-0.693 1.238,-1.368 1.862,-2.026c0.624,-0.657 1.192,-1.249 1.705,-1.774c0.513,-0.525 0.978,-1.006 1.396,-1.443c0.418,-0.437 0.822,-0.853 1.211,-1.249c0.39,-0.395 0.754,-0.772 1.094,-1.131c0.34,-0.359 0.665,-0.682 0.974,-0.97c0.309,-0.288 0.591,-0.527 0.844,-0.717c0.253,-0.19 0.48,-0.387 0.68,-0.591c0.2,-0.204 0.409,-0.445 0.628,-0.723c0.218,-0.278 0.41,-0.524 0.576,-0.74c0.165,-0.215 0.301,-0.379 0.408,-0.492c0.106,-0.113 0.207,-0.196 0.302,-0.248c0.095,-0.053 0.164,-0.085 0.208,-0.096l0.028,-0.008l-0.05,0.009c-0.088,0.018 -0.176,0.027 -0.265,0.028" style="fill:none;fill-rule:nonzero;stroke:#000;stroke-width:0.85px;"/><path d="M9.358,8.797c-0.1,0.061 -0.209,0.13 -0.326,0.206c-0.117,0.076 -0.2,0.137 -0.251,0.182c-0.051,0.045 -0.079,0.072 -0.085,0.08c-0.006,0.008 0.042,0.013 0.146,0.013c0.104,0 0.264,0.001 0.483,0.003c0.218,0.002 0.467,0.014 0.747,0.035c0.28,0.021 0.573,0.035 0.878,0.04c0.305,0.006 0.602,0.003 0.891,-0.008c0.289,-0.011 0.529,-0.042 0.72,-0.092c0.191,-0.05 0.32,-0.095 0.385,-0.135c0.065,-0.04 0.1,-0.066 0.103,-0.079c0.003,-0.013 -0.002,-0.021 -0.015,-0.024c-0.014,-0.003 -0.04,-0.004 -0.078,-0.004l-0.133,0c-0.05,0 -0.122,0.008 -0.215,0.024c-0.093,0.016 -0.207,0.066 -0.342,0.151c-0.135,0.085 -0.285,0.199 -0.452,0.343c-0.167,0.144 -0.335,0.321 -0.505,0.533c-0.17,0.211 -0.321,0.443 -0.452,0.695c-0.131,0.252 -0.22,0.484 -0.267,0.695c-0.047,0.212 -0.063,0.388 -0.048,0.529c0.015,0.141 0.079,0.259 0.192,0.355c0.113,0.096 0.275,0.172 0.488,0.227c0.212,0.056 0.468,0.081 0.767,0.076c0.299,-0.005 0.604,-0.064 0.916,-0.177c0.312,-0.113 0.55,-0.208 0.714,-0.285l0.123,-0.058l-0.368,0.173" style="fill:none;fill-rule:nonzero;stroke:#000;stroke-width:0.85px;"/><path d="M44.335,9.434c-0.057,0.012 -0.16,0.04 -0.31,0.086c-0.092,0.028 -0.135,0.042 -0.128,0.043c0.007,0 0.095,0 0.262,0l2.57,0c0.338,0 0.639,-0.017 0.903,-0.052c0.264,-0.034 0.457,-0.08 0.579,-0.136c0.122,-0.056 0.192,-0.094 0.209,-0.112c0.017,-0.018 0.019,-0.028 0.006,-0.028c-0.013,-0 -0.08,0.025 -0.199,0.075c-0.119,0.05 -0.281,0.142 -0.485,0.276c-0.204,0.134 -0.42,0.294 -0.649,0.482c-0.229,0.188 -0.439,0.386 -0.63,0.595c-0.191,0.209 -0.346,0.403 -0.463,0.582c-0.117,0.179 -0.194,0.335 -0.231,0.468c-0.037,0.133 -0.054,0.256 -0.053,0.368c0.002,0.112 0.037,0.225 0.106,0.339c0.069,0.114 0.175,0.214 0.316,0.301c0.142,0.087 0.303,0.147 0.484,0.181c0.181,0.033 0.383,0.045 0.608,0.034c0.224,-0.011 0.459,-0.056 0.704,-0.136c0.374,-0.122 0.696,-0.247 0.965,-0.375" style="fill:none;fill-rule:nonzero;stroke:#000;stroke-width:0.85px;"/><path d="M54.463,49.44c0.012,-0.025 0.057,-0.117 0.136,-0.277c0.079,-0.16 0.165,-0.335 0.259,-0.524c0.094,-0.19 0.177,-0.371 0.249,-0.543c0.072,-0.172 0.128,-0.3 0.168,-0.384c0.04,-0.084 0.069,-0.114 0.086,-0.089c0.018,0.024 0.034,0.167 0.048,0.427c0.015,0.26 0.025,0.602 0.03,1.026c0.005,0.424 0.008,0.85 0.008,1.28c0,0.429 0,0.799 0,1.108l0,0.688c0,0.15 0.008,0.242 0.024,0.276c0.016,0.035 0.04,0.052 0.074,0.053c0.034,0 0.032,-0.008 -0.003,-0.024c-0.051,-0.024 -0.075,-0.097 -0.072,-0.221" style="fill:none;fill-rule:nonzero;stroke:#000;stroke-width:0.85px;"/><path d="M53.588,52.48c0.082,0.052 0.176,0.099 0.281,0.143c0.105,0.044 0.255,0.071 0.45,0.082c0.195,0.011 0.465,0.016 0.812,0.016c0.347,0 0.727,-0.007 1.14,-0.021l0.31,-0.01l-0.929,0.031" style="fill:none;fill-rule:nonzero;stroke:#000;stroke-width:0.85px;"/><path d="M80.078,17.657c-0.017,-0.096 -0.052,-0.22 -0.105,-0.371c-0.053,-0.152 -0.108,-0.27 -0.166,-0.355c-0.058,-0.085 -0.109,-0.142 -0.154,-0.171c-0.045,-0.029 -0.072,-0.044 -0.083,-0.044c-0.011,-0 0.012,0.045 0.068,0.137c0.057,0.092 0.195,0.235 0.416,0.429c0.221,0.194 0.487,0.424 0.8,0.688c0.313,0.265 0.659,0.576 1.039,0.935c0.379,0.358 0.795,0.74 1.246,1.146c0.452,0.405 0.907,0.786 1.366,1.141c0.459,0.355 0.841,0.68 1.146,0.976c0.305,0.296 0.586,0.588 0.843,0.877c0.257,0.289 0.545,0.582 0.864,0.878c0.319,0.296 0.628,0.586 0.926,0.869c0.299,0.283 0.549,0.538 0.752,0.763c0.203,0.226 0.387,0.447 0.553,0.666c0.166,0.218 0.346,0.442 0.541,0.67c0.195,0.228 0.409,0.45 0.641,0.665c0.232,0.215 0.46,0.419 0.682,0.614c0.222,0.195 0.426,0.396 0.612,0.604c0.186,0.208 0.368,0.424 0.548,0.648c0.18,0.224 0.369,0.438 0.568,0.643c0.198,0.205 0.407,0.404 0.625,0.596c0.218,0.192 0.439,0.377 0.663,0.555c0.224,0.178 0.438,0.358 0.643,0.54c0.205,0.182 0.401,0.373 0.589,0.574c0.187,0.201 0.378,0.403 0.572,0.605c0.194,0.202 0.389,0.399 0.583,0.591c0.195,0.192 0.38,0.381 0.556,0.566c0.176,0.185 0.356,0.378 0.539,0.579c0.184,0.201 0.383,0.399 0.599,0.594c0.215,0.195 0.427,0.385 0.634,0.57c0.207,0.185 0.396,0.368 0.565,0.548c0.169,0.18 0.337,0.358 0.505,0.533c0.167,0.175 0.332,0.35 0.492,0.525c0.161,0.175 0.325,0.344 0.492,0.508c0.167,0.163 0.345,0.328 0.534,0.493c0.189,0.165 0.389,0.336 0.6,0.513c0.211,0.177 0.412,0.366 0.602,0.566c0.191,0.201 0.382,0.416 0.573,0.646c0.192,0.23 0.395,0.457 0.61,0.681c0.215,0.224 0.439,0.449 0.672,0.675c0.233,0.226 0.472,0.447 0.717,0.664c0.245,0.217 0.48,0.43 0.705,0.639c0.225,0.209 0.43,0.418 0.616,0.627c0.186,0.209 0.371,0.418 0.555,0.627c0.184,0.209 0.375,0.403 0.572,0.582c0.197,0.179 0.386,0.343 0.566,0.492c0.18,0.149 0.351,0.299 0.512,0.45c0.161,0.151 0.32,0.295 0.475,0.434c0.155,0.139 0.31,0.282 0.463,0.43c0.153,0.148 0.301,0.294 0.443,0.437c0.142,0.144 0.274,0.285 0.396,0.424c0.122,0.139 0.241,0.276 0.358,0.412c0.117,0.136 0.241,0.266 0.374,0.388c0.133,0.122 0.275,0.238 0.428,0.348c0.153,0.11 0.305,0.212 0.456,0.308c0.151,0.096 0.289,0.18 0.414,0.254c0.125,0.074 0.238,0.139 0.339,0.195c0.101,0.056 0.191,0.109 0.272,0.158c0.081,0.049 0.131,0.082 0.152,0.101c0.02,0.019 -0.004,0.01 -0.072,-0.027c-0.099,-0.053 -0.326,-0.143 -0.681,-0.27" style="fill:none;fill-rule:nonzero;stroke:#000;stroke-width:0.85px;"/><path d="M95.477,32.181c-0.008,0.072 -0.03,0.154 -0.066,0.247c-0.036,0.093 -0.068,0.167 -0.095,0.224c-0.027,0.056 -0.044,0.098 -0.049,0.123c-0.006,0.026 -0.002,0.036 0.012,0.03c0.013,-0.006 0.072,-0.068 0.177,-0.186c0.105,-0.118 0.253,-0.291 0.446,-0.52c0.192,-0.229 0.457,-0.529 0.795,-0.901c0.338,-0.372 0.761,-0.825 1.269,-1.361c0.508,-0.536 1.006,-1.041 1.492,-1.518c0.487,-0.476 0.929,-0.883 1.328,-1.22c0.398,-0.337 0.793,-0.642 1.185,-0.913c0.391,-0.272 0.762,-0.534 1.111,-0.786c0.349,-0.253 0.684,-0.521 1.003,-0.804c0.319,-0.283 0.639,-0.576 0.959,-0.88c0.32,-0.303 0.65,-0.595 0.99,-0.877c0.34,-0.281 0.652,-0.532 0.934,-0.753c0.283,-0.221 0.545,-0.429 0.788,-0.627c0.243,-0.197 0.496,-0.399 0.758,-0.605c0.262,-0.207 0.508,-0.416 0.738,-0.63c0.23,-0.213 0.453,-0.436 0.669,-0.669c0.216,-0.233 0.418,-0.454 0.605,-0.665c0.187,-0.211 0.358,-0.399 0.514,-0.566c0.156,-0.167 0.306,-0.313 0.45,-0.439c0.145,-0.126 0.248,-0.212 0.31,-0.259l0.062,-0.05l-0.015,0.008c-0.044,0.027 -0.183,0.113 -0.415,0.257" style="fill:none;fill-rule:nonzero;stroke:#000;stroke-width:0.85px;"/><path d="M74.543,10.241c0.044,0.065 0.117,0.13 0.22,0.193c0.103,0.063 0.246,0.102 0.428,0.115c0.183,0.013 0.44,0.01 0.772,-0.01c0.332,-0.02 0.674,-0.077 1.023,-0.17c0.35,-0.093 0.628,-0.178 0.836,-0.254c0.207,-0.076 0.36,-0.143 0.459,-0.2c0.099,-0.057 0.16,-0.093 0.184,-0.11c0.024,-0.016 0.036,-0.024 0.036,-0.024c0,-0 -0.004,-0 -0.013,-0c-0.009,0 -0.045,0.011 -0.108,0.034c-0.063,0.023 -0.162,0.07 -0.296,0.141c-0.134,0.071 -0.278,0.161 -0.43,0.269c-0.153,0.108 -0.3,0.223 -0.441,0.344c-0.141,0.121 -0.274,0.253 -0.396,0.395c-0.123,0.142 -0.227,0.292 -0.314,0.45c-0.087,0.158 -0.147,0.316 -0.18,0.474c-0.033,0.158 -0.051,0.314 -0.051,0.467c-0.001,0.153 0.013,0.296 0.04,0.429c0.027,0.133 0.078,0.236 0.152,0.312c0.074,0.075 0.193,0.125 0.356,0.148c0.163,0.024 0.376,0.033 0.638,0.029c0.262,-0.004 0.554,-0.038 0.876,-0.101c0.496,-0.097 0.91,-0.168 1.243,-0.213" style="fill:none;fill-rule:nonzero;stroke:#000;stroke-width:0.85px;"/><path d="M109.17,9.826c0.037,0.083 0.126,0.147 0.268,0.192c0.142,0.045 0.32,0.075 0.534,0.09c0.214,0.015 0.492,0.023 0.832,0.023c0.341,0 0.722,-0.026 1.142,-0.079c0.421,-0.053 0.82,-0.131 1.198,-0.235c0.378,-0.104 0.683,-0.199 0.915,-0.285c0.232,-0.087 0.385,-0.145 0.458,-0.177c0.073,-0.031 0.112,-0.048 0.115,-0.051c0.004,-0.003 0.006,-0.005 0.006,-0.005l0.062,0c0.003,0 0.003,0 0.001,0c-0.002,0 -0.044,0.012 -0.125,0.035c-0.081,0.023 -0.204,0.065 -0.369,0.127c-0.165,0.062 -0.36,0.154 -0.584,0.278c-0.224,0.124 -0.455,0.278 -0.694,0.464c-0.239,0.185 -0.438,0.38 -0.597,0.584c-0.159,0.204 -0.272,0.392 -0.338,0.564c-0.066,0.172 -0.11,0.328 -0.133,0.467c-0.023,0.139 -0.036,0.27 -0.039,0.392c-0.003,0.122 -0.005,0.232 -0.005,0.33c0,0.098 0.018,0.185 0.055,0.262c0.037,0.076 0.101,0.138 0.195,0.185c0.093,0.047 0.217,0.092 0.373,0.136c0.155,0.044 0.341,0.084 0.558,0.121c0.217,0.037 0.444,0.063 0.682,0.079c0.351,0.023 0.775,-0.007 1.273,-0.088" style="fill:none;fill-rule:nonzero;stroke:#000;stroke-width:0.85px;"/><path d="M117.329,47.231c0.02,-0.075 0.057,-0.161 0.111,-0.257c0.054,-0.096 0.103,-0.157 0.15,-0.183c0.046,-0.027 0.115,-0.03 0.208,-0.01c0.092,0.02 0.236,0.08 0.431,0.18c0.195,0.1 0.452,0.176 0.771,0.227c0.319,0.051 0.675,0.07 1.07,0.055c0.395,-0.015 0.76,-0.067 1.094,-0.157c0.334,-0.09 0.591,-0.17 0.77,-0.24c0.179,-0.069 0.287,-0.117 0.325,-0.143c0.038,-0.026 0.055,-0.039 0.051,-0.04c-0.004,-0 -0.034,-0 -0.09,-0l-0.207,0c-0.082,0 -0.163,0.002 -0.244,0.007c-0.08,0.004 -0.168,0.028 -0.262,0.07c-0.094,0.042 -0.196,0.094 -0.305,0.154c-0.109,0.06 -0.225,0.13 -0.348,0.209c-0.123,0.079 -0.256,0.174 -0.399,0.285c-0.143,0.11 -0.293,0.248 -0.451,0.414c-0.158,0.166 -0.296,0.356 -0.415,0.571c-0.119,0.215 -0.206,0.424 -0.262,0.627c-0.056,0.203 -0.091,0.395 -0.107,0.578c-0.016,0.183 -0.025,0.357 -0.028,0.523c-0.003,0.166 -0.004,0.311 -0.004,0.435c0,0.123 0.057,0.218 0.171,0.283c0.114,0.065 0.315,0.104 0.602,0.115c0.287,0.011 0.596,0.015 0.926,0.011c0.33,-0.004 0.632,-0.029 0.905,-0.073c0.273,-0.044 0.398,-0.089 0.376,-0.133" style="fill:none;fill-rule:nonzero;stroke:#000;stroke-width:0.85px;"/></svg>