<?xml version="1.0" encoding="UTF-8" standalone="no"?><!DOCTYPE svg PUBLIC "-//W3C//DTD SVG 1.1//EN" "http://www.w3.org/Graphics/SVG/1.1/DTD/svg11.dtd"><svg width="100%" height="100%" viewBox="0 0 645 614" version="1.1" xmlns="http://www.w3.org/2000/svg" xmlns:xlink="http://www.w3.org/1999/xlink" xml:space="preserve" xmlns:serif="http://www.serif.com/" style="fill-rule:evenodd;clip-rule:evenodd;stroke-linecap:round;stroke-linejoin:round;stroke-miterlimit:10;"><rect id="Artboard1" x="0" y="0" width="645" height="614" style="fill:none;"/><rect x="0" y="0" width="645" height="614" style="fill:#fff;"/><path d="M72.526,94.728l0,-1.515c0,-0.557 0.015,-1.044 0.044,-1.461c0.029,-0.417 0.059,-0.804 0.089,-1.161c0.03,-0.357 0.042,-0.664 0.034,-0.922c-0.008,-0.258 -0.185,-0.435 -0.531,-0.533c-0.346,-0.098 -0.869,-0.068 -1.57,0.091c-0.7,0.158 -1.417,0.65 -2.149,1.476c-0.732,0.826 -1.327,1.861 -1.785,3.106c-0.458,1.245 -0.748,2.469 -0.871,3.671c-0.123,1.202 0.02,2.188 0.43,2.957c0.409,0.769 1.05,1.254 1.921,1.455c0.871,0.201 1.754,0.246 2.649,0.137c0.895,-0.109 1.672,-0.44 2.33,-0.992c0.658,-0.552 1.136,-1.277 1.434,-2.175c0.298,-0.898 0.475,-1.898 0.531,-3c0.056,-1.102 -0.044,-2.08 -0.301,-2.934c-0.256,-0.854 -0.708,-1.467 -1.354,-1.841c-0.647,-0.373 -1.451,-0.495 -2.411,-0.364c-0.961,0.131 -2.003,0.711 -3.125,1.739c-1.122,1.028 -2.026,2.313 -2.71,3.855c-0.684,1.542 -0.805,2.82 -0.363,3.834c0.443,1.015 1.691,1.462 3.744,1.343c2.053,-0.119 3.846,-0.727 5.377,-1.823c1.531,-1.096 2.434,-2.221 2.707,-3.376c0.273,-1.154 0.097,-1.947 -0.529,-2.377c-0.626,-0.43 -1.032,-0.496 -1.217,-0.196" style="fill:none;fill-rule:nonzero;stroke:#000;stroke-width:7.09px;"/><path d="M207.33,93.999c0.071,-0.502 0.149,-1.026 0.234,-1.57c0.085,-0.544 0.119,-0.956 0.102,-1.236c-0.017,-0.28 -0.147,-0.517 -0.39,-0.711c-0.243,-0.194 -0.565,-0.368 -0.965,-0.522c-0.401,-0.154 -0.929,-0.244 -1.585,-0.27c-0.656,-0.026 -1.481,0.277 -2.473,0.907c-0.992,0.631 -1.911,1.681 -2.758,3.151c-0.846,1.47 -1.338,2.866 -1.477,4.187c-0.138,1.321 0.246,2.257 1.153,2.807c0.908,0.55 2.055,0.746 3.443,0.587c1.388,-0.159 2.519,-0.696 3.393,-1.611c0.874,-0.916 1.443,-2.018 1.707,-3.307c0.264,-1.289 0.375,-2.463 0.333,-3.522c-0.042,-1.059 -0.277,-1.769 -0.707,-2.131c-0.43,-0.361 -1.035,-0.235 -1.815,0.38c-0.78,0.614 -1.466,1.589 -2.058,2.924c-0.591,1.335 -0.941,2.558 -1.049,3.669c-0.108,1.111 0.111,1.853 0.658,2.225c0.547,0.373 1.305,0.3 2.274,-0.219c0.969,-0.518 1.738,-1.423 2.304,-2.713c0.567,-1.29 0.903,-2.394 1.009,-3.311c0.106,-0.917 -0.012,-1.448 -0.353,-1.592c-0.483,-0.204 -1.05,0.393 -1.702,1.791" style="fill:none;fill-rule:nonzero;stroke:#000;stroke-width:7.09px;"/><path d="M339.036,95.184l0,-2.145c0,-0.235 -0.028,-0.464 -0.085,-0.687c-0.057,-0.223 -0.218,-0.407 -0.483,-0.553c-0.265,-0.146 -0.609,-0.226 -1.029,-0.24c-0.421,-0.014 -0.849,0.175 -1.286,0.565c-0.436,0.391 -0.801,1.084 -1.093,2.08c-0.292,0.996 -0.448,2.057 -0.469,3.183c-0.02,1.126 0.35,2.03 1.109,2.712c0.76,0.682 1.916,1.034 3.468,1.057c1.553,0.023 2.973,-0.365 4.263,-1.163c1.289,-0.798 2.122,-1.874 2.5,-3.228c0.377,-1.354 0.345,-2.616 -0.097,-3.787c-0.442,-1.17 -1.248,-1.983 -2.417,-2.439c-1.17,-0.455 -2.31,-0.546 -3.42,-0.272c-1.11,0.274 -2.087,1.078 -2.929,2.411c-0.843,1.334 -1.417,2.704 -1.723,4.112c-0.306,1.407 -0.306,2.486 -0,3.236c0.306,0.75 1.079,1.065 2.318,0.946c1.24,-0.119 2.401,-0.683 3.483,-1.69c1.082,-1.007 1.789,-2.036 2.12,-3.087c0.331,-1.051 0.343,-1.793 0.034,-2.226c-0.434,-0.609 -1.447,0.168 -3.039,2.331" style="fill:none;fill-rule:nonzero;stroke:#000;stroke-width:7.09px;"/><path d="M66.96,114.85c0.008,-0.287 0.816,-0.466 2.424,-0.535c1.608,-0.069 3.339,-0.131 5.191,-0.187c1.852,-0.056 3.511,-0.29 4.976,-0.702c1.465,-0.413 2.452,-0.771 2.962,-1.075c0.51,-0.304 0.761,-0.48 0.754,-0.528c-0.007,-0.048 -0.168,-0.053 -0.483,-0.016c-0.315,0.037 -0.669,0.155 -1.063,0.353c-0.394,0.198 -0.797,0.398 -1.21,0.599c-0.413,0.202 -0.881,0.481 -1.404,0.839c-0.523,0.358 -1.082,0.831 -1.677,1.418c-0.595,0.588 -1.183,1.308 -1.762,2.162c-0.579,0.854 -1.09,1.707 -1.531,2.56c-0.441,0.853 -0.845,1.641 -1.212,2.366c-0.367,0.725 -0.631,1.368 -0.793,1.931c-0.162,0.563 -0.212,1.088 -0.15,1.575c0.062,0.488 0.4,0.95 1.015,1.389c0.614,0.439 1.399,0.808 2.354,1.108c0.955,0.3 1.962,0.489 3.022,0.567c1.541,0.113 2.905,-0.577 4.093,-2.07" style="fill:none;fill-rule:nonzero;stroke:#000;stroke-width:3.54px;"/><path d="M198.57,117.129c0.193,-0.141 0.917,-0.228 2.171,-0.26c1.255,-0.032 2.708,-0.042 4.359,-0.031c1.651,0.011 3.25,0.008 4.795,-0.01c1.546,-0.018 2.738,-0.082 3.575,-0.192c0.837,-0.11 1.357,-0.177 1.56,-0.2c0.203,-0.024 0.296,-0.035 0.28,-0.036c-0.017,-0 -0.113,0.009 -0.29,0.029c-0.176,0.019 -0.423,0.063 -0.741,0.132c-0.318,0.069 -0.726,0.163 -1.226,0.282c-0.5,0.119 -1.1,0.307 -1.803,0.564c-0.702,0.257 -1.452,0.6 -2.25,1.03c-0.798,0.43 -1.573,0.902 -2.327,1.417c-0.754,0.515 -1.413,1.002 -1.979,1.461c-0.566,0.459 -1.01,0.916 -1.332,1.371c-0.322,0.455 -0.518,0.914 -0.588,1.379c-0.07,0.465 -0.105,0.921 -0.105,1.369c-0,0.448 0.043,0.87 0.128,1.267c0.086,0.397 0.2,0.759 0.343,1.085c0.143,0.326 0.294,0.622 0.454,0.888c0.16,0.266 0.35,0.52 0.569,0.763c0.22,0.243 0.528,0.467 0.925,0.672c0.398,0.205 1.02,0.355 1.868,0.452c0.848,0.097 2.102,0.051 3.763,-0.136c2.463,-0.278 5.131,-0.915 8.005,-1.91" style="fill:none;fill-rule:nonzero;stroke:#000;stroke-width:3.54px;"/><path d="M337.016,118.313l-0.134,-0l0.298,-0.002c0.331,-0.002 1.16,-0.006 2.486,-0.014c1.326,-0.007 2.729,-0.084 4.208,-0.229c1.479,-0.145 2.794,-0.348 3.945,-0.609c1.151,-0.261 2.03,-0.495 2.639,-0.701c0.609,-0.207 0.98,-0.333 1.116,-0.38c0.135,-0.046 0.204,-0.069 0.205,-0.07l0,0l-0.04,-0l-0.596,0c-0.131,0 -0.3,0.005 -0.508,0.014c-0.208,0.009 -0.478,0.086 -0.808,0.232c-0.331,0.145 -0.707,0.362 -1.129,0.652c-0.422,0.289 -0.904,0.649 -1.447,1.079c-0.542,0.43 -1.126,0.917 -1.752,1.46c-0.626,0.543 -1.229,1.094 -1.811,1.653c-0.581,0.559 -1.068,1.083 -1.461,1.571c-0.393,0.488 -0.659,0.936 -0.8,1.344c-0.141,0.407 -0.213,0.813 -0.215,1.217c-0.003,0.404 0.025,0.824 0.081,1.259c0.056,0.435 0.213,0.861 0.468,1.277c0.255,0.416 0.689,0.77 1.3,1.06c0.611,0.29 1.47,0.474 2.576,0.552c1.106,0.078 2.332,0.075 3.677,-0.008c2.114,-0.131 3.583,-0.453 4.408,-0.965" style="fill:none;fill-rule:nonzero;stroke:#000;stroke-width:3.54px;"/><path d="M136.684,55.881c-0.323,-0.208 -0.793,-0.425 -1.408,-0.651c-0.615,-0.225 -1.361,-0.356 -2.238,-0.39c-0.877,-0.035 -1.928,-0.052 -3.153,-0.053c-1.225,-0 -2.567,0.004 -4.027,0.013c-1.46,0.009 -3.012,0.024 -4.658,0.045c-1.646,0.021 -3.199,0.032 -4.659,0.032c-1.46,0 -3.053,0 -4.78,0l-8.408,0c-1.169,0 -2.379,0.005 -3.628,0.014c-1.249,0.009 -2.629,0.11 -4.14,0.303c-1.511,0.193 -3.013,0.46 -4.506,0.803c-1.493,0.343 -2.871,0.686 -4.135,1.031c-1.264,0.344 -2.451,0.654 -3.561,0.93c-1.11,0.276 -2.196,0.57 -3.258,0.881c-1.061,0.312 -2.139,0.673 -3.233,1.085c-1.094,0.412 -2.169,0.835 -3.225,1.269c-1.056,0.434 -2.014,0.851 -2.872,1.249c-0.859,0.398 -1.702,0.799 -2.529,1.202c-0.828,0.403 -1.725,0.856 -2.693,1.357c-0.968,0.502 -1.981,1.045 -3.041,1.63c-1.06,0.585 -2.122,1.206 -3.186,1.862c-1.064,0.656 -2.124,1.356 -3.178,2.1c-1.054,0.744 -2.055,1.56 -3.002,2.447c-0.947,0.887 -1.789,1.797 -2.526,2.729c-0.737,0.932 -1.411,1.815 -2.022,2.65c-0.611,0.835 -1.181,1.652 -1.71,2.451c-0.529,0.799 -1.061,1.633 -1.597,2.5c-0.536,0.868 -1.091,1.8 -1.668,2.798c-0.576,0.998 -1.119,2.009 -1.63,3.033c-0.511,1.024 -0.945,2.008 -1.305,2.953c-0.359,0.945 -0.682,1.845 -0.969,2.699c-0.287,0.854 -0.528,1.676 -0.722,2.466c-0.195,0.79 -0.389,1.629 -0.582,2.517c-0.193,0.888 -0.337,1.831 -0.431,2.829c-0.094,0.998 -0.181,2 -0.262,3.004c-0.081,1.005 -0.153,1.955 -0.216,2.85c-0.063,0.896 -0.095,1.754 -0.096,2.576c-0.001,0.822 -0.002,1.628 -0.002,2.419l0,2.473c0,0.858 0.024,1.717 0.071,2.579c0.047,0.862 0.143,1.68 0.288,2.454c0.144,0.774 0.349,1.616 0.613,2.525c0.264,0.909 0.581,1.735 0.951,2.477c0.37,0.743 0.791,1.458 1.263,2.147c0.472,0.689 0.994,1.383 1.568,2.082c0.574,0.699 1.198,1.393 1.873,2.083c0.675,0.69 1.377,1.364 2.105,2.023c0.728,0.659 1.432,1.284 2.113,1.874c0.681,0.59 1.345,1.173 1.994,1.75c0.648,0.577 1.317,1.14 2.005,1.688c0.688,0.548 1.381,1.062 2.078,1.542c0.697,0.48 1.458,0.909 2.282,1.288c0.825,0.378 1.731,0.687 2.717,0.925c0.987,0.238 2.001,0.429 3.043,0.573c1.042,0.143 2.123,0.319 3.244,0.528c1.121,0.208 2.325,0.464 3.614,0.767c1.289,0.303 2.631,0.611 4.029,0.923c1.397,0.312 2.731,0.611 4.003,0.898c1.271,0.287 2.476,0.513 3.615,0.678c1.139,0.165 2.216,0.315 3.233,0.447c1.016,0.133 2.088,0.264 3.214,0.395c1.127,0.131 2.365,0.258 3.714,0.381c1.349,0.123 2.742,0.24 4.18,0.351c1.438,0.11 2.885,0.245 4.341,0.405c1.456,0.16 2.996,0.302 4.619,0.427c1.623,0.125 3.299,0.295 5.029,0.51c1.73,0.215 3.423,0.451 5.08,0.707c1.656,0.256 3.255,0.481 4.797,0.675c1.542,0.194 3.1,0.354 4.675,0.48c1.575,0.126 3.265,0.181 5.071,0.165c1.806,-0.016 3.592,-0.098 5.36,-0.246c1.767,-0.148 3.473,-0.26 5.117,-0.335c1.644,-0.075 3.285,-0.114 4.924,-0.115c1.639,-0.001 3.337,-0.007 5.094,-0.016c1.758,-0.009 3.495,-0.048 5.211,-0.118c1.717,-0.07 3.29,-0.111 4.72,-0.123c1.43,-0.013 2.783,-0.019 4.06,-0.019l3.947,0c1.355,0 2.706,-0.015 4.054,-0.044c1.348,-0.029 2.7,-0.049 4.055,-0.059c1.355,-0.01 2.75,-0.069 4.186,-0.176c1.435,-0.107 2.878,-0.246 4.328,-0.418c1.45,-0.172 2.774,-0.305 3.971,-0.4c1.197,-0.095 2.25,-0.148 3.16,-0.161c0.91,-0.013 1.789,-0.062 2.639,-0.147c0.85,-0.086 1.778,-0.219 2.784,-0.4c1.006,-0.181 2.041,-0.348 3.105,-0.503c1.064,-0.154 2.027,-0.268 2.887,-0.341c0.861,-0.073 1.651,-0.135 2.372,-0.186c0.721,-0.051 1.512,-0.15 2.374,-0.297c0.862,-0.148 1.794,-0.337 2.796,-0.567c1.002,-0.231 1.946,-0.482 2.831,-0.753c0.885,-0.271 1.754,-0.588 2.605,-0.949c0.851,-0.361 1.73,-0.754 2.638,-1.178c0.908,-0.424 1.804,-0.82 2.688,-1.188c0.884,-0.368 1.694,-0.714 2.43,-1.038c0.736,-0.324 1.414,-0.692 2.034,-1.103c0.62,-0.411 1.273,-0.882 1.957,-1.415c0.684,-0.532 1.406,-1.121 2.164,-1.765c0.758,-0.645 1.455,-1.287 2.09,-1.925c0.635,-0.639 1.184,-1.306 1.645,-2.002c0.462,-0.696 0.861,-1.441 1.197,-2.237c0.337,-0.796 0.696,-1.672 1.078,-2.628c0.382,-0.956 0.8,-1.955 1.254,-2.996c0.455,-1.041 0.886,-2.108 1.294,-3.2c0.408,-1.092 0.757,-2.195 1.045,-3.308c0.288,-1.113 0.51,-2.236 0.667,-3.369c0.157,-1.133 0.252,-2.316 0.287,-3.548c0.035,-1.232 0.053,-2.49 0.053,-3.773c0,-1.283 -0.009,-2.603 -0.027,-3.959c-0.018,-1.357 -0.154,-2.679 -0.407,-3.968c-0.253,-1.288 -0.585,-2.58 -0.996,-3.875c-0.41,-1.295 -0.862,-2.591 -1.355,-3.889c-0.493,-1.297 -1.104,-2.56 -1.833,-3.787c-0.729,-1.228 -1.552,-2.435 -2.469,-3.622c-0.917,-1.187 -1.85,-2.319 -2.802,-3.396c-0.951,-1.077 -1.96,-2.191 -3.027,-3.341c-1.067,-1.15 -2.312,-2.289 -3.736,-3.417c-1.423,-1.128 -2.949,-2.143 -4.577,-3.044c-1.628,-0.901 -3.15,-1.698 -4.568,-2.391c-1.418,-0.693 -2.738,-1.402 -3.96,-2.129c-1.222,-0.727 -2.425,-1.49 -3.608,-2.29c-1.183,-0.8 -2.434,-1.469 -3.753,-2.009c-1.319,-0.54 -2.765,-0.934 -4.339,-1.184c-1.574,-0.249 -3.107,-0.557 -4.6,-0.925c-1.493,-0.367 -2.941,-0.808 -4.343,-1.322c-1.402,-0.514 -2.751,-1.044 -4.048,-1.589c-1.297,-0.546 -2.648,-1.073 -4.053,-1.581c-1.405,-0.508 -2.739,-1.006 -4.003,-1.492c-1.263,-0.486 -2.477,-0.987 -3.641,-1.501c-1.164,-0.514 -2.45,-0.988 -3.856,-1.421c-1.407,-0.433 -2.932,-0.74 -4.576,-0.921c-1.644,-0.181 -3.34,-0.293 -5.09,-0.336c-1.75,-0.043 -3.557,-0.065 -5.423,-0.066c-1.866,-0.001 -3.85,0.012 -5.953,0.039c-2.102,0.027 -4,0.192 -5.694,0.493c-2.563,0.456 -4.04,1.218 -4.432,2.284" style="fill:none;fill-rule:nonzero;stroke:#000;stroke-width:3.54px;"/><path d="M241.954,140.826c0.033,-0.082 0.425,-0.398 1.176,-0.948c0.751,-0.55 1.431,-1.067 2.039,-1.552c0.608,-0.485 1.139,-0.927 1.593,-1.328c0.453,-0.4 0.79,-0.72 1.011,-0.958c0.221,-0.239 0.369,-0.396 0.444,-0.473c0.076,-0.077 0.1,0.022 0.074,0.295c-0.026,0.273 -0.167,0.838 -0.422,1.693c-0.255,0.855 -0.544,1.778 -0.867,2.768c-0.323,0.99 -0.647,1.972 -0.972,2.946c-0.325,0.974 -0.62,1.899 -0.886,2.774c-0.265,0.875 -0.477,1.671 -0.634,2.386c-0.158,0.716 -0.243,1.293 -0.257,1.731l-0.01,0.329l0.031,-0.986" style="fill:none;fill-rule:nonzero;stroke:#000;stroke-width:3.54px;"/><path d="M236.212,154.77c0.064,-0.331 0.591,-0.678 1.583,-1.04c0.991,-0.362 2.426,-0.636 4.304,-0.822c1.878,-0.186 3.818,-0.321 5.818,-0.405c3.389,-0.143 5.469,-0.119 6.241,0.074" style="fill:none;fill-rule:nonzero;stroke:#000;stroke-width:3.54px;"/><path d="M223.634,25.165c-0.024,-0.301 -0.109,-0.645 -0.253,-1.031c-0.144,-0.386 -0.368,-0.721 -0.671,-1.003c-0.303,-0.282 -0.902,-0.604 -1.796,-0.965c-0.894,-0.361 -2.264,-0.74 -4.111,-1.136c-1.847,-0.396 -4.105,-0.742 -6.774,-1.039c-2.67,-0.297 -5.437,-0.515 -8.303,-0.655c-2.866,-0.139 -5.668,-0.22 -8.406,-0.243c-2.738,-0.023 -5.493,-0.034 -8.264,-0.034c-2.771,-0 -5.581,-0 -8.428,-0c-2.847,0 -5.471,-0.005 -7.872,-0.014c-2.401,-0.009 -4.651,-0.082 -6.751,-0.218c-2.1,-0.136 -4.289,-0.238 -6.569,-0.305c-2.28,-0.067 -4.629,-0.016 -7.048,0.155c-2.419,0.17 -4.695,0.466 -6.828,0.887c-2.133,0.421 -4.07,0.831 -5.811,1.228c-1.741,0.397 -3.563,0.768 -5.465,1.114c-1.902,0.346 -3.934,0.642 -6.095,0.889c-2.161,0.247 -4.303,0.483 -6.424,0.705c-2.122,0.223 -4.081,0.436 -5.876,0.638c-1.796,0.203 -3.486,0.449 -5.069,0.738c-1.584,0.289 -3.228,0.663 -4.931,1.121c-1.704,0.458 -3.515,0.971 -5.432,1.537c-1.917,0.567 -3.811,1.099 -5.682,1.598c-1.871,0.499 -3.654,1.034 -5.348,1.606c-1.695,0.572 -3.392,1.21 -5.091,1.916c-1.699,0.705 -3.396,1.428 -5.089,2.167c-1.693,0.739 -3.352,1.488 -4.975,2.245c-1.624,0.757 -3.235,1.574 -4.834,2.451c-1.599,0.877 -3.138,1.756 -4.616,2.639c-1.478,0.883 -2.741,1.678 -3.79,2.384c-1.049,0.707 -1.971,1.374 -2.767,2.002c-0.796,0.628 -1.588,1.309 -2.376,2.043c-0.788,0.734 -1.611,1.481 -2.47,2.243c-0.859,0.762 -1.747,1.464 -2.667,2.106c-0.919,0.643 -1.884,1.277 -2.893,1.904c-1.009,0.627 -1.997,1.312 -2.963,2.055c-0.966,0.743 -1.896,1.553 -2.788,2.431c-0.893,0.878 -1.765,1.796 -2.617,2.756c-0.852,0.96 -1.693,1.945 -2.525,2.955c-0.832,1.011 -1.629,2.013 -2.393,3.008c-0.764,0.994 -1.443,1.992 -2.037,2.993c-0.594,1.001 -1.097,2.041 -1.508,3.121c-0.411,1.08 -0.765,2.206 -1.062,3.379c-0.297,1.172 -0.616,2.37 -0.956,3.593c-0.34,1.223 -0.708,2.477 -1.104,3.762c-0.396,1.285 -0.728,2.551 -0.997,3.799c-0.269,1.248 -0.471,2.46 -0.606,3.636c-0.135,1.176 -0.264,2.351 -0.385,3.526c-0.122,1.175 -0.253,2.34 -0.395,3.497c-0.142,1.157 -0.23,2.283 -0.265,3.379c-0.035,1.096 -0.052,2.156 -0.052,3.18c-0,1.024 0.004,2.067 0.013,3.129c0.009,1.062 0.072,2.139 0.188,3.231c0.116,1.092 0.304,2.209 0.564,3.352c0.26,1.143 0.531,2.297 0.813,3.461c0.283,1.164 0.6,2.3 0.952,3.406c0.352,1.106 0.715,2.221 1.089,3.344c0.374,1.123 0.777,2.247 1.21,3.371c0.433,1.124 0.892,2.22 1.376,3.286c0.484,1.067 1.008,2.131 1.573,3.193c0.565,1.063 1.155,2.068 1.771,3.016c0.616,0.948 1.256,1.844 1.923,2.687c0.666,0.843 1.42,1.679 2.262,2.509c0.842,0.83 1.815,1.693 2.92,2.591c1.105,0.898 2.326,1.843 3.663,2.833c1.337,0.991 2.821,1.925 4.451,2.801c1.63,0.877 3.307,1.696 5.03,2.458c1.723,0.762 3.349,1.551 4.877,2.368c1.528,0.817 2.938,1.689 4.232,2.616c1.293,0.927 2.591,1.891 3.895,2.893c1.303,1.001 2.614,1.917 3.933,2.747c1.318,0.83 2.606,1.543 3.862,2.138c1.256,0.595 2.656,1.103 4.199,1.524c1.543,0.421 3.191,0.828 4.943,1.221c1.752,0.393 3.383,0.864 4.892,1.413c1.509,0.55 3.03,1.12 4.563,1.712c1.533,0.592 3.138,1.083 4.816,1.471c1.678,0.389 3.305,0.785 4.882,1.189c1.577,0.404 3.072,0.896 4.484,1.475c1.413,0.58 2.812,1.164 4.198,1.753c1.386,0.59 2.783,1.164 4.19,1.723c1.407,0.559 2.848,1.035 4.323,1.428c1.475,0.393 3.044,0.664 4.708,0.813c1.663,0.15 3.347,0.332 5.05,0.546c1.703,0.215 3.38,0.538 5.031,0.969c1.651,0.431 3.345,0.85 5.083,1.257c1.738,0.406 3.584,0.726 5.54,0.958c1.956,0.233 3.957,0.404 6.003,0.515c2.046,0.111 4.038,0.243 5.975,0.395c1.937,0.153 3.935,0.28 5.994,0.381c2.059,0.102 4.143,0.261 6.251,0.48c2.108,0.218 4.104,0.42 5.988,0.605c1.884,0.185 3.765,0.301 5.643,0.348c1.878,0.046 3.823,0.074 5.834,0.083c2.011,0.009 4.05,0.034 6.118,0.074c2.068,0.04 4.018,0.085 5.851,0.135c1.833,0.05 3.586,0.115 5.26,0.194c1.674,0.08 3.403,0.137 5.188,0.17c1.785,0.033 3.639,0.05 5.561,0.05c1.923,0 3.827,-0.009 5.713,-0.028c1.886,-0.019 3.717,-0.034 5.494,-0.046c1.777,-0.011 3.521,-0.017 5.233,-0.017l15.348,0c1.672,0 3.363,-0.029 5.072,-0.086c1.709,-0.058 3.449,-0.16 5.219,-0.309c1.77,-0.149 3.556,-0.343 5.359,-0.582c1.803,-0.24 3.633,-0.506 5.493,-0.798c1.859,-0.293 3.755,-0.595 5.688,-0.908c1.933,-0.313 3.867,-0.636 5.802,-0.97c1.935,-0.334 3.85,-0.668 5.745,-1.002c1.895,-0.334 3.751,-0.683 5.568,-1.047c1.817,-0.363 3.549,-0.703 5.196,-1.019c1.647,-0.316 3.189,-0.598 4.626,-0.844c1.437,-0.246 2.752,-0.462 3.945,-0.646c1.193,-0.185 2.37,-0.363 3.532,-0.534c1.162,-0.171 2.36,-0.362 3.594,-0.573c1.234,-0.211 2.488,-0.462 3.763,-0.753c1.275,-0.291 2.555,-0.608 3.841,-0.95c1.286,-0.342 2.576,-0.696 3.87,-1.06c1.294,-0.365 2.624,-0.744 3.99,-1.138c1.366,-0.394 2.733,-0.774 4.101,-1.139c1.368,-0.366 2.696,-0.735 3.983,-1.109c1.288,-0.374 2.642,-0.787 4.063,-1.239c1.421,-0.453 2.872,-0.922 4.353,-1.408c1.48,-0.486 2.924,-0.972 4.332,-1.458c1.408,-0.486 2.826,-0.991 4.254,-1.516c1.428,-0.524 2.837,-1.07 4.228,-1.635c1.39,-0.566 2.701,-1.19 3.932,-1.873c1.231,-0.683 2.391,-1.394 3.48,-2.132c1.089,-0.738 2.135,-1.525 3.14,-2.361c1.004,-0.836 2.069,-1.743 3.196,-2.719c1.127,-0.977 2.388,-2.01 3.785,-3.099c1.397,-1.089 2.898,-2.255 4.506,-3.497c1.607,-1.242 3.077,-2.462 4.408,-3.659c1.332,-1.197 2.398,-2.365 3.198,-3.502c0.8,-1.138 1.422,-2.215 1.866,-3.232c0.444,-1.017 0.873,-1.969 1.287,-2.854c0.414,-0.885 0.825,-1.744 1.231,-2.574c0.406,-0.831 0.792,-1.758 1.158,-2.78c0.366,-1.023 0.745,-2.169 1.139,-3.437c0.394,-1.268 0.784,-2.566 1.17,-3.893c0.386,-1.328 0.723,-2.611 1.011,-3.85c0.288,-1.239 0.535,-2.476 0.739,-3.71c0.205,-1.234 0.389,-2.465 0.552,-3.693c0.163,-1.227 0.297,-2.381 0.402,-3.461c0.105,-1.08 0.163,-2.097 0.175,-3.05c0.013,-0.953 0.019,-1.93 0.019,-2.931c0,-1 -0.028,-2.032 -0.085,-3.094c-0.057,-1.062 -0.241,-2.134 -0.554,-3.217c-0.313,-1.082 -0.716,-2.156 -1.208,-3.222c-0.492,-1.065 -0.992,-2.096 -1.5,-3.09c-0.507,-0.995 -0.966,-1.997 -1.375,-3.008c-0.41,-1.011 -0.84,-2.047 -1.29,-3.108c-0.45,-1.061 -0.982,-2.129 -1.594,-3.203c-0.612,-1.074 -1.281,-2.153 -2.007,-3.235c-0.726,-1.083 -1.502,-2.161 -2.328,-3.237c-0.826,-1.075 -1.708,-2.111 -2.647,-3.106c-0.938,-0.995 -1.98,-2.011 -3.124,-3.049c-1.145,-1.038 -2.43,-2.162 -3.857,-3.373c-1.427,-1.211 -2.982,-2.42 -4.665,-3.628c-1.683,-1.208 -3.473,-2.327 -5.369,-3.358c-1.896,-1.031 -3.879,-2.021 -5.95,-2.971c-2.07,-0.95 -4.25,-1.927 -6.54,-2.929c-2.29,-1.002 -4.605,-1.982 -6.945,-2.938c-2.34,-0.956 -4.613,-1.826 -6.82,-2.611c-2.206,-0.785 -4.352,-1.547 -6.438,-2.288c-2.086,-0.74 -4.245,-1.537 -6.477,-2.39c-2.232,-0.853 -4.483,-1.704 -6.753,-2.551c-2.269,-0.848 -4.539,-1.578 -6.808,-2.191c-2.269,-0.613 -4.34,-1.252 -6.212,-1.917c-1.872,-0.665 -3.686,-1.409 -5.443,-2.233c-1.756,-0.824 -3.711,-1.6 -5.863,-2.328c-2.152,-0.729 -4.33,-1.363 -6.534,-1.904c-2.203,-0.541 -4.206,-1.035 -6.007,-1.484c-1.801,-0.449 -3.438,-0.915 -4.909,-1.398c-1.472,-0.483 -3.101,-0.959 -4.887,-1.429c-1.786,-0.47 -3.802,-0.84 -6.047,-1.11c-2.245,-0.27 -4.408,-0.444 -6.488,-0.522c-2.08,-0.078 -3.943,-0.146 -5.589,-0.205c-1.646,-0.059 -3.117,-0.191 -4.413,-0.397c-1.295,-0.206 -2.59,-0.485 -3.883,-0.835c-1.293,-0.351 -2.713,-0.661 -4.261,-0.931c-1.548,-0.27 -3.081,-0.428 -4.6,-0.476c-1.519,-0.047 -2.795,-0.053 -3.828,-0.015c-1.551,0.056 -2.809,0.463 -3.775,1.22" style="fill:none;fill-rule:nonzero;stroke:#000;stroke-width:3.54px;"/><path d="M383.408,160.421c0.103,0.064 0.72,0.126 1.849,0.185c1.129,0.059 2.384,0.089 3.764,0.089l6.618,0c0.716,0 1.237,-0.038 1.563,-0.115c0.327,-0.077 0.524,-0.166 0.593,-0.268c0.069,-0.102 0.061,-0.17 -0.022,-0.204c-0.084,-0.034 -0.434,-0.041 -1.05,-0.023c-0.617,0.018 -1.377,0.192 -2.281,0.522c-0.905,0.33 -1.8,0.76 -2.686,1.291c-0.886,0.531 -1.692,1.124 -2.418,1.78c-0.726,0.656 -1.355,1.346 -1.887,2.072c-0.532,0.726 -0.975,1.493 -1.327,2.3c-0.352,0.808 -0.569,1.584 -0.651,2.327c-0.082,0.744 0.122,1.403 0.611,1.978c0.489,0.575 1.195,1.038 2.119,1.391c0.924,0.352 1.891,0.589 2.902,0.709c1.01,0.12 2.089,0.135 3.236,0.043c1.147,-0.092 2.415,-0.404 3.805,-0.936c2.096,-0.804 3.895,-1.815 5.398,-3.033" style="fill:none;fill-rule:nonzero;stroke:#000;stroke-width:3.54px;"/><path d="M72.668,295.323l0,-1.515c0,-0.557 0.015,-1.044 0.044,-1.461c0.029,-0.417 0.059,-0.804 0.089,-1.161c0.03,-0.357 0.042,-0.664 0.034,-0.922c-0.008,-0.258 -0.185,-0.435 -0.531,-0.533c-0.346,-0.098 -0.869,-0.068 -1.57,0.091c-0.7,0.158 -1.417,0.65 -2.149,1.476c-0.732,0.826 -1.327,1.861 -1.785,3.106c-0.458,1.245 -0.748,2.469 -0.871,3.671c-0.123,1.202 0.02,2.188 0.43,2.957c0.409,0.769 1.05,1.254 1.921,1.455c0.871,0.201 1.754,0.246 2.649,0.137c0.895,-0.109 1.672,-0.44 2.33,-0.992c0.658,-0.552 1.136,-1.277 1.434,-2.175c0.298,-0.898 0.475,-1.898 0.531,-3c0.056,-1.102 -0.044,-2.08 -0.301,-2.934c-0.256,-0.854 -0.708,-1.467 -1.354,-1.841c-0.647,-0.373 -1.451,-0.495 -2.411,-0.364c-0.961,0.131 -2.003,0.711 -3.125,1.739c-1.122,1.028 -2.026,2.313 -2.71,3.855c-0.684,1.542 -0.805,2.82 -0.363,3.834c0.443,1.015 1.691,1.462 3.744,1.343c2.053,-0.119 3.846,-0.727 5.377,-1.823c1.531,-1.096 2.434,-2.221 2.707,-3.376c0.273,-1.154 0.097,-1.947 -0.529,-2.377c-0.626,-0.43 -1.032,-0.496 -1.217,-0.196" style="fill:none;fill-rule:nonzero;stroke:#000;stroke-width:7.09px;"/><path d="M207.472,294.594c0.071,-0.502 0.149,-1.026 0.234,-1.57c0.085,-0.544 0.119,-0.956 0.102,-1.236c-0.017,-0.28 -0.147,-0.517 -0.39,-0.711c-0.243,-0.194 -0.565,-0.368 -0.965,-0.522c-0.401,-0.154 -0.929,-0.244 -1.585,-0.27c-0.656,-0.026 -1.481,0.277 -2.473,0.907c-0.992,0.631 -1.911,1.681 -2.758,3.151c-0.846,1.47 -1.338,2.866 -1.477,4.187c-0.138,1.321 0.246,2.257 1.153,2.807c0.908,0.55 2.055,0.746 3.443,0.587c1.388,-0.159 2.519,-0.696 3.393,-1.611c0.874,-0.916 1.443,-2.018 1.707,-3.307c0.264,-1.289 0.375,-2.463 0.333,-3.522c-0.042,-1.059 -0.277,-1.769 -0.707,-2.131c-0.43,-0.361 -1.035,-0.235 -1.815,0.38c-0.78,0.614 -1.466,1.589 -2.058,2.924c-0.591,1.335 -0.941,2.558 -1.049,3.669c-0.108,1.111 0.111,1.853 0.658,2.225c0.547,0.373 1.305,0.3 2.274,-0.219c0.969,-0.518 1.738,-1.423 2.304,-2.713c0.567,-1.29 0.903,-2.394 1.009,-3.311c0.106,-0.917 -0.012,-1.448 -0.353,-1.592c-0.483,-0.204 -1.05,0.393 -1.702,1.791" style="fill:none;fill-rule:nonzero;stroke:#000;stroke-width:7.09px;"/><path d="M339.178,295.778l0,-2.145c0,-0.235 -0.028,-0.464 -0.085,-0.687c-0.057,-0.223 -0.218,-0.407 -0.483,-0.553c-0.265,-0.146 -0.609,-0.226 -1.029,-0.24c-0.421,-0.014 -0.849,0.175 -1.286,0.565c-0.436,0.391 -0.801,1.084 -1.093,2.08c-0.292,0.996 -0.448,2.057 -0.469,3.183c-0.02,1.126 0.35,2.03 1.109,2.712c0.76,0.682 1.916,1.034 3.468,1.057c1.553,0.023 2.973,-0.365 4.263,-1.163c1.289,-0.798 2.122,-1.874 2.5,-3.228c0.377,-1.354 0.345,-2.616 -0.097,-3.787c-0.442,-1.17 -1.248,-1.983 -2.417,-2.439c-1.17,-0.455 -2.31,-0.546 -3.42,-0.272c-1.11,0.274 -2.087,1.078 -2.929,2.411c-0.843,1.334 -1.417,2.704 -1.723,4.112c-0.306,1.407 -0.306,2.486 -0,3.236c0.306,0.75 1.079,1.065 2.318,0.946c1.24,-0.119 2.401,-0.683 3.483,-1.69c1.082,-1.007 1.789,-2.036 2.12,-3.087c0.331,-1.051 0.343,-1.793 0.034,-2.226c-0.434,-0.609 -1.447,0.168 -3.039,2.331" style="fill:none;fill-rule:nonzero;stroke:#000;stroke-width:7.09px;"/><path d="M67.102,315.445c0.008,-0.287 0.816,-0.466 2.424,-0.535c1.608,-0.069 3.339,-0.131 5.191,-0.187c1.852,-0.056 3.511,-0.29 4.976,-0.702c1.465,-0.413 2.452,-0.771 2.962,-1.075c0.51,-0.304 0.761,-0.48 0.754,-0.528c-0.007,-0.048 -0.168,-0.053 -0.483,-0.016c-0.315,0.037 -0.669,0.155 -1.063,0.353c-0.394,0.198 -0.797,0.398 -1.21,0.599c-0.413,0.202 -0.881,0.481 -1.404,0.839c-0.523,0.358 -1.082,0.831 -1.677,1.418c-0.595,0.588 -1.183,1.308 -1.762,2.162c-0.579,0.854 -1.09,1.707 -1.531,2.56c-0.441,0.853 -0.845,1.641 -1.212,2.366c-0.367,0.725 -0.631,1.368 -0.793,1.931c-0.162,0.563 -0.212,1.088 -0.15,1.575c0.062,0.488 0.4,0.95 1.015,1.389c0.614,0.439 1.399,0.808 2.354,1.108c0.955,0.3 1.962,0.489 3.022,0.567c1.541,0.113 2.905,-0.577 4.093,-2.07" style="fill:none;fill-rule:nonzero;stroke:#000;stroke-width:3.54px;"/><path d="M198.712,317.723c0.193,-0.141 0.917,-0.228 2.171,-0.26c1.255,-0.032 2.708,-0.042 4.359,-0.031c1.651,0.011 3.25,0.008 4.795,-0.01c1.546,-0.018 2.738,-0.082 3.575,-0.192c0.837,-0.11 1.357,-0.177 1.56,-0.2c0.203,-0.024 0.296,-0.035 0.28,-0.036c-0.017,-0 -0.113,0.009 -0.29,0.029c-0.176,0.019 -0.423,0.063 -0.741,0.132c-0.318,0.069 -0.726,0.163 -1.226,0.282c-0.5,0.119 -1.1,0.307 -1.803,0.564c-0.702,0.257 -1.452,0.6 -2.25,1.03c-0.798,0.43 -1.573,0.902 -2.327,1.417c-0.754,0.515 -1.413,1.002 -1.979,1.461c-0.566,0.459 -1.01,0.916 -1.332,1.371c-0.322,0.455 -0.518,0.914 -0.588,1.379c-0.07,0.465 -0.105,0.921 -0.105,1.369c-0,0.448 0.043,0.87 0.128,1.267c0.086,0.397 0.2,0.759 0.343,1.085c0.143,0.326 0.294,0.622 0.454,0.888c0.16,0.266 0.35,0.52 0.569,0.763c0.22,0.243 0.528,0.467 0.925,0.672c0.398,0.205 1.02,0.355 1.868,0.452c0.848,0.097 2.102,0.051 3.763,-0.136c2.463,-0.278 5.131,-0.915 8.005,-1.91" style="fill:none;fill-rule:nonzero;stroke:#000;stroke-width:3.54px;"/><path d="M337.158,318.908l-0.134,-0l0.298,-0.002c0.331,-0.002 1.16,-0.006 2.486,-0.014c1.326,-0.007 2.729,-0.084 4.208,-0.229c1.479,-0.145 2.794,-0.348 3.945,-0.609c1.151,-0.261 2.03,-0.495 2.639,-0.701c0.609,-0.207 0.98,-0.333 1.116,-0.38c0.135,-0.046 0.204,-0.069 0.205,-0.07l0,0l-0.04,-0l-0.596,0c-0.131,0 -0.3,0.005 -0.508,0.014c-0.208,0.009 -0.478,0.086 -0.808,0.232c-0.331,0.145 -0.707,0.362 -1.129,0.652c-0.422,0.289 -0.904,0.649 -1.447,1.079c-0.542,0.43 -1.126,0.917 -1.752,1.46c-0.626,0.543 -1.229,1.094 -1.811,1.653c-0.581,0.559 -1.068,1.083 -1.461,1.571c-0.393,0.488 -0.659,0.936 -0.8,1.344c-0.141,0.407 -0.213,0.813 -0.215,1.217c-0.003,0.404 0.025,0.824 0.081,1.259c0.056,0.435 0.213,0.861 0.468,1.277c0.255,0.416 0.689,0.77 1.3,1.06c0.611,0.29 1.47,0.474 2.576,0.552c1.106,0.078 2.332,0.075 3.677,-0.008c2.114,-0.131 3.583,-0.453 4.408,-0.965" style="fill:none;fill-rule:nonzero;stroke:#000;stroke-width:3.54px;"/><path d="M136.826,256.475c-0.323,-0.208 -0.793,-0.425 -1.408,-0.651c-0.615,-0.225 -1.361,-0.356 -2.238,-0.39c-0.877,-0.035 -1.928,-0.052 -3.153,-0.053c-1.225,-0 -2.567,0.004 -4.027,0.013c-1.46,0.009 -3.012,0.024 -4.658,0.045c-1.646,0.021 -3.199,0.032 -4.659,0.032c-1.46,0 -3.053,0 -4.78,0l-8.408,0c-1.169,0 -2.379,0.005 -3.628,0.014c-1.249,0.009 -2.629,0.11 -4.14,0.303c-1.511,0.193 -3.013,0.46 -4.506,0.803c-1.493,0.343 -2.871,0.686 -4.135,1.031c-1.264,0.344 -2.451,0.654 -3.561,0.93c-1.11,0.276 -2.196,0.57 -3.258,0.881c-1.061,0.312 -2.139,0.673 -3.233,1.085c-1.094,0.412 -2.169,0.835 -3.225,1.269c-1.056,0.434 -2.014,0.851 -2.872,1.249c-0.859,0.398 -1.702,0.799 -2.529,1.202c-0.828,0.403 -1.725,0.856 -2.693,1.357c-0.968,0.502 -1.981,1.045 -3.041,1.63c-1.06,0.585 -2.122,1.206 -3.186,1.862c-1.064,0.656 -2.124,1.356 -3.178,2.1c-1.054,0.744 -2.055,1.56 -3.002,2.447c-0.947,0.887 -1.789,1.797 -2.526,2.729c-0.737,0.932 -1.411,1.815 -2.022,2.65c-0.611,0.835 -1.181,1.652 -1.71,2.451c-0.529,0.799 -1.061,1.633 -1.597,2.5c-0.536,0.868 -1.091,1.8 -1.668,2.798c-0.576,0.998 -1.119,2.009 -1.63,3.033c-0.511,1.024 -0.945,2.008 -1.305,2.953c-0.359,0.945 -0.682,1.845 -0.969,2.699c-0.287,0.854 -0.528,1.676 -0.722,2.466c-0.195,0.79 -0.389,1.629 -0.582,2.517c-0.193,0.888 -0.337,1.831 -0.431,2.829c-0.094,0.998 -0.181,2 -0.262,3.004c-0.081,1.005 -0.153,1.955 -0.216,2.85c-0.063,0.896 -0.095,1.754 -0.096,2.576c-0.001,0.822 -0.002,1.628 -0.002,2.419l0,2.473c0,0.858 0.024,1.717 0.071,2.579c0.047,0.862 0.143,1.68 0.288,2.454c0.144,0.774 0.349,1.616 0.613,2.525c0.264,0.909 0.581,1.735 0.951,2.477c0.37,0.743 0.791,1.458 1.263,2.147c0.472,0.689 0.994,1.383 1.568,2.082c0.574,0.699 1.198,1.393 1.873,2.083c0.675,0.69 1.377,1.364 2.105,2.023c0.728,0.659 1.432,1.284 2.113,1.874c0.681,0.59 1.345,1.173 1.994,1.75c0.648,0.577 1.317,1.14 2.005,1.688c0.688,0.548 1.381,1.062 2.078,1.542c0.697,0.48 1.458,0.909 2.282,1.288c0.825,0.378 1.731,0.687 2.717,0.925c0.987,0.238 2.001,0.429 3.043,0.573c1.042,0.143 2.123,0.319 3.244,0.528c1.121,0.208 2.325,0.464 3.614,0.767c1.289,0.303 2.631,0.611 4.029,0.923c1.397,0.312 2.731,0.611 4.003,0.898c1.271,0.287 2.476,0.513 3.615,0.678c1.139,0.165 2.216,0.315 3.233,0.447c1.016,0.133 2.088,0.264 3.214,0.395c1.127,0.131 2.365,0.258 3.714,0.381c1.349,0.123 2.742,0.24 4.18,0.351c1.438,0.11 2.885,0.245 4.341,0.405c1.456,0.16 2.996,0.302 4.619,0.427c1.623,0.125 3.299,0.295 5.029,0.51c1.73,0.215 3.423,0.451 5.08,0.707c1.656,0.256 3.255,0.481 4.797,0.675c1.542,0.194 3.1,0.354 4.675,0.48c1.575,0.126 3.265,0.181 5.071,0.165c1.806,-0.016 3.592,-0.098 5.36,-0.246c1.767,-0.148 3.473,-0.26 5.117,-0.335c1.644,-0.075 3.285,-0.114 4.924,-0.115c1.639,-0.001 3.337,-0.007 5.094,-0.016c1.758,-0.009 3.495,-0.048 5.211,-0.118c1.717,-0.07 3.29,-0.111 4.72,-0.123c1.43,-0.013 2.783,-0.019 4.06,-0.019l3.947,0c1.355,0 2.706,-0.015 4.054,-0.044c1.348,-0.029 2.7,-0.049 4.055,-0.059c1.355,-0.01 2.75,-0.069 4.186,-0.176c1.435,-0.107 2.878,-0.246 4.328,-0.418c1.45,-0.172 2.774,-0.305 3.971,-0.4c1.197,-0.095 2.25,-0.148 3.16,-0.161c0.91,-0.013 1.789,-0.062 2.639,-0.147c0.85,-0.086 1.778,-0.219 2.784,-0.4c1.006,-0.181 2.041,-0.348 3.105,-0.503c1.064,-0.154 2.027,-0.268 2.887,-0.341c0.861,-0.073 1.651,-0.135 2.372,-0.186c0.721,-0.051 1.512,-0.15 2.374,-0.297c0.862,-0.148 1.794,-0.337 2.796,-0.567c1.002,-0.231 1.946,-0.482 2.831,-0.753c0.885,-0.271 1.754,-0.588 2.605,-0.949c0.851,-0.361 1.73,-0.754 2.638,-1.178c0.908,-0.424 1.804,-0.82 2.688,-1.188c0.884,-0.368 1.694,-0.714 2.43,-1.038c0.736,-0.324 1.414,-0.692 2.034,-1.103c0.62,-0.411 1.273,-0.882 1.957,-1.415c0.684,-0.532 1.406,-1.121 2.164,-1.765c0.758,-0.645 1.455,-1.287 2.09,-1.925c0.635,-0.639 1.184,-1.306 1.645,-2.002c0.462,-0.696 0.861,-1.441 1.197,-2.237c0.337,-0.796 0.696,-1.672 1.078,-2.628c0.382,-0.956 0.8,-1.955 1.254,-2.996c0.455,-1.041 0.886,-2.108 1.294,-3.2c0.408,-1.092 0.757,-2.195 1.045,-3.308c0.288,-1.113 0.51,-2.236 0.667,-3.369c0.157,-1.133 0.252,-2.316 0.287,-3.548c0.035,-1.232 0.053,-2.49 0.053,-3.773c0,-1.283 -0.009,-2.603 -0.027,-3.959c-0.018,-1.357 -0.154,-2.679 -0.407,-3.968c-0.253,-1.288 -0.585,-2.58 -0.996,-3.875c-0.41,-1.295 -0.862,-2.591 -1.355,-3.889c-0.493,-1.297 -1.104,-2.56 -1.833,-3.787c-0.729,-1.228 -1.552,-2.435 -2.469,-3.622c-0.917,-1.187 -1.85,-2.319 -2.802,-3.396c-0.951,-1.077 -1.96,-2.191 -3.027,-3.341c-1.067,-1.15 -2.312,-2.289 -3.736,-3.417c-1.423,-1.128 -2.949,-2.143 -4.577,-3.044c-1.628,-0.901 -3.15,-1.698 -4.568,-2.391c-1.418,-0.693 -2.738,-1.402 -3.96,-2.129c-1.222,-0.727 -2.425,-1.49 -3.608,-2.29c-1.183,-0.8 -2.434,-1.469 -3.753,-2.009c-1.319,-0.54 -2.765,-0.934 -4.339,-1.184c-1.574,-0.249 -3.107,-0.557 -4.6,-0.925c-1.493,-0.367 -2.941,-0.808 -4.343,-1.322c-1.402,-0.514 -2.751,-1.044 -4.048,-1.589c-1.297,-0.546 -2.648,-1.073 -4.053,-1.581c-1.405,-0.508 -2.739,-1.006 -4.003,-1.492c-1.263,-0.486 -2.477,-0.987 -3.641,-1.501c-1.164,-0.514 -2.45,-0.988 -3.856,-1.421c-1.407,-0.433 -2.932,-0.74 -4.576,-0.921c-1.644,-0.181 -3.34,-0.293 -5.09,-0.336c-1.75,-0.043 -3.557,-0.065 -5.423,-0.066c-1.866,-0.001 -3.85,0.012 -5.953,0.039c-2.102,0.027 -4,0.192 -5.694,0.493c-2.563,0.456 -4.04,1.218 -4.432,2.284" style="fill:none;fill-rule:nonzero;stroke:#000;stroke-width:3.54px;"/><path d="M223.776,225.76c-0.024,-0.301 -0.109,-0.645 -0.253,-1.031c-0.144,-0.386 -0.368,-0.721 -0.671,-1.003c-0.303,-0.282 -0.902,-0.604 -1.796,-0.965c-0.894,-0.361 -2.264,-0.74 -4.111,-1.136c-1.847,-0.396 -4.105,-0.742 -6.774,-1.039c-2.67,-0.297 -5.437,-0.515 -8.303,-0.655c-2.866,-0.139 -5.668,-0.22 -8.406,-0.243c-2.738,-0.023 -5.493,-0.034 -8.264,-0.034c-2.771,-0 -5.581,-0 -8.428,-0c-2.847,0 -5.471,-0.005 -7.872,-0.014c-2.401,-0.009 -4.651,-0.082 -6.751,-0.218c-2.1,-0.136 -4.289,-0.238 -6.569,-0.305c-2.28,-0.067 -4.629,-0.016 -7.048,0.155c-2.419,0.17 -4.695,0.466 -6.828,0.887c-2.133,0.421 -4.07,0.831 -5.811,1.228c-1.741,0.397 -3.563,0.768 -5.465,1.114c-1.902,0.346 -3.934,0.642 -6.095,0.889c-2.161,0.247 -4.303,0.483 -6.424,0.705c-2.122,0.223 -4.081,0.436 -5.876,0.638c-1.796,0.203 -3.486,0.449 -5.069,0.738c-1.584,0.289 -3.228,0.663 -4.931,1.121c-1.704,0.458 -3.515,0.971 -5.432,1.537c-1.917,0.567 -3.811,1.099 -5.682,1.598c-1.871,0.499 -3.654,1.034 -5.348,1.606c-1.695,0.572 -3.392,1.21 -5.091,1.916c-1.699,0.705 -3.396,1.428 -5.089,2.167c-1.693,0.739 -3.352,1.488 -4.975,2.245c-1.624,0.757 -3.235,1.574 -4.834,2.451c-1.599,0.877 -3.138,1.756 -4.616,2.639c-1.478,0.883 -2.741,1.678 -3.79,2.384c-1.049,0.707 -1.971,1.374 -2.767,2.002c-0.796,0.628 -1.588,1.309 -2.376,2.043c-0.788,0.734 -1.611,1.481 -2.47,2.243c-0.859,0.762 -1.747,1.464 -2.667,2.106c-0.919,0.643 -1.884,1.277 -2.893,1.904c-1.009,0.627 -1.997,1.312 -2.963,2.055c-0.966,0.743 -1.896,1.553 -2.788,2.431c-0.893,0.878 -1.765,1.796 -2.617,2.756c-0.852,0.96 -1.693,1.945 -2.525,2.955c-0.832,1.011 -1.629,2.013 -2.393,3.008c-0.764,0.994 -1.443,1.992 -2.037,2.993c-0.594,1.001 -1.097,2.041 -1.508,3.121c-0.411,1.08 -0.765,2.206 -1.062,3.379c-0.297,1.172 -0.616,2.37 -0.956,3.593c-0.34,1.223 -0.708,2.477 -1.104,3.762c-0.396,1.285 -0.728,2.551 -0.997,3.799c-0.269,1.248 -0.471,2.46 -0.606,3.636c-0.135,1.176 -0.264,2.351 -0.385,3.526c-0.122,1.175 -0.253,2.34 -0.395,3.497c-0.142,1.157 -0.23,2.283 -0.265,3.379c-0.035,1.096 -0.052,2.156 -0.052,3.18c-0,1.024 0.004,2.067 0.013,3.129c0.009,1.062 0.072,2.139 0.188,3.231c0.116,1.092 0.304,2.209 0.564,3.352c0.26,1.143 0.531,2.297 0.813,3.461c0.283,1.164 0.6,2.3 0.952,3.406c0.352,1.106 0.715,2.221 1.089,3.344c0.374,1.123 0.777,2.247 1.21,3.371c0.433,1.124 0.892,2.22 1.376,3.286c0.484,1.067 1.008,2.131 1.573,3.193c0.565,1.063 1.155,2.068 1.771,3.016c0.616,0.948 1.256,1.844 1.923,2.687c0.666,0.843 1.42,1.679 2.262,2.509c0.842,0.83 1.815,1.693 2.92,2.591c1.105,0.898 2.326,1.843 3.663,2.833c1.337,0.991 2.821,1.925 4.451,2.801c1.63,0.877 3.307,1.696 5.03,2.458c1.723,0.762 3.349,1.551 4.877,2.368c1.528,0.817 2.938,1.689 4.232,2.616c1.293,0.927 2.591,1.891 3.895,2.893c1.303,1.001 2.614,1.917 3.933,2.747c1.318,0.83 2.606,1.543 3.862,2.138c1.256,0.595 2.656,1.103 4.199,1.524c1.543,0.421 3.191,0.828 4.943,1.221c1.752,0.393 3.383,0.864 4.892,1.413c1.509,0.55 3.03,1.12 4.563,1.712c1.533,0.592 3.138,1.083 4.816,1.471c1.678,0.389 3.305,0.785 4.882,1.189c1.577,0.404 3.072,0.896 4.484,1.475c1.413,0.58 2.812,1.164 4.198,1.753c1.386,0.59 2.783,1.164 4.19,1.723c1.407,0.559 2.848,1.035 4.323,1.428c1.475,0.393 3.044,0.664 4.708,0.813c1.663,0.15 3.347,0.332 5.05,0.546c1.703,0.215 3.38,0.538 5.031,0.969c1.651,0.431 3.345,0.85 5.083,1.257c1.738,0.406 3.584,0.726 5.54,0.958c1.956,0.233 3.957,0.404 6.003,0.515c2.046,0.111 4.038,0.243 5.975,0.395c1.937,0.153 3.935,0.28 5.994,0.381c2.059,0.102 4.143,0.261 6.251,0.48c2.108,0.218 4.104,0.42 5.988,0.605c1.884,0.185 3.765,0.301 5.643,0.348c1.878,0.046 3.823,0.074 5.834,0.083c2.011,0.009 4.05,0.034 6.118,0.074c2.068,0.04 4.018,0.085 5.851,0.135c1.833,0.05 3.586,0.115 5.26,0.194c1.674,0.08 3.403,0.137 5.188,0.17c1.785,0.033 3.639,0.05 5.561,0.05c1.923,0 3.827,-0.009 5.713,-0.028c1.886,-0.019 3.717,-0.034 5.494,-0.046c1.777,-0.011 3.521,-0.017 5.233,-0.017l15.348,0c1.672,0 3.363,-0.029 5.072,-0.086c1.709,-0.058 3.449,-0.16 5.219,-0.309c1.77,-0.149 3.556,-0.343 5.359,-0.582c1.803,-0.24 3.633,-0.506 5.493,-0.798c1.859,-0.293 3.755,-0.595 5.688,-0.908c1.933,-0.313 3.867,-0.636 5.802,-0.97c1.935,-0.334 3.85,-0.668 5.745,-1.002c1.895,-0.334 3.751,-0.683 5.568,-1.047c1.817,-0.363 3.549,-0.703 5.196,-1.019c1.647,-0.316 3.189,-0.598 4.626,-0.844c1.437,-0.246 2.752,-0.462 3.945,-0.646c1.193,-0.185 2.37,-0.363 3.532,-0.534c1.162,-0.171 2.36,-0.362 3.594,-0.573c1.234,-0.211 2.488,-0.462 3.763,-0.753c1.275,-0.291 2.555,-0.608 3.841,-0.95c1.286,-0.342 2.576,-0.696 3.87,-1.06c1.294,-0.365 2.624,-0.744 3.99,-1.138c1.366,-0.394 2.733,-0.774 4.101,-1.139c1.368,-0.366 2.696,-0.735 3.983,-1.109c1.288,-0.374 2.642,-0.787 4.063,-1.239c1.421,-0.453 2.872,-0.922 4.353,-1.408c1.48,-0.486 2.924,-0.972 4.332,-1.458c1.408,-0.486 2.826,-0.991 4.254,-1.516c1.428,-0.524 2.837,-1.07 4.228,-1.635c1.39,-0.566 2.701,-1.19 3.932,-1.874c1.231,-0.683 2.391,-1.394 3.48,-2.132c1.089,-0.738 2.135,-1.525 3.14,-2.361c1.004,-0.836 2.069,-1.743 3.196,-2.719c1.127,-0.977 2.388,-2.01 3.785,-3.099c1.397,-1.089 2.898,-2.255 4.506,-3.497c1.607,-1.242 3.077,-2.462 4.408,-3.659c1.332,-1.197 2.398,-2.365 3.198,-3.502c0.8,-1.138 1.422,-2.215 1.866,-3.232c0.444,-1.017 0.873,-1.969 1.287,-2.854c0.414,-0.885 0.825,-1.744 1.231,-2.574c0.406,-0.831 0.792,-1.758 1.158,-2.78c0.366,-1.023 0.745,-2.169 1.139,-3.437c0.394,-1.268 0.784,-2.566 1.17,-3.893c0.386,-1.328 0.723,-2.611 1.011,-3.85c0.288,-1.239 0.535,-2.476 0.739,-3.71c0.205,-1.234 0.389,-2.465 0.552,-3.693c0.163,-1.227 0.297,-2.381 0.402,-3.461c0.105,-1.08 0.163,-2.097 0.175,-3.05c0.013,-0.953 0.019,-1.93 0.019,-2.931c0,-1 -0.028,-2.032 -0.085,-3.094c-0.057,-1.062 -0.241,-2.134 -0.554,-3.217c-0.313,-1.082 -0.716,-2.156 -1.208,-3.222c-0.492,-1.065 -0.992,-2.096 -1.5,-3.09c-0.507,-0.995 -0.966,-1.997 -1.375,-3.008c-0.41,-1.011 -0.84,-2.047 -1.29,-3.108c-0.45,-1.061 -0.982,-2.129 -1.594,-3.203c-0.612,-1.074 -1.281,-2.153 -2.007,-3.235c-0.726,-1.083 -1.502,-2.161 -2.328,-3.237c-0.826,-1.075 -1.708,-2.111 -2.647,-3.106c-0.938,-0.995 -1.98,-2.011 -3.124,-3.049c-1.145,-1.038 -2.43,-2.162 -3.857,-3.373c-1.427,-1.211 -2.982,-2.42 -4.665,-3.628c-1.683,-1.208 -3.473,-2.327 -5.369,-3.358c-1.896,-1.031 -3.879,-2.021 -5.95,-2.971c-2.07,-0.95 -4.25,-1.927 -6.54,-2.929c-2.29,-1.002 -4.605,-1.982 -6.945,-2.938c-2.34,-0.956 -4.613,-1.826 -6.82,-2.611c-2.206,-0.785 -4.352,-1.547 -6.438,-2.288c-2.086,-0.74 -4.245,-1.537 -6.477,-2.39c-2.232,-0.853 -4.483,-1.704 -6.753,-2.551c-2.269,-0.848 -4.539,-1.578 -6.808,-2.191c-2.269,-0.613 -4.34,-1.252 -6.212,-1.917c-1.872,-0.665 -3.686,-1.409 -5.443,-2.233c-1.756,-0.824 -3.711,-1.6 -5.863,-2.328c-2.152,-0.729 -4.33,-1.363 -6.534,-1.904c-2.203,-0.541 -4.206,-1.035 -6.007,-1.484c-1.801,-0.449 -3.438,-0.915 -4.909,-1.398c-1.472,-0.483 -3.101,-0.959 -4.887,-1.429c-1.786,-0.47 -3.802,-0.84 -6.047,-1.11c-2.245,-0.27 -4.408,-0.444 -6.488,-0.522c-2.08,-0.078 -3.943,-0.146 -5.589,-0.205c-1.646,-0.059 -3.117,-0.191 -4.413,-0.397c-1.295,-0.206 -2.59,-0.485 -3.883,-0.835c-1.293,-0.351 -2.713,-0.661 -4.261,-0.931c-1.548,-0.27 -3.081,-0.428 -4.6,-0.476c-1.519,-0.047 -2.795,-0.053 -3.828,-0.015c-1.551,0.056 -2.809,0.463 -3.775,1.22" style="fill:none;fill-rule:nonzero;stroke:#000;stroke-width:3.54px;"/><path d="M383.549,361.016c0.103,0.064 0.72,0.126 1.849,0.185c1.129,0.059 2.384,0.089 3.764,0.089l6.618,0c0.716,0 1.237,-0.038 1.563,-0.115c0.327,-0.077 0.524,-0.166 0.593,-0.268c0.069,-0.102 0.061,-0.17 -0.022,-0.204c-0.084,-0.034 -0.434,-0.041 -1.05,-0.023c-0.617,0.018 -1.377,0.192 -2.281,0.522c-0.905,0.33 -1.8,0.76 -2.686,1.291c-0.886,0.531 -1.692,1.124 -2.418,1.78c-0.726,0.656 -1.355,1.346 -1.887,2.072c-0.532,0.726 -0.975,1.493 -1.327,2.3c-0.352,0.808 -0.569,1.584 -0.651,2.327c-0.082,0.744 0.122,1.403 0.611,1.978c0.489,0.575 1.195,1.038 2.119,1.391c0.924,0.352 1.891,0.589 2.902,0.709c1.01,0.12 2.089,0.135 3.236,0.043c1.147,-0.092 2.415,-0.404 3.805,-0.936c2.096,-0.804 3.895,-1.815 5.398,-3.033" style="fill:none;fill-rule:nonzero;stroke:#000;stroke-width:3.54px;"/><path d="M70.702,493.832l0,-1.515c0,-0.557 0.015,-1.044 0.044,-1.461c0.029,-0.417 0.059,-0.804 0.089,-1.161c0.03,-0.357 0.042,-0.664 0.034,-0.922c-0.008,-0.258 -0.185,-0.435 -0.531,-0.533c-0.346,-0.098 -0.869,-0.068 -1.57,0.091c-0.7,0.158 -1.417,0.65 -2.149,1.476c-0.732,0.826 -1.327,1.861 -1.785,3.106c-0.458,1.245 -0.748,2.469 -0.871,3.671c-0.123,1.202 0.02,2.188 0.43,2.957c0.409,0.769 1.05,1.254 1.921,1.455c0.871,0.201 1.754,0.246 2.649,0.137c0.895,-0.109 1.672,-0.44 2.33,-0.992c0.658,-0.552 1.136,-1.277 1.434,-2.175c0.298,-0.898 0.475,-1.898 0.531,-3c0.056,-1.102 -0.044,-2.08 -0.301,-2.934c-0.256,-0.854 -0.708,-1.467 -1.354,-1.841c-0.647,-0.373 -1.451,-0.495 -2.411,-0.364c-0.961,0.131 -2.003,0.711 -3.125,1.739c-1.122,1.028 -2.026,2.313 -2.71,3.855c-0.684,1.542 -0.805,2.82 -0.363,3.834c0.443,1.015 1.691,1.462 3.744,1.343c2.053,-0.119 3.846,-0.727 5.377,-1.823c1.531,-1.096 2.434,-2.221 2.707,-3.376c0.273,-1.154 0.097,-1.947 -0.529,-2.377c-0.626,-0.43 -1.032,-0.496 -1.217,-0.196" style="fill:none;fill-rule:nonzero;stroke:#000;stroke-width:7.09px;"/><path d="M205.507,493.103c0.071,-0.502 0.149,-1.026 0.234,-1.57c0.085,-0.544 0.119,-0.956 0.102,-1.236c-0.017,-0.28 -0.147,-0.517 -0.39,-0.711c-0.243,-0.194 -0.565,-0.368 -0.965,-0.522c-0.401,-0.154 -0.929,-0.244 -1.585,-0.27c-0.656,-0.026 -1.481,0.277 -2.473,0.907c-0.992,0.631 -1.911,1.681 -2.758,3.151c-0.846,1.47 -1.338,2.866 -1.477,4.187c-0.138,1.321 0.246,2.257 1.153,2.807c0.908,0.55 2.055,0.746 3.443,0.587c1.388,-0.159 2.519,-0.696 3.393,-1.611c0.874,-0.916 1.443,-2.018 1.707,-3.307c0.264,-1.289 0.375,-2.463 0.333,-3.522c-0.042,-1.059 -0.277,-1.769 -0.707,-2.131c-0.43,-0.361 -1.035,-0.235 -1.815,0.38c-0.78,0.614 -1.466,1.589 -2.058,2.924c-0.591,1.335 -0.941,2.558 -1.049,3.669c-0.108,1.111 0.111,1.853 0.658,2.225c0.547,0.373 1.305,0.3 2.274,-0.219c0.969,-0.518 1.738,-1.423 2.304,-2.713c0.567,-1.29 0.903,-2.394 1.009,-3.311c0.106,-0.917 -0.012,-1.448 -0.353,-1.592c-0.483,-0.204 -1.05,0.393 -1.702,1.791" style="fill:none;fill-rule:nonzero;stroke:#000;stroke-width:7.09px;"/><path d="M337.212,494.288l0,-2.145c0,-0.235 -0.028,-0.464 -0.085,-0.687c-0.057,-0.223 -0.218,-0.407 -0.483,-0.553c-0.265,-0.146 -0.609,-0.226 -1.029,-0.24c-0.421,-0.014 -0.849,0.175 -1.286,0.565c-0.436,0.391 -0.801,1.084 -1.093,2.08c-0.292,0.996 -0.448,2.057 -0.469,3.183c-0.02,1.126 0.35,2.03 1.109,2.712c0.76,0.682 1.916,1.034 3.468,1.057c1.553,0.023 2.973,-0.365 4.263,-1.163c1.289,-0.798 2.122,-1.874 2.5,-3.228c0.377,-1.354 0.345,-2.616 -0.097,-3.787c-0.442,-1.17 -1.248,-1.983 -2.417,-2.439c-1.17,-0.455 -2.31,-0.546 -3.42,-0.272c-1.11,0.274 -2.087,1.078 -2.929,2.411c-0.843,1.334 -1.417,2.704 -1.723,4.112c-0.306,1.407 -0.306,2.486 -0,3.236c0.306,0.75 1.079,1.065 2.318,0.946c1.24,-0.119 2.401,-0.683 3.483,-1.69c1.082,-1.007 1.789,-2.036 2.12,-3.087c0.331,-1.051 0.343,-1.793 0.034,-2.226c-0.434,-0.609 -1.447,0.168 -3.039,2.331" style="fill:none;fill-rule:nonzero;stroke:#000;stroke-width:7.09px;"/><path d="M65.136,513.954c0.008,-0.287 0.816,-0.466 2.424,-0.535c1.608,-0.069 3.339,-0.131 5.191,-0.187c1.852,-0.056 3.511,-0.29 4.976,-0.702c1.465,-0.413 2.452,-0.771 2.962,-1.075c0.51,-0.304 0.761,-0.48 0.754,-0.528c-0.007,-0.048 -0.168,-0.053 -0.483,-0.016c-0.315,0.037 -0.669,0.155 -1.063,0.353c-0.394,0.198 -0.797,0.398 -1.21,0.599c-0.413,0.202 -0.881,0.481 -1.404,0.839c-0.523,0.358 -1.082,0.831 -1.677,1.418c-0.595,0.588 -1.183,1.308 -1.762,2.162c-0.579,0.854 -1.09,1.707 -1.531,2.56c-0.441,0.853 -0.845,1.641 -1.212,2.366c-0.367,0.725 -0.631,1.368 -0.793,1.931c-0.162,0.563 -0.212,1.088 -0.15,1.575c0.062,0.488 0.4,0.95 1.015,1.389c0.614,0.439 1.399,0.808 2.354,1.108c0.955,0.3 1.962,0.489 3.022,0.567c1.541,0.113 2.905,-0.577 4.093,-2.07" style="fill:none;fill-rule:nonzero;stroke:#000;stroke-width:3.54px;"/><path d="M196.746,516.233c0.193,-0.141 0.917,-0.228 2.171,-0.26c1.255,-0.032 2.708,-0.042 4.359,-0.031c1.651,0.011 3.25,0.008 4.795,-0.01c1.546,-0.018 2.738,-0.082 3.575,-0.192c0.837,-0.11 1.357,-0.177 1.56,-0.2c0.203,-0.024 0.296,-0.035 0.28,-0.036c-0.017,-0 -0.113,0.009 -0.29,0.029c-0.176,0.019 -0.423,0.063 -0.741,0.132c-0.318,0.069 -0.726,0.163 -1.226,0.282c-0.5,0.119 -1.1,0.307 -1.803,0.564c-0.702,0.257 -1.452,0.6 -2.25,1.03c-0.798,0.43 -1.573,0.902 -2.327,1.417c-0.754,0.515 -1.413,1.002 -1.979,1.461c-0.566,0.459 -1.01,0.916 -1.332,1.371c-0.322,0.455 -0.518,0.914 -0.588,1.379c-0.07,0.465 -0.105,0.921 -0.105,1.369c-0,0.448 0.043,0.87 0.128,1.267c0.086,0.397 0.2,0.759 0.343,1.085c0.143,0.326 0.294,0.622 0.454,0.888c0.16,0.266 0.35,0.52 0.569,0.763c0.22,0.243 0.528,0.467 0.925,0.672c0.398,0.205 1.02,0.355 1.868,0.452c0.848,0.097 2.102,0.051 3.763,-0.136c2.463,-0.278 5.131,-0.915 8.005,-1.91" style="fill:none;fill-rule:nonzero;stroke:#000;stroke-width:3.54px;"/><path d="M335.192,517.418l-0.134,-0l0.298,-0.002c0.331,-0.002 1.16,-0.006 2.486,-0.014c1.326,-0.007 2.729,-0.084 4.208,-0.229c1.479,-0.145 2.794,-0.348 3.945,-0.609c1.151,-0.261 2.03,-0.495 2.639,-0.701c0.609,-0.207 0.98,-0.333 1.116,-0.38c0.135,-0.046 0.204,-0.069 0.205,-0.07l0,0l-0.04,-0l-0.596,0c-0.131,0 -0.3,0.005 -0.508,0.014c-0.208,0.009 -0.478,0.086 -0.808,0.232c-0.331,0.145 -0.707,0.362 -1.129,0.652c-0.422,0.289 -0.904,0.649 -1.447,1.079c-0.542,0.43 -1.126,0.917 -1.752,1.46c-0.626,0.543 -1.229,1.094 -1.811,1.653c-0.581,0.559 -1.068,1.083 -1.461,1.571c-0.393,0.488 -0.659,0.936 -0.8,1.344c-0.141,0.407 -0.213,0.813 -0.215,1.217c-0.003,0.404 0.025,0.824 0.081,1.259c0.056,0.435 0.213,0.861 0.468,1.277c0.255,0.416 0.689,0.77 1.3,1.06c0.611,0.29 1.47,0.474 2.576,0.552c1.106,0.078 2.332,0.075 3.677,-0.008c2.114,-0.131 3.583,-0.453 4.408,-0.965" style="fill:none;fill-rule:nonzero;stroke:#000;stroke-width:3.54px;"/><path d="M134.86,454.985c-0.323,-0.208 -0.793,-0.425 -1.408,-0.651c-0.615,-0.225 -1.361,-0.356 -2.238,-0.39c-0.877,-0.035 -1.928,-0.052 -3.153,-0.053c-1.225,-0 -2.567,0.004 -4.027,0.013c-1.46,0.009 -3.012,0.024 -4.658,0.045c-1.646,0.021 -3.199,0.032 -4.659,0.032c-1.46,0 -3.053,0 -4.78,0l-8.408,0c-1.169,0 -2.379,0.005 -3.628,0.014c-1.249,0.009 -2.629,0.11 -4.14,0.303c-1.511,0.193 -3.013,0.46 -4.506,0.803c-1.493,0.343 -2.871,0.686 -4.135,1.031c-1.264,0.344 -2.451,0.654 -3.561,0.93c-1.11,0.276 -2.196,0.57 -3.258,0.881c-1.061,0.312 -2.139,0.673 -3.233,1.085c-1.094,0.412 -2.169,0.835 -3.225,1.269c-1.056,0.434 -2.014,0.851 -2.872,1.249c-0.859,0.398 -1.702,0.799 -2.529,1.202c-0.828,0.403 -1.725,0.856 -2.693,1.357c-0.968,0.502 -1.981,1.045 -3.041,1.63c-1.06,0.585 -2.122,1.206 -3.186,1.862c-1.064,0.656 -2.124,1.356 -3.178,2.1c-1.054,0.744 -2.055,1.56 -3.002,2.447c-0.947,0.887 -1.789,1.797 -2.526,2.729c-0.737,0.932 -1.411,1.815 -2.022,2.65c-0.611,0.835 -1.181,1.652 -1.71,2.451c-0.529,0.799 -1.061,1.633 -1.597,2.5c-0.536,0.868 -1.091,1.8 -1.668,2.798c-0.576,0.998 -1.119,2.009 -1.63,3.033c-0.511,1.024 -0.945,2.008 -1.305,2.953c-0.359,0.945 -0.682,1.845 -0.969,2.699c-0.287,0.854 -0.528,1.676 -0.722,2.466c-0.195,0.79 -0.389,1.629 -0.582,2.517c-0.193,0.888 -0.337,1.831 -0.431,2.829c-0.094,0.998 -0.181,2 -0.262,3.004c-0.081,1.005 -0.153,1.955 -0.216,2.85c-0.063,0.896 -0.095,1.754 -0.096,2.576c-0.001,0.822 -0.002,1.628 -0.002,2.419l0,2.473c0,0.858 0.024,1.717 0.071,2.579c0.047,0.862 0.143,1.68 0.288,2.454c0.144,0.774 0.349,1.616 0.613,2.525c0.264,0.909 0.581,1.735 0.951,2.477c0.37,0.743 0.791,1.458 1.263,2.147c0.472,0.689 0.994,1.383 1.568,2.082c0.574,0.699 1.198,1.393 1.873,2.083c0.675,0.69 1.377,1.364 2.105,2.023c0.728,0.659 1.432,1.284 2.113,1.874c0.681,0.59 1.345,1.173 1.994,1.75c0.648,0.577 1.317,1.14 2.005,1.688c0.688,0.548 1.381,1.062 2.078,1.542c0.697,0.48 1.458,0.909 2.282,1.288c0.825,0.378 1.731,0.687 2.717,0.925c0.987,0.238 2.001,0.429 3.043,0.573c1.042,0.143 2.123,0.319 3.244,0.528c1.121,0.208 2.325,0.464 3.614,0.767c1.289,0.303 2.631,0.611 4.029,0.923c1.397,0.312 2.731,0.611 4.003,0.898c1.271,0.287 2.476,0.513 3.615,0.678c1.139,0.165 2.216,0.315 3.233,0.447c1.016,0.133 2.088,0.264 3.214,0.395c1.127,0.131 2.365,0.258 3.714,0.381c1.349,0.123 2.742,0.24 4.18,0.351c1.438,0.11 2.885,0.245 4.341,0.405c1.456,0.16 2.996,0.302 4.619,0.427c1.623,0.125 3.299,0.295 5.029,0.51c1.73,0.215 3.423,0.451 5.08,0.707c1.656,0.256 3.255,0.481 4.797,0.675c1.542,0.194 3.1,0.354 4.675,0.48c1.575,0.126 3.265,0.181 5.071,0.165c1.806,-0.016 3.592,-0.098 5.36,-0.246c1.767,-0.148 3.473,-0.26 5.117,-0.335c1.644,-0.075 3.285,-0.114 4.924,-0.115c1.639,-0.001 3.337,-0.007 5.094,-0.016c1.758,-0.009 3.495,-0.048 5.211,-0.118c1.717,-0.07 3.29,-0.111 4.72,-0.123c1.43,-0.013 2.783,-0.019 4.06,-0.019l3.947,0c1.355,0 2.706,-0.015 4.054,-0.044c1.348,-0.029 2.7,-0.049 4.055,-0.059c1.355,-0.01 2.75,-0.069 4.186,-0.176c1.435,-0.107 2.878,-0.246 4.328,-0.418c1.45,-0.172 2.774,-0.305 3.971,-0.4c1.197,-0.095 2.25,-0.148 3.16,-0.161c0.91,-0.013 1.789,-0.062 2.639,-0.147c0.85,-0.086 1.778,-0.219 2.784,-0.4c1.006,-0.181 2.041,-0.348 3.105,-0.503c1.064,-0.154 2.027,-0.268 2.887,-0.341c0.861,-0.073 1.651,-0.135 2.372,-0.186c0.721,-0.051 1.512,-0.15 2.374,-0.297c0.862,-0.148 1.794,-0.337 2.796,-0.567c1.002,-0.231 1.946,-0.482 2.831,-0.753c0.885,-0.271 1.754,-0.588 2.605,-0.949c0.851,-0.361 1.73,-0.754 2.638,-1.178c0.908,-0.424 1.804,-0.82 2.688,-1.188c0.884,-0.368 1.694,-0.714 2.43,-1.038c0.736,-0.324 1.414,-0.692 2.034,-1.103c0.62,-0.411 1.273,-0.882 1.957,-1.415c0.684,-0.532 1.406,-1.121 2.164,-1.765c0.758,-0.645 1.455,-1.287 2.09,-1.925c0.635,-0.639 1.184,-1.306 1.645,-2.002c0.462,-0.696 0.861,-1.441 1.197,-2.237c0.337,-0.796 0.696,-1.672 1.078,-2.628c0.382,-0.956 0.8,-1.955 1.254,-2.996c0.455,-1.041 0.886,-2.108 1.294,-3.2c0.408,-1.092 0.757,-2.195 1.045,-3.308c0.288,-1.113 0.51,-2.236 0.667,-3.369c0.157,-1.133 0.252,-2.316 0.287,-3.548c0.035,-1.232 0.053,-2.49 0.053,-3.773c0,-1.283 -0.009,-2.603 -0.027,-3.959c-0.018,-1.357 -0.154,-2.679 -0.407,-3.968c-0.253,-1.288 -0.585,-2.58 -0.996,-3.875c-0.41,-1.295 -0.862,-2.591 -1.355,-3.889c-0.493,-1.297 -1.104,-2.56 -1.833,-3.787c-0.729,-1.228 -1.552,-2.435 -2.469,-3.622c-0.917,-1.187 -1.85,-2.319 -2.802,-3.396c-0.951,-1.077 -1.96,-2.191 -3.027,-3.341c-1.067,-1.15 -2.312,-2.289 -3.736,-3.417c-1.423,-1.128 -2.949,-2.143 -4.577,-3.044c-1.628,-0.901 -3.15,-1.698 -4.568,-2.391c-1.418,-0.693 -2.738,-1.402 -3.96,-2.129c-1.222,-0.727 -2.425,-1.49 -3.608,-2.29c-1.183,-0.8 -2.434,-1.469 -3.753,-2.009c-1.319,-0.54 -2.765,-0.934 -4.339,-1.184c-1.574,-0.249 -3.107,-0.557 -4.6,-0.925c-1.493,-0.367 -2.941,-0.808 -4.343,-1.322c-1.402,-0.514 -2.751,-1.044 -4.048,-1.589c-1.297,-0.546 -2.648,-1.073 -4.053,-1.581c-1.405,-0.508 -2.739,-1.006 -4.003,-1.492c-1.263,-0.486 -2.477,-0.987 -3.641,-1.501c-1.164,-0.514 -2.45,-0.988 -3.856,-1.421c-1.407,-0.433 -2.932,-0.74 -4.576,-0.921c-1.644,-0.181 -3.34,-0.293 -5.09,-0.336c-1.75,-0.043 -3.557,-0.065 -5.423,-0.066c-1.866,-0.001 -3.85,0.012 -5.953,0.039c-2.102,0.027 -4,0.192 -5.694,0.493c-2.563,0.456 -4.04,1.218 -4.432,2.284" style="fill:none;fill-rule:nonzero;stroke:#000;stroke-width:3.54px;"/><path d="M221.81,424.27c-0.024,-0.301 -0.109,-0.645 -0.253,-1.031c-0.144,-0.386 -0.368,-0.721 -0.671,-1.003c-0.303,-0.282 -0.902,-0.604 -1.796,-0.965c-0.894,-0.361 -2.264,-0.74 -4.111,-1.136c-1.847,-0.396 -4.105,-0.742 -6.774,-1.039c-2.67,-0.297 -5.437,-0.515 -8.303,-0.655c-2.866,-0.139 -5.668,-0.22 -8.406,-0.243c-2.738,-0.023 -5.493,-0.034 -8.264,-0.034c-2.771,-0 -5.581,-0 -8.428,-0c-2.847,0 -5.471,-0.005 -7.872,-0.014c-2.401,-0.009 -4.651,-0.082 -6.751,-0.218c-2.1,-0.136 -4.289,-0.238 -6.569,-0.305c-2.28,-0.067 -4.629,-0.016 -7.048,0.155c-2.419,0.17 -4.695,0.466 -6.828,0.887c-2.133,0.421 -4.07,0.831 -5.811,1.228c-1.741,0.397 -3.563,0.768 -5.465,1.114c-1.902,0.346 -3.934,0.642 -6.095,0.889c-2.161,0.247 -4.303,0.483 -6.424,0.705c-2.122,0.223 -4.081,0.436 -5.876,0.638c-1.796,0.203 -3.486,0.449 -5.069,0.738c-1.584,0.289 -3.228,0.663 -4.931,1.121c-1.704,0.458 -3.515,0.971 -5.432,1.537c-1.917,0.567 -3.811,1.099 -5.682,1.598c-1.871,0.499 -3.654,1.034 -5.348,1.606c-1.695,0.572 -3.392,1.21 -5.091,1.916c-1.699,0.705 -3.396,1.428 -5.089,2.167c-1.693,0.739 -3.352,1.488 -4.975,2.245c-1.624,0.757 -3.235,1.574 -4.834,2.451c-1.599,0.877 -3.138,1.756 -4.616,2.639c-1.478,0.883 -2.741,1.678 -3.79,2.384c-1.049,0.707 -1.971,1.374 -2.767,2.002c-0.796,0.628 -1.588,1.309 -2.376,2.043c-0.788,0.734 -1.611,1.481 -2.47,2.243c-0.859,0.762 -1.747,1.464 -2.667,2.106c-0.919,0.643 -1.884,1.277 -2.893,1.904c-1.009,0.627 -1.997,1.312 -2.963,2.055c-0.966,0.743 -1.896,1.553 -2.788,2.431c-0.893,0.878 -1.765,1.796 -2.617,2.756c-0.852,0.96 -1.693,1.945 -2.525,2.955c-0.832,1.011 -1.629,2.013 -2.393,3.008c-0.764,0.994 -1.443,1.992 -2.037,2.993c-0.594,1.001 -1.097,2.041 -1.508,3.121c-0.411,1.08 -0.765,2.206 -1.062,3.379c-0.297,1.172 -0.616,2.37 -0.956,3.593c-0.34,1.223 -0.708,2.477 -1.104,3.762c-0.396,1.285 -0.728,2.551 -0.997,3.799c-0.269,1.248 -0.471,2.46 -0.606,3.636c-0.135,1.176 -0.264,2.351 -0.385,3.526c-0.122,1.175 -0.253,2.34 -0.395,3.497c-0.142,1.157 -0.23,2.283 -0.265,3.379c-0.035,1.096 -0.052,2.156 -0.052,3.18c-0,1.024 0.004,2.067 0.013,3.129c0.009,1.062 0.072,2.139 0.188,3.231c0.116,1.092 0.304,2.209 0.564,3.352c0.26,1.143 0.531,2.297 0.813,3.461c0.283,1.164 0.6,2.3 0.952,3.406c0.352,1.106 0.715,2.221 1.089,3.344c0.374,1.123 0.777,2.247 1.21,3.371c0.433,1.124 0.892,2.22 1.376,3.286c0.484,1.067 1.008,2.131 1.573,3.193c0.565,1.063 1.155,2.068 1.771,3.016c0.616,0.948 1.256,1.844 1.923,2.687c0.666,0.843 1.42,1.679 2.262,2.509c0.842,0.83 1.815,1.693 2.92,2.591c1.105,0.898 2.326,1.843 3.663,2.833c1.337,0.991 2.821,1.925 4.451,2.801c1.63,0.877 3.307,1.696 5.03,2.458c1.723,0.762 3.349,1.551 4.877,2.368c1.528,0.817 2.938,1.689 4.232,2.616c1.293,0.927 2.591,1.891 3.895,2.893c1.303,1.001 2.614,1.917 3.933,2.747c1.318,0.83 2.606,1.543 3.862,2.138c1.256,0.595 2.656,1.103 4.199,1.524c1.543,0.421 3.191,0.828 4.943,1.221c1.752,0.393 3.383,0.864 4.892,1.413c1.509,0.55 3.03,1.12 4.563,1.712c1.533,0.592 3.138,1.083 4.816,1.471c1.678,0.389 3.305,0.785 4.882,1.189c1.577,0.404 3.072,0.896 4.484,1.475c1.413,0.58 2.812,1.164 4.198,1.753c1.386,0.59 2.783,1.164 4.19,1.723c1.407,0.559 2.848,1.035 4.323,1.428c1.475,0.393 3.044,0.664 4.708,0.813c1.663,0.15 3.347,0.332 5.05,0.546c1.703,0.215 3.38,0.538 5.031,0.969c1.651,0.431 3.345,0.85 5.083,1.257c1.738,0.406 3.584,0.726 5.54,0.958c1.956,0.233 3.957,0.404 6.003,0.515c2.046,0.111 4.038,0.243 5.975,0.395c1.937,0.153 3.935,0.28 5.994,0.381c2.059,0.102 4.143,0.261 6.251,0.48c2.108,0.218 4.104,0.42 5.988,0.605c1.884,0.185 3.765,0.301 5.643,0.348c1.878,0.046 3.823,0.074 5.834,0.083c2.011,0.009 4.05,0.034 6.118,0.074c2.068,0.04 4.018,0.085 5.851,0.135c1.833,0.05 3.586,0.115 5.26,0.194c1.674,0.08 3.403,0.137 5.188,0.17c1.785,0.033 3.639,0.05 5.561,0.05c1.923,0 3.827,-0.009 5.713,-0.028c1.886,-0.019 3.717,-0.034 5.494,-0.046c1.777,-0.011 3.521,-0.017 5.233,-0.017l15.348,0c1.672,0 3.363,-0.029 5.072,-0.086c1.709,-0.058 3.449,-0.16 5.219,-0.309c1.77,-0.149 3.556,-0.343 5.359,-0.582c1.803,-0.24 3.633,-0.506 5.493,-0.798c1.859,-0.293 3.755,-0.595 5.688,-0.908c1.933,-0.313 3.867,-0.636 5.802,-0.97c1.935,-0.334 3.85,-0.668 5.745,-1.002c1.895,-0.334 3.751,-0.683 5.568,-1.047c1.817,-0.363 3.549,-0.703 5.196,-1.019c1.647,-0.316 3.189,-0.598 4.626,-0.844c1.437,-0.246 2.752,-0.462 3.945,-0.646c1.193,-0.185 2.37,-0.363 3.532,-0.534c1.162,-0.171 2.36,-0.362 3.594,-0.573c1.234,-0.211 2.488,-0.462 3.763,-0.753c1.275,-0.291 2.555,-0.608 3.841,-0.95c1.286,-0.342 2.576,-0.696 3.87,-1.06c1.294,-0.365 2.624,-0.744 3.99,-1.138c1.366,-0.394 2.733,-0.774 4.101,-1.139c1.368,-0.366 2.696,-0.735 3.983,-1.109c1.288,-0.374 2.642,-0.787 4.063,-1.239c1.421,-0.453 2.872,-0.922 4.353,-1.408c1.48,-0.486 2.924,-0.972 4.332,-1.458c1.408,-0.486 2.826,-0.991 4.254,-1.516c1.428,-0.524 2.837,-1.07 4.228,-1.635c1.39,-0.566 2.701,-1.19 3.932,-1.874c1.231,-0.683 2.391,-1.394 3.48,-2.132c1.089,-0.738 2.135,-1.525 3.14,-2.361c1.004,-0.836 2.069,-1.743 3.196,-2.719c1.127,-0.977 2.388,-2.01 3.785,-3.099c1.397,-1.089 2.898,-2.255 4.506,-3.497c1.607,-1.242 3.077,-2.462 4.408,-3.659c1.332,-1.197 2.398,-2.365 3.198,-3.502c0.8,-1.138 1.422,-2.215 1.866,-3.232c0.444,-1.017 0.873,-1.969 1.287,-2.854c0.414,-0.885 0.825,-1.744 1.231,-2.574c0.406,-0.831 0.792,-1.758 1.158,-2.78c0.366,-1.023 0.745,-2.169 1.139,-3.437c0.394,-1.268 0.784,-2.566 1.17,-3.893c0.386,-1.328 0.723,-2.611 1.011,-3.85c0.288,-1.239 0.535,-2.476 0.739,-3.71c0.205,-1.234 0.389,-2.465 0.552,-3.693c0.163,-1.227 0.297,-2.381 0.402,-3.461c0.105,-1.08 0.163,-2.097 0.175,-3.05c0.013,-0.953 0.019,-1.93 0.019,-2.931c0,-1 -0.028,-2.032 -0.085,-3.094c-0.057,-1.062 -0.241,-2.134 -0.554,-3.217c-0.313,-1.082 -0.716,-2.156 -1.208,-3.222c-0.492,-1.065 -0.992,-2.096 -1.5,-3.09c-0.507,-0.995 -0.966,-1.997 -1.375,-3.008c-0.41,-1.011 -0.84,-2.047 -1.29,-3.108c-0.45,-1.061 -0.982,-2.129 -1.594,-3.203c-0.612,-1.074 -1.281,-2.153 -2.007,-3.235c-0.726,-1.083 -1.502,-2.161 -2.328,-3.237c-0.826,-1.075 -1.708,-2.111 -2.647,-3.106c-0.938,-0.995 -1.98,-2.011 -3.124,-3.049c-1.145,-1.038 -2.43,-2.162 -3.857,-3.373c-1.427,-1.211 -2.982,-2.42 -4.665,-3.628c-1.683,-1.208 -3.473,-2.327 -5.369,-3.358c-1.896,-1.031 -3.879,-2.021 -5.95,-2.971c-2.07,-0.95 -4.25,-1.927 -6.54,-2.929c-2.29,-1.002 -4.605,-1.982 -6.945,-2.938c-2.34,-0.956 -4.613,-1.826 -6.82,-2.611c-2.206,-0.785 -4.352,-1.547 -6.438,-2.288c-2.086,-0.74 -4.245,-1.537 -6.477,-2.39c-2.232,-0.853 -4.483,-1.704 -6.753,-2.551c-2.269,-0.848 -4.539,-1.578 -6.808,-2.191c-2.269,-0.613 -4.34,-1.252 -6.212,-1.917c-1.872,-0.665 -3.686,-1.409 -5.443,-2.233c-1.756,-0.824 -3.711,-1.6 -5.863,-2.328c-2.152,-0.729 -4.33,-1.363 -6.534,-1.904c-2.203,-0.541 -4.206,-1.035 -6.007,-1.484c-1.801,-0.449 -3.438,-0.915 -4.909,-1.398c-1.472,-0.483 -3.101,-0.959 -4.887,-1.429c-1.786,-0.47 -3.802,-0.84 -6.047,-1.11c-2.245,-0.27 -4.408,-0.444 -6.488,-0.522c-2.08,-0.078 -3.943,-0.146 -5.589,-0.205c-1.646,-0.059 -3.117,-0.191 -4.413,-0.397c-1.295,-0.206 -2.59,-0.485 -3.883,-0.835c-1.293,-0.351 -2.713,-0.661 -4.261,-0.931c-1.548,-0.27 -3.081,-0.428 -4.6,-0.476c-1.519,-0.047 -2.795,-0.053 -3.828,-0.015c-1.551,0.056 -2.809,0.463 -3.775,1.22" style="fill:none;fill-rule:nonzero;stroke:#000;stroke-width:3.54px;"/><path d="M237.761,341.03c-0.187,-0.167 0.548,-0.342 2.205,-0.525c1.657,-0.183 3.252,-0.366 4.784,-0.548c1.533,-0.182 2.826,-0.35 3.881,-0.504c1.055,-0.154 1.83,-0.263 2.324,-0.327c0.494,-0.064 0.788,-0.111 0.882,-0.142c0.094,-0.031 0.136,-0.046 0.127,-0.048c-0.009,-0.001 -0.172,0.003 -0.488,0.012c-0.317,0.009 -0.868,0.201 -1.653,0.575c-0.785,0.375 -1.648,0.995 -2.588,1.861c-0.94,0.866 -1.834,1.863 -2.681,2.991c-0.847,1.128 -1.56,2.179 -2.138,3.151c-0.578,0.973 -0.975,1.756 -1.192,2.349c-0.216,0.593 -0.331,1.02 -0.345,1.282c-0.014,0.262 0.031,0.485 0.134,0.669c0.103,0.185 0.448,0.324 1.036,0.419c0.588,0.095 1.421,0.143 2.499,0.147c1.079,0.003 2.24,-0.063 3.483,-0.199c1.243,-0.136 2.42,-0.31 3.532,-0.521c1.641,-0.312 3.039,-1.153 4.195,-2.524" style="fill:none;fill-rule:nonzero;stroke:#000;stroke-width:3.54px;"/><path d="M390.824,563.332c0,-0.244 0.03,-0.534 0.09,-0.87c0.06,-0.336 0.243,-0.663 0.549,-0.981c0.305,-0.318 0.685,-0.697 1.137,-1.135c0.453,-0.439 0.9,-0.916 1.341,-1.432c0.442,-0.516 0.791,-0.939 1.048,-1.268c0.257,-0.329 0.418,-0.487 0.483,-0.473c0.065,0.014 0.071,0.386 0.017,1.116c-0.054,0.73 -0.18,1.666 -0.379,2.807c-0.198,1.141 -0.396,2.356 -0.591,3.645c-0.196,1.289 -0.378,2.496 -0.545,3.622c-0.168,1.126 -0.281,1.999 -0.339,2.619c-0.058,0.62 -0.077,1.002 -0.056,1.146c0.021,0.143 0.149,0.216 0.384,0.219c0.235,0.002 0.363,-0.045 0.384,-0.141" style="fill:none;fill-rule:nonzero;stroke:#000;stroke-width:3.54px;"/><path d="M389.543,574.75c0.105,-0.022 0.542,-0.11 1.313,-0.265c0.77,-0.155 1.876,-0.295 3.317,-0.423c2.134,-0.189 4.534,-0.636 7.201,-1.34" style="fill:none;fill-rule:nonzero;stroke:#000;stroke-width:3.54px;"/><path d="M239.937,538.415c0.14,-0.081 0.783,-0.137 1.928,-0.168c1.146,-0.03 2.448,-0.054 3.905,-0.07c1.458,-0.016 2.743,-0.143 3.854,-0.383c1.112,-0.239 1.839,-0.466 2.181,-0.68c0.342,-0.214 0.478,-0.335 0.406,-0.364c-0.072,-0.029 -0.281,-0.007 -0.63,0.064c-0.348,0.071 -0.748,0.246 -1.201,0.525c-0.453,0.278 -0.975,0.614 -1.569,1.007c-0.594,0.393 -1.236,0.892 -1.927,1.499c-0.691,0.607 -1.334,1.364 -1.929,2.273c-0.595,0.908 -1.006,1.83 -1.234,2.766c-0.228,0.936 -0.272,1.665 -0.133,2.187c0.139,0.522 0.524,0.851 1.153,0.987c0.63,0.135 1.397,0.207 2.302,0.215c0.905,0.008 1.886,-0.024 2.942,-0.096c1.056,-0.072 2.102,-0.219 3.139,-0.441c1.037,-0.222 1.698,-0.368 1.983,-0.44c0.285,-0.072 0.47,-0.227 0.553,-0.465" style="fill:none;fill-rule:nonzero;stroke:#000;stroke-width:3.54px;"/><path d="M462.696,88.002c-0.262,-0.15 -0.564,-0.269 -0.906,-0.358c-0.343,-0.089 -0.595,-0.126 -0.756,-0.112c-0.161,0.014 -0.191,0.036 -0.088,0.066c0.103,0.03 0.361,0.105 0.773,0.226c0.412,0.12 1.871,0.203 4.378,0.249c2.506,0.046 5.48,0.054 8.92,0.026c3.44,-0.029 7.017,-0.104 10.731,-0.227c3.714,-0.123 6.964,-0.202 9.75,-0.237c2.786,-0.035 4.889,-0.053 6.309,-0.053l1.065,-0l-3.195,0" style="fill:none;fill-rule:nonzero;stroke:#000;stroke-width:3.54px;"/><path d="M462.065,100.618c0.108,-0.227 0.8,-0.47 2.077,-0.731c1.277,-0.261 3.345,-0.578 6.206,-0.952c2.861,-0.374 6.023,-0.671 9.486,-0.893c3.463,-0.222 6.774,-0.295 9.933,-0.22c3.158,0.075 6.128,0.222 8.91,0.441c2.781,0.219 5.152,0.336 7.112,0.35c1.96,0.014 3.279,-0.029 3.957,-0.129c0.91,-0.135 0.937,-0.363 0.079,-0.684" style="fill:none;fill-rule:nonzero;stroke:#000;stroke-width:3.54px;"/><path d="M461.504,112.603l-0.837,0c-0.3,0 -0.488,0 -0.564,0l-0.059,0.001l0.051,0.004c0.07,0.003 0.247,0.012 0.529,0.025c0.282,0.014 1.362,-0.001 3.24,-0.045c1.878,-0.043 4.234,-0.206 7.069,-0.488c2.834,-0.282 5.852,-0.49 9.053,-0.623c3.201,-0.133 6.342,-0.172 9.423,-0.115c3.081,0.056 5.823,0.136 8.225,0.239c2.402,0.103 4.505,0.146 6.307,0.127c1.803,-0.019 3.342,-0.127 4.617,-0.324c1.275,-0.197 2.184,-0.326 2.727,-0.388c0.543,-0.062 0.71,-0.04 0.503,0.064" style="fill:none;fill-rule:nonzero;stroke:#000;stroke-width:3.54px;"/><path d="M549.325,75.457c-0.225,-0.176 -0.387,0.327 -0.484,1.506c-0.098,1.179 -0.095,2.853 0.007,5.02c0.103,2.167 0.27,4.685 0.502,7.552c0.232,2.868 0.41,5.802 0.531,8.802c0.122,3 0.188,5.778 0.199,8.333c0.011,2.555 0.016,4.665 0.016,6.328l0,4.289c0,0.027 -0.017,-0.004 -0.05,-0.093c-0.048,-0.127 -0.2,-0.527 -0.454,-1.2" style="fill:none;fill-rule:nonzero;stroke:#000;stroke-width:3.54px;"/><path d="M572.874,92.909c0,-0.231 -0.011,-0.517 -0.033,-0.86c-0.022,-0.342 -0.078,-0.639 -0.169,-0.889c-0.091,-0.25 -0.297,-0.467 -0.619,-0.65c-0.322,-0.183 -0.923,-0.253 -1.803,-0.21c-0.88,0.043 -1.945,0.486 -3.195,1.33c-1.25,0.844 -2.214,2.017 -2.891,3.518c-0.678,1.501 -0.757,3.053 -0.239,4.656c0.518,1.602 1.485,2.808 2.9,3.616c1.415,0.808 2.797,1.152 4.146,1.03c1.348,-0.122 2.453,-0.749 3.315,-1.883c0.862,-1.133 1.45,-2.491 1.765,-4.074c0.315,-1.583 0.404,-2.962 0.265,-4.136c-0.2,-1.695 -0.798,-2.584 -1.794,-2.667" style="fill:none;fill-rule:nonzero;stroke:#000;stroke-width:3.54px;"/><path d="M587.242,75.527l-1.073,0c-0.373,0 -0.599,0.047 -0.678,0.142c-0.079,0.095 0.135,0.383 0.642,0.864c0.507,0.481 1.395,1.17 2.664,2.067c1.27,0.896 2.766,1.992 4.489,3.286c1.723,1.294 3.493,2.692 5.31,4.194c1.817,1.501 3.403,2.782 4.759,3.842c1.356,1.06 2.31,1.769 2.862,2.126c0.552,0.357 0.838,0.606 0.858,0.746c0.02,0.14 -0.122,0.507 -0.426,1.099c-0.304,0.592 -0.826,1.537 -1.565,2.833c-0.739,1.296 -1.686,2.965 -2.842,5.005c-1.156,2.041 -2.269,4.076 -3.339,6.105c-1.07,2.029 -1.866,3.647 -2.387,4.851c-0.521,1.205 -0.863,2.035 -1.025,2.489c-0.163,0.455 -0.384,0.583 -0.664,0.385" style="fill:none;fill-rule:nonzero;stroke:#000;stroke-width:3.54px;"/><path d="M466.481,289.786l-0.078,0.005l0.408,0.021c0.39,0.013 1.365,0.046 2.925,0.098c1.56,0.052 4.091,0.091 7.592,0.117c3.501,0.026 7.353,0.061 11.555,0.105c4.202,0.044 7.864,0.09 10.986,0.139c3.122,0.048 6.098,0.021 8.926,-0.083" style="fill:none;fill-rule:nonzero;stroke:#000;stroke-width:3.54px;"/><path d="M467.251,300.719l-0.816,0l-0.176,0.002l0.247,0.008c0.303,0.007 1.475,0.03 3.514,0.069c2.039,0.039 4.906,0.059 8.602,0.06c3.695,0.001 7.71,-0.025 12.044,-0.077c6.902,-0.083 11.908,-0.149 15.02,-0.2" style="fill:none;fill-rule:nonzero;stroke:#000;stroke-width:3.54px;"/><path d="M466.13,315.928c-0.071,-0.237 0.505,-0.435 1.73,-0.593c1.225,-0.158 3.117,-0.31 5.677,-0.456c2.56,-0.145 5.668,-0.289 9.324,-0.432c3.656,-0.143 7.305,-0.223 10.947,-0.243c3.642,-0.019 6.799,-0.029 9.47,-0.029c2.671,-0 4.531,-0 5.581,-0l0.787,0l-2.362,0" style="fill:none;fill-rule:nonzero;stroke:#000;stroke-width:3.54px;"/><path d="M545.89,276.539c0.045,-0.092 0.073,-0.002 0.082,0.27c0.01,0.272 0.033,0.953 0.071,2.042c0.038,1.089 0.057,2.57 0.057,4.442c0,1.872 0.047,3.998 0.141,6.379c0.094,2.38 0.346,4.841 0.757,7.382c0.411,2.541 0.802,4.888 1.173,7.04c0.372,2.153 0.64,4.01 0.804,5.574c0.164,1.564 0.252,2.864 0.263,3.902c0.011,1.038 0.016,1.85 0.016,2.436c0,0.587 0,0.979 0,1.176l0,0.716c0,0.217 -0.175,0.61 -0.525,1.18" style="fill:none;fill-rule:nonzero;stroke:#000;stroke-width:3.54px;"/><path d="M566.566,292.94c0,-0.278 0.047,-0.584 0.14,-0.919c0.093,-0.335 0.397,-0.685 0.912,-1.053c0.515,-0.367 1.095,-0.798 1.742,-1.295c0.647,-0.496 1.193,-0.931 1.639,-1.305c0.446,-0.373 0.77,-0.634 0.972,-0.782c0.202,-0.148 0.332,-0.228 0.391,-0.238c0.059,-0.011 0.089,0.035 0.09,0.136c0.001,0.102 -0.045,0.423 -0.14,0.964c-0.094,0.541 -0.309,1.325 -0.646,2.352c-0.337,1.027 -0.648,2.221 -0.932,3.583c-0.285,1.361 -0.477,2.704 -0.578,4.027c-0.101,1.323 -0.113,2.464 -0.035,3.422c0.078,0.958 0.263,1.679 0.555,2.165c0.292,0.485 0.541,0.788 0.748,0.907c0.207,0.119 0.336,0.187 0.389,0.204c0.074,0.024 -0.04,-0.27 -0.34,-0.884" style="fill:none;fill-rule:nonzero;stroke:#000;stroke-width:3.54px;"/><path d="M565.375,305.625c0.164,-0.103 0.742,-0.175 1.736,-0.217c0.994,-0.042 2.109,-0.027 3.345,0.046c1.846,0.109 3.761,0.334 5.744,0.675" style="fill:none;fill-rule:nonzero;stroke:#000;stroke-width:3.54px;"/><path d="M588.223,277.31c-0.208,-0.044 -0.463,-0.09 -0.764,-0.138c-0.302,-0.048 -0.48,-0.018 -0.534,0.09c-0.054,0.108 0.099,0.435 0.46,0.98c0.361,0.546 0.973,1.234 1.838,2.065c0.865,0.831 1.928,1.798 3.191,2.902c1.263,1.104 2.709,2.252 4.34,3.445c1.631,1.193 3.22,2.284 4.768,3.275c1.548,0.991 2.715,1.83 3.501,2.518c0.786,0.688 1.285,1.314 1.495,1.877c0.21,0.563 0.321,1.125 0.333,1.684c0.012,0.559 0.018,1.13 0.018,1.714c0,0.583 -0.12,1.226 -0.361,1.929c-0.241,0.703 -0.753,1.55 -1.538,2.542c-0.785,0.992 -1.703,2.148 -2.757,3.468c-1.053,1.32 -2.067,2.708 -3.04,4.164c-0.973,1.456 -1.715,2.72 -2.226,3.794c-0.511,1.074 -0.826,1.82 -0.945,2.237c-0.119,0.418 -0.184,0.695 -0.193,0.833c-0.013,0.191 -0.16,0.209 -0.44,0.054" style="fill:none;fill-rule:nonzero;stroke:#000;stroke-width:3.54px;"/><path d="M469.074,488.555c0.025,-0.156 0.691,-0.258 2,-0.306c1.309,-0.048 3.164,0.018 5.565,0.198c2.401,0.181 5.593,0.288 9.575,0.322c3.982,0.034 7.816,-0.118 11.504,-0.457c3.688,-0.339 6.124,-0.581 7.31,-0.727c1.186,-0.146 1.698,-0.191 1.536,-0.135c-0.231,0.08 -0.958,0.33 -2.181,0.752" style="fill:none;fill-rule:nonzero;stroke:#000;stroke-width:3.54px;"/><path d="M469.284,499.349c-0.024,-0.169 0.973,-0.27 2.993,-0.302c2.019,-0.032 4.552,-0.048 7.597,-0.048l9.66,0c3.395,0 6.35,0.041 8.865,0.122c2.515,0.082 4.598,0.14 6.249,0.175l2.062,0.037l-0.083,-0.005" style="fill:none;fill-rule:nonzero;stroke:#000;stroke-width:3.54px;"/><path d="M468.443,513.156c-0.238,0.032 -0.479,0.082 -0.722,0.15c-0.243,0.068 -0.172,0.107 0.214,0.116c0.386,0.009 1.639,-0.07 3.759,-0.238c2.12,-0.168 4.824,-0.368 8.113,-0.6c3.289,-0.232 6.513,-0.358 9.671,-0.378c3.158,-0.02 5.925,-0.02 8.299,0.002c2.374,0.022 4.306,0.045 5.794,0.07c1.488,0.025 2.402,0.038 2.739,0.038c0.488,0 0.875,-0.285 1.162,-0.855" style="fill:none;fill-rule:nonzero;stroke:#000;stroke-width:3.54px;"/><path d="M544.208,474.187c-0.255,0.099 -0.405,0.687 -0.453,1.762c-0.047,1.075 0.021,2.411 0.204,4.006c0.183,1.596 0.339,3.478 0.467,5.648c0.128,2.17 0.228,4.442 0.299,6.815c0.071,2.374 0.127,4.693 0.168,6.957c0.04,2.264 0.091,4.384 0.151,6.36c0.06,1.976 0.166,3.802 0.319,5.477c0.153,1.675 0.278,3.143 0.375,4.402c0.097,1.259 0.199,2.192 0.305,2.798c0.107,0.606 0.245,1.035 0.414,1.286c0.17,0.251 0.337,0.411 0.502,0.478c0.165,0.068 0.296,0.106 0.392,0.115c0.096,0.009 0.168,0.013 0.217,0.013l0.13,0c0.038,0 0.069,0.033 0.094,0.1c0.024,0.067 0.04,0.124 0.049,0.172c0.009,0.048 0.01,0.018 0.005,-0.09c-0.008,-0.156 0.003,-0.452 0.033,-0.887" style="fill:none;fill-rule:nonzero;stroke:#000;stroke-width:3.54px;"/><path d="M560.398,508.25c0.014,-0.19 0.071,-0.47 0.169,-0.838c0.098,-0.368 0.195,-0.847 0.289,-1.438c0.094,-0.59 0.158,-1.541 0.191,-2.851c0.033,-1.31 0.053,-2.827 0.061,-4.55c0.008,-1.723 0.038,-3.338 0.092,-4.845c0.054,-1.507 0.085,-2.788 0.095,-3.845c0.01,-1.056 0.014,-1.764 0.014,-2.125c0,-0.36 0.007,-0.544 0.021,-0.551c0.014,-0.008 0.11,0.071 0.289,0.237c0.178,0.165 0.478,0.367 0.899,0.606c0.421,0.239 0.891,0.623 1.409,1.153c0.518,0.53 1.099,1.278 1.74,2.243c0.642,0.965 1.379,2.149 2.211,3.55c0.832,1.401 1.76,2.951 2.784,4.652c1.024,1.7 1.965,3.201 2.824,4.501c0.859,1.3 1.54,2.207 2.045,2.719c0.504,0.513 0.888,0.789 1.152,0.83c0.263,0.041 0.478,-0.06 0.643,-0.301c0.165,-0.241 0.349,-0.749 0.549,-1.524c0.201,-0.774 0.395,-1.829 0.583,-3.164c0.188,-1.335 0.375,-2.877 0.562,-4.625c0.187,-1.748 0.37,-3.403 0.55,-4.963c0.18,-1.56 0.3,-2.633 0.36,-3.217c0.06,-0.584 0.08,-0.833 0.057,-0.747c-0.032,0.123 -0.133,0.511 -0.302,1.163" style="fill:none;fill-rule:nonzero;stroke:#000;stroke-width:3.54px;"/><path d="M588.628,472.438c-0.04,-0.206 -0.143,-0.473 -0.31,-0.801l-0.058,-0.107l0.187,0.412c0.194,0.415 0.767,1.188 1.721,2.322c0.953,1.133 2.217,2.353 3.79,3.658c1.573,1.305 3.441,2.591 5.604,3.858c2.163,1.266 4.236,2.429 6.219,3.487c1.983,1.058 3.4,2.024 4.251,2.896c0.851,0.872 1.224,1.775 1.12,2.71c-0.104,0.934 -0.588,1.996 -1.452,3.185c-0.864,1.189 -1.828,2.562 -2.893,4.119c-1.065,1.557 -2.112,3.29 -3.143,5.199c-1.03,1.909 -2.045,3.712 -3.042,5.409c-0.998,1.697 -1.881,3.006 -2.651,3.928c-0.77,0.922 -1.265,1.471 -1.488,1.648c-0.31,0.246 -0.528,0.047 -0.656,-0.595" style="fill:none;fill-rule:nonzero;stroke:#000;stroke-width:3.54px;"/><g transform="matrix(1,0,0,1,-20.372565,14.161388)"><g transform="matrix(5.539786,0,0,1,-180.714439,0)"><text x="39.807px" y="142.393px" style="font-family:'Helvetica';font-size:146.935px;fill:none;">=</text></g><g transform="matrix(1.154229,0,0,1,-86.935214,0)"><text x="563.676px" y="95.705px" style="font-family:'Helvetica';font-size:38.276px;fill:none;">1<tspan x="587.244px 610.812px " y="95.705px 95.705px ">0)</tspan></text></g><g transform="matrix(2.807396,0,0,1,-72.203098,0)"><text x="39.949px" y="342.995px" style="font-family:'Menlo-Regular', 'Menlo', monospace;font-size:146.935px;fill:none;"></text></g><g transform="matrix(3.068631,0,0,1,-1002.508803,0)"><text x="484.624px" y="297.546px" style="font-family:'Helvetica';font-size:24.876px;fill:none;">=</text></g><g transform="matrix(1.583599,0,0,1,-329.43808,0)"><text x="564.494px" y="297.354px" style="font-family:'Helvetica';font-size:38.732px;fill:none;">(<tspan x="578.746px 590.861px " y="297.354px 297.354px ">t)</tspan></text></g><g transform="matrix(5.508394,0,0,1,-171.241882,0)"><text x="37.983px" y="541.514px" style="font-family:'Helvetica';font-size:146.935px;fill:none;">=</text></g><g transform="matrix(1.329927,0,0,1,-188.538484,0)"><text x="571.455px" y="497.588px" style="font-family:'Helvetica';font-size:44.305px;fill:none;">(<tspan x="589.538px 615.019px " y="497.588px 497.588px ">v)</tspan></text></g></g></svg>