<?xml version="1.0" encoding="UTF-8" standalone="no"?><!DOCTYPE svg PUBLIC "-//W3C//DTD SVG 1.1//EN" "http://www.w3.org/Graphics/SVG/1.1/DTD/svg11.dtd"><svg width="100%" height="100%" viewBox="0 0 912 190" version="1.1" xmlns="http://www.w3.org/2000/svg" xmlns:xlink="http://www.w3.org/1999/xlink" xml:space="preserve" xmlns:serif="http://www.serif.com/" style="fill-rule:evenodd;clip-rule:evenodd;stroke-linecap:round;stroke-linejoin:round;stroke-miterlimit:10;"><rect id="Artboard2" x="0" y="0" width="912" height="190" style="fill:none;"/><g id="Artboard21" serif:id="Artboard2"><rect x="0" y="0" width="912" height="190" style="fill:#fff;"/><path d="M73.157,122.047c-0.309,-0.042 -0.611,-0.171 -0.907,-0.386c-0.296,-0.215 -0.519,-0.423 -0.671,-0.625c-0.152,-0.202 -0.318,-0.399 -0.5,-0.593c-0.181,-0.194 -0.396,-0.363 -0.645,-0.508c-0.249,-0.145 -0.564,-0.224 -0.944,-0.238c-0.38,-0.014 -0.84,0.127 -1.381,0.421c-0.54,0.295 -1.095,0.878 -1.665,1.751c-0.57,0.873 -1.003,1.888 -1.3,3.047c-0.297,1.158 -0.398,2.283 -0.304,3.373c0.094,1.09 0.563,1.974 1.406,2.652c0.844,0.678 1.855,1.096 3.033,1.254c1.179,0.158 2.333,0.023 3.463,-0.404c1.13,-0.427 2.025,-1.159 2.686,-2.196c0.66,-1.037 1.069,-2.172 1.225,-3.405c0.157,-1.234 0.098,-2.392 -0.176,-3.474c-0.274,-1.082 -0.776,-1.976 -1.505,-2.681c-0.73,-0.705 -1.487,-1.168 -2.273,-1.387c-0.786,-0.22 -1.72,-0.18 -2.804,0.119c-1.083,0.299 -2.117,1.037 -3.102,2.215c-0.985,1.178 -1.637,2.479 -1.958,3.905c-0.321,1.426 -0.071,2.68 0.748,3.763c0.819,1.083 1.995,1.8 3.526,2.153c1.531,0.352 2.895,0.422 4.09,0.211c1.195,-0.212 2.02,-0.768 2.473,-1.669c0.453,-0.901 0.648,-1.782 0.583,-2.645c-0.065,-0.863 -0.45,-1.423 -1.154,-1.679c-0.704,-0.257 -1.485,-0.089 -2.341,0.504c-0.856,0.593 -1.452,1.322 -1.789,2.189c-0.336,0.867 -0.423,1.483 -0.261,1.848c0.162,0.365 0.621,0.467 1.376,0.304c1.089,-0.235 2.451,-1.401 4.086,-3.496" style="fill:none;fill-rule:nonzero;stroke:#000;stroke-width:7.09px;"/><path d="M206.135,121.773c0,-0.34 0.029,-0.718 0.086,-1.135c0.058,-0.416 0.127,-0.767 0.209,-1.051c0.082,-0.285 0.129,-0.564 0.142,-0.837c0.013,-0.273 0.005,-0.518 -0.022,-0.734c-0.027,-0.216 -0.254,-0.358 -0.68,-0.425c-0.426,-0.067 -1.073,0.045 -1.943,0.336c-0.869,0.292 -1.69,1.088 -2.462,2.391c-0.772,1.302 -1.204,2.71 -1.295,4.223c-0.092,1.513 0.384,2.735 1.426,3.666c1.043,0.931 2.296,1.45 3.761,1.558c1.465,0.107 2.768,-0.169 3.91,-0.828c1.142,-0.659 1.973,-1.516 2.494,-2.571c0.521,-1.055 0.77,-2.154 0.749,-3.298c-0.021,-1.144 -0.427,-2.155 -1.217,-3.031c-0.79,-0.877 -1.837,-1.43 -3.141,-1.658c-1.305,-0.228 -2.598,0.098 -3.882,0.978c-1.283,0.88 -2.273,2.348 -2.97,4.404c-0.697,2.056 -0.827,3.975 -0.391,5.758c0.436,1.783 1.556,2.858 3.36,3.227c1.804,0.369 3.486,0.06 5.048,-0.926c1.561,-0.986 2.524,-2.356 2.887,-4.111c0.363,-1.754 0.221,-3.407 -0.426,-4.958c-0.648,-1.551 -1.628,-2.556 -2.943,-3.014c-1.314,-0.458 -2.483,-0.32 -3.508,0.415c-1.025,0.735 -1.663,1.715 -1.913,2.94c-0.339,1.659 0.164,2.093 1.507,1.302" style="fill:none;fill-rule:nonzero;stroke:#000;stroke-width:7.09px;"/><path d="M341.208,121.773c0,-0.504 -0.029,-1.046 -0.086,-1.627c-0.058,-0.581 -0.136,-1.066 -0.237,-1.456c-0.1,-0.39 -0.287,-0.681 -0.561,-0.872c-0.274,-0.191 -0.761,-0.252 -1.462,-0.183c-0.701,0.069 -1.627,0.556 -2.778,1.46c-1.151,0.904 -2.178,2.163 -3.081,3.776c-0.903,1.614 -1.387,3.196 -1.452,4.747c-0.065,1.551 0.459,2.718 1.573,3.502c1.113,0.784 2.443,1.145 3.989,1.083c1.546,-0.062 2.872,-0.558 3.979,-1.49c1.107,-0.931 1.826,-2.086 2.158,-3.463c0.332,-1.378 0.173,-2.708 -0.478,-3.99c-0.65,-1.282 -1.845,-1.959 -3.582,-2.031c-1.738,-0.072 -3.138,0.509 -4.203,1.743c-1.064,1.234 -1.598,2.599 -1.6,4.095c-0.003,1.496 0.666,2.611 2.008,3.347c1.341,0.735 2.749,1.055 4.223,0.961c1.474,-0.094 2.493,-0.637 3.058,-1.628c0.565,-0.991 0.676,-2.063 0.334,-3.215c-0.342,-1.153 -1.008,-1.938 -1.998,-2.354c-0.99,-0.416 -1.741,-0.618 -2.253,-0.607c-0.69,0.016 -0.675,0.184 0.046,0.505" style="fill:none;fill-rule:nonzero;stroke:#000;stroke-width:7.09px;"/><path d="M605.705,122.685c-0.344,0.014 -0.718,0.032 -1.123,0.056c-0.405,0.023 -0.706,0.035 -0.903,0.035l-0.451,0c-0.104,0 -0.22,-0.011 -0.348,-0.033c-0.128,-0.022 -0.283,-0.037 -0.465,-0.046c-0.181,-0.009 -0.412,0.034 -0.692,0.127c-0.28,0.093 -0.567,0.444 -0.862,1.052c-0.295,0.608 -0.502,1.346 -0.622,2.212c-0.12,0.866 -0.077,1.658 0.129,2.377c0.207,0.719 0.682,1.243 1.425,1.574c0.743,0.331 1.531,0.509 2.363,0.536c0.832,0.026 1.624,-0.083 2.376,-0.33c0.752,-0.246 1.407,-0.785 1.964,-1.618c0.558,-0.832 0.93,-1.807 1.115,-2.923c0.186,-1.117 0.21,-2.196 0.072,-3.238c-0.138,-1.041 -0.614,-1.807 -1.428,-2.297c-0.815,-0.49 -1.839,-0.69 -3.074,-0.6c-1.235,0.09 -2.439,0.557 -3.613,1.4c-1.174,0.844 -2.058,1.884 -2.651,3.121c-0.594,1.237 -0.791,2.437 -0.591,3.598c0.2,1.162 0.965,2.055 2.295,2.679c1.33,0.624 2.729,0.927 4.196,0.909c1.467,-0.018 2.644,-0.471 3.53,-1.358c0.886,-0.888 1.413,-2.04 1.58,-3.455c0.167,-1.416 -0.072,-2.731 -0.717,-3.946c-0.645,-1.215 -1.56,-1.933 -2.744,-2.155c-1.184,-0.221 -2.179,0.151 -2.987,1.118c-0.808,0.967 -1.13,2.117 -0.968,3.45c0.229,1.879 2.649,2.208 7.259,0.987" style="fill:none;fill-rule:nonzero;stroke:#000;stroke-width:7.09px;"/><path d="M741.052,123.505c-0.294,-0.063 -0.67,-0.261 -1.13,-0.593c-0.46,-0.332 -0.894,-0.612 -1.303,-0.84c-0.409,-0.228 -0.923,-0.342 -1.545,-0.343c-0.621,-0.001 -1.243,0.367 -1.865,1.103c-0.623,0.736 -1.01,1.718 -1.162,2.946c-0.152,1.228 0.123,2.293 0.823,3.197c0.701,0.904 1.66,1.448 2.88,1.632c1.22,0.184 2.318,0.019 3.295,-0.495c0.977,-0.514 1.664,-1.365 2.062,-2.553c0.397,-1.188 0.516,-2.336 0.357,-3.443c-0.159,-1.107 -0.75,-1.872 -1.774,-2.295c-1.023,-0.423 -2.208,-0.329 -3.552,0.283c-1.345,0.612 -2.397,1.688 -3.157,3.226c-0.76,1.539 -1.077,3.019 -0.95,4.441c0.127,1.423 0.882,2.396 2.266,2.921c1.384,0.525 2.852,0.574 4.403,0.145c1.551,-0.428 2.737,-1.438 3.558,-3.029c0.821,-1.591 1.217,-3.323 1.188,-5.194c-0.029,-1.871 -0.587,-3.172 -1.674,-3.903c-1.086,-0.731 -2.195,-0.695 -3.326,0.106c-1.131,0.802 -1.829,2.003 -2.093,3.605c-0.264,1.602 -0.215,2.91 0.145,3.925c0.36,1.015 0.971,1.536 1.83,1.563c0.86,0.027 1.688,-0.459 2.484,-1.458c1.168,-1.465 2.081,-3.548 2.737,-6.25" style="fill:none;fill-rule:nonzero;stroke:#000;stroke-width:7.09px;"/><path d="M874.576,122.411c-0.207,-0.242 -0.462,-0.555 -0.766,-0.939c-0.304,-0.384 -0.595,-0.738 -0.875,-1.061c-0.279,-0.323 -0.648,-0.618 -1.106,-0.886c-0.458,-0.268 -1.085,-0.375 -1.881,-0.324c-0.795,0.052 -1.676,0.672 -2.64,1.86c-0.964,1.188 -1.589,2.67 -1.874,4.445c-0.285,1.775 0.08,3.283 1.096,4.522c1.016,1.24 2.393,1.91 4.131,2.01c1.738,0.1 3.184,-0.336 4.338,-1.31c1.154,-0.974 1.848,-2.215 2.082,-3.725c0.235,-1.509 0.026,-2.886 -0.626,-4.132c-0.652,-1.246 -1.644,-2.029 -2.975,-2.349c-1.331,-0.321 -2.602,-0.035 -3.813,0.855c-1.21,0.891 -2.009,2.191 -2.395,3.9c-0.386,1.709 -0.263,3.176 0.37,4.402c0.633,1.225 1.7,1.933 3.204,2.122c1.503,0.189 2.78,-0.123 3.831,-0.936c1.051,-0.813 1.687,-1.838 1.907,-3.073c0.22,-1.235 0.057,-2.137 -0.488,-2.705c-0.545,-0.569 -1.265,-0.645 -2.158,-0.228c-0.894,0.417 -1.514,1.08 -1.861,1.991c-0.347,0.91 -0.496,1.608 -0.449,2.091c0.047,0.484 0.303,0.744 0.768,0.78c0.465,0.036 0.85,-0.176 1.155,-0.635l0.229,-0.345l-0.686,1.034" style="fill:none;fill-rule:nonzero;stroke:#000;stroke-width:7.09px;"/><path d="M86.738,108.466c0.033,-0.277 0.356,-0.648 0.968,-1.114c0.612,-0.466 1.552,-1.001 2.821,-1.604c1.268,-0.603 2.933,-1.424 4.992,-2.463c2.06,-1.038 4.283,-2.097 6.67,-3.177c2.387,-1.079 4.597,-1.961 6.63,-2.647c2.033,-0.685 3.941,-1.219 5.726,-1.6c1.785,-0.382 3.67,-0.678 5.656,-0.887c1.986,-0.209 4.065,-0.337 6.236,-0.383c2.172,-0.046 4.4,-0.069 6.685,-0.069c2.285,-0 4.578,-0 6.878,-0c2.3,0 4.523,0.005 6.668,0.014c2.145,0.009 4.135,0.105 5.968,0.289c1.833,0.184 3.64,0.432 5.421,0.744c1.78,0.313 3.55,0.639 5.308,0.98c1.758,0.341 3.285,0.752 4.581,1.233c1.296,0.48 2.395,1.033 3.295,1.657c0.901,0.624 1.796,1.241 2.685,1.851c0.889,0.61 1.79,1.146 2.702,1.608c0.912,0.462 1.699,0.843 2.36,1.143c0.661,0.299 1.13,0.528 1.407,0.685c0.277,0.158 0.443,0.258 0.498,0.301c0.056,0.043 0.084,0.051 0.085,0.025c0.001,-0.026 0.002,-0.277 0.002,-0.751c0,-0.474 -0.038,-1.185 -0.112,-2.133c-0.075,-0.948 -0.309,-2.017 -0.703,-3.206c-0.394,-1.189 -0.829,-2.277 -1.307,-3.263c-0.478,-0.986 -0.877,-1.731 -1.198,-2.235c-0.321,-0.504 -0.54,-0.818 -0.658,-0.941c-0.118,-0.123 -0.184,-0.091 -0.196,0.095c-0.013,0.186 0.105,0.69 0.352,1.511c0.247,0.821 0.695,1.707 1.344,2.658c0.648,0.951 1.318,1.893 2.007,2.826c0.69,0.933 1.316,1.803 1.88,2.609c0.563,0.806 0.978,1.512 1.245,2.116c0.266,0.604 0.352,1.123 0.256,1.555c-0.096,0.432 -0.522,0.783 -1.276,1.051c-0.755,0.269 -1.791,0.491 -3.11,0.665c-1.319,0.175 -2.803,0.361 -4.452,0.56c-2.401,0.289 -6.037,1.045 -10.908,2.268" style="fill:none;fill-rule:nonzero;stroke:#000;stroke-width:3.54px;"/><path d="M186.265,145.926c-0.119,-0.085 -0.705,0.158 -1.76,0.729c-1.055,0.571 -2.345,1.352 -3.87,2.344c-1.526,0.992 -3.29,2.034 -5.293,3.127c-2.003,1.092 -4.01,2.148 -6.02,3.165c-2.01,1.018 -3.877,1.869 -5.599,2.553c-1.723,0.684 -3.298,1.183 -4.726,1.499c-1.428,0.315 -2.796,0.522 -4.104,0.619c-1.308,0.097 -2.615,0.171 -3.92,0.222c-1.305,0.051 -2.641,0.107 -4.007,0.168c-1.366,0.06 -2.742,0.121 -4.128,0.182c-1.386,0.061 -2.778,0.146 -4.176,0.255c-1.398,0.109 -2.81,0.22 -4.237,0.333c-1.427,0.112 -2.797,0.19 -4.11,0.233c-1.313,0.043 -2.578,0.065 -3.796,0.066c-1.218,0.001 -2.418,0.002 -3.602,0.002c-1.184,0 -2.384,-0.019 -3.599,-0.056c-1.215,-0.037 -2.43,-0.159 -3.646,-0.365c-1.215,-0.206 -2.431,-0.498 -3.647,-0.878c-1.216,-0.379 -2.354,-0.786 -3.414,-1.222c-1.06,-0.435 -2.029,-0.846 -2.908,-1.233c-0.879,-0.387 -1.66,-0.796 -2.345,-1.228c-0.684,-0.431 -1.326,-0.924 -1.925,-1.479c-0.599,-0.554 -1.231,-1.048 -1.896,-1.479c-0.665,-0.432 -1.345,-0.8 -2.04,-1.104c-0.695,-0.304 -1.38,-0.619 -2.055,-0.944c-0.675,-0.325 -1.269,-0.665 -1.78,-1.018c-0.511,-0.353 -1,-0.698 -1.465,-1.034c-0.466,-0.336 -0.976,-0.642 -1.529,-0.917c-0.554,-0.275 -1.139,-0.559 -1.755,-0.852c-0.617,-0.294 -1.123,-0.544 -1.52,-0.751c-0.397,-0.207 -0.65,-0.334 -0.761,-0.38c-0.11,-0.046 -0.005,0.179 0.317,0.677c0.322,0.497 0.897,1.291 1.726,2.38c0.829,1.089 1.642,2.236 2.438,3.441c0.796,1.205 1.443,2.352 1.942,3.442c0.498,1.09 0.829,1.974 0.992,2.652c0.163,0.678 0.242,1.1 0.235,1.268c-0.006,0.167 -0.212,0.119 -0.615,-0.144c-0.404,-0.263 -0.968,-0.749 -1.693,-1.46c-0.725,-0.71 -1.414,-1.435 -2.066,-2.174c-0.652,-0.739 -1.221,-1.445 -1.706,-2.119c-0.485,-0.673 -0.853,-1.368 -1.104,-2.085c-0.251,-0.716 -0.389,-1.389 -0.416,-2.019c-0.026,-0.63 0.137,-1.187 0.489,-1.67c0.352,-0.484 1.015,-0.885 1.987,-1.203c0.973,-0.319 2.185,-0.571 3.636,-0.758c1.451,-0.187 3.06,-0.342 4.825,-0.466c2.709,-0.19 4.97,-0.121 6.785,0.206" style="fill:none;fill-rule:nonzero;stroke:#000;stroke-width:3.54px;"/><path d="M756.36,107.609c-0.18,0.02 -0.505,-0.079 -0.975,-0.297c-0.292,-0.135 -0.441,-0.248 -0.445,-0.338c-0.005,-0.09 0.276,-0.263 0.841,-0.517c0.565,-0.255 1.553,-0.665 2.962,-1.231c1.41,-0.566 3.237,-1.255 5.483,-2.069c2.246,-0.813 4.881,-1.603 7.904,-2.369c3.023,-0.766 6.161,-1.339 9.414,-1.719c3.253,-0.38 6.253,-0.625 9.001,-0.734c2.748,-0.109 5.32,-0.165 7.719,-0.166c2.398,-0.001 4.608,0.06 6.63,0.183c2.022,0.123 3.877,0.388 5.565,0.793c1.688,0.406 3.473,0.853 5.354,1.339c1.881,0.487 3.878,0.944 5.993,1.372c2.115,0.428 4.057,0.824 5.828,1.19c1.77,0.366 3.315,0.764 4.635,1.195c1.319,0.431 2.447,0.918 3.385,1.462c0.937,0.543 1.767,1.128 2.49,1.753c0.723,0.626 1.438,1.224 2.146,1.795c0.708,0.571 1.465,1.063 2.272,1.473c0.807,0.411 1.515,0.741 2.125,0.991c0.61,0.25 1.033,0.408 1.269,0.476c0.235,0.068 0.371,0.083 0.406,0.047c0.035,-0.036 0.044,-0.273 0.025,-0.711c-0.018,-0.438 -0.11,-1.061 -0.277,-1.87c-0.166,-0.809 -0.385,-1.765 -0.655,-2.868c-0.27,-1.103 -0.595,-2.243 -0.975,-3.422c-0.38,-1.179 -0.779,-2.142 -1.196,-2.891c-0.417,-0.749 -0.755,-1.253 -1.014,-1.513c-0.259,-0.26 -0.423,-0.327 -0.491,-0.201c-0.068,0.126 0.025,0.544 0.281,1.254c0.256,0.71 0.719,1.548 1.388,2.514c0.669,0.966 1.373,1.926 2.113,2.88c0.74,0.954 1.388,1.883 1.943,2.786c0.556,0.903 0.937,1.772 1.144,2.606c0.207,0.834 0.284,1.579 0.231,2.234c-0.053,0.656 -0.342,1.187 -0.866,1.593c-0.525,0.406 -1.349,0.664 -2.473,0.775c-1.124,0.11 -2.363,0.166 -3.718,0.168c-2.104,0.002 -3.791,0.003 -5.062,0.001" style="fill:none;fill-rule:nonzero;stroke:#000;stroke-width:3.54px;"/><path d="M855.254,143.283c0.254,-0.161 0.499,-0.346 0.733,-0.556c0.235,-0.21 0.123,-0.269 -0.334,-0.177c-0.458,0.092 -1.363,0.485 -2.716,1.182c-1.353,0.696 -2.838,1.521 -4.453,2.475c-1.616,0.954 -3.368,1.928 -5.255,2.922c-1.888,0.994 -3.822,1.886 -5.802,2.675c-1.981,0.789 -4.004,1.465 -6.069,2.03c-2.065,0.565 -4.016,1.042 -5.851,1.432c-1.835,0.39 -3.555,0.752 -5.158,1.088c-1.604,0.335 -3.245,0.661 -4.924,0.977c-1.679,0.316 -3.272,0.568 -4.78,0.754c-1.508,0.187 -2.97,0.323 -4.387,0.407c-1.417,0.085 -2.955,0.138 -4.615,0.16c-1.66,0.023 -3.405,0.034 -5.234,0.034c-1.829,0 -3.638,-0.005 -5.425,-0.014c-1.788,-0.009 -3.475,-0.082 -5.062,-0.218c-1.587,-0.136 -3.091,-0.309 -4.514,-0.52c-1.423,-0.21 -2.861,-0.456 -4.315,-0.738c-1.454,-0.281 -2.96,-0.617 -4.518,-1.008c-1.558,-0.39 -3.036,-0.812 -4.433,-1.266c-1.397,-0.453 -2.609,-0.967 -3.637,-1.539c-1.027,-0.573 -1.919,-1.192 -2.676,-1.857c-0.756,-0.665 -1.427,-1.333 -2.01,-2.003c-0.584,-0.67 -1.105,-1.295 -1.562,-1.875c-0.457,-0.58 -0.948,-1.168 -1.474,-1.765c-0.525,-0.597 -1.032,-1.133 -1.52,-1.606c-0.488,-0.473 -0.918,-0.811 -1.288,-1.013c-0.37,-0.202 -0.65,-0.31 -0.839,-0.325c-0.189,-0.015 -0.291,-0.013 -0.306,0.005c-0.015,0.018 -0.023,0.139 -0.023,0.363c0,0.224 0.005,0.488 0.014,0.791c0.009,0.303 0.077,0.636 0.204,0.997c0.127,0.361 0.261,0.753 0.403,1.177c0.142,0.423 0.298,0.915 0.469,1.477c0.171,0.561 0.348,1.185 0.53,1.87c0.182,0.685 0.379,1.359 0.591,2.02c0.212,0.661 0.395,1.219 0.55,1.674c0.155,0.455 0.274,0.788 0.358,0.999c0.083,0.211 0.131,0.325 0.144,0.34l0.001,0.001l-0.326,-0.365c-0.229,-0.257 -0.565,-0.729 -1.009,-1.415c-0.444,-0.686 -0.855,-1.491 -1.233,-2.416c-0.378,-0.925 -0.658,-1.83 -0.839,-2.716c-0.181,-0.886 -0.278,-1.668 -0.292,-2.345c-0.014,-0.677 0.055,-1.204 0.208,-1.58c0.152,-0.376 0.513,-0.643 1.082,-0.802c0.569,-0.159 1.425,-0.26 2.571,-0.303c1.68,-0.063 3.815,0.206 6.407,0.808" style="fill:none;fill-rule:nonzero;stroke:#000;stroke-width:3.54px;"/><path d="M17.926,54.328l-1.02,0c-0.34,0 -0.572,-0.047 -0.698,-0.14c-0.126,-0.093 -0.181,-0.552 -0.165,-1.378c0.016,-0.826 0.221,-2.291 0.617,-4.395c0.395,-2.105 0.978,-4.783 1.747,-8.034c0.769,-3.251 1.701,-6.312 2.794,-9.183c1.093,-2.87 2.161,-4.994 3.202,-6.37c1.041,-1.376 1.897,-2.156 2.568,-2.34c0.671,-0.184 1.362,0.13 2.074,0.942c0.712,0.812 1.472,2.272 2.281,4.38c0.809,2.108 1.619,4.44 2.43,6.994c0.811,2.555 1.507,5.033 2.087,7.436c0.58,2.403 0.992,4.46 1.235,6.172c0.243,1.712 0.436,2.902 0.577,3.569c0.141,0.667 0.273,1.041 0.394,1.121c0.17,0.112 0.278,-0.161 0.323,-0.821" style="fill:none;fill-rule:nonzero;stroke:#000;stroke-width:3.54px;"/><path d="M17.013,42.661c0.21,-0.327 1.36,-0.554 3.451,-0.682c2.091,-0.128 4.831,-0.266 8.221,-0.412c5.19,-0.224 9.444,-0.98 12.762,-2.267" style="fill:none;fill-rule:nonzero;stroke:#000;stroke-width:3.54px;"/><path d="M44.812,10.214c-0.242,-0.242 -0.493,-0.493 -0.753,-0.753c-0.26,-0.26 -0.272,-0.132 -0.037,0.384c0.235,0.516 0.924,1.79 2.068,3.821c1.144,2.031 2.454,4.52 3.931,7.466c1.477,2.946 2.842,6.256 4.096,9.93c1.254,3.674 2.167,7.09 2.741,10.248c0.574,3.158 0.874,5.925 0.901,8.302c0.027,2.377 -0.294,4.404 -0.965,6.083c-0.671,1.678 -1.491,2.966 -2.46,3.863c-0.969,0.897 -1.954,1.655 -2.955,2.273c-1.497,0.925 -2.791,2.062 -3.882,3.412" style="fill:none;fill-rule:nonzero;stroke:#000;stroke-width:3.54px;"/><path d="M538.988,25.253c-0.111,0.22 -0.167,1.475 -0.166,3.764c0.001,2.29 0.202,4.927 0.602,7.913c0.4,2.986 0.826,5.713 1.277,8.181c0.45,2.468 0.786,4.235 1.007,5.3c0.221,1.066 0.354,1.665 0.4,1.799c0.064,0.185 0.097,-0.007 0.099,-0.578" style="fill:none;fill-rule:nonzero;stroke:#000;stroke-width:3.54px;"/><path d="M539.171,25.891c-0.056,-0.386 -0.102,-0.868 -0.137,-1.447c-0.036,-0.579 0.53,-1.125 1.698,-1.64c1.167,-0.515 3.273,-0.979 6.318,-1.395c3.045,-0.415 6.028,-0.479 8.949,-0.19c2.921,0.289 4.939,1.117 6.053,2.483c1.114,1.366 1.264,2.839 0.451,4.419c-0.813,1.58 -2.524,3.001 -5.132,4.263c-2.608,1.262 -5.116,2.238 -7.525,2.928c-2.409,0.69 -4.05,1.114 -4.921,1.273c-0.872,0.159 -1.141,0.239 -0.807,0.241c0.334,0.002 1.252,0.13 2.755,0.385c1.502,0.255 3.193,0.857 5.071,1.805c1.878,0.948 3.698,2.215 5.46,3.801c1.761,1.585 3.142,3.301 4.143,5.146c1,1.845 1.464,3.443 1.389,4.793c-0.074,1.35 -0.756,2.341 -2.047,2.975c-1.29,0.634 -2.927,1.013 -4.909,1.139c-1.983,0.125 -3.801,0.041 -5.456,-0.253c-1.655,-0.294 -2.736,-0.674 -3.244,-1.138c-0.705,-0.646 -0.519,-1.239 0.56,-1.779" style="fill:none;fill-rule:nonzero;stroke:#000;stroke-width:3.54px;"/><path d="M573.537,11.67c-0.33,-0.586 -0.616,-1.132 -0.859,-1.638c-0.163,-0.34 0.235,-0.139 1.194,0.604c0.959,0.743 2.407,2.101 4.342,4.076c1.935,1.974 3.806,4.528 5.613,7.662c1.806,3.134 3.122,6.655 3.948,10.564c0.826,3.909 1,7.51 0.522,10.803c-0.478,3.293 -1.46,6.126 -2.943,8.5c-1.484,2.374 -2.884,4.209 -4.2,5.505c-1.316,1.296 -2.655,2.496 -4.016,3.6" style="fill:none;fill-rule:nonzero;stroke:#000;stroke-width:3.54px;"/><g transform="matrix(1,0,0,0.833821,0,-29.830676)"><g transform="matrix(55.64425,0,0,55.64425,589.664211,98.051045)"></g><text x="537.049px" y="98.051px" style="font-family:'Helvetica';font-size:55.644px;fill:none;">B<tspan x="571.134px " y="98.051px ">)</tspan></text></g><g transform="matrix(1,0,0,1,15.017848,-121.612138)"><g transform="matrix(11.185991,0,0,1,-712.490363,0)"><text x="69.948px" y="229.447px" style="font-family:'Helvetica';font-size:18.136px;fill:none;">-</text></g><g transform="matrix(1.180573,0,0,1,-8.269354,0)"><text x="45.795px" y="253.296px" style="font-family:'Menlo-Regular', 'Menlo', monospace;font-size:17.766px;fill:none;">ᶖ</text></g><g transform="matrix(8.652966,0,0,1,-533.249933,0)"><g transform="matrix(16.059624,0,0,16.059624,80.390504,280.938693)"></g><text x="69.679px" y="280.939px" style="font-family:'Helvetica';font-size:16.06px;fill:none;">&amp;</text></g></g><g transform="matrix(1,0,0,0.918233,0,-8.475619)"><g transform="matrix(20.893671,0,0,20.893671,214.562484,154.068294)"></g><text x="196.489px" y="154.068px" style="font-family:'AppleSDGothicNeo-Regular', 'Apple SD Gothic Neo';font-size:20.894px;fill:none;">⑧</text></g><g transform="matrix(1,0,0,0.625076,0,-38.909935)"><g transform="matrix(29.291819,0,0,29.291819,344.201547,272.496794)"></g><text x="327.911px" y="272.497px" style="font-family:'Helvetica';font-size:29.292px;fill:none;">6</text></g><g transform="matrix(1,0,0,0.791077,0,-21.47063)"><g transform="matrix(20.079812,0,0,20.079812,611.850704,193.573976)"></g><text x="594.482px" y="193.574px" style="font-family:'AppleSDGothicNeo-Regular', 'Apple SD Gothic Neo';font-size:20.08px;fill:none;">①</text></g><g transform="matrix(1,0,0,0.083459,0,-101.587063)"><g transform="matrix(643.216763,0,0,643.216763,908.98247,2984.654123)"></g><text x="730.276px" y="2984.654px" style="font-family:'Helvetica';font-size:643.217px;fill:none;">·</text></g></g></svg>