<?xml version="1.0" encoding="UTF-8" standalone="no"?><!DOCTYPE svg PUBLIC "-//W3C//DTD SVG 1.1//EN" "http://www.w3.org/Graphics/SVG/1.1/DTD/svg11.dtd"><svg width="100%" height="100%" viewBox="0 0 233 71" version="1.1" xmlns="http://www.w3.org/2000/svg" xmlns:xlink="http://www.w3.org/1999/xlink" xml:space="preserve" xmlns:serif="http://www.serif.com/" style="fill-rule:evenodd;clip-rule:evenodd;stroke-linecap:round;stroke-linejoin:round;stroke-miterlimit:10;"><rect id="Artboard1" x="0" y="0" width="232.505" height="70.08" style="fill:none;"/><rect x="0" y="0" width="232.505" height="70.08" style="fill:#fff;"/><path d="M11.975,12.79c-0.038,0 -0.118,-0.012 -0.242,-0.038c-0.075,-0.016 -0.115,-0.024 -0.121,-0.024c-0.006,-0 -0.001,0.004 0.016,0.011c0.017,0.008 0.059,0.027 0.127,0.059c0.068,0.031 0.219,0.141 0.454,0.33c0.235,0.189 0.483,0.41 0.743,0.662c0.261,0.253 0.539,0.528 0.835,0.826c0.296,0.298 0.589,0.601 0.879,0.91c0.29,0.309 0.557,0.614 0.802,0.915c0.245,0.301 0.479,0.599 0.704,0.891c0.224,0.293 0.428,0.549 0.612,0.768c0.184,0.219 0.362,0.402 0.535,0.548c0.173,0.146 0.341,0.282 0.504,0.408c0.163,0.126 0.323,0.264 0.478,0.414c0.156,0.15 0.307,0.313 0.453,0.489c0.146,0.176 0.293,0.363 0.442,0.559c0.148,0.197 0.3,0.389 0.455,0.576c0.155,0.188 0.312,0.362 0.47,0.524c0.158,0.162 0.312,0.313 0.46,0.454c0.149,0.141 0.296,0.295 0.441,0.461c0.146,0.166 0.305,0.351 0.479,0.554c0.174,0.203 0.35,0.398 0.528,0.584c0.178,0.186 0.338,0.348 0.48,0.486c0.142,0.137 0.272,0.271 0.389,0.402c0.117,0.131 0.238,0.27 0.361,0.418c0.124,0.148 0.245,0.286 0.365,0.413c0.119,0.127 0.233,0.244 0.34,0.349c0.107,0.105 0.217,0.211 0.328,0.318c0.111,0.107 0.228,0.224 0.349,0.352c0.121,0.128 0.244,0.253 0.368,0.375c0.124,0.122 0.25,0.246 0.379,0.372c0.129,0.126 0.253,0.249 0.372,0.369c0.119,0.119 0.237,0.243 0.354,0.372c0.117,0.128 0.228,0.255 0.333,0.379c0.105,0.124 0.205,0.239 0.3,0.344c0.095,0.105 0.196,0.213 0.302,0.324c0.106,0.111 0.215,0.23 0.327,0.356c0.112,0.126 0.228,0.258 0.349,0.396c0.121,0.138 0.242,0.27 0.361,0.397c0.119,0.127 0.249,0.256 0.388,0.386c0.139,0.13 0.301,0.284 0.484,0.459c0.184,0.176 0.367,0.356 0.55,0.541c0.183,0.185 0.351,0.354 0.505,0.506c0.154,0.152 0.302,0.295 0.443,0.429c0.141,0.134 0.289,0.269 0.444,0.404c0.155,0.136 0.323,0.286 0.504,0.45c0.181,0.164 0.376,0.34 0.584,0.526c0.208,0.187 0.42,0.372 0.637,0.557c0.217,0.185 0.421,0.368 0.614,0.548c0.193,0.18 0.377,0.362 0.553,0.546c0.176,0.184 0.349,0.373 0.522,0.568c0.172,0.194 0.361,0.395 0.565,0.603c0.204,0.208 0.43,0.437 0.678,0.687c0.248,0.25 0.468,0.473 0.66,0.67c0.192,0.197 0.359,0.374 0.501,0.53c0.142,0.156 0.295,0.327 0.459,0.512c0.164,0.186 0.346,0.393 0.546,0.623c0.2,0.23 0.404,0.454 0.611,0.674c0.207,0.22 0.405,0.418 0.596,0.595c0.19,0.177 0.37,0.346 0.538,0.509c0.168,0.163 0.336,0.338 0.504,0.527c0.167,0.188 0.33,0.375 0.489,0.561c0.158,0.185 0.312,0.356 0.46,0.513c0.148,0.156 0.306,0.319 0.473,0.489c0.167,0.169 0.33,0.343 0.488,0.52c0.158,0.177 0.313,0.351 0.463,0.521c0.15,0.17 0.314,0.346 0.491,0.528c0.177,0.182 0.35,0.356 0.521,0.522c0.17,0.166 0.335,0.324 0.493,0.472c0.159,0.149 0.311,0.295 0.457,0.438c0.146,0.143 0.294,0.289 0.444,0.437c0.15,0.148 0.316,0.309 0.497,0.483c0.181,0.174 0.383,0.362 0.604,0.565c0.222,0.203 0.448,0.417 0.68,0.643c0.231,0.226 0.465,0.457 0.7,0.695c0.235,0.238 0.473,0.476 0.714,0.714c0.241,0.238 0.488,0.481 0.743,0.728c0.255,0.247 0.507,0.499 0.758,0.754c0.25,0.255 0.504,0.515 0.762,0.78c0.258,0.265 0.505,0.521 0.742,0.77c0.237,0.249 0.462,0.489 0.677,0.72c0.214,0.231 0.436,0.462 0.663,0.693c0.228,0.231 0.468,0.464 0.722,0.699c0.254,0.235 0.52,0.478 0.8,0.728c0.28,0.25 0.527,0.483 0.741,0.699c0.214,0.215 0.413,0.421 0.595,0.619c0.183,0.197 0.364,0.391 0.544,0.581c0.18,0.19 0.36,0.378 0.539,0.565c0.179,0.187 0.382,0.4 0.609,0.641c0.226,0.24 0.46,0.498 0.701,0.773c0.241,0.275 0.452,0.519 0.632,0.734c0.18,0.214 0.333,0.387 0.459,0.519c0.126,0.132 0.22,0.225 0.284,0.279c0.063,0.054 0.101,0.083 0.112,0.086c0.011,0.003 0.003,-0.004 -0.024,-0.023c-0.039,-0.027 -0.117,-0.096 -0.234,-0.21" style="fill:none;fill-rule:nonzero;stroke:#000;stroke-width:0.85px;"/><path d="M27.134,28.695c-0.06,0.003 -0.129,0.001 -0.207,-0.004c-0.051,-0.003 -0.053,-0.047 -0.006,-0.132c0.047,-0.084 0.175,-0.232 0.383,-0.443c0.208,-0.211 0.487,-0.502 0.836,-0.873c0.35,-0.371 0.751,-0.792 1.202,-1.264c0.452,-0.472 0.897,-0.929 1.336,-1.371c0.439,-0.442 0.855,-0.868 1.248,-1.28c0.393,-0.411 0.749,-0.802 1.068,-1.171c0.319,-0.37 0.61,-0.688 0.875,-0.954c0.264,-0.267 0.52,-0.5 0.768,-0.701c0.248,-0.201 0.501,-0.419 0.758,-0.655c0.257,-0.236 0.518,-0.506 0.783,-0.81c0.265,-0.304 0.53,-0.604 0.795,-0.899c0.265,-0.296 0.526,-0.572 0.781,-0.828c0.255,-0.256 0.51,-0.505 0.766,-0.746c0.256,-0.241 0.507,-0.489 0.755,-0.743c0.248,-0.254 0.488,-0.505 0.72,-0.752c0.232,-0.247 0.438,-0.457 0.618,-0.63c0.18,-0.173 0.344,-0.332 0.492,-0.478c0.148,-0.146 0.297,-0.294 0.445,-0.445c0.148,-0.151 0.296,-0.289 0.442,-0.414c0.146,-0.125 0.273,-0.229 0.382,-0.311c0.108,-0.082 0.204,-0.155 0.287,-0.22c0.083,-0.065 0.112,-0.122 0.086,-0.171" style="fill:none;fill-rule:nonzero;stroke:#000;stroke-width:0.85px;"/><path d="M43.015,45.408c0.074,0.025 0.165,0.01 0.273,-0.048c0.108,-0.057 0.235,-0.181 0.38,-0.371c0.145,-0.19 0.344,-0.44 0.598,-0.749c0.254,-0.309 0.55,-0.656 0.891,-1.041c0.34,-0.385 0.681,-0.763 1.023,-1.133c0.342,-0.371 0.661,-0.718 0.959,-1.04c0.298,-0.322 0.596,-0.643 0.894,-0.961c0.298,-0.318 0.596,-0.625 0.894,-0.92c0.297,-0.295 0.573,-0.57 0.827,-0.824c0.254,-0.254 0.501,-0.493 0.739,-0.715c0.238,-0.222 0.474,-0.437 0.708,-0.643c0.234,-0.207 0.476,-0.426 0.728,-0.658c0.252,-0.232 0.517,-0.482 0.796,-0.751c0.279,-0.269 0.557,-0.527 0.834,-0.774c0.278,-0.247 0.55,-0.496 0.817,-0.747c0.267,-0.252 0.554,-0.528 0.861,-0.83c0.307,-0.302 0.618,-0.61 0.935,-0.924c0.317,-0.314 0.607,-0.606 0.872,-0.876c0.265,-0.27 0.558,-0.579 0.88,-0.926c0.322,-0.347 0.631,-0.68 0.927,-0.998c0.296,-0.318 0.595,-0.622 0.896,-0.91c0.301,-0.288 0.605,-0.578 0.911,-0.869c0.306,-0.291 0.622,-0.59 0.95,-0.899c0.327,-0.308 0.659,-0.614 0.994,-0.919c0.335,-0.304 0.674,-0.607 1.017,-0.908c0.342,-0.301 0.681,-0.611 1.017,-0.928c0.336,-0.318 0.668,-0.639 0.997,-0.966c0.329,-0.326 0.634,-0.637 0.915,-0.932c0.281,-0.295 0.566,-0.599 0.854,-0.911c0.288,-0.312 0.586,-0.649 0.895,-1.009c0.309,-0.36 0.601,-0.712 0.878,-1.054c0.276,-0.342 0.531,-0.639 0.763,-0.89c0.232,-0.251 0.466,-0.486 0.701,-0.705c0.235,-0.219 0.469,-0.449 0.703,-0.692c0.234,-0.242 0.459,-0.484 0.676,-0.725c0.217,-0.241 0.421,-0.454 0.612,-0.639c0.191,-0.185 0.378,-0.349 0.562,-0.493c0.184,-0.144 0.387,-0.298 0.609,-0.462c0.222,-0.164 0.448,-0.334 0.677,-0.509c0.229,-0.175 0.423,-0.332 0.582,-0.47c0.159,-0.138 0.271,-0.244 0.334,-0.32c0.064,-0.075 0.122,-0.146 0.174,-0.214c0.053,-0.067 0.143,-0.155 0.271,-0.263c0.128,-0.108 0.181,-0.195 0.16,-0.26" style="fill:none;fill-rule:nonzero;stroke:#000;stroke-width:0.85px;"/><path d="M17.422,22.418c0.084,0.027 0.152,-0.029 0.205,-0.168c0.052,-0.139 0.079,-0.29 0.079,-0.452c0,-0.162 0.002,-0.333 0.004,-0.512c0.002,-0.179 0.009,-0.369 0.021,-0.571c0.012,-0.201 0.029,-0.39 0.05,-0.567c0.022,-0.176 0.043,-0.324 0.065,-0.443c0.022,-0.119 0.04,-0.208 0.055,-0.266c0.015,-0.058 0.03,-0.09 0.044,-0.097c0.014,-0.006 0.039,-0.009 0.075,-0.009c0.036,-0 0.083,-0 0.143,-0l0.22,0c0.087,0 0.188,0.015 0.303,0.044c0.116,0.03 0.245,0.086 0.387,0.17c0.142,0.084 0.297,0.168 0.464,0.254c0.167,0.085 0.341,0.159 0.523,0.221c0.182,0.062 0.356,0.115 0.522,0.159c0.166,0.044 0.318,0.081 0.455,0.111c0.204,0.045 0.396,0.036 0.575,-0.027" style="fill:none;fill-rule:nonzero;stroke:#000;stroke-width:0.85px;"/><path d="M32.953,18.612c-0.019,0.011 -0,0.019 0.057,0.022c0.057,0.003 0.199,0.011 0.426,0.024c0.227,0.013 0.496,0.019 0.808,0.019c0.312,0 0.61,0.001 0.894,0.003c0.285,0.002 0.512,0.016 0.681,0.042c0.17,0.026 0.291,0.076 0.365,0.151c0.073,0.075 0.132,0.201 0.176,0.377c0.044,0.176 0.087,0.386 0.128,0.63c0.042,0.244 0.068,0.491 0.079,0.742c0.011,0.251 0.017,0.455 0.017,0.614c0,0.159 -0.056,0.232 -0.167,0.22" style="fill:none;fill-rule:nonzero;stroke:#000;stroke-width:0.85px;"/><path d="M64.403,21.516c0.024,0.075 0.094,0.119 0.209,0.132c0.078,0.009 0.163,0 0.253,-0.026c0.09,-0.026 0.221,-0.063 0.393,-0.111c0.171,-0.048 0.402,-0.12 0.692,-0.218c0.29,-0.098 0.608,-0.193 0.956,-0.287c0.347,-0.094 0.642,-0.159 0.885,-0.195c0.243,-0.036 0.426,-0.052 0.549,-0.049c0.123,0.004 0.228,0.05 0.316,0.138c0.088,0.088 0.177,0.215 0.267,0.381c0.09,0.166 0.171,0.34 0.242,0.522c0.072,0.182 0.126,0.353 0.164,0.512c0.038,0.159 0.058,0.264 0.062,0.315c0.004,0.071 -0.058,0.066 -0.186,-0.016" style="fill:none;fill-rule:nonzero;stroke:#000;stroke-width:0.85px;"/><path d="M33.302,38.54l-0.015,0.06l0.011,-0.054c0.012,-0.056 0.042,-0.194 0.089,-0.417c0.048,-0.222 0.092,-0.433 0.133,-0.632c0.041,-0.199 0.098,-0.397 0.172,-0.594c0.074,-0.197 0.166,-0.377 0.277,-0.539c0.111,-0.162 0.221,-0.295 0.331,-0.4c0.11,-0.105 0.225,-0.183 0.346,-0.236c0.121,-0.053 0.261,-0.082 0.419,-0.088c0.159,-0.006 0.334,-0.001 0.525,0.015c0.191,0.016 0.395,0.047 0.613,0.093c0.217,0.046 0.445,0.079 0.683,0.099c0.366,0.031 0.661,0.092 0.884,0.181" style="fill:none;fill-rule:nonzero;stroke:#000;stroke-width:0.85px;"/><path d="M51.392,55.908c0.015,0.062 0.036,0.151 0.062,0.266c0.017,0.073 0.025,0.113 0.026,0.119l0,0.002l0,-0.027l0,-1.784c0,-0.18 0.007,-0.337 0.02,-0.47c0.014,-0.133 0.044,-0.241 0.092,-0.323c0.048,-0.082 0.105,-0.148 0.172,-0.197c0.067,-0.049 0.15,-0.082 0.248,-0.098c0.098,-0.016 0.236,-0.021 0.412,-0.014c0.176,0.006 0.404,0.045 0.682,0.115c0.278,0.07 0.59,0.145 0.936,0.223c0.346,0.078 0.671,0.141 0.975,0.188c0.304,0.047 0.527,0.085 0.669,0.114c0.142,0.029 0.232,0.097 0.271,0.203" style="fill:none;fill-rule:nonzero;stroke:#000;stroke-width:0.85px;"/><path d="M8.038,8.2c-0.003,0.08 -0.084,0.053 -0.242,-0.081c-0.158,-0.134 -0.345,-0.19 -0.56,-0.169c-0.215,0.022 -0.452,0.114 -0.709,0.276c-0.257,0.162 -0.481,0.374 -0.672,0.636c-0.191,0.262 -0.298,0.529 -0.319,0.8c-0.022,0.271 0.077,0.478 0.296,0.619c0.219,0.142 0.511,0.223 0.875,0.244c0.364,0.021 0.703,-0.007 1.015,-0.083c0.312,-0.076 0.561,-0.207 0.746,-0.393c0.185,-0.186 0.321,-0.416 0.409,-0.69c0.088,-0.274 0.152,-0.565 0.192,-0.875c0.04,-0.309 0.065,-0.547 0.073,-0.715l0.01,-0.22l-0.001,0.004c-0.002,0.024 -0.013,0.172 -0.032,0.443c-0.019,0.272 -0.011,0.56 0.025,0.865c0.036,0.305 0.135,0.595 0.298,0.871c0.241,0.407 0.611,0.741 1.109,1.003" style="fill:none;fill-rule:nonzero;stroke:#000;stroke-width:0.85px;"/><path d="M39.34,4.35c-0.117,-0.103 -0.259,-0.21 -0.426,-0.322c-0.168,-0.111 -0.283,-0.154 -0.345,-0.128c-0.062,0.026 -0.069,0.2 -0.02,0.523c0.049,0.323 0.136,0.745 0.263,1.266c0.126,0.521 0.218,1.023 0.274,1.505c0.056,0.483 0.09,0.859 0.1,1.128c0.011,0.27 0.026,0.422 0.047,0.456c0.021,0.034 0.103,-0.051 0.248,-0.254c0.145,-0.204 0.356,-0.466 0.634,-0.787c0.278,-0.321 0.572,-0.563 0.884,-0.726c0.311,-0.163 0.604,-0.218 0.878,-0.164c0.274,0.054 0.512,0.244 0.715,0.569c0.203,0.325 0.33,0.651 0.382,0.977c0.052,0.326 -0.016,0.576 -0.204,0.75c-0.188,0.174 -0.495,0.279 -0.922,0.314c-0.427,0.036 -0.78,0.053 -1.06,0.054l-0.21,0l0.63,-0.001" style="fill:none;fill-rule:nonzero;stroke:#000;stroke-width:0.85px;"/><path d="M78.014,6.231c-0.004,-0.049 -0.091,-0.109 -0.261,-0.179c-0.17,-0.07 -0.406,-0.08 -0.707,-0.031c-0.301,0.049 -0.6,0.2 -0.895,0.453c-0.295,0.253 -0.497,0.557 -0.607,0.912c-0.11,0.355 -0.103,0.682 0.021,0.98c0.123,0.298 0.397,0.504 0.819,0.616c0.423,0.112 0.902,0.154 1.438,0.127c0.829,-0.042 1.436,-0.185 1.821,-0.429" style="fill:none;fill-rule:nonzero;stroke:#000;stroke-width:0.85px;"/><path d="M26.434,41.121c-0.038,0.047 -0.165,0.02 -0.379,-0.079c-0.215,-0.099 -0.449,-0.147 -0.703,-0.143c-0.254,0.004 -0.515,0.12 -0.784,0.348c-0.269,0.228 -0.464,0.537 -0.585,0.928c-0.121,0.391 -0.115,0.744 0.02,1.061c0.135,0.317 0.384,0.513 0.749,0.588c0.364,0.075 0.725,-0.004 1.082,-0.236c0.357,-0.233 0.633,-0.584 0.828,-1.054c0.195,-0.47 0.302,-1.017 0.322,-1.641c0.019,-0.624 0.017,-1.256 -0.007,-1.896c-0.024,-0.641 -0.036,-1.131 -0.037,-1.47c-0.001,-0.339 -0.001,-0.532 -0.001,-0.579c0,-0.046 0,-0.065 0,-0.056l0,0.301c0,0.119 0.01,0.309 0.03,0.569c0.02,0.261 0.095,0.635 0.224,1.122c0.129,0.487 0.301,1.042 0.515,1.664c0.214,0.622 0.416,1.179 0.606,1.671c0.19,0.492 0.32,0.842 0.392,1.052c0.071,0.209 0.069,0.305 -0.008,0.288" style="fill:none;fill-rule:nonzero;stroke:#000;stroke-width:0.85px;"/><path d="M61.061,53.852c-0.032,-0.03 0.155,-0.038 0.561,-0.023c0.406,0.015 0.809,0.012 1.209,-0.008c0.4,-0.02 0.749,-0.088 1.046,-0.203c0.297,-0.116 0.508,-0.257 0.631,-0.423c0.123,-0.166 0.183,-0.351 0.179,-0.554c-0.004,-0.203 -0.072,-0.382 -0.205,-0.536c-0.133,-0.154 -0.341,-0.236 -0.625,-0.247c-0.284,-0.011 -0.589,0.066 -0.915,0.23c-0.326,0.164 -0.611,0.391 -0.853,0.681c-0.242,0.29 -0.404,0.619 -0.486,0.985c-0.081,0.367 -0.056,0.752 0.075,1.155c0.131,0.404 0.377,0.754 0.738,1.051c0.36,0.297 0.753,0.506 1.178,0.627c0.425,0.12 0.849,0.181 1.275,0.183c0.425,0.001 0.859,-0.059 1.302,-0.181c0.443,-0.122 0.646,-0.211 0.61,-0.268" style="fill:none;fill-rule:nonzero;stroke:#000;stroke-width:0.85px;"/><path d="M4.647,20.428c0.002,0.108 0.067,0.19 0.194,0.245c0.127,0.055 0.385,0.08 0.773,0.076c0.388,-0.004 0.903,-0.039 1.543,-0.104c0.64,-0.065 1.393,-0.147 2.257,-0.246c0.864,-0.099 1.803,-0.204 2.816,-0.316c1.013,-0.112 1.976,-0.206 2.889,-0.284c0.912,-0.077 1.762,-0.123 2.548,-0.137c0.786,-0.014 1.568,-0.01 2.344,0.014c0.777,0.023 1.574,0.038 2.391,0.044c0.818,0.006 1.633,0.009 2.447,0.009c0.813,0 1.564,0 2.252,0c0.688,0 1.342,0.004 1.963,0.011c0.621,0.007 1.255,0.008 1.902,0.004c0.647,-0.004 1.294,-0.031 1.939,-0.08c0.646,-0.049 1.244,-0.087 1.795,-0.113c0.551,-0.026 1.088,-0.039 1.612,-0.04c0.524,-0 1.111,-0 1.761,-0c0.651,0 1.34,-0.001 2.068,-0.003c0.728,-0.002 1.419,-0.012 2.072,-0.028c0.653,-0.017 1.267,-0.027 1.842,-0.03c0.575,-0.003 1.207,-0.004 1.898,-0.004c0.691,-0 1.452,-0.02 2.283,-0.059c0.831,-0.039 1.601,-0.075 2.311,-0.108c0.71,-0.033 1.341,-0.043 1.893,-0.03c0.553,0.013 1.15,0.031 1.794,0.053c0.643,0.023 1.348,0.032 2.116,0.028c0.767,-0.004 1.52,-0.028 2.257,-0.073c0.738,-0.045 1.403,-0.079 1.996,-0.102c0.593,-0.023 1.154,-0.033 1.683,-0.029c0.528,0.004 1.054,0.022 1.576,0.053c0.523,0.031 1.063,0.051 1.623,0.059c0.559,0.008 1.138,0.013 1.735,0.013c0.597,0 1.196,0 1.796,0c0.6,0 1.193,0.004 1.777,0.013c0.585,0.009 1.13,0.037 1.636,0.084c0.506,0.047 1.017,0.09 1.532,0.128c0.515,0.038 1.056,0.056 1.622,0.055c0.566,-0.002 1.109,-0.026 1.629,-0.072c0.52,-0.046 1.005,-0.095 1.454,-0.144c0.449,-0.05 0.896,-0.08 1.34,-0.091c0.444,-0.011 0.9,-0.017 1.366,-0.017c0.466,-0 0.918,-0 1.355,-0l1.78,0c0.017,0 -0.035,-0.045 -0.156,-0.136" style="fill:none;fill-rule:nonzero;stroke:#c2361a;stroke-width:0.85px;stroke-dasharray:0,1.701;"/><path d="M95.229,35.346c0.032,-0.016 0.192,-0.039 0.482,-0.069c0.29,-0.031 0.71,-0.057 1.26,-0.078c0.551,-0.021 1.181,-0.046 1.891,-0.072c0.71,-0.027 1.342,-0.044 1.897,-0.053l0.416,-0.006l-1.249,0.018" style="fill:none;fill-rule:nonzero;stroke:#000;stroke-width:0.85px;"/><path d="M94.244,38.19c0.091,0.054 0.19,0.09 0.296,0.106c0.106,0.017 0.244,0.012 0.412,-0.013c0.169,-0.025 0.395,-0.071 0.68,-0.138c0.285,-0.067 0.618,-0.123 0.999,-0.165c0.381,-0.043 0.809,-0.066 1.284,-0.069c0.475,-0.003 0.966,-0.005 1.472,-0.005l1.365,0c0.403,0 0.57,-0.011 0.499,-0.033" style="fill:none;fill-rule:nonzero;stroke:#000;stroke-width:0.85px;"/><path d="M139.743,36.644c0.039,0.005 0.046,-0.044 0.021,-0.145c-0.024,-0.101 -0.074,-0.157 -0.148,-0.167c-0.075,-0.01 -0.155,-0.015 -0.242,-0.015c-0.087,-0 -0.18,0.022 -0.279,0.068c-0.099,0.045 -0.199,0.135 -0.299,0.269c-0.1,0.134 -0.18,0.285 -0.24,0.455c-0.06,0.17 -0.096,0.326 -0.107,0.468c-0.011,0.143 -0.016,0.265 -0.014,0.369c0.002,0.103 0.03,0.191 0.083,0.262c0.053,0.072 0.133,0.134 0.238,0.185c0.106,0.052 0.227,0.087 0.364,0.105c0.137,0.018 0.289,0.028 0.456,0.028c0.167,0 0.329,-0.017 0.485,-0.051c0.156,-0.034 0.296,-0.088 0.419,-0.16c0.123,-0.072 0.228,-0.156 0.314,-0.252c0.086,-0.096 0.157,-0.216 0.211,-0.36c0.055,-0.144 0.088,-0.294 0.099,-0.45c0.011,-0.156 0.013,-0.294 0.004,-0.415c-0.009,-0.121 -0.059,-0.218 -0.15,-0.293c-0.091,-0.075 -0.208,-0.129 -0.351,-0.165c-0.143,-0.035 -0.273,-0.058 -0.391,-0.069c-0.118,-0.01 -0.214,-0.016 -0.288,-0.016c-0.074,-0 -0.145,-0 -0.213,-0c-0.068,0 -0.149,0.002 -0.242,0.007c-0.094,0.004 -0.194,0.037 -0.301,0.097c-0.107,0.061 -0.21,0.159 -0.311,0.295c-0.1,0.136 -0.181,0.293 -0.241,0.472c-0.06,0.179 -0.096,0.357 -0.107,0.536c-0.011,0.178 -0.007,0.336 0.013,0.474c0.02,0.138 0.086,0.253 0.197,0.348c0.111,0.094 0.254,0.158 0.43,0.192c0.175,0.034 0.364,0.035 0.565,0.004c0.201,-0.031 0.381,-0.135 0.539,-0.311c0.158,-0.177 0.261,-0.401 0.309,-0.673c0.048,-0.272 0.052,-0.534 0.011,-0.784c-0.04,-0.25 -0.133,-0.43 -0.277,-0.538c-0.145,-0.108 -0.316,-0.154 -0.515,-0.139c-0.198,0.015 -0.379,0.09 -0.541,0.225c-0.163,0.135 -0.281,0.299 -0.355,0.494c-0.074,0.195 -0.109,0.407 -0.104,0.638c0.005,0.231 0.079,0.43 0.224,0.599c0.145,0.169 0.319,0.268 0.523,0.297c0.204,0.029 0.367,-0.009 0.488,-0.115c0.121,-0.105 0.189,-0.258 0.204,-0.46c0.015,-0.201 0.004,-0.36 -0.032,-0.476c-0.036,-0.116 -0.102,-0.177 -0.196,-0.183c-0.094,-0.006 -0.16,0.037 -0.196,0.129c-0.036,0.092 -0.046,0.177 -0.029,0.257c0.017,0.08 0.065,0.128 0.144,0.144c0.079,0.017 0.153,0.025 0.221,0.025c0.069,0 0.122,-0.007 0.16,-0.021c0.053,-0.02 -0.047,-0.229 -0.301,-0.63" style="fill:none;fill-rule:nonzero;stroke:#000;stroke-width:1.7px;"/><path d="M171.089,36.119c-0.037,0.067 -0.118,0.087 -0.245,0.059c-0.126,-0.027 -0.247,-0.05 -0.363,-0.068c-0.116,-0.018 -0.24,-0.028 -0.373,-0.031c-0.133,-0.003 -0.272,0.028 -0.418,0.092c-0.146,0.064 -0.269,0.172 -0.368,0.322c-0.1,0.151 -0.165,0.321 -0.197,0.513c-0.032,0.191 -0.033,0.382 -0.004,0.572c0.029,0.19 0.106,0.363 0.232,0.518c0.126,0.155 0.271,0.275 0.435,0.36c0.164,0.085 0.352,0.136 0.564,0.153c0.212,0.017 0.452,-0.009 0.72,-0.078c0.268,-0.069 0.529,-0.186 0.784,-0.351c0.255,-0.166 0.456,-0.344 0.604,-0.535c0.148,-0.191 0.244,-0.398 0.289,-0.62c0.045,-0.222 0.063,-0.434 0.055,-0.636c-0.008,-0.201 -0.069,-0.37 -0.184,-0.506c-0.114,-0.136 -0.281,-0.229 -0.5,-0.279c-0.219,-0.05 -0.432,-0.075 -0.639,-0.076c-0.207,-0 -0.407,0.023 -0.6,0.072c-0.193,0.048 -0.351,0.125 -0.473,0.23c-0.122,0.105 -0.209,0.243 -0.26,0.413c-0.051,0.17 -0.076,0.365 -0.075,0.585c0.001,0.22 0.047,0.426 0.137,0.618c0.09,0.192 0.223,0.327 0.399,0.404c0.175,0.078 0.345,0.096 0.51,0.054c0.165,-0.041 0.283,-0.155 0.355,-0.341c0.072,-0.186 0.092,-0.338 0.06,-0.457c-0.032,-0.119 -0.128,-0.177 -0.288,-0.174c-0.16,0.003 -0.298,0.08 -0.415,0.23c-0.117,0.151 -0.184,0.292 -0.2,0.424c-0.016,0.132 0.039,0.21 0.164,0.233c0.126,0.024 0.262,-0.004 0.41,-0.083l0.111,-0.059l-0.333,0.178" style="fill:none;fill-rule:nonzero;stroke:#000;stroke-width:1.7px;"/><path d="M202.712,36.663c0.015,0.084 0.068,0.137 0.158,0.162c0.062,0.017 0.103,-0.004 0.124,-0.063c0.02,-0.059 0.031,-0.12 0.031,-0.183c0,-0.064 -0.003,-0.118 -0.009,-0.162c-0.007,-0.045 -0.05,-0.078 -0.129,-0.101c-0.079,-0.023 -0.185,-0.036 -0.317,-0.039c-0.132,-0.003 -0.282,0.01 -0.449,0.04c-0.167,0.03 -0.325,0.102 -0.474,0.218c-0.149,0.116 -0.273,0.273 -0.373,0.472c-0.1,0.199 -0.16,0.411 -0.183,0.637c-0.022,0.226 0.019,0.423 0.125,0.592c0.105,0.168 0.286,0.286 0.542,0.353c0.256,0.067 0.537,0.091 0.842,0.072c0.306,-0.019 0.584,-0.107 0.835,-0.264c0.251,-0.157 0.457,-0.353 0.618,-0.588c0.161,-0.234 0.282,-0.467 0.363,-0.699c0.081,-0.232 0.128,-0.433 0.142,-0.603c0.014,-0.17 -0.026,-0.314 -0.12,-0.43c-0.094,-0.116 -0.249,-0.204 -0.464,-0.265c-0.216,-0.06 -0.458,-0.09 -0.726,-0.087c-0.268,0.002 -0.53,0.077 -0.784,0.223c-0.255,0.146 -0.442,0.343 -0.562,0.589c-0.12,0.246 -0.174,0.481 -0.162,0.704c0.012,0.223 0.1,0.394 0.263,0.513c0.163,0.118 0.333,0.192 0.512,0.222c0.178,0.029 0.332,0.041 0.46,0.035c0.129,-0.006 0.226,-0.055 0.291,-0.146c0.065,-0.091 0.104,-0.194 0.115,-0.309c0.011,-0.115 0.014,-0.206 0.007,-0.274c-0.007,-0.068 -0.026,-0.111 -0.057,-0.129c-0.031,-0.018 -0.049,-0.028 -0.055,-0.028c-0.008,-0 0.015,-0.05 0.071,-0.147" style="fill:none;fill-rule:nonzero;stroke:#000;stroke-width:1.7px;"/><path d="M140.355,36.119c-0.082,0.019 -0.169,0.038 -0.262,0.057c-0.093,0.02 -0.163,0.03 -0.21,0.03c-0.047,0 -0.087,0 -0.122,0c-0.035,0 -0.071,-0.003 -0.109,-0.01c-0.038,-0.007 -0.085,-0.02 -0.14,-0.039c-0.055,-0.019 -0.124,-0.034 -0.205,-0.044c-0.082,-0.01 -0.17,-0.015 -0.264,-0.015c-0.094,-0 -0.192,-0 -0.294,-0c-0.102,0 -0.214,0.033 -0.337,0.1c-0.123,0.066 -0.244,0.18 -0.361,0.34c-0.118,0.161 -0.209,0.326 -0.274,0.497c-0.065,0.171 -0.104,0.32 -0.115,0.448c-0.011,0.128 0,0.239 0.034,0.332c0.034,0.093 0.091,0.186 0.171,0.278c0.08,0.092 0.154,0.179 0.222,0.26c0.068,0.081 0.132,0.151 0.19,0.21c0.059,0.059 0.126,0.103 0.203,0.131c0.077,0.028 0.166,0.044 0.267,0.047c0.101,0.003 0.212,0.005 0.333,0.005l0.367,0c0.124,0 0.249,-0.001 0.375,-0.003c0.126,-0.002 0.254,-0.027 0.383,-0.076c0.129,-0.048 0.243,-0.129 0.342,-0.241c0.099,-0.113 0.172,-0.245 0.22,-0.396c0.048,-0.152 0.075,-0.311 0.081,-0.478c0.006,-0.167 0,-0.341 -0.018,-0.52c-0.018,-0.18 -0.11,-0.371 -0.277,-0.575c-0.167,-0.203 -0.235,-0.262 -0.205,-0.178" style="fill:none;fill-rule:nonzero;stroke:#000;stroke-width:1.7px;"/><path d="M140.005,28.397c0.02,-0.055 0.005,-0.132 -0.046,-0.231c-0.051,-0.1 -0.122,-0.173 -0.214,-0.219c-0.092,-0.046 -0.208,-0.078 -0.349,-0.094c-0.141,-0.016 -0.308,-0.021 -0.501,-0.014c-0.193,0.007 -0.386,0.049 -0.578,0.129c-0.192,0.079 -0.379,0.198 -0.559,0.356c-0.18,0.158 -0.335,0.341 -0.464,0.551c-0.129,0.21 -0.216,0.424 -0.26,0.643c-0.044,0.219 -0.059,0.42 -0.044,0.601c0.015,0.182 0.071,0.334 0.168,0.458c0.097,0.124 0.214,0.225 0.351,0.304c0.137,0.079 0.294,0.135 0.47,0.169c0.176,0.033 0.371,0.051 0.587,0.051c0.215,0.001 0.422,-0.022 0.62,-0.068c0.198,-0.046 0.376,-0.106 0.532,-0.178c0.157,-0.072 0.318,-0.163 0.485,-0.273c0.167,-0.11 0.336,-0.248 0.507,-0.414c0.171,-0.166 0.303,-0.342 0.396,-0.529c0.093,-0.187 0.148,-0.361 0.165,-0.524c0.017,-0.162 0.021,-0.301 0.012,-0.417c-0.009,-0.116 -0.028,-0.207 -0.057,-0.275c-0.029,-0.068 -0.053,-0.123 -0.073,-0.168c-0.02,-0.044 -0.035,-0.077 -0.045,-0.097c-0.01,-0.02 -0.018,-0.033 -0.023,-0.038c-0.005,-0.005 -0.008,-0.008 -0.008,-0.008c0,-0 -0.004,-0 -0.011,-0c-0.007,0 -0.011,0.017 -0.011,0.051c-0,0.034 -0,0.11 -0,0.229c0,0.119 0.004,0.269 0.013,0.452c0.009,0.183 0.035,0.39 0.077,0.622c0.043,0.232 0.101,0.453 0.175,0.664c0.074,0.211 0.173,0.385 0.297,0.521c0.189,0.208 0.374,0.334 0.557,0.38" style="fill:none;fill-rule:nonzero;stroke:#000;stroke-width:0.85px;"/><path d="M167.589,24.832c0.025,0.024 0.091,0.209 0.197,0.555c0.106,0.346 0.192,0.756 0.259,1.229c0.066,0.474 0.111,0.96 0.135,1.457c0.024,0.498 0.044,0.909 0.06,1.233c0.017,0.324 0.032,0.531 0.047,0.618c0.015,0.088 0.034,0.117 0.058,0.086c0.024,-0.03 0.064,-0.124 0.12,-0.279c0.057,-0.156 0.147,-0.351 0.27,-0.585c0.124,-0.234 0.278,-0.448 0.464,-0.643c0.185,-0.195 0.388,-0.343 0.608,-0.444c0.22,-0.101 0.445,-0.151 0.676,-0.15c0.231,0.001 0.449,0.077 0.655,0.226c0.205,0.15 0.38,0.329 0.524,0.537c0.144,0.208 0.241,0.418 0.29,0.63c0.05,0.211 0.043,0.413 -0.02,0.603c-0.063,0.191 -0.209,0.35 -0.44,0.477c-0.231,0.127 -0.491,0.22 -0.782,0.281c-0.291,0.06 -0.553,0.102 -0.788,0.125c-0.235,0.023 -0.404,0.035 -0.509,0.035c-0.145,0 -0.144,-0.093 0.005,-0.282" style="fill:none;fill-rule:nonzero;stroke:#000;stroke-width:0.85px;"/><path d="M203.483,27.811c0.057,-0.004 0.103,-0.058 0.14,-0.16c0.024,-0.069 0.005,-0.112 -0.059,-0.127c-0.064,-0.015 -0.202,-0.014 -0.416,0.003c-0.214,0.017 -0.458,0.104 -0.732,0.258c-0.274,0.155 -0.524,0.36 -0.751,0.614c-0.227,0.255 -0.389,0.513 -0.486,0.774c-0.097,0.261 -0.153,0.487 -0.167,0.677c-0.014,0.19 0.009,0.341 0.071,0.453c0.061,0.112 0.209,0.195 0.443,0.248c0.234,0.053 0.554,0.083 0.962,0.089c0.408,0.006 0.828,0.008 1.26,0.006c0.432,-0.002 0.789,-0.009 1.07,-0.021c0.281,-0.012 0.451,-0.018 0.51,-0.019c0.081,-0 0.067,-0.044 -0.041,-0.131" style="fill:none;fill-rule:nonzero;stroke:#000;stroke-width:0.85px;"/><path d="M156.673,21.047c-0.039,-0.001 -0.196,-0.02 -0.472,-0.056c-0.276,-0.036 -0.62,-0.086 -1.032,-0.149c-0.412,-0.063 -0.853,-0.126 -1.324,-0.189c-0.471,-0.063 -0.945,-0.108 -1.424,-0.134c-0.479,-0.026 -0.966,-0.035 -1.46,-0.027c-0.495,0.008 -0.997,0.047 -1.507,0.115c-0.51,0.068 -1.016,0.146 -1.518,0.234c-0.501,0.087 -0.991,0.185 -1.468,0.293c-0.477,0.108 -0.939,0.216 -1.385,0.324c-0.446,0.108 -0.874,0.194 -1.284,0.259c-0.41,0.064 -0.782,0.117 -1.116,0.157c-0.334,0.04 -0.612,0.065 -0.831,0.075c-0.22,0.01 -0.438,0.034 -0.655,0.072c-0.217,0.038 -0.46,0.092 -0.728,0.164c-0.268,0.072 -0.534,0.158 -0.797,0.259c-0.263,0.101 -0.527,0.217 -0.792,0.347c-0.264,0.13 -0.53,0.261 -0.798,0.393c-0.268,0.132 -0.513,0.251 -0.737,0.359c-0.223,0.108 -0.426,0.217 -0.606,0.328c-0.181,0.111 -0.369,0.246 -0.565,0.404c-0.196,0.159 -0.391,0.33 -0.586,0.514c-0.195,0.184 -0.383,0.368 -0.563,0.55c-0.18,0.182 -0.354,0.375 -0.522,0.578c-0.168,0.203 -0.331,0.413 -0.49,0.629c-0.159,0.216 -0.306,0.413 -0.443,0.59c-0.137,0.177 -0.262,0.341 -0.374,0.492c-0.112,0.151 -0.221,0.309 -0.326,0.473c-0.105,0.164 -0.205,0.338 -0.3,0.523c-0.095,0.184 -0.187,0.376 -0.274,0.574c-0.088,0.199 -0.172,0.404 -0.252,0.615c-0.081,0.211 -0.148,0.434 -0.203,0.669c-0.054,0.235 -0.107,0.475 -0.158,0.72c-0.051,0.245 -0.102,0.483 -0.153,0.712c-0.051,0.23 -0.107,0.446 -0.167,0.648c-0.06,0.203 -0.111,0.394 -0.151,0.575c-0.04,0.18 -0.064,0.364 -0.072,0.55c-0.008,0.186 -0.013,0.378 -0.013,0.575c-0,0.197 0.008,0.395 0.024,0.594c0.016,0.199 0.053,0.395 0.113,0.587c0.06,0.192 0.127,0.383 0.202,0.572c0.075,0.189 0.151,0.381 0.229,0.576c0.078,0.195 0.147,0.383 0.206,0.566c0.059,0.183 0.112,0.351 0.158,0.506c0.046,0.154 0.094,0.288 0.142,0.401c0.048,0.113 0.098,0.229 0.149,0.347c0.051,0.119 0.101,0.248 0.15,0.388c0.049,0.14 0.099,0.287 0.15,0.439c0.051,0.153 0.105,0.304 0.163,0.452c0.058,0.149 0.136,0.299 0.234,0.452c0.098,0.153 0.202,0.312 0.311,0.48c0.109,0.167 0.22,0.342 0.331,0.524c0.112,0.182 0.231,0.357 0.359,0.526c0.128,0.168 0.269,0.326 0.424,0.473c0.155,0.147 0.315,0.285 0.48,0.414c0.165,0.129 0.318,0.255 0.457,0.377c0.14,0.122 0.273,0.24 0.399,0.354c0.126,0.114 0.274,0.23 0.442,0.346c0.168,0.117 0.357,0.229 0.567,0.336c0.21,0.107 0.433,0.224 0.668,0.349c0.235,0.125 0.476,0.258 0.72,0.399c0.245,0.141 0.51,0.278 0.795,0.412c0.285,0.134 0.574,0.261 0.866,0.38c0.292,0.12 0.571,0.234 0.837,0.344c0.266,0.11 0.517,0.212 0.754,0.307c0.237,0.095 0.485,0.186 0.746,0.271c0.261,0.086 0.546,0.156 0.856,0.21c0.31,0.054 0.617,0.106 0.922,0.155c0.305,0.049 0.589,0.104 0.853,0.167c0.263,0.062 0.548,0.129 0.855,0.199c0.306,0.07 0.628,0.134 0.965,0.191c0.337,0.057 0.67,0.103 0.999,0.137c0.329,0.035 0.649,0.072 0.961,0.113c0.312,0.041 0.626,0.095 0.944,0.162c0.318,0.067 0.656,0.118 1.014,0.151c0.358,0.033 0.733,0.05 1.126,0.051c0.393,0.001 0.778,0.001 1.156,0.001l1.02,0c0.302,0 0.596,0.002 0.882,0.007c0.286,0.005 0.605,0.008 0.957,0.011c0.352,0.003 0.716,0.004 1.09,0.004l2.084,0c0.312,0 0.624,0.001 0.935,0.003c0.311,0.002 0.62,0.012 0.926,0.028c0.307,0.017 0.617,0.027 0.929,0.03c0.313,0.003 0.632,0.004 0.957,0.004c0.325,0 0.665,-0.011 1.018,-0.034c0.353,-0.023 0.724,-0.07 1.112,-0.141c0.388,-0.072 0.783,-0.151 1.186,-0.238c0.403,-0.087 0.807,-0.177 1.214,-0.269c0.406,-0.093 0.807,-0.19 1.203,-0.291c0.396,-0.101 0.788,-0.203 1.176,-0.306c0.388,-0.103 0.742,-0.194 1.063,-0.275c0.321,-0.081 0.62,-0.157 0.899,-0.227c0.278,-0.07 0.562,-0.162 0.853,-0.274c0.29,-0.112 0.593,-0.247 0.909,-0.403c0.315,-0.157 0.636,-0.318 0.962,-0.483c0.326,-0.165 0.632,-0.324 0.918,-0.475c0.286,-0.151 0.555,-0.304 0.807,-0.459c0.251,-0.155 0.494,-0.326 0.728,-0.515c0.234,-0.188 0.458,-0.401 0.673,-0.637c0.215,-0.237 0.407,-0.479 0.577,-0.727c0.169,-0.248 0.325,-0.494 0.466,-0.74c0.142,-0.245 0.285,-0.506 0.431,-0.782c0.146,-0.276 0.275,-0.548 0.389,-0.816c0.114,-0.268 0.202,-0.526 0.264,-0.775c0.062,-0.248 0.127,-0.504 0.194,-0.765c0.068,-0.262 0.137,-0.533 0.207,-0.815c0.071,-0.281 0.132,-0.567 0.184,-0.856c0.052,-0.289 0.1,-0.576 0.143,-0.86c0.044,-0.284 0.081,-0.573 0.111,-0.867c0.03,-0.294 0.049,-0.585 0.057,-0.872c0.008,-0.287 0.01,-0.567 0.006,-0.84c-0.004,-0.273 -0.03,-0.536 -0.077,-0.789c-0.047,-0.253 -0.103,-0.504 -0.168,-0.752c-0.065,-0.248 -0.147,-0.5 -0.245,-0.754c-0.098,-0.254 -0.217,-0.522 -0.357,-0.804c-0.14,-0.282 -0.296,-0.551 -0.47,-0.807c-0.174,-0.256 -0.355,-0.503 -0.544,-0.739c-0.189,-0.236 -0.387,-0.463 -0.593,-0.68c-0.206,-0.217 -0.421,-0.425 -0.644,-0.622c-0.223,-0.197 -0.445,-0.399 -0.667,-0.605c-0.221,-0.206 -0.432,-0.421 -0.633,-0.644c-0.2,-0.223 -0.39,-0.445 -0.57,-0.666c-0.18,-0.221 -0.366,-0.437 -0.561,-0.647c-0.194,-0.21 -0.407,-0.405 -0.639,-0.586c-0.232,-0.181 -0.472,-0.344 -0.72,-0.489c-0.248,-0.145 -0.495,-0.269 -0.743,-0.372c-0.248,-0.103 -0.496,-0.198 -0.743,-0.283c-0.248,-0.085 -0.518,-0.174 -0.81,-0.267c-0.292,-0.092 -0.605,-0.181 -0.939,-0.266c-0.334,-0.085 -0.672,-0.162 -1.012,-0.231c-0.341,-0.069 -0.675,-0.138 -1.004,-0.208c-0.329,-0.07 -0.642,-0.15 -0.94,-0.239c-0.298,-0.089 -0.576,-0.189 -0.835,-0.3c-0.259,-0.111 -0.514,-0.226 -0.764,-0.345c-0.25,-0.119 -0.509,-0.227 -0.775,-0.323c-0.267,-0.096 -0.542,-0.174 -0.825,-0.234c-0.283,-0.06 -0.58,-0.099 -0.891,-0.117c-0.311,-0.018 -0.603,-0.028 -0.877,-0.028c-0.274,-0 -0.54,-0 -0.798,-0l-0.787,0c-0.267,0 -0.56,0.011 -0.881,0.034c-0.321,0.023 -0.658,0.061 -1.013,0.114c-0.354,0.053 -0.685,0.097 -0.992,0.132c-0.307,0.035 -0.573,0.055 -0.797,0.061c-0.345,0.009 -0.628,-0.016 -0.85,-0.075" style="fill:none;fill-rule:nonzero;stroke:#000;stroke-width:0.85px;"/><path d="M173.407,11.248c-0.055,-0.025 -0.184,-0.059 -0.389,-0.104c-0.204,-0.045 -0.486,-0.078 -0.844,-0.101c-0.358,-0.022 -0.784,-0.048 -1.279,-0.076c-0.495,-0.029 -1.01,-0.068 -1.547,-0.118c-0.537,-0.05 -1.063,-0.104 -1.579,-0.16c-0.516,-0.056 -1.049,-0.094 -1.599,-0.112c-0.55,-0.018 -1.115,-0.029 -1.696,-0.031c-0.581,-0.002 -1.144,-0.02 -1.69,-0.053c-0.546,-0.033 -1.075,-0.061 -1.586,-0.084c-0.511,-0.023 -1.017,-0.034 -1.515,-0.032c-0.499,0.002 -0.974,0.029 -1.426,0.083c-0.452,0.053 -0.901,0.13 -1.346,0.231c-0.446,0.101 -0.952,0.213 -1.517,0.336c-0.566,0.123 -1.153,0.25 -1.762,0.382c-0.609,0.131 -1.173,0.264 -1.691,0.397c-0.518,0.133 -1.033,0.279 -1.545,0.436c-0.512,0.157 -1.027,0.323 -1.545,0.497c-0.518,0.175 -1.005,0.346 -1.46,0.514c-0.455,0.168 -0.877,0.339 -1.265,0.514c-0.388,0.174 -0.771,0.363 -1.147,0.566c-0.377,0.203 -0.757,0.424 -1.141,0.664c-0.384,0.24 -0.762,0.473 -1.135,0.7c-0.373,0.227 -0.728,0.432 -1.065,0.614c-0.337,0.182 -0.649,0.344 -0.934,0.485c-0.286,0.142 -0.568,0.285 -0.848,0.431c-0.279,0.145 -0.571,0.304 -0.876,0.475c-0.305,0.171 -0.612,0.352 -0.922,0.542c-0.31,0.19 -0.595,0.366 -0.857,0.53c-0.262,0.164 -0.519,0.329 -0.771,0.496c-0.253,0.167 -0.503,0.339 -0.751,0.517c-0.248,0.177 -0.489,0.349 -0.723,0.515c-0.234,0.166 -0.464,0.329 -0.69,0.489c-0.226,0.16 -0.456,0.322 -0.689,0.485c-0.233,0.163 -0.462,0.33 -0.686,0.502c-0.224,0.172 -0.44,0.356 -0.647,0.552c-0.207,0.196 -0.414,0.393 -0.62,0.593c-0.206,0.2 -0.413,0.404 -0.62,0.612c-0.207,0.208 -0.407,0.423 -0.599,0.643c-0.192,0.22 -0.376,0.448 -0.552,0.684c-0.176,0.236 -0.342,0.475 -0.498,0.717c-0.156,0.243 -0.31,0.491 -0.46,0.746c-0.151,0.255 -0.299,0.513 -0.446,0.776c-0.146,0.263 -0.281,0.518 -0.403,0.766c-0.123,0.248 -0.233,0.494 -0.331,0.737c-0.098,0.243 -0.2,0.496 -0.306,0.757c-0.106,0.261 -0.212,0.528 -0.317,0.801c-0.105,0.273 -0.204,0.531 -0.297,0.775c-0.093,0.244 -0.177,0.472 -0.253,0.685c-0.076,0.213 -0.147,0.42 -0.213,0.621c-0.066,0.202 -0.125,0.419 -0.177,0.65c-0.052,0.232 -0.096,0.483 -0.133,0.754c-0.037,0.271 -0.077,0.535 -0.12,0.791c-0.043,0.256 -0.084,0.492 -0.121,0.708c-0.037,0.215 -0.06,0.428 -0.068,0.639c-0.008,0.211 -0.013,0.435 -0.013,0.672l0,0.724c0,0.246 0.004,0.487 0.013,0.723c0.009,0.236 0.035,0.475 0.077,0.717c0.043,0.242 0.088,0.509 0.137,0.801c0.049,0.292 0.091,0.599 0.125,0.922c0.035,0.323 0.072,0.637 0.113,0.942c0.041,0.305 0.096,0.59 0.165,0.857c0.069,0.266 0.151,0.529 0.245,0.789c0.094,0.26 0.196,0.529 0.305,0.807c0.109,0.279 0.219,0.56 0.331,0.845c0.112,0.285 0.229,0.553 0.353,0.805c0.124,0.252 0.249,0.499 0.375,0.742c0.126,0.243 0.252,0.49 0.375,0.739c0.124,0.25 0.253,0.497 0.386,0.74c0.133,0.244 0.272,0.481 0.418,0.712c0.145,0.231 0.301,0.453 0.468,0.666c0.167,0.212 0.341,0.417 0.523,0.615c0.182,0.197 0.364,0.387 0.546,0.57c0.182,0.183 0.377,0.365 0.585,0.547c0.207,0.182 0.429,0.373 0.664,0.571c0.235,0.198 0.469,0.402 0.699,0.611c0.231,0.209 0.469,0.418 0.713,0.627c0.245,0.209 0.502,0.407 0.771,0.596c0.269,0.188 0.537,0.368 0.805,0.538c0.267,0.17 0.536,0.343 0.806,0.518c0.27,0.175 0.541,0.344 0.813,0.507c0.272,0.163 0.544,0.318 0.817,0.465c0.273,0.147 0.54,0.287 0.802,0.421c0.262,0.134 0.538,0.269 0.826,0.405c0.288,0.136 0.601,0.267 0.939,0.391c0.338,0.124 0.685,0.247 1.04,0.369c0.355,0.121 0.69,0.249 1.006,0.382c0.315,0.133 0.617,0.273 0.907,0.418c0.289,0.146 0.598,0.281 0.927,0.406c0.329,0.125 0.677,0.239 1.046,0.342c0.369,0.103 0.742,0.201 1.121,0.293c0.379,0.092 0.758,0.195 1.137,0.308c0.379,0.113 0.782,0.236 1.21,0.37c0.428,0.133 0.898,0.263 1.41,0.39c0.513,0.127 1.031,0.237 1.554,0.331c0.523,0.094 1.022,0.175 1.495,0.244c0.473,0.069 0.953,0.143 1.44,0.222c0.487,0.08 1.02,0.154 1.6,0.222c0.58,0.069 1.17,0.138 1.771,0.208c0.601,0.07 1.168,0.149 1.7,0.236c0.532,0.087 1.067,0.17 1.605,0.248c0.538,0.078 1.118,0.146 1.739,0.203c0.621,0.057 1.258,0.089 1.909,0.095c0.651,0.006 1.285,0.009 1.902,0.009c0.617,0 1.199,-0.003 1.745,-0.011c0.547,-0.007 1.098,-0.011 1.653,-0.011c0.555,-0 1.146,-0.012 1.773,-0.035c0.627,-0.023 1.245,-0.064 1.855,-0.124c0.61,-0.06 1.179,-0.111 1.71,-0.153c0.53,-0.042 1.053,-0.078 1.567,-0.107c0.515,-0.029 1.042,-0.061 1.581,-0.095c0.539,-0.034 1.064,-0.066 1.576,-0.095c0.512,-0.03 1.018,-0.059 1.519,-0.088c0.501,-0.029 0.992,-0.072 1.475,-0.129c0.483,-0.057 0.938,-0.111 1.365,-0.16c0.427,-0.05 0.841,-0.087 1.24,-0.112c0.399,-0.025 0.806,-0.055 1.221,-0.091c0.415,-0.036 0.823,-0.078 1.225,-0.126c0.402,-0.048 0.787,-0.102 1.155,-0.16c0.368,-0.058 0.733,-0.116 1.095,-0.175c0.362,-0.058 0.725,-0.111 1.09,-0.158c0.365,-0.047 0.726,-0.091 1.083,-0.132c0.358,-0.042 0.715,-0.083 1.073,-0.124c0.357,-0.041 0.699,-0.089 1.023,-0.145c0.325,-0.056 0.64,-0.117 0.947,-0.185c0.307,-0.068 0.615,-0.145 0.926,-0.231c0.311,-0.087 0.63,-0.187 0.957,-0.3c0.327,-0.113 0.661,-0.235 1.001,-0.366c0.34,-0.131 0.676,-0.264 1.007,-0.401c0.331,-0.136 0.643,-0.264 0.936,-0.384c0.294,-0.12 0.574,-0.235 0.842,-0.347c0.268,-0.112 0.553,-0.232 0.855,-0.36c0.302,-0.128 0.615,-0.259 0.938,-0.393c0.323,-0.134 0.619,-0.265 0.886,-0.394c0.268,-0.129 0.504,-0.249 0.711,-0.359c0.206,-0.11 0.398,-0.21 0.576,-0.301c0.178,-0.09 0.361,-0.186 0.55,-0.288c0.189,-0.102 0.379,-0.211 0.572,-0.327c0.192,-0.116 0.381,-0.245 0.566,-0.387c0.185,-0.142 0.373,-0.296 0.564,-0.46c0.191,-0.165 0.403,-0.347 0.635,-0.547c0.232,-0.2 0.466,-0.411 0.702,-0.632c0.236,-0.221 0.456,-0.443 0.659,-0.666c0.203,-0.223 0.408,-0.455 0.617,-0.695c0.208,-0.24 0.419,-0.483 0.634,-0.728c0.214,-0.245 0.426,-0.487 0.635,-0.726c0.209,-0.239 0.409,-0.474 0.6,-0.704c0.191,-0.231 0.36,-0.476 0.507,-0.735c0.147,-0.259 0.287,-0.531 0.418,-0.817c0.132,-0.286 0.263,-0.584 0.394,-0.894c0.131,-0.31 0.271,-0.629 0.418,-0.957c0.147,-0.327 0.297,-0.667 0.448,-1.018c0.151,-0.351 0.289,-0.72 0.414,-1.105c0.125,-0.385 0.238,-0.767 0.339,-1.145c0.101,-0.378 0.189,-0.735 0.265,-1.072c0.076,-0.337 0.144,-0.659 0.203,-0.966c0.059,-0.307 0.104,-0.6 0.134,-0.878c0.03,-0.278 0.054,-0.551 0.071,-0.818c0.017,-0.267 0.034,-0.538 0.051,-0.813c0.017,-0.275 0.027,-0.542 0.03,-0.803c0.003,-0.261 0.004,-0.522 0.004,-0.784c0,-0.262 -0.004,-0.534 -0.013,-0.815c-0.009,-0.281 -0.034,-0.561 -0.074,-0.838c-0.04,-0.277 -0.078,-0.555 -0.113,-0.832c-0.035,-0.277 -0.063,-0.559 -0.085,-0.845c-0.022,-0.286 -0.055,-0.58 -0.1,-0.881c-0.045,-0.301 -0.103,-0.588 -0.173,-0.862c-0.07,-0.274 -0.148,-0.522 -0.235,-0.745c-0.087,-0.223 -0.177,-0.44 -0.272,-0.651c-0.095,-0.211 -0.193,-0.417 -0.295,-0.617c-0.102,-0.2 -0.203,-0.399 -0.302,-0.599c-0.1,-0.199 -0.199,-0.4 -0.299,-0.601c-0.1,-0.201 -0.205,-0.413 -0.316,-0.636c-0.111,-0.223 -0.231,-0.445 -0.359,-0.667c-0.128,-0.221 -0.261,-0.437 -0.4,-0.646c-0.138,-0.21 -0.273,-0.416 -0.405,-0.621c-0.132,-0.204 -0.267,-0.408 -0.408,-0.613c-0.14,-0.204 -0.287,-0.407 -0.44,-0.609c-0.153,-0.202 -0.311,-0.389 -0.477,-0.56c-0.165,-0.171 -0.325,-0.337 -0.478,-0.498c-0.153,-0.16 -0.311,-0.32 -0.474,-0.478c-0.162,-0.158 -0.334,-0.332 -0.516,-0.523c-0.181,-0.19 -0.378,-0.388 -0.591,-0.592c-0.212,-0.204 -0.458,-0.405 -0.738,-0.602c-0.279,-0.197 -0.569,-0.382 -0.868,-0.553c-0.299,-0.171 -0.581,-0.344 -0.845,-0.518c-0.264,-0.174 -0.52,-0.373 -0.768,-0.597c-0.248,-0.223 -0.512,-0.476 -0.792,-0.757c-0.281,-0.281 -0.577,-0.543 -0.889,-0.786c-0.312,-0.243 -0.64,-0.471 -0.985,-0.685c-0.344,-0.214 -0.679,-0.43 -1.004,-0.649c-0.325,-0.219 -0.621,-0.433 -0.887,-0.642c-0.267,-0.21 -0.54,-0.42 -0.82,-0.631c-0.28,-0.211 -0.6,-0.404 -0.959,-0.579c-0.359,-0.175 -0.739,-0.332 -1.14,-0.471c-0.401,-0.139 -0.779,-0.275 -1.136,-0.406c-0.357,-0.131 -0.702,-0.282 -1.034,-0.452c-0.333,-0.17 -0.704,-0.359 -1.113,-0.565c-0.41,-0.206 -0.846,-0.389 -1.31,-0.547c-0.464,-0.158 -0.901,-0.297 -1.311,-0.416c-0.41,-0.119 -0.818,-0.242 -1.223,-0.369c-0.405,-0.126 -0.845,-0.248 -1.321,-0.366c-0.476,-0.117 -0.97,-0.2 -1.482,-0.246c-0.512,-0.047 -1.014,-0.072 -1.503,-0.075c-0.49,-0.003 -0.959,-0.007 -1.408,-0.012c-0.449,-0.004 -0.902,-0.03 -1.36,-0.077c-0.458,-0.047 -0.931,-0.099 -1.419,-0.155c-0.488,-0.056 -0.96,-0.106 -1.417,-0.15c-0.457,-0.044 -0.872,-0.088 -1.247,-0.132c-0.375,-0.044 -0.754,-0.087 -1.139,-0.131c-0.385,-0.044 -0.814,-0.083 -1.289,-0.118c-0.475,-0.035 -0.968,-0.053 -1.479,-0.054c-0.511,-0.001 -0.978,0.024 -1.399,0.075c-0.421,0.051 -0.816,0.113 -1.184,0.186c-0.542,0.108 -1.219,0.222 -2.03,0.344" style="fill:none;fill-rule:nonzero;stroke:#000;stroke-width:0.85px;"/><path d="M181.085,47.121c-0.006,-0.076 -0.024,-0.157 -0.054,-0.24c-0.03,-0.084 -0.061,-0.151 -0.092,-0.202c-0.031,-0.051 -0.073,-0.097 -0.126,-0.139c-0.052,-0.042 -0.135,-0.068 -0.249,-0.079c-0.114,-0.011 -0.271,-0.005 -0.472,0.017c-0.201,0.022 -0.437,0.112 -0.707,0.269c-0.27,0.157 -0.525,0.388 -0.763,0.691c-0.238,0.304 -0.416,0.644 -0.533,1.022c-0.117,0.378 -0.18,0.717 -0.191,1.015c-0.01,0.299 0.025,0.513 0.106,0.643c0.081,0.13 0.187,0.206 0.317,0.229c0.13,0.022 0.283,0.033 0.459,0.031c0.176,-0.002 0.351,-0.026 0.524,-0.073c0.173,-0.046 0.348,-0.134 0.525,-0.265c0.177,-0.13 0.354,-0.324 0.532,-0.581c0.178,-0.257 0.356,-0.579 0.536,-0.966c0.18,-0.387 0.349,-0.822 0.509,-1.306c0.16,-0.484 0.286,-0.953 0.378,-1.408c0.093,-0.455 0.16,-0.851 0.203,-1.188c0.042,-0.337 0.085,-0.646 0.129,-0.927c0.043,-0.281 0.088,-0.53 0.135,-0.747c0.047,-0.217 0.079,-0.376 0.097,-0.478c0.018,-0.102 0.027,-0.16 0.028,-0.174l0,-0.013l0,0.005l0,0.064c0,0.033 -0.002,0.108 -0.007,0.225c-0.004,0.116 -0.023,0.332 -0.056,0.648c-0.033,0.315 -0.067,0.715 -0.101,1.198c-0.034,0.483 -0.059,1.013 -0.075,1.589c-0.015,0.576 -0.023,1.141 -0.024,1.696c-0,0.555 0.004,0.981 0.013,1.277c0.009,0.296 0.039,0.469 0.091,0.52c0.052,0.05 0.124,0.076 0.217,0.076c0.132,0.001 0.29,-0.241 0.472,-0.726" style="fill:none;fill-rule:nonzero;stroke:#000;stroke-width:0.85px;"/><path d="M216.15,49.112c0.089,0.042 0.19,0.088 0.302,0.139c0.112,0.051 0.232,0.084 0.359,0.1c0.127,0.015 0.278,0.023 0.454,0.024c0.176,0 0.357,-0.015 0.545,-0.047c0.187,-0.032 0.364,-0.103 0.53,-0.215c0.166,-0.112 0.319,-0.254 0.459,-0.426c0.14,-0.173 0.254,-0.372 0.341,-0.599c0.087,-0.227 0.14,-0.447 0.156,-0.66c0.017,-0.213 0,-0.384 -0.05,-0.511c-0.05,-0.127 -0.147,-0.225 -0.29,-0.295c-0.143,-0.07 -0.3,-0.113 -0.469,-0.13c-0.17,-0.016 -0.337,-0.012 -0.503,0.012c-0.166,0.025 -0.331,0.097 -0.496,0.218c-0.165,0.12 -0.332,0.277 -0.499,0.469c-0.168,0.192 -0.316,0.392 -0.444,0.599c-0.128,0.207 -0.242,0.408 -0.343,0.606c-0.101,0.197 -0.188,0.398 -0.262,0.601c-0.074,0.204 -0.133,0.409 -0.178,0.616c-0.045,0.207 -0.072,0.401 -0.08,0.582c-0.008,0.181 -0.013,0.354 -0.013,0.52c-0,0.166 0.011,0.318 0.034,0.455c0.023,0.138 0.091,0.251 0.204,0.34c0.113,0.089 0.258,0.16 0.433,0.212c0.175,0.052 0.39,0.097 0.644,0.134c0.254,0.037 0.551,0.06 0.889,0.068c0.338,0.008 0.671,0.013 0.998,0.013c0.327,0 0.612,-0.007 0.854,-0.02c0.242,-0.014 0.422,-0.035 0.541,-0.063l0.089,-0.021l-0.267,0.064" style="fill:none;fill-rule:nonzero;stroke:#000;stroke-width:0.85px;"/></svg>