<?xml version="1.0" encoding="UTF-8" standalone="no"?><!DOCTYPE svg PUBLIC "-//W3C//DTD SVG 1.1//EN" "http://www.w3.org/Graphics/SVG/1.1/DTD/svg11.dtd"><svg width="100%" height="100%" viewBox="0 0 147 76" version="1.1" xmlns="http://www.w3.org/2000/svg" xmlns:xlink="http://www.w3.org/1999/xlink" xml:space="preserve" xmlns:serif="http://www.serif.com/" style="fill-rule:evenodd;clip-rule:evenodd;stroke-linecap:round;stroke-linejoin:round;stroke-miterlimit:10;"><rect id="Artboard3" x="-0" y="-0" width="146.256" height="75.12" style="fill:none;"/><rect x="0" y="0" width="146.256" height="75.12" style="fill:#fff;"/><path d="M8.873,68.985c-0.07,0.047 -0.147,0.093 -0.232,0.14c-0.084,0.047 -0.149,0.071 -0.193,0.074c-0.045,0.003 -0.072,0.002 -0.083,-0.002c-0.011,-0.004 -0.013,-0.046 -0.007,-0.125c0.007,-0.079 0.047,-0.2 0.122,-0.362c0.075,-0.162 0.183,-0.389 0.324,-0.68c0.141,-0.291 0.317,-0.673 0.529,-1.147c0.211,-0.474 0.451,-0.999 0.719,-1.574c0.268,-0.575 0.527,-1.097 0.776,-1.567c0.249,-0.47 0.483,-0.907 0.7,-1.314c0.217,-0.406 0.435,-0.838 0.653,-1.294c0.218,-0.457 0.461,-0.947 0.729,-1.47c0.268,-0.523 0.529,-1.02 0.784,-1.49c0.254,-0.47 0.487,-0.898 0.697,-1.285c0.21,-0.386 0.407,-0.782 0.59,-1.188c0.183,-0.406 0.367,-0.845 0.551,-1.317c0.184,-0.472 0.378,-0.936 0.582,-1.392c0.203,-0.456 0.414,-0.889 0.633,-1.299c0.219,-0.41 0.418,-0.788 0.597,-1.132c0.179,-0.345 0.343,-0.694 0.492,-1.048c0.149,-0.354 0.288,-0.717 0.417,-1.091c0.129,-0.373 0.274,-0.761 0.433,-1.162c0.159,-0.401 0.326,-0.753 0.501,-1.057c0.175,-0.304 0.337,-0.559 0.486,-0.766c0.15,-0.207 0.291,-0.41 0.425,-0.611c0.134,-0.201 0.283,-0.45 0.447,-0.747c0.164,-0.298 0.329,-0.615 0.495,-0.953c0.165,-0.337 0.316,-0.651 0.451,-0.941c0.135,-0.29 0.263,-0.559 0.385,-0.807c0.122,-0.248 0.247,-0.504 0.375,-0.769c0.129,-0.264 0.264,-0.527 0.407,-0.788c0.143,-0.261 0.276,-0.494 0.399,-0.701c0.123,-0.207 0.235,-0.392 0.338,-0.555c0.102,-0.164 0.208,-0.336 0.317,-0.517c0.109,-0.181 0.224,-0.378 0.345,-0.592c0.122,-0.214 0.222,-0.393 0.302,-0.537c0.08,-0.144 0.148,-0.259 0.204,-0.346c0.056,-0.087 0.119,-0.18 0.188,-0.28l0.052,-0.075l-0.156,0.226" style="fill:none;fill-rule:nonzero;stroke:#c2361a;stroke-width:0.85px;"/><path d="M25.195,36.273c0.075,-0.018 0.153,0.001 0.234,0.057c0.055,0.038 0.085,0.118 0.09,0.241c0.005,0.123 0.02,0.275 0.046,0.455c0.026,0.181 0.067,0.395 0.124,0.642c0.057,0.247 0.139,0.551 0.247,0.911c0.108,0.36 0.239,0.75 0.395,1.17c0.156,0.42 0.337,0.819 0.541,1.198c0.205,0.379 0.421,0.729 0.65,1.049c0.229,0.32 0.434,0.622 0.616,0.905c0.182,0.283 0.331,0.544 0.448,0.781c0.116,0.237 0.226,0.477 0.331,0.719c0.104,0.242 0.208,0.499 0.31,0.77c0.102,0.271 0.211,0.552 0.327,0.843c0.116,0.291 0.242,0.577 0.377,0.857c0.136,0.28 0.269,0.544 0.401,0.791c0.132,0.247 0.247,0.482 0.345,0.706c0.099,0.224 0.194,0.459 0.286,0.706c0.092,0.247 0.186,0.513 0.28,0.798c0.095,0.285 0.194,0.574 0.298,0.866c0.104,0.292 0.213,0.566 0.327,0.82c0.114,0.255 0.226,0.482 0.336,0.683c0.11,0.201 0.212,0.399 0.307,0.593c0.095,0.194 0.194,0.402 0.295,0.624c0.102,0.222 0.205,0.456 0.309,0.701c0.104,0.245 0.208,0.481 0.31,0.708c0.102,0.227 0.203,0.448 0.303,0.666c0.1,0.217 0.197,0.425 0.292,0.625c0.095,0.2 0.187,0.39 0.278,0.57c0.09,0.181 0.18,0.364 0.27,0.551c0.09,0.187 0.176,0.375 0.259,0.564c0.083,0.19 0.163,0.38 0.241,0.572c0.078,0.192 0.151,0.391 0.22,0.597c0.069,0.207 0.132,0.397 0.191,0.571c0.058,0.174 0.114,0.343 0.168,0.509c0.054,0.166 0.115,0.336 0.185,0.513c0.07,0.176 0.145,0.363 0.225,0.559c0.08,0.197 0.154,0.396 0.223,0.597c0.069,0.201 0.138,0.408 0.208,0.619c0.07,0.211 0.145,0.419 0.225,0.623c0.08,0.204 0.158,0.404 0.233,0.599c0.076,0.195 0.146,0.377 0.212,0.546c0.066,0.169 0.127,0.326 0.183,0.473c0.056,0.147 0.11,0.28 0.161,0.4c0.051,0.12 0.102,0.243 0.153,0.368c0.051,0.126 0.109,0.273 0.174,0.441c0.065,0.168 0.135,0.349 0.21,0.54c0.075,0.192 0.146,0.369 0.212,0.531c0.066,0.162 0.132,0.31 0.197,0.444c0.066,0.134 0.135,0.269 0.207,0.405c0.072,0.136 0.149,0.273 0.229,0.412c0.08,0.139 0.161,0.267 0.241,0.385c0.08,0.118 0.153,0.221 0.216,0.309c0.064,0.088 0.126,0.188 0.186,0.301c0.089,0.165 0.152,0.393 0.191,0.686" style="fill:none;fill-rule:nonzero;stroke:#348ad8;stroke-width:0.85px;"/><path d="M25.014,35.744c0.076,0.029 0.131,0.076 0.165,0.142c0.023,0.045 0.017,0.041 -0.02,-0.013c-0.036,-0.053 -0.075,-0.246 -0.116,-0.578c-0.041,-0.332 -0.068,-0.682 -0.083,-1.049c-0.015,-0.367 -0.023,-0.789 -0.026,-1.267c-0.003,-0.478 -0.004,-0.956 -0.004,-1.434l0,-3.835c0,-0.383 0.001,-0.726 0.003,-1.028c0.002,-0.302 0.006,-0.573 0.011,-0.813c0.005,-0.24 0.008,-0.496 0.008,-0.768c0,-0.272 0,-0.596 0,-0.971l0,-4.625c0,-0.311 -0.001,-0.644 -0.003,-0.998c-0.002,-0.354 -0.006,-0.71 -0.011,-1.067c-0.005,-0.358 -0.008,-0.698 -0.008,-1.02c-0,-0.322 -0.002,-0.636 -0.007,-0.939c-0.005,-0.304 -0.012,-0.612 -0.021,-0.926c-0.009,-0.313 -0.02,-0.628 -0.033,-0.944c-0.012,-0.316 -0.02,-0.637 -0.023,-0.965c-0.003,-0.328 -0.004,-0.652 -0.004,-0.973c0,-0.321 -0.002,-0.651 -0.007,-0.99c-0.005,-0.339 -0.008,-0.678 -0.011,-1.017c-0.003,-0.339 -0.004,-0.66 -0.004,-0.966c0,-0.305 -0.002,-0.591 -0.007,-0.858c-0.005,-0.267 -0.013,-0.512 -0.025,-0.737c-0.012,-0.225 -0.026,-0.448 -0.043,-0.669c-0.017,-0.221 -0.03,-0.45 -0.04,-0.688c-0.01,-0.238 -0.015,-0.465 -0.015,-0.683c-0,-0.218 -0.004,-0.399 -0.011,-0.543c-0.007,-0.144 -0.012,-0.252 -0.014,-0.322c-0.002,-0.071 -0.006,-0.111 -0.011,-0.123c-0.007,-0.016 -0.048,0.021 -0.124,0.113" style="fill:none;fill-rule:nonzero;stroke:#983da2;stroke-width:0.85px;"/><path d="M22.698,22.108c-0.02,0 -0.101,0 -0.242,0l-0.208,0c-0.006,0 0.004,-0.012 0.029,-0.037c0.025,-0.025 0.099,-0.095 0.222,-0.212c0.123,-0.116 0.268,-0.249 0.434,-0.399c0.167,-0.15 0.34,-0.301 0.52,-0.455c0.18,-0.154 0.336,-0.286 0.47,-0.398c0.134,-0.111 0.248,-0.195 0.344,-0.25c0.095,-0.055 0.192,-0.097 0.289,-0.124c0.097,-0.028 0.199,-0.047 0.306,-0.057c0.107,-0.01 0.204,-0.015 0.293,-0.015c0.088,-0 0.174,0.024 0.256,0.072c0.082,0.048 0.174,0.12 0.276,0.217c0.101,0.096 0.209,0.198 0.323,0.304c0.114,0.107 0.235,0.215 0.363,0.324c0.128,0.109 0.266,0.219 0.414,0.328c0.148,0.109 0.295,0.213 0.441,0.311c0.146,0.098 0.283,0.186 0.41,0.264c0.127,0.078 0.234,0.144 0.321,0.196c0.087,0.052 0.15,0.093 0.19,0.122c0.054,0.039 0.042,0.053 -0.035,0.04" style="fill:none;fill-rule:nonzero;stroke:#983da2;stroke-width:0.85px;"/><path d="M12.93,53.296c0.023,0.049 0.087,0.099 0.191,0.151c0.067,0.033 0.128,0.046 0.183,0.037c0.055,-0.009 0.151,-0.037 0.288,-0.084c0.137,-0.047 0.324,-0.121 0.561,-0.22c0.237,-0.1 0.499,-0.223 0.785,-0.37c0.286,-0.147 0.552,-0.29 0.798,-0.43c0.246,-0.14 0.437,-0.238 0.575,-0.295c0.138,-0.057 0.23,-0.066 0.276,-0.027c0.046,0.039 0.092,0.137 0.137,0.292c0.045,0.155 0.121,0.31 0.228,0.463c0.107,0.153 0.237,0.312 0.389,0.477c0.152,0.165 0.3,0.335 0.444,0.513c0.144,0.177 0.28,0.336 0.41,0.477c0.129,0.141 0.27,0.245 0.424,0.313l0.115,0.051l-0.345,-0.153" style="fill:none;fill-rule:nonzero;stroke:#c2361a;stroke-width:0.85px;"/><path d="M30.72,54.787c-0.009,0.052 -0.043,0.129 -0.103,0.23c-0.038,0.064 -0.058,0.1 -0.061,0.108l-0.001,0.004l0.01,-0.02c0.009,-0.019 0.03,-0.068 0.064,-0.146c0.034,-0.078 0.109,-0.229 0.223,-0.453c0.114,-0.224 0.216,-0.457 0.306,-0.699c0.089,-0.242 0.183,-0.519 0.28,-0.831c0.097,-0.312 0.181,-0.588 0.25,-0.825c0.07,-0.238 0.12,-0.398 0.15,-0.481c0.03,-0.083 0.06,-0.128 0.088,-0.134c0.029,-0.006 0.08,-0.003 0.153,0.011c0.073,0.014 0.181,0.029 0.325,0.047c0.144,0.017 0.307,0.037 0.49,0.058c0.183,0.021 0.375,0.073 0.574,0.155c0.199,0.082 0.4,0.19 0.601,0.326c0.201,0.135 0.412,0.265 0.632,0.39c0.22,0.125 0.453,0.22 0.698,0.286c0.245,0.066 0.49,0.102 0.736,0.108c0.246,0.006 0.405,0.009 0.477,0.01c0.1,-0 0.021,-0.141 -0.237,-0.424" style="fill:none;fill-rule:nonzero;stroke:#348ad8;stroke-width:0.85px;"/><path d="M6.664,47.504l0,-0.429c0,-0.166 -0.029,-0.293 -0.086,-0.38c-0.057,-0.088 -0.158,-0.139 -0.301,-0.153c-0.144,-0.014 -0.308,0.019 -0.494,0.102c-0.186,0.082 -0.39,0.248 -0.612,0.498c-0.222,0.25 -0.436,0.546 -0.643,0.888c-0.206,0.342 -0.352,0.686 -0.437,1.03c-0.085,0.344 -0.072,0.624 0.041,0.839c0.112,0.215 0.339,0.344 0.68,0.385c0.341,0.042 0.688,0.025 1.04,-0.05c0.352,-0.075 0.659,-0.217 0.92,-0.427c0.261,-0.21 0.455,-0.467 0.582,-0.772c0.127,-0.305 0.209,-0.645 0.248,-1.021c0.039,-0.375 0.06,-0.696 0.063,-0.963c0.003,-0.267 0.005,-0.438 0.005,-0.515c0,-0.077 -0.006,-0.098 -0.017,-0.063c-0.011,0.035 -0.022,0.136 -0.033,0.305c-0.01,0.169 -0.007,0.355 0.011,0.558c0.018,0.203 0.075,0.412 0.172,0.626c0.097,0.214 0.209,0.427 0.338,0.638c0.194,0.32 0.37,0.622 0.529,0.906" style="fill:none;fill-rule:nonzero;stroke:#c2361a;stroke-width:0.85px;"/><path d="M40.018,44.237c0.081,0.026 0.146,0.095 0.195,0.207c0.033,0.075 0.045,0.206 0.036,0.394c-0.009,0.188 -0.027,0.444 -0.054,0.766c-0.027,0.322 -0.041,0.669 -0.041,1.042c-0.001,0.373 0.013,0.746 0.04,1.119c0.028,0.373 0.06,0.675 0.097,0.906c0.037,0.231 0.064,0.37 0.081,0.42c0.017,0.049 0.058,0.011 0.121,-0.114c0.063,-0.126 0.157,-0.328 0.281,-0.607c0.124,-0.279 0.286,-0.531 0.485,-0.756c0.199,-0.225 0.412,-0.382 0.637,-0.47c0.226,-0.088 0.454,-0.107 0.684,-0.056c0.231,0.05 0.448,0.176 0.652,0.376c0.204,0.2 0.358,0.415 0.462,0.645c0.104,0.23 0.136,0.472 0.096,0.726c-0.04,0.254 -0.165,0.509 -0.374,0.766c-0.209,0.256 -0.416,0.465 -0.622,0.625c-0.206,0.16 -0.401,0.266 -0.586,0.318c-0.185,0.052 -0.38,0.07 -0.586,0.053c-0.296,-0.024 -0.645,-0.307 -1.048,-0.849" style="fill:none;fill-rule:nonzero;stroke:#348ad8;stroke-width:0.85px;"/><path d="M35.997,17.908c-0.029,0 -0.124,0 -0.285,-0l-0.482,0c-0.089,0 -0.206,0.021 -0.351,0.064c-0.145,0.043 -0.341,0.183 -0.588,0.421c-0.247,0.238 -0.485,0.539 -0.715,0.903c-0.23,0.364 -0.372,0.709 -0.427,1.036c-0.055,0.327 -0.023,0.596 0.096,0.81c0.119,0.213 0.308,0.385 0.567,0.517c0.259,0.132 0.552,0.223 0.877,0.275c0.325,0.052 0.696,0.066 1.111,0.042c0.415,-0.024 0.811,-0.097 1.186,-0.221c0.678,-0.224 1.057,-0.331 1.137,-0.322" style="fill:none;fill-rule:nonzero;stroke:#983da2;stroke-width:0.85px;"/><path d="M120.76,37.114l0.016,-0.131l-0.006,0.044" style="fill:none;fill-rule:nonzero;stroke:#983da2;stroke-width:0.85px;"/><path d="M120.537,37.054c0.055,-0.016 0.093,-0.079 0.114,-0.19c0.014,-0.074 0.022,-0.125 0.022,-0.152l0,-0.06c0,-0.013 -0.001,-0.011 -0.003,0.004c-0.002,0.015 -0.02,0.112 -0.053,0.291c-0.033,0.179 -0.082,0.447 -0.146,0.803c-0.065,0.356 -0.126,0.732 -0.185,1.126c-0.059,0.394 -0.1,0.793 -0.123,1.197c-0.023,0.404 -0.035,0.781 -0.036,1.131c-0,0.35 0.002,0.682 0.006,0.996c0.004,0.314 0.016,0.631 0.036,0.952c0.019,0.321 0.032,0.633 0.037,0.938c0.005,0.305 0.008,0.589 0.008,0.853c0,0.264 0,0.518 0,0.761l0,5.958c0,0.238 -0.006,0.478 -0.017,0.721c-0.011,0.243 -0.029,0.497 -0.053,0.764c-0.024,0.266 -0.045,0.536 -0.062,0.808c-0.017,0.272 -0.029,0.545 -0.034,0.817c-0.005,0.272 -0.008,0.551 -0.008,0.837c-0,0.286 -0,0.592 -0,0.918c0,0.327 0.002,0.66 0.007,1c0.005,0.34 0.008,0.668 0.011,0.983c0.003,0.315 0.004,0.612 0.004,0.894l0,8.899c0,0.264 -0.007,0.513 -0.021,0.746c-0.014,0.233 -0.027,0.409 -0.04,0.529c-0.013,0.119 -0.044,0.119 -0.095,-0.002c-0.072,-0.173 -0.299,-0.716 -0.681,-1.631" style="fill:none;fill-rule:nonzero;stroke:#983da2;stroke-width:0.85px;"/><path d="M117.075,53.932c-0.01,0.033 -0.066,0.08 -0.169,0.142c-0.063,0.038 -0.097,0.057 -0.1,0.058c-0.003,0 0.042,-0.042 0.136,-0.126c0.094,-0.085 0.231,-0.238 0.41,-0.459c0.18,-0.221 0.349,-0.437 0.507,-0.649c0.158,-0.212 0.306,-0.402 0.443,-0.572c0.137,-0.17 0.262,-0.314 0.374,-0.433c0.112,-0.119 0.217,-0.212 0.315,-0.279c0.098,-0.067 0.2,-0.109 0.306,-0.126c0.106,-0.016 0.218,-0.017 0.334,-0.002c0.116,0.015 0.244,0.085 0.384,0.21c0.14,0.124 0.299,0.282 0.478,0.472c0.178,0.19 0.374,0.385 0.587,0.585c0.213,0.199 0.432,0.389 0.658,0.567c0.226,0.179 0.444,0.333 0.654,0.464c0.21,0.131 0.391,0.23 0.542,0.298c0.151,0.068 0.263,0.111 0.337,0.13c0.099,0.025 0.081,0.033 -0.055,0.024" style="fill:none;fill-rule:nonzero;stroke:#983da2;stroke-width:0.85px;"/><path d="M119.929,34.773c0.028,0.088 0.062,0.21 0.103,0.365c0.041,0.155 0.081,0.291 0.119,0.409c0.038,0.118 0.076,0.21 0.113,0.278c0.037,0.067 0.06,0.109 0.068,0.126c0.008,0.016 0.012,0.021 0.011,0.013c-0.001,-0.008 -0.005,-0.027 -0.01,-0.057c-0.005,-0.031 -0.08,-0.196 -0.224,-0.495c-0.144,-0.3 -0.342,-0.72 -0.594,-1.26c-0.251,-0.541 -0.525,-1.12 -0.82,-1.738c-0.295,-0.618 -0.621,-1.291 -0.978,-2.017c-0.356,-0.727 -0.679,-1.414 -0.967,-2.061c-0.288,-0.648 -0.518,-1.191 -0.689,-1.631c-0.171,-0.439 -0.342,-0.85 -0.514,-1.232c-0.172,-0.382 -0.359,-0.775 -0.562,-1.18c-0.203,-0.405 -0.395,-0.811 -0.577,-1.217c-0.182,-0.406 -0.343,-0.803 -0.485,-1.19c-0.142,-0.387 -0.293,-0.762 -0.455,-1.125c-0.161,-0.363 -0.35,-0.727 -0.567,-1.091c-0.217,-0.364 -0.435,-0.732 -0.655,-1.104c-0.22,-0.372 -0.425,-0.745 -0.615,-1.119c-0.19,-0.374 -0.366,-0.742 -0.528,-1.102c-0.162,-0.361 -0.338,-0.718 -0.53,-1.072c-0.192,-0.354 -0.433,-0.746 -0.723,-1.175c-0.29,-0.429 -0.593,-0.879 -0.908,-1.348c-0.315,-0.47 -0.571,-0.88 -0.767,-1.23c-0.196,-0.351 -0.377,-0.654 -0.542,-0.911c-0.165,-0.257 -0.357,-0.545 -0.576,-0.865c-0.219,-0.32 -0.446,-0.675 -0.68,-1.065c-0.234,-0.39 -0.426,-0.739 -0.575,-1.048c-0.149,-0.309 -0.276,-0.547 -0.381,-0.714c-0.105,-0.167 -0.213,-0.317 -0.325,-0.451c-0.112,-0.134 -0.218,-0.3 -0.318,-0.498c-0.1,-0.199 -0.19,-0.407 -0.268,-0.624c-0.079,-0.217 -0.135,-0.376 -0.168,-0.476c-0.033,-0.1 -0.051,-0.153 -0.051,-0.16c-0.001,-0.01 -0.003,0.013 -0.007,0.068" style="fill:none;fill-rule:nonzero;stroke:#c2361a;stroke-width:0.85px;"/><path d="M110.413,22.764c0.005,0.074 0.01,0.177 0.016,0.307c0.004,0.084 0.013,0.12 0.026,0.109c0.014,-0.011 0.052,-0.111 0.116,-0.298c0.064,-0.187 0.139,-0.42 0.226,-0.698c0.087,-0.278 0.177,-0.555 0.269,-0.83c0.092,-0.275 0.18,-0.517 0.263,-0.725c0.083,-0.208 0.158,-0.365 0.224,-0.473c0.066,-0.108 0.137,-0.196 0.215,-0.265c0.077,-0.069 0.161,-0.128 0.25,-0.177c0.089,-0.049 0.182,-0.088 0.276,-0.116c0.095,-0.028 0.196,-0.043 0.305,-0.046c0.108,-0.003 0.235,0.007 0.38,0.029c0.145,0.023 0.305,0.077 0.481,0.162c0.176,0.086 0.369,0.174 0.579,0.264c0.21,0.09 0.44,0.172 0.689,0.246c0.249,0.073 0.496,0.137 0.74,0.191c0.244,0.054 0.468,0.105 0.671,0.154c0.204,0.049 0.371,0.083 0.503,0.101c0.132,0.018 0.212,0.028 0.24,0.028l0.016,0l-0.044,-0c-0.068,-0 -0.167,-0 -0.297,0.001" style="fill:none;fill-rule:nonzero;stroke:#c2361a;stroke-width:0.85px;"/><path d="M121.186,35.845c-0.1,0.056 -0.156,0.009 -0.165,-0.141c-0.007,-0.11 0.055,-0.264 0.187,-0.465c0.132,-0.2 0.305,-0.461 0.519,-0.782c0.214,-0.321 0.447,-0.696 0.698,-1.125c0.252,-0.429 0.508,-0.895 0.768,-1.399c0.26,-0.504 0.516,-1 0.766,-1.49c0.251,-0.49 0.5,-0.986 0.748,-1.49c0.248,-0.504 0.495,-1.012 0.74,-1.524c0.246,-0.512 0.474,-0.969 0.685,-1.372c0.211,-0.403 0.418,-0.782 0.621,-1.137c0.204,-0.355 0.432,-0.749 0.685,-1.183c0.253,-0.434 0.502,-0.9 0.746,-1.399c0.245,-0.499 0.477,-1.003 0.698,-1.51c0.221,-0.507 0.465,-1.042 0.733,-1.603c0.268,-0.561 0.553,-1.148 0.856,-1.76c0.303,-0.612 0.593,-1.189 0.869,-1.733c0.276,-0.543 0.523,-1.048 0.739,-1.514c0.216,-0.466 0.431,-0.938 0.643,-1.415c0.213,-0.477 0.446,-0.99 0.7,-1.54c0.254,-0.55 0.512,-1.074 0.775,-1.574c0.263,-0.499 0.511,-0.97 0.743,-1.413c0.232,-0.443 0.454,-0.895 0.666,-1.356c0.212,-0.461 0.406,-0.866 0.584,-1.216c0.177,-0.35 0.306,-0.593 0.385,-0.729c0.079,-0.136 0.124,-0.212 0.135,-0.229l0.005,-0.008l-0.021,0.036c-0.031,0.051 -0.085,0.144 -0.162,0.279" style="fill:none;fill-rule:nonzero;stroke:#348ad8;stroke-width:0.85px;"/><path d="M125.77,20.411c0.091,0.002 0.187,-0.033 0.289,-0.107c0.067,-0.049 0.118,-0.09 0.152,-0.125c0.034,-0.035 0.096,-0.074 0.188,-0.12c0.092,-0.045 0.237,-0.104 0.435,-0.176c0.198,-0.072 0.423,-0.155 0.675,-0.249c0.252,-0.094 0.497,-0.188 0.736,-0.28c0.239,-0.093 0.449,-0.17 0.629,-0.232c0.18,-0.062 0.321,-0.105 0.424,-0.128c0.103,-0.023 0.175,-0.024 0.218,-0.002c0.043,0.022 0.079,0.109 0.108,0.263c0.029,0.153 0.072,0.324 0.129,0.514c0.057,0.19 0.132,0.377 0.226,0.561c0.094,0.184 0.189,0.374 0.287,0.568c0.098,0.194 0.183,0.393 0.257,0.597c0.074,0.204 0.14,0.393 0.199,0.568c0.059,0.175 0.114,0.303 0.165,0.384c0.051,0.082 0.077,0.099 0.077,0.053c-0,-0.066 -0.001,-0.272 -0.003,-0.62" style="fill:none;fill-rule:nonzero;stroke:#348ad8;stroke-width:0.85px;"/><path d="M133.141,21.321c0.101,-0.006 0.181,0.04 0.239,0.139c0.058,0.099 0.105,0.292 0.14,0.58c0.036,0.287 0.072,0.663 0.109,1.126c0.037,0.463 0.061,0.925 0.071,1.386c0.011,0.461 0.022,0.808 0.034,1.041c0.012,0.233 0.027,0.367 0.047,0.402c0.019,0.034 0.054,-0.007 0.106,-0.124c0.051,-0.117 0.146,-0.292 0.284,-0.527c0.138,-0.235 0.303,-0.438 0.496,-0.612c0.193,-0.173 0.389,-0.291 0.588,-0.354c0.199,-0.063 0.403,-0.084 0.612,-0.066c0.209,0.019 0.388,0.111 0.537,0.275c0.149,0.164 0.253,0.375 0.313,0.633c0.059,0.257 0.086,0.534 0.081,0.83c-0.005,0.296 -0.062,0.568 -0.169,0.816c-0.108,0.248 -0.242,0.447 -0.404,0.597c-0.162,0.15 -0.331,0.255 -0.508,0.317c-0.177,0.061 -0.363,0.088 -0.559,0.081c-0.285,-0.011 -0.677,-0.149 -1.178,-0.416" style="fill:none;fill-rule:nonzero;stroke:#348ad8;stroke-width:0.85px;"/><path d="M105.1,21.832c0.119,0.018 0.233,-0.007 0.344,-0.074c0.075,-0.045 0.086,-0.096 0.033,-0.154c-0.052,-0.058 -0.122,-0.123 -0.21,-0.196c-0.087,-0.073 -0.186,-0.139 -0.296,-0.198c-0.11,-0.059 -0.251,-0.096 -0.421,-0.11c-0.171,-0.014 -0.346,0.027 -0.526,0.123c-0.18,0.096 -0.352,0.264 -0.516,0.502c-0.164,0.239 -0.297,0.515 -0.4,0.829c-0.103,0.314 -0.155,0.624 -0.157,0.929c-0.002,0.306 0.09,0.557 0.274,0.753c0.184,0.197 0.411,0.327 0.68,0.39c0.269,0.063 0.511,0.082 0.725,0.056c0.214,-0.026 0.403,-0.111 0.567,-0.256c0.164,-0.145 0.318,-0.303 0.462,-0.475c0.144,-0.172 0.273,-0.365 0.386,-0.579c0.113,-0.214 0.202,-0.445 0.267,-0.693c0.065,-0.248 0.105,-0.455 0.119,-0.622c0.014,-0.167 0.021,-0.288 0.021,-0.364c0,-0.076 -0.007,-0.121 -0.021,-0.135c-0.014,-0.014 -0.028,-0.019 -0.043,-0.015c-0.015,0.004 -0.023,0.058 -0.023,0.162c-0,0.104 0.018,0.27 0.054,0.497c0.036,0.228 0.11,0.485 0.22,0.773c0.11,0.288 0.204,0.582 0.281,0.884c0.077,0.302 0.145,0.566 0.203,0.793c0.059,0.227 0.099,0.371 0.12,0.43c0.031,0.085 0.188,0.115 0.471,0.09" style="fill:none;fill-rule:nonzero;stroke:#c2361a;stroke-width:0.85px;"/><path d="M129.16,52.513c-0.113,-0.005 -0.172,-0.071 -0.177,-0.196c-0.005,-0.125 -0.006,-0.226 -0.003,-0.302c0.003,-0.076 -0.017,-0.134 -0.06,-0.175c-0.043,-0.04 -0.148,-0.044 -0.313,-0.012c-0.166,0.032 -0.368,0.181 -0.607,0.446c-0.239,0.265 -0.447,0.587 -0.623,0.965c-0.176,0.378 -0.285,0.721 -0.327,1.029c-0.042,0.308 0.007,0.556 0.145,0.745c0.138,0.189 0.375,0.331 0.71,0.427c0.335,0.096 0.747,0.148 1.234,0.155c0.487,0.007 0.939,-0.029 1.356,-0.108c0.416,-0.079 0.676,-0.137 0.777,-0.173c0.143,-0.051 0.054,-0.211 -0.267,-0.48" style="fill:none;fill-rule:nonzero;stroke:#983da2;stroke-width:0.85px;"/></svg>