<?xml version="1.0" encoding="UTF-8" standalone="no"?><!DOCTYPE svg PUBLIC "-//W3C//DTD SVG 1.1//EN" "http://www.w3.org/Graphics/SVG/1.1/DTD/svg11.dtd"><svg width="100%" height="100%" viewBox="0 0 663 175" version="1.1" xmlns="http://www.w3.org/2000/svg" xmlns:xlink="http://www.w3.org/1999/xlink" xml:space="preserve" xmlns:serif="http://www.serif.com/" style="fill-rule:evenodd;clip-rule:evenodd;stroke-linecap:round;stroke-linejoin:round;stroke-miterlimit:10;"><rect x="0" y="0" width="663" height="175" style="fill:#fff;"/><g><path d="M70.554,74.903c-0.304,-0.213 -0.563,-0.475 -0.771,-0.783c-0.213,-0.308 -0.292,-0.571 -0.238,-0.783c0.054,-0.217 0.258,-0.358 0.613,-0.425c0.354,-0.071 0.817,-0.067 1.383,0.008c0.571,0.075 1.158,0.433 1.771,1.075c0.608,0.646 1.113,1.546 1.508,2.704c0.396,1.158 0.646,2.542 0.758,4.158c0.108,1.617 0.058,3.258 -0.158,4.925c-0.217,1.667 -0.771,3.083 -1.671,4.25c-0.896,1.167 -2.079,2.038 -3.55,2.617c-1.467,0.579 -3.058,0.892 -4.767,0.938c-1.704,0.05 -3.354,-0.25 -4.942,-0.9c-1.588,-0.646 -3.038,-1.504 -4.354,-2.571c-1.317,-1.067 -2.404,-2.192 -3.267,-3.371c-0.863,-1.179 -1.408,-2.408 -1.646,-3.679c-0.233,-1.275 -0.125,-2.596 0.329,-3.971c0.454,-1.371 1.304,-2.733 2.55,-4.088c1.246,-1.354 2.567,-2.579 3.963,-3.683c1.396,-1.1 2.692,-2.05 3.888,-2.842c1.196,-0.796 2.371,-1.358 3.517,-1.688c1.146,-0.329 2.571,-0.517 4.271,-0.567c1.7,-0.05 3.554,-0.075 5.563,-0.075c2.008,0 3.946,0.046 5.808,0.133c1.867,0.083 3.488,0.183 4.867,0.296c1.379,0.108 2.304,0.242 2.771,0.4c0.642,0.217 0.421,0.521 -0.654,0.913" style="fill:none;fill-rule:nonzero;stroke:#000;stroke-width:3.54px;"/></g><g><path d="M96.075,55.215c-0.175,-0.333 -0.283,-0.704 -0.325,-1.113c-0.038,-0.408 0.329,-0.758 1.104,-1.042c0.779,-0.288 1.742,-0.483 2.896,-0.592c1.154,-0.108 2.171,-0.088 3.058,0.071c0.883,0.158 1.467,0.708 1.754,1.65c0.292,0.942 0.246,2.175 -0.133,3.708c-0.379,1.533 -0.929,3.121 -1.646,4.767c-0.721,1.642 -1.246,3.083 -1.575,4.317c-0.333,1.233 -0.45,2.167 -0.358,2.796c0.096,0.633 0.554,1.021 1.379,1.167c0.821,0.146 1.821,0.163 2.988,0.05c1.167,-0.113 2.108,-0.246 2.817,-0.4l0.529,-0.113l-1.592,0.342" style="fill:none;fill-rule:nonzero;stroke:#000;stroke-width:3.54px;"/></g><g><path d="M96.163,63.693c0.408,-0.017 1.617,-0.133 3.633,-0.35c3.038,-0.325 5.929,-0.554 8.667,-0.696" style="fill:none;fill-rule:nonzero;stroke:#000;stroke-width:3.54px;"/></g><g><path d="M135.813,38.175c0.025,-0.125 0.046,0 0.058,0.375c0.017,0.371 0.058,1.308 0.121,2.8c0.063,1.496 0.088,3.375 0.079,5.642c-0.008,2.267 -0.025,4.479 -0.046,6.633c-0.021,2.15 -0.008,4.021 0.038,5.613c0.046,1.588 0.192,3.004 0.429,4.25c0.238,1.246 0.433,2.442 0.592,3.588c0.158,1.142 0.242,2.246 0.258,3.304c0.013,1.063 0.021,2.029 0.021,2.904c0,0.875 -0.088,1.742 -0.258,2.604c-0.171,0.858 -0.371,1.733 -0.6,2.625c-0.229,0.892 -0.354,1.783 -0.379,2.675c-0.029,0.892 -0.042,1.838 -0.042,2.842l0,3.392c0,1.258 -0.033,2.6 -0.1,4.021c-0.067,1.425 -0.15,2.875 -0.254,4.354c-0.1,1.479 -0.158,2.883 -0.171,4.221c-0.013,1.333 -0.021,2.525 -0.021,3.579c0,1.054 -0.029,2.071 -0.088,3.054c-0.054,0.979 -0.129,2.029 -0.221,3.146c-0.092,1.117 -0.154,2.233 -0.188,3.342c-0.033,1.113 -0.05,2.067 -0.05,2.867l0,2.104c0,0.604 -0.021,1.271 -0.058,2c-0.033,0.729 -0.113,1.55 -0.233,2.458c-0.121,0.908 -0.233,1.767 -0.338,2.571c-0.1,0.808 -0.183,1.517 -0.246,2.133c-0.058,0.617 -0.096,1.071 -0.108,1.367c-0.013,0.296 -0.021,0.467 -0.021,0.517c0,0.067 -0.125,0.254 -0.375,0.558" style="fill:none;fill-rule:nonzero;stroke:#000;stroke-width:3.54px;"/></g><g><path d="M173.271,74.082c0.105,-0.033 0.581,-0.14 1.426,-0.32c0.845,-0.18 1.991,-0.323 3.442,-0.427c1.447,-0.1 3.159,-0.182 5.135,-0.245c1.976,-0.063 3.893,0.013 5.752,0.23" style="fill:none;fill-rule:nonzero;stroke:#000;stroke-width:3.54px;"/></g><g><path d="M169.433,83.083c-0.225,-0.029 -0.625,0.167 -1.196,0.579c-0.358,0.263 -0.454,0.433 -0.283,0.513c0.171,0.079 0.863,0.1 2.079,0.063c1.217,-0.038 2.713,-0.154 4.479,-0.354c1.767,-0.196 3.6,-0.358 5.492,-0.483c1.892,-0.129 3.746,-0.217 5.554,-0.271c1.808,-0.054 3.383,-0.083 4.721,-0.096c1.338,-0.013 1.771,-0.054 1.292,-0.125" style="fill:none;fill-rule:nonzero;stroke:#000;stroke-width:3.54px;"/></g><g><path d="M266.783,37.352l0,-1.083c0,-0.413 0.033,-0.696 0.1,-0.854c0.071,-0.163 0.104,-0.188 0.108,-0.083c0.008,0.1 0.017,0.363 0.038,0.779c0.017,0.417 0.029,1.508 0.029,3.279c0,1.771 0.008,3.629 0.025,5.579c0.021,1.946 0.104,3.879 0.25,5.796c0.15,1.917 0.275,3.771 0.379,5.558c0.104,1.788 0.229,3.392 0.379,4.804c0.146,1.413 0.308,2.688 0.483,3.833c0.171,1.138 0.279,2.238 0.325,3.292c0.046,1.058 0.071,2.075 0.071,3.063l0,4.938c0,0.692 -0.017,1.471 -0.054,2.342c-0.038,0.871 -0.158,1.813 -0.354,2.825c-0.196,1.008 -0.354,2.004 -0.471,2.979c-0.117,0.971 -0.192,1.892 -0.225,2.754c-0.029,0.867 -0.079,1.758 -0.15,2.675c-0.067,0.917 -0.15,1.875 -0.238,2.875c-0.092,1.004 -0.188,2.05 -0.292,3.138c-0.1,1.088 -0.171,2.204 -0.217,3.346c-0.042,1.146 -0.067,2.304 -0.079,3.479c-0.013,1.179 -0.017,2.233 -0.017,3.163l0,15.554c0,0.454 0.013,0.929 0.042,1.425c0.029,0.492 0.079,0.988 0.15,1.488c0.071,0.496 0.117,0.979 0.138,1.446c0.025,0.467 0.033,0.9 0.033,1.296c0,0.4 0.004,0.821 0.004,1.263l0,2.571c0,0.358 0.025,0.588 0.079,0.679c0.054,0.092 0.079,0.029 0.071,-0.188c-0.013,-0.313 0.175,-0.908 0.558,-1.8" style="fill:none;fill-rule:nonzero;stroke:#000;stroke-width:3.54px;"/></g><g><path d="M405.596,71.898c0.013,-0.325 0.117,-0.663 0.313,-1.008c0.196,-0.35 0.538,-0.571 1.021,-0.667c0.483,-0.096 1.158,-0.067 2.025,0.092c0.867,0.154 1.867,0.708 2.992,1.65c1.129,0.942 2.133,2.046 3.008,3.304c0.879,1.258 1.471,2.596 1.788,4.008c0.317,1.413 0.3,2.858 -0.046,4.338c-0.342,1.475 -1.063,2.871 -2.158,4.175c-1.092,1.308 -2.3,2.354 -3.621,3.133c-1.321,0.779 -2.679,1.329 -4.075,1.65c-1.4,0.317 -2.796,0.488 -4.192,0.504c-1.396,0.017 -2.796,-0.208 -4.208,-0.679c-1.408,-0.471 -2.621,-1.25 -3.633,-2.346c-1.017,-1.096 -1.708,-2.421 -2.088,-3.988c-0.375,-1.563 -0.488,-3.258 -0.338,-5.083c0.154,-1.829 0.483,-3.546 0.983,-5.15c0.5,-1.608 0.971,-2.929 1.408,-3.963c0.433,-1.033 0.996,-1.842 1.679,-2.421c0.683,-0.579 1.733,-1.121 3.146,-1.625c1.417,-0.504 3.35,-1.013 5.808,-1.525c2.454,-0.508 4.946,-0.858 7.475,-1.042c2.529,-0.188 4.513,-0.267 5.954,-0.242l1.079,0.017l-3.242,-0.054" style="fill:none;fill-rule:nonzero;stroke:#000;stroke-width:3.54px;"/></g><g><path d="M425.646,49.018c0.008,-0.317 0.217,-0.654 0.621,-1.017c0.408,-0.358 1.208,-0.621 2.408,-0.788c1.196,-0.167 2.504,-0.233 3.929,-0.204c1.421,0.033 2.529,0.338 3.317,0.908c0.788,0.575 1.204,1.429 1.254,2.567c0.046,1.133 -0.379,2.446 -1.279,3.938c-0.896,1.488 -1.792,2.929 -2.675,4.317c-0.888,1.388 -1.433,2.492 -1.642,3.321c-0.208,0.825 0.054,1.304 0.796,1.433c0.738,0.133 1.525,0.183 2.358,0.158l0.625,-0.021l-1.875,0.063" style="fill:none;fill-rule:nonzero;stroke:#000;stroke-width:3.54px;"/></g><g><path d="M426.738,57.585c0.15,-0.229 1.221,-0.417 3.217,-0.563c2.992,-0.217 6.025,-0.379 9.1,-0.488" style="fill:none;fill-rule:nonzero;stroke:#000;stroke-width:3.54px;"/></g><g><path d="M501.022,76.505c0.189,0.26 0.787,0.388 1.783,0.382c0.996,-0.001 2.322,-0.108 3.987,-0.318c1.661,-0.207 3.492,-0.361 5.489,-0.46c1.993,-0.095 3.831,-0.12 5.509,-0.068" style="fill:none;fill-rule:nonzero;stroke:#000;stroke-width:3.54px;"/></g><g><path d="M499.924,84.346c0.187,0.017 0.771,0.081 1.75,0.19c0.982,0.108 2.389,0.183 4.22,0.215c1.835,0.032 4.169,0.049 7,0.048c4.36,0.003 8.019,0.051 10.986,0.147" style="fill:none;fill-rule:nonzero;stroke:#000;stroke-width:3.54px;"/></g><g><path d="M548.871,78.513c-0.321,0.104 -0.692,0.25 -1.121,0.438c-0.429,0.183 -0.683,0.308 -0.763,0.375c-0.083,0.063 0.138,0.096 0.654,0.096c0.517,0 1.546,0.004 3.088,0.004c1.542,0 3.271,-0.029 5.183,-0.088c1.913,-0.058 4.083,-0.15 6.513,-0.279c3.763,-0.204 6.621,-0.742 8.583,-1.621" style="fill:none;fill-rule:nonzero;stroke:#000;stroke-width:3.54px;"/></g><g><path d="M467.938,20.726c-0.183,-0.104 -0.142,0.504 0.129,1.825c0.267,1.325 0.442,2.817 0.525,4.475c0.083,1.658 0.146,3.563 0.192,5.717c0.042,2.15 0.063,4.329 0.063,6.529c0,2.204 0.004,4.313 0.017,6.325c0.008,2.008 0.038,3.904 0.088,5.675c0.05,1.771 0.129,3.442 0.238,5.004c0.113,1.567 0.171,3.146 0.188,4.742c0.013,1.596 0.008,3.225 -0.008,4.888c-0.017,1.663 -0.079,3.254 -0.175,4.779c-0.1,1.521 -0.175,2.946 -0.217,4.275c-0.042,1.325 -0.075,2.542 -0.096,3.654c-0.021,1.108 -0.033,2.242 -0.033,3.4c0,1.158 -0.017,2.408 -0.054,3.754c-0.042,1.342 -0.071,2.638 -0.092,3.888c-0.025,1.25 -0.038,2.429 -0.05,3.542c-0.008,1.108 -0.033,2.229 -0.071,3.358c-0.042,1.129 -0.067,2.288 -0.079,3.475c-0.013,1.183 -0.017,2.346 -0.017,3.479l0,3.375c0,1.113 -0.029,2.283 -0.088,3.5c-0.058,1.221 -0.104,2.496 -0.138,3.829c-0.033,1.333 -0.05,2.642 -0.05,3.925l0,12.6c0,0.958 0.013,1.904 0.029,2.825c0.021,0.925 0.063,1.796 0.133,2.608c0.067,0.817 0.129,1.613 0.179,2.392c0.054,0.779 0.088,1.567 0.1,2.354c0.008,0.792 0.017,1.571 0.017,2.342l0,1.958c0,0.533 0.054,0.558 0.163,0.079" style="fill:none;fill-rule:nonzero;stroke:#c2361a;stroke-width:7.08px;"/></g><g><path d="M603.192,18.448l-1,0c-0.279,0 -0.425,0.004 -0.438,0.017c-0.013,0.008 -0.008,0.238 0.021,0.688c0.025,0.45 0.154,1.333 0.379,2.646c0.229,1.313 0.404,3.029 0.533,5.154c0.129,2.125 0.2,4.321 0.213,6.592c0.013,2.267 0.071,4.421 0.175,6.458c0.104,2.038 0.308,3.842 0.604,5.408c0.3,1.567 0.558,3.092 0.779,4.575c0.221,1.488 0.329,3.042 0.325,4.667c-0.004,1.625 -0.079,3.254 -0.229,4.888c-0.146,1.633 -0.271,3.204 -0.375,4.708c-0.104,1.5 -0.175,2.921 -0.208,4.254c-0.033,1.333 -0.042,2.592 -0.021,3.771c0.017,1.179 0.075,2.313 0.175,3.413c0.104,1.096 0.146,2.238 0.129,3.425c-0.017,1.188 -0.125,2.463 -0.333,3.829c-0.204,1.363 -0.363,2.675 -0.471,3.938c-0.108,1.263 -0.163,2.429 -0.167,3.5c0,1.067 0.025,2.113 0.071,3.133c0.05,1.021 0.075,2.138 0.079,3.358c0.004,1.217 -0.029,2.446 -0.1,3.683c-0.071,1.242 -0.108,2.429 -0.121,3.567c-0.013,1.138 -0.021,2.246 -0.021,3.329c0,1.083 -0.017,2.225 -0.054,3.425c-0.038,1.2 -0.154,2.396 -0.342,3.588c-0.188,1.188 -0.304,2.25 -0.354,3.179c-0.046,0.933 -0.071,1.742 -0.071,2.429l0,2.042c0,0.671 0.025,1.433 0.075,2.279c0.046,0.846 0.092,1.738 0.133,2.675c0.042,0.938 0.063,1.917 0.063,2.942c0.004,1.021 0.004,1.954 0.004,2.804l0,11.958c0,0.171 -0.017,0.142 -0.046,-0.092c-0.046,-0.338 -0.188,-0.696 -0.429,-1.063" style="fill:none;fill-rule:nonzero;stroke:#c2361a;stroke-width:7.08px;"/></g></svg>