<?xml version="1.0" encoding="UTF-8" standalone="no"?><!DOCTYPE svg PUBLIC "-//W3C//DTD SVG 1.1//EN" "http://www.w3.org/Graphics/SVG/1.1/DTD/svg11.dtd"><svg width="100%" height="100%" viewBox="0 0 1346 200" version="1.1" xmlns="http://www.w3.org/2000/svg" xmlns:xlink="http://www.w3.org/1999/xlink" xml:space="preserve" xmlns:serif="http://www.serif.com/" style="fill-rule:evenodd;clip-rule:evenodd;stroke-linecap:round;stroke-linejoin:round;stroke-miterlimit:10;"><rect x="0" y="0" width="1345.833" height="200" style="fill:#fff;"/><path d="M157.321,27.404c-0.363,-0.113 -0.637,0.488 -0.821,1.796c-0.183,1.308 -0.275,2.896 -0.275,4.754l0,45.037c0,1.438 -0.025,2.896 -0.071,4.375c-0.05,1.479 -0.088,3.171 -0.121,5.067c-0.033,1.896 -0.058,3.933 -0.079,6.108c-0.021,2.175 -0.042,4.071 -0.062,5.692c-0.021,1.621 -0.033,2.904 -0.033,3.854l0,40.446c0,1.037 0.017,1.996 0.054,2.883c0.037,0.883 0.108,1.683 0.208,2.388c0.1,0.708 0.175,1.342 0.217,1.9c0.042,0.558 0.062,1.171 0.067,1.829l0,2.504c0,1.008 -0.012,2.054 -0.042,3.129c-0.029,1.079 -0.075,1.938 -0.133,2.575l-0.054,0.45l0.025,-0.575c0.062,-1.033 0.258,-4.288 0.587,-9.767" style="fill:none;fill-rule:nonzero;stroke:#000;stroke-width:3.54px;"/><path d="M157.321,28.225c0.142,-0.233 0.421,-0.508 0.829,-0.829c0.408,-0.321 0.942,-0.579 1.596,-0.771c0.654,-0.192 1.55,-0.367 2.683,-0.521c1.133,-0.154 2.542,-0.25 4.225,-0.283c1.683,-0.033 3.454,-0.054 5.304,-0.054l10.683,0c1.796,0 3.675,-0.042 5.638,-0.129c1.962,-0.087 3.729,-0.204 5.3,-0.358c1.571,-0.154 2.825,-0.246 3.758,-0.279c0.933,-0.033 1.787,-0.054 2.562,-0.054l2.871,0c1.138,0 2.479,-0.038 4.029,-0.117c1.55,-0.075 3.108,-0.167 4.683,-0.271c1.571,-0.1 3.046,-0.171 4.425,-0.204c1.375,-0.033 2.575,-0.05 3.604,-0.05l2.904,0c0.908,0 1.938,-0.004 3.083,-0.013c1.146,-0.008 2.342,-0.05 3.583,-0.117c1.246,-0.071 2.471,-0.113 3.679,-0.125c1.208,-0.013 2.467,-0.017 3.771,-0.017c1.308,0 2.858,-0.025 4.65,-0.071c1.792,-0.046 3.7,-0.175 5.725,-0.383c2.025,-0.208 3.863,-0.338 5.513,-0.388c1.65,-0.046 3.154,-0.017 4.512,0.088c1.363,0.104 2.792,0.221 4.292,0.346c1.5,0.125 3.092,0.183 4.771,0.179c1.679,-0.004 3.192,-0.071 4.533,-0.188c1.346,-0.121 2.446,-0.188 3.304,-0.2c0.858,-0.012 1.567,0.004 2.129,0.05c0.563,0.046 1.146,0.108 1.754,0.179c0.604,0.075 1.212,0.108 1.821,0.113c0.608,0 1.133,0.004 1.579,0.004l1.067,0c0.267,0 0.546,0.029 0.833,0.087c0.292,0.058 0.654,0.104 1.096,0.138c0.442,0.033 0.867,0.05 1.275,0.05l0.783,0c0.163,0 -0.183,0.271 -1.037,0.808" style="fill:none;fill-rule:nonzero;stroke:#000;stroke-width:3.54px;"/><path d="M289.933,25.763c-0.458,-0.033 -0.742,0.617 -0.846,1.946c-0.104,1.333 -0.079,2.817 0.075,4.454c0.154,1.638 0.312,3.375 0.479,5.212c0.167,1.837 0.258,3.821 0.271,5.958c0.013,2.138 0.021,4.279 0.021,6.433c0,2.15 0.029,4.138 0.083,5.954c0.054,1.817 0.212,3.429 0.471,4.829c0.258,1.404 0.458,2.579 0.596,3.529c0.137,0.95 0.204,1.858 0.196,2.733c-0.008,0.875 -0.075,1.996 -0.2,3.362c-0.125,1.367 -0.229,2.85 -0.304,4.45c-0.075,1.6 -0.113,3.158 -0.117,4.679c0,1.521 -0.004,2.967 -0.004,4.329l0,6.788c0,0.992 0.012,2.117 0.042,3.383c0.029,1.267 0.075,2.608 0.133,4.033c0.062,1.425 0.087,2.812 0.079,4.162c-0.008,1.35 -0.062,2.654 -0.158,3.912c-0.1,1.258 -0.154,2.483 -0.167,3.671c-0.012,1.188 -0.021,2.338 -0.021,3.442l0,10.129c0,1.338 -0.029,2.717 -0.083,4.133c-0.058,1.421 -0.146,2.75 -0.267,3.992c-0.121,1.242 -0.2,2.45 -0.233,3.625c-0.033,1.175 -0.05,2.337 -0.05,3.483l0,8.046c0,0.767 -0.004,1.571 -0.012,2.408c-0.008,0.838 -0.038,1.683 -0.088,2.533c-0.05,0.85 -0.1,1.638 -0.15,2.367c-0.05,0.725 -0.083,1.4 -0.096,2.017c-0.013,0.621 -0.017,1.246 -0.017,1.883l0,3.733c0,0.496 0.029,0.804 0.083,0.917c0.054,0.113 0.062,0.017 0.021,-0.296c-0.058,-0.446 -0.017,-1.383 0.129,-2.812" style="fill:none;fill-rule:nonzero;stroke:#000;stroke-width:3.54px;"/><path d="M159.238,162.204c0.071,-0.25 0.875,-0.446 2.412,-0.596c1.537,-0.146 3.367,-0.238 5.492,-0.267c2.125,-0.033 4.625,-0.05 7.5,-0.05l16.292,0c2.254,0 4.308,0.008 6.171,0.029c1.858,0.017 3.779,0.104 5.758,0.263c1.979,0.158 3.979,0.317 6.008,0.483c2.025,0.162 3.983,0.258 5.875,0.283c1.892,0.025 3.625,0.038 5.208,0.038l22.492,0c1.446,0 2.846,-0.004 4.196,-0.013c1.35,-0.008 2.854,-0.092 4.504,-0.246c1.65,-0.154 3.279,-0.3 4.888,-0.438c1.608,-0.137 3.029,-0.179 4.254,-0.125c1.229,0.054 2.504,0.229 3.829,0.525c1.329,0.296 2.721,0.546 4.175,0.746c1.458,0.2 2.896,0.312 4.317,0.338c1.421,0.025 2.746,0.037 3.983,0.037c1.233,0 2.3,0.021 3.196,0.054c0.896,0.037 1.721,0.096 2.479,0.179c0.758,0.083 1.546,0.125 2.367,0.125l3.683,0l0.204,0.013l-0.692,0.092" style="fill:none;fill-rule:nonzero;stroke:#000;stroke-width:3.54px;"/><path d="M224.858,28.771c0.446,0.079 0.696,0.383 0.746,0.917c0.05,0.533 0.075,1.092 0.075,1.679l0,5.562c0,1.304 0.004,2.654 0.012,4.054c0.008,1.4 0.033,2.583 0.075,3.546c0.042,0.962 0.083,1.692 0.133,2.192c0.05,0.5 0.096,0.979 0.137,1.442c0.042,0.462 0.092,0.992 0.154,1.583c0.058,0.592 0.096,1.242 0.108,1.946c0.012,0.704 0.021,1.438 0.021,2.196c0,0.758 -0.058,1.542 -0.171,2.35c-0.117,0.808 -0.246,1.629 -0.388,2.458c-0.142,0.829 -0.296,1.671 -0.454,2.517c-0.158,0.85 -0.329,1.796 -0.512,2.837c-0.183,1.046 -0.35,2.154 -0.504,3.325c-0.154,1.171 -0.271,2.342 -0.354,3.508c-0.083,1.167 -0.146,2.3 -0.188,3.408c-0.042,1.108 -0.079,2.138 -0.108,3.096c-0.033,0.958 -0.05,1.883 -0.05,2.775l0,2.817c0,0.987 -0.008,2.013 -0.029,3.075c-0.021,1.062 -0.033,2.021 -0.046,2.871c-0.013,0.85 -0.017,1.654 -0.017,2.413l0,5.604c0,1.108 0.008,2.208 0.029,3.296c0.021,1.088 0.054,2.075 0.104,2.967c0.05,0.892 0.096,1.679 0.138,2.375c0.042,0.692 0.067,1.446 0.079,2.258c0.013,0.812 0.017,1.675 0.017,2.583l0,18.525c0,0.804 0.029,1.512 0.088,2.129c0.058,0.617 0.104,1.188 0.138,1.713c0.033,0.529 0.05,1.1 0.05,1.713l0,5.204c0,0.496 0.004,0.992 0.012,1.492c0.008,0.496 0.025,1.017 0.046,1.562c0.021,0.542 0.033,1.108 0.033,1.696l0,10.25c0,0.483 -0.004,1.025 -0.012,1.633c-0.008,0.604 -0.025,1.046 -0.046,1.321l-0.017,0.188l0.021,-0.275c0.037,-0.521 0.067,-0.925 0.083,-1.208" style="fill:none;fill-rule:nonzero;stroke:#d2d2d2;stroke-width:3.54px;"/><path d="M258.583,34.329l0,-2.396c0,-0.304 0.008,-0.604 0.029,-0.896c0.021,-0.292 0.058,-0.587 0.117,-0.883c0.058,-0.296 0.117,-0.567 0.167,-0.808c0.05,-0.246 0.087,-0.454 0.108,-0.629c0.021,-0.175 0.033,-0.283 0.033,-0.329l0,-0.033l0,0.858c0,0.488 -0.004,1.346 -0.008,2.579c-0.008,1.233 -0.067,2.817 -0.175,4.75c-0.108,1.933 -0.196,3.738 -0.262,5.408c-0.062,1.671 -0.096,3.179 -0.096,4.529c0,1.35 -0.004,2.608 -0.004,3.775l0,60.671c0,0.675 -0.008,1.346 -0.029,2.004c-0.021,0.663 -0.058,1.308 -0.117,1.946c-0.058,0.637 -0.125,1.287 -0.196,1.942c-0.071,0.658 -0.133,1.363 -0.183,2.117c-0.054,0.754 -0.113,1.554 -0.183,2.404c-0.071,0.85 -0.142,1.704 -0.213,2.567c-0.071,0.862 -0.142,1.671 -0.213,2.438c-0.071,0.763 -0.137,1.508 -0.196,2.237c-0.063,0.729 -0.121,1.542 -0.183,2.433c-0.062,0.896 -0.108,1.8 -0.137,2.713c-0.033,0.912 -0.054,1.762 -0.063,2.55c-0.012,0.787 -0.021,1.475 -0.029,2.067c-0.008,0.592 -0.029,1.163 -0.058,1.708c-0.029,0.55 -0.058,1.083 -0.092,1.6c-0.029,0.517 -0.054,0.988 -0.079,1.408c-0.021,0.421 -0.042,0.804 -0.058,1.15c-0.021,0.346 -0.033,0.692 -0.046,1.033c-0.012,0.342 -0.017,0.696 -0.017,1.062l0,9.575c0,0.025 -0.029,-0.008 -0.092,-0.1c-0.087,-0.133 -0.358,-0.55 -0.812,-1.254" style="fill:none;fill-rule:nonzero;stroke:#d2d2d2;stroke-width:3.54px;"/><path d="M190.588,31.596c-0.333,0 -0.712,0.008 -1.133,0.029c-0.421,0.021 -0.708,0.033 -0.867,0.046c-0.158,0.013 -0.242,0.017 -0.258,0.017l-0.021,0l0,1.079c0,0.475 0.042,1.096 0.129,1.863c0.088,0.767 0.192,1.779 0.312,3.033c0.121,1.258 0.238,2.704 0.35,4.346c0.113,1.642 0.25,3.217 0.421,4.725c0.171,1.508 0.363,2.933 0.588,4.271c0.221,1.337 0.375,2.817 0.45,4.433c0.079,1.617 0.108,3.304 0.092,5.067c-0.017,1.762 -0.071,3.408 -0.162,4.942c-0.092,1.529 -0.142,2.967 -0.154,4.304c-0.012,1.338 -0.021,2.654 -0.021,3.942c0,1.287 -0.033,2.579 -0.1,3.875c-0.067,1.296 -0.171,2.671 -0.313,4.133c-0.142,1.458 -0.271,2.983 -0.396,4.571c-0.125,1.588 -0.204,3.121 -0.238,4.592c-0.033,1.475 -0.05,2.892 -0.05,4.254c0,1.363 0.013,2.533 0.042,3.513c0.029,0.979 0.1,1.75 0.221,2.308c0.121,0.558 0.196,1.079 0.229,1.562c0.033,0.483 0.05,1.158 0.05,2.021l0,2.804c0,1.004 -0.004,1.929 -0.013,2.775c-0.008,0.846 -0.037,1.667 -0.087,2.458c-0.05,0.792 -0.1,1.542 -0.15,2.254c-0.05,0.712 -0.104,1.425 -0.15,2.129c-0.05,0.708 -0.104,1.421 -0.167,2.142c-0.062,0.721 -0.112,1.408 -0.154,2.071c-0.042,0.662 -0.067,1.317 -0.079,1.963c-0.012,0.646 -0.017,1.308 -0.017,1.987l0,4.588c0,0.812 -0.004,1.562 -0.012,2.258c-0.008,0.696 -0.042,1.325 -0.104,1.896c-0.058,0.571 -0.1,1.108 -0.121,1.617c-0.021,0.508 -0.054,1.033 -0.092,1.579c-0.037,0.542 -0.096,1.113 -0.175,1.708c-0.079,0.596 -0.175,1.221 -0.288,1.879c-0.108,0.654 -0.229,1.325 -0.363,2.017c-0.133,0.688 -0.233,1.362 -0.308,2.025c-0.071,0.658 -0.125,1.312 -0.158,1.958c-0.033,0.646 -0.088,1.296 -0.167,1.946c-0.079,0.65 -0.175,1.271 -0.283,1.858c-0.108,0.592 -0.196,1.146 -0.263,1.662c-0.062,0.517 -0.1,1.017 -0.113,1.492c-0.012,0.475 -0.071,0.604 -0.183,0.388" style="fill:none;fill-rule:nonzero;stroke:#d2d2d2;stroke-width:3.54px;"/><path d="M162.154,92.933c0.242,0.067 0.412,0.292 0.5,0.679c0.092,0.388 0.138,0.65 0.138,0.796l0,0.354c0,0.092 0.096,0.146 0.283,0.158c0.188,0.013 0.658,0.021 1.408,0.021l40.467,0c2.037,0 4.062,0.013 6.075,0.042c2.012,0.029 3.796,0.096 5.342,0.204c1.55,0.108 2.992,0.229 4.325,0.362c1.337,0.129 2.796,0.217 4.375,0.25c1.579,0.033 3.188,0.025 4.821,-0.033c1.633,-0.054 3.142,-0.142 4.517,-0.254c1.375,-0.113 2.725,-0.175 4.05,-0.188c1.325,-0.013 2.742,-0.021 4.254,-0.021l4.708,0c1.629,0 3.171,-0.008 4.617,-0.029c1.45,-0.017 2.708,-0.033 3.775,-0.046c1.067,-0.013 2.075,-0.017 3.025,-0.017c0.95,0 1.967,-0.025 3.046,-0.071c1.079,-0.046 2.129,-0.146 3.146,-0.296c1.017,-0.15 1.908,-0.262 2.667,-0.337c0.758,-0.075 1.433,-0.113 2.025,-0.117c0.592,0 1.237,-0.017 1.938,-0.046c0.7,-0.029 1.429,-0.088 2.179,-0.175c0.754,-0.092 1.383,-0.167 1.892,-0.229c0.508,-0.063 0.863,-0.096 1.067,-0.096c0.2,0 0.35,-0.004 0.442,-0.004l2.021,0c0.325,0 0.204,-0.083 -0.363,-0.254" style="fill:none;fill-rule:nonzero;stroke:#d2d2d2;stroke-width:3.54px;"/><path d="M163.104,61.396c0.021,-0.425 -0.108,-0.688 -0.383,-0.783c-0.192,-0.067 -0.333,-0.05 -0.425,0.046c-0.092,0.1 -0.217,0.212 -0.383,0.342c-0.167,0.129 -0.446,0.292 -0.833,0.479c-0.388,0.192 -0.75,0.388 -1.092,0.592c-0.338,0.204 -0.525,0.362 -0.562,0.479c-0.037,0.117 0.333,0.179 1.108,0.192c0.775,0.013 1.729,-0.025 2.863,-0.112c1.133,-0.087 2.254,-0.162 3.367,-0.225c1.113,-0.062 2.45,-0.096 4.013,-0.096c1.567,0 3.642,0.008 6.225,0.025c2.583,0.021 5.463,0.033 8.629,0.046c3.171,0.013 6.233,0.017 9.196,0.017l21.692,0c2,0 3.846,0.004 5.542,0.013c1.696,0.008 3.508,0.038 5.429,0.087c1.921,0.05 3.967,0.092 6.142,0.121c2.175,0.029 4.188,0.058 6.042,0.092c1.854,0.029 3.35,0.087 4.488,0.179c1.137,0.092 2.167,0.158 3.092,0.2c0.925,0.042 1.883,0.075 2.883,0.096c1,0.021 2.004,0.033 3.008,0.033c1.004,0 1.908,-0.004 2.704,-0.013c0.796,-0.008 1.608,-0.071 2.433,-0.188c0.825,-0.117 1.692,-0.233 2.592,-0.346c0.9,-0.112 1.729,-0.2 2.488,-0.263c0.758,-0.063 1.446,-0.108 2.067,-0.142c0.621,-0.029 1.25,-0.046 1.883,-0.046l7.167,0c0.55,0 1.033,-0.008 1.454,-0.029c0.421,-0.021 0.792,-0.054 1.121,-0.104c0.325,-0.05 0.637,-0.1 0.933,-0.154c0.296,-0.05 0.55,-0.079 0.767,-0.079l1.379,0c0.15,0 0.342,0.017 0.583,0.046l0.179,0.021l-0.538,-0.067" style="fill:none;fill-rule:nonzero;stroke:#d2d2d2;stroke-width:3.54px;"/><path d="M157.958,128.025c-0.1,-0.113 0.229,-0.233 0.992,-0.358c0.758,-0.125 1.454,-0.188 2.088,-0.188l2.154,0c0.804,0 1.746,0.058 2.829,0.171c1.083,0.117 2.446,0.246 4.092,0.387c1.646,0.146 3.542,0.225 5.688,0.238c2.146,0.012 4.246,0.021 6.296,0.021l5.912,0c1.892,0 3.742,0.021 5.554,0.058c1.813,0.037 3.746,0.071 5.8,0.092c2.054,0.021 4.004,0.033 5.846,0.033l31.717,0c1.638,0 3.346,-0.008 5.133,-0.029c1.783,-0.017 3.721,-0.1 5.804,-0.25c2.083,-0.15 4.167,-0.258 6.242,-0.333c2.075,-0.075 3.863,-0.108 5.363,-0.1c1.5,0.008 2.829,0.062 3.983,0.158c1.154,0.1 2.192,0.171 3.108,0.213c0.921,0.042 1.704,0.062 2.354,0.067l7.042,0c0.454,0 0.933,-0.004 1.442,-0.013c0.504,-0.008 1.033,-0.042 1.592,-0.104c0.554,-0.058 1.062,-0.108 1.525,-0.15c0.463,-0.042 0.833,-0.067 1.113,-0.079c0.279,-0.012 0.458,-0.017 0.538,-0.017c0.108,0 -0.025,-0.125 -0.408,-0.375" style="fill:none;fill-rule:nonzero;stroke:#d2d2d2;stroke-width:3.54px;"/><path d="M248.1,16.762c-0.079,0.087 -0.483,0.792 -1.212,2.104c-0.729,1.312 -1.625,3.029 -2.688,5.154c-1.608,3.213 -3.192,6.163 -4.75,8.85" style="fill:none;fill-rule:nonzero;stroke:#000;stroke-width:3.54px;"/><path d="M243.908,153.475c-0.312,0 -0.762,0.042 -1.342,0.125c-0.583,0.083 -1.133,0.4 -1.65,0.95c-0.517,0.55 -0.992,1.463 -1.421,2.746c-0.429,1.283 -0.892,2.9 -1.396,4.85c-0.767,2.975 -1.829,5.275 -3.188,6.904" style="fill:none;fill-rule:nonzero;stroke:#000;stroke-width:3.54px;"/><path d="M282.554,78.921c-0.417,-0.121 -0.321,-0.554 0.292,-1.304c0.613,-0.75 1.771,-1.804 3.475,-3.163c1.704,-1.362 3.467,-2.808 5.288,-4.342c1.821,-1.533 3.375,-3.112 4.667,-4.737" style="fill:none;fill-rule:nonzero;stroke:#000;stroke-width:3.54px;"/><path d="M283.283,84.938c0.163,-0.125 0.538,-0.362 1.121,-0.713c0.588,-0.354 1.183,-0.637 1.788,-0.854c0.604,-0.217 1.429,-0.533 2.479,-0.954c1.05,-0.421 2.471,-1.192 4.258,-2.325c2.767,-1.746 4.7,-3.412 5.8,-5" style="fill:none;fill-rule:nonzero;stroke:#000;stroke-width:3.54px;"/><path d="M148.571,81.654c0.125,-0.021 0.933,-0.579 2.425,-1.675c1.492,-1.096 3.388,-2.708 5.688,-4.833c2.3,-2.125 4.15,-3.838 5.55,-5.133c1.4,-1.296 1.867,-1.775 1.404,-1.437" style="fill:none;fill-rule:nonzero;stroke:#000;stroke-width:3.54px;"/><path d="M149.667,87.033c-0.067,0.196 0.792,-0.183 2.583,-1.138c2.625,-1.4 5.883,-3.533 9.779,-6.404" style="fill:none;fill-rule:nonzero;stroke:#000;stroke-width:3.54px;"/><path d="M105.646,85.3l-0.908,0c-0.242,0 -0.171,0.042 0.217,0.125c0.387,0.083 1.583,0.158 3.592,0.225c2.008,0.067 4.275,0.083 6.804,0.046c2.529,-0.037 4.571,-0.079 6.129,-0.133c1.558,-0.054 2.25,-0.025 2.075,0.083" style="fill:none;fill-rule:nonzero;stroke:#000;stroke-width:3.54px;"/><path d="M107.467,95.146l1.979,0.013c1.321,0.008 2.962,0.088 4.925,0.233c2.908,0.217 6.192,0.567 9.842,1.058" style="fill:none;fill-rule:nonzero;stroke:#000;stroke-width:3.54px;"/><path d="M50.229,93.046l0,-1.433c0,-0.517 0.012,-0.967 0.042,-1.35c0.029,-0.388 0.075,-0.712 0.133,-0.983c0.062,-0.267 -0.029,-0.438 -0.275,-0.504c-0.246,-0.071 -0.871,0.062 -1.879,0.396c-1.008,0.333 -2.142,1.004 -3.404,2.017c-1.263,1.012 -2.35,2.142 -3.263,3.379c-0.912,1.242 -1.492,2.471 -1.737,3.692c-0.246,1.221 -0.183,2.225 0.183,3.017c0.367,0.788 1.162,1.308 2.392,1.562c1.225,0.25 2.779,0.367 4.663,0.342c1.879,-0.021 3.908,-0.275 6.083,-0.762c2.175,-0.488 4.187,-1.15 6.042,-1.992c1.854,-0.842 3.158,-1.55 3.917,-2.133l0.567,-0.438l-1.704,1.304" style="fill:none;fill-rule:nonzero;stroke:#000;stroke-width:3.54px;"/><path d="M51.504,78.467c-0.321,0.088 -0.554,0.567 -0.696,1.429c-0.142,0.867 -0.217,2.308 -0.217,4.325c0,2.017 0.013,4.512 0.046,7.487c0.029,2.971 0.046,5.867 0.046,8.683l0,6.992c0,1.846 -0.004,3.087 -0.013,3.737c-0.008,0.646 -0.079,1.017 -0.208,1.112c-0.183,0.133 -0.438,0.021 -0.754,-0.337" style="fill:none;fill-rule:nonzero;stroke:#000;stroke-width:3.54px;"/><path d="M38.471,80.925c0.054,-0.283 0.625,-0.525 1.717,-0.713c1.087,-0.192 2.938,-0.283 5.546,-0.275c2.608,0.008 5.504,0.067 8.683,0.175c3.179,0.108 5.975,0.221 8.388,0.342l1.812,0.092l-5.433,-0.271" style="fill:none;fill-rule:nonzero;stroke:#000;stroke-width:3.54px;"/><path d="M42.208,112.463c0.171,-0.092 1.133,-0.158 2.892,-0.204c1.758,-0.046 3.821,-0.071 6.192,-0.071l6.7,0c2.1,0 3.017,0.1 2.758,0.3" style="fill:none;fill-rule:nonzero;stroke:#000;stroke-width:3.54px;"/><path d="M24.163,67.163c-0.35,0.008 -0.708,0.058 -1.071,0.154c-0.363,0.092 -0.604,0.292 -0.721,0.592c-0.117,0.304 -0.183,0.796 -0.196,1.479c-0.012,0.683 0.025,1.554 0.108,2.617c0.087,1.062 0.196,2.275 0.329,3.642c0.133,1.367 0.271,2.771 0.408,4.208c0.142,1.437 0.325,2.896 0.554,4.371c0.229,1.475 0.425,2.963 0.579,4.463c0.158,1.5 0.242,2.904 0.258,4.208c0.012,1.304 0.025,2.467 0.033,3.479c0.008,1.013 0.058,1.954 0.146,2.817c0.087,0.862 0.146,1.767 0.167,2.717c0.025,0.946 0.033,1.925 0.033,2.938l0,2.95c0,0.954 -0.004,1.825 -0.012,2.612c-0.008,0.787 -0.038,1.529 -0.087,2.229c-0.05,0.7 -0.121,1.417 -0.208,2.154c-0.092,0.737 -0.179,1.479 -0.271,2.229c-0.092,0.75 -0.192,1.479 -0.304,2.192c-0.108,0.708 -0.246,1.388 -0.404,2.029c-0.158,0.642 -0.304,1.237 -0.425,1.787c-0.125,0.55 -0.204,1.05 -0.238,1.5c-0.033,0.45 -0.05,0.804 -0.05,1.067c0,0.262 0.004,0.417 0.012,0.463c0.008,0.046 0.033,0.017 0.071,-0.096c0.054,-0.163 0.221,-0.667 0.508,-1.513" style="fill:none;fill-rule:nonzero;stroke:#000;stroke-width:3.54px;"/><path d="M318.825,153.75c-0.042,-0.033 -0.6,1.425 -1.675,4.371c-1.621,4.438 -3.192,8.725 -4.708,12.867" style="fill:none;fill-rule:nonzero;stroke:#000;stroke-width:3.54px;"/><path d="M75.75,127.479c-0.183,-0.237 -0.35,-0.546 -0.5,-0.921c-0.15,-0.375 -0.025,-0.917 0.383,-1.621c0.408,-0.704 1.279,-1.925 2.617,-3.667c1.338,-1.742 2.75,-3.771 4.233,-6.079c1.483,-2.312 2.767,-4.392 3.85,-6.237c1.083,-1.846 1.967,-3.408 2.658,-4.683c0.688,-1.271 1.325,-2.392 1.9,-3.35c0.579,-0.958 1.129,-1.85 1.65,-2.667c0.521,-0.817 0.863,-1.442 1.017,-1.875c0.158,-0.433 0.225,-0.692 0.208,-0.767c-0.017,-0.079 -0.062,-0.146 -0.133,-0.204c-0.071,-0.058 -0.087,-0.175 -0.054,-0.358c0.038,-0.179 0.096,-0.312 0.179,-0.4c0.083,-0.087 0.125,-0.133 0.125,-0.146c0,-0.013 0.004,-0.017 0.004,-0.017l0,0.012c0,0.008 -0.021,0.029 -0.058,0.071c-0.037,0.042 -0.096,0.067 -0.179,0.079c-0.079,0.013 -0.179,0.017 -0.3,0.017c-0.121,0 -0.246,-0.05 -0.375,-0.154c-0.129,-0.104 -0.325,-0.454 -0.579,-1.05c-0.254,-0.596 -0.758,-1.521 -1.504,-2.771c-0.75,-1.25 -1.629,-2.775 -2.642,-4.571c-1.008,-1.796 -1.938,-3.625 -2.787,-5.483c-0.846,-1.862 -1.708,-3.404 -2.583,-4.625c-0.875,-1.221 -1.8,-2.208 -2.775,-2.958c-0.975,-0.75 -1.721,-1.417 -2.237,-2c-0.517,-0.583 -0.817,-1.175 -0.9,-1.779c-0.083,-0.604 -0.038,-1.292 0.133,-2.067c0.171,-0.775 0.458,-1.5 0.858,-2.179c0.4,-0.675 0.733,-1.129 0.996,-1.354l0.2,-0.171l-0.596,0.508" style="fill:none;fill-rule:nonzero;stroke:#000;stroke-width:3.54px;"/><path d="M70.646,108.067c0.033,-0.429 0.071,-0.888 0.117,-1.383c0.046,-0.492 0.029,-0.825 -0.046,-0.996c-0.075,-0.171 -0.438,-0.121 -1.096,0.15c-0.654,0.271 -1.358,0.875 -2.117,1.808c-0.754,0.933 -1.321,1.963 -1.704,3.092c-0.379,1.129 -0.567,2.246 -0.562,3.342c0.004,1.096 0.342,1.967 1,2.608c0.662,0.642 1.533,0.946 2.621,0.908c1.083,-0.033 2.167,-0.554 3.246,-1.562c1.079,-1.004 1.954,-2.287 2.633,-3.846c0.679,-1.558 1.058,-3.058 1.142,-4.5c0.083,-1.442 -0.158,-2.504 -0.721,-3.196c-0.796,-0.975 -1.988,-0.737 -3.575,0.712" style="fill:none;fill-rule:nonzero;stroke:#000;stroke-width:3.54px;"/><path d="M51.142,90.929c0.042,-0.329 0.125,-0.667 0.254,-1.008c0.125,-0.346 0.25,-0.554 0.371,-0.621c0.121,-0.067 0.325,0.029 0.608,0.287c0.283,0.258 0.742,0.575 1.367,0.954c0.625,0.379 1.354,0.671 2.192,0.879c0.837,0.208 1.608,0.413 2.317,0.612c0.708,0.2 1.246,0.513 1.613,0.938c0.367,0.425 0.667,0.896 0.896,1.412c0.233,0.517 0.525,0.9 0.887,1.15c0.512,0.358 1.271,0.171 2.275,-0.558" style="fill:none;fill-rule:nonzero;stroke:#000;stroke-width:3.54px;"/><path d="M491.254,24.762c-0.363,-0.113 -0.637,0.483 -0.817,1.796c-0.183,1.308 -0.275,2.896 -0.275,4.754l0,45.037c0,1.438 -0.025,2.896 -0.075,4.375c-0.046,1.479 -0.088,3.171 -0.121,5.067c-0.029,1.896 -0.054,3.933 -0.075,6.108c-0.021,2.175 -0.042,4.071 -0.062,5.692c-0.021,1.621 -0.033,2.904 -0.033,3.854l0,40.446c0,1.038 0.021,1.996 0.058,2.883c0.033,0.883 0.104,1.683 0.208,2.392c0.1,0.708 0.171,1.342 0.213,1.9c0.042,0.558 0.067,1.171 0.067,1.829l0,2.504c0,1.008 -0.012,2.054 -0.042,3.129c-0.029,1.079 -0.071,1.938 -0.133,2.575l-0.054,0.45l0.025,-0.575c0.063,-1.033 0.258,-4.287 0.588,-9.767" style="fill:none;fill-rule:nonzero;stroke:#000;stroke-width:3.54px;"/><path d="M491.254,25.583c0.142,-0.233 0.421,-0.508 0.829,-0.829c0.408,-0.321 0.942,-0.579 1.596,-0.771c0.654,-0.192 1.55,-0.367 2.683,-0.521c1.133,-0.154 2.542,-0.25 4.225,-0.283c1.683,-0.033 3.454,-0.054 5.304,-0.054l10.683,0c1.796,0 3.675,-0.042 5.638,-0.129c1.962,-0.088 3.729,-0.204 5.3,-0.358c1.575,-0.154 2.825,-0.246 3.758,-0.283c0.933,-0.033 1.788,-0.05 2.562,-0.05l2.871,0c1.138,0 2.483,-0.038 4.029,-0.117c1.55,-0.075 3.112,-0.167 4.683,-0.271c1.571,-0.1 3.046,-0.171 4.425,-0.204c1.375,-0.033 2.575,-0.05 3.6,-0.05l2.904,0c0.913,0 1.938,-0.004 3.083,-0.012c1.146,-0.008 2.342,-0.05 3.583,-0.117c1.246,-0.071 2.471,-0.113 3.679,-0.125c1.208,-0.012 2.467,-0.021 3.775,-0.021c1.308,0 2.858,-0.021 4.646,-0.071c1.792,-0.046 3.704,-0.175 5.729,-0.383c2.025,-0.208 3.862,-0.337 5.513,-0.387c1.646,-0.046 3.15,-0.017 4.512,0.088c1.362,0.104 2.792,0.221 4.292,0.346c1.5,0.125 3.092,0.183 4.771,0.179c1.679,-0.004 3.192,-0.071 4.533,-0.188c1.346,-0.121 2.446,-0.187 3.304,-0.2c0.858,-0.012 1.567,0.004 2.133,0.05c0.562,0.046 1.146,0.108 1.75,0.179c0.604,0.071 1.212,0.108 1.821,0.113l2.646,0c0.267,0 0.546,0.029 0.837,0.087c0.288,0.058 0.654,0.104 1.096,0.137c0.442,0.033 0.867,0.05 1.275,0.05l0.783,0c0.162,0 -0.183,0.271 -1.038,0.808" style="fill:none;fill-rule:nonzero;stroke:#000;stroke-width:3.54px;"/><path d="M623.867,23.121c-0.458,-0.033 -0.742,0.617 -0.846,1.95c-0.104,1.333 -0.079,2.817 0.075,4.454c0.154,1.637 0.312,3.375 0.479,5.213c0.167,1.833 0.258,3.821 0.271,5.958c0.012,2.138 0.021,4.279 0.021,6.433c0,2.15 0.029,4.138 0.083,5.954c0.054,1.817 0.212,3.425 0.471,4.829c0.262,1.404 0.458,2.579 0.6,3.529c0.137,0.95 0.204,1.858 0.196,2.733c-0.008,0.875 -0.075,1.996 -0.2,3.362c-0.129,1.367 -0.229,2.85 -0.304,4.45c-0.075,1.6 -0.112,3.158 -0.112,4.679c-0.004,1.521 -0.004,2.967 -0.004,4.329l0,6.788c0,0.992 0.017,2.117 0.042,3.383c0.029,1.263 0.075,2.608 0.138,4.033c0.058,1.425 0.087,2.812 0.079,4.167c-0.008,1.35 -0.062,2.654 -0.158,3.912c-0.1,1.258 -0.158,2.483 -0.171,3.671c-0.012,1.188 -0.021,2.338 -0.021,3.442l0,10.129c0,1.338 -0.029,2.717 -0.083,4.133c-0.058,1.421 -0.146,2.75 -0.267,3.992c-0.125,1.242 -0.204,2.45 -0.237,3.625c-0.033,1.175 -0.05,2.338 -0.05,3.483l0,8.046c0,0.767 -0.004,1.571 -0.012,2.408c-0.008,0.837 -0.038,1.683 -0.087,2.533c-0.05,0.85 -0.1,1.638 -0.154,2.367c-0.05,0.725 -0.083,1.4 -0.092,2.017c-0.012,0.621 -0.017,1.246 -0.017,1.883l0,3.733c0,0.496 0.025,0.804 0.079,0.917c0.054,0.113 0.062,0.017 0.021,-0.296c-0.058,-0.446 -0.013,-1.383 0.129,-2.812" style="fill:none;fill-rule:nonzero;stroke:#000;stroke-width:3.54px;"/><path d="M493.167,159.563c0.075,-0.25 0.875,-0.446 2.412,-0.596c1.538,-0.146 3.367,-0.237 5.492,-0.267c2.129,-0.033 4.629,-0.05 7.504,-0.05l16.292,0c2.254,0 4.308,0.008 6.167,0.029c1.863,0.017 3.779,0.104 5.758,0.263c1.979,0.158 3.979,0.317 6.008,0.483c2.025,0.162 3.983,0.258 5.875,0.283c1.892,0.025 3.629,0.037 5.208,0.037l22.492,0c1.446,0 2.846,-0.004 4.196,-0.012c1.354,-0.008 2.854,-0.092 4.504,-0.246c1.654,-0.154 3.283,-0.3 4.892,-0.437c1.608,-0.138 3.029,-0.179 4.254,-0.125c1.225,0.054 2.504,0.229 3.829,0.525c1.329,0.296 2.721,0.546 4.179,0.746c1.454,0.2 2.896,0.312 4.312,0.338c1.421,0.025 2.75,0.038 3.983,0.038c1.237,0 2.3,0.021 3.196,0.054c0.896,0.037 1.721,0.096 2.479,0.179c0.758,0.083 1.55,0.125 2.367,0.125l3.683,0l0.2,0.012l-0.688,0.092" style="fill:none;fill-rule:nonzero;stroke:#000;stroke-width:3.54px;"/><path d="M558.792,26.129c0.446,0.079 0.696,0.383 0.746,0.917c0.05,0.529 0.075,1.092 0.075,1.679l0,5.558c0,1.304 0.004,2.654 0.012,4.054c0.008,1.4 0.033,2.583 0.075,3.546c0.037,0.962 0.083,1.692 0.133,2.192c0.05,0.5 0.096,0.979 0.137,1.442c0.042,0.463 0.092,0.992 0.15,1.583c0.062,0.592 0.096,1.242 0.108,1.946c0.012,0.704 0.021,1.438 0.021,2.196c0,0.758 -0.058,1.542 -0.175,2.35c-0.112,0.808 -0.242,1.629 -0.387,2.458c-0.142,0.829 -0.296,1.671 -0.454,2.517c-0.158,0.85 -0.329,1.796 -0.513,2.837c-0.183,1.046 -0.35,2.154 -0.504,3.325c-0.154,1.171 -0.275,2.342 -0.358,3.508c-0.083,1.167 -0.146,2.3 -0.183,3.408c-0.042,1.108 -0.079,2.138 -0.112,3.096c-0.029,0.958 -0.046,1.883 -0.046,2.775l0,2.821c0,0.987 -0.013,2.013 -0.029,3.075c-0.021,1.062 -0.038,2.021 -0.046,2.871c-0.012,0.85 -0.017,1.654 -0.017,2.413l0,5.604c0,1.108 0.008,2.208 0.029,3.296c0.017,1.087 0.054,2.075 0.1,2.967c0.05,0.892 0.096,1.679 0.137,2.375c0.042,0.692 0.067,1.446 0.079,2.258c0.012,0.812 0.017,1.675 0.017,2.583l0,18.525c0,0.804 0.029,1.512 0.087,2.129c0.058,0.617 0.104,1.188 0.137,1.713c0.033,0.529 0.05,1.1 0.05,1.713l0,5.204c0,0.496 0.004,0.992 0.012,1.492c0.008,0.496 0.025,1.017 0.046,1.562c0.021,0.542 0.033,1.108 0.033,1.696l0,10.25c0,0.483 -0.004,1.025 -0.017,1.633c-0.008,0.604 -0.021,1.046 -0.042,1.321l-0.017,0.183l0.021,-0.275c0.037,-0.521 0.067,-0.925 0.083,-1.208" style="fill:none;fill-rule:nonzero;stroke:#d2d2d2;stroke-width:3.54px;"/><path d="M592.513,31.688l0,-2.396c0,-0.304 0.012,-0.604 0.029,-0.896c0.021,-0.296 0.058,-0.587 0.121,-0.883c0.058,-0.296 0.112,-0.567 0.163,-0.808c0.05,-0.246 0.087,-0.454 0.112,-0.629c0.021,-0.175 0.033,-0.283 0.033,-0.329l0,-0.033l0,0.858c0,0.488 -0.004,1.346 -0.012,2.579c-0.004,1.233 -0.062,2.817 -0.175,4.75c-0.108,1.933 -0.196,3.738 -0.263,5.408c-0.062,1.671 -0.096,3.179 -0.096,4.529l0,64.446c0,0.675 -0.012,1.346 -0.029,2.004c-0.021,0.662 -0.058,1.308 -0.121,1.946c-0.058,0.638 -0.125,1.288 -0.192,1.942c-0.071,0.658 -0.133,1.363 -0.183,2.117c-0.054,0.754 -0.117,1.554 -0.183,2.404c-0.071,0.85 -0.142,1.704 -0.212,2.567c-0.071,0.862 -0.142,1.675 -0.212,2.438c-0.071,0.763 -0.138,1.508 -0.2,2.237c-0.058,0.729 -0.121,1.542 -0.179,2.433c-0.062,0.896 -0.108,1.8 -0.142,2.713c-0.029,0.912 -0.05,1.762 -0.062,2.55c-0.012,0.787 -0.021,1.475 -0.029,2.067c-0.013,0.592 -0.029,1.163 -0.062,1.708c-0.029,0.546 -0.058,1.079 -0.087,1.6c-0.033,0.521 -0.058,0.988 -0.079,1.408c-0.021,0.421 -0.042,0.804 -0.062,1.15c-0.017,0.346 -0.033,0.692 -0.046,1.033c-0.008,0.342 -0.017,0.696 -0.017,1.062l0,9.571c0,0.025 -0.029,-0.008 -0.087,-0.1c-0.087,-0.133 -0.358,-0.55 -0.812,-1.254" style="fill:none;fill-rule:nonzero;stroke:#d2d2d2;stroke-width:3.54px;"/><path d="M524.521,28.954c-0.333,0 -0.712,0.008 -1.133,0.029c-0.421,0.021 -0.708,0.033 -0.867,0.046c-0.158,0.012 -0.242,0.017 -0.258,0.017l-0.021,0l0,1.079c0,0.475 0.046,1.096 0.133,1.863c0.083,0.767 0.188,1.779 0.308,3.037c0.125,1.254 0.242,2.704 0.35,4.346c0.112,1.642 0.254,3.217 0.421,4.725c0.171,1.508 0.367,2.933 0.587,4.271c0.225,1.337 0.375,2.817 0.454,4.433c0.075,1.617 0.108,3.304 0.087,5.067c-0.017,1.763 -0.071,3.408 -0.163,4.942c-0.092,1.529 -0.142,2.967 -0.154,4.304c-0.012,1.338 -0.017,2.654 -0.017,3.942c0,1.288 -0.033,2.579 -0.1,3.875c-0.067,1.296 -0.171,2.671 -0.312,4.133c-0.142,1.458 -0.271,2.983 -0.396,4.571c-0.125,1.587 -0.204,3.121 -0.238,4.592c-0.033,1.475 -0.05,2.892 -0.05,4.254c0,1.363 0.012,2.533 0.042,3.513c0.029,0.979 0.104,1.75 0.221,2.308c0.121,0.558 0.196,1.079 0.233,1.562c0.033,0.483 0.05,1.154 0.05,2.021l0,2.804c0,1.004 -0.004,1.929 -0.012,2.775c-0.008,0.846 -0.038,1.667 -0.087,2.454c-0.05,0.792 -0.1,1.542 -0.15,2.254c-0.054,0.713 -0.104,1.425 -0.154,2.129c-0.05,0.708 -0.104,1.421 -0.167,2.142c-0.058,0.721 -0.108,1.408 -0.15,2.071c-0.042,0.658 -0.071,1.317 -0.079,1.962c-0.012,0.646 -0.021,1.308 -0.021,1.988l0,4.587c0,0.812 -0.004,1.563 -0.013,2.258c-0.008,0.696 -0.042,1.325 -0.104,1.896c-0.058,0.571 -0.1,1.108 -0.121,1.621c-0.021,0.508 -0.054,1.033 -0.092,1.579c-0.037,0.542 -0.096,1.113 -0.179,1.708c-0.079,0.596 -0.171,1.221 -0.283,1.875c-0.108,0.654 -0.229,1.325 -0.362,2.017c-0.133,0.688 -0.233,1.363 -0.308,2.025c-0.071,0.658 -0.125,1.312 -0.154,1.958c-0.033,0.646 -0.087,1.296 -0.167,1.946c-0.079,0.65 -0.175,1.271 -0.283,1.858c-0.112,0.592 -0.2,1.146 -0.262,1.663c-0.062,0.517 -0.1,1.017 -0.113,1.487c-0.012,0.475 -0.071,0.604 -0.183,0.388" style="fill:none;fill-rule:nonzero;stroke:#d2d2d2;stroke-width:3.54px;"/><path d="M496.083,90.292c0.246,0.067 0.413,0.292 0.504,0.679c0.092,0.383 0.137,0.65 0.137,0.796l0,0.354c0,0.092 0.092,0.146 0.279,0.158c0.192,0.013 0.658,0.021 1.408,0.021l40.471,0c2.038,0 4.062,0.013 6.075,0.042c2.012,0.029 3.792,0.096 5.342,0.204c1.546,0.108 2.992,0.229 4.325,0.362c1.337,0.129 2.796,0.212 4.375,0.25c1.579,0.033 3.188,0.025 4.821,-0.033c1.637,-0.054 3.142,-0.142 4.517,-0.254c1.375,-0.113 2.729,-0.175 4.054,-0.188c1.325,-0.013 2.742,-0.021 4.25,-0.021l4.712,0c1.629,0 3.167,-0.008 4.617,-0.029c1.45,-0.017 2.708,-0.033 3.775,-0.046c1.067,-0.013 2.075,-0.017 3.025,-0.017c0.95,0 1.967,-0.025 3.046,-0.071c1.079,-0.046 2.129,-0.146 3.146,-0.296c1.017,-0.15 1.908,-0.263 2.667,-0.338c0.758,-0.075 1.433,-0.112 2.025,-0.117c0.592,0 1.237,-0.017 1.938,-0.046c0.704,-0.029 1.429,-0.088 2.183,-0.179c0.75,-0.092 1.383,-0.167 1.888,-0.229c0.508,-0.062 0.867,-0.096 1.067,-0.096c0.2,0 0.35,-0.004 0.442,-0.004l2.021,0c0.325,0 0.204,-0.083 -0.362,-0.254" style="fill:none;fill-rule:nonzero;stroke:#d2d2d2;stroke-width:3.54px;"/><path d="M497.038,58.754c0.021,-0.425 -0.108,-0.688 -0.383,-0.783c-0.192,-0.067 -0.333,-0.05 -0.425,0.046c-0.087,0.096 -0.217,0.213 -0.383,0.342c-0.167,0.129 -0.446,0.292 -0.833,0.479c-0.388,0.192 -0.75,0.388 -1.092,0.592c-0.338,0.204 -0.525,0.363 -0.562,0.479c-0.033,0.117 0.333,0.179 1.112,0.192c0.775,0.013 1.729,-0.025 2.863,-0.112c1.133,-0.088 2.254,-0.162 3.367,-0.225c1.108,-0.062 2.446,-0.096 4.012,-0.096c1.567,0 3.638,0.008 6.225,0.025c2.583,0.021 5.458,0.033 8.629,0.046c3.167,0.013 6.233,0.017 9.192,0.017l21.696,0c1.996,0 3.846,0.004 5.542,0.012c1.696,0.008 3.508,0.038 5.429,0.088c1.921,0.05 3.967,0.092 6.142,0.121c2.171,0.029 4.183,0.058 6.038,0.092c1.854,0.029 3.35,0.088 4.488,0.179c1.137,0.092 2.167,0.158 3.092,0.2c0.921,0.042 1.883,0.075 2.883,0.096c0.996,0.021 2,0.033 3.004,0.033c1.008,0 1.908,-0.004 2.704,-0.012c0.796,-0.008 1.608,-0.071 2.438,-0.188c0.825,-0.117 1.688,-0.233 2.587,-0.346c0.904,-0.112 1.729,-0.2 2.488,-0.267c0.758,-0.062 1.446,-0.108 2.067,-0.142c0.621,-0.029 1.25,-0.046 1.883,-0.046l7.167,0c0.55,0 1.033,-0.008 1.454,-0.029c0.421,-0.021 0.792,-0.054 1.117,-0.104c0.329,-0.05 0.637,-0.1 0.933,-0.15c0.296,-0.05 0.554,-0.079 0.767,-0.079l1.379,0c0.15,0 0.342,0.017 0.583,0.046l0.179,0.021l-0.537,-0.067" style="fill:none;fill-rule:nonzero;stroke:#d2d2d2;stroke-width:3.54px;"/><path d="M491.892,125.383c-0.1,-0.113 0.229,-0.233 0.992,-0.358c0.758,-0.125 1.454,-0.188 2.088,-0.188l2.15,0c0.804,0 1.746,0.058 2.829,0.171c1.079,0.117 2.446,0.246 4.092,0.388c1.646,0.146 3.542,0.225 5.688,0.237c2.146,0.013 4.246,0.021 6.296,0.021l5.912,0c1.892,0 3.742,0.021 5.554,0.058c1.812,0.038 3.746,0.071 5.8,0.092c2.058,0.021 4.004,0.033 5.846,0.033l31.717,0c1.637,0 3.35,-0.008 5.133,-0.029c1.783,-0.017 3.721,-0.1 5.804,-0.25c2.087,-0.15 4.167,-0.258 6.242,-0.333c2.075,-0.075 3.862,-0.108 5.363,-0.1c1.5,0.008 2.829,0.062 3.983,0.158c1.154,0.1 2.188,0.171 3.108,0.212c0.921,0.042 1.704,0.062 2.354,0.067l7.042,0c0.458,0 0.938,-0.004 1.442,-0.013c0.504,-0.008 1.037,-0.042 1.592,-0.104c0.554,-0.058 1.062,-0.108 1.525,-0.15c0.462,-0.042 0.833,-0.067 1.112,-0.079c0.279,-0.013 0.458,-0.017 0.538,-0.017c0.108,0 -0.025,-0.125 -0.408,-0.375" style="fill:none;fill-rule:nonzero;stroke:#d2d2d2;stroke-width:3.54px;"/><path d="M582.033,14.121c-0.079,0.088 -0.483,0.792 -1.212,2.104c-0.733,1.312 -1.629,3.029 -2.692,5.154c-1.604,3.212 -3.187,6.163 -4.746,8.85" style="fill:none;fill-rule:nonzero;stroke:#000;stroke-width:3.54px;"/><path d="M577.842,150.833c-0.317,0 -0.763,0.042 -1.346,0.125c-0.583,0.083 -1.133,0.4 -1.65,0.946c-0.521,0.55 -0.992,1.463 -1.421,2.746c-0.429,1.283 -0.892,2.9 -1.396,4.85c-0.767,2.975 -1.825,5.275 -3.187,6.904" style="fill:none;fill-rule:nonzero;stroke:#000;stroke-width:3.54px;"/><path d="M616.483,76.279c-0.417,-0.121 -0.317,-0.554 0.292,-1.304c0.612,-0.75 1.771,-1.804 3.475,-3.167c1.704,-1.363 3.467,-2.808 5.288,-4.342c1.821,-1.533 3.375,-3.112 4.667,-4.737" style="fill:none;fill-rule:nonzero;stroke:#000;stroke-width:3.54px;"/><path d="M617.213,82.296c0.162,-0.125 0.537,-0.362 1.125,-0.713c0.583,-0.35 1.179,-0.637 1.783,-0.854c0.604,-0.217 1.433,-0.533 2.483,-0.954c1.05,-0.417 2.471,-1.192 4.258,-2.325c2.767,-1.746 4.7,-3.413 5.8,-5" style="fill:none;fill-rule:nonzero;stroke:#000;stroke-width:3.54px;"/><path d="M482.504,79.013c0.125,-0.021 0.933,-0.579 2.429,-1.675c1.492,-1.096 3.387,-2.708 5.687,-4.833c2.296,-2.125 4.146,-3.838 5.546,-5.133c1.4,-1.296 1.867,-1.775 1.404,-1.438" style="fill:none;fill-rule:nonzero;stroke:#000;stroke-width:3.54px;"/><path d="M483.6,84.392c-0.071,0.196 0.792,-0.183 2.579,-1.138c2.625,-1.4 5.883,-3.533 9.779,-6.404" style="fill:none;fill-rule:nonzero;stroke:#000;stroke-width:3.54px;"/><path d="M439.575,82.658l-0.904,0c-0.246,0 -0.171,0.042 0.217,0.125c0.387,0.083 1.583,0.158 3.592,0.225c2.008,0.067 4.275,0.083 6.804,0.046c2.529,-0.038 4.571,-0.079 6.129,-0.133c1.558,-0.054 2.25,-0.025 2.075,0.083" style="fill:none;fill-rule:nonzero;stroke:#000;stroke-width:3.54px;"/><path d="M441.4,92.5l1.979,0.013c1.321,0.008 2.962,0.088 4.925,0.233c2.908,0.217 6.192,0.567 9.842,1.058" style="fill:none;fill-rule:nonzero;stroke:#000;stroke-width:3.54px;"/><path d="M384.163,90.404l0,-1.433c0,-0.517 0.012,-0.967 0.042,-1.35c0.029,-0.388 0.075,-0.712 0.133,-0.983c0.062,-0.271 -0.029,-0.438 -0.275,-0.508c-0.242,-0.067 -0.871,0.063 -1.879,0.396c-1.008,0.333 -2.142,1.004 -3.404,2.017c-1.262,1.012 -2.35,2.142 -3.263,3.379c-0.912,1.242 -1.492,2.471 -1.737,3.692c-0.246,1.221 -0.183,2.225 0.183,3.017c0.367,0.788 1.163,1.308 2.392,1.563c1.225,0.25 2.779,0.367 4.663,0.342c1.879,-0.021 3.908,-0.275 6.083,-0.763c2.175,-0.488 4.187,-1.15 6.042,-1.992c1.854,-0.842 3.158,-1.55 3.917,-2.133l0.567,-0.433l-1.704,1.304" style="fill:none;fill-rule:nonzero;stroke:#000;stroke-width:3.54px;"/><path d="M385.438,75.821c-0.321,0.088 -0.554,0.567 -0.696,1.429c-0.142,0.867 -0.217,2.308 -0.217,4.325c0,2.017 0.017,4.512 0.046,7.487c0.029,2.971 0.046,5.867 0.046,8.683l0,6.992c0,1.842 -0.004,3.087 -0.012,3.737c-0.008,0.646 -0.079,1.017 -0.208,1.112c-0.183,0.133 -0.438,0.021 -0.754,-0.338" style="fill:none;fill-rule:nonzero;stroke:#000;stroke-width:3.54px;"/><path d="M372.404,78.283c0.054,-0.283 0.625,-0.525 1.717,-0.717c1.087,-0.192 2.937,-0.283 5.546,-0.275c2.608,0.008 5.504,0.067 8.683,0.175c3.179,0.108 5.975,0.221 8.392,0.342l1.812,0.092l-5.433,-0.271" style="fill:none;fill-rule:nonzero;stroke:#000;stroke-width:3.54px;"/><path d="M376.142,109.821c0.171,-0.088 1.133,-0.158 2.892,-0.204c1.758,-0.046 3.821,-0.071 6.192,-0.071l6.7,0c2.1,0 3.017,0.1 2.758,0.3" style="fill:none;fill-rule:nonzero;stroke:#000;stroke-width:3.54px;"/><path d="M358.096,64.521c-0.35,0.008 -0.708,0.058 -1.071,0.154c-0.363,0.092 -0.604,0.292 -0.721,0.592c-0.117,0.304 -0.179,0.796 -0.196,1.479c-0.012,0.683 0.025,1.554 0.108,2.617c0.083,1.062 0.196,2.275 0.325,3.642c0.133,1.367 0.271,2.771 0.408,4.208c0.142,1.437 0.325,2.896 0.554,4.371c0.229,1.475 0.425,2.962 0.579,4.463c0.158,1.5 0.242,2.904 0.258,4.208c0.012,1.304 0.025,2.467 0.033,3.479c0.008,1.012 0.058,1.954 0.146,2.817c0.087,0.862 0.146,1.767 0.167,2.717c0.025,0.946 0.033,1.925 0.033,2.938l0,2.95c0,0.954 -0.004,1.825 -0.012,2.612c-0.008,0.787 -0.038,1.529 -0.088,2.229c-0.05,0.7 -0.121,1.417 -0.208,2.154c-0.092,0.737 -0.179,1.479 -0.271,2.229c-0.092,0.75 -0.192,1.479 -0.304,2.192c-0.108,0.708 -0.246,1.388 -0.404,2.025c-0.158,0.642 -0.3,1.237 -0.425,1.787c-0.125,0.55 -0.204,1.05 -0.238,1.5c-0.033,0.45 -0.05,0.804 -0.05,1.067c0,0.263 0.004,0.417 0.012,0.463c0.008,0.046 0.033,0.017 0.071,-0.096c0.054,-0.158 0.221,-0.667 0.508,-1.513" style="fill:none;fill-rule:nonzero;stroke:#000;stroke-width:3.54px;"/><path d="M652.758,151.108c-0.038,-0.033 -0.6,1.425 -1.675,4.371c-1.625,4.438 -3.192,8.725 -4.708,12.867" style="fill:none;fill-rule:nonzero;stroke:#000;stroke-width:3.54px;"/><path d="M409.679,124.838c-0.183,-0.237 -0.35,-0.546 -0.5,-0.921c-0.15,-0.375 -0.025,-0.917 0.383,-1.621c0.408,-0.704 1.279,-1.925 2.621,-3.667c1.337,-1.742 2.75,-3.771 4.233,-6.079c1.479,-2.312 2.762,-4.392 3.846,-6.237c1.083,-1.85 1.967,-3.408 2.658,-4.683c0.688,-1.271 1.321,-2.392 1.9,-3.35c0.579,-0.958 1.129,-1.85 1.65,-2.667c0.521,-0.817 0.862,-1.442 1.017,-1.875c0.158,-0.433 0.229,-0.692 0.212,-0.767c-0.017,-0.079 -0.062,-0.146 -0.133,-0.204c-0.071,-0.058 -0.092,-0.175 -0.054,-0.358c0.038,-0.179 0.096,-0.312 0.179,-0.4c0.083,-0.088 0.125,-0.133 0.125,-0.146c0,-0.013 0.004,-0.017 0.004,-0.017l0,0.013c0,0.008 -0.021,0.029 -0.058,0.071c-0.038,0.042 -0.1,0.067 -0.179,0.079c-0.079,0.013 -0.179,0.017 -0.3,0.017c-0.121,0 -0.246,-0.05 -0.375,-0.154c-0.133,-0.104 -0.325,-0.454 -0.579,-1.05c-0.254,-0.596 -0.758,-1.521 -1.508,-2.771c-0.746,-1.25 -1.629,-2.775 -2.637,-4.571c-1.012,-1.796 -1.942,-3.625 -2.787,-5.483c-0.846,-1.862 -1.708,-3.404 -2.583,-4.625c-0.875,-1.221 -1.8,-2.208 -2.775,-2.958c-0.975,-0.75 -1.721,-1.417 -2.238,-2c-0.517,-0.583 -0.817,-1.175 -0.9,-1.779c-0.083,-0.604 -0.038,-1.292 0.133,-2.067c0.171,-0.775 0.458,-1.5 0.858,-2.179c0.4,-0.679 0.733,-1.129 1,-1.354l0.2,-0.167l-0.596,0.508" style="fill:none;fill-rule:nonzero;stroke:#000;stroke-width:3.54px;"/><path d="M404.579,105.421c0.033,-0.429 0.071,-0.888 0.117,-1.383c0.046,-0.492 0.029,-0.825 -0.046,-0.996c-0.075,-0.171 -0.438,-0.121 -1.096,0.15c-0.654,0.271 -1.363,0.875 -2.117,1.808c-0.754,0.933 -1.321,1.963 -1.704,3.092c-0.383,1.129 -0.571,2.246 -0.563,3.342c0.004,1.1 0.338,1.967 1,2.608c0.663,0.642 1.533,0.946 2.621,0.908c1.083,-0.033 2.167,-0.554 3.246,-1.562c1.079,-1.004 1.954,-2.288 2.633,-3.846c0.679,-1.558 1.058,-3.058 1.142,-4.5c0.083,-1.442 -0.158,-2.504 -0.721,-3.196c-0.796,-0.975 -1.988,-0.737 -3.575,0.712" style="fill:none;fill-rule:nonzero;stroke:#000;stroke-width:3.54px;"/><path d="M385.075,88.288c0.042,-0.329 0.125,-0.667 0.254,-1.008c0.125,-0.346 0.25,-0.55 0.371,-0.621c0.121,-0.067 0.325,0.029 0.608,0.287c0.283,0.258 0.742,0.575 1.367,0.954c0.625,0.379 1.354,0.671 2.192,0.879c0.837,0.208 1.608,0.412 2.317,0.612c0.708,0.2 1.246,0.513 1.613,0.938c0.367,0.425 0.667,0.896 0.896,1.412c0.233,0.517 0.525,0.9 0.887,1.15c0.513,0.358 1.271,0.171 2.275,-0.558" style="fill:none;fill-rule:nonzero;stroke:#000;stroke-width:3.54px;"/><path d="M824.113,24.979c-0.362,-0.113 -0.637,0.488 -0.821,1.796c-0.179,1.308 -0.271,2.896 -0.271,4.754c0,1.858 -0.004,3.925 -0.004,6.196l0,38.842c0,1.438 -0.021,2.896 -0.071,4.375c-0.05,1.479 -0.087,3.171 -0.121,5.067c-0.029,1.896 -0.054,3.933 -0.075,6.108c-0.021,2.175 -0.042,4.071 -0.062,5.692c-0.021,1.621 -0.033,2.904 -0.033,3.854l0,40.446c0,1.038 0.017,1.996 0.054,2.883c0.037,0.883 0.108,1.683 0.212,2.388c0.1,0.708 0.171,1.342 0.212,1.9c0.042,0.558 0.067,1.171 0.067,1.829l0,2.504c0,1.008 -0.013,2.054 -0.042,3.129c-0.029,1.079 -0.075,1.938 -0.133,2.575l-0.054,0.45l0.025,-0.575c0.062,-1.033 0.258,-4.287 0.587,-9.767" style="fill:none;fill-rule:nonzero;stroke:#000;stroke-width:3.54px;"/><path d="M824.113,25.8c0.142,-0.233 0.421,-0.508 0.829,-0.829c0.408,-0.321 0.942,-0.579 1.596,-0.771c0.654,-0.196 1.55,-0.367 2.683,-0.521c1.133,-0.154 2.542,-0.25 4.225,-0.283c1.683,-0.033 3.454,-0.054 5.304,-0.054l10.683,0c1.796,0 3.675,-0.042 5.638,-0.129c1.962,-0.088 3.729,-0.204 5.3,-0.358c1.575,-0.154 2.825,-0.246 3.758,-0.279c0.933,-0.033 1.788,-0.05 2.562,-0.05l2.871,0c1.138,0 2.479,-0.038 4.029,-0.117c1.55,-0.075 3.112,-0.167 4.683,-0.267c1.571,-0.1 3.046,-0.171 4.421,-0.204c1.379,-0.033 2.579,-0.05 3.604,-0.05l2.904,0c0.913,0 1.938,-0.004 3.083,-0.012c1.146,-0.008 2.342,-0.05 3.583,-0.117c1.246,-0.071 2.471,-0.113 3.679,-0.125c1.208,-0.012 2.467,-0.021 3.775,-0.021c1.304,0 2.854,-0.021 4.646,-0.071c1.792,-0.046 3.704,-0.175 5.729,-0.383c2.025,-0.208 3.862,-0.338 5.513,-0.387c1.646,-0.046 3.15,-0.017 4.512,0.088c1.362,0.104 2.792,0.221 4.292,0.346c1.5,0.125 3.092,0.188 4.771,0.179c1.679,-0.004 3.192,-0.071 4.533,-0.188c1.346,-0.121 2.446,-0.188 3.304,-0.2c0.858,-0.012 1.567,0.004 2.129,0.05c0.567,0.046 1.15,0.108 1.754,0.179c0.604,0.071 1.212,0.108 1.821,0.113l2.646,0c0.267,0 0.546,0.029 0.837,0.088c0.288,0.058 0.654,0.104 1.096,0.137c0.442,0.033 0.867,0.05 1.275,0.05l0.783,0c0.162,0 -0.187,0.271 -1.038,0.808" style="fill:none;fill-rule:nonzero;stroke:#000;stroke-width:3.54px;"/><path d="M956.725,23.338c-0.458,-0.033 -0.742,0.617 -0.846,1.95c-0.104,1.333 -0.079,2.817 0.075,4.454c0.15,1.637 0.312,3.375 0.479,5.212c0.167,1.838 0.258,3.821 0.271,5.958c0.012,2.137 0.021,4.279 0.021,6.433c0,2.15 0.029,4.138 0.083,5.954c0.054,1.817 0.212,3.425 0.471,4.829c0.262,1.404 0.458,2.579 0.6,3.529c0.137,0.95 0.204,1.858 0.196,2.733c-0.008,0.875 -0.075,1.996 -0.2,3.362c-0.129,1.367 -0.229,2.85 -0.304,4.45c-0.075,1.6 -0.112,3.158 -0.117,4.679l0,11.117c0,0.992 0.012,2.117 0.042,3.383c0.029,1.267 0.075,2.608 0.137,4.033c0.058,1.425 0.087,2.812 0.079,4.162c-0.008,1.35 -0.062,2.658 -0.158,3.912c-0.1,1.258 -0.158,2.479 -0.171,3.671c-0.012,1.188 -0.021,2.338 -0.021,3.442l0,10.129c0,1.338 -0.029,2.717 -0.083,4.133c-0.058,1.421 -0.146,2.75 -0.271,3.992c-0.121,1.242 -0.2,2.45 -0.233,3.625c-0.033,1.175 -0.05,2.338 -0.05,3.483l0,8.046c0,0.767 -0.004,1.571 -0.013,2.408c-0.008,0.837 -0.037,1.683 -0.087,2.533c-0.05,0.85 -0.1,1.638 -0.154,2.367c-0.05,0.725 -0.083,1.4 -0.092,2.017c-0.012,0.621 -0.017,1.246 -0.017,1.883l0,3.733c0,0.496 0.025,0.804 0.079,0.917c0.054,0.113 0.062,0.017 0.021,-0.296c-0.058,-0.446 -0.012,-1.383 0.129,-2.812" style="fill:none;fill-rule:nonzero;stroke:#000;stroke-width:3.54px;"/><path d="M826.025,159.779c0.071,-0.25 0.875,-0.446 2.413,-0.596c1.538,-0.146 3.367,-0.238 5.492,-0.267c2.129,-0.033 4.629,-0.05 7.504,-0.05l16.292,0c2.25,0 4.308,0.008 6.167,0.029c1.862,0.017 3.779,0.104 5.758,0.263c1.979,0.158 3.979,0.317 6.008,0.483c2.025,0.162 3.983,0.258 5.875,0.283c1.892,0.025 3.629,0.037 5.208,0.037l22.492,0c1.446,0 2.846,-0.004 4.196,-0.012c1.354,-0.008 2.854,-0.092 4.504,-0.246c1.65,-0.154 3.283,-0.3 4.892,-0.438c1.608,-0.137 3.025,-0.179 4.254,-0.125c1.225,0.054 2.504,0.229 3.829,0.525c1.329,0.296 2.721,0.546 4.179,0.746c1.454,0.2 2.892,0.312 4.312,0.338c1.421,0.025 2.75,0.037 3.983,0.037c1.237,0 2.3,0.021 3.196,0.054c0.892,0.037 1.721,0.096 2.479,0.179c0.758,0.083 1.55,0.125 2.367,0.125l3.683,0l0.2,0.012l-0.688,0.092" style="fill:none;fill-rule:nonzero;stroke:#000;stroke-width:3.54px;"/><path d="M891.65,26.346c0.446,0.079 0.696,0.383 0.746,0.917c0.05,0.529 0.075,1.092 0.075,1.679l0,5.558c0,1.304 0.004,2.654 0.012,4.058c0.008,1.4 0.033,2.583 0.075,3.546c0.037,0.962 0.083,1.692 0.133,2.192c0.05,0.5 0.096,0.979 0.138,1.442c0.042,0.463 0.092,0.992 0.15,1.583c0.062,0.592 0.096,1.242 0.108,1.946c0.012,0.704 0.021,1.438 0.021,2.196c0,0.758 -0.058,1.542 -0.175,2.35c-0.112,0.808 -0.242,1.629 -0.387,2.458c-0.142,0.829 -0.296,1.671 -0.454,2.517c-0.158,0.85 -0.333,1.796 -0.512,2.837c-0.183,1.046 -0.35,2.154 -0.504,3.325c-0.154,1.171 -0.275,2.342 -0.358,3.508c-0.083,1.167 -0.146,2.3 -0.183,3.408c-0.042,1.108 -0.079,2.138 -0.112,3.096c-0.029,0.958 -0.046,1.883 -0.046,2.775l0,2.821c0,0.987 -0.012,2.013 -0.029,3.075c-0.021,1.062 -0.038,2.021 -0.046,2.871c-0.012,0.85 -0.017,1.654 -0.017,2.413l0,5.604c0,1.108 0.008,2.208 0.029,3.296c0.017,1.088 0.05,2.075 0.1,2.967c0.05,0.892 0.096,1.679 0.137,2.375c0.042,0.692 0.067,1.446 0.079,2.258c0.012,0.812 0.017,1.675 0.017,2.583l0,18.525c0,0.804 0.029,1.512 0.087,2.129c0.058,0.617 0.104,1.188 0.137,1.713c0.033,0.529 0.05,1.1 0.05,1.713l0,5.204c0,0.496 0.004,0.992 0.012,1.492c0.008,0.496 0.025,1.017 0.046,1.562c0.021,0.542 0.033,1.108 0.033,1.696l0,10.25c0,0.483 -0.004,1.025 -0.017,1.633c-0.008,0.604 -0.021,1.046 -0.042,1.321l-0.017,0.188l0.021,-0.275c0.037,-0.521 0.067,-0.925 0.083,-1.208" style="fill:none;fill-rule:nonzero;stroke:#d2d2d2;stroke-width:3.54px;"/><path d="M925.371,31.904l0,-2.396c0,-0.304 0.012,-0.604 0.029,-0.896c0.021,-0.296 0.058,-0.587 0.121,-0.883c0.058,-0.296 0.112,-0.567 0.163,-0.808c0.05,-0.246 0.087,-0.454 0.112,-0.629c0.021,-0.175 0.033,-0.283 0.033,-0.329l0,-0.029l0,0.858c0,0.488 -0.004,1.346 -0.012,2.579c-0.004,1.233 -0.062,2.817 -0.175,4.75c-0.108,1.933 -0.196,3.737 -0.263,5.408c-0.062,1.671 -0.096,3.179 -0.096,4.529c0,1.35 -0.004,2.608 -0.004,3.775l0,60.671c0,0.675 -0.008,1.346 -0.025,2.004c-0.021,0.658 -0.062,1.308 -0.121,1.946c-0.058,0.637 -0.125,1.288 -0.192,1.942c-0.071,0.658 -0.133,1.363 -0.188,2.117c-0.05,0.754 -0.112,1.554 -0.179,2.404c-0.071,0.85 -0.142,1.704 -0.212,2.567c-0.071,0.863 -0.142,1.675 -0.212,2.438c-0.071,0.762 -0.138,1.508 -0.2,2.237c-0.058,0.729 -0.121,1.542 -0.183,2.433c-0.058,0.896 -0.104,1.8 -0.137,2.713c-0.029,0.912 -0.05,1.762 -0.062,2.55c-0.012,0.787 -0.021,1.475 -0.029,2.067c-0.012,0.592 -0.029,1.163 -0.062,1.713c-0.029,0.546 -0.058,1.079 -0.087,1.6c-0.033,0.521 -0.058,0.988 -0.079,1.408c-0.021,0.421 -0.042,0.804 -0.062,1.15c-0.017,0.346 -0.033,0.692 -0.046,1.033c-0.008,0.342 -0.017,0.696 -0.017,1.062l0,9.571c0,0.025 -0.029,-0.008 -0.087,-0.1c-0.087,-0.133 -0.358,-0.55 -0.812,-1.254" style="fill:none;fill-rule:nonzero;stroke:#d2d2d2;stroke-width:3.54px;"/><path d="M857.379,29.171c-0.333,0 -0.712,0.008 -1.133,0.029c-0.421,0.021 -0.708,0.033 -0.867,0.046c-0.158,0.012 -0.246,0.017 -0.258,0.017l-0.021,0l0,1.079c0,0.475 0.046,1.096 0.129,1.863c0.087,0.767 0.192,1.779 0.312,3.033c0.125,1.254 0.237,2.704 0.35,4.346c0.112,1.642 0.254,3.217 0.421,4.725c0.171,1.508 0.367,2.933 0.587,4.271c0.221,1.337 0.375,2.817 0.45,4.433c0.079,1.617 0.112,3.304 0.092,5.067c-0.017,1.762 -0.071,3.408 -0.162,4.942c-0.092,1.529 -0.142,2.967 -0.154,4.304c-0.012,1.338 -0.021,2.654 -0.021,3.942c0,1.288 -0.033,2.579 -0.1,3.875c-0.062,1.296 -0.167,2.671 -0.308,4.133c-0.142,1.458 -0.271,2.983 -0.396,4.571c-0.125,1.588 -0.204,3.121 -0.237,4.592c-0.033,1.475 -0.05,2.892 -0.05,4.254c0,1.363 0.012,2.533 0.042,3.513c0.029,0.979 0.104,1.75 0.221,2.308c0.121,0.558 0.196,1.079 0.233,1.562c0.033,0.483 0.05,1.158 0.05,2.021l0,2.804c0,1.004 -0.004,1.929 -0.012,2.775c-0.008,0.846 -0.037,1.667 -0.087,2.458c-0.05,0.792 -0.1,1.542 -0.154,2.254c-0.05,0.713 -0.1,1.425 -0.15,2.129c-0.05,0.708 -0.104,1.421 -0.167,2.142c-0.058,0.721 -0.112,1.408 -0.154,2.071c-0.042,0.658 -0.067,1.317 -0.079,1.962c-0.008,0.646 -0.017,1.308 -0.017,1.987l0,4.588c0,0.812 -0.004,1.562 -0.012,2.258c-0.008,0.696 -0.042,1.325 -0.104,1.896c-0.058,0.571 -0.1,1.108 -0.121,1.621c-0.021,0.508 -0.054,1.033 -0.092,1.579c-0.037,0.542 -0.096,1.113 -0.179,1.708c-0.079,0.596 -0.175,1.221 -0.283,1.875c-0.112,0.654 -0.233,1.325 -0.362,2.017c-0.133,0.692 -0.233,1.363 -0.308,2.025c-0.071,0.658 -0.125,1.312 -0.158,1.958c-0.029,0.646 -0.083,1.296 -0.162,1.946c-0.079,0.65 -0.175,1.271 -0.283,1.858c-0.112,0.592 -0.2,1.146 -0.262,1.663c-0.062,0.517 -0.1,1.017 -0.112,1.492c-0.012,0.475 -0.071,0.604 -0.183,0.388" style="fill:none;fill-rule:nonzero;stroke:#d2d2d2;stroke-width:3.54px;"/><path d="M828.942,90.513c0.246,0.067 0.412,0.292 0.504,0.679c0.092,0.388 0.133,0.65 0.133,0.796l0,0.354c0,0.092 0.096,0.146 0.283,0.158c0.192,0.013 0.658,0.021 1.408,0.021l40.471,0c2.033,0 4.062,0.013 6.075,0.042c2.012,0.029 3.792,0.096 5.342,0.204c1.546,0.108 2.992,0.229 4.325,0.362c1.337,0.133 2.796,0.217 4.375,0.25c1.579,0.033 3.188,0.025 4.821,-0.033c1.637,-0.054 3.142,-0.142 4.517,-0.254c1.375,-0.113 2.729,-0.175 4.054,-0.188c1.321,-0.012 2.742,-0.021 4.25,-0.021l4.712,0c1.629,0 3.167,-0.008 4.617,-0.029c1.45,-0.021 2.708,-0.033 3.775,-0.046c1.067,-0.012 2.075,-0.017 3.025,-0.017c0.95,0 1.967,-0.025 3.046,-0.071c1.079,-0.046 2.129,-0.146 3.146,-0.296c1.017,-0.15 1.908,-0.262 2.667,-0.337c0.758,-0.075 1.433,-0.113 2.025,-0.117c0.592,0 1.238,-0.017 1.938,-0.046c0.704,-0.029 1.429,-0.088 2.183,-0.175c0.75,-0.092 1.379,-0.167 1.888,-0.229c0.508,-0.062 0.867,-0.096 1.067,-0.096c0.2,0 0.35,-0.004 0.442,-0.004l2.021,0c0.325,0 0.204,-0.083 -0.362,-0.254" style="fill:none;fill-rule:nonzero;stroke:#d2d2d2;stroke-width:3.54px;"/><path d="M829.896,58.971c0.017,-0.425 -0.108,-0.687 -0.383,-0.783c-0.192,-0.067 -0.333,-0.05 -0.425,0.046c-0.087,0.096 -0.217,0.212 -0.383,0.342c-0.167,0.129 -0.446,0.292 -0.833,0.479c-0.387,0.192 -0.75,0.387 -1.092,0.592c-0.337,0.204 -0.525,0.362 -0.562,0.479c-0.033,0.117 0.333,0.179 1.113,0.192c0.775,0.012 1.729,-0.025 2.862,-0.112c1.129,-0.088 2.254,-0.163 3.362,-0.225c1.113,-0.063 2.45,-0.096 4.017,-0.096c1.562,0 3.638,0.008 6.225,0.025c2.583,0.021 5.458,0.033 8.629,0.046c3.167,0.013 6.233,0.017 9.192,0.017l21.692,0c2,0 3.846,0.004 5.546,0.013c1.696,0.008 3.504,0.038 5.429,0.088c1.921,0.05 3.967,0.092 6.142,0.121c2.171,0.029 4.183,0.058 6.038,0.092c1.854,0.029 3.35,0.088 4.488,0.179c1.137,0.092 2.167,0.158 3.087,0.2c0.925,0.042 1.888,0.075 2.888,0.096c0.996,0.021 2,0.033 3.004,0.033c1.008,0 1.908,-0.004 2.704,-0.013c0.796,-0.008 1.608,-0.071 2.433,-0.188c0.829,-0.117 1.692,-0.233 2.592,-0.346c0.9,-0.112 1.729,-0.2 2.488,-0.263c0.758,-0.062 1.446,-0.108 2.067,-0.142c0.621,-0.029 1.25,-0.046 1.883,-0.046l7.167,0c0.55,0 1.033,-0.008 1.454,-0.029c0.421,-0.017 0.792,-0.054 1.117,-0.104c0.329,-0.05 0.637,-0.1 0.933,-0.15c0.296,-0.05 0.55,-0.079 0.767,-0.079l1.379,0c0.15,0 0.342,0.017 0.583,0.046l0.179,0.021l-0.542,-0.067" style="fill:none;fill-rule:nonzero;stroke:#d2d2d2;stroke-width:3.54px;"/><path d="M824.75,125.6c-0.1,-0.113 0.229,-0.233 0.992,-0.358c0.758,-0.125 1.454,-0.188 2.088,-0.188c0.629,0 1.346,-0.004 2.15,-0.004c0.804,0 1.746,0.058 2.829,0.171c1.079,0.117 2.446,0.246 4.092,0.388c1.646,0.146 3.542,0.225 5.688,0.237c2.146,0.012 4.246,0.021 6.296,0.021l5.913,0c1.892,0 3.742,0.021 5.554,0.058c1.812,0.038 3.746,0.071 5.8,0.092c2.058,0.021 4.004,0.033 5.846,0.033l31.717,0c1.638,0 3.35,-0.008 5.133,-0.029c1.783,-0.017 3.721,-0.1 5.804,-0.25c2.088,-0.15 4.167,-0.258 6.242,-0.338c2.075,-0.075 3.862,-0.108 5.363,-0.1c1.5,0.008 2.829,0.063 3.983,0.158c1.154,0.1 2.188,0.171 3.108,0.212c0.921,0.042 1.704,0.067 2.354,0.067l7.042,0c0.458,0 0.938,-0.004 1.442,-0.012c0.504,-0.008 1.033,-0.042 1.592,-0.104c0.554,-0.058 1.062,-0.108 1.525,-0.15c0.462,-0.042 0.833,-0.067 1.112,-0.079c0.279,-0.013 0.458,-0.017 0.538,-0.017c0.108,0 -0.025,-0.125 -0.408,-0.375" style="fill:none;fill-rule:nonzero;stroke:#d2d2d2;stroke-width:3.54px;"/><path d="M914.892,14.338c-0.079,0.088 -0.483,0.792 -1.212,2.104c-0.733,1.313 -1.629,3.029 -2.692,5.154c-1.608,3.212 -3.187,6.163 -4.746,8.85" style="fill:none;fill-rule:nonzero;stroke:#000;stroke-width:3.54px;"/><path d="M910.7,151.05c-0.317,0 -0.763,0.042 -1.346,0.125c-0.583,0.083 -1.133,0.4 -1.65,0.946c-0.521,0.55 -0.992,1.463 -1.421,2.746c-0.429,1.283 -0.892,2.9 -1.396,4.85c-0.767,2.975 -1.829,5.275 -3.187,6.904" style="fill:none;fill-rule:nonzero;stroke:#000;stroke-width:3.54px;"/><path d="M949.342,76.496c-0.417,-0.121 -0.321,-0.554 0.292,-1.304c0.612,-0.75 1.771,-1.804 3.475,-3.167c1.704,-1.362 3.467,-2.808 5.288,-4.342c1.821,-1.533 3.375,-3.112 4.667,-4.738" style="fill:none;fill-rule:nonzero;stroke:#000;stroke-width:3.54px;"/><path d="M950.071,82.513c0.162,-0.125 0.537,-0.362 1.125,-0.712c0.583,-0.354 1.179,-0.637 1.783,-0.854c0.604,-0.217 1.433,-0.533 2.483,-0.954c1.05,-0.421 2.467,-1.192 4.258,-2.325c2.767,-1.746 4.7,-3.412 5.8,-5" style="fill:none;fill-rule:nonzero;stroke:#000;stroke-width:3.54px;"/><path d="M815.363,79.229c0.125,-0.021 0.933,-0.579 2.425,-1.675c1.496,-1.096 3.392,-2.708 5.688,-4.833c2.3,-2.125 4.15,-3.837 5.55,-5.133c1.4,-1.296 1.867,-1.775 1.404,-1.438" style="fill:none;fill-rule:nonzero;stroke:#000;stroke-width:3.54px;"/><path d="M816.458,84.608c-0.071,0.196 0.792,-0.183 2.579,-1.138c2.625,-1.4 5.883,-3.533 9.779,-6.404" style="fill:none;fill-rule:nonzero;stroke:#000;stroke-width:3.54px;"/><path d="M772.433,82.875l-0.904,0c-0.246,0 -0.171,0.042 0.217,0.125c0.387,0.083 1.583,0.158 3.592,0.225c2.008,0.067 4.275,0.083 6.804,0.046c2.529,-0.038 4.571,-0.079 6.129,-0.133c1.558,-0.054 2.25,-0.025 2.075,0.083" style="fill:none;fill-rule:nonzero;stroke:#000;stroke-width:3.54px;"/><path d="M774.258,92.721l1.979,0.012c1.321,0.008 2.962,0.088 4.925,0.233c2.908,0.217 6.188,0.567 9.842,1.058" style="fill:none;fill-rule:nonzero;stroke:#000;stroke-width:3.54px;"/><path d="M717.021,90.621l0,-1.433c0,-0.513 0.012,-0.967 0.042,-1.35c0.029,-0.388 0.071,-0.713 0.133,-0.983c0.062,-0.267 -0.029,-0.438 -0.271,-0.504c-0.246,-0.071 -0.871,0.062 -1.879,0.396c-1.008,0.333 -2.142,1.004 -3.404,2.017c-1.267,1.013 -2.354,2.142 -3.262,3.379c-0.913,1.242 -1.492,2.471 -1.738,3.692c-0.246,1.221 -0.183,2.225 0.183,3.017c0.367,0.787 1.163,1.308 2.392,1.562c1.225,0.25 2.779,0.367 4.658,0.342c1.883,-0.021 3.908,-0.275 6.083,-0.763c2.175,-0.487 4.188,-1.15 6.042,-1.992c1.854,-0.842 3.158,-1.55 3.917,-2.133l0.567,-0.438l-1.704,1.304" style="fill:none;fill-rule:nonzero;stroke:#000;stroke-width:3.54px;"/><path d="M718.296,76.042c-0.321,0.088 -0.554,0.567 -0.696,1.429c-0.146,0.867 -0.217,2.308 -0.217,4.325c0,2.017 0.017,4.513 0.046,7.488c0.029,2.971 0.042,5.867 0.046,8.683l0,6.992c0,1.846 -0.004,3.088 -0.012,3.737c-0.008,0.646 -0.079,1.017 -0.208,1.112c-0.188,0.133 -0.438,0.021 -0.758,-0.337" style="fill:none;fill-rule:nonzero;stroke:#000;stroke-width:3.54px;"/><path d="M705.263,78.5c0.054,-0.283 0.625,-0.525 1.717,-0.717c1.087,-0.192 2.938,-0.283 5.546,-0.275c2.608,0.008 5.5,0.067 8.679,0.175c3.179,0.108 5.975,0.221 8.392,0.342l1.808,0.088l-5.429,-0.271" style="fill:none;fill-rule:nonzero;stroke:#000;stroke-width:3.54px;"/><path d="M709,110.038c0.171,-0.092 1.133,-0.158 2.892,-0.204c1.758,-0.046 3.821,-0.071 6.192,-0.071l6.704,0c2.096,0 3.017,0.1 2.758,0.3" style="fill:none;fill-rule:nonzero;stroke:#000;stroke-width:3.54px;"/><path d="M690.954,64.738c-0.35,0.008 -0.708,0.058 -1.071,0.154c-0.367,0.092 -0.604,0.292 -0.721,0.592c-0.121,0.304 -0.183,0.796 -0.196,1.479c-0.012,0.683 0.025,1.554 0.108,2.617c0.087,1.062 0.196,2.275 0.329,3.642c0.133,1.367 0.267,2.771 0.408,4.208c0.142,1.438 0.325,2.896 0.554,4.371c0.233,1.475 0.425,2.962 0.583,4.463c0.154,1.5 0.242,2.904 0.254,4.208c0.017,1.304 0.025,2.467 0.037,3.479c0.008,1.012 0.054,1.954 0.146,2.817c0.087,0.862 0.146,1.767 0.167,2.717c0.025,0.946 0.037,1.925 0.037,2.937l0,2.95c0,0.954 -0.004,1.825 -0.017,2.612c-0.008,0.787 -0.037,1.529 -0.087,2.229c-0.046,0.7 -0.117,1.421 -0.208,2.154c-0.087,0.737 -0.179,1.479 -0.271,2.233c-0.092,0.75 -0.192,1.479 -0.304,2.192c-0.108,0.708 -0.242,1.387 -0.404,2.029c-0.158,0.642 -0.3,1.237 -0.425,1.787c-0.125,0.55 -0.204,1.05 -0.237,1.5c-0.033,0.45 -0.05,0.804 -0.05,1.067c0,0.263 0.004,0.417 0.012,0.463c0.008,0.046 0.033,0.017 0.071,-0.096c0.054,-0.158 0.221,-0.667 0.504,-1.513" style="fill:none;fill-rule:nonzero;stroke:#000;stroke-width:3.54px;"/><path d="M985.617,151.325c-0.042,-0.033 -0.6,1.425 -1.675,4.371c-1.625,4.438 -3.192,8.725 -4.708,12.867" style="fill:none;fill-rule:nonzero;stroke:#000;stroke-width:3.54px;"/><path d="M742.538,125.054c-0.179,-0.237 -0.35,-0.546 -0.5,-0.921c-0.15,-0.375 -0.025,-0.917 0.383,-1.621c0.408,-0.704 1.283,-1.925 2.621,-3.667c1.337,-1.742 2.746,-3.771 4.229,-6.079c1.483,-2.312 2.767,-4.392 3.85,-6.242c1.083,-1.85 1.967,-3.408 2.658,-4.683c0.688,-1.271 1.321,-2.392 1.9,-3.35c0.579,-0.958 1.129,-1.85 1.65,-2.667c0.521,-0.817 0.862,-1.442 1.017,-1.875c0.158,-0.433 0.225,-0.692 0.208,-0.767c-0.017,-0.079 -0.058,-0.146 -0.129,-0.204c-0.071,-0.058 -0.092,-0.175 -0.054,-0.358c0.037,-0.179 0.096,-0.312 0.179,-0.4c0.083,-0.087 0.125,-0.133 0.125,-0.146c0,-0.013 0,-0.017 0,-0.013l0,0.013c0,0.008 -0.017,0.029 -0.054,0.071c-0.042,0.042 -0.1,0.067 -0.179,0.079c-0.079,0.013 -0.179,0.017 -0.3,0.017c-0.121,0 -0.246,-0.05 -0.375,-0.154c-0.133,-0.104 -0.325,-0.454 -0.579,-1.05c-0.254,-0.596 -0.758,-1.521 -1.508,-2.771c-0.746,-1.25 -1.629,-2.775 -2.638,-4.571c-1.012,-1.796 -1.942,-3.625 -2.788,-5.483c-0.85,-1.862 -1.708,-3.404 -2.583,-4.625c-0.875,-1.221 -1.8,-2.208 -2.775,-2.958c-0.975,-0.75 -1.721,-1.417 -2.238,-2c-0.517,-0.583 -0.817,-1.175 -0.9,-1.779c-0.083,-0.604 -0.038,-1.292 0.133,-2.067c0.171,-0.775 0.454,-1.5 0.858,-2.179c0.4,-0.675 0.729,-1.129 0.996,-1.354l0.2,-0.171l-0.596,0.508" style="fill:none;fill-rule:nonzero;stroke:#000;stroke-width:3.54px;"/><path d="M737.438,105.642c0.033,-0.429 0.071,-0.888 0.112,-1.383c0.046,-0.492 0.029,-0.825 -0.042,-0.996c-0.075,-0.171 -0.442,-0.121 -1.096,0.15c-0.654,0.271 -1.362,0.875 -2.117,1.804c-0.754,0.933 -1.321,1.963 -1.7,3.096c-0.383,1.129 -0.571,2.246 -0.562,3.342c0.004,1.096 0.337,1.967 1,2.608c0.662,0.642 1.533,0.946 2.621,0.908c1.083,-0.033 2.167,-0.554 3.242,-1.562c1.079,-1.004 1.954,-2.287 2.633,-3.846c0.679,-1.558 1.058,-3.058 1.142,-4.5c0.083,-1.442 -0.158,-2.504 -0.721,-3.196c-0.796,-0.975 -1.988,-0.737 -3.579,0.713" style="fill:none;fill-rule:nonzero;stroke:#000;stroke-width:3.54px;"/><path d="M717.929,88.504c0.046,-0.329 0.129,-0.667 0.254,-1.008c0.125,-0.346 0.25,-0.554 0.371,-0.621c0.121,-0.067 0.325,0.029 0.608,0.287c0.283,0.258 0.742,0.575 1.362,0.954c0.625,0.379 1.358,0.671 2.192,0.879c0.837,0.208 1.613,0.412 2.321,0.612c0.708,0.2 1.246,0.513 1.612,0.938c0.367,0.425 0.667,0.896 0.896,1.412c0.233,0.517 0.529,0.9 0.887,1.15c0.513,0.358 1.271,0.171 2.275,-0.558" style="fill:none;fill-rule:nonzero;stroke:#000;stroke-width:3.54px;"/><path d="M1157.725,25.183c-0.362,-0.113 -0.633,0.488 -0.817,1.796c-0.183,1.308 -0.275,2.896 -0.275,4.754l0,45.037c0,1.438 -0.025,2.896 -0.075,4.375c-0.046,1.479 -0.088,3.171 -0.117,5.067c-0.033,1.896 -0.058,3.933 -0.079,6.108c-0.021,2.175 -0.042,4.071 -0.062,5.692c-0.021,1.621 -0.033,2.904 -0.033,3.854l0,40.446c0,1.037 0.021,1.996 0.058,2.883c0.037,0.887 0.104,1.683 0.208,2.392c0.1,0.708 0.175,1.342 0.217,1.9c0.042,0.558 0.062,1.171 0.062,1.829l0,2.504c0,1.008 -0.012,2.054 -0.042,3.129c-0.029,1.079 -0.071,1.938 -0.133,2.575l-0.054,0.45l0.025,-0.575c0.062,-1.033 0.258,-4.287 0.588,-9.767" style="fill:none;fill-rule:nonzero;stroke:#000;stroke-width:3.54px;"/><path d="M1157.725,26.004c0.146,-0.233 0.421,-0.508 0.829,-0.829c0.408,-0.321 0.942,-0.579 1.596,-0.771c0.654,-0.196 1.55,-0.367 2.683,-0.521c1.133,-0.154 2.542,-0.25 4.225,-0.283c1.683,-0.033 3.454,-0.054 5.308,-0.054l10.679,0c1.796,0 3.675,-0.042 5.638,-0.129c1.963,-0.087 3.729,-0.204 5.3,-0.358c1.575,-0.154 2.825,-0.246 3.758,-0.279c0.933,-0.033 1.787,-0.054 2.562,-0.054l2.875,0c1.133,0 2.479,-0.038 4.025,-0.117c1.55,-0.075 3.113,-0.167 4.683,-0.271c1.575,-0.1 3.046,-0.171 4.425,-0.204c1.375,-0.033 2.575,-0.05 3.6,-0.05l2.904,0c0.912,0 1.937,-0.004 3.083,-0.013c1.146,-0.008 2.342,-0.05 3.588,-0.117c1.242,-0.071 2.467,-0.113 3.675,-0.125c1.208,-0.013 2.467,-0.021 3.775,-0.021c1.308,0 2.858,-0.021 4.65,-0.071c1.792,-0.046 3.7,-0.175 5.725,-0.383c2.025,-0.208 3.862,-0.338 5.512,-0.387c1.65,-0.046 3.154,-0.017 4.513,0.087c1.363,0.104 2.792,0.221 4.292,0.346c1.504,0.125 3.092,0.183 4.771,0.179c1.679,-0.004 3.192,-0.067 4.537,-0.188c1.342,-0.121 2.442,-0.188 3.3,-0.2c0.858,-0.012 1.567,0.004 2.133,0.05c0.562,0.046 1.146,0.108 1.75,0.179c0.608,0.071 1.212,0.108 1.821,0.113l2.646,0c0.267,0 0.546,0.029 0.838,0.087c0.288,0.058 0.654,0.104 1.096,0.138c0.442,0.033 0.867,0.05 1.275,0.05l0.783,0c0.163,0 -0.183,0.271 -1.037,0.808" style="fill:none;fill-rule:nonzero;stroke:#000;stroke-width:3.54px;"/><path d="M1290.338,23.542c-0.458,-0.033 -0.742,0.617 -0.846,1.95c-0.104,1.333 -0.079,2.817 0.075,4.454c0.154,1.637 0.312,3.375 0.479,5.213c0.167,1.833 0.258,3.821 0.271,5.958c0.017,2.137 0.021,4.279 0.021,6.433c0,2.15 0.029,4.138 0.083,5.954c0.058,1.817 0.212,3.425 0.475,4.829c0.258,1.404 0.458,2.579 0.596,3.529c0.138,0.95 0.204,1.858 0.196,2.733c-0.004,0.875 -0.071,1.996 -0.2,3.362c-0.125,1.367 -0.229,2.85 -0.304,4.45c-0.075,1.6 -0.112,3.158 -0.112,4.679c-0.004,1.521 -0.004,2.967 -0.004,4.329l0,6.788c0,0.992 0.017,2.117 0.042,3.383c0.029,1.263 0.075,2.608 0.138,4.033c0.062,1.425 0.088,2.812 0.079,4.167c-0.008,1.35 -0.062,2.654 -0.158,3.913c-0.1,1.258 -0.154,2.479 -0.171,3.671c-0.012,1.188 -0.021,2.338 -0.021,3.442l0,10.129c0,1.338 -0.025,2.717 -0.083,4.133c-0.058,1.421 -0.146,2.75 -0.267,3.992c-0.125,1.242 -0.2,2.45 -0.237,3.625c-0.033,1.175 -0.05,2.338 -0.05,3.483l0,8.046c0,0.767 -0.004,1.571 -0.013,2.408c-0.008,0.838 -0.038,1.683 -0.088,2.533c-0.05,0.85 -0.1,1.637 -0.15,2.367c-0.054,0.725 -0.083,1.4 -0.096,2.017c-0.012,0.621 -0.017,1.246 -0.017,1.883l0,3.733c0,0.496 0.025,0.804 0.079,0.917c0.058,0.112 0.062,0.017 0.025,-0.296c-0.058,-0.446 -0.017,-1.383 0.125,-2.812" style="fill:none;fill-rule:nonzero;stroke:#000;stroke-width:3.54px;"/><path d="M1159.642,159.983c0.071,-0.25 0.875,-0.446 2.408,-0.596c1.538,-0.146 3.367,-0.238 5.496,-0.267c2.125,-0.033 4.625,-0.05 7.5,-0.05l16.292,0c2.254,0 4.308,0.008 6.171,0.029c1.858,0.017 3.779,0.104 5.754,0.263c1.979,0.158 3.983,0.317 6.008,0.483c2.025,0.163 3.983,0.258 5.875,0.283c1.892,0.025 3.629,0.037 5.208,0.037l22.492,0c1.446,0 2.846,-0.004 4.2,-0.012c1.35,-0.008 2.85,-0.092 4.504,-0.246c1.65,-0.154 3.279,-0.3 4.888,-0.437c1.608,-0.138 3.029,-0.179 4.254,-0.125c1.229,0.054 2.504,0.229 3.833,0.525c1.325,0.296 2.717,0.546 4.175,0.746c1.454,0.2 2.896,0.313 4.313,0.338c1.421,0.025 2.75,0.037 3.983,0.037c1.238,0 2.3,0.021 3.196,0.054c0.896,0.038 1.721,0.096 2.479,0.179c0.758,0.083 1.55,0.125 2.367,0.125l3.683,0l0.204,0.013l-0.692,0.092" style="fill:none;fill-rule:nonzero;stroke:#000;stroke-width:3.54px;"/><path d="M1225.263,26.55c0.446,0.079 0.696,0.383 0.746,0.917c0.05,0.529 0.075,1.092 0.075,1.679l0,5.558c0,1.304 0.004,2.654 0.012,4.058c0.008,1.4 0.033,2.583 0.075,3.546c0.042,0.962 0.083,1.692 0.133,2.192c0.05,0.5 0.096,0.979 0.138,1.442c0.042,0.462 0.092,0.992 0.154,1.583c0.058,0.592 0.096,1.242 0.108,1.946c0.008,0.704 0.017,1.438 0.017,2.196c0,0.758 -0.058,1.542 -0.171,2.35c-0.117,0.808 -0.246,1.629 -0.392,2.458c-0.142,0.829 -0.292,1.671 -0.454,2.517c-0.158,0.85 -0.329,1.796 -0.513,2.837c-0.183,1.046 -0.35,2.154 -0.504,3.325c-0.154,1.171 -0.275,2.342 -0.358,3.508c-0.079,1.167 -0.142,2.304 -0.183,3.408c-0.042,1.108 -0.079,2.138 -0.108,3.096c-0.033,0.958 -0.05,1.883 -0.05,2.775l0,2.821c0,0.987 -0.013,2.013 -0.029,3.075c-0.021,1.062 -0.033,2.021 -0.046,2.871c-0.012,0.85 -0.017,1.654 -0.017,2.413l0,5.604c0,1.108 0.008,2.208 0.029,3.296c0.017,1.088 0.054,2.075 0.104,2.967c0.046,0.892 0.092,1.679 0.133,2.375c0.042,0.692 0.071,1.446 0.079,2.258c0.013,0.812 0.017,1.675 0.017,2.583l0,18.525c0,0.804 0.029,1.513 0.088,2.129c0.058,0.617 0.104,1.188 0.138,1.713c0.033,0.529 0.05,1.1 0.05,1.713l0,5.204c0,0.496 0.004,0.992 0.013,1.492c0.008,0.496 0.025,1.017 0.046,1.562c0.021,0.542 0.033,1.108 0.033,1.696l0,10.25c0,0.483 -0.004,1.025 -0.013,1.633c-0.012,0.604 -0.025,1.046 -0.046,1.321l-0.017,0.188l0.021,-0.275c0.042,-0.521 0.067,-0.925 0.083,-1.208" style="fill:none;fill-rule:nonzero;stroke:#d2d2d2;stroke-width:3.54px;"/><path d="M1258.987,32.113l0,-2.396c0,-0.304 0.008,-0.604 0.025,-0.896c0.021,-0.296 0.058,-0.587 0.121,-0.883c0.058,-0.296 0.112,-0.567 0.162,-0.808c0.054,-0.246 0.088,-0.454 0.112,-0.629c0.021,-0.175 0.033,-0.283 0.033,-0.329l0,-0.029l0,0.858c0,0.488 -0.004,1.346 -0.013,2.579c-0.004,1.233 -0.062,2.817 -0.175,4.75c-0.108,1.933 -0.196,3.738 -0.258,5.408c-0.067,1.671 -0.1,3.179 -0.1,4.529l0,64.446c0,0.675 -0.013,1.346 -0.029,2.004c-0.021,0.662 -0.058,1.308 -0.121,1.946c-0.058,0.638 -0.121,1.283 -0.192,1.942c-0.071,0.658 -0.133,1.363 -0.183,2.117c-0.054,0.754 -0.117,1.554 -0.183,2.404c-0.071,0.85 -0.142,1.704 -0.212,2.567c-0.071,0.862 -0.142,1.671 -0.213,2.438c-0.071,0.763 -0.138,1.508 -0.2,2.237c-0.058,0.729 -0.121,1.542 -0.179,2.433c-0.062,0.896 -0.108,1.8 -0.142,2.713c-0.029,0.912 -0.05,1.762 -0.062,2.55c-0.012,0.787 -0.021,1.475 -0.029,2.067c-0.008,0.592 -0.029,1.163 -0.058,1.708c-0.033,0.55 -0.062,1.083 -0.092,1.6c-0.033,0.521 -0.058,0.988 -0.079,1.408c-0.021,0.421 -0.042,0.804 -0.058,1.15c-0.021,0.346 -0.037,0.692 -0.046,1.033c-0.012,0.342 -0.017,0.696 -0.017,1.062l0,9.571c0,0.025 -0.033,-0.008 -0.092,-0.1c-0.088,-0.133 -0.358,-0.55 -0.812,-1.254" style="fill:none;fill-rule:nonzero;stroke:#d2d2d2;stroke-width:3.54px;"/><path d="M1190.992,29.375c-0.333,0 -0.712,0.008 -1.133,0.029c-0.421,0.021 -0.708,0.033 -0.867,0.046c-0.158,0.013 -0.242,0.017 -0.258,0.017l-0.021,0l0,1.079c0,0.475 0.046,1.096 0.133,1.862c0.083,0.767 0.188,1.779 0.312,3.033c0.121,1.258 0.237,2.704 0.346,4.346c0.112,1.642 0.254,3.217 0.421,4.725c0.171,1.508 0.367,2.933 0.588,4.271c0.225,1.337 0.375,2.817 0.454,4.433c0.079,1.617 0.108,3.304 0.092,5.067c-0.021,1.762 -0.075,3.408 -0.167,4.942c-0.088,1.529 -0.142,2.967 -0.154,4.304c-0.012,1.338 -0.017,2.654 -0.017,3.942c0,1.288 -0.033,2.579 -0.1,3.875c-0.067,1.296 -0.171,2.671 -0.312,4.133c-0.142,1.458 -0.271,2.983 -0.396,4.571c-0.125,1.588 -0.2,3.121 -0.238,4.592c-0.033,1.475 -0.05,2.892 -0.05,4.254c0,1.363 0.017,2.533 0.042,3.513c0.029,0.979 0.104,1.75 0.221,2.308c0.121,0.558 0.196,1.079 0.233,1.562c0.033,0.483 0.05,1.154 0.05,2.021l0,2.804c0,1.004 -0.004,1.929 -0.013,2.775c-0.008,0.846 -0.038,1.667 -0.088,2.454c-0.05,0.792 -0.1,1.542 -0.15,2.254c-0.054,0.713 -0.104,1.425 -0.154,2.129c-0.05,0.708 -0.104,1.421 -0.167,2.142c-0.058,0.721 -0.108,1.408 -0.15,2.071c-0.042,0.662 -0.071,1.317 -0.079,1.962c-0.012,0.646 -0.017,1.308 -0.017,1.988l0,4.587c0,0.812 -0.008,1.562 -0.017,2.258c-0.008,0.696 -0.042,1.325 -0.1,1.896c-0.062,0.571 -0.104,1.108 -0.125,1.617c-0.021,0.508 -0.054,1.033 -0.092,1.579c-0.038,0.542 -0.096,1.113 -0.175,1.708c-0.083,0.596 -0.175,1.221 -0.288,1.875c-0.108,0.654 -0.229,1.325 -0.362,2.017c-0.133,0.688 -0.233,1.362 -0.308,2.025c-0.071,0.658 -0.125,1.312 -0.154,1.958c-0.033,0.646 -0.088,1.296 -0.167,1.946c-0.079,0.65 -0.175,1.271 -0.283,1.858c-0.112,0.592 -0.196,1.146 -0.263,1.663c-0.062,0.517 -0.1,1.017 -0.112,1.492c-0.013,0.475 -0.071,0.604 -0.179,0.388" style="fill:none;fill-rule:nonzero;stroke:#d2d2d2;stroke-width:3.54px;"/><path d="M1162.558,90.717c0.242,0.067 0.408,0.292 0.5,0.679c0.092,0.383 0.138,0.65 0.138,0.796l0,0.354c0,0.092 0.092,0.146 0.283,0.158c0.188,0.013 0.658,0.021 1.408,0.021l40.467,0c2.037,0 4.062,0.013 6.075,0.042c2.013,0.029 3.796,0.096 5.342,0.204c1.55,0.108 2.992,0.229 4.329,0.362c1.333,0.129 2.792,0.213 4.371,0.25c1.583,0.033 3.187,0.025 4.825,-0.033c1.633,-0.054 3.137,-0.142 4.513,-0.254c1.379,-0.113 2.729,-0.175 4.054,-0.188c1.325,-0.012 2.742,-0.017 4.25,-0.017l4.712,0c1.629,0 3.167,-0.008 4.617,-0.029c1.45,-0.021 2.708,-0.033 3.775,-0.046c1.067,-0.013 2.075,-0.017 3.025,-0.017c0.95,0 1.967,-0.025 3.046,-0.071c1.079,-0.046 2.129,-0.146 3.146,-0.296c1.017,-0.15 1.908,-0.263 2.667,-0.338c0.758,-0.075 1.433,-0.112 2.025,-0.117c0.592,0 1.238,-0.017 1.942,-0.046c0.7,-0.029 1.425,-0.087 2.179,-0.179c0.75,-0.092 1.383,-0.167 1.892,-0.229c0.508,-0.063 0.862,-0.096 1.062,-0.096l2.462,0c0.325,0 0.204,-0.088 -0.362,-0.258" style="fill:none;fill-rule:nonzero;stroke:#d2d2d2;stroke-width:3.54px;"/><path d="M1163.508,59.179c0.021,-0.425 -0.108,-0.687 -0.383,-0.783c-0.192,-0.067 -0.333,-0.05 -0.425,0.046c-0.088,0.096 -0.217,0.212 -0.383,0.342c-0.167,0.129 -0.446,0.292 -0.833,0.479c-0.388,0.192 -0.75,0.387 -1.092,0.592c-0.338,0.204 -0.525,0.362 -0.562,0.479c-0.033,0.117 0.338,0.179 1.112,0.192c0.775,0.012 1.729,-0.025 2.863,-0.112c1.133,-0.088 2.254,-0.163 3.367,-0.225c1.108,-0.063 2.446,-0.096 4.013,-0.096c1.567,0 3.642,0.008 6.225,0.025c2.583,0.021 5.462,0.033 8.629,0.046c3.167,0.013 6.233,0.017 9.196,0.017l21.692,0c1.996,0 3.846,0.004 5.542,0.013c1.696,0.008 3.508,0.038 5.429,0.088c1.921,0.05 3.967,0.092 6.142,0.121c2.171,0.029 4.188,0.058 6.037,0.092c1.854,0.029 3.35,0.088 4.487,0.179c1.138,0.092 2.167,0.158 3.092,0.2c0.921,0.042 1.883,0.075 2.883,0.096c1,0.021 2,0.033 3.004,0.033c1.008,0 1.908,-0.004 2.704,-0.013c0.8,-0.008 1.608,-0.071 2.437,-0.188c0.825,-0.117 1.688,-0.233 2.588,-0.346c0.904,-0.112 1.733,-0.2 2.487,-0.263c0.758,-0.062 1.446,-0.108 2.067,-0.142c0.621,-0.029 1.25,-0.046 1.883,-0.046l7.167,0c0.55,0 1.033,-0.008 1.454,-0.029c0.421,-0.021 0.792,-0.054 1.121,-0.104c0.325,-0.05 0.633,-0.1 0.929,-0.15c0.296,-0.05 0.554,-0.079 0.767,-0.079l1.379,0c0.15,0 0.342,0.017 0.583,0.046l0.179,0.021l-0.538,-0.067" style="fill:none;fill-rule:nonzero;stroke:#d2d2d2;stroke-width:3.54px;"/><path d="M1158.363,125.808c-0.1,-0.112 0.233,-0.233 0.992,-0.358c0.758,-0.125 1.454,-0.188 2.087,-0.188c0.629,0 1.35,-0.004 2.15,-0.004c0.804,0 1.746,0.058 2.829,0.171c1.083,0.117 2.446,0.246 4.092,0.387c1.646,0.146 3.542,0.225 5.688,0.237c2.146,0.013 4.246,0.021 6.296,0.021l5.912,0c1.892,0 3.742,0.021 5.554,0.058c1.812,0.037 3.746,0.071 5.804,0.092c2.054,0.021 4,0.033 5.842,0.033l31.721,0c1.633,0 3.346,-0.008 5.129,-0.029c1.783,-0.017 3.721,-0.1 5.804,-0.25c2.087,-0.15 4.167,-0.258 6.242,-0.337c2.075,-0.075 3.863,-0.108 5.362,-0.1c1.504,0.008 2.829,0.062 3.983,0.158c1.154,0.1 2.192,0.171 3.108,0.212c0.921,0.042 1.704,0.067 2.354,0.067l7.046,0c0.454,0 0.933,-0.004 1.438,-0.013c0.504,-0.008 1.038,-0.042 1.592,-0.104c0.554,-0.058 1.062,-0.108 1.525,-0.15c0.463,-0.042 0.833,-0.067 1.113,-0.079c0.279,-0.012 0.458,-0.017 0.537,-0.017c0.112,0 -0.025,-0.125 -0.408,-0.375" style="fill:none;fill-rule:nonzero;stroke:#d2d2d2;stroke-width:3.54px;"/><path d="M1248.504,14.542c-0.079,0.088 -0.483,0.792 -1.213,2.104c-0.729,1.312 -1.625,3.029 -2.692,5.154c-1.604,3.213 -3.188,6.163 -4.746,8.85" style="fill:none;fill-rule:nonzero;stroke:#000;stroke-width:3.54px;"/><path d="M1244.312,151.258c-0.312,0 -0.762,0.042 -1.346,0.125c-0.583,0.083 -1.133,0.4 -1.65,0.946c-0.521,0.55 -0.992,1.462 -1.421,2.746c-0.429,1.283 -0.892,2.9 -1.396,4.85c-0.763,2.975 -1.825,5.275 -3.183,6.904" style="fill:none;fill-rule:nonzero;stroke:#000;stroke-width:3.54px;"/><path d="M1282.954,76.7c-0.417,-0.121 -0.317,-0.554 0.292,-1.304c0.612,-0.75 1.771,-1.804 3.475,-3.167c1.704,-1.362 3.467,-2.808 5.288,-4.342c1.821,-1.533 3.375,-3.112 4.667,-4.738" style="fill:none;fill-rule:nonzero;stroke:#000;stroke-width:3.54px;"/><path d="M1283.683,82.717c0.162,-0.125 0.538,-0.362 1.125,-0.712c0.588,-0.354 1.179,-0.637 1.787,-0.854c0.604,-0.217 1.429,-0.533 2.479,-0.954c1.05,-0.421 2.471,-1.192 4.258,-2.325c2.767,-1.746 4.7,-3.412 5.8,-5" style="fill:none;fill-rule:nonzero;stroke:#000;stroke-width:3.54px;"/><path d="M1148.975,79.438c0.125,-0.021 0.938,-0.579 2.429,-1.675c1.492,-1.096 3.388,-2.708 5.688,-4.833c2.3,-2.125 4.146,-3.838 5.546,-5.133c1.4,-1.296 1.871,-1.775 1.404,-1.438" style="fill:none;fill-rule:nonzero;stroke:#000;stroke-width:3.54px;"/><path d="M1150.071,84.813c-0.071,0.196 0.792,-0.183 2.579,-1.138c2.625,-1.4 5.883,-3.533 9.779,-6.404" style="fill:none;fill-rule:nonzero;stroke:#000;stroke-width:3.54px;"/><path d="M1106.046,83.083l-0.904,0c-0.246,0 -0.171,0.042 0.217,0.125c0.388,0.083 1.583,0.158 3.592,0.225c2.008,0.067 4.275,0.083 6.804,0.046c2.529,-0.037 4.571,-0.079 6.129,-0.133c1.558,-0.054 2.25,-0.025 2.075,0.083" style="fill:none;fill-rule:nonzero;stroke:#000;stroke-width:3.54px;"/><path d="M1107.871,92.925l1.979,0.012c1.321,0.008 2.963,0.088 4.925,0.233c2.908,0.217 6.192,0.567 9.842,1.058" style="fill:none;fill-rule:nonzero;stroke:#000;stroke-width:3.54px;"/><path d="M1050.633,90.829l0,-1.433c0,-0.513 0.012,-0.963 0.042,-1.35c0.029,-0.387 0.075,-0.712 0.133,-0.983c0.062,-0.267 -0.029,-0.438 -0.271,-0.508c-0.246,-0.067 -0.871,0.062 -1.879,0.396c-1.008,0.333 -2.142,1.004 -3.404,2.017c-1.262,1.013 -2.35,2.142 -3.262,3.379c-0.912,1.242 -1.492,2.471 -1.737,3.692c-0.246,1.221 -0.183,2.225 0.183,3.017c0.367,0.787 1.167,1.308 2.392,1.562c1.225,0.25 2.779,0.367 4.658,0.342c1.883,-0.021 3.912,-0.275 6.083,-0.763c2.175,-0.487 4.188,-1.15 6.042,-1.992c1.854,-0.842 3.158,-1.55 3.917,-2.133l0.567,-0.438l-1.7,1.304" style="fill:none;fill-rule:nonzero;stroke:#000;stroke-width:3.54px;"/><path d="M1051.908,76.246c-0.321,0.088 -0.55,0.567 -0.696,1.429c-0.142,0.867 -0.217,2.308 -0.217,4.325c0,2.017 0.017,4.513 0.046,7.488c0.029,2.975 0.046,5.867 0.046,8.683l0,6.992c0,1.842 -0.004,3.088 -0.013,3.737c-0.008,0.646 -0.079,1.017 -0.208,1.112c-0.188,0.133 -0.438,0.021 -0.758,-0.337" style="fill:none;fill-rule:nonzero;stroke:#000;stroke-width:3.54px;"/><path d="M1038.875,78.708c0.054,-0.283 0.625,-0.525 1.717,-0.717c1.087,-0.192 2.938,-0.283 5.546,-0.275c2.608,0.008 5.504,0.067 8.679,0.175c3.179,0.108 5.979,0.221 8.392,0.342l1.812,0.092l-5.433,-0.271" style="fill:none;fill-rule:nonzero;stroke:#000;stroke-width:3.54px;"/><path d="M1042.613,110.242c0.171,-0.092 1.133,-0.158 2.892,-0.204c1.758,-0.046 3.825,-0.071 6.192,-0.071l6.704,0c2.096,0 3.017,0.1 2.758,0.3" style="fill:none;fill-rule:nonzero;stroke:#000;stroke-width:3.54px;"/><path d="M1024.567,64.946c-0.35,0.008 -0.708,0.058 -1.071,0.15c-0.367,0.092 -0.604,0.292 -0.721,0.592c-0.117,0.304 -0.183,0.796 -0.196,1.479c-0.012,0.683 0.025,1.554 0.108,2.617c0.087,1.062 0.196,2.275 0.329,3.642c0.133,1.367 0.271,2.771 0.408,4.208c0.142,1.438 0.329,2.896 0.558,4.371c0.229,1.475 0.421,2.962 0.579,4.463c0.158,1.5 0.242,2.904 0.254,4.208c0.017,1.304 0.029,2.467 0.037,3.479c0.008,1.012 0.058,1.954 0.146,2.817c0.088,0.862 0.146,1.767 0.167,2.717c0.025,0.946 0.037,1.925 0.037,2.937l0,2.95c0,0.954 -0.004,1.825 -0.013,2.612c-0.012,0.788 -0.042,1.529 -0.087,2.229c-0.05,0.7 -0.121,1.421 -0.212,2.154c-0.088,0.737 -0.179,1.479 -0.271,2.229c-0.092,0.75 -0.192,1.479 -0.3,2.192c-0.112,0.708 -0.246,1.387 -0.408,2.025c-0.158,0.642 -0.3,1.237 -0.425,1.787c-0.125,0.55 -0.204,1.05 -0.237,1.5c-0.033,0.45 -0.05,0.804 -0.05,1.067c0,0.262 0.004,0.417 0.012,0.463c0.008,0.046 0.033,0.017 0.071,-0.096c0.054,-0.163 0.221,-0.667 0.508,-1.513" style="fill:none;fill-rule:nonzero;stroke:#000;stroke-width:3.54px;"/><path d="M1319.229,151.529c-0.037,-0.033 -0.6,1.425 -1.675,4.371c-1.625,4.437 -3.192,8.725 -4.708,12.867" style="fill:none;fill-rule:nonzero;stroke:#000;stroke-width:3.54px;"/><path d="M1076.154,125.258c-0.183,-0.237 -0.35,-0.546 -0.504,-0.921c-0.15,-0.375 -0.021,-0.917 0.388,-1.621c0.404,-0.704 1.279,-1.925 2.617,-3.667c1.338,-1.742 2.75,-3.767 4.233,-6.079c1.483,-2.312 2.763,-4.392 3.846,-6.238c1.083,-1.85 1.967,-3.408 2.658,-4.683c0.688,-1.275 1.321,-2.392 1.9,-3.35c0.579,-0.963 1.129,-1.85 1.65,-2.667c0.521,-0.817 0.862,-1.442 1.017,-1.875c0.158,-0.433 0.229,-0.692 0.212,-0.767c-0.017,-0.079 -0.062,-0.146 -0.133,-0.204c-0.071,-0.058 -0.092,-0.175 -0.054,-0.358c0.038,-0.179 0.096,-0.312 0.179,-0.4c0.083,-0.088 0.125,-0.133 0.125,-0.146c0,-0.013 0.004,-0.017 0.004,-0.013l0,0.013c0,0.008 -0.021,0.029 -0.058,0.071c-0.038,0.042 -0.1,0.067 -0.179,0.079c-0.079,0.012 -0.179,0.017 -0.3,0.017c-0.121,0 -0.246,-0.05 -0.375,-0.154c-0.129,-0.104 -0.325,-0.454 -0.579,-1.05c-0.254,-0.596 -0.758,-1.521 -1.504,-2.771c-0.75,-1.25 -1.629,-2.775 -2.642,-4.571c-1.013,-1.796 -1.942,-3.625 -2.787,-5.483c-0.846,-1.862 -1.708,-3.404 -2.583,-4.625c-0.875,-1.221 -1.8,-2.208 -2.775,-2.958c-0.975,-0.75 -1.721,-1.417 -2.237,-2c-0.517,-0.583 -0.817,-1.175 -0.9,-1.779c-0.083,-0.604 -0.037,-1.292 0.133,-2.067c0.171,-0.775 0.458,-1.5 0.858,-2.179c0.4,-0.675 0.733,-1.129 0.996,-1.354l0.2,-0.167l-0.596,0.508" style="fill:none;fill-rule:nonzero;stroke:#000;stroke-width:3.54px;"/><path d="M1071.05,105.846c0.033,-0.429 0.071,-0.888 0.117,-1.379c0.042,-0.492 0.029,-0.825 -0.046,-0.996c-0.075,-0.171 -0.438,-0.121 -1.096,0.15c-0.654,0.271 -1.358,0.875 -2.113,1.808c-0.754,0.933 -1.325,1.963 -1.704,3.092c-0.383,1.129 -0.571,2.246 -0.562,3.342c0.004,1.096 0.337,1.967 1,2.608c0.662,0.642 1.533,0.946 2.621,0.908c1.083,-0.033 2.167,-0.554 3.242,-1.562c1.079,-1.004 1.958,-2.288 2.633,-3.846c0.679,-1.558 1.058,-3.058 1.142,-4.5c0.083,-1.442 -0.158,-2.504 -0.721,-3.196c-0.796,-0.975 -1.987,-0.737 -3.575,0.712" style="fill:none;fill-rule:nonzero;stroke:#000;stroke-width:3.54px;"/><path d="M1051.546,88.713c0.042,-0.329 0.125,-0.667 0.25,-1.008c0.129,-0.346 0.25,-0.55 0.371,-0.621c0.121,-0.067 0.325,0.029 0.608,0.287c0.287,0.258 0.742,0.575 1.367,0.954c0.621,0.379 1.354,0.671 2.192,0.879c0.833,0.208 1.608,0.413 2.317,0.612c0.708,0.2 1.246,0.513 1.613,0.938c0.367,0.425 0.667,0.896 0.896,1.412c0.233,0.517 0.529,0.9 0.888,1.15c0.512,0.358 1.271,0.171 2.275,-0.558" style="fill:none;fill-rule:nonzero;stroke:#000;stroke-width:3.54px;"/><path d="M560.812,23.567c-0.167,-0.05 -0.483,-0.171 -0.954,-0.362c-0.288,-0.117 -0.479,-0.171 -0.571,-0.163c-0.092,0.008 -0.15,0.2 -0.175,0.575c-0.021,0.375 -0.033,1.008 -0.033,1.904c0,0.896 -0.033,1.95 -0.1,3.167c-0.067,1.217 -0.154,2.479 -0.267,3.783c-0.112,1.304 -0.188,2.625 -0.221,3.962c-0.033,1.337 -0.05,2.642 -0.05,3.908l0,3.654c0,1.167 -0.021,2.283 -0.058,3.354c-0.037,1.071 -0.083,2.058 -0.133,2.962c-0.054,0.908 -0.079,1.758 -0.079,2.55c-0.004,0.792 -0.004,1.571 -0.004,2.329l0,7.113c0,0.887 0.012,1.779 0.029,2.671c0.017,0.892 0.075,1.779 0.175,2.658c0.1,0.879 0.167,1.787 0.2,2.712c0.037,0.929 0.054,1.917 0.054,2.967l0,17.967c0,1.062 -0.004,2.138 -0.017,3.221c-0.008,1.083 -0.037,2.142 -0.087,3.179c-0.05,1.037 -0.092,1.967 -0.121,2.783c-0.029,0.821 -0.046,1.558 -0.05,2.221c0,0.662 -0.021,1.35 -0.058,2.067c-0.037,0.717 -0.117,1.475 -0.233,2.267c-0.117,0.796 -0.233,1.625 -0.346,2.488c-0.117,0.862 -0.212,1.679 -0.296,2.45c-0.083,0.771 -0.158,1.537 -0.229,2.296c-0.067,0.758 -0.154,1.542 -0.254,2.35c-0.1,0.808 -0.196,1.621 -0.287,2.442c-0.096,0.821 -0.171,1.608 -0.233,2.358c-0.062,0.754 -0.108,1.467 -0.137,2.138c-0.033,0.671 -0.071,1.321 -0.121,1.95c-0.05,0.629 -0.117,1.308 -0.196,2.042c-0.083,0.733 -0.154,1.492 -0.212,2.271c-0.062,0.779 -0.112,1.487 -0.154,2.125c-0.042,0.633 -0.062,1.171 -0.067,1.6l0,2.521c0,0.5 -0.008,1.083 -0.029,1.746c-0.021,0.662 -0.033,1.3 -0.046,1.917c-0.012,0.613 -0.025,1.163 -0.046,1.654c-0.017,0.492 -0.033,0.958 -0.046,1.404c-0.008,0.446 -0.017,0.892 -0.017,1.338l0,13.779c0,0.079 0.017,-0.017 0.046,-0.292c0.042,-0.396 0.179,-1.308 0.408,-2.746" style="fill:none;fill-rule:nonzero;stroke:#c2361a;stroke-width:7.08px;"/><path d="M821.117,93.208l5.179,0c1.496,0 3.292,0.004 5.383,0.013c2.096,0.008 4.15,0.088 6.163,0.233c2.017,0.146 3.854,0.333 5.517,0.567c1.662,0.233 3.246,0.413 4.746,0.538c1.504,0.125 3.033,0.217 4.588,0.267c1.558,0.054 3.133,0.083 4.733,0.096c1.6,0.013 3.204,0.017 4.812,0.017l4.833,0c1.608,0 3.2,-0.025 4.775,-0.071c1.571,-0.05 2.975,-0.079 4.204,-0.092c1.233,-0.013 2.354,-0.008 3.371,0.008c1.012,0.017 2.142,0.083 3.387,0.192c1.242,0.108 2.583,0.175 4.017,0.2c1.433,0.025 2.825,0.038 4.167,0.038l30.892,0c1.25,0 2.425,-0.004 3.525,-0.013c1.1,-0.008 2.167,-0.054 3.2,-0.133c1.038,-0.079 1.954,-0.15 2.758,-0.212c0.804,-0.062 1.462,-0.096 1.988,-0.096l6.292,0c0.642,0 1.158,0.004 1.558,0.013c0.4,0.008 0.879,0.033 1.438,0.075c0.558,0.042 1.2,0.067 1.925,0.079c0.725,0.013 1.433,0.017 2.125,0.017l4.842,0c0.458,0 0.937,-0.004 1.442,-0.013c0.5,-0.008 0.983,-0.054 1.446,-0.133c0.462,-0.079 0.812,-0.154 1.054,-0.225c0.242,-0.071 0.317,-0.117 0.221,-0.129c-0.133,-0.017 -0.55,-0.075 -1.258,-0.171" style="fill:none;fill-rule:nonzero;stroke:#c2361a;stroke-width:7.08px;"/><path d="M1226.158,24.504c-0.375,0.087 -0.842,0.258 -1.412,0.512c-0.367,0.167 -0.533,0.254 -0.504,0.267c0.029,0.012 0.171,0.033 0.417,0.062c0.25,0.029 0.408,0.304 0.479,0.825c0.071,0.525 0.104,1.217 0.104,2.083l0,2.65c0,0.9 0.021,1.846 0.058,2.833c0.037,0.987 0.133,2.033 0.292,3.133c0.162,1.1 0.288,2.279 0.383,3.538c0.096,1.258 0.167,2.55 0.217,3.867c0.05,1.317 0.088,2.592 0.112,3.833c0.021,1.238 0.033,2.479 0.033,3.725c0,1.246 -0.05,2.475 -0.146,3.692c-0.092,1.217 -0.213,2.363 -0.358,3.429c-0.146,1.071 -0.217,2.071 -0.208,3.004c0.004,0.933 0.05,1.917 0.129,2.946c0.079,1.029 0.121,2.117 0.121,3.267c0.004,1.15 -0.038,2.354 -0.125,3.621c-0.083,1.263 -0.204,2.529 -0.354,3.796c-0.154,1.267 -0.25,2.471 -0.283,3.612c-0.033,1.138 -0.054,2.212 -0.054,3.221l0,28.842c0,0.812 -0.012,1.663 -0.042,2.562c-0.029,0.896 -0.088,1.821 -0.175,2.771c-0.092,0.95 -0.196,1.879 -0.317,2.783c-0.121,0.904 -0.242,1.796 -0.362,2.679c-0.121,0.879 -0.208,1.762 -0.262,2.642c-0.054,0.879 -0.088,1.746 -0.1,2.6c-0.012,0.85 -0.025,1.717 -0.046,2.596c-0.017,0.879 -0.062,1.733 -0.129,2.554c-0.071,0.825 -0.121,1.571 -0.154,2.246c-0.033,0.675 -0.05,1.279 -0.05,1.808l0,3.708c0,0.737 -0.021,1.446 -0.058,2.125c-0.038,0.679 -0.088,1.321 -0.15,1.925c-0.058,0.604 -0.1,1.167 -0.125,1.696c-0.021,0.529 -0.033,1.021 -0.033,1.479l0,1.442c0,0.504 -0.017,1.062 -0.058,1.675c-0.037,0.613 -0.075,1.208 -0.117,1.779c-0.042,0.571 -0.071,1.067 -0.079,1.488c-0.012,0.421 -0.017,0.779 -0.017,1.075l0,2.817l-0.004,0.162l-0.004,-0.275c-0.004,-0.487 -0.021,-0.946 -0.054,-1.379" style="fill:none;fill-rule:nonzero;stroke:#c2361a;stroke-width:7.08px;"/><path d="M1157.979,92.571c0.138,-0.325 0.321,-0.638 0.55,-0.933c0.225,-0.296 0.412,-0.458 0.558,-0.483c0.142,-0.025 0.317,-0.033 0.525,-0.025c0.204,0.008 0.583,0.042 1.138,0.104c0.554,0.058 1.367,0.104 2.438,0.138c1.071,0.029 2.379,0.067 3.925,0.108c1.546,0.042 3.196,0.096 4.942,0.162c1.746,0.071 3.525,0.163 5.333,0.283c1.812,0.121 3.683,0.208 5.612,0.262c1.925,0.054 3.937,0.088 6.029,0.096c2.092,0.012 4.129,0.012 6.108,0.004c1.983,-0.008 3.875,-0.033 5.671,-0.075c1.8,-0.042 3.471,-0.067 5.013,-0.079c1.538,-0.013 2.983,-0.017 4.333,-0.017l4.104,0c1.388,0 2.725,0.013 4.017,0.042c1.292,0.029 2.563,0.1 3.821,0.221c1.254,0.121 2.546,0.196 3.879,0.229c1.333,0.033 2.721,0.046 4.154,0.038c1.438,-0.008 2.842,-0.075 4.208,-0.204c1.371,-0.129 2.687,-0.242 3.946,-0.346c1.263,-0.104 2.458,-0.217 3.583,-0.337c1.129,-0.121 2.233,-0.196 3.308,-0.233c1.075,-0.033 2.104,-0.05 3.092,-0.054l21.017,0c0.763,0 1.521,-0.021 2.283,-0.058c0.758,-0.038 1.488,-0.071 2.192,-0.092c0.7,-0.021 1.388,-0.033 2.054,-0.033l6.062,0c0.375,0 0.763,0.004 1.154,0.012c0.392,0.008 0.825,0.054 1.3,0.129c0.471,0.079 0.95,0.158 1.425,0.242c0.475,0.083 0.904,0.146 1.283,0.183c0.379,0.042 0.708,0.079 0.983,0.108c0.279,0.029 0.487,0.046 0.621,0.046c0.138,0 0.079,-0.104 -0.183,-0.308c-0.375,-0.296 -1.55,-1.233 -3.529,-2.804" style="fill:none;fill-rule:nonzero;stroke:#c2361a;stroke-width:7.08px;"/></svg>