<?xml version="1.0" encoding="UTF-8" standalone="no"?><!DOCTYPE svg PUBLIC "-//W3C//DTD SVG 1.1//EN" "http://www.w3.org/Graphics/SVG/1.1/DTD/svg11.dtd"><svg width="100%" height="100%" viewBox="0 0 1395 227" version="1.1" xmlns="http://www.w3.org/2000/svg" xmlns:xlink="http://www.w3.org/1999/xlink" xml:space="preserve" xmlns:serif="http://www.serif.com/" style="fill-rule:evenodd;clip-rule:evenodd;stroke-linecap:round;stroke-linejoin:round;stroke-miterlimit:10;"><rect id="Artboard5" x="0" y="0" width="1395" height="227" style="fill:none;"/><g id="Artboard51" serif:id="Artboard5"><rect x="0" y="0" width="1395" height="227" style="fill:#fff;"/><path d="M57.702,143.693c-0.272,-0.371 -0.56,-0.835 -0.862,-1.392c-0.302,-0.557 -0.535,-1.03 -0.697,-1.42c-0.162,-0.389 -0.378,-0.713 -0.646,-0.97c-0.268,-0.258 -0.598,-0.436 -0.989,-0.533c-0.391,-0.098 -0.838,-0.12 -1.34,-0.065c-0.502,0.054 -1.089,0.325 -1.761,0.813c-0.672,0.488 -1.382,1.218 -2.131,2.193c-0.749,0.975 -1.397,2.111 -1.945,3.41c-0.548,1.299 -0.885,2.584 -1.012,3.855c-0.127,1.271 -0.014,2.384 0.338,3.34c0.353,0.955 0.943,1.718 1.772,2.29c0.829,0.572 1.722,0.984 2.681,1.238c0.959,0.253 1.973,0.375 3.043,0.365c1.07,-0.01 2.142,-0.282 3.217,-0.816c1.074,-0.534 2.087,-1.315 3.037,-2.343c0.95,-1.028 1.673,-2.201 2.168,-3.518c0.495,-1.318 0.756,-2.628 0.783,-3.93c0.027,-1.302 -0.213,-2.418 -0.72,-3.346c-0.507,-0.928 -1.138,-1.676 -1.893,-2.243c-0.755,-0.567 -1.547,-1.065 -2.376,-1.494c-0.829,-0.429 -1.601,-0.784 -2.315,-1.065c-0.714,-0.281 -1.387,-0.427 -2.017,-0.438c-0.63,-0.011 -1.211,0.36 -1.743,1.114c-0.532,0.753 -0.921,1.841 -1.166,3.264c-0.245,1.422 -0.352,2.788 -0.322,4.098c0.03,1.31 0.309,2.326 0.836,3.048c0.527,0.723 1.182,1.14 1.967,1.251c0.785,0.112 1.536,-0.121 2.252,-0.698c0.716,-0.577 1.247,-1.627 1.592,-3.151c0.345,-1.524 0.282,-2.607 -0.188,-3.25c-0.47,-0.643 -1.063,-0.684 -1.781,-0.123c-0.717,0.56 -1.301,1.409 -1.75,2.546c-0.45,1.137 -0.721,2.143 -0.813,3.019c-0.093,0.876 -0.01,1.477 0.247,1.802c0.257,0.325 0.643,0.363 1.157,0.114c0.514,-0.249 0.919,-0.721 1.213,-1.416c0.294,-0.695 0.485,-1.227 0.572,-1.596l0.09,-0.419l-0.017,0.043c-0.054,0.169 -0.225,0.7 -0.513,1.593" style="fill:none;fill-rule:nonzero;stroke:#348ad8;stroke-width:7.09px;"/><path d="M188.674,143.237c0.283,-0.154 0.505,-0.376 0.667,-0.665c0.162,-0.289 0.243,-0.583 0.244,-0.884c0,-0.3 -0.071,-0.618 -0.215,-0.952c-0.143,-0.334 -0.389,-0.692 -0.738,-1.075c-0.349,-0.383 -0.749,-0.714 -1.201,-0.994c-0.452,-0.28 -0.976,-0.469 -1.571,-0.567c-0.595,-0.098 -1.258,0.105 -1.989,0.608c-0.731,0.504 -1.449,1.432 -2.153,2.786c-0.705,1.354 -1.203,2.791 -1.494,4.311c-0.291,1.52 -0.35,2.828 -0.178,3.924c0.173,1.095 0.626,1.891 1.36,2.388c0.734,0.497 1.569,0.796 2.505,0.897c0.936,0.102 1.905,0.107 2.906,0.015c1.001,-0.092 1.951,-0.451 2.848,-1.078c0.898,-0.627 1.638,-1.489 2.22,-2.587c0.582,-1.098 0.936,-2.324 1.062,-3.677c0.125,-1.353 0.045,-2.588 -0.24,-3.706c-0.285,-1.118 -0.733,-2.004 -1.344,-2.659c-0.61,-0.655 -1.274,-1.101 -1.99,-1.337c-0.717,-0.237 -1.463,-0.349 -2.238,-0.336c-0.776,0.012 -1.666,0.341 -2.67,0.986c-1.005,0.645 -2.011,1.685 -3.02,3.121c-1.009,1.436 -1.733,2.975 -2.174,4.617c-0.441,1.642 -0.457,3.08 -0.049,4.315c0.408,1.235 1.308,2.085 2.7,2.551c1.392,0.466 2.771,0.619 4.139,0.459c1.367,-0.16 2.415,-0.683 3.142,-1.571c0.728,-0.887 1.122,-1.936 1.183,-3.146c0.061,-1.21 -0.165,-2.221 -0.68,-3.034c-0.514,-0.813 -1.237,-1.225 -2.168,-1.238c-0.931,-0.013 -1.803,0.486 -2.616,1.496c-0.813,1.01 -1.346,2.043 -1.6,3.097c-0.254,1.054 -0.313,1.788 -0.175,2.199c0.137,0.412 0.5,0.474 1.087,0.188c0.588,-0.286 1.074,-0.841 1.46,-1.664c0.572,-1.221 0.617,-2.19 0.135,-2.908" style="fill:none;fill-rule:nonzero;stroke:#348ad8;stroke-width:7.09px;"/><path d="M389.279,141.505c0.028,-0.34 0.066,-0.685 0.112,-1.033c0.046,-0.349 0.07,-0.611 0.07,-0.786c0,-0.175 -0.095,-0.305 -0.286,-0.388c-0.191,-0.083 -0.52,-0.131 -0.988,-0.144c-0.468,-0.013 -1.033,0.104 -1.694,0.351c-0.662,0.246 -1.371,0.823 -2.13,1.731c-0.758,0.908 -1.436,2.01 -2.034,3.307c-0.598,1.297 -1.001,2.591 -1.208,3.883c-0.207,1.292 -0.242,2.373 -0.104,3.243c0.138,0.87 0.556,1.48 1.256,1.833c0.7,0.352 1.58,0.552 2.643,0.6c1.062,0.048 2.146,-0.043 3.253,-0.272c1.107,-0.229 2.111,-0.641 3.012,-1.237c0.901,-0.596 1.665,-1.334 2.293,-2.214c0.628,-0.88 1.071,-1.865 1.328,-2.953c0.258,-1.089 0.395,-2.129 0.412,-3.119c0.017,-0.991 -0.187,-1.827 -0.612,-2.507c-0.425,-0.681 -1.042,-1.18 -1.852,-1.497c-0.81,-0.318 -1.671,-0.5 -2.583,-0.548c-0.912,-0.048 -1.78,-0 -2.603,0.142c-0.824,0.142 -1.592,0.508 -2.305,1.096c-0.713,0.589 -1.333,1.413 -1.86,2.471c-0.526,1.058 -0.843,2.157 -0.95,3.295c-0.107,1.138 0.151,2.053 0.773,2.744c0.622,0.691 1.532,1.096 2.728,1.213c1.197,0.118 2.298,0.048 3.303,-0.208c1.005,-0.256 1.747,-0.757 2.225,-1.502c0.478,-0.745 0.696,-1.52 0.654,-2.325c-0.042,-0.805 -0.439,-1.365 -1.193,-1.681c-0.754,-0.316 -1.651,-0.257 -2.692,0.177c-1.041,0.434 -1.876,1.148 -2.506,2.142c-0.629,0.994 -0.984,1.825 -1.064,2.491c-0.08,0.667 0.205,1.018 0.856,1.053c0.933,0.051 2.003,-0.795 3.212,-2.538" style="fill:none;fill-rule:nonzero;stroke:#348ad8;stroke-width:7.09px;"/><path d="M522.439,143.237c-0.005,-0.332 -0.126,-0.675 -0.364,-1.03c-0.238,-0.355 -0.64,-0.595 -1.206,-0.718c-0.566,-0.123 -1.236,-0.197 -2.01,-0.221c-0.774,-0.024 -1.6,0.001 -2.478,0.075c-0.878,0.074 -1.768,0.438 -2.671,1.092c-0.903,0.654 -1.618,1.546 -2.144,2.678c-0.526,1.132 -0.746,2.306 -0.661,3.523c0.085,1.217 0.777,2.24 2.075,3.07c1.298,0.83 3.016,1.342 5.153,1.535c2.137,0.194 4.188,0.043 6.152,-0.451c1.964,-0.495 3.49,-1.321 4.577,-2.479c1.087,-1.158 1.77,-2.357 2.05,-3.596c0.279,-1.239 0.134,-2.345 -0.436,-3.317c-0.57,-0.972 -1.524,-1.756 -2.86,-2.351c-1.337,-0.595 -2.775,-0.955 -4.313,-1.08c-1.539,-0.125 -2.966,0.073 -4.283,0.594c-1.316,0.521 -2.401,1.471 -3.255,2.849c-0.853,1.378 -1.362,2.696 -1.525,3.956c-0.164,1.259 0.022,2.206 0.556,2.839c0.534,0.633 1.412,0.936 2.632,0.909c1.221,-0.027 2.307,-0.384 3.259,-1.071c0.952,-0.687 1.586,-1.467 1.901,-2.339c0.315,-0.872 0.166,-1.532 -0.449,-1.978c-0.614,-0.446 -1.547,-0.561 -2.798,-0.345c-1.251,0.216 -2.21,0.69 -2.877,1.421c-0.667,0.731 -1.024,1.332 -1.072,1.803l-0.036,0.353l0.108,-1.06" style="fill:none;fill-rule:nonzero;stroke:#348ad8;stroke-width:7.09px;"/><path d="M857.75,141.739c-0.13,0.01 -0.397,-0.123 -0.801,-0.399c-0.247,-0.169 -0.43,-0.288 -0.55,-0.358c-0.119,-0.07 -0.27,-0.15 -0.451,-0.242c-0.181,-0.091 -0.382,-0.173 -0.603,-0.245c-0.221,-0.072 -0.467,-0.138 -0.738,-0.199c-0.271,-0.061 -0.573,-0.102 -0.905,-0.125c-0.332,-0.022 -0.733,0.008 -1.203,0.092c-0.47,0.084 -0.959,0.352 -1.466,0.805c-0.507,0.453 -0.966,1.025 -1.377,1.716c-0.411,0.691 -0.711,1.45 -0.901,2.277c-0.19,0.827 -0.303,1.646 -0.338,2.459c-0.035,0.812 0.085,1.547 0.362,2.203c0.276,0.657 0.753,1.163 1.431,1.519c0.678,0.355 1.416,0.583 2.215,0.682c0.799,0.099 1.559,0.15 2.282,0.151c0.723,0.001 1.418,-0.007 2.088,-0.025c0.67,-0.018 1.358,-0.187 2.064,-0.506c0.707,-0.319 1.382,-0.827 2.026,-1.524c0.644,-0.697 1.144,-1.455 1.5,-2.274c0.356,-0.819 0.568,-1.581 0.638,-2.288c0.07,-0.706 0.025,-1.277 -0.135,-1.713c-0.16,-0.435 -0.538,-0.777 -1.131,-1.025c-0.594,-0.248 -1.402,-0.453 -2.425,-0.615c-1.023,-0.163 -2,-0.273 -2.933,-0.331c-0.933,-0.058 -1.724,-0.05 -2.373,0.025c-0.649,0.075 -1.236,0.352 -1.76,0.833c-0.524,0.48 -0.932,1.068 -1.223,1.761c-0.292,0.694 -0.462,1.377 -0.51,2.05c-0.048,0.673 -0.035,1.251 0.039,1.734c0.075,0.484 0.347,0.847 0.817,1.089c0.47,0.242 1.12,0.39 1.948,0.446c0.828,0.055 1.728,-0.025 2.699,-0.242c0.972,-0.217 1.833,-0.71 2.585,-1.481c0.751,-0.77 1.263,-1.685 1.535,-2.743c0.272,-1.058 0.288,-2.096 0.046,-3.113c-0.241,-1.017 -0.785,-1.82 -1.63,-2.408c-0.845,-0.588 -1.728,-0.92 -2.65,-0.996c-0.921,-0.076 -1.833,0.135 -2.735,0.632c-0.903,0.497 -1.713,1.339 -2.433,2.527c-0.72,1.187 -1.196,2.439 -1.429,3.757c-0.233,1.317 -0.048,2.495 0.553,3.533c0.601,1.038 1.476,1.781 2.623,2.23c1.147,0.449 2.168,0.678 3.062,0.689c0.894,0.011 1.616,-0.258 2.167,-0.806c0.55,-0.548 0.917,-1.402 1.101,-2.562c0.184,-1.16 0.245,-2.273 0.184,-3.339c-0.061,-1.066 -0.317,-1.804 -0.768,-2.216c-0.451,-0.412 -0.986,-0.354 -1.604,0.173c-0.618,0.527 -1.067,1.301 -1.345,2.322c-0.279,1.021 -0.417,1.84 -0.414,2.458c0.003,0.617 0.227,0.974 0.672,1.07c0.63,0.136 1.46,-1.142 2.489,-3.833" style="fill:none;fill-rule:nonzero;stroke:#c2361a;stroke-width:7.09px;"/><path d="M989.364,142.782c-0.043,-0.285 -0.098,-0.681 -0.167,-1.191c-0.069,-0.509 -0.104,-0.996 -0.105,-1.461c-0.001,-0.465 -0.049,-0.907 -0.144,-1.326c-0.095,-0.42 -0.334,-0.769 -0.716,-1.048c-0.383,-0.279 -0.933,-0.453 -1.651,-0.522c-0.718,-0.069 -1.54,0.078 -2.465,0.439c-0.926,0.361 -1.823,1.068 -2.691,2.12c-0.868,1.053 -1.486,2.215 -1.853,3.489c-0.368,1.273 -0.365,2.505 0.008,3.695c0.373,1.19 1.104,2.185 2.192,2.985c1.088,0.799 2.237,1.33 3.448,1.591c1.211,0.261 2.493,0.338 3.848,0.231c1.354,-0.107 2.585,-0.5 3.693,-1.179c1.108,-0.679 1.984,-1.477 2.629,-2.393c0.645,-0.916 1.086,-1.893 1.323,-2.933c0.238,-1.039 0.279,-2.067 0.124,-3.083c-0.155,-1.016 -0.679,-1.886 -1.573,-2.61c-0.895,-0.724 -1.986,-1.206 -3.275,-1.447c-1.289,-0.241 -2.509,-0.298 -3.661,-0.17c-1.152,0.128 -2.223,0.637 -3.211,1.528c-0.989,0.891 -1.811,1.958 -2.465,3.2c-0.654,1.242 -1.033,2.352 -1.135,3.329c-0.102,0.977 0.219,1.655 0.963,2.033c0.744,0.378 1.673,0.566 2.788,0.566c1.115,-0 2.045,-0.2 2.791,-0.597c0.746,-0.398 1.24,-0.943 1.481,-1.637c0.242,-0.694 0.193,-1.29 -0.148,-1.789c-0.34,-0.499 -0.82,-0.781 -1.44,-0.847c-0.62,-0.065 -1.039,0.053 -1.259,0.354c-0.22,0.302 -0.303,0.56 -0.251,0.777c0.073,0.307 0.536,0.373 1.387,0.201" style="fill:none;fill-rule:nonzero;stroke:#348ad8;stroke-width:7.09px;"/><path d="M1192.065,143.966c0.15,-0.293 0.279,-0.638 0.386,-1.038c0.107,-0.4 0.16,-0.761 0.16,-1.084c0,-0.323 -0.051,-0.675 -0.154,-1.058c-0.103,-0.383 -0.458,-0.743 -1.066,-1.081c-0.608,-0.338 -1.407,-0.578 -2.398,-0.717c-0.991,-0.14 -2.025,-0.088 -3.101,0.154c-1.076,0.242 -1.967,0.929 -2.673,2.063c-0.706,1.134 -1.169,2.466 -1.389,3.997c-0.22,1.531 -0.218,2.958 0.005,4.281c0.223,1.323 0.861,2.264 1.913,2.822c1.052,0.558 2.362,0.778 3.93,0.66c1.568,-0.118 3.13,-0.615 4.686,-1.491c1.557,-0.876 2.772,-1.923 3.647,-3.14c0.875,-1.217 1.255,-2.464 1.141,-3.741c-0.114,-1.277 -0.825,-2.367 -2.134,-3.271c-1.309,-0.904 -2.69,-1.429 -4.143,-1.577c-1.453,-0.148 -2.812,0.192 -4.078,1.02c-1.265,0.828 -2.212,2.01 -2.839,3.548c-0.627,1.538 -0.832,2.886 -0.613,4.045c0.219,1.159 1.004,1.866 2.357,2.121c1.353,0.255 2.661,0.119 3.925,-0.407c1.264,-0.526 2.115,-1.273 2.552,-2.24c0.437,-0.967 0.358,-1.712 -0.236,-2.233c-0.594,-0.521 -1.406,-0.693 -2.436,-0.517c-1.03,0.177 -1.653,0.599 -1.868,1.267c-0.296,0.917 0.086,1.222 1.146,0.916" style="fill:none;fill-rule:nonzero;stroke:#c2361a;stroke-width:7.09px;"/><path d="M1323.402,142.508c0.171,-0.344 0.359,-0.723 0.563,-1.138c0.205,-0.415 0.267,-0.717 0.188,-0.905c-0.079,-0.188 -0.418,-0.29 -1.016,-0.305c-0.598,-0.015 -1.345,-0.022 -2.239,-0.022c-0.894,0 -1.851,0.06 -2.869,0.182c-1.018,0.121 -2.055,0.578 -3.11,1.37c-1.055,0.792 -1.87,1.922 -2.444,3.389c-0.574,1.467 -0.51,3.046 0.192,4.738c0.702,1.691 1.973,3.056 3.813,4.093c1.84,1.038 3.659,1.589 5.459,1.654c1.8,0.065 3.389,-0.457 4.767,-1.568c1.378,-1.11 2.394,-2.616 3.049,-4.518c0.655,-1.902 0.97,-3.835 0.945,-5.798c-0.025,-1.963 -0.473,-3.559 -1.345,-4.787c-0.871,-1.228 -1.955,-2.033 -3.249,-2.415c-1.295,-0.382 -2.661,-0.374 -4.097,0.025c-1.437,0.398 -2.755,1.395 -3.956,2.989c-1.201,1.594 -2.014,3.295 -2.44,5.102c-0.425,1.807 -0.318,3.284 0.323,4.431c0.64,1.147 1.747,1.789 3.319,1.925c1.572,0.136 2.968,-0.199 4.188,-1.005c1.22,-0.807 2.016,-1.744 2.39,-2.813c0.374,-1.068 0.22,-1.838 -0.46,-2.31c-0.681,-0.471 -1.736,-0.503 -3.166,-0.095c-1.43,0.408 -2.59,1.168 -3.48,2.279c-0.89,1.111 -1.389,2.091 -1.495,2.94c-0.106,0.849 0.156,1.365 0.786,1.55c0.63,0.185 1.391,0.023 2.284,-0.484c0.892,-0.508 1.63,-1.152 2.212,-1.933c0.583,-0.781 0.951,-1.388 1.106,-1.822c0.216,-0.605 -0.621,-0.258 -2.51,1.042" style="fill:none;fill-rule:nonzero;stroke:#348ad8;stroke-width:7.09px;"/><path d="M38.926,121.181c0,-0.333 -0.005,-0.735 -0.014,-1.205c-0.009,-0.47 -0.067,-0.876 -0.174,-1.217c-0.107,-0.341 -0.27,-0.743 -0.488,-1.207c-0.218,-0.463 -0.512,-0.895 -0.881,-1.294c-0.369,-0.399 -0.872,-0.665 -1.508,-0.798c-0.636,-0.133 -1.406,0.049 -2.309,0.544c-0.903,0.495 -1.784,1.325 -2.642,2.492c-0.858,1.166 -1.5,2.528 -1.926,4.085c-0.426,1.557 -0.511,3.125 -0.257,4.703c0.255,1.579 0.917,2.703 1.987,3.373c1.07,0.67 2.243,0.774 3.517,0.312c1.274,-0.462 2.376,-1.459 3.306,-2.991c0.93,-1.532 1.606,-3.062 2.028,-4.591c0.422,-1.528 0.683,-2.804 0.784,-3.828c0.1,-1.024 0.2,-1.778 0.298,-2.263c0.098,-0.485 0.198,-0.779 0.301,-0.882c0.102,-0.103 0.185,-0.017 0.246,0.257c0.062,0.274 0.167,0.896 0.314,1.865c0.148,0.97 0.37,2.089 0.667,3.359c0.297,1.27 0.69,2.482 1.177,3.636c0.487,1.154 0.845,1.899 1.074,2.234c0.323,0.475 1.783,-0.092 4.379,-1.7" style="fill:none;fill-rule:nonzero;stroke:#348ad8;stroke-width:3.54px;"/><path d="M189.859,117.444c0.323,-0.206 0.659,-0.538 1.007,-0.997c0.348,-0.459 0.555,-0.915 0.623,-1.37c0.068,-0.455 -0.089,-0.857 -0.471,-1.208c-0.381,-0.351 -0.978,-0.601 -1.79,-0.751c-0.813,-0.15 -1.673,-0.122 -2.581,0.082c-0.908,0.205 -1.824,0.827 -2.749,1.868c-0.924,1.041 -1.63,2.288 -2.118,3.742c-0.488,1.454 -0.592,2.723 -0.314,3.809c0.279,1.086 1.092,1.741 2.44,1.965c1.348,0.224 2.666,0.014 3.954,-0.631c1.289,-0.645 2.313,-1.554 3.074,-2.727c0.76,-1.173 1.266,-2.379 1.516,-3.62c0.25,-1.24 0.377,-2.202 0.382,-2.886c0.005,-0.684 -0.094,-1.034 -0.297,-1.05c-0.203,-0.016 -0.447,0.502 -0.732,1.555c-0.285,1.053 -0.468,2.307 -0.548,3.763c-0.08,1.456 -0.015,2.759 0.193,3.91c0.209,1.151 0.501,1.99 0.876,2.519l0.282,0.396l-0.845,-1.189" style="fill:none;fill-rule:nonzero;stroke:#348ad8;stroke-width:3.54px;"/><path d="M371.962,118.082c0,-0.255 -0.023,-0.621 -0.07,-1.098c-0.047,-0.477 -0.293,-0.889 -0.739,-1.236c-0.446,-0.347 -1.171,-0.525 -2.174,-0.533c-1.004,-0.008 -2.181,0.55 -3.531,1.673c-1.35,1.124 -2.408,2.617 -3.172,4.481c-0.764,1.864 -0.985,3.446 -0.664,4.748c0.321,1.301 1.177,2.004 2.567,2.109c1.39,0.105 2.702,-0.322 3.935,-1.28c1.233,-0.958 2.145,-2.132 2.734,-3.522c0.59,-1.39 0.983,-2.686 1.178,-3.889c0.196,-1.203 0.294,-1.953 0.296,-2.251l0.002,-0.131l0.002,0.758l0,3.375c0,1.534 0.137,2.991 0.41,4.37c0.391,1.971 1.955,3.026 4.693,3.165" style="fill:none;fill-rule:nonzero;stroke:#348ad8;stroke-width:3.54px;"/><path d="M518.064,117.535c-0.112,-0.271 -0.322,-0.635 -0.629,-1.093c-0.307,-0.458 -0.68,-0.836 -1.118,-1.135c-0.438,-0.299 -1.03,-0.489 -1.775,-0.569c-0.745,-0.08 -1.675,0.061 -2.788,0.422c-1.114,0.361 -2.24,1.101 -3.379,2.22c-1.139,1.119 -1.996,2.377 -2.57,3.773c-0.574,1.396 -0.732,2.625 -0.473,3.687c0.259,1.062 1.033,1.763 2.32,2.103c1.287,0.34 2.597,0.318 3.93,-0.066c1.333,-0.384 2.531,-1.181 3.596,-2.39c1.064,-1.209 1.915,-2.594 2.551,-4.154c0.636,-1.56 0.912,-1.652 0.828,-0.277c-0.084,1.375 0.041,2.681 0.375,3.917c0.334,1.236 0.913,2.228 1.739,2.978c0.825,0.749 1.413,1.198 1.763,1.347c0.498,0.211 1.537,-0.38 3.118,-1.774" style="fill:none;fill-rule:nonzero;stroke:#348ad8;stroke-width:3.54px;"/><path d="M821.023,140.503c-0.82,0 -1.738,0.009 -2.752,0.027c-1.015,0.018 -1.992,0.244 -2.931,0.677c-0.94,0.433 -1.863,1.262 -2.77,2.487c-0.907,1.225 -1.54,2.676 -1.899,4.353c-0.359,1.676 -0.284,3.052 0.225,4.127c0.508,1.075 1.436,1.722 2.782,1.941c1.347,0.219 2.673,0.162 3.978,-0.17c1.306,-0.332 2.47,-0.94 3.493,-1.823c1.023,-0.883 1.856,-1.914 2.5,-3.094c0.643,-1.18 1.098,-2.258 1.364,-3.233c0.266,-0.976 0.412,-1.663 0.438,-2.06l0.032,-0.343l0.007,0.186c0,0.292 0.005,1.097 0.014,2.413c0.009,1.317 0.172,2.671 0.489,4.065c0.317,1.393 0.843,2.609 1.577,3.647c0.735,1.038 1.232,1.438 1.491,1.2" style="fill:none;fill-rule:nonzero;stroke:#c2361a;stroke-width:3.54px;"/><path d="M974.325,126.649c-0.38,0.068 -0.745,-0.06 -1.095,-0.385c-0.35,-0.325 -0.668,-0.702 -0.955,-1.133c-0.286,-0.431 -0.765,-0.951 -1.436,-1.56c-0.671,-0.609 -1.705,-1.408 -3.102,-2.395c-1.397,-0.988 -3.177,-2.083 -5.341,-3.284c-2.164,-1.201 -4.397,-2.381 -6.698,-3.538c-2.302,-1.158 -4.485,-2.28 -6.551,-3.365c-2.066,-1.086 -4.062,-2.127 -5.989,-3.123c-1.927,-0.996 -3.976,-1.994 -6.147,-2.995c-2.171,-1.001 -4.567,-2.041 -7.187,-3.123c-2.62,-1.081 -5.253,-2.155 -7.898,-3.221c-2.645,-1.066 -5.294,-2.029 -7.948,-2.888c-2.653,-0.859 -5.406,-1.664 -8.26,-2.416c-2.853,-0.752 -5.775,-1.453 -8.764,-2.105c-2.99,-0.652 -5.858,-1.312 -8.604,-1.98c-2.746,-0.668 -5.213,-1.269 -7.401,-1.802c-2.188,-0.533 -4.323,-0.955 -6.407,-1.267c-2.083,-0.312 -4.218,-0.522 -6.403,-0.631c-2.185,-0.109 -4.304,-0.165 -6.357,-0.166c-2.053,-0.001 -4.053,-0.002 -5.999,-0.002c-1.946,0 -3.929,0.048 -5.949,0.142c-2.02,0.095 -4.103,0.315 -6.248,0.66c-2.145,0.345 -4.196,0.755 -6.151,1.23c-1.955,0.475 -3.725,0.887 -5.308,1.237c-1.583,0.35 -3.037,0.662 -4.362,0.937c-1.325,0.275 -2.51,0.534 -3.555,0.778c-1.045,0.244 -1.946,0.507 -2.704,0.788c-0.758,0.281 -1.505,0.598 -2.242,0.95c-0.737,0.352 -1.557,0.734 -2.46,1.146c-0.903,0.412 -1.913,0.86 -3.03,1.345c-1.117,0.485 -2.335,1.008 -3.654,1.57c-1.319,0.562 -2.654,1.195 -4.005,1.901c-1.351,0.705 -2.592,1.418 -3.723,2.136c-1.131,0.719 -2.2,1.448 -3.209,2.187c-1.008,0.739 -1.93,1.493 -2.766,2.26c-0.836,0.768 -1.654,1.632 -2.453,2.593c-0.799,0.962 -1.671,2.094 -2.617,3.398c-0.945,1.304 -1.977,2.728 -3.095,4.271c-1.118,1.543 -2.164,3.029 -3.138,4.456c-0.974,1.427 -1.755,2.741 -2.345,3.941c-0.59,1.2 -1.085,2.454 -1.484,3.763c-0.4,1.309 -0.749,2.673 -1.047,4.09c-0.298,1.417 -0.511,2.834 -0.64,4.251c-0.128,1.417 -0.199,2.805 -0.211,4.166c-0.013,1.36 -0.015,2.699 -0.005,4.015c0.009,1.317 0.067,2.653 0.174,4.01c0.107,1.357 0.27,2.685 0.49,3.984c0.219,1.3 0.45,2.529 0.693,3.688c0.243,1.159 0.486,2.286 0.729,3.381c0.243,1.095 0.525,2.194 0.844,3.297c0.32,1.103 0.69,2.236 1.113,3.399c0.422,1.163 0.875,2.318 1.359,3.465c0.484,1.146 1.036,2.209 1.658,3.187c0.621,0.978 1.291,1.88 2.01,2.706c0.718,0.826 1.408,1.624 2.069,2.395c0.66,0.771 1.328,1.579 2.004,2.426c0.675,0.846 1.43,1.695 2.264,2.547c0.834,0.852 1.759,1.703 2.776,2.555c1.017,0.852 2.1,1.693 3.249,2.522c1.149,0.829 2.384,1.708 3.705,2.635c1.321,0.927 2.713,1.881 4.176,2.863c1.463,0.981 2.997,1.94 4.601,2.877c1.605,0.937 3.277,1.759 5.016,2.465c1.739,0.707 3.388,1.355 4.948,1.945c1.559,0.59 3.029,1.155 4.41,1.695c1.381,0.54 2.784,1.024 4.209,1.453c1.425,0.429 2.914,0.783 4.468,1.063c1.554,0.28 3.117,0.488 4.688,0.623c1.572,0.135 3.114,0.259 4.626,0.372c1.512,0.113 2.92,0.229 4.225,0.349c1.304,0.12 2.598,0.227 3.881,0.319c1.283,0.092 2.727,0.179 4.332,0.261c1.605,0.082 3.308,0.148 5.109,0.199c1.801,0.051 3.593,0.116 5.375,0.196c1.782,0.08 3.618,0.136 5.506,0.17c1.888,0.034 3.829,0.041 5.821,0.023c1.993,-0.018 3.949,-0.135 5.868,-0.35c1.919,-0.215 3.801,-0.459 5.645,-0.732c1.845,-0.273 3.611,-0.551 5.298,-0.834c1.688,-0.283 3.385,-0.585 5.093,-0.908c1.707,-0.323 3.471,-0.651 5.29,-0.985c1.819,-0.334 3.741,-0.716 5.765,-1.145c2.024,-0.429 4.212,-0.974 6.565,-1.634c2.353,-0.66 4.584,-1.398 6.694,-2.214c2.11,-0.815 4.022,-1.649 5.738,-2.499c1.716,-0.851 3.34,-1.725 4.872,-2.623c1.532,-0.898 3.005,-1.833 4.42,-2.805c1.415,-0.972 2.655,-1.886 3.721,-2.741c1.066,-0.855 2.061,-1.64 2.986,-2.355c0.925,-0.714 1.838,-1.401 2.738,-2.061c0.9,-0.659 1.797,-1.299 2.689,-1.918c0.892,-0.619 1.769,-1.227 2.631,-1.825c0.862,-0.598 1.699,-1.205 2.512,-1.821c0.812,-0.617 1.618,-1.296 2.417,-2.039c0.799,-0.743 1.6,-1.568 2.401,-2.476c0.802,-0.908 1.526,-1.77 2.172,-2.586c0.646,-0.817 1.17,-1.508 1.573,-2.074c0.403,-0.566 0.733,-1.035 0.991,-1.406c0.258,-0.371 0.469,-0.67 0.633,-0.897c0.165,-0.226 0.328,-0.446 0.49,-0.658c0.162,-0.213 0.29,-0.388 0.385,-0.525c0.095,-0.137 0.148,-0.203 0.16,-0.197c0.013,0.005 -0.052,0.235 -0.195,0.688c-0.142,0.453 -0.403,1.125 -0.783,2.015c-0.38,0.89 -0.758,1.831 -1.134,2.823c-0.376,0.991 -0.756,1.974 -1.139,2.948c-0.384,0.974 -0.778,1.875 -1.183,2.703c-0.405,0.828 -0.757,1.501 -1.056,2.02c-0.299,0.519 -0.522,0.87 -0.67,1.055c-0.148,0.185 -0.233,0.278 -0.257,0.281c-0.024,0.003 -0.026,-0.12 -0.008,-0.367c0.018,-0.247 0.192,-0.738 0.52,-1.471c0.329,-0.733 0.765,-1.575 1.31,-2.524c0.544,-0.949 1.07,-1.875 1.579,-2.779c0.508,-0.904 0.968,-1.734 1.377,-2.491c0.41,-0.757 0.754,-1.383 1.033,-1.88c0.279,-0.496 0.472,-0.885 0.579,-1.165c0.107,-0.28 0.172,-0.488 0.194,-0.623c0.023,-0.135 -0.051,-0.264 -0.22,-0.385c-0.169,-0.121 -0.633,-0.224 -1.39,-0.308c-0.757,-0.084 -1.827,-0.127 -3.21,-0.128c-1.383,-0.001 -2.988,0.075 -4.814,0.228c-1.826,0.153 -3.231,0.288 -4.214,0.404c-0.983,0.116 -1.481,0.025 -1.495,-0.272" style="fill:none;fill-rule:nonzero;stroke:#348ad8;stroke-width:3.54px;"/><path d="M991.004,101.312c0.186,0.155 0.293,0.725 0.322,1.711c0.029,0.986 0.043,2.266 0.043,3.841l0,8.63c0,0.856 0.043,1.326 0.127,1.411c0.085,0.085 0.353,-0.223 0.803,-0.922c0.45,-0.7 1.118,-1.458 2.003,-2.277c0.885,-0.818 1.893,-1.404 3.022,-1.758c1.129,-0.354 2.18,-0.508 3.153,-0.46c0.973,0.047 1.798,0.422 2.477,1.124c0.679,0.702 1.216,1.587 1.612,2.654c0.396,1.067 0.621,2.085 0.675,3.055c0.054,0.97 -0.189,1.785 -0.73,2.447c-0.541,0.661 -1.293,1.145 -2.258,1.451c-0.965,0.306 -1.933,0.483 -2.907,0.53c-0.973,0.048 -1.951,-0.032 -2.935,-0.24c-1.416,-0.299 -2.727,-1.768 -3.934,-4.407" style="fill:none;fill-rule:nonzero;stroke:#348ad8;stroke-width:3.54px;"/><path d="M1334.248,104.593c-0.39,0 -0.7,0.261 -0.93,0.784c-0.23,0.523 -0.313,1.625 -0.247,3.307c0.065,1.681 0.189,3.586 0.372,5.713c0.183,2.127 0.301,3.824 0.355,5.09c0.054,1.266 0.11,2.046 0.168,2.34c0.058,0.293 0.276,0.26 0.654,-0.099c0.378,-0.36 1.038,-0.95 1.979,-1.771c0.941,-0.822 2.085,-1.515 3.434,-2.08c1.348,-0.565 2.645,-0.848 3.889,-0.849c1.244,-0.001 2.227,0.432 2.949,1.298c0.722,0.866 1.13,1.999 1.225,3.397c0.095,1.399 -0.24,2.606 -1.003,3.623c-0.763,1.016 -1.962,1.678 -3.596,1.984c-2.382,0.447 -5.241,-0.217 -8.577,-1.993" style="fill:none;fill-rule:nonzero;stroke:#348ad8;stroke-width:3.54px;"/><path d="M1173.016,114.892c0.024,-0.318 0.104,-0.695 0.239,-1.133c0.135,-0.438 0.235,-0.808 0.299,-1.112c0.064,-0.304 0.07,-0.589 0.016,-0.854c-0.053,-0.265 -0.387,-0.524 -1.001,-0.776c-0.614,-0.252 -1.452,-0.482 -2.513,-0.69c-1.061,-0.208 -2.202,-0.24 -3.424,-0.096c-1.222,0.144 -2.375,0.692 -3.46,1.644c-1.085,0.953 -1.834,2.08 -2.247,3.381c-0.413,1.301 -0.284,2.506 0.385,3.613c0.67,1.108 1.8,1.882 3.391,2.324c1.591,0.442 3.099,0.574 4.523,0.395c1.423,-0.179 2.552,-0.785 3.386,-1.819c0.834,-1.034 1.366,-2.146 1.597,-3.336c0.231,-1.19 0.344,-2.097 0.339,-2.72c-0.005,-0.623 -0.043,-0.945 -0.112,-0.967c-0.07,-0.021 -0.106,0.439 -0.109,1.38c-0.003,0.941 0.115,2.196 0.355,3.764c0.24,1.568 0.649,3.093 1.227,4.572l0.433,1.11l-1.3,-3.33" style="fill:none;fill-rule:nonzero;stroke:#c2361a;stroke-width:3.54px;"/><path d="M1061.002,129.839c0.321,-0.104 0.642,-0.269 0.963,-0.495c0.321,-0.226 0.513,-0.429 0.577,-0.609c0.064,-0.18 0.079,-0.372 0.043,-0.575c-0.035,-0.203 -0.319,-0.353 -0.852,-0.45c-0.533,-0.097 -1.367,-0.033 -2.502,0.19c-1.135,0.224 -2.405,0.902 -3.808,2.035c-1.403,1.133 -2.699,2.484 -3.887,4.053c-1.188,1.569 -2.207,3.155 -3.057,4.758c-0.85,1.603 -1.703,3.093 -2.559,4.472c-0.855,1.378 -1.846,2.508 -2.971,3.39c-1.125,0.882 -2.247,1.523 -3.366,1.923c-1.119,0.4 -2.132,0.683 -3.04,0.85c-0.907,0.167 -1.778,0.307 -2.611,0.42c-0.834,0.114 -1.603,0.202 -2.308,0.265c-0.705,0.063 -1.275,0.095 -1.71,0.096c-0.434,0.001 -0.781,-0.15 -1.04,-0.455c-0.259,-0.305 -0.485,-0.813 -0.679,-1.523c-0.194,-0.71 -0.343,-1.44 -0.449,-2.191c-0.106,-0.75 -0.179,-1.505 -0.221,-2.263c-0.042,-0.758 0.007,-1.522 0.148,-2.291c0.14,-0.769 0.482,-1.491 1.027,-2.167c0.544,-0.676 1.17,-1.221 1.876,-1.636c0.706,-0.415 1.399,-0.708 2.079,-0.878c0.68,-0.17 1.353,-0.253 2.021,-0.247c0.668,0.006 1.394,0.119 2.179,0.341c0.785,0.222 1.565,0.548 2.338,0.977c0.774,0.43 1.452,0.959 2.035,1.588c0.583,0.629 1.119,1.366 1.607,2.211c0.488,0.845 1.014,1.727 1.577,2.648c0.563,0.92 1.22,1.812 1.972,2.675c0.752,0.863 1.528,1.691 2.329,2.484c0.801,0.793 1.606,1.565 2.415,2.316c0.809,0.75 1.657,1.433 2.544,2.047c0.887,0.614 1.883,1.137 2.988,1.569c1.105,0.432 2.264,0.758 3.478,0.979c1.851,0.337 3.433,0.375 4.746,0.114" style="fill:none;fill-rule:nonzero;stroke:#000;stroke-width:3.54px;"/><path d="M1094.542,119.175c0.008,-0.236 0.125,-0.53 0.35,-0.882c0.225,-0.352 0.313,-0.575 0.263,-0.67c-0.05,-0.095 -0.555,-0.125 -1.514,-0.092c-0.96,0.033 -2.369,0.384 -4.228,1.053c-1.859,0.669 -3.703,1.667 -5.53,2.994c-1.828,1.327 -3.183,2.693 -4.065,4.097c-0.882,1.404 -1.358,2.563 -1.429,3.475c-0.071,0.912 0.073,1.603 0.431,2.071c0.358,0.468 0.881,0.88 1.568,1.235c0.687,0.355 1.585,0.743 2.693,1.164c1.108,0.421 2.333,0.98 3.674,1.677c1.341,0.697 2.715,1.57 4.123,2.62c1.407,1.05 2.753,2.201 4.038,3.453c1.285,1.252 2.38,2.521 3.285,3.807c0.906,1.286 1.629,2.572 2.168,3.858c0.539,1.286 0.911,2.529 1.116,3.728c0.205,1.2 0.291,2.338 0.26,3.416c-0.032,1.078 -0.315,2.066 -0.85,2.965c-0.535,0.899 -1.431,1.735 -2.688,2.508c-1.257,0.773 -2.795,1.405 -4.614,1.895c-1.819,0.49 -3.767,0.782 -5.844,0.876c-2.077,0.094 -4.152,-0.069 -6.225,-0.489c-2.073,-0.42 -3.749,-1.142 -5.028,-2.168c-1.279,-1.025 -1.531,-1.813 -0.755,-2.362" style="fill:none;fill-rule:nonzero;stroke:#000;stroke-width:3.54px;"/><path d="M1120.062,151.531c-0.244,-0.374 -0.556,-0.77 -0.938,-1.19c-0.381,-0.419 -0.845,-0.728 -1.391,-0.928c-0.546,-0.199 -1.253,-0.241 -2.122,-0.125c-0.869,0.115 -1.796,0.624 -2.782,1.525c-0.986,0.901 -1.743,2.021 -2.271,3.359c-0.528,1.338 -0.682,2.567 -0.461,3.687c0.221,1.12 0.911,1.886 2.07,2.299c1.159,0.413 2.333,0.491 3.525,0.234c1.191,-0.257 2.243,-0.848 3.155,-1.774c0.913,-0.926 1.605,-1.742 2.079,-2.448c0.473,-0.706 0.766,-1.093 0.878,-1.161c0.112,-0.068 0.244,0.381 0.397,1.347c0.153,0.966 0.553,2.125 1.201,3.479c0.648,1.354 1.312,2.373 1.991,3.059l0.51,0.514l-1.529,-1.543" style="fill:none;fill-rule:nonzero;stroke:#000;stroke-width:3.54px;"/><path d="M1127.619,136.567c-0.179,-0.861 -0.068,-1.497 0.334,-1.908c0.277,-0.285 0.601,0.415 0.972,2.097c0.37,1.683 0.677,3.876 0.919,6.581c0.243,2.705 0.593,5.307 1.051,7.808c0.458,2.501 0.945,4.402 1.463,5.703c0.518,1.301 1.014,1.957 1.489,1.968c0.475,0.011 1.009,-0.428 1.602,-1.315c0.593,-0.888 1.266,-1.642 2.019,-2.263c0.753,-0.621 1.569,-0.923 2.447,-0.905c0.878,0.018 1.749,0.485 2.61,1.402c0.862,0.917 1.595,2.084 2.199,3.502c0.605,1.418 0.861,2.675 0.769,3.77c-0.092,1.095 -0.76,1.891 -2.003,2.387c-1.244,0.497 -2.714,0.786 -4.41,0.869c-2.519,0.123 -4.76,-0.509 -6.724,-1.895" style="fill:none;fill-rule:nonzero;stroke:#000;stroke-width:3.54px;"/><path d="M258.58,136.128c-0.331,-0.145 -0.668,-0.316 -1.011,-0.511c-0.343,-0.195 -0.606,-0.369 -0.79,-0.521c-0.183,-0.152 -0.38,-0.328 -0.591,-0.528c-0.21,-0.2 -0.513,-0.364 -0.909,-0.491c-0.395,-0.127 -0.976,-0.165 -1.741,-0.114c-0.765,0.051 -1.7,0.452 -2.805,1.203c-1.105,0.75 -2.167,1.742 -3.187,2.975c-1.02,1.233 -1.958,2.552 -2.813,3.957c-0.855,1.405 -1.683,2.682 -2.485,3.831c-0.801,1.149 -1.573,2.028 -2.316,2.637c-0.743,0.609 -1.406,0.966 -1.99,1.073c-0.584,0.106 -1.134,0.122 -1.65,0.048c-0.516,-0.075 -1.081,-0.276 -1.695,-0.604c-0.614,-0.328 -1.174,-0.639 -1.678,-0.935c-0.505,-0.295 -0.888,-0.675 -1.149,-1.142c-0.261,-0.466 -0.416,-1.127 -0.463,-1.982c-0.048,-0.855 -0.01,-1.799 0.113,-2.832c0.123,-1.032 0.393,-1.968 0.81,-2.809c0.417,-0.84 0.839,-1.481 1.265,-1.923c0.426,-0.442 0.895,-0.681 1.405,-0.715c0.51,-0.035 1.165,0.205 1.965,0.72c0.8,0.515 1.689,1.118 2.666,1.807c0.978,0.689 1.92,1.363 2.828,2.021c0.908,0.658 1.704,1.345 2.39,2.061c0.685,0.716 1.328,1.459 1.927,2.229c0.599,0.77 1.217,1.468 1.853,2.091c0.637,0.623 1.274,1.228 1.912,1.815c0.638,0.587 1.323,1.165 2.056,1.735c0.733,0.57 1.576,1.042 2.53,1.415c0.954,0.373 2.034,0.625 3.239,0.755c1.205,0.129 2.495,0.182 3.87,0.157c1.375,-0.025 2.485,-0.105 3.332,-0.24l0.635,-0.101l-1.906,0.304" style="fill:none;fill-rule:nonzero;stroke:#000;stroke-width:3.54px;"/><path d="M287.29,142.964c-0.459,0.269 -0.966,0.819 -1.523,1.65c-0.557,0.83 -0.897,1.964 -1.021,3.4c-0.124,1.437 0.023,2.928 0.44,4.475c0.417,1.547 1.207,2.659 2.369,3.337c1.162,0.678 2.557,0.781 4.184,0.31c1.628,-0.471 3.217,-1.567 4.768,-3.288c1.551,-1.721 2.718,-3.877 3.502,-6.469c0.784,-2.591 1.145,-5.622 1.083,-9.09c-0.062,-3.469 -0.497,-6.479 -1.305,-9.031c-0.808,-2.552 -1.669,-4.303 -2.583,-5.254c-0.914,-0.951 -1.715,-1.507 -2.404,-1.669c-0.689,-0.162 -1.273,-0.049 -1.753,0.339c-0.48,0.388 -1.011,1.205 -1.594,2.452c-0.583,1.246 -1.14,2.793 -1.672,4.64c-0.532,1.847 -0.92,3.738 -1.165,5.673c-0.245,1.935 -0.243,3.75 0.005,5.447c0.248,1.696 0.973,3.045 2.175,4.046c1.202,1.001 2.734,1.635 4.598,1.901c2.78,0.397 5.546,0.213 8.298,-0.552" style="fill:none;fill-rule:nonzero;stroke:#000;stroke-width:3.54px;"/><path d="M319.19,155.633c-0.098,-0.531 -0.299,-1.111 -0.602,-1.738c-0.303,-0.628 -0.689,-1.127 -1.157,-1.498c-0.468,-0.371 -1.076,-0.576 -1.822,-0.615c-0.746,-0.038 -1.643,0.446 -2.691,1.454c-1.048,1.007 -1.869,2.29 -2.463,3.847c-0.594,1.557 -0.757,2.822 -0.489,3.793c0.268,0.972 1.009,1.494 2.221,1.568c1.213,0.074 2.299,-0.242 3.259,-0.949c0.96,-0.707 1.657,-1.419 2.09,-2.137c0.433,-0.718 0.705,-1.198 0.816,-1.44c0.11,-0.242 0.257,-0.14 0.439,0.305c0.182,0.445 0.627,1.173 1.335,2.183c1.043,1.489 2.475,3.174 4.297,5.054" style="fill:none;fill-rule:nonzero;stroke:#000;stroke-width:3.54px;"/><path d="M70.735,130.568c0.314,-0.028 0.777,-0.181 1.389,-0.458c0.612,-0.278 1.412,-0.679 2.399,-1.204c0.987,-0.525 2.449,-1.26 4.386,-2.207c1.937,-0.946 4.2,-2.015 6.789,-3.206c2.589,-1.191 5.076,-2.231 7.46,-3.119c2.385,-0.888 4.551,-1.529 6.499,-1.922c1.948,-0.393 3.926,-0.614 5.933,-0.663c2.007,-0.049 4.107,-0.055 6.3,-0.018c2.193,0.037 4.331,0.145 6.416,0.322c2.085,0.178 3.966,0.378 5.645,0.6c1.679,0.223 3.228,0.455 4.648,0.696c1.42,0.241 2.869,0.536 4.348,0.885c1.479,0.349 2.813,0.818 4.001,1.406c1.188,0.589 2.271,1.265 3.248,2.03c0.977,0.765 2.008,1.538 3.092,2.317c1.084,0.78 2.269,1.575 3.553,2.385c1.284,0.81 2.439,1.533 3.463,2.17c1.025,0.637 1.898,1.148 2.619,1.532c0.721,0.385 1.241,0.632 1.561,0.743c0.32,0.11 0.493,0.162 0.519,0.154c0.027,-0.008 -0.007,-0.256 -0.101,-0.746c-0.094,-0.489 -0.286,-1.248 -0.577,-2.277c-0.291,-1.029 -0.564,-2.14 -0.818,-3.333c-0.254,-1.193 -0.513,-2.278 -0.775,-3.253c-0.262,-0.975 -0.501,-1.705 -0.717,-2.19c-0.216,-0.485 -0.382,-0.765 -0.498,-0.84c-0.116,-0.075 -0.175,0.2 -0.179,0.828c-0.004,0.627 0.168,1.488 0.514,2.583c0.346,1.095 0.831,2.225 1.455,3.389c0.624,1.164 1.236,2.228 1.837,3.192c0.6,0.964 1.055,1.765 1.363,2.403c0.308,0.638 0.349,1.168 0.123,1.59c-0.226,0.422 -1.037,0.815 -2.434,1.18c-2.07,0.541 -4.433,1.111 -7.09,1.711" style="fill:none;fill-rule:nonzero;stroke:#348ad8;stroke-width:3.54px;"/><path d="M164.065,166.296c-0.314,0 -0.902,0.195 -1.764,0.584c-0.863,0.39 -1.994,1.146 -3.395,2.269c-1.401,1.123 -3.128,2.337 -5.183,3.642c-2.055,1.305 -4.269,2.52 -6.642,3.646c-2.373,1.126 -4.688,2.06 -6.944,2.803c-2.256,0.743 -4.478,1.351 -6.665,1.824c-2.188,0.473 -4.295,0.913 -6.322,1.32c-2.027,0.407 -3.823,0.712 -5.387,0.913c-1.564,0.201 -3.09,0.32 -4.577,0.355c-1.487,0.035 -3.018,0.053 -4.595,0.053c-1.576,0 -3.136,-0.033 -4.68,-0.098c-1.543,-0.066 -3.035,-0.266 -4.476,-0.6c-1.441,-0.334 -2.832,-0.748 -4.174,-1.24c-1.342,-0.493 -2.613,-1.026 -3.813,-1.601c-1.2,-0.575 -2.352,-1.127 -3.459,-1.656c-1.106,-0.529 -2.236,-1.07 -3.388,-1.624c-1.152,-0.554 -2.248,-1.149 -3.288,-1.786c-1.039,-0.637 -1.964,-1.269 -2.774,-1.898c-0.81,-0.629 -1.464,-1.228 -1.963,-1.797c-0.498,-0.569 -0.867,-1.06 -1.106,-1.473c-0.239,-0.413 -0.422,-0.734 -0.549,-0.963c-0.127,-0.23 -0.202,-0.382 -0.224,-0.458c-0.023,-0.076 -0.034,-0.114 -0.034,-0.115l-0,0l-0,0.025c0,0.018 0.019,0.263 0.056,0.734c0.037,0.471 0.15,1.269 0.338,2.392c0.188,1.124 0.393,2.373 0.616,3.747c0.223,1.374 0.412,2.602 0.567,3.684c0.155,1.082 0.265,1.857 0.329,2.325c0.064,0.468 0.083,0.686 0.057,0.653c-0.026,-0.033 -0.305,-0.468 -0.837,-1.307c-0.532,-0.838 -1.231,-1.83 -2.099,-2.974c-0.868,-1.144 -1.636,-2.158 -2.305,-3.041c-0.669,-0.883 -1.134,-1.647 -1.393,-2.292c-0.26,-0.645 -0.336,-1.208 -0.229,-1.69c0.107,-0.482 0.534,-0.897 1.279,-1.246c0.746,-0.349 1.738,-0.623 2.976,-0.822c1.238,-0.199 2.7,-0.311 4.388,-0.336c1.688,-0.025 3.361,-0.038 5.02,-0.038c2.52,0 4.213,0.505 5.076,1.515" style="fill:none;fill-rule:nonzero;stroke:#348ad8;stroke-width:3.54px;"/><path d="M143.674,18.21l0,2.378c0,1.562 -0.033,3.558 -0.098,5.988c-0.066,2.43 -0.267,4.945 -0.603,7.545c-0.336,2.6 -0.591,4.762 -0.763,6.486c-0.173,1.724 -0.205,2.863 -0.097,3.418c0.109,0.555 0.688,0.848 1.739,0.88c1.051,0.032 2.594,-0.131 4.632,-0.49c2.037,-0.359 4.128,-0.729 6.273,-1.11c2.145,-0.381 3.77,-0.631 4.877,-0.75c1.106,-0.119 1.451,-0.29 1.033,-0.512" style="fill:none;fill-rule:nonzero;stroke:#000;stroke-width:3.54px;"/><path d="M144.95,32.977c-0.066,-0.161 1.078,-0.47 3.431,-0.927c3.555,-0.69 6.659,-1.777 9.313,-3.262" style="fill:none;fill-rule:nonzero;stroke:#000;stroke-width:3.54px;"/><path d="M145.482,16.687c-0.538,-0.576 -0.414,-1.38 0.372,-2.413c0.547,-0.718 1.869,-0.994 3.968,-0.828c2.099,0.167 4.649,0.705 7.652,1.614c4.636,1.404 8.308,2.828 11.015,4.27" style="fill:none;fill-rule:nonzero;stroke:#000;stroke-width:3.54px;"/><path d="M173.754,31.792c0.05,-0.18 0.945,0.544 2.685,2.175c1.74,1.63 3.429,3.257 5.068,4.881c1.639,1.624 3.13,3.019 4.475,4.184c1.344,1.165 2.275,1.973 2.792,2.424l0.388,0.338l-1.164,-1.014" style="fill:none;fill-rule:nonzero;stroke:#000;stroke-width:3.54px;"/><path d="M186.606,30.971c-0.659,0 -1.555,0.122 -2.691,0.365c-1.135,0.243 -2.441,1.063 -3.917,2.458c-1.476,1.395 -2.885,2.979 -4.227,4.753c-1.343,1.774 -2.235,3.078 -2.676,3.911l-0.331,0.625l0.994,-1.875" style="fill:none;fill-rule:nonzero;stroke:#000;stroke-width:3.54px;"/><path d="M206.659,33.615c-0.054,-0.155 -0.623,-0.326 -1.709,-0.513c-1.085,-0.187 -2.192,0.045 -3.32,0.696c-1.128,0.651 -1.96,1.668 -2.496,3.05c-0.536,1.383 -0.385,2.704 0.452,3.963c1.203,1.809 4.137,2.706 8.802,2.691" style="fill:none;fill-rule:nonzero;stroke:#000;stroke-width:3.54px;"/><path d="M216.868,14.564c-0.04,0.393 -0.018,2.041 0.064,4.943c0.082,2.903 0.366,6.359 0.851,10.37c0.485,4.011 0.915,7.179 1.288,9.505c0.373,2.326 0.62,3.62 0.739,3.882c0.12,0.262 0.195,0.307 0.226,0.135c0.031,-0.173 0.109,-0.603 0.234,-1.293c0.125,-0.689 0.466,-1.792 1.025,-3.308c0.558,-1.516 1.304,-2.854 2.236,-4.015c0.932,-1.161 1.881,-1.828 2.846,-1.999c0.965,-0.172 1.861,0.369 2.687,1.622c0.826,1.253 1.595,2.708 2.306,4.363c0.712,1.655 1.433,3.048 2.166,4.178c0.733,1.129 1.284,1.454 1.654,0.974" style="fill:none;fill-rule:nonzero;stroke:#000;stroke-width:3.54px;"/><path d="M257.521,35.438c-0.343,-0.129 -0.78,-0.313 -1.308,-0.554c-0.528,-0.241 -1.118,-0.502 -1.768,-0.784c-0.65,-0.282 -1.426,-0.493 -2.328,-0.633c-0.901,-0.139 -1.873,0.026 -2.916,0.497c-1.043,0.471 -1.87,1.509 -2.481,3.115c-0.611,1.606 -0.818,3.251 -0.621,4.936c0.198,1.685 0.953,2.815 2.266,3.389c1.313,0.575 2.639,0.545 3.977,-0.087c1.338,-0.633 2.403,-1.69 3.197,-3.17c0.793,-1.48 1.32,-2.823 1.583,-4.027c0.262,-1.205 0.439,-1.686 0.531,-1.444c0.092,0.242 0.322,0.847 0.69,1.814c0.368,0.968 1.226,2.014 2.572,3.14c1.984,1.658 4.278,2.346 6.884,2.063" style="fill:none;fill-rule:nonzero;stroke:#000;stroke-width:3.54px;"/><path d="M269.735,32.339c0.142,0.156 0.628,1.119 1.459,2.89c0.831,1.77 1.638,3.473 2.422,5.106c0.784,1.633 1.376,2.813 1.778,3.54c0.402,0.727 0.661,1.002 0.779,0.824c0.117,-0.177 0.288,-1.002 0.513,-2.475c0.225,-1.473 0.643,-3.128 1.255,-4.967c0.612,-1.839 1.385,-3.244 2.317,-4.216c0.933,-0.972 1.886,-1.393 2.86,-1.263c0.974,0.13 1.908,0.884 2.803,2.264c0.895,1.38 1.725,2.794 2.49,4.243c0.765,1.449 1.443,2.582 2.035,3.399c0.591,0.817 0.996,1.296 1.215,1.437c0.31,0.2 1.192,-0.499 2.647,-2.098" style="fill:none;fill-rule:nonzero;stroke:#000;stroke-width:3.54px;"/><path d="M311.847,35.894c0,-0.46 -0.052,-0.967 -0.156,-1.52c-0.104,-0.553 -0.405,-1.029 -0.904,-1.429c-0.499,-0.399 -1.333,-0.66 -2.502,-0.783c-1.169,-0.123 -2.507,0.115 -4.012,0.713c-1.506,0.598 -2.687,1.633 -3.543,3.104c-0.856,1.471 -1.156,2.766 -0.898,3.886c0.257,1.12 1.159,1.777 2.705,1.973c1.546,0.196 2.959,-0.04 4.239,-0.708c1.279,-0.668 2.244,-1.62 2.895,-2.857c0.65,-1.237 1.078,-2.225 1.281,-2.966c0.204,-0.741 0.332,-1.055 0.385,-0.943c0.053,0.113 0.185,0.394 0.396,0.845c0.211,0.45 0.563,1.857 1.055,4.218c0.492,2.362 0.973,5.015 1.44,7.958c0.468,2.943 0.805,5.528 1.01,7.755c0.206,2.227 -0.015,3.805 -0.661,4.733c-0.646,0.929 -1.691,1.411 -3.134,1.448c-2.075,0.053 -4.108,-1.549 -6.1,-4.803" style="fill:none;fill-rule:nonzero;stroke:#000;stroke-width:3.54px;"/><path d="M320.871,37.716c0.061,0.099 1.18,0.211 3.359,0.334c2.178,0.123 4.378,-0.045 6.597,-0.505c2.22,-0.46 4.039,-1.218 5.458,-2.274c1.419,-1.056 2.226,-2.198 2.421,-3.424c0.195,-1.227 -0.092,-2.164 -0.861,-2.813c-0.769,-0.649 -1.761,-0.958 -2.976,-0.929c-1.215,0.029 -2.5,0.492 -3.856,1.388c-1.355,0.896 -2.464,2.245 -3.324,4.048c-0.86,1.803 -1.03,3.71 -0.51,5.721c0.521,2.012 2.095,3.528 4.725,4.55c2.629,1.022 5.379,1.574 8.251,1.656c2.872,0.083 4.708,0.106 5.509,0.07l0.601,-0.027l-1.803,0.081" style="fill:none;fill-rule:nonzero;stroke:#000;stroke-width:3.54px;"/><path d="M150.237,53.577c-0.689,0.098 -1.5,0.28 -2.432,0.546c-0.933,0.266 -1.674,0.478 -2.225,0.635c-0.551,0.158 -0.923,0.243 -1.117,0.257c-0.194,0.014 -0.298,0.02 -0.312,0.02l-0.021,0c0,0 0.099,0.082 0.298,0.245c0.199,0.163 0.829,0.353 1.89,0.567c1.061,0.215 3.036,0.36 5.925,0.437c2.889,0.076 6.97,0.115 12.245,0.116c5.274,0.001 10.814,0.002 16.62,0.002c5.806,0 11.372,-0.023 16.698,-0.07c5.326,-0.047 10.682,-0.204 16.068,-0.471c5.385,-0.268 10.73,-0.442 16.032,-0.522c5.302,-0.081 10.39,-0.103 15.263,-0.064c4.873,0.038 9.517,0.055 13.931,0.05c4.415,-0.005 8.749,-0.188 13.003,-0.549c4.254,-0.361 8.317,-0.76 12.188,-1.198c3.871,-0.437 7.553,-0.767 11.045,-0.99c3.493,-0.223 6.652,-0.328 9.48,-0.315c2.827,0.012 5.573,0.132 8.236,0.359c2.663,0.227 5.328,0.424 7.996,0.59c2.668,0.167 5.154,0.272 7.46,0.316c2.305,0.044 4.326,0.11 6.062,0.198c1.736,0.088 3.098,0.207 4.087,0.358c0.988,0.151 1.695,0.273 2.119,0.368c0.424,0.094 0.677,0.153 0.757,0.175c0.11,0.031 0.049,0.058 -0.184,0.081" style="fill:none;fill-rule:nonzero;stroke:#000;stroke-width:3.54px;"/><path d="M957.103,42.183c-0.173,-0.067 -0.236,-0.643 -0.188,-1.728c0.048,-1.085 0.228,-2.668 0.54,-4.748c0.312,-2.08 0.586,-4.513 0.821,-7.3c0.235,-2.786 0.431,-5.117 0.586,-6.992c0.155,-1.875 0.25,-3.043 0.285,-3.503c0.035,-0.46 0.057,-0.527 0.066,-0.201c0.009,0.327 0.101,1.079 0.274,2.256c0.174,1.178 0.517,2.528 1.029,4.052c0.512,1.524 1.245,2.936 2.2,4.236c0.954,1.3 2.21,2.235 3.768,2.805c1.557,0.57 3.28,0.595 5.168,0.074c1.888,-0.521 3.674,-1.64 5.359,-3.358c1.685,-1.718 3.053,-3.541 4.103,-5.468c1.051,-1.928 1.74,-3.469 2.069,-4.625c0.329,-1.156 0.496,-1.799 0.501,-1.929c0.005,-0.131 -0.055,0.06 -0.183,0.572c-0.127,0.512 -0.228,1.315 -0.303,2.407c-0.075,1.093 -0.095,2.537 -0.059,4.333c0.036,1.796 0.2,3.948 0.493,6.457c0.293,2.509 0.713,4.868 1.26,7.075c0.547,2.208 1.273,3.718 2.18,4.53c0.906,0.812 1.543,0.801 1.912,-0.032" style="fill:none;fill-rule:nonzero;stroke:#000;stroke-width:3.54px;"/><path d="M999.032,32.43c-0.419,0.037 -0.781,0.441 -1.085,1.213c-0.304,0.772 -0.335,1.807 -0.093,3.105c0.243,1.298 0.839,2.372 1.788,3.22c0.949,0.848 2.01,1.269 3.183,1.262c1.173,-0.007 2.284,-0.612 3.334,-1.814c1.05,-1.202 1.932,-2.504 2.648,-3.904c0.715,-1.4 1.182,-2.361 1.401,-2.883c0.219,-0.522 0.34,-0.377 0.364,0.434c0.024,0.812 0.134,2.087 0.331,3.826c0.197,1.739 0.826,3.323 1.886,4.75c1.06,1.427 2.419,2.384 4.075,2.869c1.657,0.486 2.774,0.722 3.351,0.71c0.82,-0.018 1.75,-1.79 2.79,-5.317" style="fill:none;fill-rule:nonzero;stroke:#000;stroke-width:3.54px;"/><path d="M1026.213,19.212c-0.036,-0.473 -0.018,-0.97 0.052,-1.491c0.047,-0.346 0.255,0.225 0.625,1.711c0.37,1.486 0.886,3.829 1.546,7.028c0.66,3.199 1.389,6.327 2.187,9.384c0.798,3.057 1.496,5.263 2.095,6.618c0.6,1.355 0.871,1.779 0.814,1.272" style="fill:none;fill-rule:nonzero;stroke:#000;stroke-width:3.54px;"/><path d="M1026.924,32.065c0.112,-0.487 0.488,-1.008 1.129,-1.561c0.641,-0.553 1.67,-0.868 3.089,-0.942c1.419,-0.075 3.129,0.038 5.13,0.336c3.058,0.456 5.727,0.802 8.005,1.038" style="fill:none;fill-rule:nonzero;stroke:#000;stroke-width:3.54px;"/><path d="M1047.524,33.068c-0.152,0.1 -0.219,0.675 -0.202,1.725c0.017,1.05 0.358,2.246 1.024,3.586c0.666,1.341 1.487,2.518 2.462,3.533c0.975,1.015 2.004,1.629 3.085,1.841c1.081,0.213 2.078,-0.161 2.992,-1.122c0.913,-0.961 1.563,-2.332 1.948,-4.113c0.386,-1.781 0.594,-3.238 0.623,-4.37c0.03,-1.132 -0.025,-1.779 -0.164,-1.943c-0.139,-0.164 -0.195,-0.16 -0.168,0.01c0.027,0.171 0.094,0.597 0.2,1.279c0.107,0.683 0.623,1.636 1.547,2.86c0.924,1.224 1.973,2.3 3.145,3.227c1.747,1.382 3.622,2.093 5.623,2.135" style="fill:none;fill-rule:nonzero;stroke:#000;stroke-width:3.54px;"/><path d="M1087.448,35.438c-0.022,-0.382 -0.138,-0.839 -0.35,-1.372c-0.211,-0.533 -0.603,-0.993 -1.174,-1.381c-0.572,-0.388 -1.342,-0.648 -2.311,-0.781c-0.969,-0.133 -1.992,0.115 -3.069,0.742c-1.077,0.627 -1.814,1.672 -2.212,3.134c-0.398,1.462 -0.187,2.796 0.632,4.001c0.819,1.205 2.008,1.981 3.568,2.328c1.56,0.347 3.016,0.289 4.368,-0.174c1.352,-0.463 2.361,-1.274 3.027,-2.433c0.666,-1.159 1.072,-2.205 1.218,-3.137c0.146,-0.933 0.215,-1.465 0.207,-1.598l-0.001,-0.024l0.11,1.241c0.08,0.944 0.556,2 1.427,3.17c0.872,1.17 1.912,2.12 3.121,2.849c1.209,0.729 2.021,1.162 2.435,1.3c0.595,0.198 1.229,-0.072 1.903,-0.81" style="fill:none;fill-rule:nonzero;stroke:#000;stroke-width:3.54px;"/><path d="M1112.697,14.655c0.063,-0.16 0.352,0.625 0.866,2.355c0.515,1.73 1.09,4.152 1.727,7.267c0.636,3.115 1.196,6.245 1.68,9.391c0.484,3.145 0.833,5.532 1.046,7.159l0.16,1.22l-0.481,-3.661" style="fill:none;fill-rule:nonzero;stroke:#000;stroke-width:3.54px;"/><path d="M967.494,57.041c-0.113,-0.285 0.03,-0.603 0.43,-0.951c0.399,-0.349 1.007,-0.55 1.824,-0.605c0.817,-0.054 2.005,-0.082 3.566,-0.083c1.56,-0.001 4.191,-0.03 7.893,-0.087c3.702,-0.057 8.753,-0.18 15.155,-0.371c6.402,-0.191 13.336,-0.267 20.804,-0.228c7.468,0.039 15.042,0.217 22.722,0.536c7.68,0.319 15.037,0.544 22.071,0.675c7.034,0.132 13.11,0.136 18.228,0.015c5.118,-0.122 9.353,-0.271 12.706,-0.449c3.353,-0.178 5.955,-0.268 7.809,-0.271c1.853,-0.003 3.34,0.044 4.461,0.14c1.121,0.096 2.101,0.181 2.942,0.256c0.84,0.075 1.457,0.118 1.849,0.13l0.294,0.008l-0.882,-0.026" style="fill:none;fill-rule:nonzero;stroke:#000;stroke-width:3.54px;"/><g transform="matrix(1,0,0,1,691.05415,-301.810599)"><g transform="matrix(1.800361,0,0,1,-211.309092,0)"><text x="264.017px" y="341.873px" style="font-family:'Helvetica';font-size:28.797px;fill:none;">M<tspan x="289.646px 307.302px 316.943px 334.599px 352.254px " y="341.873px 341.873px 341.873px 341.873px 341.873px ">utual</tspan></text></g><g transform="matrix(57.837628,0,0,1,-15601.83498,0)"><g transform="matrix(4.965896,0,0,4.965896,276.152032,359.422581)"></g><text x="274.498px" y="359.423px" style="font-family:'Helvetica';font-size:4.966px;fill:none;">-</text></g></g><g transform="matrix(1,0,0,1,-14.603158,-225.172779)"><g transform="matrix(2.467751,0,0,1,-60.438967,0)"><text x="41.178px" y="354.574px" style="font-family:'Helvetica';font-size:16.712px;fill:none;">a</text></g><g transform="matrix(7.361491,0,0,1,-531.587585,0)"><g transform="matrix(38.847458,0,0,38.847458,96.499874,373.283828)"></g><text x="83.563px" y="373.284px" style="font-family:'Helvetica';font-size:38.847px;fill:none;">-</text></g></g><g transform="matrix(1,0,0,1,139.59435,-234.385164)"><g transform="matrix(1.330434,0,0,1,-393.747853,0)"><text x="1191.606px" y="358.708px" style="font-family:'Helvetica';font-size:22.583px;fill:none;">b</text></g><g transform="matrix(5.170447,0,0,1,-916.51748,0)"><text x="219.765px" y="383.032px" style="font-family:'Helvetica';font-size:37.599px;fill:none;">%</text></g><g transform="matrix(1.639366,0,0,1,-57.461049,0)"><g transform="matrix(40.147027,0,0,40.147027,152.92125,391.933599)"></g><text x="89.872px" y="391.934px" style="font-family:'Helvetica';font-size:40.147px;fill:none;">-<tspan x="106.881px 130.593px " y="391.934px 391.934px ">Ja</tspan></text></g></g><g transform="matrix(1,0,0,0.849984,0,-31.61401)"><g transform="matrix(25.939676,0,0,25.939676,65.022237,220.67024)"></g><text x="42.584px" y="220.67px" style="font-family:'AppleSDGothicNeo-Regular', 'Apple SD Gothic Neo';font-size:25.94px;fill:none;">⑨</text></g><g transform="matrix(1,0,0,1,556.17505,-238.036741)"><g transform="matrix(2.953474,0,0,1,-432.545449,0)"><text x="221.424px" y="421.153px" style="font-family:'Menlo-Regular', 'Menlo', monospace;font-size:104.624px;fill:none;">ᶖ</text></g><g transform="matrix(1.205607,0,0,1,-106.222731,0)"><text x="516.631px" y="394.132px" style="font-family:'Helvetica';font-size:50.257px;fill:none;">S<tspan x="549.944px 577.687px 605.429px " y="394.132px 394.132px 394.132px ">ab&quot;</tspan></text></g><g transform="matrix(1.242843,0,0,1,-182.591913,0)"><g transform="matrix(22.49468,0,0,22.49468,771.350348,391.815431)"></g><text x="751.892px" y="391.815px" style="font-family:'AppleSDGothicNeo-Regular', 'Apple SD Gothic Neo';font-size:22.495px;fill:none;">⑨</text></g></g><g transform="matrix(1,0,0,0.137976,0,-162.39465)"><g transform="matrix(127.24636,0,0,127.24636,156.703495,2490.552713)"></g><text x="71.831px" y="2490.553px" style="font-family:'Helvetica';font-size:127.246px;fill:none;">&amp;</text></g></g></svg>