<?xml version="1.0" encoding="UTF-8" standalone="no"?><!DOCTYPE svg PUBLIC "-//W3C//DTD SVG 1.1//EN" "http://www.w3.org/Graphics/SVG/1.1/DTD/svg11.dtd"><svg width="100%" height="100%" viewBox="0 0 271 45" version="1.1" xmlns="http://www.w3.org/2000/svg" xmlns:xlink="http://www.w3.org/1999/xlink" xml:space="preserve" xmlns:serif="http://www.serif.com/" style="fill-rule:evenodd;clip-rule:evenodd;stroke-linecap:round;stroke-linejoin:round;stroke-miterlimit:10;"><rect x="0" y="0" width="271" height="45" style="fill:#fff;"/><path d="M32.567,4.974c-0.039,-0.047 -0.067,0.081 -0.084,0.383c-0.017,0.302 -0.025,0.567 -0.025,0.795l0,0.73c0,0.259 -0.005,0.523 -0.013,0.793c-0.009,0.27 -0.027,0.546 -0.053,0.83c-0.027,0.284 -0.044,0.576 -0.052,0.877c-0.008,0.301 -0.012,0.592 -0.012,0.873c0,0.281 0.007,0.532 0.02,0.754c0.014,0.221 0.045,0.408 0.096,0.561c0.05,0.152 0.095,0.307 0.134,0.464c0.039,0.157 0.08,0.329 0.121,0.515c0.041,0.186 0.084,0.372 0.127,0.557c0.044,0.185 0.077,0.381 0.1,0.588c0.023,0.207 0.034,0.451 0.032,0.73c-0.002,0.279 -0.019,0.559 -0.052,0.84c-0.033,0.281 -0.064,0.54 -0.094,0.777c-0.03,0.237 -0.051,0.477 -0.064,0.719c-0.013,0.242 -0.02,0.497 -0.023,0.763c-0.003,0.267 -0.008,0.525 -0.015,0.774c-0.007,0.249 -0.014,0.499 -0.021,0.751c-0.007,0.252 -0.017,0.516 -0.029,0.793c-0.012,0.276 -0.024,0.564 -0.036,0.861c-0.012,0.298 -0.031,0.598 -0.057,0.899c-0.026,0.302 -0.058,0.595 -0.097,0.88c-0.039,0.285 -0.077,0.558 -0.113,0.819c-0.036,0.261 -0.064,0.51 -0.082,0.747c-0.018,0.237 -0.032,0.473 -0.042,0.708c-0.01,0.235 -0.022,0.487 -0.036,0.755c-0.014,0.269 -0.031,0.541 -0.051,0.815c-0.02,0.275 -0.031,0.54 -0.034,0.796c-0.003,0.256 -0.005,0.501 -0.005,0.735l0,3.88c0,0.16 0.002,0.317 0.007,0.471c0.005,0.153 0.012,0.309 0.022,0.467c0.01,0.158 0.018,0.299 0.026,0.422c0.007,0.123 0.014,0.22 0.021,0.29l0.004,0.044l-0.02,-0.229" style="fill:none;fill-rule:nonzero;stroke:#000;stroke-width:0.85px;"/><path d="M23.511,12.324c0.027,-0.145 0.077,-0.285 0.151,-0.422c0.074,-0.136 0.139,-0.212 0.195,-0.227c0.056,-0.015 0.124,0.014 0.203,0.088c0.079,0.074 0.202,0.152 0.37,0.234c0.168,0.082 0.412,0.131 0.732,0.148c0.32,0.017 0.722,0.025 1.207,0.025c0.485,0 1.017,-0.01 1.595,-0.031c0.579,-0.021 1.146,-0.039 1.704,-0.055c0.557,-0.016 1.044,-0.024 1.46,-0.024l2.061,0c0.306,0 0.63,-0.005 0.97,-0.014c0.341,-0.009 0.71,-0.038 1.109,-0.088c0.399,-0.049 0.843,-0.128 1.334,-0.235c0.491,-0.107 0.96,-0.203 1.408,-0.289c0.448,-0.085 0.828,-0.134 1.14,-0.145c0.312,-0.012 0.579,-0.007 0.802,0.013c0.223,0.021 0.457,0.041 0.703,0.061c0.246,0.02 0.527,0.032 0.843,0.035c0.316,0.003 0.654,0.001 1.015,-0.006c0.361,-0.007 0.725,-0.021 1.092,-0.043c0.367,-0.022 0.749,-0.043 1.146,-0.065c0.397,-0.022 0.8,-0.039 1.208,-0.052c0.408,-0.013 0.809,-0.027 1.201,-0.044c0.392,-0.017 0.765,-0.029 1.119,-0.037c0.354,-0.008 0.679,-0.012 0.975,-0.012l0.857,0c0.275,0 0.547,-0.006 0.817,-0.017c0.27,-0.011 0.531,-0.027 0.782,-0.047c0.251,-0.02 0.477,-0.032 0.679,-0.038c0.201,-0.005 0.387,-0.008 0.558,-0.008l1.737,0l-0.339,0" style="fill:none;fill-rule:nonzero;stroke:#000;stroke-width:0.85px;"/><path d="M24.255,27.964c-0.041,-0.024 -0.02,-0.033 0.065,-0.025c0.085,0.008 0.296,0.027 0.635,0.058c0.338,0.031 0.866,0.048 1.581,0.051c0.716,0.003 1.454,0.004 2.215,0.004l2.089,0c0.631,0 1.241,-0.001 1.83,-0.003c0.588,-0.002 1.164,-0.013 1.728,-0.032c0.563,-0.019 1.085,-0.032 1.565,-0.04c0.48,-0.008 0.931,-0.012 1.352,-0.012c0.422,0 0.837,0.009 1.246,0.027c0.409,0.019 0.825,0.033 1.249,0.044c0.424,0.011 0.85,0.016 1.276,0.016c0.426,0 0.821,0.001 1.182,0.003c0.362,0.002 0.723,0.008 1.084,0.018c0.361,0.01 0.74,0.016 1.135,0.019c0.395,0.003 0.776,0.004 1.143,0.004c0.366,0 0.705,-0.007 1.015,-0.021c0.311,-0.014 0.613,-0.027 0.907,-0.04c0.294,-0.013 0.611,-0.024 0.952,-0.033c0.341,-0.01 0.674,-0.015 0.999,-0.015c0.325,0 0.626,0.006 0.905,0.02c0.278,0.014 0.554,0.031 0.826,0.05c0.272,0.02 0.533,0.035 0.783,0.045c0.25,0.01 0.465,0.015 0.644,0.015l1.132,0c0.05,0 0.043,0.006 -0.022,0.018" style="fill:none;fill-rule:nonzero;stroke:#000;stroke-width:0.85px;"/><path d="M48.47,4.734l0,-0.23l0,0.059c0,0.075 -0.003,0.259 -0.01,0.552c-0.007,0.293 -0.024,0.588 -0.053,0.886c-0.028,0.298 -0.061,0.595 -0.098,0.891c-0.037,0.296 -0.059,0.568 -0.067,0.818c-0.008,0.25 -0.013,0.475 -0.013,0.676l0,1.528c0,0.146 -0.003,0.305 -0.01,0.475c-0.007,0.17 -0.026,0.336 -0.056,0.496c-0.031,0.161 -0.06,0.319 -0.087,0.474c-0.027,0.155 -0.048,0.313 -0.063,0.474c-0.015,0.16 -0.026,0.328 -0.034,0.502c-0.007,0.174 -0.014,0.355 -0.018,0.541c-0.005,0.187 -0.017,0.394 -0.035,0.623c-0.019,0.229 -0.036,0.483 -0.051,0.761c-0.015,0.278 -0.025,0.556 -0.031,0.833c-0.005,0.277 -0.01,0.55 -0.015,0.818c-0.005,0.268 -0.008,0.531 -0.011,0.788c-0.003,0.258 -0.004,0.523 -0.004,0.794c0,0.272 0.001,0.54 0.003,0.806c0.002,0.265 0.008,0.519 0.018,0.761c0.01,0.242 0.021,0.456 0.032,0.643c0.012,0.187 0.023,0.358 0.033,0.515c0.01,0.156 0.019,0.317 0.026,0.482c0.007,0.165 0.012,0.321 0.015,0.468c0.003,0.147 0.004,0.283 0.004,0.41l0,6.031c0,0.117 0.007,0.239 0.021,0.367c0.014,0.128 0.027,0.266 0.04,0.414c0.013,0.148 0.023,0.294 0.03,0.438c0.007,0.144 0.016,0.277 0.026,0.399c0.01,0.122 0.019,0.232 0.029,0.331c0.01,0.098 0.023,0.192 0.04,0.282c0.017,0.09 0.034,0.184 0.051,0.284c0.017,0.099 0.032,0.205 0.044,0.316c0.013,0.111 0.02,0.232 0.023,0.363c0.003,0.131 0.004,0.262 0.004,0.393l0,3.921c0,0.016 -0.003,0.006 -0.01,-0.029c-0.01,-0.051 -0.042,-0.147 -0.096,-0.288" style="fill:none;fill-rule:nonzero;stroke:#000;stroke-width:0.85px;"/><path d="M6.213,16.741c-0.013,-0.188 0.052,-0.36 0.197,-0.514c0.098,-0.104 0.165,0.004 0.201,0.325c0.036,0.321 0.055,0.796 0.056,1.426c0.001,0.63 0.001,1.262 0.001,1.896l0,1.652c0,0.468 0.007,0.787 0.02,0.959c0.014,0.172 0.024,0.225 0.033,0.159c0.012,-0.094 0.049,-0.391 0.113,-0.889" style="fill:none;fill-rule:nonzero;stroke:#000;stroke-width:0.85px;"/><path d="M5.634,15.207c-0.054,-0.175 -0.068,-0.388 -0.042,-0.64c0.017,-0.166 0.176,-0.29 0.478,-0.373c0.302,-0.083 0.721,-0.151 1.259,-0.204c0.537,-0.053 1.058,-0.041 1.563,0.034c0.504,0.076 0.848,0.262 1.031,0.558c0.183,0.297 0.196,0.66 0.039,1.092c-0.157,0.431 -0.469,0.864 -0.937,1.298c-0.468,0.434 -0.913,0.803 -1.335,1.105c-0.422,0.303 -0.694,0.504 -0.818,0.604c-0.123,0.1 -0.073,0.117 0.152,0.053c0.224,-0.064 0.528,-0.15 0.911,-0.256c0.383,-0.106 0.735,-0.154 1.056,-0.142c0.321,0.012 0.606,0.153 0.854,0.425c0.248,0.271 0.475,0.617 0.68,1.038c0.205,0.42 0.397,0.82 0.576,1.2c0.179,0.38 0.284,0.726 0.316,1.038c0.032,0.312 -0.083,0.616 -0.344,0.912c-0.261,0.295 -0.59,0.551 -0.987,0.766c-0.397,0.215 -0.784,0.354 -1.163,0.415c-0.378,0.062 -0.702,0.053 -0.969,-0.027c-0.268,-0.08 -0.435,-0.161 -0.502,-0.244c-0.093,-0.116 -0.014,-0.2 0.237,-0.254" style="fill:none;fill-rule:nonzero;stroke:#000;stroke-width:0.85px;"/><path d="M14.127,25.886c-0.011,0.242 -0.002,0.503 0.025,0.784c0.027,0.281 0.082,0.527 0.164,0.737c0.082,0.211 0.139,0.374 0.17,0.491c0.031,0.116 0.048,0.172 0.051,0.167c0.003,-0.005 -0.039,-0.132 -0.126,-0.382c-0.087,-0.25 -0.205,-0.59 -0.354,-1.021c-0.149,-0.431 -0.258,-0.87 -0.33,-1.318c-0.072,-0.447 -0.083,-0.896 -0.036,-1.346c0.048,-0.449 0.201,-0.865 0.459,-1.246c0.258,-0.381 0.541,-0.661 0.85,-0.84c0.309,-0.179 0.598,-0.255 0.867,-0.228c0.269,0.027 0.509,0.14 0.721,0.34c0.211,0.2 0.368,0.408 0.47,0.624c0.102,0.216 0.154,0.429 0.158,0.639c0.003,0.21 -0.087,0.414 -0.27,0.614c-0.184,0.2 -0.43,0.372 -0.739,0.516c-0.309,0.144 -0.589,0.238 -0.837,0.283c-0.249,0.045 -0.432,0.068 -0.548,0.068c-0.165,0.001 -0.248,-0.114 -0.251,-0.344" style="fill:none;fill-rule:nonzero;stroke:#000;stroke-width:0.85px;"/><path d="M61.223,18.838c-0.033,-0.004 -0.115,-0.034 -0.246,-0.09c-0.077,-0.033 -0.112,-0.057 -0.105,-0.072c0.008,-0.014 0.092,-0.03 0.252,-0.047c0.16,-0.017 0.414,-0.035 0.76,-0.054c0.346,-0.019 0.749,-0.04 1.208,-0.062c0.459,-0.022 0.89,-0.035 1.294,-0.038l0.303,-0.002l-0.908,0.007" style="fill:none;fill-rule:nonzero;stroke:#000;stroke-width:0.85px;"/><path d="M61.113,21.555c-0.059,-0.074 0.049,-0.142 0.323,-0.204c0.274,-0.062 0.662,-0.095 1.164,-0.098c0.502,-0.003 1.087,-0.005 1.756,-0.005l1.893,0c0.593,0 1.004,0.001 1.231,0.003c0.228,0.002 0.35,0.012 0.366,0.03c0.016,0.018 0.006,0.016 -0.031,-0.005c-0.053,-0.031 -0.153,-0.054 -0.3,-0.069" style="fill:none;fill-rule:nonzero;stroke:#000;stroke-width:0.85px;"/><path d="M73.21,12.171c0.028,-0.06 -0.016,-0.095 -0.131,-0.104c-0.115,-0.009 -0.176,-0.007 -0.185,0.004c-0.008,0.012 -0.013,0.024 -0.013,0.036c0,0.012 0.058,0.025 0.175,0.039c0.116,0.014 0.365,0.021 0.746,0.023c0.381,0.001 0.769,-0.003 1.163,-0.012c0.394,-0.009 0.79,-0.016 1.186,-0.022c0.397,-0.005 0.792,-0.009 1.185,-0.011c0.394,-0.002 0.779,-0.008 1.157,-0.018c0.377,-0.01 0.736,-0.016 1.076,-0.019c0.34,-0.003 0.662,-0.004 0.967,-0.004l3.211,0c0.252,0 0.524,-0.002 0.816,-0.007c0.292,-0.004 0.598,-0.02 0.916,-0.046c0.318,-0.026 0.628,-0.048 0.93,-0.066c0.302,-0.018 0.598,-0.028 0.888,-0.031c0.29,-0.003 0.576,-0.004 0.858,-0.004l4.702,0c0.355,0 0.704,-0.001 1.048,-0.003c0.343,-0.002 0.673,-0.02 0.991,-0.052c0.317,-0.033 0.602,-0.063 0.855,-0.091c0.253,-0.028 0.476,-0.045 0.67,-0.053c0.194,-0.008 0.382,-0.013 0.564,-0.015c0.182,-0.003 0.366,-0.004 0.55,-0.004l3.423,0c0.188,0 0.354,-0.005 0.5,-0.014c0.146,-0.009 0.255,-0.019 0.329,-0.029c0.073,-0.01 0.115,-0.016 0.126,-0.019c0.012,-0.003 0.018,-0.004 0.018,-0.004l0.507,0c0.091,0 0.081,-0.035 -0.03,-0.104" style="fill:none;fill-rule:nonzero;stroke:#000;stroke-width:0.85px;"/><path d="M80.647,5.784c0.056,-0.029 0.121,-0.104 0.194,-0.225c0.073,-0.121 0.113,-0.215 0.122,-0.282c0.008,-0.067 0.011,-0.112 0.009,-0.136c-0.002,-0.023 -0.016,-0.035 -0.042,-0.036c-0.026,0 -0.046,-0.001 -0.062,-0.001c-0.015,0 -0.023,0.007 -0.023,0.02l0,0.29c0,0.18 0.001,0.438 0.003,0.776c0.002,0.337 0.016,0.672 0.042,1.005c0.026,0.332 0.043,0.654 0.051,0.966c0.008,0.312 0.01,0.629 0.006,0.951c-0.004,0.322 -0.035,0.663 -0.091,1.022c-0.056,0.359 -0.11,0.704 -0.163,1.034c-0.052,0.33 -0.084,0.614 -0.095,0.851c-0.011,0.237 -0.017,0.437 -0.017,0.599l0,0.542c0,0.199 -0.003,0.431 -0.01,0.697c-0.007,0.266 -0.014,0.532 -0.022,0.801c-0.008,0.268 -0.012,0.519 -0.012,0.754c0,0.234 -0.005,0.462 -0.014,0.683c-0.009,0.221 -0.018,0.459 -0.025,0.712c-0.007,0.254 -0.015,0.531 -0.022,0.833c-0.007,0.302 -0.017,0.605 -0.029,0.91c-0.012,0.305 -0.018,0.586 -0.019,0.843l0,0.719c0,0.222 0.007,0.436 0.021,0.64c0.014,0.204 0.028,0.409 0.043,0.613c0.015,0.204 0.023,0.398 0.023,0.582l0,0.976c0,0.169 -0.007,0.366 -0.02,0.593c-0.014,0.227 -0.035,0.459 -0.064,0.697c-0.029,0.238 -0.048,0.465 -0.056,0.68c-0.008,0.215 -0.012,0.415 -0.012,0.601c0,0.186 0.001,0.358 0.003,0.517c0.002,0.159 0.015,0.312 0.039,0.461c0.024,0.149 0.041,0.304 0.051,0.466c0.01,0.162 0.016,0.352 0.016,0.571l0,0.654c0,0.217 0.002,0.414 0.007,0.591c0.005,0.177 0.008,0.329 0.011,0.457c0.003,0.128 0.004,0.253 0.004,0.374l0,2.4c0,0.179 -0.001,0.379 -0.003,0.602c-0.002,0.222 -0.008,0.448 -0.018,0.677c-0.01,0.229 -0.016,0.436 -0.019,0.62c-0.003,0.184 -0.004,0.341 -0.004,0.469l0,1.037l0.001,0.02l0.009,-0.133" style="fill:none;fill-rule:nonzero;stroke:#000;stroke-width:0.85px;"/><path d="M95.587,5.39l0.436,0c0.005,0 0.022,0.029 0.05,0.085c0.028,0.057 0.07,0.186 0.125,0.387c0.056,0.201 0.097,0.463 0.125,0.785c0.028,0.322 0.044,0.653 0.046,0.991c0.003,0.339 0.005,0.659 0.005,0.961c0,0.302 0.005,0.621 0.014,0.957c0.009,0.336 0.023,0.683 0.043,1.04c0.019,0.357 0.04,0.707 0.061,1.051c0.022,0.344 0.04,0.679 0.055,1.008c0.015,0.328 0.023,0.658 0.023,0.988c0,0.331 0.001,0.652 0.001,0.964l0,4.201c0,0.251 -0.002,0.509 -0.007,0.774c-0.005,0.265 -0.014,0.511 -0.028,0.736c-0.014,0.226 -0.026,0.422 -0.036,0.589c-0.01,0.167 -0.019,0.331 -0.026,0.49c-0.007,0.16 -0.021,0.352 -0.043,0.578c-0.022,0.226 -0.041,0.485 -0.058,0.78c-0.017,0.294 -0.035,0.594 -0.055,0.898c-0.019,0.304 -0.044,0.599 -0.075,0.884c-0.031,0.285 -0.06,0.552 -0.087,0.802c-0.027,0.25 -0.045,0.483 -0.053,0.7c-0.008,0.217 -0.012,0.428 -0.012,0.632l0,4.413c0,0.172 -0.002,0.355 -0.007,0.548c-0.005,0.194 -0.008,0.383 -0.011,0.569c-0.003,0.185 -0.004,0.358 -0.004,0.516l0,0.85c0,0.125 -0.001,0.244 -0.003,0.359c-0.002,0.114 -0.013,0.216 -0.032,0.305c-0.026,0.122 -0.077,0.078 -0.155,-0.134" style="fill:none;fill-rule:nonzero;stroke:#000;stroke-width:0.85px;"/><path d="M73.297,27.855c0.071,0.065 0.169,0.103 0.294,0.114c0.125,0.011 0.324,0.016 0.598,0.014c0.274,-0.002 0.655,-0.031 1.144,-0.087c0.489,-0.056 1.002,-0.109 1.54,-0.159c0.538,-0.05 1.047,-0.08 1.528,-0.088c0.481,-0.008 0.94,-0.012 1.376,-0.009c0.436,0.002 0.851,0.015 1.244,0.039c0.393,0.024 0.764,0.037 1.113,0.04c0.349,0.003 0.687,0.005 1.016,0.005c0.329,0 0.661,-0.004 0.995,-0.013c0.335,-0.009 0.673,-0.025 1.016,-0.047c0.343,-0.022 0.689,-0.036 1.039,-0.041c0.35,-0.005 0.689,-0.008 1.018,-0.008l1.775,0c0.268,0 0.54,-0.01 0.816,-0.031c0.276,-0.021 0.559,-0.035 0.848,-0.044c0.289,-0.008 0.565,-0.011 0.826,-0.009c0.261,0.002 0.516,0.02 0.764,0.052c0.248,0.033 0.522,0.057 0.823,0.073c0.301,0.016 0.624,0.024 0.969,0.024l1.776,0c0.246,0 0.504,0.002 0.773,0.007c0.269,0.004 0.532,0.014 0.791,0.029c0.259,0.015 0.49,0.023 0.694,0.026c0.204,0.003 0.389,0.004 0.555,0.004c0.166,0 0.329,0.006 0.49,0.017c0.16,0.011 0.313,0.029 0.457,0.053c0.144,0.024 0.273,0.046 0.386,0.066c0.113,0.02 0.235,0.036 0.368,0.048c0.132,0.012 0.277,0.023 0.434,0.033c0.158,0.01 0.318,0.02 0.48,0.03c0.163,0.01 0.335,0.015 0.516,0.015l1.978,0c0.028,0 0.048,0.003 0.06,0.01c0.012,0.007 0.035,0.021 0.068,0.043c0.034,0.022 0.069,0.043 0.106,0.065c0.05,0.03 0.023,0.035 -0.083,0.016" style="fill:none;fill-rule:nonzero;stroke:#000;stroke-width:0.85px;"/><path d="M80.647,11.974l-0.35,0l0,0.086c0,0.057 0.006,0.173 0.017,0.348c0.011,0.175 0.027,0.441 0.047,0.799c0.02,0.357 0.038,0.78 0.055,1.268c0.017,0.488 0.037,0.966 0.062,1.435c0.024,0.469 0.041,0.889 0.049,1.259c0.008,0.371 0.012,0.71 0.012,1.018c0,0.308 -0.006,0.595 -0.017,0.862c-0.012,0.267 -0.019,0.514 -0.022,0.741c-0.003,0.227 -0.005,0.452 -0.008,0.675c-0.002,0.223 -0.006,0.453 -0.011,0.691c-0.005,0.238 -0.008,0.475 -0.008,0.711c0,0.236 -0.014,0.468 -0.041,0.697c-0.027,0.229 -0.07,0.45 -0.128,0.664c-0.058,0.214 -0.095,0.426 -0.112,0.636c-0.016,0.21 -0.025,0.406 -0.025,0.589l0,1.362c0,0.129 -0.006,0.269 -0.017,0.421c-0.011,0.152 -0.035,0.303 -0.071,0.451c-0.036,0.149 -0.066,0.28 -0.091,0.394c-0.025,0.114 -0.041,0.203 -0.049,0.267c-0.008,0.065 -0.012,0.128 -0.012,0.191c0,0.062 -0.005,0.147 -0.013,0.255c-0.009,0.107 -0.034,0.23 -0.074,0.368c-0.04,0.138 -0.079,0.267 -0.116,0.388c-0.037,0.12 -0.06,0.205 -0.068,0.255c-0.008,0.049 0.009,0.066 0.053,0.051c0.044,-0.015 0.097,-0.05 0.161,-0.105c0.064,-0.055 0.13,-0.098 0.2,-0.128c0.07,-0.03 0.176,-0.064 0.318,-0.102c0.142,-0.038 0.334,-0.088 0.577,-0.151c0.242,-0.063 0.515,-0.126 0.819,-0.189c0.304,-0.063 0.634,-0.122 0.99,-0.176c0.356,-0.054 0.726,-0.1 1.112,-0.14c0.386,-0.04 0.772,-0.069 1.158,-0.089c0.386,-0.02 0.799,-0.048 1.239,-0.083c0.44,-0.036 0.906,-0.069 1.398,-0.099c0.492,-0.03 0.97,-0.045 1.434,-0.046c0.464,-0.001 0.903,0.012 1.317,0.037c0.414,0.025 0.815,0.055 1.203,0.089c0.388,0.034 0.759,0.061 1.116,0.082c0.356,0.02 0.67,0.034 0.942,0.041c0.271,0.007 0.489,0.026 0.653,0.057c0.164,0.031 0.313,0.053 0.446,0.066c0.133,0.013 0.274,0.019 0.422,0.017c0.148,-0.002 0.283,-0.015 0.407,-0.038c0.124,-0.023 0.218,-0.041 0.283,-0.051c0.065,-0.011 0.109,-0.016 0.132,-0.016l0.067,0c0.022,0 0.042,0.002 0.062,0.007c0.02,0.005 0.035,0.013 0.045,0.025c0.01,0.012 0.015,0.02 0.015,0.026l0,0.008l0,-1.088c0,-0.308 -0.011,-0.663 -0.035,-1.065c-0.023,-0.402 -0.047,-0.778 -0.072,-1.128c-0.025,-0.35 -0.039,-0.681 -0.042,-0.993c-0.003,-0.312 -0.004,-0.614 -0.004,-0.907c0,-0.293 -0.01,-0.572 -0.031,-0.837c-0.021,-0.266 -0.039,-0.525 -0.054,-0.778c-0.015,-0.253 -0.022,-0.499 -0.02,-0.738c0.002,-0.239 0.016,-0.479 0.042,-0.722c0.026,-0.242 0.053,-0.497 0.082,-0.763c0.029,-0.266 0.065,-0.545 0.109,-0.836c0.043,-0.291 0.084,-0.582 0.121,-0.871c0.037,-0.29 0.061,-0.572 0.071,-0.847c0.011,-0.275 0.021,-0.562 0.03,-0.863c0.01,-0.3 0.024,-0.607 0.043,-0.92c0.019,-0.313 0.048,-0.621 0.089,-0.924c0.041,-0.302 0.079,-0.579 0.116,-0.829c0.037,-0.25 0.07,-0.463 0.1,-0.638c0.03,-0.176 0.053,-0.32 0.07,-0.434c0.017,-0.114 0.031,-0.196 0.041,-0.248c0.01,-0.051 0.016,-0.078 0.019,-0.082c0.003,-0.003 0.004,-0.005 0.004,-0.005l0,0.017c0,0.007 -0.001,0.019 -0.003,0.036c-0.002,0.017 -0.031,0.038 -0.087,0.064c-0.055,0.026 -0.148,0.053 -0.276,0.08c-0.129,0.027 -0.288,0.05 -0.478,0.07c-0.19,0.02 -0.424,0.038 -0.702,0.055c-0.278,0.017 -0.598,0.035 -0.957,0.055c-0.36,0.02 -0.71,0.031 -1.049,0.034c-0.34,0.003 -0.656,-0.008 -0.949,-0.033c-0.293,-0.025 -0.591,-0.047 -0.894,-0.065c-0.303,-0.019 -0.603,-0.017 -0.901,0.006c-0.298,0.023 -0.575,0.072 -0.832,0.149c-0.257,0.077 -0.501,0.145 -0.732,0.204c-0.232,0.059 -0.469,0.109 -0.714,0.151c-0.244,0.041 -0.502,0.098 -0.774,0.17c-0.272,0.072 -0.538,0.131 -0.798,0.177c-0.26,0.045 -0.542,0.07 -0.846,0.073c-0.304,0.003 -0.669,0.005 -1.096,0.005c-0.427,0 -0.88,-0.003 -1.357,-0.01c-0.477,-0.007 -0.909,-0.023 -1.294,-0.049c-0.386,-0.026 -0.719,-0.055 -0.999,-0.086c-0.281,-0.031 -0.528,-0.072 -0.741,-0.122c-0.213,-0.05 -0.391,-0.097 -0.533,-0.139c-0.142,-0.042 -0.243,-0.066 -0.304,-0.069c-0.061,-0.003 -0.099,-0.002 -0.115,0.005c-0.016,0.007 -0.002,0.038 0.043,0.095c0.064,0.08 0.437,0.049 1.121,-0.095" style="fill:none;fill-rule:nonzero;stroke:#c2361a;stroke-width:1.7px;"/><path d="M113.108,35.817c0.007,0.082 -0.012,0.247 -0.057,0.495c-0.046,0.248 -0.219,0.599 -0.52,1.053c-0.301,0.454 -0.696,1.004 -1.185,1.649c-0.785,1.034 -1.354,1.761 -1.709,2.181" style="fill:none;fill-rule:nonzero;stroke:#000;stroke-width:0.85px;"/><path d="M132.511,17.771c-0.057,-0.018 -0.087,0.232 -0.088,0.749c-0.002,0.517 0.026,1.152 0.083,1.905c0.057,0.753 0.115,1.45 0.173,2.089c0.059,0.64 0.104,1.064 0.134,1.271l0.038,0.233l-0.002,-0.027c-0.009,-0.1 -0.038,-0.417 -0.087,-0.949" style="fill:none;fill-rule:nonzero;stroke:#000;stroke-width:0.85px;"/><path d="M132.251,16.334c-0.128,-0.213 -0.176,-0.457 -0.144,-0.732c0.022,-0.185 0.215,-0.302 0.579,-0.351c0.364,-0.049 0.848,-0.057 1.451,-0.025c0.602,0.033 1.212,0.153 1.829,0.36c0.616,0.208 1.067,0.456 1.351,0.746c0.285,0.29 0.323,0.611 0.113,0.963c-0.21,0.352 -0.667,0.703 -1.372,1.053c-0.705,0.35 -1.346,0.626 -1.924,0.83c-0.577,0.203 -0.947,0.322 -1.111,0.356l-0.096,0.023l0.228,-0.034c0.251,-0.041 0.603,-0.081 1.055,-0.119c0.452,-0.038 0.88,-0.01 1.281,0.085c0.402,0.095 0.737,0.306 1.005,0.635c0.269,0.328 0.453,0.667 0.554,1.016c0.1,0.349 0.144,0.668 0.132,0.957c-0.013,0.289 -0.139,0.548 -0.377,0.777c-0.239,0.229 -0.583,0.405 -1.032,0.527c-0.45,0.123 -0.974,0.203 -1.573,0.24c-0.599,0.037 -1.121,0.007 -1.565,-0.091c-0.444,-0.098 -0.697,-0.181 -0.761,-0.25c-0.089,-0.097 0.156,-0.342 0.735,-0.735" style="fill:none;fill-rule:nonzero;stroke:#000;stroke-width:0.85px;"/><path d="M138.92,24.53c0,0.134 0.008,0.331 0.023,0.592c0.016,0.261 0.083,0.544 0.201,0.849c0.118,0.305 0.231,0.603 0.34,0.897c0.108,0.293 0.186,0.524 0.232,0.693c0.046,0.169 0.071,0.263 0.074,0.283c0.003,0.02 -0.032,-0.089 -0.105,-0.327c-0.073,-0.237 -0.21,-0.722 -0.411,-1.453c-0.201,-0.731 -0.367,-1.487 -0.499,-2.268c-0.133,-0.78 -0.167,-1.32 -0.105,-1.619c0.062,-0.299 0.291,-0.462 0.685,-0.489c0.395,-0.027 0.799,0.06 1.211,0.263c0.413,0.203 0.703,0.472 0.871,0.806c0.169,0.335 0.239,0.682 0.211,1.042c-0.028,0.36 -0.155,0.679 -0.382,0.956c-0.226,0.277 -0.495,0.47 -0.807,0.578c-0.311,0.109 -0.66,0.144 -1.046,0.106c-0.559,-0.055 -1.031,-0.434 -1.416,-1.137" style="fill:none;fill-rule:nonzero;stroke:#000;stroke-width:0.85px;"/><path d="M151.87,12.062c0.032,0.029 0.144,0.047 0.336,0.054c0.192,0.008 0.391,0.007 0.597,-0.003c0.206,-0.009 0.492,-0.023 0.859,-0.043c0.367,-0.019 0.798,-0.038 1.291,-0.058c0.494,-0.02 0.961,-0.031 1.401,-0.034c0.441,-0.003 0.843,-0.002 1.205,0.002c0.362,0.004 0.704,0.025 1.026,0.063c0.322,0.038 0.619,0.068 0.891,0.091c0.272,0.023 0.547,0.035 0.825,0.035l0.934,0c0.345,0 0.727,0.002 1.148,0.007c0.42,0.005 0.838,0.013 1.253,0.025c0.415,0.012 0.771,0.024 1.068,0.036c0.296,0.012 0.556,0.029 0.778,0.051c0.222,0.022 0.467,0.036 0.734,0.044c0.267,0.008 0.573,0.012 0.918,0.012c0.346,0 0.689,-0.006 1.03,-0.017c0.342,-0.011 0.668,-0.029 0.98,-0.053c0.312,-0.024 0.633,-0.051 0.962,-0.08c0.329,-0.029 0.675,-0.051 1.039,-0.066c0.363,-0.015 0.731,-0.023 1.103,-0.024c0.372,0 0.744,0.003 1.116,0.01c0.371,0.007 0.754,0.014 1.146,0.022c0.392,0.008 0.793,0.012 1.202,0.012l5.67,0c0.273,0 0.55,-0.003 0.833,-0.01c0.282,-0.007 0.535,-0.018 0.759,-0.032c0.224,-0.015 0.409,-0.022 0.555,-0.023l0.653,0c0.101,0 0.207,-0.005 0.316,-0.014c0.11,-0.009 0.18,-0.016 0.212,-0.021l0.022,-0.004l-0.035,0.002c-0.062,0.005 -0.117,0.002 -0.165,-0.011" style="fill:none;fill-rule:nonzero;stroke:#000;stroke-width:0.85px;"/><path d="M152.001,28.752c0.002,-0.086 0.05,-0.153 0.144,-0.203c0.093,-0.049 0.236,-0.075 0.427,-0.078c0.191,-0.003 0.443,-0.004 0.756,-0.004c0.314,0 0.698,-0.001 1.152,-0.003c0.454,-0.002 0.965,-0.015 1.532,-0.038c0.568,-0.024 1.15,-0.044 1.746,-0.062c0.596,-0.018 1.136,-0.027 1.62,-0.027c0.484,0 0.924,0.004 1.319,0.013c0.396,0.009 0.796,0.023 1.201,0.043c0.406,0.02 0.816,0.03 1.231,0.03c0.415,0 0.84,-0.013 1.274,-0.041c0.435,-0.028 0.858,-0.062 1.271,-0.104c0.412,-0.041 0.78,-0.071 1.102,-0.089c0.322,-0.018 0.597,-0.027 0.826,-0.028c0.229,0 0.463,-0.001 0.702,-0.001l1.801,0c0.336,0 0.667,-0.003 0.995,-0.01c0.328,-0.007 0.675,-0.021 1.04,-0.042c0.366,-0.022 0.725,-0.037 1.079,-0.045c0.354,-0.008 0.686,-0.012 0.996,-0.012l0.955,0c0.327,0 0.665,-0.007 1.015,-0.021c0.349,-0.014 0.677,-0.028 0.984,-0.043c0.306,-0.015 0.576,-0.023 0.809,-0.023c0.234,0 0.454,0.002 0.66,0.007c0.207,0.004 0.435,0.008 0.686,0.011c0.252,0.003 0.5,0.001 0.747,-0.006c0.247,-0.007 0.457,-0.016 0.63,-0.029c0.173,-0.012 0.332,-0.02 0.478,-0.023c0.146,-0.003 0.304,-0.004 0.476,-0.004l1.141,0c0.197,0 0.385,0.004 0.563,0.014c0.178,0.009 0.348,0.03 0.509,0.064c0.162,0.033 0.303,0.067 0.423,0.101c0.121,0.034 0.235,0.064 0.342,0.088c0.107,0.025 0.205,0.041 0.293,0.049c0.088,0.008 0.163,0.012 0.225,0.012c0.062,0 0.105,0.003 0.127,0.01c0.033,0.009 -0.058,-0.072 -0.271,-0.243" style="fill:none;fill-rule:nonzero;stroke:#000;stroke-width:0.85px;"/><path d="M160.423,3.596c-0.072,0.011 -0.123,0.132 -0.153,0.361c-0.03,0.229 -0.044,0.55 -0.044,0.961c0,0.412 0.001,0.839 0.003,1.28c0.002,0.441 0.036,0.838 0.1,1.189c0.065,0.351 0.159,0.662 0.281,0.932c0.123,0.27 0.236,0.529 0.34,0.776c0.104,0.247 0.179,0.509 0.225,0.786c0.046,0.277 0.07,0.557 0.074,0.841c0.003,0.284 0.005,0.585 0.005,0.905l0,0.965c0,0.324 -0.007,0.62 -0.021,0.887c-0.014,0.267 -0.028,0.517 -0.043,0.749c-0.015,0.232 -0.023,0.449 -0.023,0.652c-0.001,0.203 -0.001,0.411 -0.001,0.626c0,0.215 -0.003,0.471 -0.01,0.769c-0.007,0.298 -0.027,0.621 -0.06,0.967c-0.033,0.347 -0.061,0.687 -0.084,1.021c-0.022,0.334 -0.035,0.637 -0.038,0.91c-0.003,0.273 -0.006,0.529 -0.008,0.77c-0.002,0.241 -0.016,0.5 -0.042,0.778c-0.025,0.278 -0.057,0.559 -0.093,0.844c-0.037,0.285 -0.059,0.554 -0.068,0.808c-0.008,0.254 -0.013,0.514 -0.016,0.78c-0.002,0.266 -0.01,0.54 -0.024,0.822c-0.015,0.282 -0.028,0.544 -0.04,0.787c-0.013,0.243 -0.024,0.464 -0.033,0.664c-0.01,0.2 -0.026,0.421 -0.05,0.661c-0.024,0.241 -0.046,0.498 -0.066,0.773c-0.02,0.274 -0.033,0.548 -0.041,0.823c-0.008,0.275 -0.021,0.539 -0.04,0.793c-0.019,0.254 -0.046,0.496 -0.082,0.728c-0.035,0.231 -0.068,0.466 -0.098,0.704c-0.03,0.238 -0.049,0.468 -0.057,0.69c-0.008,0.222 -0.012,0.421 -0.012,0.595l0,1.644c0,0.125 -0.003,0.269 -0.007,0.431c-0.005,0.162 -0.012,0.327 -0.022,0.494c-0.009,0.168 -0.014,0.328 -0.015,0.482l0,2.324c0,0.038 -0.005,0.031 -0.014,-0.021c-0.015,-0.076 -0.06,-0.156 -0.136,-0.239" style="fill:none;fill-rule:nonzero;stroke:#000;stroke-width:0.85px;"/><path d="M176.325,4.406c0,-0.077 0.018,-0.158 0.055,-0.245c0.037,-0.087 0.099,-0.102 0.188,-0.045c0.089,0.057 0.176,0.269 0.262,0.637c0.086,0.368 0.153,0.812 0.203,1.334c0.05,0.521 0.105,1.058 0.164,1.61c0.06,0.552 0.117,1.085 0.172,1.599c0.055,0.514 0.088,1.015 0.099,1.502c0.011,0.487 0.016,0.945 0.016,1.373c0,0.428 -0.01,0.816 -0.03,1.164c-0.021,0.348 -0.053,0.684 -0.096,1.01c-0.044,0.326 -0.076,0.638 -0.097,0.936c-0.02,0.298 -0.032,0.574 -0.035,0.828c-0.003,0.254 -0.004,0.506 -0.004,0.756l0,1.63c0,0.28 0.003,0.55 0.01,0.811c0.007,0.261 0.021,0.51 0.043,0.746c0.021,0.236 0.036,0.473 0.044,0.712c0.008,0.238 0.012,0.483 0.012,0.735l0,1.733c0,0.313 -0.001,0.624 -0.003,0.934c-0.002,0.309 -0.013,0.597 -0.032,0.864c-0.018,0.267 -0.039,0.512 -0.061,0.734c-0.022,0.223 -0.043,0.439 -0.065,0.651c-0.022,0.211 -0.043,0.44 -0.063,0.686c-0.019,0.246 -0.035,0.512 -0.047,0.798c-0.013,0.286 -0.028,0.57 -0.048,0.852c-0.019,0.282 -0.038,0.546 -0.058,0.791c-0.019,0.245 -0.031,0.453 -0.034,0.623c-0.003,0.17 -0.004,0.323 -0.004,0.457c0,0.134 0.005,0.291 0.017,0.471c0.011,0.18 0.028,0.367 0.05,0.562c0.022,0.195 0.04,0.379 0.055,0.552c0.015,0.173 0.023,0.347 0.026,0.522c0.003,0.175 0.005,0.344 0.005,0.508l0,0.593c0,0.037 -0.019,0.036 -0.056,-0.002" style="fill:none;fill-rule:nonzero;stroke:#000;stroke-width:0.85px;"/><path d="M190.018,18.225c-0.049,0.002 -0.116,-0.014 -0.201,-0.048c-0.055,-0.022 -0.039,-0.042 0.046,-0.059c0.086,-0.018 0.284,-0.043 0.594,-0.075c0.31,-0.032 0.665,-0.068 1.065,-0.107c0.4,-0.039 0.802,-0.065 1.205,-0.078c0.403,-0.014 0.66,-0.02 0.768,-0.02c0.148,0 0.12,0.03 -0.083,0.091" style="fill:none;fill-rule:nonzero;stroke:#000;stroke-width:0.85px;"/><path d="M189.756,20.002c0.017,0.015 0.191,0.03 0.523,0.044c0.332,0.014 0.753,0.004 1.262,-0.031c0.51,-0.035 1.025,-0.06 1.544,-0.076c0.52,-0.016 0.926,-0.025 1.218,-0.025l0.219,0l-0.657,0" style="fill:none;fill-rule:nonzero;stroke:#000;stroke-width:0.85px;"/><path d="M199.818,12.345c-0.062,-0.002 -0.131,-0.007 -0.208,-0.014l-0.027,-0.004l0.09,-0.003l1.409,0c0.286,0 0.609,0.004 0.969,0.011c0.359,0.007 0.762,0.011 1.208,0.011l1.427,0c0.505,0 0.957,0.001 1.356,0.003c0.398,0.002 0.757,0.014 1.074,0.035c0.318,0.021 0.656,0.035 1.015,0.041c0.36,0.006 0.744,0.002 1.154,-0.012c0.41,-0.014 0.802,-0.035 1.176,-0.064c0.374,-0.029 0.727,-0.048 1.058,-0.056c0.332,-0.008 0.665,-0.008 1,0.001c0.335,0.009 0.666,0.026 0.993,0.05c0.327,0.025 0.636,0.038 0.928,0.041c0.293,0.003 0.589,0.005 0.89,0.005l1.738,0c0.277,0 0.562,-0.004 0.855,-0.014c0.293,-0.009 0.602,-0.03 0.927,-0.064c0.324,-0.034 0.653,-0.058 0.987,-0.074c0.333,-0.015 0.648,-0.023 0.943,-0.023c0.295,0 0.582,-0.001 0.859,-0.001c0.277,0 0.568,-0.013 0.873,-0.038c0.305,-0.025 0.612,-0.063 0.919,-0.114c0.306,-0.051 0.59,-0.082 0.849,-0.094c0.259,-0.011 0.516,-0.017 0.771,-0.017l0.824,0c0.295,0 0.592,-0.013 0.892,-0.038c0.3,-0.025 0.553,-0.054 0.759,-0.086c0.206,-0.032 0.374,-0.052 0.504,-0.06c0.131,-0.008 0.261,-0.012 0.389,-0.012c0.129,0 0.277,-0.003 0.445,-0.01c0.168,-0.007 0.355,-0.021 0.561,-0.042c0.205,-0.022 0.408,-0.04 0.608,-0.055c0.2,-0.015 0.378,-0.023 0.533,-0.023l0.745,0c0.136,0 0.126,-0.024 -0.03,-0.072" style="fill:none;fill-rule:nonzero;stroke:#000;stroke-width:0.85px;"/><path d="M200.431,28.818c-0.012,-0.069 0.13,-0.115 0.426,-0.139c0.296,-0.024 0.562,-0.036 0.797,-0.036l1.998,0c0.468,0 0.984,-0.003 1.549,-0.011c0.564,-0.007 1.121,-0.011 1.672,-0.011l2.973,0c0.421,0 0.823,-0.003 1.206,-0.01c0.382,-0.007 0.735,-0.014 1.059,-0.022c0.324,-0.008 0.596,-0.012 0.816,-0.012l5.578,0c0.451,0 0.949,-0.01 1.496,-0.031c0.546,-0.021 1.102,-0.043 1.669,-0.068c0.567,-0.025 1.095,-0.04 1.585,-0.046c0.49,-0.005 0.917,-0.006 1.282,-0.002c0.364,0.004 0.67,0.012 0.917,0.022c0.247,0.01 0.469,0.014 0.667,0.012c0.197,-0.002 0.414,-0.025 0.65,-0.07c0.237,-0.044 0.47,-0.085 0.7,-0.123c0.229,-0.038 0.441,-0.063 0.634,-0.075c0.193,-0.013 0.381,-0.025 0.563,-0.037c0.182,-0.012 0.376,-0.029 0.582,-0.051c0.205,-0.022 0.399,-0.037 0.581,-0.045c0.181,-0.008 0.344,-0.012 0.488,-0.012l0.926,0c0.158,0 0.292,0.003 0.401,0.01c0.147,0.009 0.142,0 -0.013,-0.026" style="fill:none;fill-rule:nonzero;stroke:#000;stroke-width:0.85px;"/><path d="M208.327,4.887c0.026,-0.039 0.105,0.025 0.237,0.194c0.133,0.168 0.239,0.373 0.319,0.616c0.081,0.242 0.154,0.524 0.22,0.844c0.067,0.321 0.124,0.655 0.174,1.003c0.049,0.348 0.103,0.675 0.163,0.983c0.06,0.308 0.134,0.61 0.223,0.906c0.089,0.297 0.171,0.601 0.245,0.914c0.075,0.313 0.115,0.649 0.12,1.01c0.005,0.36 -0.038,0.712 -0.129,1.054c-0.092,0.342 -0.177,0.654 -0.257,0.935c-0.08,0.281 -0.126,0.564 -0.138,0.847c-0.012,0.283 -0.017,0.576 -0.017,0.877l0,3.634c0,0.303 -0.007,0.618 -0.021,0.943c-0.013,0.325 -0.041,0.641 -0.082,0.949c-0.041,0.307 -0.072,0.611 -0.095,0.913c-0.023,0.301 -0.038,0.609 -0.045,0.922c-0.008,0.313 -0.014,0.612 -0.019,0.895c-0.005,0.283 -0.014,0.548 -0.026,0.795c-0.012,0.247 -0.02,0.49 -0.025,0.73c-0.005,0.24 -0.016,0.5 -0.032,0.78c-0.017,0.28 -0.043,0.59 -0.078,0.927c-0.036,0.338 -0.076,0.69 -0.12,1.058c-0.043,0.367 -0.08,0.706 -0.11,1.017c-0.031,0.311 -0.045,0.61 -0.043,0.896c0.001,0.287 0.014,0.607 0.038,0.961c0.023,0.354 0.037,0.732 0.04,1.135c0.003,0.402 0.005,0.808 0.005,1.217l0,2.924c0,0.272 -0.002,0.54 -0.007,0.804c-0.004,0.264 -0.018,0.476 -0.042,0.637l-0.018,0.121l0.054,-0.362" style="fill:none;fill-rule:nonzero;stroke:#000;stroke-width:0.85px;"/><path d="M223.366,4.51c0.016,-0.034 0.003,-0.105 -0.04,-0.211c-0.027,-0.068 -0.058,-0.099 -0.092,-0.093c-0.033,0.005 -0.074,0.079 -0.122,0.221c-0.048,0.142 -0.089,0.354 -0.122,0.637c-0.033,0.283 -0.044,0.581 -0.034,0.895c0.011,0.313 0.069,0.633 0.175,0.961c0.106,0.327 0.218,0.661 0.335,1.001c0.117,0.34 0.218,0.685 0.301,1.035c0.084,0.35 0.155,0.685 0.212,1.004c0.057,0.319 0.091,0.643 0.102,0.97c0.012,0.327 -0.008,0.663 -0.058,1.009c-0.051,0.345 -0.1,0.67 -0.148,0.973c-0.049,0.303 -0.062,0.571 -0.041,0.802c0.022,0.231 0.072,0.45 0.152,0.656c0.08,0.206 0.129,0.439 0.149,0.7c0.019,0.26 0.014,0.545 -0.016,0.855c-0.029,0.31 -0.069,0.629 -0.118,0.957c-0.049,0.328 -0.078,0.631 -0.086,0.908c-0.009,0.277 -0.005,0.531 0.011,0.76c0.016,0.23 0.037,0.458 0.064,0.683c0.027,0.226 0.051,0.471 0.073,0.737c0.022,0.266 0.037,0.549 0.045,0.849c0.008,0.3 0.012,0.591 0.012,0.873l0,1.42c0,0.224 -0.013,0.492 -0.041,0.802c-0.028,0.31 -0.061,0.643 -0.1,0.997c-0.04,0.355 -0.062,0.686 -0.068,0.995c-0.006,0.308 -0.009,0.583 -0.009,0.823l0,3.012c0,0.276 0.004,0.53 0.013,0.759c0.009,0.23 0.034,0.459 0.074,0.686c0.041,0.228 0.086,0.489 0.137,0.785c0.051,0.296 0.102,0.609 0.153,0.94c0.051,0.331 0.105,0.637 0.163,0.919c0.058,0.282 0.12,0.532 0.186,0.75c0.065,0.218 0.114,0.425 0.144,0.62c0.031,0.195 0.047,0.377 0.047,0.546c0.001,0.169 -0.008,0.307 -0.026,0.414c-0.019,0.107 -0.043,0.182 -0.074,0.226c-0.044,0.061 -0.115,0.021 -0.214,-0.12" style="fill:none;fill-rule:nonzero;stroke:#000;stroke-width:0.85px;"/><path d="M151.695,12.302c-0.045,-0.058 -0.091,-0.125 -0.138,-0.201c-0.048,-0.076 -0.066,-0.12 -0.056,-0.131c0.01,-0.011 0.079,-0.001 0.208,0.031c0.128,0.032 0.312,0.077 0.551,0.136c0.239,0.059 0.549,0.094 0.93,0.105c0.381,0.011 0.819,0.017 1.314,0.017l1.433,0c0.46,0 0.915,0.004 1.366,0.01c0.45,0.007 0.914,0.011 1.39,0.011c0.477,0 0.949,-0.004 1.418,-0.013c0.469,-0.009 0.943,-0.039 1.421,-0.092c0.479,-0.052 0.959,-0.107 1.44,-0.166c0.482,-0.058 0.946,-0.11 1.392,-0.154c0.447,-0.045 0.875,-0.083 1.284,-0.115c0.41,-0.032 0.785,-0.052 1.126,-0.06c0.341,-0.008 0.651,-0.013 0.93,-0.013c0.279,0 0.532,0.007 0.76,0.02c0.227,0.014 0.477,0.028 0.751,0.044c0.274,0.016 0.596,0.023 0.965,0.023c0.369,0 0.727,-0.002 1.075,-0.007c0.348,-0.005 0.633,-0.011 0.854,-0.018c0.221,-0.007 0.424,-0.012 0.611,-0.015c0.186,-0.003 0.386,-0.004 0.6,-0.004l1.462,0c0.139,0 0.275,-0.008 0.408,-0.024c0.134,-0.016 0.273,-0.034 0.416,-0.054c0.143,-0.02 0.282,-0.036 0.416,-0.048c0.135,-0.013 0.248,-0.02 0.339,-0.023c0.092,-0.003 0.163,-0.004 0.213,-0.004c0.049,0 0.101,0.003 0.153,0.01c0.053,0.007 0.12,0.021 0.203,0.042c0.082,0.022 0.153,0.043 0.215,0.065c0.062,0.022 0.108,0.051 0.138,0.086c0.031,0.036 0.053,0.076 0.068,0.122c0.015,0.046 0.041,0.1 0.079,0.163c0.037,0.063 0.083,0.134 0.136,0.213c0.054,0.079 0.096,0.174 0.126,0.285c0.031,0.11 0.047,0.247 0.05,0.41c0.003,0.163 0.005,0.346 0.005,0.546l0,2.641c0,0.209 -0.002,0.423 -0.007,0.641c-0.004,0.218 -0.027,0.445 -0.07,0.68c-0.042,0.235 -0.083,0.463 -0.123,0.682c-0.039,0.22 -0.074,0.432 -0.103,0.636c-0.029,0.205 -0.06,0.403 -0.094,0.596c-0.035,0.192 -0.066,0.382 -0.096,0.569c-0.029,0.187 -0.058,0.38 -0.087,0.579c-0.029,0.199 -0.059,0.399 -0.088,0.601c-0.029,0.202 -0.046,0.395 -0.049,0.581c-0.003,0.185 -0.005,0.366 -0.005,0.541c0,0.175 -0.001,0.34 -0.003,0.494c-0.002,0.154 -0.019,0.31 -0.049,0.468c-0.031,0.158 -0.051,0.311 -0.063,0.46c-0.011,0.149 -0.016,0.289 -0.016,0.421l0,3.529c0,0.096 0.002,0.183 0.007,0.261c0.004,0.078 0.015,0.152 0.031,0.22c0.017,0.068 0.036,0.134 0.058,0.197c0.022,0.063 0.044,0.121 0.065,0.172c0.022,0.052 0.041,0.092 0.056,0.119c0.015,0.028 0.023,0.043 0.023,0.046c0,0.003 -0.017,0.005 -0.053,0.005l-0.341,0c-0.192,0 -0.426,0.001 -0.703,0.003c-0.277,0.002 -0.56,0.006 -0.847,0.011c-0.287,0.005 -0.574,0.011 -0.863,0.018c-0.289,0.007 -0.585,0.021 -0.889,0.043c-0.304,0.022 -0.606,0.04 -0.908,0.055c-0.301,0.015 -0.594,0.033 -0.879,0.055c-0.286,0.022 -0.554,0.036 -0.806,0.044c-0.252,0.008 -0.488,0.012 -0.707,0.012l-5.702,0c-0.387,0 -0.778,0.013 -1.173,0.038c-0.395,0.025 -0.814,0.047 -1.258,0.065c-0.443,0.018 -0.882,0.027 -1.315,0.028c-0.434,0 -0.846,0.003 -1.237,0.007c-0.39,0.004 -0.77,0.031 -1.14,0.081c-0.371,0.049 -0.702,0.087 -0.995,0.113c-0.293,0.026 -0.562,0.038 -0.808,0.036c-0.246,-0.002 -0.515,-0.017 -0.806,-0.045c-0.292,-0.028 -0.586,-0.049 -0.882,-0.062c-0.296,-0.013 -0.531,-0.02 -0.706,-0.02l-0.683,0c-0.087,0 -0.198,0.001 -0.332,0.003c-0.135,0.002 -0.276,0.01 -0.424,0.025c-0.148,0.014 -0.296,0.026 -0.444,0.036c-0.149,0.01 -0.289,0.02 -0.422,0.029c-0.132,0.01 -0.237,0.015 -0.314,0.015c-0.078,0 -0.148,0.002 -0.211,0.004c-0.062,0.002 -0.14,0.009 -0.231,0.021c-0.092,0.012 -0.152,0.021 -0.181,0.028c-0.042,0.01 -0.011,0.098 0.091,0.265" style="fill:none;fill-rule:nonzero;stroke:#c2361a;stroke-width:1.7px;"/><path d="M198.965,12.674c0.045,-0.008 0.192,-0.024 0.439,-0.046c0.248,-0.022 0.574,-0.035 0.979,-0.038c0.404,-0.003 0.888,-0.004 1.451,-0.004c0.563,0 1.125,-0.002 1.688,-0.007c0.562,-0.004 1.071,-0.022 1.526,-0.053c0.456,-0.031 0.82,-0.054 1.094,-0.069c0.274,-0.015 0.493,-0.023 0.658,-0.024l1.883,0c0.051,0 0.088,0.008 0.111,0.023c0.024,0.016 0.034,0.076 0.033,0.182c-0.002,0.106 -0.019,0.241 -0.049,0.405c-0.031,0.164 -0.051,0.35 -0.062,0.559c-0.011,0.209 -0.02,0.451 -0.027,0.726c-0.007,0.275 -0.027,0.563 -0.06,0.864c-0.033,0.301 -0.059,0.596 -0.077,0.887c-0.018,0.29 -0.027,0.563 -0.028,0.82c0,0.256 0.001,0.505 0.003,0.746c0.003,0.241 0.006,0.475 0.011,0.701c0.005,0.226 0.008,0.453 0.008,0.679c0,0.226 -0.004,0.448 -0.01,0.665c-0.007,0.217 -0.014,0.415 -0.022,0.594c-0.008,0.179 -0.011,0.352 -0.008,0.52c0.002,0.168 0.017,0.335 0.045,0.503c0.028,0.168 0.049,0.349 0.062,0.545c0.013,0.196 0.02,0.392 0.02,0.589c0,0.197 -0.001,0.386 -0.003,0.567c-0.002,0.181 -0.007,0.346 -0.014,0.495c-0.007,0.149 -0.015,0.3 -0.022,0.453c-0.007,0.152 -0.018,0.313 -0.032,0.483c-0.014,0.17 -0.037,0.344 -0.068,0.524c-0.031,0.18 -0.055,0.347 -0.07,0.501c-0.015,0.155 -0.024,0.294 -0.027,0.419c-0.003,0.125 -0.004,0.243 -0.004,0.355l0,0.363c0,0.13 -0.004,0.274 -0.01,0.431c-0.007,0.157 -0.019,0.314 -0.036,0.469c-0.017,0.156 -0.032,0.309 -0.044,0.46c-0.012,0.151 -0.019,0.29 -0.019,0.414c0,0.125 0,0.248 0.003,0.369c0.002,0.121 0.009,0.238 0.021,0.351c0.012,0.113 0.024,0.205 0.036,0.277c0.012,0.072 0.02,0.128 0.023,0.168c0.003,0.04 0.004,0.064 0.004,0.073c0,0.008 -0.007,0.016 -0.02,0.023c-0.013,0.007 -0.071,0.011 -0.172,0.011c-0.101,0 -0.252,-0.001 -0.455,-0.003c-0.202,-0.002 -0.452,-0.026 -0.751,-0.073c-0.299,-0.047 -0.612,-0.093 -0.94,-0.141c-0.328,-0.047 -0.644,-0.074 -0.949,-0.08c-0.305,-0.006 -0.585,-0.009 -0.839,-0.009c-0.255,0 -0.499,-0.004 -0.733,-0.013c-0.234,-0.009 -0.474,-0.03 -0.721,-0.064c-0.247,-0.034 -0.499,-0.055 -0.754,-0.063c-0.255,-0.008 -0.488,-0.013 -0.696,-0.013c-0.209,0 -0.377,0.003 -0.505,0.01c-0.127,0.007 -0.211,0.014 -0.252,0.022c-0.056,0.011 -0.015,0.023 0.124,0.038" style="fill:none;fill-rule:nonzero;stroke:#c2361a;stroke-width:1.7px;"/><path d="M238.82,36.539c0,0.088 0.003,0.249 0.01,0.485c0.007,0.235 -0.025,0.593 -0.097,1.072c-0.072,0.479 -0.246,1.009 -0.523,1.59c-0.277,0.581 -0.549,1.026 -0.819,1.335l-0.201,0.232l0.605,-0.696" style="fill:none;fill-rule:nonzero;stroke:#000;stroke-width:0.85px;"/><path d="M249.845,23.677c0.04,-0.007 0.223,-0.012 0.55,-0.016c0.326,-0.004 0.681,-0.03 1.064,-0.08c0.384,-0.05 0.699,-0.214 0.948,-0.494c0.248,-0.279 0.359,-0.639 0.331,-1.08c-0.027,-0.44 -0.255,-0.739 -0.683,-0.895c-0.428,-0.156 -0.913,-0.054 -1.457,0.306c-0.544,0.361 -0.926,0.935 -1.145,1.725c-0.22,0.789 -0.158,1.529 0.183,2.22c0.342,0.691 0.844,1.153 1.507,1.387c0.965,0.34 1.838,0.16 2.621,-0.539" style="fill:none;fill-rule:nonzero;stroke:#000;stroke-width:0.85px;"/><path d="M256.079,15.955l0,-0.167l0,0.316c0,0.157 0.001,0.748 0.003,1.774c0.002,1.026 0.024,2.133 0.066,3.321c0.042,1.188 0.081,2.111 0.116,2.77c0.036,0.659 0.054,1.027 0.054,1.105c0.001,0.109 -0.069,-0.045 -0.209,-0.46" style="fill:none;fill-rule:nonzero;stroke:#000;stroke-width:0.85px;"/><path d="M255.51,22.408c0.023,-0.221 0.173,-0.429 0.451,-0.623c0.278,-0.194 0.663,-0.272 1.157,-0.234c0.732,0.056 1.427,0.32 2.085,0.79" style="fill:none;fill-rule:nonzero;stroke:#000;stroke-width:0.85px;"/><path d="M261.46,22.015c-0.148,-0.153 -0.342,-0.261 -0.582,-0.324c-0.24,-0.063 -0.509,0.037 -0.806,0.301c-0.297,0.263 -0.545,0.639 -0.743,1.126c-0.199,0.487 -0.263,0.933 -0.192,1.337c0.07,0.404 0.338,0.704 0.802,0.899c0.68,0.286 1.529,0.34 2.547,0.164" style="fill:none;fill-rule:nonzero;stroke:#000;stroke-width:0.85px;"/><path d="M265.113,26.149l-0.066,-0.18l0.066,0.18" style="fill:none;fill-rule:nonzero;stroke:#000;stroke-width:0.85px;"/></svg>