<?xml version="1.0" encoding="UTF-8" standalone="no"?><!DOCTYPE svg PUBLIC "-//W3C//DTD SVG 1.1//EN" "http://www.w3.org/Graphics/SVG/1.1/DTD/svg11.dtd"><svg width="100%" height="100%" viewBox="0 0 305 90" version="1.1" xmlns="http://www.w3.org/2000/svg" xmlns:xlink="http://www.w3.org/1999/xlink" xml:space="preserve" xmlns:serif="http://www.serif.com/" style="fill-rule:evenodd;clip-rule:evenodd;stroke-linecap:round;stroke-linejoin:round;stroke-miterlimit:10;"><rect x="0" y="0" width="305" height="90" style="fill:#fff;"/><path d="M5.206,13.439c-0.086,-0.056 -0.19,-0.119 -0.309,-0.188c-0.078,-0.045 -0.104,0.049 -0.076,0.282c0.028,0.233 0.121,0.65 0.281,1.249c0.159,0.6 0.315,1.277 0.467,2.031c0.152,0.755 0.259,1.513 0.322,2.275c0.062,0.762 0.095,1.498 0.099,2.209c0.003,0.711 -0.001,1.297 -0.012,1.758c-0.012,0.462 -0.019,0.759 -0.022,0.891c-0.003,0.132 -0.009,0.179 -0.018,0.139c-0.013,-0.057 -0.052,-0.237 -0.118,-0.54" style="fill:none;fill-rule:nonzero;stroke:#000;stroke-width:0.85px;"/><path d="M8.302,17.832c0.008,-0.038 -0.015,-0.133 -0.07,-0.285c-0.033,-0.091 -0.046,-0.158 -0.041,-0.2c0.006,-0.042 0.061,-0.077 0.166,-0.104c0.105,-0.027 0.227,-0.041 0.366,-0.04c0.139,0.001 0.268,0.081 0.388,0.241c0.12,0.16 0.253,0.397 0.399,0.712c0.146,0.314 0.322,0.637 0.526,0.968c0.204,0.331 0.445,0.612 0.722,0.841c0.277,0.23 0.612,0.351 1.006,0.365c0.394,0.014 0.82,-0.135 1.279,-0.445c0.459,-0.311 0.871,-0.705 1.236,-1.185c0.365,-0.479 0.618,-0.857 0.761,-1.133l0.107,-0.207l-0.32,0.622" style="fill:none;fill-rule:nonzero;stroke:#000;stroke-width:0.85px;"/><path d="M11.922,15.013c-0.013,0.019 0.044,0.261 0.17,0.724c0.126,0.463 0.268,1.121 0.426,1.973c0.158,0.852 0.252,1.67 0.28,2.455c0.029,0.784 0.043,1.359 0.043,1.723c0,0.364 0.01,0.578 0.03,0.641c0.027,0.086 0.042,0.069 0.046,-0.05" style="fill:none;fill-rule:nonzero;stroke:#000;stroke-width:0.85px;"/><path d="M17.609,21.838c0,-0.1 -0.006,-0.207 -0.017,-0.322c-0.011,-0.115 -0.074,-0.188 -0.188,-0.22c-0.114,-0.031 -0.284,0.019 -0.509,0.151c-0.225,0.132 -0.453,0.386 -0.684,0.764c-0.231,0.377 -0.365,0.768 -0.403,1.174c-0.038,0.405 0.1,0.704 0.414,0.897c0.314,0.193 0.682,0.231 1.105,0.114c0.422,-0.117 0.742,-0.379 0.961,-0.786c0.219,-0.407 0.314,-0.81 0.287,-1.209c-0.04,-0.569 -0.331,-0.873 -0.874,-0.912" style="fill:none;fill-rule:nonzero;stroke:#000;stroke-width:0.85px;"/><path d="M19.251,13.21c-0.088,-0.015 -0.211,-0.065 -0.371,-0.149l-0.061,-0.03l0.134,0.087c0.15,0.092 0.417,0.298 0.802,0.617c0.385,0.319 0.812,0.705 1.282,1.16c0.47,0.454 0.91,0.96 1.321,1.516c0.411,0.556 0.693,1.129 0.848,1.719c0.154,0.59 0.176,1.174 0.064,1.751c-0.112,0.577 -0.338,1.138 -0.679,1.684c-0.341,0.546 -0.723,1.061 -1.148,1.546c-0.425,0.485 -0.779,0.874 -1.064,1.169c-0.284,0.294 -0.527,0.55 -0.727,0.767" style="fill:none;fill-rule:nonzero;stroke:#000;stroke-width:0.85px;"/><path d="M27.371,18.109c-0.107,-0.054 -0.172,-0.122 -0.195,-0.206c-0.016,-0.057 0.16,-0.092 0.526,-0.102c0.366,-0.01 0.865,-0.023 1.496,-0.037c0.631,-0.014 1.238,-0.031 1.819,-0.051c0.582,-0.02 0.943,-0.03 1.083,-0.03c0.19,0 0.168,0.017 -0.066,0.053" style="fill:none;fill-rule:nonzero;stroke:#000;stroke-width:0.85px;"/><path d="M28.372,19.891c-0.039,-0.02 -0.011,-0.03 0.081,-0.03c0.093,-0.001 0.325,-0.002 0.696,-0.004c0.54,-0.003 1.359,-0.043 2.455,-0.121" style="fill:none;fill-rule:nonzero;stroke:#000;stroke-width:0.85px;"/><path d="M45.084,10.375c0,0.032 0.005,0.209 0.014,0.528c0.009,0.32 0.059,0.722 0.15,1.209c0.091,0.486 0.192,0.978 0.303,1.475c0.111,0.498 0.174,0.93 0.19,1.298c0.016,0.368 -0.021,0.677 -0.112,0.928c-0.091,0.251 -0.165,0.355 -0.222,0.311" style="fill:none;fill-rule:nonzero;stroke:#000;stroke-width:0.85px;"/><path d="M40.097,19.147c0.037,0 0.227,-0.001 0.568,-0.003c0.341,-0.002 0.91,-0.022 1.705,-0.059c0.795,-0.037 1.761,-0.096 2.896,-0.178c1.135,-0.082 2.178,-0.157 3.13,-0.226c0.951,-0.069 1.814,-0.098 2.59,-0.087" style="fill:none;fill-rule:nonzero;stroke:#000;stroke-width:0.85px;"/><path d="M38.522,28.378c-0.108,0 -0.231,0.036 -0.367,0.108c-0.136,0.072 -0.238,0.282 -0.303,0.63c-0.066,0.347 -0.049,0.737 0.049,1.167c0.098,0.431 0.343,0.744 0.734,0.94c0.391,0.196 0.845,0.215 1.36,0.058c0.516,-0.158 0.989,-0.512 1.419,-1.064c0.431,-0.552 0.789,-1.172 1.076,-1.86c0.287,-0.688 0.501,-1.322 0.643,-1.901c0.142,-0.579 0.219,-1.013 0.23,-1.303c0.011,-0.29 -0.016,-0.489 -0.082,-0.598c-0.066,-0.109 -0.122,-0.199 -0.167,-0.27c-0.045,-0.071 -0.071,-0.123 -0.077,-0.157c-0.006,-0.033 -0.009,-0.052 -0.009,-0.055l0,-0.004c0,0 0.01,0.009 0.031,0.027c0.02,0.018 0.057,0.087 0.109,0.206c0.052,0.12 0.138,0.319 0.256,0.6c0.119,0.28 0.269,0.646 0.452,1.096c0.183,0.451 0.357,0.976 0.521,1.577c0.165,0.601 0.302,1.185 0.411,1.753c0.109,0.568 0.19,1.028 0.243,1.38c0.053,0.352 0.083,0.604 0.089,0.756c0.006,0.152 0.016,0.241 0.03,0.267c0.014,0.025 0.049,0.02 0.105,-0.016c0.056,-0.036 0.123,-0.129 0.201,-0.278c0.078,-0.149 0.153,-0.353 0.227,-0.614c0.073,-0.261 0.137,-0.585 0.19,-0.974c0.054,-0.389 0.119,-0.89 0.195,-1.505c0.077,-0.614 0.18,-1.312 0.309,-2.093c0.13,-0.781 0.268,-1.459 0.415,-2.034c0.148,-0.575 0.327,-0.967 0.537,-1.174c0.211,-0.207 0.478,-0.316 0.802,-0.326c0.324,-0.01 0.67,0.045 1.036,0.165c0.367,0.12 0.691,0.253 0.973,0.398c0.282,0.146 0.476,0.294 0.582,0.444c0.106,0.15 0.138,0.322 0.095,0.514c-0.043,0.193 -0.175,0.396 -0.396,0.61c-0.221,0.214 -0.431,0.401 -0.628,0.561l-0.148,0.12l0.444,-0.36" style="fill:none;fill-rule:nonzero;stroke:#000;stroke-width:0.85px;"/><path d="M58.734,4.031c-0.099,-0.037 -0.243,-0.091 -0.432,-0.16c-0.188,-0.069 -0.428,-0.114 -0.72,-0.136c-0.292,-0.021 -0.603,-0.032 -0.934,-0.032c-0.331,0 -0.623,0.013 -0.877,0.04c-0.254,0.027 -0.482,0.107 -0.685,0.239c-0.203,0.132 -0.388,0.296 -0.555,0.491c-0.167,0.196 -0.306,0.401 -0.418,0.617c-0.112,0.216 -0.179,0.446 -0.202,0.689c-0.023,0.244 -0.013,0.527 0.028,0.849c0.041,0.323 0.112,0.71 0.213,1.161c0.101,0.451 0.19,0.945 0.267,1.481c0.076,0.536 0.137,1.062 0.182,1.578c0.045,0.516 0.071,1.01 0.077,1.481c0.006,0.471 0.009,0.928 0.009,1.371c0,0.443 0.012,0.868 0.034,1.276c0.023,0.408 0.054,0.821 0.093,1.24c0.04,0.419 0.061,0.862 0.064,1.329c0.003,0.467 -0.008,0.937 -0.033,1.41c-0.025,0.473 -0.047,0.929 -0.065,1.37c-0.018,0.441 -0.027,0.885 -0.027,1.334c0,0.449 -0.001,0.893 -0.001,1.332c0,0.439 -0.026,0.877 -0.079,1.314c-0.053,0.437 -0.115,0.863 -0.187,1.277c-0.072,0.414 -0.114,0.8 -0.129,1.158c-0.014,0.358 -0.011,0.693 0.01,1.004c0.02,0.312 0.039,0.622 0.054,0.93c0.016,0.309 0.018,0.644 0.007,1.006c-0.011,0.362 -0.038,0.708 -0.082,1.036c-0.043,0.329 -0.076,0.612 -0.099,0.851c-0.023,0.239 -0.036,0.447 -0.039,0.624c-0.003,0.177 -0.01,0.34 -0.022,0.488c-0.012,0.148 -0.033,0.31 -0.063,0.484c-0.031,0.174 -0.074,0.35 -0.129,0.528c-0.055,0.178 -0.105,0.332 -0.15,0.463c-0.044,0.131 -0.075,0.241 -0.09,0.329c-0.016,0.088 -0.025,0.176 -0.028,0.263c-0.003,0.087 -0.001,0.181 0.006,0.283c0.007,0.102 0.02,0.2 0.039,0.295c0.019,0.095 0.033,0.189 0.04,0.282c0.008,0.093 0.021,0.173 0.039,0.242c0.019,0.069 0.074,0.117 0.165,0.143c0.091,0.026 0.239,0.034 0.444,0.023c0.205,-0.011 0.462,-0.055 0.772,-0.133c0.31,-0.078 0.627,-0.154 0.952,-0.228c0.325,-0.074 0.534,-0.117 0.627,-0.128c0.094,-0.011 0.156,0.009 0.187,0.06" style="fill:none;fill-rule:nonzero;stroke:#000;stroke-width:0.85px;"/><path d="M65.275,13.153l-0.487,0l1.016,0c0.372,0 0.734,0.007 1.084,0.021c0.351,0.014 0.728,0.031 1.132,0.05c0.404,0.02 0.842,0.031 1.313,0.034c0.471,0.003 0.968,0.004 1.489,0.004c0.521,0 1.054,-0.005 1.598,-0.017c0.544,-0.011 1.054,-0.041 1.53,-0.089c0.476,-0.048 0.893,-0.075 1.251,-0.082c0.358,-0.006 0.718,-0.009 1.078,-0.009l4.762,0c0.357,0 0.733,-0.007 1.127,-0.02c0.394,-0.014 0.806,-0.045 1.237,-0.096c0.43,-0.05 0.827,-0.091 1.19,-0.121c0.363,-0.03 0.685,-0.045 0.967,-0.043c0.282,0.002 0.567,0.021 0.855,0.058c0.288,0.037 0.597,0.065 0.926,0.084c0.329,0.019 0.655,0.024 0.977,0.015c0.322,-0.009 0.611,-0.036 0.867,-0.081c0.256,-0.045 0.452,-0.074 0.588,-0.085c0.136,-0.011 0.244,-0.017 0.324,-0.017c0.117,0 0.313,-0.004 0.589,-0.01" style="fill:none;fill-rule:nonzero;stroke:#000;stroke-width:0.85px;"/><path d="M65.209,28.794c0.049,-0.053 0.223,-0.061 0.52,-0.023c0.298,0.038 0.709,0.059 1.235,0.062c0.525,0.003 1.115,0.013 1.77,0.029c0.654,0.016 1.288,0.047 1.9,0.092c0.612,0.045 1.224,0.077 1.835,0.096c0.611,0.019 1.236,0.009 1.876,-0.03c0.64,-0.039 1.222,-0.079 1.748,-0.119c0.526,-0.041 0.996,-0.061 1.412,-0.062c0.416,-0.001 0.83,-0.001 1.242,-0.001c0.412,0 0.829,-0.006 1.251,-0.017c0.421,-0.012 0.796,-0.019 1.126,-0.022c0.33,-0.003 0.628,0.002 0.894,0.016c0.266,0.014 0.548,0.037 0.845,0.072c0.297,0.034 0.626,0.053 0.989,0.056c0.362,0.003 0.74,-0.005 1.134,-0.026c0.394,-0.021 0.767,-0.046 1.119,-0.076c0.352,-0.03 0.674,-0.045 0.965,-0.046c0.291,-0.001 0.589,0.002 0.894,0.006c0.305,0.005 0.634,0.008 0.986,0.011c0.353,0.003 0.728,0 1.126,-0.009c0.398,-0.009 0.772,-0.029 1.123,-0.061c0.351,-0.031 0.615,-0.047 0.793,-0.046c0.177,0.001 0.296,0.034 0.357,0.1c0.083,0.089 0.102,0.044 0.055,-0.135" style="fill:none;fill-rule:nonzero;stroke:#000;stroke-width:0.85px;"/><path d="M65.034,20.219c-0.025,-0.038 0.14,-0.057 0.497,-0.059c0.357,-0.002 0.777,0.019 1.26,0.063c0.483,0.044 1.079,0.069 1.788,0.075c0.709,0.006 1.452,0.007 2.228,0.002c0.777,-0.005 1.484,-0.008 2.121,-0.011c0.637,-0.003 1.23,-0.004 1.779,-0.004l8.541,0c0.321,0 0.646,0.002 0.973,0.007c0.327,0.004 0.67,0.012 1.029,0.021c0.359,0.01 0.73,0.015 1.113,0.015c0.383,0 0.759,-0.006 1.127,-0.02c0.368,-0.014 0.723,-0.041 1.064,-0.082c0.341,-0.041 0.659,-0.067 0.953,-0.078c0.294,-0.011 0.523,-0.016 0.686,-0.013c0.163,0.002 0.302,0.006 0.416,0.011c0.114,0.005 0.239,0.008 0.375,0.008l0.744,0c0.125,0 0.211,-0.074 0.255,-0.223" style="fill:none;fill-rule:nonzero;stroke:#000;stroke-width:0.85px;"/><path d="M71.181,8.253l0,-0.448c0,-0.036 -0.007,-0.054 -0.02,-0.054c-0.014,-0.001 -0.034,-0.001 -0.061,-0.001c-0.027,0 -0.042,0.005 -0.045,0.017c-0.003,0.011 -0.005,0.088 -0.005,0.23c0,0.142 0.001,0.383 0.003,0.723c0.002,0.339 0.012,0.737 0.028,1.193c0.017,0.456 0.027,0.957 0.03,1.505c0.003,0.548 0.004,1.069 0.004,1.563l0,3.576c0,0.382 0.006,0.727 0.017,1.034c0.011,0.307 0.022,0.589 0.033,0.844c0.01,0.255 0.001,0.555 -0.029,0.899c-0.029,0.343 -0.074,0.699 -0.133,1.067c-0.059,0.368 -0.091,0.702 -0.098,1.001c-0.006,0.3 -0.002,0.577 0.014,0.833c0.016,0.256 0.047,0.515 0.093,0.777c0.046,0.262 0.08,0.526 0.103,0.791c0.023,0.265 0.035,0.514 0.038,0.747c0.003,0.232 0.003,0.456 0.001,0.673c-0.002,0.216 -0.009,0.452 -0.021,0.708c-0.012,0.256 -0.018,0.532 -0.018,0.828c0,0.296 -0.003,0.578 -0.007,0.847c-0.004,0.269 -0.025,0.536 -0.063,0.803c-0.038,0.267 -0.074,0.539 -0.109,0.816c-0.035,0.277 -0.054,0.547 -0.057,0.81c-0.003,0.263 -0.005,0.503 -0.005,0.719c0,0.216 -0.001,0.402 -0.003,0.557c-0.002,0.155 -0.006,0.304 -0.011,0.447c-0.005,0.143 -0.01,0.298 -0.015,0.465c-0.005,0.167 -0.015,0.34 -0.032,0.52c-0.016,0.18 -0.036,0.337 -0.058,0.471c-0.022,0.134 -0.037,0.224 -0.045,0.271c-0.008,0.047 -0.016,0.061 -0.024,0.043c-0.011,-0.025 -0.047,-0.105 -0.106,-0.239" style="fill:none;fill-rule:nonzero;stroke:#000;stroke-width:0.85px;"/><path d="M79.188,7.728c-0.097,0.008 -0.143,0.213 -0.136,0.616c0.007,0.403 0.018,0.883 0.032,1.441c0.015,0.558 0.034,1.131 0.058,1.721c0.024,0.589 0.05,1.145 0.079,1.668c0.029,0.523 0.061,1.006 0.094,1.449c0.034,0.443 0.068,0.858 0.102,1.246c0.034,0.388 0.055,0.779 0.064,1.175c0.008,0.395 -0.003,0.815 -0.035,1.261c-0.032,0.445 -0.088,0.892 -0.168,1.34c-0.08,0.448 -0.13,0.863 -0.149,1.246c-0.019,0.383 -0.025,0.705 -0.016,0.967c0.009,0.262 0.023,0.505 0.043,0.731c0.02,0.226 0.03,0.467 0.03,0.724c0,0.257 -0.007,0.532 -0.02,0.827c-0.014,0.294 -0.025,0.622 -0.033,0.982c-0.008,0.36 -0.012,0.714 -0.012,1.061c0,0.347 -0.007,0.639 -0.021,0.878c-0.014,0.238 -0.034,0.448 -0.06,0.63c-0.026,0.182 -0.051,0.418 -0.073,0.707c-0.022,0.289 -0.043,0.621 -0.062,0.997c-0.019,0.375 -0.042,0.711 -0.069,1.008c-0.027,0.296 -0.048,0.527 -0.063,0.692c-0.015,0.165 -0.023,0.3 -0.023,0.405l0,1.157c0,0.105 0.059,0.051 0.179,-0.163" style="fill:none;fill-rule:nonzero;stroke:#000;stroke-width:0.85px;"/><path d="M87.434,7.159c-0.072,0 -0.158,0.026 -0.258,0.079c-0.1,0.052 -0.174,0.19 -0.221,0.414c-0.047,0.223 -0.074,0.578 -0.08,1.063c-0.006,0.485 0.011,1.072 0.053,1.76c0.041,0.688 0.098,1.356 0.171,2.004c0.073,0.647 0.134,1.245 0.184,1.792c0.05,0.547 0.085,1.078 0.105,1.593c0.02,0.514 0.035,0.978 0.045,1.39c0.01,0.413 0.016,0.792 0.019,1.138c0.003,0.346 0.004,0.695 0.004,1.047c0,0.352 -0.002,0.705 -0.007,1.06c-0.005,0.355 -0.008,0.699 -0.011,1.033c-0.003,0.334 -0.004,0.672 -0.004,1.014l0,2.381c0,0.2 -0.006,0.423 -0.017,0.67c-0.011,0.248 -0.036,0.533 -0.074,0.857c-0.038,0.324 -0.069,0.661 -0.092,1.013c-0.023,0.352 -0.035,0.666 -0.035,0.942c0,0.276 -0.001,0.501 -0.001,0.675l0,0.489c0,0.153 0.003,0.318 0.01,0.497c0.007,0.179 0.014,0.367 0.022,0.566c0.008,0.199 0.012,0.393 0.012,0.584l0,2.26c0,0.084 0.009,0.051 0.028,-0.1" style="fill:none;fill-rule:nonzero;stroke:#000;stroke-width:0.85px;"/><path d="M59.784,6.788c-0.004,0 -0.022,0.168 -0.053,0.505c-0.031,0.337 -0.048,0.775 -0.051,1.313c-0.003,0.538 -0.005,1.119 -0.005,1.742l0,6.428c0,0.404 0.002,0.819 0.007,1.245c0.005,0.427 0.008,0.853 0.011,1.279c0.003,0.426 0.004,0.857 0.004,1.294l0,4.499c0,0.217 -0.004,0.514 -0.014,0.892c-0.009,0.378 -0.03,0.805 -0.064,1.282c-0.034,0.477 -0.059,0.908 -0.077,1.292c-0.018,0.384 -0.038,0.709 -0.062,0.975c-0.024,0.266 -0.048,0.507 -0.072,0.721c-0.025,0.215 -0.043,0.443 -0.056,0.684c-0.013,0.242 -0.02,0.506 -0.023,0.795c-0.003,0.288 -0.004,0.54 -0.004,0.756l0,0.885c0,0.146 -0.009,0.316 -0.028,0.51c-0.019,0.194 -0.03,0.317 -0.033,0.37c-0.004,0.073 0.032,-0.001 0.11,-0.223" style="fill:none;fill-rule:nonzero;stroke:#000;stroke-width:0.85px;"/><path d="M96.304,5.569c-0.045,-0.084 -0.124,-0.147 -0.236,-0.188c-0.075,-0.027 -0.109,0.047 -0.103,0.225c0.006,0.177 0.104,0.409 0.294,0.696c0.19,0.287 0.412,0.607 0.666,0.962c0.254,0.355 0.535,0.745 0.841,1.17c0.306,0.425 0.646,0.873 1.021,1.344c0.375,0.47 0.775,0.923 1.201,1.358c0.427,0.435 0.849,0.852 1.269,1.25c0.419,0.399 0.792,0.82 1.12,1.263c0.327,0.444 0.618,0.853 0.872,1.23c0.254,0.376 0.525,0.659 0.813,0.849c0.288,0.19 0.549,0.324 0.783,0.404c0.234,0.079 0.428,0.187 0.581,0.322c0.153,0.135 0.302,0.302 0.447,0.5c0.146,0.198 0.31,0.382 0.493,0.552c0.184,0.17 0.346,0.311 0.488,0.425c0.141,0.113 0.249,0.212 0.324,0.295c0.074,0.083 0.14,0.169 0.196,0.256c0.057,0.087 0.104,0.168 0.141,0.241c0.038,0.074 0.058,0.143 0.061,0.209c0.004,0.066 -0.017,0.139 -0.063,0.221c-0.046,0.082 -0.146,0.191 -0.303,0.33c-0.156,0.138 -0.387,0.345 -0.691,0.621c-0.305,0.276 -0.683,0.638 -1.133,1.087c-0.45,0.449 -0.916,0.953 -1.398,1.513c-0.481,0.56 -0.928,1.163 -1.339,1.809c-0.412,0.646 -0.784,1.3 -1.118,1.963c-0.334,0.663 -0.63,1.223 -0.89,1.68c-0.26,0.457 -0.509,0.807 -0.748,1.051c-0.238,0.243 -0.478,0.494 -0.718,0.751c-0.24,0.258 -0.484,0.556 -0.73,0.894c-0.246,0.338 -0.442,0.643 -0.588,0.915c-0.146,0.272 -0.236,0.475 -0.271,0.611c-0.035,0.136 -0.073,0.259 -0.115,0.37c-0.042,0.111 -0.114,0.238 -0.217,0.38c-0.103,0.142 -0.209,0.295 -0.319,0.457c-0.11,0.163 -0.188,0.288 -0.235,0.377c-0.046,0.088 -0.071,0.144 -0.075,0.165c-0.003,0.021 -0.005,0.038 -0.005,0.05c0,0.016 -0.036,0.018 -0.108,0.006" style="fill:none;fill-rule:nonzero;stroke:#000;stroke-width:0.85px;"/><path d="M111.584,19.344l-0.236,0c-0.069,0 -0.101,-0.003 -0.095,-0.01c0.005,-0.007 0.086,-0.014 0.244,-0.022c0.157,-0.008 0.425,-0.012 0.805,-0.012c0.38,0 0.856,-0.001 1.429,-0.003c0.573,-0.002 1.159,-0.03 1.756,-0.084l0.449,-0.04l-1.345,0.121" style="fill:none;fill-rule:nonzero;stroke:#000;stroke-width:0.85px;"/><path d="M114.428,16.916c-0.07,0.079 -0.127,0.309 -0.172,0.689c-0.045,0.381 -0.061,0.836 -0.048,1.367c0.013,0.53 0.062,0.998 0.147,1.403c0.085,0.405 0.146,0.661 0.182,0.766c0.05,0.148 0.165,0.157 0.344,0.029" style="fill:none;fill-rule:nonzero;stroke:#000;stroke-width:0.85px;"/><path d="M131.04,12.711c0.026,-0.07 0.009,-0.139 -0.051,-0.209c-0.04,-0.047 -0.097,-0.066 -0.169,-0.058c-0.073,0.009 -0.149,0.029 -0.228,0.061c-0.08,0.031 -0.175,0.053 -0.285,0.066c-0.11,0.012 -0.24,0.031 -0.39,0.054c-0.15,0.024 -0.28,0.047 -0.39,0.069c-0.109,0.022 -0.178,0.035 -0.204,0.038c-0.027,0.003 -0.008,0.005 0.058,0.005l7.432,0c0.511,0 1.016,-0.003 1.516,-0.01c0.5,-0.007 0.968,-0.018 1.403,-0.032c0.435,-0.015 0.856,-0.022 1.265,-0.023l2.62,0c0.457,0 0.908,-0.017 1.354,-0.052c0.446,-0.034 0.847,-0.073 1.204,-0.115c0.356,-0.043 0.678,-0.064 0.967,-0.065c0.288,-0.001 0.574,0.007 0.858,0.023c0.284,0.017 0.586,0.027 0.905,0.03c0.32,0.003 0.637,-0.009 0.951,-0.037c0.314,-0.028 0.608,-0.053 0.883,-0.076c0.274,-0.023 0.536,-0.035 0.787,-0.035c0.25,0 0.493,-0.001 0.727,-0.001l1.102,0c0.108,0 0.19,0.003 0.246,0.01l0.041,0.005l-0.125,-0.015" style="fill:none;fill-rule:nonzero;stroke:#000;stroke-width:0.85px;"/><path d="M129.631,20.634c-0.147,0.037 -0.309,0.087 -0.483,0.15c-0.174,0.062 -0.287,0.096 -0.337,0.1c-0.05,0.004 -0.062,-0.023 -0.038,-0.081c0.024,-0.058 0.066,-0.117 0.124,-0.176c0.058,-0.059 0.093,-0.095 0.105,-0.106c0.011,-0.011 0.017,-0.017 0.017,-0.017l1.651,0c0.501,0 1.073,0.013 1.714,0.038c0.642,0.025 1.339,0.051 2.091,0.076c0.752,0.025 1.518,0.035 2.297,0.029c0.779,-0.006 1.494,-0.042 2.147,-0.108c0.652,-0.066 1.237,-0.138 1.754,-0.216c0.517,-0.078 1,-0.142 1.449,-0.192c0.449,-0.05 0.889,-0.082 1.32,-0.095c0.431,-0.013 0.834,-0.027 1.211,-0.041c0.376,-0.014 0.737,-0.043 1.083,-0.085c0.346,-0.043 0.701,-0.094 1.067,-0.155c0.365,-0.06 0.738,-0.109 1.118,-0.147c0.38,-0.038 0.735,-0.058 1.065,-0.062c0.33,-0.003 0.627,-0.003 0.889,0.002c0.263,0.005 0.507,0.008 0.734,0.011c0.227,0.003 0.453,0.004 0.679,0.004l1.421,0c0.236,0 0.458,-0.001 0.666,-0.003c0.207,-0.002 0.419,-0.019 0.634,-0.049c0.216,-0.031 0.423,-0.062 0.622,-0.094c0.198,-0.032 0.352,-0.052 0.46,-0.06c0.109,-0.008 0.172,-0.013 0.19,-0.013c0.018,0 0.004,0.006 -0.042,0.02c-0.065,0.019 -0.198,0.079 -0.398,0.179" style="fill:none;fill-rule:nonzero;stroke:#000;stroke-width:0.85px;"/><path d="M128.015,29.147c-0.091,0.069 -0.164,0.138 -0.22,0.209c-0.037,0.048 0.042,0.042 0.238,-0.018c0.195,-0.059 0.416,-0.13 0.663,-0.211c0.247,-0.081 0.475,-0.141 0.685,-0.179c0.21,-0.038 0.438,-0.059 0.686,-0.062c0.248,-0.003 0.537,0 0.867,0.008c0.33,0.009 0.697,0.036 1.1,0.081c0.403,0.045 0.834,0.077 1.292,0.095c0.458,0.018 0.909,0.028 1.353,0.028l2.332,0c0.343,0 0.698,0.001 1.064,0.003c0.366,0.002 0.742,0.015 1.128,0.038c0.386,0.023 0.782,0.047 1.19,0.072c0.407,0.025 0.813,0.041 1.217,0.049c0.405,0.008 0.796,0.012 1.173,0.012l5.164,0c0.543,0 1.091,-0.008 1.643,-0.024c0.552,-0.016 1.069,-0.035 1.551,-0.057c0.483,-0.022 0.925,-0.037 1.329,-0.045c0.403,-0.008 0.788,-0.014 1.154,-0.019c0.366,-0.005 0.699,-0.008 1.001,-0.008l1.091,0c0.051,0 0.055,-0.004 0.013,-0.011c-0.06,-0.01 -0.248,-0.042 -0.565,-0.097" style="fill:none;fill-rule:nonzero;stroke:#000;stroke-width:0.85px;"/><path d="M133.591,7.991c0.032,0.044 0.11,0.056 0.235,0.035c0.126,-0.02 0.201,0.06 0.228,0.24c0.026,0.18 0.039,0.485 0.039,0.914c0.001,0.429 0.001,0.933 0.001,1.513l0,3.399c0,0.498 0.008,0.947 0.024,1.345c0.016,0.399 0.043,0.801 0.082,1.208c0.038,0.407 0.063,0.82 0.074,1.239c0.011,0.419 0.014,0.802 0.01,1.15c-0.004,0.348 -0.023,0.671 -0.056,0.968c-0.034,0.297 -0.054,0.606 -0.06,0.925c-0.006,0.32 -0.004,0.67 0.005,1.052c0.009,0.382 0.017,0.741 0.022,1.077c0.006,0.336 0.008,0.638 0.008,0.905c0,0.267 -0.001,0.543 -0.003,0.831c-0.002,0.287 -0.006,0.607 -0.011,0.961c-0.005,0.354 -0.008,0.685 -0.008,0.994l0,1.367c0,0.173 0.004,0.369 0.011,0.588c0.006,0.219 0.014,0.453 0.021,0.7c0.008,0.248 0.013,0.474 0.015,0.678c0.003,0.204 0.011,0.388 0.025,0.551c0.014,0.164 0.028,0.33 0.04,0.5c0.012,0.17 0.019,0.35 0.019,0.541c0,0.191 0.001,0.375 0.001,0.552l0,0.371c0,0.098 0.012,0.055 0.037,-0.126" style="fill:none;fill-rule:nonzero;stroke:#000;stroke-width:0.85px;"/><path d="M141.925,7.816c0.061,-0.051 0.122,-0.109 0.183,-0.175c0.061,-0.066 0.093,-0.051 0.097,0.045c0.003,0.096 -0.008,0.394 -0.033,0.893c-0.025,0.5 -0.06,1.173 -0.104,2.02c-0.044,0.847 -0.071,1.735 -0.082,2.665c-0.012,0.93 -0.017,1.779 -0.017,2.547c0,0.767 0.011,1.448 0.035,2.043c0.023,0.594 0.038,1.145 0.043,1.652c0.006,0.507 0.009,1.011 0.009,1.512l0,9.829c0,0.17 -0.001,0.35 -0.003,0.541c-0.002,0.191 -0.009,0.393 -0.021,0.607c-0.012,0.214 -0.019,0.397 -0.019,0.551l0,0.374c0,0.137 -0.175,0.387 -0.525,0.75" style="fill:none;fill-rule:nonzero;stroke:#000;stroke-width:0.85px;"/><path d="M150.719,7.466c-0.002,-0.019 -0.007,-0.095 -0.015,-0.228c-0.005,-0.075 -0.007,-0.114 -0.007,-0.117c0,-0.003 0,0.005 0,0.026l0,0.865c0,0.393 0.001,0.801 0.003,1.222c0.002,0.422 0.012,0.847 0.029,1.276c0.016,0.429 0.026,0.849 0.029,1.26c0.003,0.411 0.009,0.796 0.018,1.153c0.009,0.357 0.036,0.683 0.081,0.977c0.045,0.294 0.084,0.554 0.117,0.779c0.033,0.225 0.05,0.452 0.05,0.68c0.001,0.228 0.001,0.452 0.001,0.671l0,1.313c0,0.214 -0.003,0.424 -0.01,0.629c-0.007,0.205 -0.014,0.402 -0.022,0.592c-0.008,0.19 -0.012,0.389 -0.012,0.597l0,1.793c0,0.172 0.003,0.371 0.007,0.597c0.005,0.226 0.009,0.479 0.011,0.76c0.003,0.281 0.004,0.558 0.004,0.831l0,2.135c0,0.258 -0.001,0.554 -0.003,0.89c-0.002,0.335 -0.016,0.654 -0.042,0.956c-0.026,0.302 -0.043,0.543 -0.052,0.723c-0.008,0.18 -0.012,0.324 -0.012,0.431l0,0.419c0,0.172 -0.007,0.394 -0.021,0.668c-0.014,0.274 -0.03,0.558 -0.05,0.852c-0.02,0.294 -0.031,0.577 -0.034,0.848c-0.003,0.271 -0.005,0.518 -0.005,0.741c0,0.224 0.007,0.423 0.021,0.6c0.014,0.176 0.032,0.342 0.054,0.499c0.022,0.156 0.033,0.292 0.034,0.408c0.001,0.116 0.001,0.205 0.001,0.269l0.001,0.043l0.005,-0.062c0.005,-0.109 0.023,-0.452 0.053,-1.028" style="fill:none;fill-rule:nonzero;stroke:#000;stroke-width:0.85px;"/><path d="M122.981,5.3c-0.11,0.025 -0.124,0.208 -0.042,0.552c0.083,0.343 0.138,0.74 0.166,1.191c0.028,0.451 0.044,0.942 0.047,1.474c0.003,0.532 -0.012,1.097 -0.044,1.696c-0.032,0.599 -0.061,1.176 -0.087,1.731c-0.026,0.555 -0.039,1.053 -0.039,1.494c0,0.441 0.006,0.886 0.02,1.333c0.014,0.448 0.022,0.907 0.022,1.379c0.001,0.472 -0.003,0.911 -0.012,1.318c-0.009,0.407 -0.033,0.78 -0.071,1.119c-0.038,0.339 -0.069,0.698 -0.092,1.075c-0.022,0.377 -0.035,0.746 -0.038,1.108c-0.003,0.362 -0.005,0.675 -0.005,0.939l0,3.971c0,0.286 -0.018,0.586 -0.055,0.901c-0.037,0.315 -0.076,0.625 -0.119,0.93c-0.042,0.305 -0.067,0.603 -0.075,0.894c-0.009,0.291 -0.013,0.583 -0.013,0.875l0,1.406c0,0.159 0.004,0.312 0.014,0.462c0.009,0.149 0.016,0.326 0.021,0.528c0.006,0.203 0.008,0.392 0.009,0.566l0,2.165l0.001,-0.024c0.001,-0.032 0.005,-0.097 0.012,-0.197" style="fill:none;fill-rule:nonzero;stroke:#000;stroke-width:0.85px;"/><path d="M156.296,5.388c-0.054,-0.066 -0.108,-0.127 -0.163,-0.184l-0.017,-0.019l0.082,0.073c0.079,0.074 0.22,0.239 0.422,0.495c0.202,0.257 0.429,0.542 0.679,0.858c0.25,0.315 0.532,0.701 0.845,1.157c0.314,0.456 0.641,0.947 0.981,1.471c0.341,0.524 0.661,1.026 0.962,1.505c0.301,0.479 0.57,0.936 0.806,1.372c0.235,0.436 0.462,0.853 0.68,1.251c0.218,0.398 0.457,0.779 0.715,1.142c0.259,0.363 0.525,0.715 0.797,1.056c0.272,0.341 0.52,0.674 0.744,1.001c0.225,0.327 0.405,0.635 0.541,0.925c0.136,0.29 0.27,0.541 0.404,0.752c0.133,0.211 0.276,0.383 0.428,0.515c0.152,0.133 0.29,0.283 0.414,0.451c0.124,0.168 0.219,0.338 0.287,0.51c0.067,0.172 0.13,0.314 0.187,0.428c0.058,0.114 0.113,0.201 0.165,0.261c0.052,0.06 0.096,0.109 0.133,0.145c0.037,0.037 0.064,0.077 0.082,0.12c0.018,0.044 0.032,0.087 0.045,0.131c0.012,0.044 0.028,0.084 0.047,0.121c0.019,0.037 0.036,0.067 0.051,0.089c0.015,0.022 0.027,0.044 0.037,0.066c0.01,0.022 0.015,0.052 0.015,0.09c0.001,0.038 -0.007,0.104 -0.023,0.198c-0.015,0.094 -0.084,0.244 -0.206,0.449c-0.122,0.205 -0.279,0.466 -0.472,0.785c-0.192,0.319 -0.405,0.693 -0.637,1.122c-0.232,0.429 -0.477,0.882 -0.733,1.36c-0.257,0.478 -0.518,0.964 -0.783,1.459c-0.265,0.495 -0.509,0.995 -0.733,1.498c-0.223,0.504 -0.414,0.974 -0.571,1.412c-0.158,0.438 -0.315,0.829 -0.473,1.173c-0.157,0.344 -0.316,0.641 -0.476,0.888c-0.161,0.248 -0.318,0.508 -0.471,0.78c-0.154,0.272 -0.312,0.585 -0.474,0.937c-0.163,0.353 -0.324,0.704 -0.485,1.055c-0.16,0.351 -0.303,0.663 -0.429,0.937c-0.126,0.274 -0.224,0.495 -0.294,0.664c-0.07,0.169 -0.114,0.295 -0.13,0.378c-0.016,0.083 -0.033,0.156 -0.049,0.219c-0.016,0.063 -0.045,0.149 -0.088,0.258c-0.043,0.109 -0.089,0.238 -0.139,0.386c-0.049,0.148 -0.043,0.224 0.019,0.229" style="fill:none;fill-rule:nonzero;stroke:#000;stroke-width:0.85px;"/><path d="M195.53,13.105c0.026,-0.07 0.009,-0.139 -0.051,-0.208c-0.041,-0.047 -0.097,-0.067 -0.169,-0.058c-0.073,0.009 -0.149,0.029 -0.228,0.061c-0.08,0.031 -0.175,0.053 -0.285,0.066c-0.11,0.012 -0.241,0.031 -0.39,0.054c-0.15,0.024 -0.28,0.047 -0.39,0.069c-0.109,0.022 -0.178,0.035 -0.205,0.038c-0.026,0.003 -0.007,0.005 0.059,0.005l7.432,0c0.511,0 1.016,-0.003 1.516,-0.01c0.5,-0.007 0.968,-0.018 1.403,-0.032c0.434,-0.015 0.856,-0.022 1.264,-0.023c0.409,0 0.834,-0.001 1.275,-0.001l1.346,0c0.457,0 0.908,-0.017 1.354,-0.051c0.446,-0.034 0.847,-0.073 1.203,-0.115c0.357,-0.043 0.679,-0.064 0.968,-0.066c0.288,-0.001 0.574,0.007 0.858,0.023c0.284,0.017 0.586,0.027 0.905,0.03c0.32,0.003 0.637,-0.009 0.951,-0.037c0.314,-0.028 0.608,-0.053 0.882,-0.076c0.274,-0.023 0.537,-0.035 0.788,-0.035l1.829,0c0.108,0 0.19,0.003 0.245,0.01l0.042,0.005l-0.125,-0.015" style="fill:none;fill-rule:nonzero;stroke:#000;stroke-width:0.85px;"/><path d="M194.121,21.028c-0.148,0.037 -0.309,0.087 -0.483,0.15c-0.174,0.062 -0.287,0.096 -0.337,0.1c-0.05,0.004 -0.062,-0.023 -0.038,-0.081c0.024,-0.058 0.065,-0.117 0.124,-0.177c0.058,-0.059 0.093,-0.095 0.105,-0.106c0.011,-0.011 0.017,-0.017 0.017,-0.017l1.651,0c0.501,0 1.072,0.013 1.714,0.038c0.642,0.025 1.339,0.051 2.091,0.076c0.752,0.025 1.518,0.035 2.297,0.029c0.779,-0.006 1.494,-0.042 2.147,-0.108c0.652,-0.066 1.237,-0.138 1.754,-0.216c0.517,-0.078 1,-0.142 1.449,-0.192c0.449,-0.05 0.889,-0.081 1.319,-0.095c0.431,-0.013 0.835,-0.027 1.212,-0.041c0.376,-0.014 0.737,-0.043 1.083,-0.085c0.346,-0.043 0.701,-0.094 1.067,-0.155c0.365,-0.06 0.738,-0.11 1.118,-0.147c0.38,-0.038 0.735,-0.058 1.065,-0.062c0.33,-0.003 0.627,-0.003 0.889,0.002c0.263,0.005 0.507,0.008 0.734,0.011c0.227,0.003 0.453,0.004 0.679,0.004l1.421,0c0.236,0 0.458,-0.001 0.665,-0.003c0.208,-0.002 0.42,-0.018 0.635,-0.049c0.216,-0.031 0.423,-0.062 0.622,-0.094c0.198,-0.032 0.351,-0.052 0.46,-0.06c0.108,-0.008 0.172,-0.013 0.19,-0.013c0.017,0 0.004,0.007 -0.042,0.02c-0.065,0.019 -0.198,0.079 -0.399,0.179" style="fill:none;fill-rule:nonzero;stroke:#000;stroke-width:0.85px;"/><path d="M192.505,29.541c-0.091,0.069 -0.165,0.138 -0.22,0.209c-0.037,0.048 0.042,0.042 0.238,-0.018c0.195,-0.059 0.416,-0.13 0.663,-0.211c0.247,-0.081 0.475,-0.141 0.685,-0.179c0.209,-0.038 0.438,-0.059 0.686,-0.062c0.248,-0.003 0.537,-0.001 0.867,0.008c0.33,0.009 0.697,0.036 1.1,0.081c0.403,0.045 0.834,0.077 1.292,0.095c0.458,0.018 0.909,0.028 1.353,0.028l2.332,0c0.343,0 0.698,0.001 1.064,0.003c0.366,0.002 0.742,0.015 1.128,0.039c0.385,0.023 0.782,0.047 1.19,0.072c0.407,0.025 0.813,0.041 1.217,0.049c0.404,0.008 0.795,0.012 1.173,0.012l5.164,0c0.543,0 1.091,-0.008 1.643,-0.024c0.552,-0.016 1.069,-0.035 1.551,-0.058c0.483,-0.022 0.925,-0.037 1.329,-0.045c0.403,-0.008 0.788,-0.014 1.154,-0.019c0.365,-0.005 0.699,-0.008 1.001,-0.008l1.091,0c0.051,0 0.055,-0.004 0.013,-0.011c-0.06,-0.01 -0.248,-0.043 -0.565,-0.097" style="fill:none;fill-rule:nonzero;stroke:#000;stroke-width:0.85px;"/><path d="M198.081,8.385c0.032,0.044 0.11,0.056 0.235,0.035c0.125,-0.02 0.201,0.06 0.227,0.24c0.027,0.18 0.04,0.485 0.04,0.914c0.001,0.429 0.001,0.933 0.001,1.513l0,3.399c0,0.498 0.008,0.947 0.024,1.345c0.016,0.399 0.043,0.801 0.082,1.208c0.038,0.407 0.063,0.82 0.074,1.239c0.011,0.419 0.014,0.802 0.01,1.15c-0.004,0.348 -0.023,0.671 -0.057,0.968c-0.033,0.297 -0.053,0.606 -0.059,0.925c-0.006,0.32 -0.004,0.67 0.005,1.052c0.009,0.382 0.017,0.741 0.022,1.077c0.005,0.336 0.008,0.638 0.008,0.904c0,0.267 -0.001,0.544 -0.003,0.831c-0.002,0.287 -0.006,0.607 -0.011,0.961c-0.005,0.354 -0.008,0.685 -0.008,0.994l0,1.367c0,0.173 0.004,0.369 0.01,0.588c0.007,0.219 0.014,0.453 0.022,0.7c0.008,0.248 0.013,0.474 0.015,0.678c0.002,0.204 0.011,0.388 0.025,0.551c0.014,0.164 0.028,0.33 0.04,0.5c0.012,0.17 0.019,0.35 0.019,0.541l0,0.923c0,0.097 0.013,0.055 0.037,-0.126" style="fill:none;fill-rule:nonzero;stroke:#000;stroke-width:0.85px;"/><path d="M206.415,8.21c0.061,-0.051 0.121,-0.109 0.183,-0.175c0.061,-0.066 0.093,-0.051 0.096,0.045c0.004,0.096 -0.007,0.394 -0.032,0.893c-0.026,0.5 -0.06,1.173 -0.104,2.02c-0.044,0.847 -0.071,1.735 -0.083,2.665c-0.011,0.93 -0.016,1.779 -0.016,2.547c0,0.768 0.011,1.448 0.035,2.043c0.023,0.594 0.037,1.145 0.043,1.652c0.006,0.507 0.009,1.011 0.009,1.513l0,9.829c0,0.17 -0.001,0.35 -0.003,0.541c-0.002,0.191 -0.009,0.393 -0.021,0.607c-0.013,0.214 -0.019,0.397 -0.019,0.551c0,0.154 -0.001,0.278 -0.001,0.374c0,0.137 -0.174,0.387 -0.524,0.75" style="fill:none;fill-rule:nonzero;stroke:#000;stroke-width:0.85px;"/><path d="M215.209,7.86c-0.002,-0.019 -0.007,-0.095 -0.015,-0.228c-0.005,-0.075 -0.007,-0.114 -0.007,-0.117c0,-0.003 0,0.005 0,0.026l0,0.865c0,0.393 0.001,0.801 0.003,1.222c0.002,0.422 0.012,0.847 0.028,1.276c0.017,0.429 0.027,0.849 0.03,1.26c0.003,0.411 0.009,0.796 0.018,1.153c0.009,0.357 0.036,0.683 0.081,0.977c0.045,0.294 0.084,0.554 0.117,0.779c0.033,0.225 0.05,0.452 0.05,0.68c0.001,0.228 0.001,0.452 0.001,0.671l0,1.313c0,0.214 -0.003,0.424 -0.01,0.629c-0.007,0.205 -0.014,0.402 -0.022,0.592c-0.008,0.19 -0.012,0.389 -0.012,0.597l0,1.793c0,0.172 0.003,0.371 0.007,0.597c0.005,0.226 0.008,0.479 0.011,0.76c0.003,0.281 0.004,0.558 0.004,0.831l0,2.136c0,0.258 -0.001,0.554 -0.003,0.89c-0.002,0.335 -0.016,0.654 -0.042,0.956c-0.026,0.302 -0.043,0.543 -0.052,0.723c-0.008,0.18 -0.012,0.324 -0.012,0.431l0,0.419c0,0.172 -0.007,0.394 -0.021,0.668c-0.014,0.274 -0.03,0.558 -0.05,0.852c-0.02,0.294 -0.031,0.577 -0.034,0.848c-0.003,0.271 -0.005,0.518 -0.005,0.741c0,0.224 0.007,0.423 0.021,0.599c0.014,0.176 0.032,0.342 0.054,0.499c0.022,0.156 0.033,0.292 0.034,0.408c0,0.116 0.001,0.205 0.001,0.268l0.001,0.043l0.005,-0.063c0.005,-0.109 0.023,-0.452 0.053,-1.028" style="fill:none;fill-rule:nonzero;stroke:#000;stroke-width:0.85px;"/><path d="M187.471,5.694c-0.11,0.025 -0.124,0.208 -0.042,0.552c0.083,0.343 0.138,0.74 0.166,1.191c0.028,0.451 0.044,0.942 0.047,1.474c0.003,0.532 -0.012,1.097 -0.044,1.696c-0.032,0.599 -0.061,1.176 -0.087,1.731c-0.026,0.555 -0.039,1.053 -0.039,1.494c-0.001,0.441 0.006,0.885 0.02,1.333c0.014,0.448 0.022,0.907 0.022,1.379c0.001,0.472 -0.004,0.911 -0.012,1.318c-0.009,0.407 -0.033,0.78 -0.071,1.119c-0.039,0.339 -0.069,0.698 -0.092,1.075c-0.022,0.377 -0.035,0.746 -0.038,1.108c-0.003,0.362 -0.005,0.675 -0.005,0.938l0,3.971c0,0.286 -0.018,0.586 -0.055,0.901c-0.037,0.315 -0.076,0.625 -0.119,0.93c-0.042,0.305 -0.067,0.603 -0.076,0.894c-0.008,0.291 -0.012,0.583 -0.012,0.876l0,1.406c0,0.158 0.004,0.312 0.014,0.462c0.009,0.149 0.016,0.326 0.021,0.528c0.006,0.203 0.008,0.392 0.008,0.566l0,2.162l0.001,0.003l0.001,-0.024c0.001,-0.032 0.005,-0.097 0.012,-0.197" style="fill:none;fill-rule:nonzero;stroke:#000;stroke-width:0.85px;"/><path d="M220.786,5.782c-0.054,-0.066 -0.108,-0.127 -0.163,-0.184l-0.017,-0.02l0.082,0.073c0.079,0.074 0.22,0.239 0.422,0.496c0.202,0.256 0.428,0.542 0.679,0.858c0.25,0.315 0.532,0.701 0.845,1.157c0.314,0.456 0.641,0.947 0.981,1.471c0.34,0.524 0.661,1.026 0.962,1.505c0.301,0.479 0.57,0.936 0.805,1.372c0.236,0.436 0.463,0.853 0.681,1.251c0.218,0.398 0.457,0.779 0.715,1.142c0.259,0.363 0.525,0.715 0.797,1.056c0.272,0.341 0.52,0.675 0.744,1.001c0.225,0.326 0.405,0.635 0.541,0.925c0.136,0.29 0.27,0.541 0.403,0.752c0.134,0.211 0.276,0.383 0.429,0.515c0.152,0.133 0.29,0.283 0.414,0.451c0.124,0.168 0.219,0.338 0.287,0.509c0.067,0.172 0.129,0.314 0.187,0.428c0.058,0.114 0.113,0.201 0.165,0.261c0.052,0.06 0.096,0.109 0.133,0.146c0.037,0.037 0.064,0.077 0.082,0.12c0.017,0.043 0.032,0.087 0.045,0.131c0.012,0.044 0.027,0.084 0.047,0.121c0.019,0.037 0.036,0.067 0.051,0.089c0.015,0.022 0.027,0.044 0.037,0.066c0.01,0.022 0.015,0.052 0.015,0.09c0,0.038 -0.007,0.104 -0.023,0.198c-0.015,0.094 -0.084,0.244 -0.206,0.449c-0.122,0.205 -0.279,0.466 -0.472,0.785c-0.192,0.319 -0.405,0.693 -0.637,1.122c-0.232,0.429 -0.477,0.883 -0.733,1.36c-0.257,0.478 -0.518,0.964 -0.783,1.459c-0.265,0.495 -0.509,0.995 -0.733,1.498c-0.223,0.504 -0.414,0.974 -0.571,1.412c-0.158,0.438 -0.315,0.829 -0.473,1.173c-0.157,0.344 -0.316,0.641 -0.477,0.889c-0.16,0.248 -0.317,0.508 -0.47,0.78c-0.154,0.272 -0.312,0.585 -0.474,0.937c-0.163,0.353 -0.324,0.704 -0.485,1.055c-0.16,0.351 -0.303,0.663 -0.429,0.937c-0.126,0.274 -0.224,0.495 -0.294,0.664c-0.07,0.169 -0.114,0.295 -0.13,0.378c-0.017,0.083 -0.033,0.156 -0.049,0.219c-0.016,0.063 -0.045,0.149 -0.088,0.258c-0.043,0.109 -0.089,0.238 -0.139,0.386c-0.049,0.148 -0.043,0.224 0.019,0.229" style="fill:none;fill-rule:nonzero;stroke:#000;stroke-width:0.85px;"/><path d="M260.303,13.219c0.026,-0.07 0.009,-0.139 -0.05,-0.209c-0.041,-0.047 -0.098,-0.066 -0.17,-0.058c-0.072,0.009 -0.148,0.029 -0.228,0.061c-0.08,0.031 -0.175,0.053 -0.285,0.066c-0.11,0.012 -0.24,0.031 -0.39,0.054c-0.15,0.024 -0.28,0.047 -0.389,0.069c-0.11,0.022 -0.178,0.035 -0.205,0.038c-0.027,0.003 -0.008,0.004 0.058,0.004l7.432,0c0.511,0 1.017,-0.003 1.517,-0.01c0.5,-0.007 0.967,-0.018 1.402,-0.032c0.435,-0.015 0.856,-0.022 1.265,-0.023c0.408,0 0.833,-0.001 1.274,-0.001l1.346,0c0.457,0 0.908,-0.017 1.354,-0.052c0.446,-0.034 0.848,-0.073 1.204,-0.115c0.356,-0.043 0.678,-0.064 0.967,-0.066c0.288,-0.001 0.575,0.007 0.858,0.023c0.284,0.017 0.586,0.027 0.906,0.03c0.319,0.003 0.636,-0.009 0.95,-0.037c0.315,-0.028 0.609,-0.053 0.883,-0.076c0.274,-0.023 0.536,-0.035 0.787,-0.035l1.829,0c0.108,0 0.19,0.003 0.246,0.01l0.042,0.005l-0.126,-0.015" style="fill:none;fill-rule:nonzero;stroke:#000;stroke-width:0.85px;"/><path d="M258.895,21.143c-0.148,0.037 -0.309,0.087 -0.484,0.15c-0.174,0.062 -0.286,0.096 -0.336,0.1c-0.05,0.004 -0.063,-0.023 -0.039,-0.081c0.024,-0.058 0.066,-0.117 0.124,-0.177c0.059,-0.06 0.094,-0.095 0.105,-0.106c0.011,-0.011 0.017,-0.017 0.017,-0.017l1.651,0c0.501,0 1.073,0.013 1.714,0.038c0.642,0.025 1.339,0.051 2.091,0.076c0.753,0.025 1.518,0.035 2.297,0.029c0.779,-0.006 1.495,-0.042 2.147,-0.108c0.652,-0.066 1.237,-0.138 1.754,-0.216c0.517,-0.078 1,-0.142 1.449,-0.192c0.449,-0.05 0.889,-0.082 1.32,-0.095c0.431,-0.013 0.834,-0.027 1.211,-0.041c0.376,-0.014 0.738,-0.042 1.083,-0.085c0.346,-0.043 0.702,-0.094 1.067,-0.155c0.366,-0.06 0.738,-0.109 1.118,-0.147c0.38,-0.038 0.735,-0.058 1.065,-0.062c0.33,-0.003 0.627,-0.003 0.889,0.002c0.263,0.005 0.508,0.008 0.735,0.011c0.226,0.003 0.453,0.004 0.678,0.004l1.421,0c0.236,0 0.458,-0.001 0.666,-0.003c0.207,-0.002 0.419,-0.018 0.635,-0.049c0.215,-0.031 0.423,-0.062 0.621,-0.094c0.198,-0.032 0.352,-0.052 0.46,-0.06c0.109,-0.008 0.172,-0.013 0.19,-0.013c0.018,0 0.004,0.007 -0.042,0.02c-0.065,0.019 -0.198,0.079 -0.398,0.179" style="fill:none;fill-rule:nonzero;stroke:#000;stroke-width:0.85px;"/><path d="M257.278,29.656c-0.091,0.069 -0.164,0.138 -0.219,0.209c-0.038,0.048 0.041,0.042 0.237,-0.018c0.195,-0.059 0.417,-0.13 0.663,-0.211c0.247,-0.081 0.475,-0.141 0.685,-0.179c0.21,-0.038 0.439,-0.059 0.687,-0.062c0.248,-0.003 0.537,-0.001 0.867,0.009c0.33,0.009 0.696,0.036 1.099,0.081c0.404,0.045 0.834,0.077 1.292,0.095c0.458,0.018 0.909,0.028 1.353,0.028l2.332,0c0.344,0 0.698,0.001 1.064,0.003c0.367,0.002 0.742,0.015 1.128,0.039c0.386,0.023 0.782,0.047 1.19,0.072c0.407,0.025 0.813,0.041 1.218,0.049c0.404,0.008 0.795,0.012 1.173,0.012l5.163,0c0.543,0 1.091,-0.008 1.643,-0.024c0.552,-0.016 1.069,-0.035 1.552,-0.057c0.482,-0.022 0.925,-0.037 1.328,-0.045c0.403,-0.008 0.788,-0.014 1.154,-0.019c0.366,-0.005 0.7,-0.008 1.001,-0.008l1.091,0c0.051,0 0.055,-0.004 0.013,-0.011c-0.06,-0.01 -0.248,-0.043 -0.565,-0.097" style="fill:none;fill-rule:nonzero;stroke:#000;stroke-width:0.85px;"/><path d="M262.854,8.499c0.032,0.044 0.11,0.056 0.236,0.035c0.125,-0.02 0.201,0.06 0.227,0.24c0.026,0.18 0.039,0.485 0.04,0.914l0,4.912c0,0.498 0.008,0.947 0.024,1.345c0.016,0.399 0.043,0.801 0.082,1.208c0.038,0.407 0.063,0.82 0.074,1.239c0.011,0.419 0.015,0.802 0.01,1.15c-0.004,0.348 -0.023,0.671 -0.056,0.968c-0.034,0.297 -0.053,0.606 -0.059,0.925c-0.006,0.319 -0.005,0.67 0.004,1.052c0.01,0.382 0.017,0.741 0.022,1.077c0.006,0.336 0.008,0.638 0.008,0.905c0,0.267 -0.001,0.543 -0.003,0.83c-0.002,0.287 -0.006,0.607 -0.011,0.961c-0.005,0.354 -0.007,0.685 -0.007,0.994l0,1.367c0,0.173 0.003,0.369 0.01,0.588c0.007,0.219 0.014,0.453 0.022,0.7c0.007,0.248 0.012,0.474 0.015,0.677c0.002,0.204 0.01,0.388 0.024,0.551c0.015,0.164 0.028,0.33 0.04,0.5c0.013,0.17 0.019,0.35 0.019,0.541c0.001,0.191 0.001,0.375 0.001,0.552l0,0.371c0,0.097 0.012,0.055 0.037,-0.126" style="fill:none;fill-rule:nonzero;stroke:#000;stroke-width:0.85px;"/><path d="M271.188,8.324c0.061,-0.051 0.122,-0.109 0.183,-0.175c0.061,-0.066 0.093,-0.051 0.097,0.045c0.003,0.096 -0.008,0.394 -0.033,0.893c-0.025,0.5 -0.06,1.173 -0.104,2.019c-0.044,0.847 -0.071,1.735 -0.082,2.665c-0.011,0.93 -0.017,1.779 -0.017,2.547c0,0.767 0.012,1.448 0.035,2.043c0.023,0.594 0.038,1.145 0.044,1.652c0.006,0.507 0.009,1.011 0.009,1.513l0,9.829c0,0.17 -0.002,0.35 -0.004,0.541c-0.002,0.191 -0.009,0.393 -0.021,0.607c-0.012,0.214 -0.018,0.397 -0.019,0.551l0,0.374c0,0.137 -0.175,0.387 -0.524,0.75" style="fill:none;fill-rule:nonzero;stroke:#000;stroke-width:0.85px;"/><path d="M279.982,7.974c-0.002,-0.019 -0.007,-0.095 -0.015,-0.228c-0.005,-0.075 -0.007,-0.114 -0.007,-0.117c0,-0.003 0,0.005 0,0.026l0,0.865c0,0.393 0.001,0.801 0.003,1.222c0.003,0.422 0.012,0.847 0.029,1.276c0.016,0.429 0.026,0.849 0.029,1.26c0.003,0.411 0.009,0.796 0.018,1.153c0.009,0.357 0.036,0.683 0.081,0.977c0.045,0.294 0.084,0.554 0.117,0.78c0.033,0.225 0.05,0.452 0.05,0.68c0.001,0.228 0.001,0.452 0.001,0.671l0,1.313c0,0.214 -0.003,0.424 -0.01,0.629c-0.007,0.205 -0.014,0.402 -0.022,0.592c-0.007,0.19 -0.011,0.389 -0.011,0.597l0,1.793c0,0.172 0.002,0.372 0.006,0.597c0.005,0.226 0.009,0.479 0.011,0.76c0.003,0.281 0.004,0.558 0.004,0.831l0,2.135c0,0.258 -0.001,0.554 -0.003,0.89c-0.002,0.335 -0.016,0.654 -0.042,0.956c-0.026,0.302 -0.043,0.543 -0.051,0.723c-0.009,0.18 -0.013,0.324 -0.013,0.431l0,0.419c0,0.172 -0.007,0.394 -0.021,0.668c-0.013,0.274 -0.03,0.558 -0.05,0.852c-0.019,0.295 -0.031,0.577 -0.034,0.848c-0.003,0.271 -0.004,0.518 -0.004,0.741c0,0.224 0.007,0.423 0.02,0.6c0.014,0.176 0.032,0.342 0.054,0.499c0.022,0.156 0.034,0.292 0.034,0.408c0.001,0.116 0.001,0.205 0.001,0.269l0.001,0.043l0.005,-0.062c0.006,-0.109 0.023,-0.452 0.053,-1.028" style="fill:none;fill-rule:nonzero;stroke:#000;stroke-width:0.85px;"/><path d="M252.245,5.808c-0.111,0.025 -0.125,0.209 -0.042,0.552c0.082,0.343 0.137,0.74 0.165,1.191c0.028,0.451 0.044,0.942 0.047,1.474c0.003,0.532 -0.012,1.097 -0.044,1.696c-0.032,0.599 -0.061,1.176 -0.087,1.731c-0.026,0.555 -0.039,1.053 -0.039,1.494c0,0.441 0.007,0.885 0.021,1.333c0.014,0.448 0.021,0.907 0.021,1.379c0.001,0.472 -0.003,0.911 -0.012,1.318c-0.009,0.407 -0.033,0.78 -0.071,1.119c-0.038,0.339 -0.069,0.698 -0.091,1.075c-0.023,0.377 -0.036,0.746 -0.039,1.108c-0.003,0.362 -0.004,0.675 -0.004,0.939l0,3.971c0,0.286 -0.019,0.586 -0.056,0.901c-0.036,0.315 -0.076,0.625 -0.118,0.93c-0.043,0.305 -0.068,0.603 -0.076,0.895c-0.009,0.291 -0.013,0.583 -0.013,0.875l0,1.406c0,0.158 0.005,0.312 0.014,0.462c0.009,0.149 0.016,0.326 0.022,0.528c0.005,0.203 0.008,0.392 0.008,0.566l0,2.165l0.001,-0.024c0.001,-0.032 0.005,-0.097 0.012,-0.197" style="fill:none;fill-rule:nonzero;stroke:#000;stroke-width:0.85px;"/><path d="M285.559,5.897c-0.054,-0.066 -0.108,-0.127 -0.163,-0.184l-0.017,-0.019l0.082,0.073c0.079,0.074 0.22,0.239 0.422,0.496c0.203,0.256 0.429,0.542 0.679,0.858c0.25,0.315 0.532,0.701 0.846,1.157c0.313,0.456 0.64,0.947 0.981,1.471c0.34,0.524 0.66,1.026 0.961,1.505c0.302,0.479 0.57,0.936 0.806,1.372c0.235,0.436 0.462,0.853 0.68,1.251c0.219,0.398 0.457,0.779 0.716,1.142c0.258,0.363 0.524,0.715 0.796,1.056c0.272,0.341 0.52,0.675 0.745,1.001c0.224,0.327 0.404,0.635 0.54,0.925c0.136,0.29 0.271,0.541 0.404,0.752c0.133,0.211 0.276,0.383 0.428,0.515c0.152,0.133 0.29,0.283 0.414,0.451c0.124,0.168 0.22,0.338 0.287,0.509c0.067,0.172 0.13,0.314 0.188,0.428c0.058,0.114 0.112,0.201 0.164,0.261c0.052,0.06 0.096,0.109 0.133,0.145c0.037,0.037 0.065,0.077 0.082,0.12c0.018,0.043 0.033,0.087 0.045,0.131c0.012,0.044 0.028,0.084 0.047,0.121c0.02,0.037 0.037,0.066 0.051,0.089c0.015,0.022 0.027,0.044 0.037,0.066c0.01,0.022 0.015,0.052 0.016,0.09c0,0.038 -0.008,0.104 -0.023,0.198c-0.016,0.094 -0.085,0.244 -0.207,0.449c-0.122,0.205 -0.279,0.467 -0.472,0.785c-0.192,0.319 -0.404,0.693 -0.637,1.122c-0.232,0.429 -0.476,0.882 -0.733,1.36c-0.257,0.478 -0.518,0.964 -0.783,1.459c-0.265,0.495 -0.509,0.995 -0.732,1.498c-0.224,0.504 -0.414,0.974 -0.572,1.412c-0.157,0.438 -0.315,0.829 -0.472,1.173c-0.158,0.344 -0.317,0.641 -0.477,0.888c-0.161,0.248 -0.318,0.508 -0.471,0.78c-0.153,0.272 -0.311,0.584 -0.474,0.937c-0.162,0.353 -0.324,0.704 -0.484,1.055c-0.161,0.351 -0.304,0.663 -0.43,0.937c-0.126,0.274 -0.224,0.495 -0.294,0.664c-0.07,0.169 -0.113,0.295 -0.13,0.378c-0.016,0.083 -0.033,0.156 -0.049,0.219c-0.016,0.063 -0.045,0.149 -0.088,0.258c-0.043,0.11 -0.089,0.238 -0.139,0.386c-0.049,0.148 -0.043,0.224 0.019,0.229" style="fill:none;fill-rule:nonzero;stroke:#000;stroke-width:0.85px;"/><path d="M132.013,59.896c0.025,-0.07 0.008,-0.139 -0.051,-0.209c-0.041,-0.047 -0.097,-0.066 -0.17,-0.058c-0.072,0.009 -0.148,0.029 -0.228,0.061c-0.079,0.031 -0.174,0.053 -0.285,0.066c-0.11,0.012 -0.24,0.031 -0.39,0.054c-0.15,0.024 -0.279,0.047 -0.389,0.069c-0.11,0.022 -0.178,0.035 -0.205,0.038c-0.027,0.003 -0.007,0.005 0.059,0.005l7.432,0c0.51,0 1.016,-0.003 1.516,-0.01c0.5,-0.007 0.967,-0.018 1.402,-0.032c0.435,-0.015 0.857,-0.022 1.265,-0.023c0.408,0 0.833,-0.001 1.274,-0.001l1.347,0c0.456,0 0.908,-0.017 1.354,-0.051c0.446,-0.034 0.847,-0.073 1.203,-0.115c0.356,-0.043 0.679,-0.064 0.967,-0.066c0.289,-0.001 0.575,0.007 0.859,0.023c0.284,0.017 0.585,0.027 0.905,0.03c0.319,0.003 0.636,-0.009 0.95,-0.037c0.315,-0.028 0.609,-0.053 0.883,-0.076c0.274,-0.023 0.536,-0.035 0.787,-0.035c0.251,0 0.493,-0.001 0.727,-0.001l1.103,0c0.108,0 0.189,0.003 0.245,0.01l0.042,0.005l-0.126,-0.015" style="fill:none;fill-rule:nonzero;stroke:#000;stroke-width:0.85px;"/><path d="M130.604,67.82c-0.148,0.037 -0.309,0.087 -0.484,0.15c-0.174,0.062 -0.286,0.096 -0.336,0.1c-0.05,0.004 -0.063,-0.023 -0.039,-0.081c0.025,-0.058 0.066,-0.117 0.124,-0.176c0.059,-0.059 0.094,-0.095 0.105,-0.106c0.011,-0.011 0.017,-0.017 0.017,-0.017l1.652,0c0.501,0 1.072,0.013 1.714,0.038c0.641,0.025 1.338,0.051 2.091,0.076c0.752,0.025 1.517,0.035 2.296,0.029c0.779,-0.006 1.495,-0.042 2.147,-0.108c0.653,-0.066 1.237,-0.138 1.754,-0.216c0.517,-0.078 1,-0.142 1.449,-0.192c0.449,-0.05 0.889,-0.082 1.32,-0.095c0.431,-0.013 0.835,-0.027 1.211,-0.041c0.377,-0.014 0.738,-0.043 1.084,-0.085c0.345,-0.043 0.701,-0.094 1.066,-0.155c0.366,-0.06 0.739,-0.109 1.118,-0.147c0.38,-0.038 0.735,-0.058 1.065,-0.062c0.331,-0.003 0.627,-0.003 0.89,0.002c0.262,0.005 0.507,0.008 0.734,0.011c0.227,0.003 0.453,0.004 0.678,0.004l1.421,0c0.237,0 0.459,-0.001 0.666,-0.003c0.207,-0.002 0.419,-0.018 0.635,-0.049c0.216,-0.031 0.423,-0.062 0.621,-0.094c0.199,-0.032 0.352,-0.052 0.46,-0.06c0.109,-0.008 0.172,-0.013 0.19,-0.013c0.018,0 0.004,0.006 -0.041,0.02c-0.066,0.019 -0.199,0.079 -0.399,0.179" style="fill:none;fill-rule:nonzero;stroke:#000;stroke-width:0.85px;"/><path d="M128.987,76.332c-0.091,0.069 -0.164,0.138 -0.219,0.209c-0.037,0.048 0.042,0.042 0.237,-0.018c0.196,-0.059 0.417,-0.13 0.664,-0.211c0.246,-0.081 0.475,-0.141 0.684,-0.179c0.21,-0.038 0.439,-0.059 0.687,-0.062c0.248,-0.003 0.537,0 0.867,0.008c0.33,0.009 0.696,0.036 1.1,0.081c0.403,0.045 0.833,0.077 1.291,0.095c0.458,0.018 0.909,0.028 1.353,0.028l2.333,0c0.343,0 0.697,0.001 1.064,0.003c0.366,0.002 0.742,0.015 1.127,0.038c0.386,0.023 0.783,0.047 1.19,0.072c0.408,0.025 0.814,0.041 1.218,0.049c0.404,0.008 0.795,0.012 1.173,0.012l5.163,0c0.543,0 1.091,-0.008 1.643,-0.024c0.552,-0.016 1.07,-0.035 1.552,-0.058c0.482,-0.022 0.925,-0.037 1.328,-0.045c0.404,-0.007 0.788,-0.014 1.154,-0.019c0.366,-0.005 0.7,-0.008 1.002,-0.008l1.09,0c0.051,0 0.055,-0.004 0.014,-0.011c-0.06,-0.01 -0.249,-0.043 -0.566,-0.097" style="fill:none;fill-rule:nonzero;stroke:#000;stroke-width:0.85px;"/><path d="M134.563,55.176c0.032,0.044 0.111,0.056 0.236,0.035c0.125,-0.02 0.201,0.06 0.227,0.24c0.026,0.18 0.039,0.485 0.04,0.914l0,4.911c0,0.498 0.008,0.946 0.024,1.345c0.016,0.399 0.044,0.801 0.082,1.208c0.039,0.407 0.063,0.82 0.074,1.239c0.012,0.419 0.015,0.802 0.011,1.15c-0.005,0.348 -0.024,0.671 -0.057,0.968c-0.033,0.297 -0.053,0.606 -0.059,0.925c-0.006,0.32 -0.004,0.67 0.005,1.052c0.009,0.382 0.016,0.741 0.022,1.077c0.005,0.336 0.008,0.638 0.008,0.905c0,0.267 -0.001,0.543 -0.004,0.831c-0.002,0.287 -0.005,0.607 -0.011,0.961c-0.005,0.354 -0.007,0.685 -0.007,0.994l0,1.367c0,0.173 0.003,0.369 0.01,0.588c0.007,0.219 0.014,0.453 0.022,0.7c0.008,0.248 0.013,0.474 0.015,0.677c0.002,0.204 0.01,0.388 0.025,0.551c0.014,0.164 0.027,0.33 0.04,0.5c0.012,0.17 0.018,0.35 0.019,0.541l0,0.923c0,0.098 0.012,0.055 0.037,-0.126" style="fill:none;fill-rule:nonzero;stroke:#000;stroke-width:0.85px;"/><path d="M142.898,55.001c0.06,-0.051 0.121,-0.109 0.182,-0.175c0.061,-0.066 0.094,-0.051 0.097,0.045c0.003,0.096 -0.008,0.394 -0.033,0.893c-0.025,0.5 -0.06,1.173 -0.103,2.02c-0.044,0.846 -0.072,1.735 -0.083,2.665c-0.011,0.93 -0.017,1.779 -0.017,2.547c0,0.768 0.012,1.448 0.035,2.043c0.023,0.594 0.038,1.145 0.044,1.652c0.006,0.507 0.009,1.011 0.009,1.513l0,9.829c0,0.17 -0.001,0.35 -0.003,0.541c-0.003,0.191 -0.01,0.393 -0.022,0.607c-0.012,0.214 -0.018,0.397 -0.019,0.551l0,0.374c0,0.137 -0.175,0.387 -0.524,0.75" style="fill:none;fill-rule:nonzero;stroke:#000;stroke-width:0.85px;"/><path d="M151.692,54.651c-0.002,-0.019 -0.007,-0.095 -0.016,-0.228c-0.004,-0.075 -0.007,-0.113 -0.007,-0.117c0,-0.003 0,0.005 0,0.026l0,0.865c0,0.393 0.002,0.801 0.004,1.223c0.002,0.422 0.011,0.847 0.028,1.276c0.017,0.429 0.027,0.849 0.03,1.26c0.003,0.411 0.009,0.796 0.017,1.153c0.009,0.357 0.036,0.683 0.082,0.977c0.045,0.294 0.084,0.554 0.116,0.779c0.033,0.225 0.05,0.452 0.051,0.68c0,0.228 0.001,0.452 0.001,0.671l0,1.313c0,0.214 -0.004,0.424 -0.011,0.629c-0.006,0.205 -0.014,0.402 -0.021,0.592c-0.008,0.19 -0.012,0.389 -0.012,0.597l0,1.793c0,0.172 0.002,0.371 0.007,0.597c0.004,0.226 0.008,0.479 0.011,0.76c0.002,0.281 0.004,0.558 0.004,0.831l0,2.135c0,0.258 -0.001,0.554 -0.004,0.89c-0.002,0.335 -0.016,0.654 -0.042,0.956c-0.026,0.302 -0.043,0.543 -0.051,0.723c-0.008,0.18 -0.013,0.324 -0.013,0.431l0,0.419c0,0.172 -0.007,0.394 -0.02,0.668c-0.014,0.274 -0.031,0.558 -0.051,0.852c-0.019,0.294 -0.031,0.577 -0.034,0.848c-0.003,0.271 -0.004,0.518 -0.004,0.741c0,0.224 0.007,0.423 0.021,0.6c0.013,0.176 0.031,0.342 0.053,0.499c0.023,0.156 0.034,0.292 0.034,0.408c0.001,0.116 0.001,0.205 0.001,0.268l0.002,0.043l0.004,-0.063c0.006,-0.109 0.024,-0.452 0.053,-1.028" style="fill:none;fill-rule:nonzero;stroke:#000;stroke-width:0.85px;"/><path d="M123.954,52.485c-0.111,0.025 -0.125,0.209 -0.042,0.552c0.082,0.343 0.138,0.74 0.166,1.191c0.028,0.451 0.043,0.942 0.046,1.474c0.003,0.532 -0.011,1.097 -0.044,1.696c-0.032,0.599 -0.061,1.176 -0.087,1.731c-0.025,0.555 -0.038,1.053 -0.039,1.494c0,0.441 0.007,0.886 0.021,1.333c0.014,0.448 0.021,0.907 0.022,1.379c0,0.472 -0.004,0.911 -0.013,1.318c-0.009,0.407 -0.032,0.78 -0.071,1.119c-0.038,0.339 -0.069,0.698 -0.091,1.075c-0.023,0.377 -0.036,0.747 -0.039,1.108c-0.003,0.362 -0.004,0.675 -0.004,0.939l0,3.971c0,0.286 -0.019,0.586 -0.055,0.901c-0.037,0.315 -0.077,0.625 -0.119,0.93c-0.042,0.305 -0.068,0.603 -0.076,0.895c-0.008,0.291 -0.013,0.583 -0.013,0.875l0,1.406c0,0.159 0.005,0.312 0.014,0.462c0.009,0.149 0.017,0.326 0.022,0.528c0.005,0.203 0.008,0.392 0.008,0.566l0,2.166l0.001,-0.024c0.002,-0.032 0.006,-0.097 0.012,-0.197" style="fill:none;fill-rule:nonzero;stroke:#000;stroke-width:0.85px;"/><path d="M157.269,52.573c-0.054,-0.066 -0.109,-0.127 -0.163,-0.184l-0.018,-0.019l0.082,0.073c0.08,0.074 0.221,0.239 0.423,0.495c0.202,0.257 0.428,0.542 0.678,0.858c0.25,0.315 0.532,0.701 0.846,1.157c0.314,0.456 0.641,0.947 0.981,1.471c0.34,0.524 0.661,1.026 0.962,1.505c0.301,0.479 0.569,0.936 0.805,1.372c0.236,0.436 0.463,0.853 0.681,1.251c0.218,0.398 0.456,0.779 0.715,1.142c0.259,0.363 0.524,0.715 0.796,1.056c0.272,0.341 0.521,0.675 0.745,1.001c0.224,0.326 0.404,0.635 0.54,0.925c0.136,0.29 0.271,0.541 0.404,0.752c0.133,0.211 0.276,0.383 0.428,0.515c0.153,0.133 0.291,0.283 0.414,0.451c0.124,0.168 0.22,0.338 0.287,0.509c0.067,0.172 0.13,0.314 0.188,0.428c0.058,0.114 0.113,0.201 0.164,0.261c0.052,0.06 0.097,0.109 0.134,0.145c0.037,0.037 0.064,0.077 0.081,0.12c0.018,0.043 0.033,0.087 0.045,0.131c0.012,0.044 0.028,0.084 0.047,0.121c0.02,0.037 0.037,0.067 0.051,0.089c0.015,0.022 0.027,0.044 0.037,0.066c0.01,0.022 0.015,0.052 0.016,0.09c0,0.038 -0.008,0.104 -0.023,0.198c-0.016,0.094 -0.084,0.244 -0.207,0.449c-0.122,0.205 -0.279,0.466 -0.471,0.786c-0.193,0.319 -0.405,0.693 -0.637,1.122c-0.233,0.429 -0.477,0.883 -0.734,1.36c-0.257,0.478 -0.518,0.964 -0.782,1.459c-0.265,0.495 -0.51,0.995 -0.733,1.498c-0.224,0.504 -0.414,0.974 -0.572,1.412c-0.157,0.438 -0.315,0.829 -0.472,1.173c-0.158,0.344 -0.317,0.641 -0.477,0.888c-0.16,0.248 -0.317,0.508 -0.471,0.78c-0.153,0.272 -0.311,0.585 -0.474,0.937c-0.162,0.353 -0.324,0.704 -0.484,1.055c-0.161,0.351 -0.304,0.663 -0.43,0.937c-0.126,0.273 -0.224,0.495 -0.294,0.664c-0.07,0.169 -0.113,0.295 -0.13,0.378c-0.016,0.083 -0.032,0.156 -0.048,0.219c-0.016,0.063 -0.046,0.149 -0.089,0.258c-0.043,0.109 -0.089,0.238 -0.138,0.386c-0.05,0.148 -0.044,0.224 0.019,0.229" style="fill:none;fill-rule:nonzero;stroke:#000;stroke-width:0.85px;"/><path d="M171.76,21.436c-0.035,0.012 -0.116,0.007 -0.243,-0.016c-0.078,-0.013 -0.076,-0.02 0.004,-0.02l0.774,0c0.435,0 0.96,-0.009 1.572,-0.027c0.613,-0.018 1.285,-0.063 2.014,-0.135c1.213,-0.119 1.981,-0.24 2.305,-0.361" style="fill:none;fill-rule:nonzero;stroke:#000;stroke-width:0.85px;"/><path d="M174.65,18.709l0,-0.291l-0.001,-0.019l-0.02,0.415c-0.013,0.336 -0.024,0.907 -0.032,1.712c-0.008,0.805 -0.009,1.612 -0.003,2.42c0.007,0.808 0.062,1.433 0.167,1.875c0.104,0.442 0.185,0.617 0.243,0.525" style="fill:none;fill-rule:nonzero;stroke:#000;stroke-width:0.85px;"/><path d="M238.11,21.947c0,-0.11 0.025,-0.221 0.077,-0.331c0.052,-0.11 0.231,-0.177 0.54,-0.201c0.308,-0.024 0.73,-0.033 1.267,-0.027c0.537,0.006 1.161,0.03 1.872,0.07c0.711,0.041 1.422,0.067 2.132,0.078c0.711,0.011 1.018,-0.007 0.923,-0.056" style="fill:none;fill-rule:nonzero;stroke:#000;stroke-width:0.85px;"/><path d="M240.975,19.475c0.024,-0.093 0.104,-0.05 0.241,0.129c0.136,0.179 0.225,0.555 0.266,1.128c0.06,0.845 0.008,1.859 -0.156,3.041" style="fill:none;fill-rule:nonzero;stroke:#000;stroke-width:0.85px;"/><path d="M105.263,67.731c0.215,-0.072 0.588,-0.145 1.12,-0.22c0.531,-0.075 1.134,-0.114 1.809,-0.118c0.674,-0.004 1.337,0.007 1.989,0.033c1,0.04 1.846,0.025 2.537,-0.043" style="fill:none;fill-rule:nonzero;stroke:#000;stroke-width:0.85px;"/><path d="M109.659,65.216c-0.148,0.149 -0.272,0.485 -0.372,1.007c-0.1,0.522 -0.096,1.108 0.011,1.757c0.175,1.055 0.323,1.766 0.444,2.133" style="fill:none;fill-rule:nonzero;stroke:#000;stroke-width:0.85px;"/><path d="M177.953,67.994c-0.058,-0.034 -0.119,-0.079 -0.184,-0.136c-0.065,-0.057 -0.051,-0.089 0.041,-0.095c0.092,-0.006 0.322,-0.005 0.689,0.004c0.367,0.009 0.958,0.023 1.773,0.043c1.208,0.029 2.577,0.016 4.106,-0.042" style="fill:none;fill-rule:nonzero;stroke:#000;stroke-width:0.85px;"/><path d="M181.213,64.844c-0.041,0.066 -0.053,0.486 -0.035,1.259c0.017,0.773 0.091,1.617 0.22,2.532c0.13,0.915 0.256,1.82 0.378,2.715" style="fill:none;fill-rule:nonzero;stroke:#000;stroke-width:0.85px;"/><path d="M201.69,69.653c-0.039,-0.029 -0.092,-0.085 -0.158,-0.169c-0.041,-0.053 -0.026,-0.081 0.046,-0.085c0.104,-0.005 0.433,0.055 0.988,0.178" style="fill:none;fill-rule:nonzero;stroke:#000;stroke-width:0.85px;"/><path d="M211.553,69.612c-0.019,-0.097 -0.041,-0.206 -0.064,-0.329c-0.015,-0.08 -0.022,-0.122 -0.02,-0.126c0.003,-0.005 0.186,0.099 0.549,0.311" style="fill:none;fill-rule:nonzero;stroke:#000;stroke-width:0.85px;"/><path d="M218.488,69.481c0.003,-0.159 0.042,-0.319 0.116,-0.482c0.075,-0.162 0.17,-0.254 0.288,-0.275l0.088,-0.016l-0.264,0.047" style="fill:none;fill-rule:nonzero;stroke:#000;stroke-width:0.85px;"/><path d="M291.615,51.383c-0.108,0.016 -0.141,-0.001 -0.099,-0.052c0.031,-0.037 0.214,-0.065 0.549,-0.085c0.335,-0.02 0.647,-0.027 0.937,-0.02c0.289,0.007 0.58,0.039 0.871,0.098c0.291,0.059 0.599,0.13 0.923,0.215c0.325,0.084 0.636,0.175 0.935,0.272c0.299,0.097 0.535,0.203 0.708,0.319c0.173,0.116 0.294,0.261 0.362,0.436c0.069,0.175 0.123,0.387 0.162,0.637c0.04,0.25 0.066,0.575 0.079,0.977c0.014,0.401 0.025,0.879 0.034,1.435c0.009,0.555 0.045,1.096 0.108,1.622c0.064,0.526 0.137,1.019 0.22,1.479c0.083,0.46 0.138,0.94 0.165,1.438c0.026,0.499 0.038,1.039 0.033,1.622c-0.004,0.583 -0.011,1.169 -0.021,1.759c-0.01,0.59 -0.015,1.125 -0.015,1.606c0,0.481 -0.007,0.933 -0.021,1.357c-0.013,0.424 -0.037,0.847 -0.071,1.27c-0.034,0.423 -0.052,0.83 -0.053,1.22c-0.001,0.391 0.015,0.763 0.047,1.116c0.033,0.353 0.057,0.703 0.073,1.048c0.017,0.345 0.025,0.687 0.025,1.025l0,1.049c0,0.361 -0.001,0.723 -0.003,1.085c-0.003,0.363 -0.015,0.714 -0.039,1.055c-0.023,0.341 -0.051,0.685 -0.083,1.032c-0.031,0.347 -0.061,0.699 -0.09,1.056c-0.029,0.358 -0.062,0.695 -0.099,1.013c-0.036,0.318 -0.06,0.597 -0.071,0.838c-0.01,0.241 -0.029,0.463 -0.058,0.666c-0.028,0.203 -0.063,0.385 -0.107,0.547c-0.043,0.162 -0.088,0.312 -0.134,0.452c-0.047,0.14 -0.082,0.257 -0.104,0.351c-0.023,0.094 -0.039,0.165 -0.049,0.213c-0.01,0.048 -0.018,0.086 -0.023,0.116c-0.005,0.029 -0.011,0.065 -0.018,0.105c-0.007,0.041 -0.015,0.083 -0.022,0.127c-0.007,0.044 -0.014,0.085 -0.022,0.124c-0.007,0.039 -0.014,0.079 -0.022,0.12c-0.007,0.041 -0.02,0.08 -0.039,0.117c-0.018,0.037 -0.064,0.075 -0.136,0.113c-0.073,0.039 -0.211,0.075 -0.414,0.11c-0.203,0.034 -0.499,0.064 -0.889,0.088c-0.389,0.024 -0.816,0.067 -1.28,0.129c-0.464,0.061 -0.885,0.136 -1.264,0.223c-0.379,0.087 -0.687,0.159 -0.926,0.214c-0.239,0.056 -0.398,0.086 -0.477,0.092l-0.06,0.004l0.179,-0.014" style="fill:none;fill-rule:nonzero;stroke:#000;stroke-width:0.85px;"/><path d="M134.072,12.869c-0.006,-0.083 -0.044,-0.151 -0.116,-0.204c-0.072,-0.053 -0.138,-0.08 -0.198,-0.08c-0.06,0 -0.095,0.008 -0.106,0.026c-0.012,0.018 0.006,0.087 0.052,0.206c0.046,0.12 0.098,0.285 0.157,0.496c0.06,0.211 0.095,0.462 0.106,0.752c0.012,0.291 0.017,0.647 0.017,1.07l0,1.352c0,0.479 -0.01,0.925 -0.03,1.339c-0.02,0.414 -0.069,0.776 -0.145,1.087c-0.076,0.311 -0.143,0.561 -0.201,0.749c-0.057,0.189 -0.089,0.34 -0.095,0.455c-0.007,0.114 0.011,0.199 0.052,0.254c0.042,0.055 0.088,0.101 0.14,0.138c0.052,0.037 0.088,0.073 0.109,0.11c0.021,0.036 0.032,0.075 0.035,0.117c0.003,0.041 0.004,0.074 0.004,0.099c0,0.025 0.013,0.041 0.037,0.049c0.025,0.008 0.094,0.012 0.208,0.012l0.945,0c0.231,0 0.542,-0.011 0.932,-0.034c0.391,-0.023 0.797,-0.054 1.219,-0.093c0.422,-0.04 0.783,-0.061 1.082,-0.064c0.299,-0.003 0.577,0.001 0.834,0.012c0.258,0.012 0.536,0.019 0.836,0.022c0.3,0.003 0.602,-0.006 0.906,-0.027c0.305,-0.021 0.573,-0.041 0.805,-0.061c0.233,-0.02 0.404,-0.034 0.516,-0.041c0.111,-0.008 0.175,-0.014 0.189,-0.019c0.015,-0.005 0.02,-0.011 0.016,-0.018c-0.004,-0.007 -0.022,-0.017 -0.053,-0.029c-0.031,-0.012 -0.054,-0.032 -0.07,-0.06c-0.015,-0.028 -0.026,-0.077 -0.034,-0.145c-0.007,-0.068 -0.017,-0.173 -0.028,-0.314c-0.012,-0.141 -0.032,-0.319 -0.061,-0.535c-0.029,-0.216 -0.06,-0.491 -0.094,-0.827c-0.034,-0.335 -0.068,-0.716 -0.102,-1.141c-0.034,-0.425 -0.065,-0.826 -0.091,-1.201c-0.027,-0.376 -0.05,-0.697 -0.067,-0.963c-0.018,-0.267 -0.027,-0.49 -0.027,-0.669c-0.001,-0.18 0.012,-0.353 0.037,-0.521c0.025,-0.168 0.054,-0.322 0.086,-0.461c0.033,-0.139 0.05,-0.277 0.05,-0.414c0.001,-0.136 0.001,-0.252 0.001,-0.346l0,-0.203c0,-0.041 -0.009,-0.062 -0.027,-0.063c-0.019,-0.001 -0.04,0.015 -0.065,0.047c-0.024,0.033 -0.041,0.06 -0.049,0.084c-0.008,0.023 -0.013,0.035 -0.015,0.035c-0.003,0 -0.022,0.001 -0.059,0.001l-0.202,0c-0.097,0 -0.218,0.001 -0.363,0.003c-0.144,0.002 -0.325,0.012 -0.542,0.028c-0.218,0.016 -0.5,0.037 -0.848,0.061c-0.347,0.024 -0.741,0.05 -1.181,0.076c-0.44,0.027 -0.88,0.057 -1.322,0.09c-0.441,0.034 -0.835,0.057 -1.182,0.071c-0.346,0.013 -0.639,0.02 -0.876,0.02l-0.538,0c-0.121,0 -0.19,0.014 -0.208,0.041c-0.017,0.027 -0.013,0.03 0.013,0.007c0.036,-0.033 0.08,-0.023 0.132,0.028" style="fill:none;fill-rule:nonzero;stroke:#c2361a;stroke-width:1.7px;"/><path d="M198.034,13.284c0,0.035 -0.004,0.17 -0.013,0.404c-0.009,0.234 -0.037,0.501 -0.085,0.802c-0.047,0.3 -0.085,0.621 -0.113,0.963c-0.028,0.342 -0.043,0.69 -0.046,1.045c-0.004,0.355 0.009,0.697 0.036,1.026c0.028,0.329 0.053,0.648 0.076,0.958c0.024,0.309 0.033,0.593 0.029,0.851c-0.004,0.258 -0.018,0.465 -0.042,0.622c-0.024,0.157 -0.042,0.292 -0.055,0.404c-0.013,0.113 -0.023,0.226 -0.03,0.34c-0.007,0.114 -0.016,0.221 -0.025,0.322c-0.01,0.101 -0.015,0.189 -0.015,0.265c-0.001,0.076 -0.004,0.14 -0.011,0.192c-0.007,0.052 -0.02,0.102 -0.039,0.151c-0.02,0.049 -0.031,0.087 -0.034,0.115c-0.003,0.028 0.005,0.043 0.023,0.046c0.017,0.003 0.074,0.003 0.169,0.001c0.094,-0.002 0.205,-0.019 0.333,-0.049c0.127,-0.031 0.286,-0.062 0.475,-0.093c0.189,-0.032 0.443,-0.076 0.761,-0.133c0.318,-0.057 0.664,-0.112 1.038,-0.164c0.374,-0.052 0.742,-0.096 1.105,-0.133c0.362,-0.037 0.73,-0.067 1.104,-0.089c0.373,-0.022 0.755,-0.042 1.146,-0.059c0.392,-0.017 0.764,-0.029 1.118,-0.034c0.354,-0.005 0.7,-0.015 1.038,-0.029c0.338,-0.014 0.705,-0.042 1.101,-0.084c0.395,-0.042 0.802,-0.096 1.221,-0.161c0.419,-0.065 0.802,-0.123 1.15,-0.172c0.348,-0.05 0.66,-0.086 0.935,-0.108c0.274,-0.023 0.53,-0.041 0.767,-0.056c0.237,-0.014 0.439,-0.023 0.605,-0.026c0.166,-0.003 0.301,-0.003 0.404,-0.001c0.104,0.002 0.213,0.015 0.329,0.038c0.115,0.023 0.246,0.047 0.394,0.072c0.147,0.024 0.303,0.041 0.468,0.049c0.165,0.008 0.32,0.012 0.465,0.012l0.647,0l0,0.013c0,0.009 0.004,0.03 0.013,0.064c0.01,0.033 0.019,0.08 0.029,0.139c0.01,0.06 0.016,0.149 0.019,0.267c0.003,0.119 0.004,0.266 0.004,0.442l0,3.681c0,0.237 0.003,0.455 0.007,0.656c0.005,0.2 0.008,0.41 0.011,0.63c0.003,0.22 0.004,0.458 0.004,0.715l0,2.319c0,0.116 0.001,0.22 0.003,0.311c0.003,0.091 0.007,0.162 0.015,0.212c0.007,0.05 0.02,0.085 0.039,0.106c0.019,0.02 0.037,0.033 0.054,0.038c0.017,0.005 0.032,0.008 0.045,0.008l0.015,0l-0.652,0c-0.171,0 -0.363,-0.007 -0.575,-0.021c-0.213,-0.014 -0.448,-0.035 -0.706,-0.064c-0.258,-0.029 -0.535,-0.058 -0.831,-0.087c-0.295,-0.029 -0.599,-0.059 -0.913,-0.091c-0.313,-0.031 -0.609,-0.065 -0.888,-0.102c-0.279,-0.037 -0.534,-0.064 -0.764,-0.082c-0.23,-0.018 -0.446,-0.031 -0.648,-0.038c-0.203,-0.007 -0.395,-0.019 -0.576,-0.036c-0.181,-0.017 -0.342,-0.036 -0.481,-0.058c-0.14,-0.022 -0.272,-0.044 -0.396,-0.066c-0.124,-0.022 -0.235,-0.04 -0.331,-0.055c-0.097,-0.015 -0.161,-0.033 -0.193,-0.055c-0.031,-0.022 -0.047,-0.04 -0.048,-0.055l0,-0.024c0,0 0.01,-0.008 0.031,-0.024c0.021,-0.016 0.042,-0.052 0.065,-0.109c0.022,-0.057 0.04,-0.13 0.055,-0.219c0.015,-0.089 0.026,-0.211 0.034,-0.368c0.008,-0.157 0.012,-0.38 0.012,-0.669c0,-0.289 -0.002,-0.623 -0.007,-1.002c-0.004,-0.38 -0.011,-0.76 -0.022,-1.143c-0.01,-0.382 -0.015,-0.764 -0.015,-1.145l0,-3.281c0,-0.31 0.003,-0.608 0.011,-0.893c0.007,-0.285 0.01,-0.565 0.01,-0.84c0.001,-0.275 0.001,-0.546 0.001,-0.814l0,-2.443c0,-0.309 -0.007,-0.586 -0.021,-0.832c-0.014,-0.246 -0.025,-0.461 -0.033,-0.645c-0.008,-0.184 -0.012,-0.353 -0.012,-0.507l0,-1.122c0,0 -0.01,-0.008 -0.031,-0.024c-0.021,-0.016 -0.049,-0.04 -0.085,-0.071c-0.036,-0.031 -0.084,-0.063 -0.143,-0.095c-0.06,-0.032 -0.158,-0.057 -0.296,-0.077c-0.137,-0.02 -0.33,-0.031 -0.579,-0.034c-0.249,-0.003 -0.518,-0.005 -0.807,-0.005l-0.819,0c-0.256,0 -0.5,0.008 -0.732,0.024c-0.231,0.016 -0.472,0.056 -0.724,0.12c-0.252,0.064 -0.517,0.123 -0.795,0.175c-0.279,0.053 -0.589,0.086 -0.931,0.102c-0.343,0.015 -0.708,0.036 -1.096,0.062c-0.388,0.026 -0.748,0.051 -1.079,0.076c-0.331,0.024 -0.617,0.055 -0.856,0.091c-0.24,0.036 -0.418,0.078 -0.535,0.127c-0.116,0.048 -0.183,0.088 -0.2,0.119c-0.024,0.042 -0.007,0.034 0.051,-0.023" style="fill:none;fill-rule:nonzero;stroke:#c2361a;stroke-width:1.7px;"/><path d="M262.872,13.503c-0.077,0 -0.191,0.004 -0.343,0.013c-0.151,0.009 -0.267,0.083 -0.347,0.223c-0.08,0.14 -0.124,0.324 -0.132,0.553c-0.007,0.229 0.056,0.466 0.191,0.712c0.134,0.245 0.299,0.509 0.494,0.791c0.195,0.282 0.352,0.591 0.472,0.927c0.12,0.336 0.205,0.682 0.256,1.037c0.05,0.355 0.084,0.697 0.099,1.026c0.016,0.329 0.024,0.655 0.025,0.978c0,0.323 -0.024,0.651 -0.073,0.984c-0.049,0.333 -0.1,0.659 -0.154,0.978c-0.054,0.319 -0.098,0.627 -0.13,0.921c-0.033,0.295 -0.053,0.582 -0.061,0.862c-0.008,0.28 -0.013,0.553 -0.013,0.818c0,0.265 0.007,0.522 0.021,0.771c0.013,0.249 0.038,0.49 0.075,0.724c0.036,0.234 0.058,0.451 0.067,0.651c0.008,0.2 0.011,0.399 0.009,0.596c-0.002,0.197 -0.009,0.385 -0.021,0.563c-0.012,0.178 -0.019,0.342 -0.019,0.492l0,1.013c0,0.095 -0.011,0.19 -0.031,0.284c-0.021,0.095 -0.05,0.186 -0.089,0.274c-0.039,0.088 -0.071,0.163 -0.096,0.225c-0.025,0.062 -0.039,0.101 -0.042,0.118c-0.003,0.016 0.022,0.025 0.075,0.025l0.361,0c0.061,0 0.158,-0.002 0.293,-0.007c0.135,-0.004 0.337,-0.029 0.606,-0.073c0.27,-0.044 0.585,-0.096 0.948,-0.155c0.363,-0.058 0.723,-0.102 1.081,-0.13c0.358,-0.028 0.719,-0.052 1.082,-0.071c0.364,-0.019 0.739,-0.045 1.125,-0.079c0.386,-0.034 0.779,-0.061 1.18,-0.081c0.4,-0.021 0.808,-0.032 1.223,-0.035c0.415,-0.003 0.828,-0.001 1.24,0.006c0.412,0.007 0.804,0.017 1.177,0.032c0.373,0.015 0.743,0.022 1.11,0.023c0.367,0 0.712,0.003 1.035,0.007c0.324,0.004 0.608,0.025 0.854,0.063c0.247,0.038 0.45,0.071 0.611,0.098c0.161,0.028 0.289,0.045 0.383,0.053c0.095,0.008 0.176,0.013 0.245,0.016c0.068,0.003 0.126,0.004 0.174,0.004l1.113,0c0.079,0 0.157,-0.001 0.233,-0.003c0.075,-0.002 0.146,-0.013 0.212,-0.032c0.066,-0.019 0.132,-0.043 0.197,-0.071c0.066,-0.029 0.129,-0.064 0.19,-0.105c0.061,-0.041 0.114,-0.079 0.159,-0.113c0.045,-0.034 0.073,-0.074 0.087,-0.119c0.013,-0.045 0.018,-0.117 0.016,-0.214c-0.002,-0.097 -0.021,-0.231 -0.059,-0.401c-0.037,-0.17 -0.083,-0.369 -0.139,-0.598c-0.056,-0.228 -0.115,-0.493 -0.178,-0.794c-0.063,-0.301 -0.122,-0.63 -0.179,-0.986c-0.057,-0.356 -0.091,-0.715 -0.102,-1.077c-0.011,-0.362 0.008,-0.699 0.058,-1.009c0.05,-0.311 0.121,-0.601 0.211,-0.871c0.091,-0.27 0.153,-0.512 0.186,-0.724c0.034,-0.212 0.062,-0.407 0.086,-0.583c0.025,-0.176 0.057,-0.342 0.098,-0.496c0.04,-0.154 0.069,-0.265 0.085,-0.332c0.016,-0.067 0.024,-0.106 0.024,-0.117l0,-0.249c0,-0.046 -0.001,-0.084 -0.003,-0.111c-0.002,-0.028 -0.033,-0.043 -0.093,-0.046c-0.06,-0.003 -0.156,-0.005 -0.288,-0.005l-0.478,0c-0.187,0 -0.413,0.001 -0.678,0.003c-0.264,0.002 -0.562,0.019 -0.893,0.049c-0.331,0.031 -0.66,0.051 -0.986,0.062c-0.327,0.011 -0.634,0.017 -0.923,0.017l-3.762,0c-0.125,0 -0.252,0.003 -0.38,0.01c-0.128,0.007 -0.258,0.017 -0.39,0.032c-0.132,0.015 -0.24,0.028 -0.325,0.04c-0.084,0.012 -0.138,0.02 -0.162,0.023c-0.024,0.003 -0.039,0.004 -0.044,0.004l-0.132,0c-0.036,0 -0.063,-0.008 -0.081,-0.023c-0.019,-0.016 -0.027,-0.098 -0.025,-0.247c0.002,-0.149 0.023,-0.365 0.063,-0.645c0.039,-0.281 0.067,-0.579 0.084,-0.895c0.016,-0.316 0.024,-0.604 0.024,-0.864c0.001,-0.26 0.001,-0.493 0.001,-0.699l0,-2.467c0,-0.195 0.002,-0.382 0.006,-0.559c0.005,-0.177 0.024,-0.358 0.06,-0.543c0.036,-0.184 0.066,-0.36 0.091,-0.527c0.025,-0.167 0.041,-0.292 0.049,-0.376c0.008,-0.083 0.012,-0.131 0.012,-0.143l0,-0.018c0,0 -0.018,0.007 -0.054,0.021c-0.037,0.014 -0.123,0.038 -0.261,0.074c-0.137,0.036 -0.308,0.075 -0.513,0.119c-0.205,0.044 -0.423,0.083 -0.656,0.117c-0.232,0.035 -0.48,0.064 -0.744,0.089c-0.263,0.025 -0.538,0.045 -0.825,0.063c-0.286,0.017 -0.571,0.033 -0.856,0.048c-0.285,0.015 -0.558,0.025 -0.819,0.03c-0.261,0.005 -0.512,0.008 -0.754,0.008l-0.673,0c-0.208,0 -0.409,0.003 -0.604,0.01c-0.195,0.007 -0.421,0.027 -0.679,0.062c-0.258,0.035 -0.492,0.079 -0.703,0.134c-0.211,0.054 -0.395,0.109 -0.552,0.164c-0.157,0.055 -0.28,0.104 -0.37,0.148l-0.057,0.026l0.283,-0.162" style="fill:none;fill-rule:nonzero;stroke:#c2361a;stroke-width:1.7px;"/><path d="M151.506,60.119c-0.093,-0.031 -0.184,-0.073 -0.274,-0.126c-0.09,-0.053 -0.158,-0.111 -0.204,-0.173c-0.047,-0.062 -0.115,-0.129 -0.205,-0.2c-0.09,-0.071 -0.25,-0.131 -0.482,-0.18c-0.232,-0.05 -0.553,-0.084 -0.962,-0.102c-0.409,-0.018 -0.856,-0.024 -1.339,-0.017c-0.483,0.007 -0.936,0.019 -1.36,0.039c-0.424,0.019 -0.794,0.038 -1.112,0.054c-0.317,0.017 -0.568,0.034 -0.75,0.051c-0.183,0.017 -0.322,0.038 -0.416,0.062c-0.095,0.024 -0.175,0.056 -0.241,0.096c-0.066,0.04 -0.139,0.087 -0.219,0.141c-0.079,0.053 -0.156,0.102 -0.23,0.146c-0.074,0.044 -0.13,0.079 -0.17,0.104c-0.04,0.025 -0.068,0.048 -0.083,0.07c-0.015,0.022 -0.037,0.051 -0.065,0.086c-0.029,0.036 -0.06,0.073 -0.094,0.112c-0.035,0.039 -0.064,0.075 -0.089,0.107c-0.024,0.032 -0.048,0.068 -0.069,0.109c-0.022,0.041 -0.037,0.101 -0.045,0.182c-0.008,0.081 -0.01,0.194 -0.006,0.34c0.004,0.146 0.04,0.324 0.108,0.536c0.068,0.211 0.136,0.458 0.205,0.74c0.07,0.282 0.123,0.594 0.16,0.938c0.038,0.343 0.076,0.692 0.114,1.047c0.039,0.355 0.073,0.702 0.103,1.04c0.03,0.338 0.05,0.664 0.06,0.976c0.01,0.312 0.022,0.615 0.033,0.907c0.012,0.292 0.028,0.578 0.047,0.858c0.02,0.28 0.031,0.564 0.034,0.853c0.003,0.289 -0.009,0.577 -0.037,0.864c-0.028,0.287 -0.056,0.573 -0.087,0.86c-0.03,0.287 -0.045,0.583 -0.046,0.889c0,0.306 -0.004,0.597 -0.011,0.873c-0.006,0.276 -0.024,0.521 -0.053,0.735c-0.028,0.214 -0.05,0.409 -0.066,0.585c-0.015,0.175 -0.023,0.357 -0.023,0.544c0,0.187 -0.002,0.355 -0.004,0.505c-0.002,0.15 -0.023,0.295 -0.062,0.436c-0.04,0.141 -0.09,0.294 -0.151,0.461c-0.06,0.167 -0.112,0.331 -0.154,0.492c-0.043,0.162 -0.068,0.287 -0.076,0.378c-0.009,0.09 -0.014,0.161 -0.016,0.213c-0.002,0.052 -0.013,0.1 -0.032,0.144c-0.019,0.044 -0.032,0.083 -0.04,0.118c-0.008,0.035 0.01,0.054 0.055,0.057c0.045,0.003 0.165,-0.014 0.36,-0.053c0.194,-0.039 0.417,-0.086 0.668,-0.14c0.252,-0.054 0.534,-0.097 0.847,-0.129c0.313,-0.032 0.68,-0.076 1.101,-0.13c0.422,-0.055 0.844,-0.106 1.266,-0.153c0.423,-0.047 0.801,-0.074 1.135,-0.08c0.333,-0.006 0.653,0.006 0.959,0.035c0.307,0.03 0.621,0.078 0.944,0.146c0.324,0.068 0.608,0.111 0.852,0.131c0.245,0.019 0.41,0.029 0.494,0.029l0.131,0c0.004,0 -0.015,-0.002 -0.056,-0.007c-0.042,-0.004 -0.088,-0.022 -0.137,-0.053c-0.049,-0.031 -0.095,-0.076 -0.139,-0.135c-0.044,-0.059 -0.087,-0.136 -0.128,-0.229c-0.042,-0.094 -0.074,-0.219 -0.096,-0.377c-0.023,-0.157 -0.036,-0.36 -0.039,-0.606c-0.003,-0.247 -0.001,-0.557 0.006,-0.931c0.006,-0.374 0.017,-0.789 0.032,-1.244c0.015,-0.455 0.009,-0.908 -0.018,-1.358c-0.027,-0.45 -0.065,-0.896 -0.115,-1.339c-0.048,-0.442 -0.079,-0.883 -0.09,-1.321c-0.011,-0.438 -0.017,-0.842 -0.02,-1.212c-0.002,-0.37 -0.016,-0.717 -0.041,-1.041c-0.026,-0.324 -0.053,-0.663 -0.08,-1.016c-0.028,-0.353 -0.037,-0.701 -0.029,-1.043c0.008,-0.343 0.034,-0.637 0.077,-0.883c0.043,-0.246 0.071,-0.466 0.082,-0.659c0.011,-0.193 0.015,-0.402 0.013,-0.626c-0.002,-0.224 -0.009,-0.462 -0.021,-0.715c-0.012,-0.253 -0.019,-0.458 -0.019,-0.616l0,-0.452c0,-0.013 0.012,0.002 0.038,0.044" style="fill:none;fill-rule:nonzero;stroke:#c2361a;stroke-width:1.7px;"/></svg>