<?xml version="1.0" encoding="UTF-8" standalone="no"?><!DOCTYPE svg PUBLIC "-//W3C//DTD SVG 1.1//EN" "http://www.w3.org/Graphics/SVG/1.1/DTD/svg11.dtd"><svg width="100%" height="100%" viewBox="0 0 90 43" version="1.1" xmlns="http://www.w3.org/2000/svg" xmlns:xlink="http://www.w3.org/1999/xlink" xml:space="preserve" xmlns:serif="http://www.serif.com/" style="fill-rule:evenodd;clip-rule:evenodd;stroke-linecap:round;stroke-linejoin:round;stroke-miterlimit:10;"><rect id="Artboard2" x="0" y="0" width="90" height="42.72" style="fill:none;"/><clipPath id="_clip1"><rect x="0" y="0" width="90" height="42.72"/></clipPath><g clip-path="url(#_clip1)"><rect x="-0" y="0" width="90" height="42.96" style="fill:#fff;"/><path d="M24.706,6.73c0.046,-0.015 0.091,-0.079 0.136,-0.193c0.029,-0.073 0.04,-0.124 0.034,-0.151c-0.007,-0.027 -0.04,-0.056 -0.102,-0.088c-0.061,-0.032 -0.138,-0.063 -0.229,-0.095c-0.091,-0.032 -0.201,-0.055 -0.328,-0.071c-0.127,-0.015 -0.275,-0.023 -0.444,-0.024c-0.169,-0 -0.354,-0 -0.554,-0c-0.201,0 -0.418,0.007 -0.653,0.02c-0.234,0.014 -0.48,0.052 -0.738,0.116c-0.257,0.064 -0.508,0.133 -0.752,0.209c-0.244,0.075 -0.472,0.146 -0.685,0.212c-0.213,0.066 -0.419,0.124 -0.618,0.173c-0.2,0.049 -0.398,0.097 -0.595,0.143c-0.197,0.046 -0.396,0.105 -0.597,0.176c-0.201,0.072 -0.401,0.17 -0.598,0.294c-0.197,0.124 -0.394,0.264 -0.591,0.419c-0.197,0.155 -0.377,0.305 -0.539,0.452c-0.162,0.147 -0.316,0.287 -0.462,0.421c-0.146,0.134 -0.288,0.267 -0.427,0.398c-0.139,0.131 -0.282,0.266 -0.43,0.404c-0.148,0.138 -0.294,0.279 -0.437,0.422c-0.144,0.144 -0.284,0.285 -0.42,0.423c-0.136,0.139 -0.263,0.276 -0.381,0.412c-0.117,0.136 -0.225,0.268 -0.323,0.394c-0.098,0.126 -0.195,0.259 -0.292,0.397c-0.097,0.138 -0.199,0.279 -0.305,0.422c-0.107,0.143 -0.217,0.285 -0.331,0.427c-0.114,0.141 -0.222,0.276 -0.325,0.406c-0.102,0.129 -0.199,0.258 -0.289,0.387c-0.09,0.129 -0.181,0.261 -0.271,0.397c-0.09,0.136 -0.181,0.269 -0.273,0.401c-0.092,0.132 -0.186,0.266 -0.28,0.405c-0.095,0.138 -0.19,0.271 -0.284,0.398c-0.095,0.127 -0.186,0.253 -0.274,0.38c-0.088,0.126 -0.18,0.263 -0.277,0.41c-0.097,0.147 -0.19,0.304 -0.281,0.468c-0.091,0.165 -0.172,0.331 -0.243,0.499c-0.071,0.168 -0.136,0.334 -0.195,0.499c-0.059,0.165 -0.115,0.341 -0.168,0.527c-0.054,0.186 -0.104,0.38 -0.15,0.582c-0.046,0.202 -0.095,0.399 -0.146,0.591c-0.051,0.192 -0.102,0.373 -0.153,0.542c-0.051,0.169 -0.095,0.331 -0.132,0.487c-0.037,0.156 -0.064,0.31 -0.079,0.463c-0.015,0.153 -0.023,0.302 -0.024,0.446c-0,0.144 -0,0.283 -0,0.417l0,1.831c0,0.161 0.008,0.314 0.024,0.461c0.016,0.147 0.048,0.289 0.095,0.428c0.048,0.139 0.109,0.286 0.183,0.443c0.075,0.157 0.154,0.325 0.239,0.504c0.085,0.179 0.169,0.367 0.252,0.563c0.083,0.197 0.167,0.389 0.252,0.576c0.085,0.188 0.171,0.369 0.258,0.544c0.087,0.175 0.178,0.357 0.273,0.546c0.095,0.189 0.19,0.377 0.287,0.564c0.097,0.187 0.199,0.377 0.305,0.569c0.107,0.192 0.217,0.378 0.331,0.559c0.114,0.18 0.233,0.357 0.356,0.529c0.124,0.173 0.245,0.351 0.365,0.535c0.119,0.184 0.241,0.375 0.364,0.571c0.123,0.197 0.253,0.391 0.389,0.583c0.136,0.192 0.27,0.373 0.401,0.542c0.132,0.169 0.261,0.332 0.387,0.49c0.126,0.158 0.253,0.31 0.379,0.457c0.126,0.146 0.258,0.29 0.396,0.431c0.138,0.141 0.279,0.28 0.422,0.416c0.144,0.136 0.287,0.271 0.43,0.405c0.143,0.134 0.291,0.263 0.444,0.388c0.153,0.124 0.302,0.246 0.448,0.365c0.146,0.119 0.289,0.243 0.427,0.371c0.139,0.129 0.279,0.255 0.42,0.379c0.141,0.124 0.281,0.238 0.419,0.341c0.139,0.103 0.27,0.197 0.395,0.283c0.125,0.086 0.245,0.173 0.362,0.263c0.117,0.089 0.239,0.18 0.367,0.273c0.128,0.093 0.266,0.177 0.414,0.253c0.148,0.076 0.298,0.143 0.451,0.203c0.153,0.059 0.31,0.117 0.47,0.172c0.16,0.056 0.325,0.114 0.495,0.174c0.17,0.06 0.337,0.121 0.503,0.182c0.166,0.061 0.327,0.123 0.482,0.186c0.156,0.063 0.313,0.124 0.47,0.183c0.158,0.059 0.319,0.114 0.484,0.165c0.165,0.051 0.331,0.099 0.499,0.143c0.168,0.044 0.335,0.091 0.503,0.142c0.168,0.051 0.341,0.106 0.52,0.167c0.179,0.061 0.369,0.118 0.57,0.172c0.201,0.054 0.403,0.1 0.605,0.14c0.202,0.04 0.396,0.068 0.581,0.086c0.185,0.018 0.369,0.029 0.551,0.034c0.182,0.005 0.371,0.008 0.568,0.008c0.196,0 0.392,0 0.587,0c0.195,0 0.4,-0.003 0.615,-0.01c0.215,-0.007 0.449,-0.042 0.703,-0.105c0.254,-0.063 0.525,-0.141 0.813,-0.233c0.288,-0.092 0.571,-0.186 0.849,-0.284c0.278,-0.097 0.545,-0.194 0.801,-0.291c0.256,-0.097 0.509,-0.2 0.76,-0.309c0.25,-0.109 0.49,-0.222 0.72,-0.338c0.23,-0.117 0.447,-0.237 0.652,-0.36c0.205,-0.124 0.408,-0.255 0.609,-0.395c0.201,-0.14 0.421,-0.305 0.66,-0.495c0.239,-0.19 0.487,-0.39 0.745,-0.599c0.258,-0.209 0.496,-0.406 0.714,-0.592c0.218,-0.186 0.42,-0.375 0.606,-0.569c0.186,-0.194 0.365,-0.401 0.538,-0.621c0.173,-0.22 0.349,-0.443 0.528,-0.669c0.18,-0.226 0.36,-0.45 0.543,-0.671c0.182,-0.221 0.363,-0.448 0.544,-0.681c0.18,-0.233 0.345,-0.476 0.495,-0.73c0.15,-0.254 0.301,-0.522 0.453,-0.803c0.152,-0.281 0.305,-0.559 0.459,-0.835c0.154,-0.276 0.287,-0.536 0.401,-0.779c0.114,-0.244 0.206,-0.475 0.278,-0.695c0.072,-0.22 0.13,-0.431 0.174,-0.633c0.044,-0.202 0.096,-0.413 0.156,-0.634c0.06,-0.22 0.125,-0.446 0.196,-0.677c0.071,-0.231 0.131,-0.456 0.18,-0.675c0.05,-0.219 0.088,-0.437 0.115,-0.653c0.027,-0.216 0.046,-0.433 0.056,-0.649c0.01,-0.216 0.02,-0.442 0.03,-0.677c0.01,-0.235 0.015,-0.475 0.015,-0.72c0,-0.245 -0.004,-0.488 -0.013,-0.729c-0.009,-0.241 -0.031,-0.492 -0.067,-0.753c-0.036,-0.261 -0.072,-0.534 -0.108,-0.817c-0.036,-0.284 -0.079,-0.562 -0.126,-0.836c-0.048,-0.273 -0.112,-0.525 -0.194,-0.755c-0.081,-0.23 -0.168,-0.447 -0.261,-0.652c-0.093,-0.205 -0.179,-0.422 -0.26,-0.651c-0.081,-0.229 -0.172,-0.485 -0.276,-0.768c-0.103,-0.282 -0.232,-0.574 -0.385,-0.876c-0.154,-0.302 -0.31,-0.582 -0.468,-0.842c-0.158,-0.26 -0.311,-0.499 -0.457,-0.719c-0.146,-0.22 -0.293,-0.436 -0.441,-0.647c-0.148,-0.212 -0.301,-0.423 -0.458,-0.634c-0.157,-0.211 -0.325,-0.415 -0.504,-0.61c-0.179,-0.196 -0.371,-0.388 -0.578,-0.578c-0.207,-0.19 -0.403,-0.373 -0.588,-0.55c-0.185,-0.177 -0.358,-0.352 -0.516,-0.526c-0.159,-0.173 -0.315,-0.329 -0.468,-0.466c-0.153,-0.137 -0.328,-0.263 -0.525,-0.379c-0.197,-0.115 -0.407,-0.214 -0.628,-0.296c-0.221,-0.082 -0.43,-0.154 -0.628,-0.217c-0.197,-0.062 -0.396,-0.135 -0.595,-0.217c-0.199,-0.082 -0.4,-0.165 -0.601,-0.247c-0.201,-0.083 -0.412,-0.166 -0.632,-0.248c-0.22,-0.082 -0.452,-0.175 -0.694,-0.279c-0.243,-0.104 -0.482,-0.218 -0.718,-0.344c-0.236,-0.125 -0.476,-0.262 -0.721,-0.41c-0.244,-0.148 -0.518,-0.286 -0.819,-0.413c-0.302,-0.128 -0.626,-0.231 -0.972,-0.311c-0.346,-0.079 -0.682,-0.138 -1.006,-0.176c-0.325,-0.038 -0.639,-0.059 -0.943,-0.062c-0.452,-0.005 -0.941,0.033 -1.466,0.114" style="fill:none;fill-rule:nonzero;stroke:#348ad8;stroke-width:0.85px;"/><path d="M39.825,22.669c0.019,-0.011 0.089,-0.09 0.209,-0.235c0.12,-0.146 0.252,-0.29 0.396,-0.432c0.144,-0.142 0.302,-0.287 0.474,-0.436c0.172,-0.149 0.32,-0.275 0.444,-0.379c0.124,-0.104 0.217,-0.183 0.28,-0.235c0.062,-0.053 0.12,-0.082 0.174,-0.088c0.053,-0.006 0.111,-0.009 0.174,-0.009l0.196,0c0.068,0 0.13,0.01 0.187,0.031c0.056,0.021 0.112,0.063 0.168,0.127c0.056,0.064 0.115,0.143 0.178,0.237c0.063,0.094 0.133,0.195 0.21,0.305c0.077,0.109 0.167,0.216 0.268,0.321c0.101,0.105 0.204,0.207 0.309,0.307c0.105,0.1 0.205,0.192 0.301,0.275c0.096,0.084 0.177,0.161 0.243,0.231c0.066,0.07 0.13,0.138 0.191,0.201c0.061,0.064 0.125,0.122 0.193,0.176c0.068,0.054 0.134,0.102 0.2,0.143c0.066,0.042 0.11,0.068 0.132,0.078c0.031,0.014 0.036,-0.032 0.015,-0.139" style="fill:none;fill-rule:nonzero;stroke:#348ad8;stroke-width:0.85px;"/><path d="M47.818,16.986c0.071,0.034 0.153,0.012 0.245,-0.068c0.063,-0.054 0.084,-0.125 0.062,-0.212c-0.022,-0.087 -0.093,-0.159 -0.214,-0.217c-0.121,-0.058 -0.255,-0.096 -0.403,-0.114c-0.148,-0.018 -0.292,-0.026 -0.433,-0.024c-0.141,0.002 -0.29,0.037 -0.448,0.106c-0.157,0.069 -0.312,0.196 -0.463,0.382c-0.151,0.186 -0.279,0.406 -0.383,0.662c-0.104,0.256 -0.171,0.5 -0.201,0.733c-0.029,0.233 -0.032,0.428 -0.008,0.584c0.024,0.156 0.092,0.277 0.204,0.361c0.111,0.085 0.244,0.143 0.399,0.174c0.154,0.031 0.306,0.048 0.455,0.051c0.149,0.003 0.296,0 0.442,-0.009c0.146,-0.009 0.295,-0.042 0.448,-0.098c0.153,-0.056 0.3,-0.128 0.442,-0.215c0.142,-0.087 0.276,-0.19 0.403,-0.31c0.127,-0.12 0.245,-0.269 0.355,-0.446c0.11,-0.178 0.206,-0.372 0.288,-0.583c0.082,-0.211 0.141,-0.408 0.179,-0.592c0.038,-0.184 0.059,-0.341 0.062,-0.472c0.003,-0.131 0.004,-0.235 0.002,-0.312c-0.002,-0.077 -0.009,-0.136 -0.021,-0.176c-0.012,-0.04 -0.022,-0.075 -0.029,-0.104c-0.007,-0.029 -0.011,-0.058 -0.011,-0.088c-0,-0.029 -0.004,-0.058 -0.011,-0.087c-0.007,-0.029 -0.015,-0.055 -0.025,-0.077c-0.009,-0.022 -0.017,-0.038 -0.022,-0.049c-0.005,-0.01 -0.01,-0.018 -0.015,-0.023c-0.005,-0.005 -0.008,-0.008 -0.011,-0.008c-0.003,0 -0.005,-0 -0.007,-0c-0.002,0 -0.008,0.03 -0.018,0.089c-0.01,0.059 -0.022,0.193 -0.036,0.402c-0.014,0.209 -0.025,0.457 -0.033,0.744c-0.008,0.287 -0.013,0.584 -0.015,0.89c-0.003,0.306 0.007,0.597 0.03,0.871c0.022,0.274 0.077,0.496 0.163,0.666c0.086,0.17 0.175,0.28 0.267,0.33c0.129,0.071 0.259,-0.22 0.389,-0.873" style="fill:none;fill-rule:nonzero;stroke:#348ad8;stroke-width:0.85px;"/><path d="M58.025,19.978l-0.328,0c-0.094,0 -0.14,0 -0.137,0c0.003,0 0.084,0.002 0.245,0.006c0.161,0.004 0.423,0.011 0.787,0.022c0.364,0.01 0.78,-0.002 1.248,-0.038c0.468,-0.036 0.963,-0.108 1.484,-0.217c0.522,-0.109 0.899,-0.181 1.133,-0.218c0.234,-0.037 0.289,-0.006 0.167,0.091" style="fill:none;fill-rule:nonzero;stroke:#000;stroke-width:0.85px;"/><path d="M57.522,22.789c-0.065,0 -0.143,0.034 -0.236,0.102c-0.06,0.044 -0.085,0.08 -0.075,0.107c0.01,0.027 0.096,0.05 0.257,0.067c0.161,0.017 0.378,0.033 0.652,0.048c0.274,0.015 0.606,0.025 0.997,0.03c0.391,0.005 0.862,0.004 1.413,-0.005c0.551,-0.009 1.077,-0.027 1.577,-0.054c0.5,-0.027 0.719,-0.032 0.655,-0.013" style="fill:none;fill-rule:nonzero;stroke:#000;stroke-width:0.85px;"/><path d="M73.184,21.225c-0.019,-0.05 -0.058,-0.148 -0.117,-0.295c-0.059,-0.146 -0.134,-0.27 -0.224,-0.373c-0.09,-0.102 -0.227,-0.179 -0.41,-0.23c-0.183,-0.051 -0.425,-0.046 -0.728,0.016c-0.303,0.062 -0.609,0.247 -0.919,0.554c-0.31,0.307 -0.542,0.682 -0.695,1.124c-0.153,0.442 -0.21,0.86 -0.171,1.255c0.039,0.395 0.171,0.702 0.393,0.921c0.223,0.219 0.456,0.347 0.7,0.383c0.244,0.037 0.467,0.012 0.67,-0.075c0.203,-0.087 0.407,-0.249 0.613,-0.487c0.206,-0.238 0.416,-0.554 0.63,-0.949c0.214,-0.395 0.409,-0.867 0.587,-1.415c0.177,-0.548 0.306,-1.15 0.385,-1.805c0.079,-0.655 0.122,-1.252 0.129,-1.793c0.007,-0.541 0.012,-1.008 0.016,-1.401c0.004,-0.394 0.025,-0.739 0.063,-1.036c0.038,-0.297 0.073,-0.544 0.105,-0.74c0.032,-0.196 0.051,-0.331 0.057,-0.403c0.006,-0.072 0.009,-0.11 0.009,-0.114l0,-0.002l0,0.093c0,0.043 -0.003,0.184 -0.01,0.423c-0.007,0.239 -0.021,0.556 -0.043,0.951c-0.022,0.396 -0.044,0.865 -0.068,1.409c-0.024,0.543 -0.048,1.15 -0.073,1.821c-0.025,0.671 -0.034,1.293 -0.029,1.867c0.006,0.574 0.06,1.062 0.163,1.462c0.103,0.4 0.217,0.724 0.341,0.972c0.124,0.248 0.235,0.429 0.331,0.543c0.096,0.114 0.181,0.189 0.254,0.225c0.073,0.036 0.15,0.064 0.229,0.083c0.08,0.019 0.12,-0.004 0.12,-0.069" style="fill:none;fill-rule:nonzero;stroke:#000;stroke-width:0.85px;"/><path d="M79.046,23.806c-0.087,-0.027 -0.16,-0.085 -0.22,-0.172c-0.06,-0.087 -0.101,-0.181 -0.123,-0.28c-0.022,-0.1 -0.06,-0.182 -0.114,-0.247c-0.054,-0.065 -0.135,-0.103 -0.243,-0.115c-0.108,-0.011 -0.231,0.018 -0.371,0.089c-0.14,0.071 -0.267,0.207 -0.381,0.41c-0.114,0.203 -0.188,0.43 -0.223,0.682c-0.035,0.252 -0.033,0.488 0.005,0.709c0.038,0.221 0.135,0.376 0.292,0.464c0.156,0.089 0.339,0.114 0.547,0.078c0.208,-0.037 0.398,-0.147 0.571,-0.33c0.172,-0.183 0.312,-0.367 0.419,-0.553c0.107,-0.186 0.189,-0.339 0.247,-0.458c0.058,-0.119 0.092,-0.207 0.103,-0.263c0.011,-0.056 0.017,-0.087 0.017,-0.093c0,-0.006 0,-0.009 0,-0.009l0,0.065c0,0.043 0.016,0.123 0.048,0.24c0.032,0.117 0.099,0.257 0.201,0.421c0.102,0.164 0.219,0.332 0.35,0.505c0.131,0.173 0.26,0.325 0.389,0.456c0.129,0.131 0.263,0.231 0.404,0.302l0.105,0.053l-0.315,-0.159" style="fill:none;fill-rule:nonzero;stroke:#000;stroke-width:0.85px;"/></g></svg>