<?xml version="1.0" encoding="UTF-8" standalone="no"?><!DOCTYPE svg PUBLIC "-//W3C//DTD SVG 1.1//EN" "http://www.w3.org/Graphics/SVG/1.1/DTD/svg11.dtd"><svg width="100%" height="100%" viewBox="0 0 202 73" version="1.1" xmlns="http://www.w3.org/2000/svg" xmlns:xlink="http://www.w3.org/1999/xlink" xml:space="preserve" xmlns:serif="http://www.serif.com/" style="fill-rule:evenodd;clip-rule:evenodd;stroke-linecap:round;stroke-linejoin:round;stroke-miterlimit:10;"><rect id="Artboard3" x="0" y="0" width="201.12" height="72.48" style="fill:none;"/><rect x="0" y="0" width="201.12" height="72.48" style="fill:#fff;"/><path d="M48.694,63.309c0.071,0.032 0.145,0.023 0.221,-0.026c0.052,-0.033 0.091,-0.114 0.117,-0.242c0.026,-0.128 0.052,-0.286 0.076,-0.474c0.025,-0.188 0.044,-0.398 0.059,-0.632c0.015,-0.234 0.027,-0.488 0.037,-0.761c0.01,-0.274 0.028,-0.558 0.054,-0.854c0.026,-0.296 0.068,-0.607 0.128,-0.934c0.059,-0.327 0.137,-0.66 0.233,-1c0.096,-0.34 0.196,-0.671 0.301,-0.993c0.105,-0.322 0.206,-0.611 0.303,-0.866c0.098,-0.255 0.207,-0.494 0.33,-0.715c0.122,-0.222 0.281,-0.461 0.478,-0.72c0.196,-0.258 0.416,-0.523 0.658,-0.793c0.242,-0.27 0.476,-0.53 0.7,-0.778c0.224,-0.248 0.441,-0.484 0.651,-0.706c0.21,-0.223 0.414,-0.427 0.614,-0.613c0.2,-0.186 0.399,-0.362 0.598,-0.527c0.199,-0.166 0.402,-0.32 0.608,-0.462c0.206,-0.142 0.426,-0.279 0.661,-0.41c0.235,-0.131 0.485,-0.264 0.751,-0.397c0.266,-0.133 0.553,-0.28 0.86,-0.439c0.307,-0.159 0.623,-0.329 0.949,-0.508c0.325,-0.18 0.649,-0.354 0.97,-0.522c0.321,-0.168 0.633,-0.322 0.935,-0.462c0.302,-0.14 0.602,-0.269 0.901,-0.389c0.299,-0.12 0.592,-0.238 0.88,-0.354c0.288,-0.117 0.577,-0.24 0.867,-0.37c0.291,-0.13 0.598,-0.278 0.923,-0.442c0.325,-0.164 0.649,-0.324 0.973,-0.478c0.324,-0.154 0.65,-0.299 0.977,-0.435c0.327,-0.136 0.658,-0.278 0.991,-0.426c0.333,-0.148 0.652,-0.292 0.957,-0.431c0.305,-0.139 0.598,-0.271 0.878,-0.395c0.28,-0.124 0.558,-0.254 0.833,-0.39c0.275,-0.136 0.533,-0.271 0.776,-0.408c0.242,-0.136 0.474,-0.273 0.696,-0.412c0.222,-0.138 0.44,-0.284 0.657,-0.436c0.216,-0.152 0.437,-0.313 0.663,-0.483c0.226,-0.17 0.437,-0.326 0.633,-0.468c0.196,-0.142 0.376,-0.272 0.54,-0.389c0.163,-0.117 0.327,-0.246 0.489,-0.385c0.163,-0.14 0.34,-0.301 0.534,-0.484c0.193,-0.183 0.385,-0.37 0.575,-0.56c0.19,-0.19 0.365,-0.372 0.524,-0.545c0.159,-0.173 0.313,-0.344 0.461,-0.511c0.148,-0.167 0.302,-0.341 0.462,-0.521c0.16,-0.18 0.312,-0.348 0.457,-0.505c0.144,-0.157 0.274,-0.3 0.389,-0.429c0.115,-0.13 0.228,-0.26 0.34,-0.391c0.112,-0.131 0.229,-0.27 0.353,-0.418c0.124,-0.148 0.248,-0.303 0.371,-0.465c0.124,-0.162 0.251,-0.333 0.382,-0.512c0.131,-0.179 0.259,-0.355 0.383,-0.529c0.124,-0.173 0.238,-0.337 0.341,-0.491c0.103,-0.154 0.196,-0.306 0.279,-0.457c0.083,-0.15 0.161,-0.308 0.235,-0.472c0.073,-0.165 0.15,-0.342 0.23,-0.534c0.08,-0.191 0.153,-0.385 0.219,-0.582c0.066,-0.197 0.123,-0.384 0.17,-0.563c0.047,-0.178 0.081,-0.348 0.101,-0.509c0.02,-0.161 0.033,-0.321 0.039,-0.482c0.005,-0.161 0.008,-0.315 0.008,-0.464c0,-0.149 0.001,-0.287 0.003,-0.414c0.002,-0.127 0.009,-0.24 0.021,-0.339c0.017,-0.144 0.088,-0.258 0.211,-0.34" style="fill:none;fill-rule:nonzero;stroke:#c2361a;stroke-width:0.85px;"/><path d="M49.279,31.428c0.016,-0.004 0.049,0.143 0.098,0.439c0.049,0.296 0.111,0.584 0.186,0.865c0.075,0.281 0.181,0.56 0.318,0.838c0.137,0.278 0.286,0.539 0.449,0.783c0.163,0.244 0.31,0.482 0.443,0.713c0.133,0.231 0.252,0.453 0.357,0.666c0.105,0.213 0.216,0.406 0.332,0.58c0.116,0.174 0.24,0.334 0.374,0.481c0.133,0.146 0.277,0.294 0.431,0.442c0.155,0.148 0.318,0.29 0.49,0.424c0.172,0.135 0.345,0.253 0.518,0.356c0.173,0.103 0.351,0.208 0.535,0.314c0.184,0.106 0.386,0.219 0.605,0.338c0.22,0.119 0.442,0.233 0.666,0.343c0.224,0.11 0.436,0.217 0.636,0.321c0.2,0.104 0.401,0.212 0.602,0.324c0.201,0.112 0.405,0.219 0.612,0.322c0.206,0.103 0.42,0.193 0.641,0.272c0.221,0.079 0.435,0.152 0.642,0.22c0.207,0.068 0.408,0.147 0.603,0.236c0.195,0.089 0.385,0.188 0.57,0.297c0.185,0.109 0.372,0.22 0.561,0.334c0.189,0.114 0.39,0.218 0.603,0.312c0.213,0.093 0.427,0.184 0.641,0.271c0.214,0.087 0.405,0.172 0.573,0.252c0.167,0.081 0.308,0.146 0.422,0.196c0.114,0.05 0.203,0.084 0.267,0.101c0.064,0.018 0.084,0.031 0.058,0.04" style="fill:none;fill-rule:nonzero;stroke:#348ad8;stroke-width:0.85px;"/><path d="M80.319,63.671c-0.055,-0.06 -0.105,-0.132 -0.15,-0.216c-0.045,-0.085 -0.068,-0.171 -0.068,-0.259c-0,-0.088 -0,-0.201 -0,-0.338c0,-0.137 0.008,-0.3 0.024,-0.49c0.016,-0.19 0.035,-0.387 0.057,-0.591c0.022,-0.204 0.042,-0.404 0.059,-0.599c0.017,-0.195 0.034,-0.384 0.051,-0.567c0.017,-0.183 0.034,-0.361 0.051,-0.533c0.017,-0.173 0.029,-0.342 0.034,-0.508c0.005,-0.166 0.008,-0.329 0.008,-0.489c0,-0.16 0,-0.317 0,-0.471l0,-0.429c0,-0.132 -0.01,-0.255 -0.031,-0.37c-0.021,-0.115 -0.054,-0.222 -0.099,-0.323c-0.046,-0.1 -0.107,-0.198 -0.183,-0.292c-0.076,-0.095 -0.169,-0.21 -0.277,-0.347c-0.108,-0.136 -0.231,-0.302 -0.369,-0.497c-0.138,-0.195 -0.283,-0.397 -0.436,-0.606c-0.153,-0.209 -0.301,-0.41 -0.445,-0.603c-0.144,-0.193 -0.285,-0.384 -0.424,-0.573c-0.139,-0.19 -0.278,-0.377 -0.419,-0.562c-0.141,-0.185 -0.293,-0.364 -0.458,-0.537c-0.164,-0.173 -0.319,-0.335 -0.464,-0.487c-0.145,-0.152 -0.283,-0.293 -0.414,-0.425c-0.131,-0.132 -0.261,-0.253 -0.39,-0.363c-0.129,-0.11 -0.268,-0.215 -0.418,-0.315c-0.15,-0.1 -0.312,-0.205 -0.486,-0.316c-0.174,-0.111 -0.355,-0.233 -0.542,-0.366c-0.187,-0.133 -0.376,-0.271 -0.568,-0.415c-0.192,-0.144 -0.378,-0.273 -0.559,-0.388c-0.18,-0.115 -0.356,-0.225 -0.526,-0.33c-0.17,-0.105 -0.33,-0.197 -0.479,-0.276c-0.149,-0.079 -0.295,-0.149 -0.439,-0.21c-0.144,-0.061 -0.281,-0.118 -0.413,-0.172c-0.132,-0.054 -0.256,-0.113 -0.373,-0.178c-0.117,-0.065 -0.228,-0.123 -0.333,-0.172c-0.105,-0.05 -0.205,-0.08 -0.301,-0.091c-0.095,-0.011 -0.175,-0.017 -0.24,-0.017c-0.065,0 -0.12,-0.007 -0.167,-0.021c-0.066,-0.019 -0.083,-0.071 -0.052,-0.154" style="fill:none;fill-rule:nonzero;stroke:#348ad8;stroke-width:0.85px;"/><path d="M52.693,39.981c-0.006,-0.047 -0.011,-0.132 -0.017,-0.255c-0.004,-0.076 -0.006,-0.122 -0.006,-0.137c0,-0.015 -0.005,-0.024 -0.014,-0.027c-0.009,-0.003 -0.018,-0.018 -0.025,-0.045c-0.008,-0.028 -0.015,-0.076 -0.022,-0.145c-0.007,-0.069 -0.018,-0.154 -0.032,-0.255c-0.014,-0.101 -0.031,-0.211 -0.05,-0.329c-0.019,-0.118 -0.04,-0.25 -0.062,-0.395c-0.022,-0.145 -0.037,-0.3 -0.045,-0.465c-0.008,-0.165 -0.012,-0.316 -0.012,-0.454c-0,-0.137 0.006,-0.255 0.017,-0.354c0.011,-0.099 0.051,-0.176 0.119,-0.231c0.068,-0.056 0.165,-0.086 0.289,-0.092c0.124,-0.006 0.28,-0.008 0.467,-0.006c0.187,0.002 0.4,0.006 0.64,0.011c0.239,0.005 0.467,0.008 0.683,0.008c0.216,0 0.395,0 0.536,0c0.141,0 0.254,0.01 0.338,0.031c0.084,0.021 0.14,0.038 0.166,0.052c0.037,0.02 0.038,0.046 0.003,0.079" style="fill:none;fill-rule:nonzero;stroke:#348ad8;stroke-width:0.85px;"/><path d="M74.085,38.275c-0.014,-0.061 0.084,-0.113 0.291,-0.154c0.208,-0.041 0.44,-0.08 0.695,-0.116c0.256,-0.036 0.514,-0.079 0.775,-0.13c0.261,-0.051 0.491,-0.088 0.69,-0.111c0.199,-0.023 0.368,-0.03 0.506,-0.019c0.138,0.011 0.255,0.072 0.352,0.185c0.096,0.113 0.181,0.244 0.254,0.394c0.073,0.15 0.145,0.315 0.216,0.493c0.071,0.178 0.133,0.383 0.187,0.615c0.054,0.232 0.11,0.461 0.168,0.688c0.058,0.227 0.125,0.414 0.203,0.561c0.077,0.147 0.163,0.259 0.256,0.336l0.07,0.058l-0.211,-0.173" style="fill:none;fill-rule:nonzero;stroke:#c2361a;stroke-width:0.85px;"/><path d="M16.689,47.067c0.007,-0.1 -0.043,-0.127 -0.149,-0.08c-0.078,0.035 -0.182,0.206 -0.315,0.515c-0.132,0.309 -0.322,0.73 -0.571,1.265c-0.248,0.535 -0.515,1.091 -0.8,1.669c-0.285,0.578 -0.514,1.047 -0.687,1.407c-0.173,0.36 -0.287,0.61 -0.341,0.75c-0.055,0.14 -0.084,0.234 -0.087,0.283c-0.003,0.048 -0.005,0.094 -0.005,0.137c-0,0.043 -0.003,0.121 -0.01,0.235c-0.007,0.114 -0.039,0.241 -0.098,0.382c-0.059,0.141 -0.124,0.266 -0.194,0.375c-0.071,0.109 -0.132,0.198 -0.184,0.267c-0.052,0.069 -0.097,0.128 -0.137,0.177c-0.039,0.049 -0.075,0.1 -0.107,0.153c-0.032,0.053 -0.062,0.112 -0.092,0.178c-0.029,0.066 -0.051,0.121 -0.067,0.166c-0.015,0.045 -0.027,0.077 -0.034,0.097c-0.007,0.02 -0.012,0.037 -0.015,0.049c-0.003,0.012 -0.004,0.02 -0.004,0.023c-0,0.003 -0,0.004 -0,0.004c0,0 0.019,-0.016 0.057,-0.047c0.038,-0.031 0.145,-0.12 0.321,-0.264c0.175,-0.145 0.368,-0.289 0.576,-0.434c0.209,-0.145 0.402,-0.266 0.578,-0.362c0.177,-0.096 0.33,-0.176 0.461,-0.237c0.13,-0.062 0.237,-0.105 0.319,-0.128c0.082,-0.023 0.137,-0.035 0.163,-0.036c0.026,-0 0.038,0.019 0.037,0.058c-0.002,0.039 -0.041,0.11 -0.117,0.212c-0.076,0.103 -0.193,0.218 -0.352,0.347c-0.158,0.128 -0.332,0.264 -0.521,0.407c-0.189,0.143 -0.366,0.278 -0.53,0.406c-0.164,0.128 -0.3,0.227 -0.407,0.297c-0.107,0.07 -0.197,0.114 -0.271,0.13c-0.074,0.016 -0.141,0.01 -0.202,-0.019c-0.061,-0.029 -0.114,-0.141 -0.159,-0.336c-0.045,-0.195 -0.07,-0.427 -0.076,-0.696c-0.009,-0.401 0.007,-0.832 0.048,-1.295" style="fill:none;fill-rule:nonzero;stroke:#000;stroke-width:0.85px;"/><path d="M16.656,47.157c-0.008,-0.041 -0.06,-0.124 -0.156,-0.249c-0.058,-0.075 -0.092,-0.118 -0.103,-0.13c-0.011,-0.011 0.006,-0.017 0.051,-0.017c0.045,-0 0.18,0.006 0.404,0.017c0.224,0.011 0.517,0.03 0.879,0.057c0.362,0.027 0.781,0.046 1.256,0.059c0.476,0.013 0.967,0.019 1.475,0.019c0.507,0 1.008,0.005 1.503,0.014c0.494,0.009 0.96,0.021 1.398,0.036c0.438,0.015 0.836,0.025 1.196,0.03c0.36,0.005 0.728,0.005 1.105,-0.002c0.377,-0.007 0.771,-0.044 1.182,-0.112c0.411,-0.068 0.776,-0.123 1.097,-0.164c0.321,-0.041 0.589,-0.052 0.806,-0.032c0.217,0.02 0.426,0.051 0.627,0.093c0.201,0.042 0.416,0.063 0.643,0.065c0.228,0.001 0.448,-0.017 0.661,-0.054c0.213,-0.037 0.391,-0.069 0.535,-0.095c0.144,-0.026 0.246,-0.039 0.305,-0.039c0.059,-0 0.091,0.001 0.097,0.003c0.006,0.002 0.009,0.012 0.009,0.028c0,0.017 -0.003,0.035 -0.01,0.054c-0.007,0.019 -0.037,0.06 -0.09,0.124c-0.053,0.063 -0.164,0.164 -0.332,0.302c-0.168,0.138 -0.377,0.304 -0.628,0.497c-0.251,0.193 -0.476,0.367 -0.674,0.52c-0.198,0.154 -0.338,0.262 -0.42,0.326c-0.082,0.064 -0.082,0.087 -0,0.069c0.082,-0.018 0.307,-0.13 0.677,-0.337c0.37,-0.207 0.779,-0.449 1.229,-0.725c0.45,-0.277 0.828,-0.519 1.134,-0.727c0.307,-0.208 0.5,-0.367 0.581,-0.48c0.081,-0.112 0.025,-0.204 -0.167,-0.276c-0.192,-0.072 -0.483,-0.127 -0.873,-0.164c-0.596,-0.058 -1.087,-0.022 -1.472,0.108" style="fill:none;fill-rule:nonzero;stroke:#000;stroke-width:0.85px;"/><path d="M16.664,46.083c-0.019,0.015 -0.09,0.063 -0.212,0.147c-0.069,0.047 -0.11,0.062 -0.121,0.045c-0.011,-0.017 -0.011,-0.146 0,-0.389c0.011,-0.242 0.038,-0.624 0.082,-1.146c0.043,-0.522 0.071,-1.18 0.082,-1.973c0.011,-0.793 0.018,-1.614 0.02,-2.462c0.002,-0.848 0.022,-1.559 0.06,-2.133c0.038,-0.574 0.062,-1.023 0.073,-1.348c0.011,-0.325 0.016,-0.623 0.014,-0.892c-0.002,-0.27 -0.01,-0.562 -0.024,-0.876c-0.014,-0.314 -0.04,-0.624 -0.079,-0.93c-0.038,-0.306 -0.063,-0.572 -0.074,-0.798c-0.011,-0.226 -0.01,-0.419 0.004,-0.581c0.014,-0.161 0.038,-0.268 0.075,-0.32c0.036,-0.052 0.065,-0.084 0.085,-0.097c0.02,-0.013 0.037,-0.031 0.052,-0.055c0.015,-0.024 0.023,-0.044 0.026,-0.062c0.003,-0.018 0,-0.028 -0.009,-0.031c-0.009,-0.003 -0.09,0.057 -0.243,0.182c-0.153,0.124 -0.356,0.31 -0.608,0.559c-0.252,0.248 -0.455,0.461 -0.607,0.638c-0.153,0.177 -0.252,0.294 -0.297,0.351c-0.045,0.058 -0.064,0.077 -0.057,0.058c0.007,-0.019 0.023,-0.066 0.05,-0.142c0.027,-0.076 0.104,-0.234 0.233,-0.474c0.128,-0.241 0.272,-0.463 0.432,-0.667c0.16,-0.204 0.33,-0.364 0.512,-0.479c0.182,-0.115 0.372,-0.182 0.57,-0.2c0.198,-0.018 0.411,0.018 0.639,0.108c0.228,0.09 0.434,0.236 0.619,0.44c0.185,0.203 0.342,0.419 0.472,0.648c0.194,0.34 0.462,0.632 0.805,0.876" style="fill:none;fill-rule:nonzero;stroke:#000;stroke-width:0.85px;"/><path d="M8.418,31.34l0,-0.286c0,-0.119 -0.002,-0.201 -0.007,-0.248c-0.004,-0.046 -0.024,-0.059 -0.06,-0.038c-0.036,0.021 -0.069,0.158 -0.101,0.41c-0.032,0.252 -0.061,0.618 -0.088,1.097c-0.027,0.479 -0.045,1.018 -0.056,1.619c-0.011,0.601 -0.005,1.12 0.017,1.557c0.022,0.437 0.138,0.725 0.348,0.865c0.3,0.199 0.841,0.108 1.623,-0.273" style="fill:none;fill-rule:nonzero;stroke:#000;stroke-width:0.85px;"/><path d="M6.777,34.928c0.153,-0.089 0.34,-0.214 0.563,-0.375c0.323,-0.234 0.908,-0.398 1.754,-0.492" style="fill:none;fill-rule:nonzero;stroke:#000;stroke-width:0.85px;"/><path d="M30.769,50.958c-0.037,0.038 -0.096,0.073 -0.178,0.105c-0.053,0.02 -0.047,0.008 0.018,-0.038c0.065,-0.046 0.246,-0.086 0.544,-0.12c0.297,-0.034 0.546,-0.022 0.746,0.037c0.2,0.059 0.327,0.191 0.381,0.395c0.054,0.204 0.002,0.445 -0.156,0.723c-0.158,0.278 -0.368,0.53 -0.631,0.757c-0.262,0.227 -0.489,0.39 -0.68,0.488l-0.143,0.074l0.43,-0.221" style="fill:none;fill-rule:nonzero;stroke:#000;stroke-width:0.85px;"/><path d="M34.536,50.874c-0.08,0 -0.18,0.003 -0.299,0.01c-0.119,0.007 -0.226,0.024 -0.321,0.053c-0.095,0.028 -0.195,0.078 -0.302,0.149c-0.106,0.071 -0.213,0.187 -0.32,0.348c-0.107,0.161 -0.194,0.363 -0.259,0.604c-0.066,0.241 -0.09,0.465 -0.075,0.673c0.016,0.207 0.164,0.347 0.446,0.417c0.406,0.102 1.051,-0.039 1.936,-0.425" style="fill:none;fill-rule:nonzero;stroke:#000;stroke-width:0.85px;"/><path d="M7.434,56.737c0.091,0.015 0.162,0.105 0.212,0.27c0.051,0.165 0.123,0.363 0.216,0.596c0.093,0.233 0.25,0.413 0.472,0.54c0.222,0.127 0.473,0.182 0.755,0.166c0.281,-0.017 0.51,-0.126 0.686,-0.329c0.176,-0.203 0.278,-0.416 0.307,-0.639c0.029,-0.223 0.029,-0.38 0.002,-0.471c-0.027,-0.091 -0.062,-0.118 -0.104,-0.082c-0.042,0.036 -0.053,0.161 -0.032,0.374c0.021,0.213 0.098,0.472 0.231,0.778c0.133,0.306 0.262,0.664 0.388,1.075c0.126,0.411 0.198,0.85 0.217,1.317c0.018,0.467 -0.026,0.87 -0.132,1.21c-0.107,0.34 -0.23,0.563 -0.369,0.668c-0.139,0.106 -0.291,0.151 -0.457,0.135c-0.165,-0.016 -0.272,-0.09 -0.321,-0.223" style="fill:none;fill-rule:nonzero;stroke:#000;stroke-width:0.85px;"/><path d="M23.292,7.957c0.079,-0.055 0.152,-0.129 0.218,-0.222c0.066,-0.093 0.091,-0.18 0.075,-0.261c-0.017,-0.08 -0.109,-0.16 -0.278,-0.238c-0.169,-0.078 -0.389,-0.14 -0.661,-0.185c-0.271,-0.046 -0.581,-0.058 -0.928,-0.037c-0.348,0.021 -0.704,0.137 -1.07,0.349c-0.366,0.211 -0.648,0.458 -0.846,0.739c-0.198,0.281 -0.272,0.561 -0.221,0.838c0.051,0.278 0.272,0.542 0.664,0.793c0.392,0.251 0.846,0.493 1.362,0.724c0.516,0.231 0.984,0.466 1.404,0.703c0.42,0.237 0.694,0.506 0.822,0.807c0.128,0.301 0.089,0.615 -0.116,0.941c-0.205,0.326 -0.517,0.603 -0.936,0.832c-0.419,0.228 -0.848,0.396 -1.285,0.503c-0.438,0.107 -0.83,0.158 -1.176,0.155l-0.26,-0.003l0.779,0.008" style="fill:none;fill-rule:nonzero;stroke:#000;stroke-width:0.85px;"/><path d="M26.486,11.807c0,0.089 -0.002,0.276 -0.007,0.561c-0.005,0.285 -0.007,0.652 -0.008,1.101c-0.001,0.449 0.043,0.81 0.13,1.083c0.087,0.273 0.16,0.325 0.218,0.157" style="fill:none;fill-rule:nonzero;stroke:#000;stroke-width:0.85px;"/><path d="M26.586,10.356c-0.054,-0.093 -0.063,-0.188 -0.025,-0.283c0.036,-0.092 0.391,0.194 1.065,0.858" style="fill:none;fill-rule:nonzero;stroke:#000;stroke-width:0.85px;"/><path d="M30.261,11.765c-0.076,-0.099 -0.276,-0.154 -0.599,-0.162c-0.208,-0.006 -0.402,0.125 -0.58,0.392c-0.178,0.267 -0.31,0.601 -0.394,1.002c-0.085,0.401 -0.092,0.762 -0.021,1.084c0.07,0.322 0.268,0.521 0.593,0.599c0.325,0.078 0.68,0.005 1.065,-0.219c0.385,-0.224 0.691,-0.586 0.917,-1.087c0.226,-0.501 0.353,-1.137 0.382,-1.907c0.028,-0.771 -0.015,-1.51 -0.129,-2.217c-0.115,-0.708 -0.217,-1.192 -0.308,-1.455c-0.091,-0.262 -0.142,-0.388 -0.154,-0.378c-0.012,0.01 -0.005,0.119 0.02,0.328c0.025,0.209 0.061,0.522 0.107,0.939c0.046,0.418 0.11,0.91 0.193,1.477c0.083,0.567 0.226,1.155 0.43,1.766c0.204,0.61 0.447,1.135 0.731,1.575c0.283,0.44 0.561,0.715 0.834,0.826c0.273,0.111 0.536,0.127 0.79,0.048c0.254,-0.079 0.491,-0.227 0.711,-0.444c0.22,-0.217 0.404,-0.483 0.551,-0.798c0.147,-0.315 0.232,-0.624 0.256,-0.925c0.024,-0.301 -0.023,-0.517 -0.141,-0.646c-0.118,-0.129 -0.273,-0.123 -0.468,0.018c-0.194,0.141 -0.346,0.389 -0.454,0.742c-0.109,0.353 -0.162,0.708 -0.159,1.064c0.003,0.356 0.141,0.654 0.415,0.893c0.392,0.343 1.394,0.383 3.005,0.12" style="fill:none;fill-rule:nonzero;stroke:#000;stroke-width:0.85px;"/><path d="M47.097,8.082c-0.051,-0.043 -0.146,-0.168 -0.285,-0.377l-0.061,-0.095l0.067,0.09c0.087,0.121 0.299,0.474 0.636,1.059c0.337,0.585 0.677,1.225 1.022,1.919c0.345,0.694 0.671,1.365 0.98,2.012c0.309,0.647 0.565,1.132 0.768,1.454c0.203,0.322 0.367,0.501 0.49,0.537c0.124,0.036 0.256,-0.074 0.398,-0.329c0.141,-0.255 0.307,-0.688 0.498,-1.3c0.191,-0.612 0.4,-1.344 0.627,-2.197c0.227,-0.853 0.425,-1.565 0.592,-2.135c0.167,-0.57 0.273,-0.895 0.317,-0.973c0.061,-0.108 0.083,-0.02 0.068,0.265" style="fill:none;fill-rule:nonzero;stroke:#000;stroke-width:0.85px;"/><path d="M55.295,12.485c0,0.158 0.006,0.385 0.017,0.68c0.011,0.295 0.046,0.609 0.106,0.94c0.059,0.332 0.112,0.584 0.157,0.757l0.036,0.141l-0.028,-0.1" style="fill:none;fill-rule:nonzero;stroke:#000;stroke-width:0.85px;"/><path d="M55.78,10.318c-0.022,-0.104 -0.03,-0.202 -0.023,-0.295c0.004,-0.063 0.069,0.007 0.195,0.21c0.125,0.203 0.256,0.46 0.392,0.772c0.136,0.312 0.295,0.631 0.477,0.959c0.182,0.328 0.42,0.629 0.714,0.902c0.294,0.274 0.648,0.453 1.063,0.538c0.415,0.085 0.831,0.056 1.248,-0.088c0.417,-0.144 0.752,-0.357 1.003,-0.642c0.251,-0.284 0.393,-0.565 0.424,-0.841c0.032,-0.276 -0.027,-0.503 -0.177,-0.681c-0.15,-0.178 -0.339,-0.271 -0.568,-0.28c-0.229,-0.009 -0.454,0.119 -0.674,0.385c-0.221,0.266 -0.38,0.627 -0.478,1.084c-0.098,0.457 -0.07,0.911 0.083,1.361c0.153,0.45 0.485,0.774 0.996,0.97c0.75,0.288 1.535,0.237 2.356,-0.152" style="fill:none;fill-rule:nonzero;stroke:#000;stroke-width:0.85px;"/><path d="M63.891,11.741c0,0.035 0.025,0.242 0.074,0.623c0.049,0.38 0.201,0.761 0.456,1.141c0.255,0.38 0.579,0.629 0.972,0.747c0.393,0.118 0.746,0.095 1.058,-0.069c0.312,-0.164 0.526,-0.399 0.643,-0.705c0.116,-0.306 0.181,-0.524 0.192,-0.654c0.012,-0.13 0.023,-0.181 0.033,-0.153c0.01,0.028 0.035,0.098 0.075,0.209c0.04,0.112 0.195,0.323 0.465,0.635c0.27,0.311 0.639,0.559 1.108,0.741c0.468,0.183 0.936,0.228 1.404,0.135c0.468,-0.093 0.809,-0.351 1.024,-0.773c0.215,-0.422 0.328,-0.877 0.339,-1.365c0.01,-0.488 -0.087,-0.858 -0.293,-1.11c-0.292,-0.358 -0.872,-0.242 -1.739,0.348" style="fill:none;fill-rule:nonzero;stroke:#000;stroke-width:0.85px;"/><path d="M18.348,16.403c-0.1,-0.003 -0.203,0.068 -0.308,0.213c-0.07,0.096 -0.092,0.188 -0.066,0.274c0.026,0.086 0.162,0.143 0.407,0.169c0.245,0.027 0.588,0.018 1.027,-0.025c0.439,-0.043 0.939,-0.083 1.499,-0.119c0.56,-0.036 1.155,-0.053 1.785,-0.051c0.63,0.002 1.283,0.019 1.96,0.051c0.676,0.033 1.36,0.066 2.05,0.101c0.69,0.035 1.36,0.054 2.009,0.057c0.649,0.003 1.269,0.013 1.862,0.029c0.593,0.016 1.179,0.041 1.76,0.075c0.581,0.034 1.171,0.055 1.77,0.063c0.599,0.008 1.217,-0.002 1.852,-0.032c0.636,-0.03 1.242,-0.07 1.82,-0.122c0.578,-0.052 1.1,-0.08 1.567,-0.084c0.467,-0.004 0.933,0.019 1.396,0.068c0.464,0.049 0.92,0.091 1.368,0.127c0.448,0.036 0.877,0.054 1.287,0.055c0.409,0.001 0.812,0.004 1.209,0.011c0.396,0.007 0.801,0.022 1.213,0.046c0.412,0.024 0.846,0.039 1.301,0.045c0.456,0.006 0.91,0.007 1.363,0.005c0.453,-0.002 0.894,-0.006 1.322,-0.011c0.428,-0.005 0.871,-0.008 1.329,-0.008c0.458,0 0.966,-0.015 1.525,-0.045c0.559,-0.03 1.162,-0.068 1.81,-0.115c0.647,-0.047 1.257,-0.075 1.827,-0.087c0.571,-0.011 1.109,-0.011 1.615,0c0.506,0.011 1.03,0.035 1.573,0.072c0.543,0.037 1.096,0.057 1.66,0.06c0.564,0.003 1.121,-0.004 1.67,-0.023c0.55,-0.019 1.106,-0.03 1.669,-0.033c0.563,-0.003 1.145,-0 1.746,0.009c0.601,0.009 1.221,0.027 1.859,0.054c0.638,0.027 1.26,0.04 1.865,0.038c0.605,-0.002 1.15,-0.021 1.634,-0.058c0.484,-0.037 0.867,-0.081 1.151,-0.132c0.283,-0.051 0.469,-0.086 0.558,-0.105l0.066,-0.014l-0.199,0.043" style="fill:none;fill-rule:nonzero;stroke:#000;stroke-width:0.85px;"/><path d="M191.659,43.57c0.078,0.003 0.146,0.012 0.204,0.027c0.039,0.01 0.054,-0.004 0.045,-0.043c-0.009,-0.038 -0.031,-0.111 -0.064,-0.218c-0.034,-0.107 -0.066,-0.198 -0.097,-0.274c-0.031,-0.076 -0.067,-0.15 -0.108,-0.223c-0.041,-0.073 -0.088,-0.15 -0.141,-0.233c-0.053,-0.082 -0.118,-0.174 -0.195,-0.275c-0.077,-0.101 -0.167,-0.21 -0.271,-0.326c-0.103,-0.116 -0.229,-0.248 -0.378,-0.395c-0.149,-0.147 -0.321,-0.306 -0.516,-0.478c-0.195,-0.172 -0.402,-0.345 -0.621,-0.52c-0.218,-0.175 -0.436,-0.35 -0.652,-0.525c-0.217,-0.175 -0.431,-0.346 -0.642,-0.514c-0.211,-0.168 -0.43,-0.335 -0.655,-0.5c-0.225,-0.166 -0.472,-0.324 -0.74,-0.475c-0.268,-0.151 -0.55,-0.286 -0.846,-0.404c-0.296,-0.118 -0.59,-0.227 -0.882,-0.327c-0.292,-0.1 -0.567,-0.2 -0.823,-0.299c-0.257,-0.099 -0.506,-0.208 -0.746,-0.327c-0.241,-0.119 -0.48,-0.228 -0.718,-0.329c-0.238,-0.1 -0.497,-0.191 -0.777,-0.272c-0.28,-0.081 -0.563,-0.155 -0.847,-0.221c-0.285,-0.066 -0.579,-0.127 -0.885,-0.183c-0.305,-0.056 -0.615,-0.114 -0.928,-0.175c-0.314,-0.061 -0.626,-0.104 -0.937,-0.13c-0.311,-0.026 -0.622,-0.039 -0.934,-0.04c-0.312,-0 -0.605,0.006 -0.881,0.02c-0.276,0.014 -0.535,0.038 -0.776,0.075c-0.241,0.036 -0.486,0.074 -0.734,0.112c-0.248,0.039 -0.495,0.086 -0.743,0.141c-0.248,0.055 -0.49,0.118 -0.727,0.188c-0.237,0.07 -0.467,0.145 -0.69,0.225c-0.224,0.08 -0.454,0.167 -0.692,0.261c-0.238,0.094 -0.47,0.195 -0.697,0.304c-0.227,0.109 -0.443,0.215 -0.648,0.317c-0.205,0.103 -0.4,0.195 -0.585,0.276c-0.185,0.081 -0.376,0.159 -0.572,0.234c-0.196,0.075 -0.396,0.157 -0.6,0.247c-0.204,0.089 -0.409,0.188 -0.616,0.297c-0.206,0.109 -0.414,0.216 -0.623,0.32c-0.209,0.105 -0.413,0.201 -0.61,0.29c-0.197,0.088 -0.385,0.167 -0.563,0.235c-0.178,0.069 -0.357,0.143 -0.536,0.222c-0.18,0.079 -0.364,0.169 -0.553,0.267c-0.189,0.099 -0.384,0.206 -0.586,0.323c-0.202,0.116 -0.395,0.23 -0.581,0.339c-0.186,0.11 -0.35,0.21 -0.492,0.301c-0.143,0.09 -0.278,0.183 -0.407,0.277c-0.129,0.094 -0.26,0.199 -0.394,0.315c-0.134,0.116 -0.265,0.236 -0.394,0.36c-0.129,0.124 -0.243,0.241 -0.341,0.351c-0.099,0.11 -0.187,0.218 -0.265,0.325c-0.078,0.107 -0.159,0.212 -0.241,0.314c-0.082,0.102 -0.166,0.201 -0.251,0.296c-0.085,0.095 -0.154,0.169 -0.207,0.222c-0.053,0.053 -0.088,0.085 -0.106,0.096c-0.018,0.011 -0.027,-0.003 -0.028,-0.041c-0,-0.038 -0,-0.14 -0,-0.307c0,-0.166 0.011,-0.363 0.034,-0.589c0.023,-0.226 0.08,-0.475 0.172,-0.746c0.092,-0.271 0.206,-0.55 0.341,-0.837c0.135,-0.287 0.271,-0.55 0.408,-0.788c0.137,-0.238 0.247,-0.427 0.329,-0.568c0.083,-0.14 0.137,-0.227 0.163,-0.259c0.026,-0.033 0.039,-0.049 0.04,-0.049c0,-0 -0.001,0.018 -0.003,0.054c-0.002,0.037 -0.033,0.12 -0.093,0.249c-0.06,0.13 -0.153,0.314 -0.277,0.554c-0.125,0.239 -0.239,0.502 -0.343,0.788c-0.104,0.286 -0.173,0.552 -0.207,0.797c-0.034,0.245 -0.053,0.453 -0.056,0.624c-0.003,0.17 0.006,0.317 0.026,0.44c0.021,0.123 0.048,0.233 0.082,0.331c0.034,0.098 0.067,0.185 0.098,0.261c0.031,0.076 0.085,0.136 0.16,0.179c0.075,0.043 0.204,0.066 0.387,0.069c0.183,0.003 0.406,-0.016 0.668,-0.057c0.262,-0.041 0.555,-0.095 0.879,-0.16c0.324,-0.066 0.644,-0.13 0.962,-0.193c0.318,-0.063 0.553,-0.108 0.704,-0.134l0.114,-0.019l-0.341,0.058" style="fill:none;fill-rule:nonzero;stroke:#348ad8;stroke-width:0.85px;"/><path d="M160.554,46.412c-0.02,-0.145 -0.045,-0.305 -0.073,-0.48c-0.028,-0.175 -0.053,-0.304 -0.074,-0.388c-0.021,-0.083 -0.067,-0.131 -0.138,-0.143c-0.07,-0.012 -0.188,0.026 -0.352,0.113c-0.164,0.087 -0.347,0.239 -0.549,0.457c-0.202,0.218 -0.348,0.44 -0.439,0.667c-0.09,0.227 -0.086,0.417 0.015,0.569c0.1,0.152 0.336,0.239 0.708,0.26c0.372,0.021 0.717,-0.013 1.036,-0.103c0.319,-0.09 0.547,-0.242 0.685,-0.457c0.138,-0.215 0.191,-0.447 0.158,-0.695c-0.033,-0.248 -0.162,-0.44 -0.389,-0.574c-0.227,-0.134 -0.485,-0.175 -0.773,-0.122c-0.289,0.053 -0.537,0.227 -0.746,0.524c-0.209,0.296 -0.331,0.6 -0.367,0.911c-0.035,0.311 0.045,0.542 0.242,0.692c0.197,0.151 0.45,0.213 0.761,0.187c0.311,-0.026 0.56,-0.148 0.746,-0.367c0.186,-0.219 0.288,-0.479 0.305,-0.779c0.018,-0.301 -0.06,-0.538 -0.234,-0.713c-0.174,-0.175 -0.414,-0.22 -0.721,-0.137c-0.307,0.084 -0.549,0.308 -0.727,0.673c-0.177,0.365 -0.246,0.698 -0.206,1.001c0.04,0.302 0.209,0.48 0.508,0.533c0.298,0.053 0.583,-0.02 0.852,-0.219c0.27,-0.2 0.434,-0.457 0.493,-0.772c0.059,-0.315 0.003,-0.56 -0.167,-0.735c-0.17,-0.175 -0.421,-0.193 -0.751,-0.054c-0.33,0.14 -0.59,0.404 -0.778,0.793c-0.188,0.389 -0.247,0.71 -0.177,0.961c0.071,0.252 0.257,0.354 0.56,0.307c0.303,-0.047 0.562,-0.238 0.778,-0.575c0.216,-0.337 0.344,-0.676 0.385,-1.017c0.042,-0.342 0.016,-0.571 -0.078,-0.69c-0.093,-0.118 -0.232,-0.107 -0.417,0.034c-0.185,0.141 -0.315,0.324 -0.39,0.548c-0.075,0.225 -0.095,0.386 -0.058,0.484c0.037,0.098 0.159,0.098 0.368,0.002c0.209,-0.096 0.396,-0.237 0.56,-0.422c0.164,-0.185 0.264,-0.322 0.3,-0.411c0.036,-0.089 0.029,-0.114 -0.02,-0.074c-0.071,0.057 -0.294,0.236 -0.668,0.538" style="fill:none;fill-rule:nonzero;stroke:#348ad8;stroke-width:0.85px;"/><path d="M162.982,51.902c0.079,-0.001 0.171,0.01 0.274,0.032c0.103,0.022 0.214,0.084 0.334,0.184c0.119,0.101 0.272,0.205 0.459,0.311c0.187,0.107 0.404,0.214 0.65,0.321c0.246,0.107 0.508,0.21 0.787,0.307c0.279,0.098 0.566,0.193 0.862,0.285c0.296,0.093 0.595,0.179 0.896,0.26c0.301,0.081 0.595,0.163 0.88,0.248c0.285,0.085 0.56,0.178 0.826,0.279c0.265,0.102 0.525,0.203 0.778,0.302c0.253,0.1 0.505,0.197 0.755,0.292c0.25,0.095 0.497,0.183 0.741,0.264c0.244,0.081 0.474,0.152 0.691,0.213c0.217,0.061 0.437,0.117 0.66,0.166c0.223,0.049 0.441,0.096 0.653,0.139c0.212,0.044 0.417,0.088 0.614,0.131c0.197,0.044 0.407,0.091 0.629,0.142c0.222,0.051 0.465,0.102 0.729,0.153c0.264,0.051 0.533,0.097 0.808,0.139c0.275,0.042 0.534,0.079 0.779,0.111c0.244,0.032 0.483,0.06 0.716,0.085c0.233,0.025 0.484,0.04 0.752,0.045c0.268,0.006 0.555,0.009 0.86,0.009c0.305,0 0.613,-0.002 0.925,-0.006c0.311,-0.004 0.61,-0.025 0.895,-0.063c0.286,-0.038 0.555,-0.079 0.809,-0.122c0.254,-0.044 0.501,-0.09 0.742,-0.138c0.241,-0.048 0.486,-0.1 0.736,-0.156c0.25,-0.056 0.496,-0.121 0.736,-0.195c0.241,-0.074 0.482,-0.159 0.722,-0.253c0.241,-0.094 0.473,-0.195 0.698,-0.301c0.224,-0.106 0.44,-0.212 0.648,-0.317c0.207,-0.105 0.407,-0.214 0.6,-0.327c0.192,-0.114 0.382,-0.236 0.57,-0.366c0.187,-0.131 0.366,-0.272 0.537,-0.424c0.171,-0.152 0.331,-0.312 0.48,-0.48c0.149,-0.168 0.287,-0.322 0.415,-0.465c0.128,-0.142 0.242,-0.267 0.342,-0.375c0.1,-0.108 0.208,-0.213 0.324,-0.315c0.116,-0.102 0.245,-0.202 0.388,-0.3c0.143,-0.098 0.274,-0.182 0.392,-0.254c0.118,-0.071 0.215,-0.139 0.292,-0.202c0.077,-0.063 0.147,-0.132 0.21,-0.207c0.063,-0.075 0.127,-0.151 0.19,-0.229c0.063,-0.078 0.115,-0.142 0.155,-0.192c0.04,-0.05 0.068,-0.084 0.083,-0.102c0.015,-0.018 0.023,-0.027 0.024,-0.028c0,-0 0,-0 0,-0l0,0.215c0,0.126 -0.01,0.311 -0.031,0.555c-0.021,0.245 -0.049,0.512 -0.085,0.803c-0.036,0.291 -0.075,0.552 -0.117,0.784c-0.041,0.232 -0.073,0.402 -0.096,0.509c-0.023,0.107 -0.036,0.152 -0.039,0.135c-0.003,-0.017 0.024,-0.131 0.081,-0.343c0.057,-0.212 0.141,-0.44 0.253,-0.684c0.112,-0.244 0.206,-0.462 0.283,-0.653c0.077,-0.192 0.127,-0.361 0.151,-0.508c0.024,-0.147 0.033,-0.274 0.026,-0.38c-0.006,-0.106 -0.055,-0.198 -0.146,-0.277c-0.091,-0.079 -0.221,-0.145 -0.391,-0.199c-0.17,-0.054 -0.39,-0.095 -0.661,-0.123c-0.271,-0.028 -0.572,-0.044 -0.904,-0.047c-0.507,-0.005 -0.948,0.01 -1.323,0.043" style="fill:none;fill-rule:nonzero;stroke:#c2361a;stroke-width:0.85px;"/><path d="M192.796,46.412c0.024,-0.072 0.062,-0.171 0.114,-0.296c0.052,-0.125 0.093,-0.238 0.124,-0.338c0.03,-0.1 0.018,-0.18 -0.036,-0.241c-0.054,-0.06 -0.184,-0.086 -0.39,-0.077c-0.206,0.009 -0.447,0.086 -0.723,0.231c-0.276,0.145 -0.53,0.341 -0.761,0.589c-0.231,0.248 -0.389,0.504 -0.473,0.77c-0.084,0.266 -0.023,0.482 0.182,0.65c0.205,0.168 0.514,0.252 0.928,0.253c0.414,0.001 0.754,-0.061 1.022,-0.186c0.268,-0.125 0.435,-0.286 0.502,-0.483c0.067,-0.197 0.034,-0.411 -0.098,-0.641c-0.132,-0.231 -0.349,-0.378 -0.65,-0.443c-0.301,-0.065 -0.568,-0.017 -0.799,0.142c-0.231,0.159 -0.386,0.385 -0.463,0.677c-0.077,0.292 -0.054,0.538 0.068,0.738c0.123,0.2 0.328,0.321 0.617,0.362c0.289,0.041 0.553,0.027 0.792,-0.044c0.239,-0.07 0.401,-0.209 0.485,-0.417c0.084,-0.207 0.045,-0.416 -0.118,-0.625c-0.163,-0.21 -0.443,-0.307 -0.84,-0.293c-0.397,0.014 -0.703,0.152 -0.92,0.412c-0.217,0.261 -0.305,0.517 -0.264,0.768c0.041,0.251 0.202,0.405 0.483,0.462c0.281,0.056 0.511,0.012 0.691,-0.134c0.179,-0.146 0.268,-0.325 0.267,-0.537c-0.001,-0.212 -0.077,-0.366 -0.229,-0.461c-0.152,-0.095 -0.286,-0.142 -0.403,-0.14c-0.117,0.002 -0.177,0.051 -0.18,0.147c-0.004,0.136 0.387,0.184 1.174,0.145" style="fill:none;fill-rule:nonzero;stroke:#c2361a;stroke-width:0.85px;"/><path d="M129.251,46.871c-0.018,-0.011 -0.091,-0.022 -0.218,-0.03c-0.128,-0.009 -0.206,-0.013 -0.234,-0.013c-0.028,0 -0.038,0 -0.03,0l2.553,0c0.55,0 1.107,-0.001 1.672,-0.003c0.565,-0.002 1.098,-0.027 1.599,-0.073c0.501,-0.046 0.955,-0.095 1.362,-0.144c0.407,-0.05 0.784,-0.083 1.131,-0.102c0.347,-0.018 0.674,-0.027 0.982,-0.028c0.307,-0 0.613,-0 0.916,-0l1.673,0c0.227,0 0.437,0.017 0.631,0.052c0.194,0.035 0.409,0.064 0.643,0.087c0.234,0.023 0.452,0.035 0.654,0.036c0.202,0 0.351,0 0.447,0l0.304,0c0.041,0 0.079,0.005 0.116,0.014c0.037,0.009 0.077,0.023 0.12,0.043c0.044,0.019 0.079,0.048 0.107,0.085c0.028,0.038 0.038,0.103 0.03,0.195c-0.008,0.092 -0.09,0.221 -0.246,0.386c-0.156,0.165 -0.336,0.324 -0.538,0.477c-0.203,0.152 -0.365,0.273 -0.487,0.36c-0.122,0.088 -0.207,0.145 -0.254,0.171c-0.047,0.026 -0.027,0.022 0.058,-0.014c0.086,-0.036 0.266,-0.134 0.54,-0.296c0.275,-0.162 0.548,-0.327 0.819,-0.495c0.272,-0.168 0.501,-0.326 0.69,-0.472c0.188,-0.147 0.326,-0.286 0.412,-0.417c0.086,-0.132 0.135,-0.259 0.147,-0.384c0.012,-0.124 -0.026,-0.243 -0.112,-0.355c-0.124,-0.161 -0.626,-0.287 -1.508,-0.377" style="fill:none;fill-rule:nonzero;stroke:#000;stroke-width:0.85px;"/><path d="M128.696,47.896c0.022,-0.052 0.026,-0.132 0.01,-0.24c-0.01,-0.07 -0.024,-0.108 -0.04,-0.117c-0.017,-0.008 -0.035,0.028 -0.055,0.108c-0.02,0.08 -0.037,0.301 -0.052,0.663c-0.014,0.362 -0.023,0.797 -0.026,1.307c-0.003,0.51 -0.004,1.038 -0.004,1.583c0,0.546 0.017,1.027 0.052,1.443c0.034,0.416 0.09,0.779 0.167,1.088c0.077,0.309 0.151,0.6 0.222,0.874c0.071,0.273 0.124,0.538 0.16,0.794c0.036,0.256 0.054,0.491 0.055,0.707c0.001,0.215 0.001,0.421 0.001,0.615c0,0.195 -0.001,0.401 -0.003,0.619c-0.002,0.218 -0.008,0.437 -0.018,0.658c-0.01,0.221 -0.016,0.427 -0.019,0.619c-0.003,0.192 -0.004,0.353 -0.004,0.484l0,1.574c0,0.109 0.007,0.199 0.021,0.271c0.014,0.072 0.027,0.13 0.04,0.175c0.013,0.045 0.02,0.086 0.023,0.125c0.003,0.039 0.004,0.08 0.004,0.124c0,0.044 -0.001,0.091 -0.003,0.142c-0.002,0.051 -0.01,0.091 -0.025,0.121c-0.014,0.03 -0.026,0.049 -0.036,0.057c-0.01,0.008 -0.016,0.016 -0.019,0.023c-0.003,0.007 -0.004,0.011 -0.004,0.011c0,0 0.047,-0.045 0.14,-0.135c0.093,-0.091 0.276,-0.301 0.549,-0.632c0.273,-0.331 0.525,-0.653 0.757,-0.965c0.232,-0.312 0.402,-0.542 0.511,-0.69c0.109,-0.148 0.171,-0.21 0.186,-0.187c0.015,0.023 0.007,0.122 -0.022,0.298c-0.03,0.176 -0.08,0.358 -0.153,0.545c-0.072,0.187 -0.149,0.38 -0.232,0.579c-0.082,0.198 -0.175,0.406 -0.279,0.622c-0.104,0.216 -0.209,0.411 -0.316,0.583c-0.107,0.173 -0.206,0.297 -0.296,0.374c-0.09,0.076 -0.187,0.117 -0.291,0.121c-0.103,0.004 -0.233,-0.036 -0.389,-0.122c-0.156,-0.085 -0.331,-0.201 -0.524,-0.346c-0.194,-0.145 -0.376,-0.291 -0.548,-0.436c-0.256,-0.218 -0.433,-0.476 -0.529,-0.775" style="fill:none;fill-rule:nonzero;stroke:#000;stroke-width:0.85px;"/><path d="M128.245,46.827c0.01,-0.085 0.003,-0.179 -0.023,-0.28c-0.026,-0.101 -0.062,-0.195 -0.11,-0.28c-0.048,-0.086 -0.124,-0.195 -0.228,-0.327c-0.104,-0.132 -0.248,-0.296 -0.432,-0.493c-0.184,-0.197 -0.399,-0.421 -0.646,-0.672c-0.246,-0.252 -0.488,-0.488 -0.725,-0.708c-0.237,-0.221 -0.448,-0.428 -0.632,-0.623c-0.184,-0.195 -0.351,-0.384 -0.5,-0.567c-0.149,-0.183 -0.28,-0.35 -0.39,-0.502c-0.111,-0.152 -0.198,-0.281 -0.26,-0.388c-0.063,-0.106 -0.113,-0.194 -0.15,-0.263c-0.037,-0.069 -0.071,-0.143 -0.103,-0.223c-0.031,-0.08 -0.065,-0.149 -0.102,-0.209c-0.036,-0.059 -0.071,-0.115 -0.102,-0.166c-0.032,-0.051 -0.062,-0.102 -0.092,-0.153c-0.029,-0.051 -0.055,-0.1 -0.077,-0.147c-0.022,-0.047 -0.039,-0.08 -0.049,-0.1c-0.01,-0.02 -0.015,-0.033 -0.015,-0.039c-0,-0.005 -0.002,-0.008 -0.004,-0.008c-0.002,-0 -0.007,-0 -0.014,-0l-0.022,0c-0.007,0 -0.019,0.015 -0.036,0.044c-0.017,0.029 -0.031,0.132 -0.043,0.309c-0.012,0.177 -0.024,0.403 -0.036,0.68c-0.012,0.277 -0.031,0.533 -0.058,0.767c-0.026,0.234 -0.046,0.406 -0.058,0.515c-0.012,0.109 -0.024,0.17 -0.034,0.183c-0.01,0.013 -0.02,-0.055 -0.03,-0.203c-0.01,-0.148 -0.015,-0.351 -0.015,-0.61c-0,-0.258 -0.003,-0.499 -0.007,-0.723c-0.005,-0.224 -0.012,-0.412 -0.021,-0.565c-0.01,-0.153 -0.015,-0.272 -0.015,-0.357c-0,-0.085 0.001,-0.144 0.003,-0.177c0.002,-0.033 0.04,-0.052 0.114,-0.055c0.074,-0.003 0.195,0.02 0.365,0.068c0.169,0.048 0.387,0.111 0.653,0.189c0.266,0.078 0.563,0.133 0.89,0.164c0.327,0.031 0.544,0.048 0.649,0.051c0.144,0.004 0.131,0.067 -0.038,0.188" style="fill:none;fill-rule:nonzero;stroke:#000;stroke-width:0.85px;"/><path d="M119.211,35.868c0.059,0.014 0.081,0.177 0.066,0.488c-0.015,0.311 -0.063,0.742 -0.146,1.295c-0.083,0.552 -0.127,1.084 -0.132,1.594c-0.005,0.51 0.052,0.905 0.173,1.185c0.121,0.28 0.301,0.43 0.54,0.451c0.239,0.021 0.52,-0.062 0.844,-0.25c0.474,-0.275 0.891,-0.745 1.251,-1.41" style="fill:none;fill-rule:nonzero;stroke:#000;stroke-width:0.85px;"/><path d="M118.283,38.947c-0.024,-0.054 -0.013,-0.135 0.031,-0.243c0.029,-0.07 0.148,-0.113 0.356,-0.128c0.301,-0.022 0.922,-0.075 1.865,-0.161" style="fill:none;fill-rule:nonzero;stroke:#000;stroke-width:0.85px;"/><path d="M144.267,51.573c0.005,-0.033 -0.039,-0.13 -0.13,-0.289c-0.054,-0.093 -0.084,-0.161 -0.09,-0.203c-0.006,-0.042 0.01,-0.078 0.048,-0.107c0.038,-0.029 0.147,-0.054 0.327,-0.074c0.18,-0.02 0.379,-0.033 0.598,-0.038c0.219,-0.005 0.407,0.023 0.566,0.084c0.159,0.061 0.261,0.191 0.306,0.389c0.045,0.198 0.049,0.41 0.011,0.636c-0.038,0.226 -0.152,0.43 -0.344,0.612c-0.191,0.182 -0.415,0.319 -0.672,0.41c-0.256,0.091 -0.509,0.14 -0.759,0.147c-0.249,0.007 -0.367,-0.051 -0.353,-0.173" style="fill:none;fill-rule:nonzero;stroke:#000;stroke-width:0.85px;"/><path d="M147.939,50.947c0.048,0.022 0.128,0.001 0.242,-0.064c0.074,-0.042 0.117,-0.078 0.128,-0.107c0.011,-0.03 -0.031,-0.046 -0.127,-0.049c-0.096,-0.003 -0.261,0.022 -0.497,0.077c-0.235,0.055 -0.454,0.169 -0.656,0.342c-0.202,0.174 -0.347,0.38 -0.434,0.618c-0.087,0.239 -0.088,0.47 -0.002,0.693c0.123,0.319 0.604,0.491 1.443,0.516" style="fill:none;fill-rule:nonzero;stroke:#000;stroke-width:0.85px;"/><path d="M134.17,60.6c-0.042,0.014 -0.123,0.006 -0.244,-0.022c-0.075,-0.018 -0.117,-0.026 -0.123,-0.024c-0.007,0.001 0.052,0.054 0.177,0.159c0.125,0.104 0.313,0.236 0.565,0.394c0.252,0.158 0.517,0.275 0.794,0.352c0.277,0.077 0.538,0.094 0.783,0.051c0.245,-0.043 0.444,-0.175 0.596,-0.396c0.152,-0.221 0.251,-0.415 0.296,-0.583c0.045,-0.167 0.068,-0.246 0.068,-0.237c0.001,0.009 -0.012,0.152 -0.038,0.427c-0.026,0.275 -0.035,0.603 -0.027,0.982c0.007,0.379 0.054,0.785 0.139,1.216c0.085,0.431 0.149,0.85 0.19,1.255c0.042,0.406 0.024,0.75 -0.053,1.032c-0.077,0.282 -0.244,0.477 -0.504,0.583c-0.373,0.153 -0.951,0.019 -1.733,-0.401" style="fill:none;fill-rule:nonzero;stroke:#000;stroke-width:0.85px;"/><path d="M128.289,8.438c0.005,-0.026 0.013,0.021 0.025,0.141c0.011,0.12 0.039,0.419 0.084,0.897c0.045,0.479 0.106,1.108 0.183,1.89c0.077,0.781 0.148,1.466 0.212,2.056c0.064,0.589 0.121,1.02 0.173,1.291c0.051,0.271 0.1,0.456 0.147,0.555c0.046,0.098 0.077,0.161 0.092,0.188c0.02,0.038 0.047,-0.058 0.081,-0.288" style="fill:none;fill-rule:nonzero;stroke:#000;stroke-width:0.85px;"/><path d="M124.133,8.482c0.075,-0.086 0.236,-0.184 0.484,-0.293c0.248,-0.109 0.589,-0.175 1.025,-0.198c0.435,-0.022 0.971,-0.03 1.608,-0.024c0.636,0.007 1.357,0.014 2.162,0.022c1.231,0.012 2.278,-0.067 3.141,-0.236" style="fill:none;fill-rule:nonzero;stroke:#000;stroke-width:0.85px;"/><path d="M134.02,13.972l0,-0.757c0,-0.15 -0.034,-0.28 -0.103,-0.389c-0.069,-0.109 -0.199,-0.176 -0.392,-0.202c-0.193,-0.025 -0.421,0.035 -0.684,0.18c-0.263,0.145 -0.504,0.365 -0.721,0.66c-0.217,0.295 -0.345,0.613 -0.382,0.953c-0.038,0.34 0.137,0.63 0.524,0.87c0.387,0.24 0.891,0.345 1.513,0.315c0.621,-0.03 1.112,-0.211 1.47,-0.542c0.359,-0.331 0.516,-0.723 0.473,-1.178c-0.043,-0.454 -0.267,-0.835 -0.671,-1.142c-0.404,-0.307 -0.716,-0.477 -0.934,-0.51c-0.301,-0.046 -0.367,0.131 -0.197,0.531" style="fill:none;fill-rule:nonzero;stroke:#000;stroke-width:0.85px;"/><path d="M138.723,17.319c0.099,0.242 0.216,0.518 0.35,0.829c0.134,0.311 0.222,0.593 0.263,0.846c0.042,0.253 0.061,0.435 0.057,0.548c-0.004,0.113 -0.032,0.171 -0.086,0.174c-0.054,0.003 -0.133,-0.094 -0.238,-0.29c-0.105,-0.196 -0.231,-0.526 -0.378,-0.989c-0.147,-0.463 -0.289,-1.025 -0.427,-1.686c-0.138,-0.662 -0.234,-1.325 -0.288,-1.989c-0.055,-0.664 0.006,-1.132 0.183,-1.404c0.177,-0.271 0.515,-0.402 1.015,-0.393c0.5,0.009 0.969,0.104 1.409,0.284c0.44,0.18 0.733,0.377 0.88,0.59c0.147,0.213 0.174,0.432 0.081,0.656c-0.093,0.224 -0.323,0.412 -0.691,0.563c-0.368,0.151 -0.782,0.269 -1.241,0.354c-0.46,0.085 -0.682,0.084 -0.668,-0.004" style="fill:none;fill-rule:nonzero;stroke:#000;stroke-width:0.85px;"/><path d="M152.697,8.681c-0.023,-0.042 -0.121,-0.172 -0.294,-0.391c-0.099,-0.125 -0.146,-0.165 -0.143,-0.121c0.004,0.044 0.121,0.24 0.351,0.589c0.231,0.349 0.522,0.791 0.873,1.328c0.351,0.537 0.703,1.127 1.055,1.77c0.352,0.644 0.683,1.198 0.992,1.662c0.309,0.465 0.576,0.712 0.802,0.742c0.226,0.03 0.436,-0.145 0.63,-0.523c0.194,-0.379 0.342,-0.91 0.445,-1.593c0.103,-0.684 0.185,-1.427 0.246,-2.231c0.061,-0.804 0.121,-1.43 0.18,-1.88c0.059,-0.45 0.095,-0.657 0.108,-0.621c0.019,0.052 0.078,0.214 0.176,0.487" style="fill:none;fill-rule:nonzero;stroke:#000;stroke-width:0.85px;"/><path d="M160.925,10.866c-0.057,0.065 -0.056,0.316 0.001,0.754c0.057,0.438 0.189,0.887 0.396,1.348c0.207,0.461 0.364,0.783 0.473,0.966c0.109,0.184 0.182,0.243 0.22,0.179" style="fill:none;fill-rule:nonzero;stroke:#000;stroke-width:0.85px;"/><path d="M161.319,9.597c0.02,0.022 0.128,0.189 0.326,0.5c0.197,0.312 0.46,0.714 0.789,1.206c0.329,0.492 0.697,0.924 1.105,1.295c0.408,0.371 0.847,0.587 1.317,0.65c0.47,0.063 0.905,-0.017 1.307,-0.239c0.401,-0.222 0.705,-0.496 0.912,-0.822c0.207,-0.326 0.32,-0.652 0.339,-0.976c0.019,-0.325 -0.069,-0.552 -0.262,-0.68c-0.193,-0.129 -0.443,-0.096 -0.748,0.097c-0.306,0.193 -0.536,0.5 -0.692,0.921c-0.156,0.421 -0.182,0.865 -0.077,1.333c0.104,0.468 0.437,0.874 0.997,1.218c0.56,0.344 1.201,0.529 1.922,0.556c0.721,0.027 1.19,0.012 1.407,-0.046c0.308,-0.082 0.431,-0.484 0.37,-1.208" style="fill:none;fill-rule:nonzero;stroke:#000;stroke-width:0.85px;"/><path d="M169.478,11.566c-0.025,0.047 0.088,0.281 0.339,0.701c0.25,0.421 0.583,0.886 1,1.397c0.416,0.511 0.853,0.867 1.31,1.07c0.457,0.202 0.848,0.187 1.174,-0.048c0.326,-0.234 0.546,-0.564 0.659,-0.988c0.114,-0.425 0.179,-0.73 0.196,-0.918c0.017,-0.187 0.026,-0.261 0.028,-0.223c0.002,0.039 0.006,0.136 0.013,0.291c0.007,0.155 0.112,0.438 0.315,0.849c0.203,0.411 0.565,0.747 1.086,1.009c0.521,0.261 1.108,0.363 1.763,0.306c0.654,-0.057 1.173,-0.297 1.556,-0.721c0.383,-0.423 0.572,-0.933 0.567,-1.53c-0.005,-0.597 -0.226,-1.089 -0.665,-1.474c-0.628,-0.553 -1.503,-0.51 -2.623,0.129" style="fill:none;fill-rule:nonzero;stroke:#000;stroke-width:0.85px;"/><path d="M125.248,18.369c-0.059,-0.054 -0.042,-0.134 0.051,-0.241c0.093,-0.107 0.294,-0.176 0.603,-0.207c0.309,-0.031 0.734,-0.048 1.277,-0.051c0.543,-0.003 1.194,0.002 1.956,0.016c0.761,0.014 1.569,0.042 2.422,0.085c0.854,0.043 1.697,0.087 2.53,0.13c0.833,0.044 1.659,0.081 2.477,0.111c0.819,0.03 1.643,0.04 2.472,0.029c0.829,-0.011 1.631,-0.043 2.407,-0.098c0.775,-0.055 1.532,-0.093 2.269,-0.114c0.737,-0.021 1.468,-0.027 2.193,-0.019c0.725,0.009 1.427,0.029 2.108,0.06c0.68,0.031 1.364,0.045 2.049,0.039c0.686,-0.005 1.397,-0.052 2.132,-0.139c0.735,-0.087 1.459,-0.16 2.17,-0.218c0.711,-0.058 1.395,-0.091 2.05,-0.097c0.656,-0.006 1.303,-0.009 1.943,-0.009l1.914,0c0.636,0 1.293,-0.002 1.969,-0.007c0.677,-0.004 1.366,-0.028 2.068,-0.07c0.702,-0.042 1.39,-0.076 2.065,-0.102c0.675,-0.026 1.333,-0.038 1.976,-0.036c0.642,0.002 1.309,0.005 2.001,0.01c0.692,0.005 1.42,0.001 2.184,-0.013c0.764,-0.014 1.508,-0.03 2.232,-0.051c0.724,-0.02 1.438,-0.029 2.143,-0.028c0.705,0.002 1.397,0.02 2.078,0.056c0.68,0.036 1.278,0.059 1.794,0.07c0.516,0.011 0.898,-0.006 1.147,-0.052c0.345,-0.064 0.155,-0.298 -0.569,-0.703" style="fill:none;fill-rule:nonzero;stroke:#000;stroke-width:0.85px;"/></svg>