<?xml version="1.0" encoding="UTF-8" standalone="no"?><!DOCTYPE svg PUBLIC "-//W3C//DTD SVG 1.1//EN" "http://www.w3.org/Graphics/SVG/1.1/DTD/svg11.dtd"><svg width="100%" height="100%" viewBox="0 0 98 94" version="1.1" xmlns="http://www.w3.org/2000/svg" xmlns:xlink="http://www.w3.org/1999/xlink" xml:space="preserve" xmlns:serif="http://www.serif.com/" style="fill-rule:evenodd;clip-rule:evenodd;stroke-linecap:round;stroke-linejoin:round;stroke-miterlimit:10;"><rect x="0" y="0" width="98" height="94" style="fill:#fff;"/><path d="M16.508,5.541l-0.237,0c-0.073,0 -0.114,0.015 -0.122,0.044c-0.008,0.029 -0.012,0.106 -0.012,0.228l0,1.226c0,0.268 0.003,0.533 0.011,0.794c0.007,0.261 0.014,0.509 0.021,0.743c0.007,0.234 0.011,0.463 0.011,0.687l0,2.932c0,0.124 0.001,0.246 0.003,0.368c0.002,0.122 0.013,0.247 0.032,0.375c0.019,0.128 0.035,0.264 0.047,0.407c0.013,0.143 0.02,0.284 0.023,0.423c0.003,0.139 0.004,0.272 0.004,0.399l0,0.355c0,0.11 0.006,0.207 0.017,0.291c0.011,0.084 0.032,0.163 0.06,0.238c0.029,0.075 0.051,0.159 0.066,0.25c0.015,0.092 0.024,0.188 0.027,0.29c0.003,0.102 0.004,0.205 0.004,0.309l0,1.554c0,0.167 -0.005,0.341 -0.014,0.523c-0.009,0.182 -0.016,0.359 -0.022,0.532c-0.005,0.173 -0.008,0.338 -0.008,0.494l0,3.378c0,0.14 0.001,0.293 0.003,0.457c0.002,0.164 0.008,0.341 0.018,0.529c0.01,0.189 0.018,0.381 0.026,0.575c0.007,0.195 0.012,0.386 0.015,0.573c0.003,0.187 0.004,0.378 0.004,0.572l0,0.601c0,0.206 -0.002,0.397 -0.007,0.571c-0.005,0.174 -0.008,0.323 -0.011,0.446c-0.003,0.123 -0.004,0.234 -0.004,0.331l0,3.277c0,0.144 0.002,0.31 0.007,0.495c0.005,0.186 0.011,0.375 0.018,0.567c0.007,0.192 0.012,0.385 0.015,0.58c0.003,0.194 0.004,0.399 0.004,0.615l0,0.631c0,0.205 0.005,0.412 0.014,0.62c0.009,0.208 0.023,0.425 0.043,0.651c0.019,0.226 0.042,0.438 0.069,0.636c0.027,0.198 0.047,0.384 0.062,0.557c0.015,0.173 0.024,0.333 0.027,0.48c0.003,0.147 0.004,0.29 0.004,0.428l0,0.405c0,0.132 -0.007,0.268 -0.021,0.408c-0.014,0.14 -0.032,0.297 -0.053,0.471c-0.022,0.173 -0.044,0.354 -0.066,0.541c-0.022,0.187 -0.039,0.371 -0.052,0.551c-0.013,0.18 -0.02,0.364 -0.023,0.554c-0.003,0.189 -0.004,0.376 -0.004,0.561l0,1.513c0,0.155 -0.002,0.325 -0.007,0.508c-0.005,0.183 -0.013,0.392 -0.025,0.626c-0.012,0.234 -0.021,0.471 -0.026,0.709c-0.005,0.239 -0.008,0.454 -0.008,0.646l0,0.494c0,0.138 -0.003,0.273 -0.011,0.406c-0.007,0.133 -0.011,0.285 -0.011,0.456l0,3.572c0,0.169 0.006,0.334 0.017,0.497c0.011,0.163 0.03,0.33 0.057,0.502c0.027,0.172 0.052,0.349 0.077,0.531c0.025,0.182 0.044,0.361 0.059,0.536c0.015,0.175 0.023,0.352 0.026,0.529c0.003,0.177 0.004,0.355 0.004,0.532l0,2.006c0,0.172 -0.001,0.356 -0.003,0.552c-0.002,0.196 -0.006,0.389 -0.011,0.579c-0.005,0.19 -0.01,0.379 -0.014,0.566c-0.005,0.187 -0.012,0.375 -0.021,0.565c-0.01,0.19 -0.019,0.382 -0.029,0.576c-0.009,0.194 -0.024,0.392 -0.043,0.593c-0.019,0.201 -0.039,0.407 -0.058,0.616c-0.02,0.209 -0.034,0.406 -0.045,0.592c-0.01,0.186 -0.015,0.351 -0.015,0.496l0,1.56c0,0.162 0.003,0.33 0.01,0.502c0.007,0.172 0.023,0.333 0.049,0.483c0.026,0.149 0.052,0.283 0.076,0.401c0.025,0.118 0.041,0.234 0.049,0.348c0.008,0.114 0.012,0.237 0.012,0.37l0,8.441c0,0.117 -0.001,0.235 -0.003,0.354c-0.002,0.119 -0.008,0.238 -0.018,0.357c-0.01,0.119 -0.018,0.248 -0.025,0.385c-0.007,0.138 -0.013,0.281 -0.018,0.432c-0.005,0.15 -0.011,0.301 -0.018,0.452c-0.007,0.151 -0.015,0.306 -0.022,0.466c-0.007,0.16 -0.017,0.32 -0.029,0.481c-0.012,0.16 -0.023,0.322 -0.033,0.484c-0.01,0.163 -0.017,0.33 -0.023,0.502c-0.005,0.172 -0.01,0.348 -0.015,0.528c-0.005,0.18 -0.012,0.35 -0.022,0.512c-0.01,0.161 -0.018,0.312 -0.026,0.451c-0.007,0.139 -0.011,0.276 -0.011,0.409l0,1.244c0,0.127 0.001,0.245 0.003,0.352c0.002,0.108 0.008,0.205 0.018,0.293c0.01,0.088 0.017,0.184 0.022,0.288c0.005,0.104 0.01,0.209 0.015,0.316c0.005,0.107 0.008,0.215 0.008,0.324l0,6.009c0,0.109 0.001,0.217 0.003,0.324c0.002,0.107 0.009,0.208 0.021,0.304c0.012,0.096 0.025,0.179 0.04,0.251c0.015,0.072 0.028,0.125 0.04,0.16c0.012,0.035 0.018,0.04 0.016,0.015c-0.003,-0.037 -0.012,-0.152 -0.028,-0.346" style="fill:none;fill-rule:nonzero;stroke:#000;stroke-width:0.85px;"/><path d="M32.17,5.278l0,3.148c0,0.322 0.003,0.642 0.01,0.961c0.007,0.319 0.014,0.633 0.022,0.942c0.008,0.309 0.012,0.615 0.012,0.919l0,1.721c0,0.267 -0.005,0.556 -0.013,0.865c-0.009,0.309 -0.03,0.618 -0.064,0.925c-0.034,0.307 -0.065,0.611 -0.094,0.912c-0.029,0.301 -0.054,0.613 -0.074,0.935c-0.02,0.322 -0.031,0.643 -0.034,0.962c-0.003,0.319 -0.002,0.631 0.002,0.935c0.004,0.304 0.019,0.615 0.043,0.933c0.024,0.317 0.042,0.638 0.055,0.961c0.013,0.324 0.02,0.642 0.023,0.956c0.003,0.314 0.004,0.628 0.004,0.941l0,6.343c0,0.283 0.007,0.551 0.021,0.804c0.014,0.254 0.027,0.497 0.04,0.731c0.013,0.234 0.02,0.473 0.023,0.718c0.003,0.245 0.006,0.498 0.011,0.76c0.005,0.262 0.008,0.528 0.011,0.797c0.003,0.27 0.008,0.536 0.015,0.799c0.007,0.263 0.011,0.516 0.011,0.76l0,1.473c0,0.248 0.007,0.499 0.021,0.754c0.014,0.255 0.031,0.507 0.05,0.755c0.02,0.248 0.031,0.496 0.034,0.744c0.003,0.248 0.005,0.492 0.005,0.733l0,10.336c0,0.202 -0.003,0.418 -0.01,0.65c-0.007,0.231 -0.025,0.494 -0.053,0.789c-0.029,0.294 -0.054,0.61 -0.076,0.947c-0.022,0.337 -0.043,0.677 -0.063,1.023c-0.02,0.345 -0.031,0.694 -0.034,1.045c-0.003,0.352 -0.005,0.715 -0.005,1.088l0,3.85c0,0.264 0.003,0.558 0.01,0.884c0.007,0.326 0.014,0.664 0.022,1.013c0.008,0.35 0.012,0.69 0.012,1.022c0,0.332 -0.002,0.652 -0.006,0.961c-0.004,0.309 -0.019,0.624 -0.043,0.944c-0.024,0.32 -0.045,0.668 -0.062,1.045c-0.017,0.377 -0.036,0.767 -0.055,1.17c-0.019,0.403 -0.039,0.778 -0.058,1.124c-0.02,0.346 -0.035,0.653 -0.045,0.92c-0.01,0.267 -0.015,0.522 -0.015,0.766l0,3.36c0,0.262 0.009,0.536 0.028,0.821c0.018,0.285 0.043,0.568 0.075,0.849c0.032,0.281 0.052,0.544 0.063,0.791c0.011,0.247 0.021,0.473 0.03,0.678c0.01,0.205 0.02,0.409 0.029,0.61c0.01,0.201 0.015,0.421 0.015,0.66l0,2.84c0,0.227 0.001,0.483 0.003,0.768c0.002,0.285 0.013,0.566 0.032,0.842c0.019,0.276 0.036,0.506 0.051,0.69c0.015,0.183 0.026,0.339 0.034,0.466c0.007,0.127 0.011,0.269 0.011,0.425c0,0.156 0.004,0.332 0.011,0.528c0.007,0.196 0.011,0.385 0.011,0.569l0,3.14l-0.002,0.037l-0.013,-0.106c-0.014,-0.164 -0.06,-0.405 -0.137,-0.722" style="fill:none;fill-rule:nonzero;stroke:#000;stroke-width:0.85px;"/><path d="M48.007,6c0.118,-0.1 0.225,-0.212 0.322,-0.336c0.097,-0.124 0.155,-0.21 0.174,-0.259c0.019,-0.049 0.028,-0.067 0.025,-0.054c-0.002,0.013 -0.008,0.045 -0.017,0.097c-0.009,0.052 -0.042,0.218 -0.099,0.5c-0.057,0.282 -0.106,0.63 -0.146,1.044c-0.04,0.414 -0.064,0.858 -0.072,1.33c-0.008,0.473 -0.013,0.943 -0.013,1.41l0,3.326c0,0.242 0.001,0.445 0.003,0.61c0.002,0.165 0.012,0.33 0.028,0.494c0.017,0.165 0.027,0.362 0.03,0.592c0.003,0.23 0.005,0.512 0.005,0.846l0,4.116c0,0.276 0.003,0.553 0.011,0.832c0.007,0.279 0.011,0.568 0.011,0.866l0,6.682c0,0.27 0.004,0.529 0.011,0.775c0.007,0.246 0.011,0.502 0.011,0.768l0,7.38c0,0.32 -0.003,0.658 -0.01,1.014c-0.007,0.356 -0.021,0.731 -0.043,1.126c-0.022,0.395 -0.039,0.787 -0.051,1.177c-0.013,0.39 -0.02,0.763 -0.023,1.119c-0.003,0.356 -0.004,0.696 -0.004,1.02l0,2.701c0,0.264 -0.012,0.53 -0.035,0.799c-0.023,0.269 -0.05,0.546 -0.082,0.83c-0.032,0.284 -0.06,0.557 -0.085,0.818c-0.025,0.261 -0.047,0.508 -0.066,0.739c-0.02,0.232 -0.031,0.472 -0.034,0.722c-0.003,0.25 -0.004,0.505 -0.004,0.767l0,14.536c0,0.299 0.006,0.617 0.017,0.954c0.012,0.337 0.024,0.681 0.036,1.034c0.012,0.353 0.023,0.696 0.033,1.029c0.01,0.333 0.019,0.672 0.026,1.016c0.007,0.344 0.016,0.717 0.026,1.118c0.01,0.401 0.015,0.798 0.015,1.192l0,5.197c0,0.236 0.006,0.443 0.017,0.622c0.012,0.179 0.024,0.355 0.036,0.527c0.012,0.172 0.024,0.339 0.036,0.5c0.012,0.161 0.024,0.318 0.037,0.471c0.012,0.153 0.022,0.315 0.03,0.487c0.007,0.172 0.015,0.353 0.022,0.544c0.007,0.191 0.018,0.392 0.032,0.603c0.014,0.211 0.028,0.44 0.04,0.685c0.012,0.246 0.035,0.521 0.068,0.825c0.033,0.304 0.074,0.616 0.122,0.935c0.048,0.319 0.095,0.612 0.139,0.879c0.044,0.267 0.078,0.504 0.1,0.71c0.023,0.206 0.036,0.38 0.039,0.521c0.003,0.141 0.005,0.238 0.005,0.29c0,0.073 -0.102,0.107 -0.305,0.101" style="fill:none;fill-rule:nonzero;stroke:#000;stroke-width:0.85px;"/><path d="M64.304,5.366c0.003,0.033 0.031,0.241 0.083,0.624c0.053,0.382 0.098,0.918 0.135,1.605c0.037,0.688 0.065,1.406 0.082,2.155c0.017,0.749 0.037,1.419 0.058,2.011c0.022,0.592 0.047,1.09 0.076,1.493c0.029,0.403 0.057,0.736 0.083,0.997c0.027,0.262 0.049,0.525 0.067,0.79c0.018,0.265 0.019,0.585 0.004,0.961c-0.015,0.375 -0.064,0.755 -0.145,1.138c-0.081,0.383 -0.132,0.721 -0.152,1.014c-0.02,0.293 -0.03,0.567 -0.03,0.823l0,2.567c0,0.37 -0.001,0.791 -0.003,1.262c-0.002,0.471 -0.013,0.928 -0.032,1.371c-0.019,0.443 -0.032,0.819 -0.04,1.128c-0.008,0.309 -0.011,0.575 -0.009,0.797c0.002,0.222 0.009,0.483 0.021,0.78c0.012,0.297 0.018,0.621 0.019,0.97l0,4.37c0,0.325 -0.003,0.624 -0.01,0.897c-0.007,0.272 -0.011,0.526 -0.011,0.76l0,1.551c0,0.297 -0.002,0.612 -0.007,0.944c-0.005,0.332 -0.008,0.665 -0.011,0.998c-0.003,0.334 -0.004,0.642 -0.004,0.926l0,1.601c0,0.258 -0.009,0.52 -0.028,0.787c-0.018,0.267 -0.042,0.548 -0.072,0.843c-0.029,0.295 -0.046,0.597 -0.049,0.906c-0.003,0.309 -0.005,0.609 -0.005,0.902c0,0.293 -0.003,0.584 -0.01,0.876c-0.007,0.291 -0.017,0.588 -0.032,0.888c-0.015,0.301 -0.026,0.595 -0.033,0.883c-0.008,0.288 -0.012,0.575 -0.012,0.861c0,0.286 -0.001,0.58 -0.003,0.881c-0.002,0.301 -0.013,0.607 -0.032,0.918c-0.019,0.311 -0.039,0.615 -0.061,0.912c-0.022,0.297 -0.046,0.591 -0.072,0.88c-0.026,0.29 -0.054,0.568 -0.084,0.837c-0.029,0.268 -0.049,0.538 -0.06,0.81c-0.011,0.272 -0.016,0.551 -0.016,0.837l0,0.843c0,0.276 -0.001,0.53 -0.003,0.762c-0.002,0.232 -0.008,0.468 -0.018,0.707c-0.01,0.24 -0.019,0.505 -0.029,0.797c-0.01,0.292 -0.015,0.607 -0.015,0.946l0,1.082c0,0.383 -0.005,0.791 -0.013,1.224c-0.009,0.433 -0.031,0.864 -0.067,1.293c-0.036,0.429 -0.07,0.836 -0.101,1.222c-0.032,0.386 -0.064,0.753 -0.095,1.102c-0.032,0.349 -0.052,0.664 -0.06,0.943c-0.008,0.28 -0.013,0.535 -0.013,0.764c0,0.23 -0.002,0.447 -0.007,0.652c-0.005,0.205 -0.012,0.413 -0.021,0.624c-0.01,0.211 -0.015,0.411 -0.015,0.599l0,1.603c0,0.175 0.001,0.338 0.003,0.487c0.002,0.149 0.016,0.317 0.042,0.505c0.026,0.187 0.05,0.399 0.072,0.636c0.022,0.237 0.039,0.475 0.052,0.714c0.013,0.239 0.024,0.467 0.034,0.683c0.01,0.217 0.018,0.434 0.026,0.653c0.007,0.219 0.014,0.464 0.022,0.736c0.007,0.272 0.011,0.57 0.011,0.895l0,4.111c0,0.186 0.001,0.365 0.003,0.538c0.002,0.173 0.012,0.335 0.028,0.487c0.017,0.151 0.033,0.304 0.05,0.457c0.017,0.153 0.033,0.293 0.048,0.421c0.015,0.128 0.026,0.258 0.034,0.391c0.007,0.133 0.011,0.281 0.011,0.445l0,2.788c0,0.195 0.002,0.381 0.007,0.559c0.005,0.178 0.008,0.357 0.011,0.536c0.003,0.18 0.006,0.368 0.011,0.564c0.005,0.196 0.015,0.391 0.032,0.583c0.017,0.192 0.036,0.381 0.057,0.566c0.022,0.185 0.047,0.363 0.076,0.534c0.029,0.171 0.052,0.32 0.07,0.448c0.018,0.128 0.029,0.24 0.034,0.337l0.004,0.081l-0.003,-0.049" style="fill:none;fill-rule:nonzero;stroke:#000;stroke-width:0.85px;"/><path d="M79.791,6.853c-0.12,-0.002 -0.187,0.079 -0.203,0.244c-0.016,0.164 0.002,0.382 0.053,0.654c0.052,0.272 0.107,0.624 0.166,1.055c0.059,0.432 0.1,0.922 0.123,1.47c0.023,0.549 0.035,1.106 0.036,1.673c0,0.567 0.002,1.09 0.004,1.571c0.002,0.481 0.022,0.926 0.059,1.336c0.037,0.41 0.072,0.808 0.105,1.196c0.033,0.387 0.05,0.742 0.05,1.063c0.001,0.321 0.001,0.614 0.001,0.878l0,1.708c0,0.299 0.014,0.587 0.041,0.862c0.028,0.275 0.055,0.557 0.083,0.845c0.028,0.288 0.043,0.596 0.046,0.922c0.003,0.327 0.005,0.662 0.005,1.004c0,0.342 0.003,0.693 0.01,1.052c0.007,0.359 0.025,0.704 0.053,1.034c0.029,0.33 0.051,0.65 0.066,0.961c0.015,0.311 0.023,0.617 0.023,0.916c0,0.3 -0.003,0.598 -0.01,0.894c-0.007,0.296 -0.016,0.601 -0.029,0.913c-0.012,0.313 -0.023,0.636 -0.033,0.971c-0.01,0.335 -0.029,0.673 -0.057,1.016c-0.028,0.343 -0.064,0.68 -0.108,1.011c-0.043,0.331 -0.079,0.624 -0.107,0.878c-0.028,0.254 -0.043,0.473 -0.046,0.657c-0.003,0.184 -0.005,0.374 -0.005,0.57c0,0.196 0.001,0.412 0.003,0.649c0.002,0.237 0.009,0.489 0.021,0.758c0.012,0.268 0.018,0.556 0.019,0.863c0,0.307 0.001,0.633 0.001,0.977l0,2.813c0,0.282 -0.002,0.565 -0.007,0.849c-0.004,0.284 -0.008,0.573 -0.011,0.866c-0.003,0.293 -0.004,0.616 -0.004,0.969l0,2.154c0,0.34 -0.001,0.645 -0.003,0.915c-0.002,0.27 -0.009,0.527 -0.021,0.773c-0.012,0.245 -0.028,0.499 -0.047,0.761c-0.019,0.262 -0.031,0.527 -0.034,0.794c-0.003,0.267 -0.004,0.524 -0.004,0.771l0,4.113c0,0.26 -0.007,0.508 -0.021,0.744c-0.014,0.236 -0.028,0.483 -0.043,0.742c-0.015,0.259 -0.024,0.552 -0.026,0.88c-0.003,0.328 -0.01,0.675 -0.022,1.041c-0.012,0.366 -0.024,0.718 -0.036,1.055c-0.012,0.337 -0.02,0.648 -0.023,0.932c-0.003,0.284 -0.008,0.542 -0.015,0.775c-0.007,0.233 -0.011,0.449 -0.011,0.649c0,0.2 -0.001,0.416 -0.001,0.647l0,0.785c0,0.292 0.014,0.596 0.041,0.912c0.028,0.316 0.062,0.622 0.104,0.916c0.041,0.295 0.07,0.572 0.086,0.83c0.016,0.259 0.025,0.52 0.028,0.785c0.003,0.264 0.004,0.552 0.004,0.863l0,1.05c0,0.389 0.007,0.781 0.021,1.175c0.014,0.394 0.026,0.771 0.036,1.13c0.01,0.359 0.021,0.692 0.033,1.001c0.012,0.308 0.025,0.613 0.04,0.914c0.015,0.301 0.028,0.601 0.04,0.9c0.012,0.299 0.02,0.597 0.023,0.894c0.003,0.297 0.004,0.568 0.004,0.814l0,1.173c0,0.158 0.006,0.326 0.017,0.502c0.012,0.176 0.019,0.365 0.022,0.566c0.003,0.201 0.007,0.403 0.011,0.605c0.005,0.202 0.009,0.397 0.014,0.584c0.005,0.188 0.01,0.383 0.015,0.586c0.005,0.203 0.008,0.423 0.008,0.66l0,0.779c0,0.283 0.001,0.559 0.003,0.827c0.002,0.269 0.013,0.519 0.032,0.752c0.019,0.233 0.037,0.445 0.054,0.638c0.017,0.193 0.029,0.374 0.034,0.542c0.005,0.168 0.008,0.333 0.008,0.494l0,1.031c0,0.206 0.003,0.46 0.01,0.76c0.007,0.3 0.025,0.633 0.053,0.999c0.029,0.366 0.054,0.694 0.076,0.986c0.022,0.291 0.04,0.491 0.055,0.598l0.009,0.068l-0.02,-0.127c-0.033,-0.219 -0.075,-0.45 -0.126,-0.694" style="fill:none;fill-rule:nonzero;stroke:#000;stroke-width:0.85px;"/><path d="M8.196,14.05c0.066,0 0.22,-0.007 0.461,-0.02c0.241,-0.014 0.563,-0.038 0.964,-0.075c0.401,-0.036 0.841,-0.059 1.319,-0.067c0.478,-0.008 0.94,0.006 1.386,0.042c0.446,0.037 0.906,0.082 1.381,0.136c0.474,0.054 0.973,0.093 1.497,0.116c0.524,0.023 1.055,0.035 1.594,0.038c0.539,0.003 1.082,-0.001 1.629,-0.013c0.547,-0.012 1.094,-0.019 1.641,-0.022c0.547,-0.003 1.074,-0.004 1.582,-0.004c0.507,0 1.011,0.003 1.511,0.01c0.5,0.007 1.024,0.017 1.571,0.032c0.548,0.015 1.108,0.022 1.681,0.023c0.573,0 1.13,-0.005 1.672,-0.017c0.542,-0.012 1.047,-0.022 1.516,-0.032c0.469,-0.01 0.937,-0.015 1.406,-0.015c0.468,0 0.943,0.002 1.425,0.006c0.482,0.004 0.937,0.025 1.367,0.063c0.43,0.038 0.855,0.071 1.275,0.098c0.42,0.028 0.858,0.043 1.313,0.046c0.456,0.003 0.908,-0.007 1.357,-0.03c0.449,-0.023 0.845,-0.038 1.189,-0.044c0.344,-0.006 0.678,0.003 1.003,0.026c0.325,0.023 0.691,0.038 1.098,0.044c0.407,0.006 0.839,0 1.295,-0.019c0.456,-0.018 0.89,-0.033 1.301,-0.044c0.411,-0.011 0.8,-0.013 1.167,-0.006c0.367,0.007 0.769,0.014 1.205,0.022c0.436,0.008 0.909,0.012 1.418,0.012l2.737,0c0.394,0 0.802,-0.001 1.221,-0.003c0.42,-0.002 0.84,-0.015 1.261,-0.038c0.421,-0.023 0.825,-0.047 1.213,-0.072c0.388,-0.025 0.777,-0.043 1.168,-0.056c0.39,-0.013 0.803,-0.02 1.236,-0.023c0.433,-0.003 0.867,0.007 1.3,0.03c0.433,0.023 0.882,0.058 1.347,0.107c0.465,0.048 0.951,0.084 1.461,0.108c0.509,0.023 1.018,0.035 1.527,0.035c0.509,0 0.997,0.005 1.465,0.014c0.468,0.009 0.94,0.026 1.415,0.05c0.475,0.024 0.964,0.038 1.466,0.041c0.502,0.003 1.011,0.004 1.526,0.001c0.515,-0.002 1.015,-0.009 1.5,-0.022c0.485,-0.012 0.961,-0.018 1.428,-0.019l1.428,0c0.485,0 0.972,-0.001 1.461,-0.003c0.489,-0.002 0.963,-0.013 1.424,-0.032c0.461,-0.019 0.889,-0.032 1.283,-0.04c0.394,-0.008 0.758,-0.012 1.09,-0.012c0.332,0 0.662,-0.001 0.989,-0.003c0.327,-0.002 0.676,-0.013 1.047,-0.032c0.37,-0.019 0.729,-0.036 1.076,-0.051c0.347,-0.015 0.67,-0.026 0.968,-0.034c0.299,-0.007 0.576,-0.019 0.832,-0.035c0.256,-0.016 0.515,-0.045 0.777,-0.085c0.261,-0.041 0.534,-0.083 0.819,-0.127c0.284,-0.044 0.547,-0.077 0.787,-0.1c0.241,-0.023 0.449,-0.035 0.626,-0.035c0.177,0 0.355,0.001 0.534,0.003c0.179,0.002 0.368,0.008 0.567,0.018c0.199,0.01 0.388,0.016 0.567,0.019c0.179,0.003 0.306,0.004 0.381,0.004c0.075,0 0.101,0.005 0.078,0.016c-0.033,0.015 -0.136,0.062 -0.309,0.142" style="fill:none;fill-rule:nonzero;stroke:#000;stroke-width:0.85px;"/><path d="M8.59,30.193l-0.623,0l0.466,0c0.19,0 0.434,0.014 0.731,0.041c0.297,0.027 0.683,0.073 1.159,0.135c0.475,0.063 1.083,0.107 1.822,0.133c0.739,0.026 1.49,0.039 2.254,0.04c0.763,0 1.365,0.013 1.806,0.038c0.441,0.025 0.792,0.087 1.055,0.188c0.262,0.1 0.574,0.177 0.936,0.231c0.361,0.054 0.786,0.081 1.274,0.083c0.488,0.001 0.992,-0.012 1.514,-0.041c0.522,-0.028 1.06,-0.05 1.615,-0.065c0.555,-0.015 1.15,-0.037 1.787,-0.065c0.637,-0.028 1.254,-0.069 1.853,-0.122c0.599,-0.053 1.139,-0.098 1.622,-0.136c0.482,-0.038 0.949,-0.058 1.399,-0.061c0.45,-0.003 0.89,-0.005 1.318,-0.005l1.295,0c0.435,0 0.881,-0.008 1.339,-0.024c0.458,-0.016 0.938,-0.05 1.44,-0.103c0.502,-0.053 0.966,-0.089 1.391,-0.107c0.425,-0.018 0.826,-0.028 1.205,-0.028l4.258,0c0.446,0 0.85,0.007 1.211,0.02c0.361,0.014 0.752,0.03 1.171,0.05c0.42,0.02 0.884,0.029 1.395,0.028c0.51,-0.002 1.017,-0.02 1.519,-0.056c0.502,-0.036 0.971,-0.065 1.406,-0.087c0.435,-0.023 0.839,-0.035 1.21,-0.038c0.372,-0.003 0.715,-0.005 1.03,-0.005l5.347,0c0.38,0 0.769,-0.001 1.168,-0.003c0.399,-0.002 0.788,-0.006 1.168,-0.011c0.38,-0.005 0.769,-0.008 1.169,-0.008c0.4,0 0.821,0.007 1.264,0.021c0.443,0.014 0.904,0.027 1.381,0.04c0.478,0.013 0.959,0.02 1.443,0.023c0.484,0.003 0.943,0.006 1.376,0.011c0.433,0.004 0.809,0.03 1.129,0.077c0.32,0.047 0.639,0.096 0.958,0.148c0.319,0.052 0.684,0.081 1.097,0.087c0.412,0.006 0.857,0.005 1.334,-0.004c0.477,-0.009 0.927,-0.02 1.349,-0.033c0.422,-0.013 0.778,-0.018 1.069,-0.016c0.291,0.002 0.588,0.016 0.892,0.042c0.303,0.026 0.659,0.043 1.066,0.051c0.407,0.008 0.854,0.01 1.34,0.006c0.487,-0.004 0.962,-0.02 1.426,-0.046c0.464,-0.026 0.904,-0.042 1.321,-0.048c0.416,-0.006 0.827,-0.009 1.231,-0.009c0.404,0 0.803,-0.003 1.197,-0.01c0.394,-0.007 0.79,-0.027 1.189,-0.06c0.399,-0.033 0.767,-0.055 1.103,-0.066c0.336,-0.011 0.622,-0.017 0.859,-0.017l2.526,0c0.109,0 0.246,0.002 0.41,0.007c0.164,0.005 0.308,0.015 0.432,0.032c0.124,0.016 0.2,0.028 0.228,0.036c0.028,0.007 0.016,0.011 -0.034,0.012c-0.073,0.001 -0.19,0.036 -0.348,0.104" style="fill:none;fill-rule:nonzero;stroke:#000;stroke-width:0.85px;"/><path d="M6.842,46.521c-0.054,-0.102 -0.008,-0.169 0.138,-0.201c0.105,-0.023 0.299,-0.027 0.583,-0.01c0.284,0.017 0.674,0.044 1.17,0.081c0.496,0.038 1.061,0.085 1.696,0.14c0.635,0.056 1.323,0.092 2.066,0.108c0.743,0.017 1.465,0.019 2.167,0.008c0.702,-0.011 1.339,-0.022 1.912,-0.033c0.572,-0.01 1.131,-0.016 1.676,-0.016l1.585,0c0.512,0 1.012,-0.001 1.501,-0.003c0.489,-0.002 0.982,-0.022 1.48,-0.059c0.498,-0.037 1.004,-0.073 1.519,-0.108c0.515,-0.035 1.036,-0.058 1.565,-0.068c0.529,-0.01 1.068,-0.026 1.618,-0.048c0.55,-0.022 1.048,-0.034 1.495,-0.037c0.447,-0.003 0.857,-0.005 1.23,-0.005l1.203,0c0.43,0 0.906,-0.006 1.43,-0.017c0.524,-0.011 1.061,-0.026 1.611,-0.043c0.55,-0.018 1.059,-0.024 1.526,-0.02c0.467,0.004 0.923,0.029 1.368,0.073c0.445,0.045 0.923,0.075 1.434,0.092c0.512,0.016 1.051,0.023 1.617,0.021c0.566,-0.002 1.093,-0.012 1.58,-0.028c0.487,-0.017 0.944,-0.027 1.371,-0.029c0.427,-0.003 0.862,-0.004 1.305,-0.004l1.393,0c0.485,0 0.957,-0.003 1.416,-0.01c0.458,-0.007 0.902,-0.018 1.331,-0.032c0.429,-0.015 0.819,-0.022 1.17,-0.023c0.351,0 0.678,-0.001 0.98,-0.001l0.984,0c0.354,0 0.736,-0.01 1.146,-0.031c0.409,-0.021 0.807,-0.042 1.193,-0.065c0.386,-0.023 0.73,-0.034 1.032,-0.035c0.302,0 0.595,0.007 0.878,0.02c0.284,0.014 0.581,0.03 0.892,0.05c0.311,0.02 0.617,0.035 0.918,0.045c0.301,0.01 0.612,0.019 0.932,0.026c0.32,0.007 0.67,0.011 1.051,0.011c0.381,0 0.79,0.001 1.226,0.001c0.436,0 0.884,-0.005 1.342,-0.014c0.458,-0.009 0.959,-0.026 1.501,-0.05c0.543,-0.024 1.133,-0.051 1.77,-0.083c0.637,-0.032 1.247,-0.051 1.829,-0.06c0.582,-0.008 1.113,-0.012 1.593,-0.012l4.357,0c0.455,0 0.863,0.001 1.223,0.003c0.36,0.002 0.706,0.008 1.037,0.018c0.331,0.01 0.664,0.016 0.999,0.019c0.336,0.003 0.658,0.003 0.968,0.001c0.31,-0.002 0.604,-0.012 0.882,-0.028c0.278,-0.017 0.525,-0.027 0.739,-0.03c0.214,-0.003 0.397,-0.003 0.547,-0.001c0.15,0.002 0.301,0.015 0.453,0.039c0.152,0.024 0.337,0.037 0.556,0.04c0.218,0.003 0.456,0.005 0.714,0.005c0.257,0 0.496,-0.001 0.716,-0.003c0.22,-0.002 0.445,-0.008 0.675,-0.018c0.23,-0.01 0.489,-0.023 0.778,-0.039c0.289,-0.016 0.627,-0.036 1.015,-0.058c0.388,-0.022 0.808,-0.04 1.26,-0.055c0.453,-0.015 0.939,-0.023 1.458,-0.023c0.519,0 1.054,0.002 1.604,0.006c0.55,0.004 1.012,0.016 1.386,0.036c0.374,0.019 0.607,0.032 0.699,0.037l0.092,0.005l-0.023,-0.002c-0.065,-0.006 -0.271,-0.023 -0.616,-0.053" style="fill:none;fill-rule:nonzero;stroke:#000;stroke-width:0.85px;"/><path d="M6.709,63.048c0.051,-0.04 0.146,-0.095 0.283,-0.166c0.137,-0.071 0.266,-0.125 0.385,-0.162c0.12,-0.037 0.233,-0.058 0.339,-0.061c0.107,-0.003 0.256,-0.003 0.448,0.002c0.192,0.004 0.49,0.019 0.895,0.042c0.405,0.024 0.894,0.042 1.468,0.055c0.574,0.013 1.133,0.02 1.675,0.023c0.543,0.003 1.074,0.004 1.593,0.004l2.883,0c0.378,0 0.697,0.001 0.957,0.003c0.26,0.002 0.558,0.012 0.893,0.028c0.335,0.017 0.738,0.027 1.208,0.03c0.47,0.003 0.971,-0.011 1.505,-0.044c0.533,-0.032 1.06,-0.081 1.581,-0.146c0.521,-0.066 1.053,-0.117 1.596,-0.155c0.543,-0.038 1.119,-0.062 1.729,-0.072c0.61,-0.01 1.25,-0.023 1.921,-0.04c0.671,-0.016 1.343,-0.047 2.015,-0.092c0.673,-0.045 1.29,-0.095 1.854,-0.148c0.563,-0.053 1.112,-0.099 1.646,-0.136c0.534,-0.037 1.069,-0.06 1.604,-0.068c0.535,-0.008 1.057,-0.013 1.563,-0.013c0.507,0 1.005,-0.001 1.493,-0.003c0.489,-0.002 0.972,-0.008 1.449,-0.018c0.477,-0.01 0.937,-0.016 1.381,-0.019c0.444,-0.003 0.864,-0.005 1.259,-0.007c0.395,-0.002 0.803,-0.016 1.224,-0.042c0.421,-0.026 0.85,-0.052 1.285,-0.08c0.436,-0.028 0.825,-0.043 1.166,-0.046c0.342,-0.003 0.666,0.003 0.972,0.019c0.306,0.016 0.647,0.043 1.023,0.082c0.376,0.039 0.795,0.061 1.256,0.064c0.461,0.003 0.93,-0.011 1.408,-0.043c0.477,-0.032 0.93,-0.072 1.357,-0.118c0.427,-0.046 0.836,-0.086 1.225,-0.118c0.39,-0.032 0.781,-0.051 1.175,-0.057c0.393,-0.006 0.794,-0.009 1.202,-0.009l2.533,0c0.451,0 0.909,0.003 1.376,0.01c0.467,0.007 0.921,0.018 1.362,0.032c0.441,0.015 0.872,0.026 1.293,0.033c0.421,0.007 0.86,0.015 1.317,0.022c0.457,0.007 0.944,0.011 1.46,0.011l4.955,0c0.451,0 0.88,0.007 1.289,0.021c0.409,0.014 0.775,0.034 1.099,0.06c0.324,0.027 0.642,0.052 0.954,0.077c0.312,0.025 0.649,0.041 1.01,0.049c0.361,0.008 0.723,0.011 1.085,0.009c0.362,-0.002 0.705,-0.016 1.028,-0.042c0.323,-0.026 0.636,-0.052 0.94,-0.08c0.304,-0.027 0.621,-0.043 0.95,-0.046c0.329,-0.003 0.648,-0.004 0.956,-0.004l0.84,0c0.252,0 0.483,0.001 0.694,0.003c0.211,0.002 0.389,0.017 0.535,0.045c0.146,0.028 0.276,0.055 0.39,0.08c0.114,0.025 0.251,0.043 0.41,0.053c0.159,0.01 0.322,0.015 0.49,0.016l2.618,0c0.235,0 0.471,0.001 0.71,0.003c0.238,0.002 0.47,0.013 0.694,0.032c0.224,0.019 0.443,0.035 0.658,0.047c0.214,0.013 0.427,0.02 0.638,0.023c0.211,0.003 0.437,0.004 0.676,0.004l1.301,0l-0.253,0" style="fill:none;fill-rule:nonzero;stroke:#000;stroke-width:0.85px;"/><path d="M7.89,78.426c0.001,-0.077 0.025,-0.151 0.07,-0.221c0.045,-0.07 0.143,-0.109 0.294,-0.117c0.151,-0.008 0.395,-0.012 0.732,-0.012c0.337,0 0.791,0.01 1.361,0.031c0.57,0.021 1.201,0.039 1.892,0.054c0.691,0.015 1.314,0.023 1.869,0.023c0.555,0 0.999,0.003 1.331,0.007c0.332,0.004 0.636,0.035 0.911,0.091c0.275,0.056 0.552,0.115 0.832,0.177c0.28,0.061 0.565,0.1 0.855,0.117c0.29,0.016 0.618,0.022 0.985,0.018c0.367,-0.004 0.754,-0.025 1.161,-0.063c0.408,-0.038 0.808,-0.067 1.2,-0.088c0.393,-0.021 0.763,-0.032 1.112,-0.035c0.349,-0.003 0.726,-0.004 1.133,-0.004l1.43,0c0.546,0 1.152,0.004 1.817,0.011c0.665,0.007 1.308,0.014 1.93,0.021c0.621,0.007 1.176,0.011 1.664,0.011c0.488,0 0.953,-0.01 1.396,-0.031c0.442,-0.021 0.9,-0.04 1.373,-0.057c0.473,-0.018 0.951,-0.037 1.435,-0.058c0.484,-0.021 0.944,-0.048 1.382,-0.08c0.438,-0.032 0.832,-0.049 1.182,-0.053c0.35,-0.003 0.691,-0.001 1.021,0.005c0.331,0.007 0.676,0.018 1.037,0.032c0.361,0.015 0.738,0.022 1.13,0.023c0.393,0 0.782,-0.001 1.166,-0.003c0.385,-0.002 0.755,-0.006 1.111,-0.011c0.356,-0.005 0.707,-0.008 1.054,-0.008l1.129,0c0.406,0 0.849,-0.004 1.331,-0.013c0.482,-0.009 0.946,-0.032 1.393,-0.068c0.447,-0.036 0.856,-0.057 1.225,-0.063c0.37,-0.006 0.738,0.006 1.106,0.035c0.368,0.03 0.765,0.071 1.191,0.126c0.426,0.054 0.857,0.087 1.292,0.098c0.435,0.011 0.862,0.011 1.281,0c0.419,-0.011 0.81,-0.026 1.172,-0.043c0.362,-0.017 0.692,-0.025 0.988,-0.023c0.296,0.002 0.586,0.016 0.87,0.042c0.284,0.026 0.587,0.043 0.908,0.051c0.321,0.008 0.659,0.008 1.014,-0.001c0.355,-0.009 0.696,-0.023 1.026,-0.043c0.329,-0.02 0.663,-0.03 1.002,-0.03c0.339,0 0.704,-0.001 1.096,-0.001l4.617,0c0.517,0 0.993,0.003 1.43,0.01c0.437,0.007 0.9,0.018 1.39,0.032c0.49,0.015 1.037,0.022 1.641,0.023c0.604,0 1.209,-0.014 1.817,-0.044c0.607,-0.03 1.148,-0.066 1.623,-0.108c0.474,-0.042 0.893,-0.067 1.256,-0.076c0.363,-0.008 0.708,-0.013 1.034,-0.013l8.768,0c0.198,0 0.376,0.007 0.533,0.021c0.157,0.014 0.309,0.032 0.454,0.053c0.145,0.022 0.308,0.043 0.489,0.062c0.181,0.02 0.375,0.037 0.58,0.052c0.206,0.014 0.412,0.026 0.619,0.033c0.207,0.008 0.393,0.017 0.558,0.029c0.165,0.012 0.304,0.031 0.418,0.057c0.114,0.026 0.198,0.047 0.251,0.062c0.054,0.015 0.066,0.032 0.036,0.053" style="fill:none;fill-rule:nonzero;stroke:#000;stroke-width:0.85px;"/><path d="M16.071,14.815c-0.014,-0.075 -0.035,-0.163 -0.064,-0.264c-0.029,-0.101 -0.045,-0.168 -0.049,-0.202c-0.004,-0.034 0.061,-0.052 0.195,-0.055c0.134,-0.003 0.371,-0.004 0.711,-0.001c0.34,0.002 0.768,0.015 1.282,0.039c0.514,0.024 1.055,0.043 1.621,0.058c0.566,0.015 1.084,0.043 1.553,0.086c0.469,0.043 0.881,0.085 1.237,0.127c0.356,0.042 0.719,0.066 1.091,0.072c0.372,0.006 0.764,-0.005 1.175,-0.032c0.412,-0.028 0.757,-0.053 1.037,-0.076c0.28,-0.023 0.522,-0.035 0.725,-0.035c0.203,0 0.427,-0.007 0.672,-0.021c0.245,-0.013 0.521,-0.05 0.828,-0.109c0.307,-0.059 0.591,-0.112 0.852,-0.157c0.261,-0.045 0.477,-0.071 0.648,-0.077c0.171,-0.006 0.307,-0.009 0.409,-0.009c0.149,0 0.269,0.056 0.358,0.168" style="fill:none;fill-rule:nonzero;stroke:#c2361a;stroke-width:1.7px;"/><path d="M31.689,14.006c0.042,-0.066 0.099,-0.132 0.171,-0.198c0.072,-0.066 0.122,-0.096 0.15,-0.09c0.028,0.006 0.05,0.078 0.067,0.218c0.017,0.14 0.04,0.317 0.068,0.532c0.029,0.215 0.065,0.419 0.108,0.61c0.044,0.191 0.077,0.376 0.1,0.556c0.023,0.179 0.035,0.373 0.035,0.581c0,0.208 0.001,0.425 0.001,0.65l0,2.892c0,0.29 0.003,0.584 0.01,0.884c0.007,0.299 0.021,0.582 0.042,0.849c0.022,0.266 0.036,0.527 0.045,0.782c0.008,0.255 0.008,0.52 -0.001,0.793c-0.009,0.274 -0.02,0.561 -0.033,0.861c-0.013,0.301 -0.019,0.597 -0.019,0.889c0,0.292 0.002,0.58 0.007,0.862c0.005,0.282 0.008,0.567 0.011,0.856c0.003,0.289 -0.003,0.588 -0.017,0.899c-0.014,0.311 -0.025,0.619 -0.033,0.926c-0.008,0.306 -0.014,0.606 -0.019,0.898c-0.005,0.292 -0.012,0.573 -0.021,0.841c-0.009,0.268 -0.022,0.524 -0.036,0.768c-0.015,0.243 -0.022,0.494 -0.023,0.751l0,0.783c0,0.265 -0.002,0.532 -0.007,0.802c-0.005,0.27 -0.009,0.531 -0.014,0.785c-0.005,0.254 -0.013,0.507 -0.025,0.759c-0.012,0.253 -0.032,0.512 -0.061,0.779c-0.029,0.267 -0.051,0.531 -0.066,0.791c-0.015,0.261 -0.023,0.498 -0.024,0.711l0,3.113c0,0.226 0.005,0.451 0.014,0.675c0.009,0.224 0.017,0.443 0.022,0.657c0.005,0.214 0.008,0.429 0.008,0.646l0,0.618c0,0.196 -0.001,0.375 -0.003,0.539c-0.002,0.164 -0.01,0.312 -0.025,0.444c-0.014,0.132 -0.026,0.261 -0.036,0.385c-0.01,0.124 -0.016,0.245 -0.019,0.362c-0.003,0.117 -0.004,0.217 -0.004,0.299l0,0.436c0,0.041 0.005,0.082 0.014,0.123c0.009,0.042 0.018,0.078 0.025,0.11c0.008,0.032 0.015,0.06 0.022,0.084c0.007,0.024 0.014,0.05 0.019,0.077c0.005,0.027 0.01,0.049 0.015,0.066c0.005,0.017 0.008,0.034 0.011,0.052c0.003,0.017 0.004,0.034 0.004,0.051l0,0.162c0,0.002 -0.01,0.006 -0.031,0.011c-0.021,0.005 -0.064,0.008 -0.131,0.008l-0.241,0c-0.094,0 -0.199,-0.008 -0.315,-0.024c-0.116,-0.016 -0.236,-0.055 -0.359,-0.117c-0.124,-0.062 -0.266,-0.129 -0.427,-0.202c-0.161,-0.073 -0.348,-0.135 -0.56,-0.187c-0.212,-0.052 -0.436,-0.09 -0.672,-0.113c-0.236,-0.023 -0.458,-0.035 -0.669,-0.035c-0.21,0 -0.41,-0.001 -0.6,-0.001l-0.58,0c-0.197,0 -0.394,0.002 -0.594,0.007c-0.199,0.005 -0.406,0.013 -0.622,0.025c-0.216,0.012 -0.439,0.02 -0.669,0.026c-0.231,0.005 -0.472,0.011 -0.723,0.018c-0.252,0.007 -0.528,0.024 -0.83,0.053c-0.301,0.028 -0.632,0.061 -0.993,0.098c-0.36,0.037 -0.714,0.065 -1.06,0.085c-0.346,0.02 -0.679,0.034 -0.999,0.041c-0.32,0.008 -0.619,0.016 -0.897,0.026c-0.279,0.009 -0.533,0.027 -0.764,0.053c-0.231,0.026 -0.421,0.055 -0.573,0.087c-0.151,0.032 -0.284,0.056 -0.399,0.074c-0.115,0.018 -0.23,0.038 -0.346,0.062c-0.116,0.024 -0.237,0.048 -0.364,0.073c-0.126,0.025 -0.241,0.041 -0.344,0.049c-0.103,0.008 -0.195,0.012 -0.276,0.012l-0.389,0c-0.06,0 -0.127,0.003 -0.199,0.01c-0.073,0.007 -0.14,0.021 -0.201,0.042c-0.062,0.022 -0.104,0.04 -0.128,0.054l-0.016,0.009l0.023,-0.017c0.044,-0.03 0.077,-0.062 0.1,-0.096" style="fill:none;fill-rule:nonzero;stroke:#c2361a;stroke-width:1.7px;"/><path d="M15.896,14.793c-0.062,-0.027 -0.06,0.097 0.005,0.37c0.066,0.273 0.113,0.565 0.144,0.876c0.03,0.311 0.056,0.644 0.078,0.998c0.022,0.354 0.059,0.707 0.111,1.06c0.052,0.353 0.104,0.706 0.156,1.061c0.052,0.355 0.084,0.703 0.098,1.044c0.013,0.341 0.02,0.66 0.02,0.956l0,5.17c0,0.239 -0.007,0.498 -0.021,0.776c-0.014,0.278 -0.025,0.573 -0.033,0.886c-0.008,0.312 -0.01,0.622 -0.006,0.929c0.004,0.307 0.021,0.587 0.05,0.84c0.029,0.253 0.045,0.491 0.048,0.714c0.003,0.224 0.005,0.474 0.005,0.751l0,6.268c0,0.353 -0.003,0.676 -0.01,0.968c-0.007,0.292 -0.023,0.563 -0.049,0.814c-0.026,0.251 -0.045,0.513 -0.055,0.787c-0.011,0.274 -0.015,0.549 -0.013,0.827c0.002,0.277 0.015,0.547 0.039,0.81c0.024,0.263 0.037,0.518 0.041,0.767c0.003,0.249 0.004,0.498 0.002,0.747c-0.002,0.25 -0.01,0.516 -0.025,0.799c-0.014,0.283 -0.034,0.565 -0.06,0.846c-0.026,0.281 -0.055,0.516 -0.087,0.708c-0.032,0.191 -0.051,0.328 -0.057,0.409c-0.006,0.081 -0.009,0.131 -0.009,0.151l0,0.008l-0.004,-0.053c-0.004,-0.071 -0.016,-0.215 -0.036,-0.432" style="fill:none;fill-rule:nonzero;stroke:#c2361a;stroke-width:1.7px;"/><path d="M32.184,46.419c0.014,-0.029 0.011,-0.109 -0.011,-0.239c-0.013,-0.079 -0.06,-0.106 -0.141,-0.083c-0.081,0.023 -0.151,0.095 -0.211,0.214c-0.06,0.119 -0.093,0.235 -0.1,0.347c-0.006,0.112 -0.009,0.232 -0.009,0.36l0,0.468c0,0.185 0.017,0.421 0.051,0.708c0.034,0.287 0.108,0.623 0.223,1.006c0.114,0.383 0.228,0.775 0.341,1.174c0.113,0.399 0.188,0.786 0.225,1.161c0.037,0.375 0.056,0.754 0.056,1.138c0.001,0.383 -0.003,0.755 -0.01,1.114c-0.007,0.359 -0.011,0.689 -0.011,0.99l0,0.919c0,0.312 -0.018,0.654 -0.055,1.026c-0.037,0.372 -0.102,0.765 -0.195,1.18c-0.093,0.414 -0.174,0.814 -0.242,1.198c-0.068,0.384 -0.105,0.717 -0.111,0.998c-0.006,0.281 0,0.515 0.018,0.703c0.018,0.188 0.033,0.382 0.044,0.584c0.011,0.202 0.014,0.459 0.01,0.771c-0.004,0.312 -0.017,0.642 -0.039,0.99c-0.022,0.348 -0.033,0.665 -0.034,0.953c-0.001,0.287 0.011,0.54 0.034,0.757c0.024,0.218 0.037,0.459 0.04,0.724c0.003,0.265 0.005,0.562 0.005,0.894c0,0.331 -0.013,0.666 -0.038,1.004c-0.025,0.338 -0.044,0.645 -0.055,0.921c-0.011,0.275 -0.016,0.505 -0.016,0.691c0,0.185 -0.001,0.383 -0.003,0.595c-0.002,0.211 -0.032,0.456 -0.09,0.733c-0.058,0.277 -0.117,0.571 -0.177,0.882c-0.059,0.311 -0.095,0.599 -0.106,0.863c-0.011,0.265 -0.017,0.499 -0.017,0.703l0,0.551c0,0.164 -0.007,0.336 -0.021,0.517c-0.014,0.181 -0.031,0.373 -0.05,0.577c-0.02,0.204 -0.035,0.397 -0.045,0.578c-0.01,0.181 -0.015,0.342 -0.015,0.481l0,0.793c0,0.131 -0.006,0.272 -0.017,0.425c-0.012,0.153 -0.026,0.305 -0.043,0.458c-0.017,0.153 -0.029,0.298 -0.037,0.435c-0.008,0.137 -0.012,0.256 -0.012,0.357l0,0.238c0,0.058 0.007,0.09 0.021,0.096c0.014,0.006 0.033,0.003 0.057,-0.011c0.034,-0.019 0.104,-0.141 0.209,-0.364" style="fill:none;fill-rule:nonzero;stroke:#c2361a;stroke-width:1.7px;"/><path d="M31.864,78.163c-0.121,0.024 -0.236,0.065 -0.346,0.124c-0.11,0.059 -0.166,0.101 -0.17,0.124c-0.003,0.023 0.062,0.034 0.194,0.032c0.133,-0.002 0.325,-0.02 0.576,-0.055c0.252,-0.035 0.539,-0.077 0.863,-0.125c0.324,-0.049 0.675,-0.091 1.055,-0.125c0.38,-0.035 0.765,-0.054 1.157,-0.057c0.392,-0.003 0.76,-0.005 1.105,-0.005c0.345,0 0.68,0.01 1.005,0.031c0.326,0.02 0.688,0.049 1.088,0.086c0.4,0.037 0.842,0.065 1.326,0.085c0.484,0.02 0.953,0.031 1.408,0.035c0.454,0.003 0.897,0 1.33,-0.009c0.432,-0.009 0.867,-0.037 1.306,-0.085c0.438,-0.047 0.843,-0.079 1.216,-0.096c0.372,-0.016 0.725,-0.021 1.059,-0.014c0.333,0.007 0.671,0.014 1.013,0.022c0.342,0.008 0.686,0.016 1.032,0.025c0.346,0.009 0.678,0.034 0.997,0.074c0.319,0.04 0.642,0.076 0.969,0.106c0.327,0.03 0.667,0.046 1.019,0.046c0.352,0.001 0.692,0.001 1.019,0.001c0.327,0 0.629,0.001 0.905,0.003c0.276,0.002 0.547,0.018 0.811,0.049c0.264,0.03 0.557,0.051 0.878,0.062c0.321,0.011 0.662,-0.003 1.024,-0.042c0.362,-0.039 0.685,-0.075 0.968,-0.108c0.283,-0.033 0.523,-0.049 0.717,-0.047c0.195,0.002 0.385,0.012 0.571,0.031c0.186,0.019 0.403,0.027 0.652,0.023c0.248,-0.004 0.499,-0.028 0.753,-0.073c0.254,-0.045 0.47,-0.079 0.648,-0.102c0.178,-0.023 0.33,-0.035 0.455,-0.036c0.125,0 0.265,0.003 0.421,0.01c0.156,0.007 0.327,0.012 0.514,0.014c0.187,0.002 0.357,0.013 0.509,0.032c0.152,0.019 0.292,0.036 0.418,0.051c0.127,0.015 0.262,0.023 0.408,0.023l0.413,0c0.13,0 0.233,0.001 0.311,0.003c0.078,0.002 0.134,0.006 0.169,0.011c0.035,0.005 0.058,0.008 0.068,0.008c0.01,0 0.016,0.005 0.016,0.014c0,0.009 -0.002,0.022 -0.007,0.039c-0.005,0.017 -0.012,0.027 -0.022,0.03c-0.01,0.003 -0.015,0.005 -0.015,0.005l0,-1.599c0,-0.327 -0.01,-0.681 -0.031,-1.061c-0.021,-0.38 -0.048,-0.775 -0.083,-1.185c-0.034,-0.41 -0.058,-0.809 -0.07,-1.197c-0.013,-0.388 -0.027,-0.755 -0.044,-1.101c-0.017,-0.346 -0.027,-0.683 -0.03,-1.009c-0.003,-0.326 0,-0.654 0.009,-0.984c0.009,-0.33 0.03,-0.666 0.064,-1.009c0.034,-0.343 0.055,-0.681 0.063,-1.014c0.008,-0.333 -0.004,-0.652 -0.036,-0.958c-0.032,-0.305 -0.067,-0.593 -0.104,-0.864c-0.037,-0.271 -0.058,-0.515 -0.061,-0.731c-0.003,-0.216 -0.005,-0.42 -0.005,-0.612l0,-1.118c0,-0.178 0.005,-0.353 0.014,-0.526c0.009,-0.173 0.037,-0.343 0.085,-0.511c0.047,-0.168 0.09,-0.326 0.127,-0.476c0.037,-0.15 0.064,-0.259 0.079,-0.328c0.015,-0.069 0.023,-0.11 0.024,-0.124l0,-0.044c0,-0.016 -0.007,-0.047 -0.02,-0.092c-0.019,-0.064 -0.337,-0.148 -0.954,-0.251" style="fill:none;fill-rule:nonzero;stroke:#c2361a;stroke-width:1.7px;"/><path d="M47.942,61.648c-0.114,0.003 -0.24,0.022 -0.378,0.055c-0.138,0.033 -0.242,0.071 -0.31,0.112c-0.068,0.041 -0.105,0.068 -0.11,0.079c-0.005,0.011 0.099,0.012 0.312,0.004c0.213,-0.008 0.494,-0.023 0.841,-0.043c0.347,-0.02 0.677,-0.031 0.99,-0.031l1.02,0c0.367,0 0.747,0.007 1.138,0.021c0.391,0.014 0.753,0.037 1.083,0.071c0.331,0.033 0.649,0.056 0.955,0.067c0.306,0.011 0.613,0.012 0.919,0.003c0.307,-0.009 0.594,-0.037 0.86,-0.085c0.266,-0.047 0.522,-0.085 0.768,-0.113c0.246,-0.028 0.489,-0.049 0.73,-0.064c0.241,-0.015 0.473,-0.023 0.694,-0.026c0.222,-0.003 0.444,-0.009 0.668,-0.018c0.223,-0.009 0.444,-0.03 0.661,-0.064c0.217,-0.034 0.414,-0.058 0.59,-0.074c0.177,-0.015 0.328,-0.023 0.454,-0.023c0.126,0 0.246,-0.001 0.359,-0.001l0.972,0c0.203,0 0.412,-0.01 0.625,-0.031c0.214,-0.021 0.412,-0.039 0.594,-0.054c0.182,-0.015 0.333,-0.023 0.454,-0.023l0.488,0c0.032,0 -0.061,-0.15 -0.279,-0.45" style="fill:none;fill-rule:nonzero;stroke:#c2361a;stroke-width:1.7px;"/><path d="M32.311,46.231c-0.013,-0.042 -0.085,-0.109 -0.217,-0.201c-0.081,-0.056 -0.148,-0.081 -0.202,-0.073c-0.054,0.008 -0.087,0.054 -0.099,0.136c-0.012,0.083 0.069,0.151 0.244,0.204c0.175,0.053 0.492,0.083 0.951,0.089c0.458,0.006 1.036,-0.015 1.732,-0.064c0.696,-0.049 1.349,-0.08 1.959,-0.092c0.61,-0.012 1.124,0.01 1.54,0.066c0.416,0.056 0.795,0.101 1.137,0.134c0.342,0.034 0.686,0.056 1.033,0.066c0.347,0.01 0.692,0.015 1.035,0.016c0.343,0 0.685,0.004 1.024,0.011c0.34,0.007 0.701,0.009 1.083,0.004c0.382,-0.004 0.758,-0.034 1.127,-0.091c0.369,-0.056 0.687,-0.1 0.954,-0.131c0.266,-0.031 0.493,-0.048 0.68,-0.051c0.187,-0.003 0.371,-0.005 0.553,-0.005l0.943,0c0.114,0 0.207,-0.002 0.279,-0.007c0.072,-0.005 0.122,-0.013 0.15,-0.025c0.028,-0.012 0.044,-0.023 0.047,-0.033c0.004,-0.014 -0.211,-0.218 -0.647,-0.612" style="fill:none;fill-rule:nonzero;stroke:#c2361a;stroke-width:1.7px;"/><path d="M47.198,46.096c-0.114,0.044 -0.223,0.127 -0.327,0.248c-0.104,0.121 -0.151,0.267 -0.14,0.438c0.011,0.171 0.086,0.355 0.225,0.554c0.139,0.198 0.265,0.412 0.377,0.642c0.112,0.23 0.192,0.478 0.24,0.744c0.048,0.266 0.081,0.543 0.099,0.832c0.018,0.289 0.027,0.576 0.028,0.864c0,0.287 -0.004,0.574 -0.013,0.861c-0.009,0.287 -0.034,0.562 -0.074,0.826c-0.04,0.264 -0.076,0.514 -0.106,0.751c-0.03,0.237 -0.049,0.456 -0.057,0.656c-0.008,0.201 -0.012,0.398 -0.012,0.592l0,1.717c0,0.196 0.001,0.401 0.003,0.614c0.002,0.213 0.01,0.429 0.025,0.648c0.014,0.219 0.031,0.437 0.05,0.656c0.019,0.219 0.036,0.439 0.051,0.66c0.015,0.221 0.022,0.455 0.02,0.702c-0.002,0.247 -0.018,0.488 -0.048,0.723c-0.031,0.235 -0.051,0.444 -0.062,0.628c-0.011,0.184 -0.017,0.354 -0.017,0.51c0,0.157 -0.001,0.295 -0.003,0.416c-0.002,0.121 -0.013,0.219 -0.032,0.296c-0.019,0.077 -0.037,0.142 -0.054,0.196c-0.017,0.054 -0.028,0.091 -0.033,0.113c-0.007,0.03 -0.041,0.003 -0.104,-0.082" style="fill:none;fill-rule:nonzero;stroke:#c2361a;stroke-width:1.7px;"/><path d="M48.357,14.881c-0.048,-0.052 -0.145,-0.044 -0.289,0.023c-0.145,0.067 -0.244,0.182 -0.298,0.343c-0.054,0.161 -0.079,0.34 -0.076,0.538c0.003,0.198 0.03,0.431 0.08,0.701c0.05,0.269 0.093,0.555 0.13,0.855c0.037,0.301 0.083,0.625 0.138,0.973c0.055,0.348 0.107,0.725 0.157,1.131c0.05,0.406 0.077,0.826 0.08,1.258c0.004,0.432 -0.011,0.851 -0.043,1.255c-0.033,0.405 -0.061,0.794 -0.084,1.167c-0.023,0.374 -0.035,0.714 -0.035,1.02l0,1.436c0,0.174 -0.015,0.362 -0.045,0.565c-0.03,0.202 -0.078,0.428 -0.146,0.677c-0.068,0.249 -0.124,0.489 -0.168,0.718c-0.045,0.229 -0.073,0.446 -0.084,0.649c-0.011,0.203 -0.016,0.376 -0.013,0.52c0.002,0.143 0.013,0.266 0.032,0.37c0.019,0.103 0.038,0.199 0.058,0.287c0.02,0.088 0.036,0.17 0.048,0.245c0.012,0.075 0.021,0.153 0.026,0.233c0.005,0.08 0.008,0.157 0.008,0.23l0,0.455c0,0.085 -0.009,0.173 -0.028,0.266c-0.019,0.092 -0.03,0.169 -0.033,0.229c-0.003,0.06 0.012,0.093 0.046,0.1c0.034,0.006 0.104,0.007 0.208,0.003c0.105,-0.004 0.242,-0.022 0.411,-0.053c0.17,-0.031 0.4,-0.079 0.692,-0.145c0.291,-0.066 0.636,-0.146 1.035,-0.238c0.398,-0.093 0.779,-0.163 1.141,-0.211c0.362,-0.048 0.704,-0.075 1.026,-0.081c0.322,-0.006 0.653,-0.016 0.994,-0.03c0.341,-0.014 0.693,-0.029 1.055,-0.047c0.362,-0.017 0.71,-0.029 1.044,-0.034c0.334,-0.005 0.68,-0.008 1.038,-0.008l2.326,0c0.388,0 0.718,0.006 0.99,0.017c0.272,0.012 0.53,0.019 0.774,0.022c0.244,0.003 0.521,0.002 0.83,-0.002c0.309,-0.004 0.585,-0.015 0.828,-0.032c0.243,-0.017 0.413,-0.021 0.51,-0.013c0.097,0.009 0.176,0.036 0.236,0.081c0.06,0.045 0.138,0.074 0.231,0.085c0.094,0.011 0.184,0.017 0.27,0.017l0.183,0c0.036,0 0.032,0.003 -0.012,0.01c-0.062,0.009 -0.258,0.039 -0.587,0.089" style="fill:none;fill-rule:nonzero;stroke:#c2361a;stroke-width:1.7px;"/><path d="M64.194,30.28l0.003,0.424c0.002,0.283 0.023,0.606 0.062,0.971c0.04,0.364 0.08,0.75 0.123,1.157c0.043,0.407 0.062,0.841 0.059,1.303c-0.003,0.462 -0.044,0.926 -0.121,1.391c-0.077,0.465 -0.149,0.895 -0.214,1.29c-0.065,0.395 -0.106,0.751 -0.125,1.069c-0.018,0.318 -0.046,0.645 -0.084,0.981c-0.038,0.336 -0.082,0.665 -0.133,0.985c-0.051,0.32 -0.08,0.606 -0.087,0.856c-0.006,0.25 -0.007,0.478 -0.003,0.684c0.004,0.205 0.014,0.4 0.029,0.586c0.015,0.185 0.024,0.384 0.026,0.596c0.003,0.213 0.004,0.441 0.004,0.686l0,0.749c0,0.255 -0.003,0.494 -0.01,0.717c-0.007,0.223 -0.014,0.407 -0.022,0.551c-0.008,0.144 -0.012,0.254 -0.012,0.329l0,0.162c0,0.033 0.001,0.066 0.003,0.099c0.002,0.034 0.022,0.068 0.059,0.102c0.037,0.034 0.093,0.063 0.167,0.085c0.075,0.022 0.162,0.041 0.263,0.055c0.101,0.015 0.228,0.027 0.381,0.037c0.153,0.01 0.357,0.013 0.613,0.009c0.256,-0.004 0.53,-0.029 0.822,-0.073c0.292,-0.045 0.572,-0.079 0.84,-0.102c0.268,-0.023 0.532,-0.035 0.792,-0.036c0.26,0 0.526,-0.001 0.798,-0.001l2.855,0c0.369,0 0.73,0.002 1.084,0.007c0.354,0.004 0.671,0.025 0.951,0.063c0.281,0.038 0.524,0.07 0.73,0.098c0.206,0.028 0.41,0.043 0.611,0.046c0.202,0.003 0.398,0.003 0.588,0.001c0.191,-0.002 0.36,-0.012 0.507,-0.028c0.147,-0.017 0.292,-0.03 0.436,-0.04c0.143,-0.01 0.288,-0.015 0.434,-0.015l1.901,0c0.093,0 0.188,0.005 0.284,0.014c0.097,0.009 0.205,0.024 0.326,0.046c0.121,0.022 0.234,0.042 0.34,0.059c0.106,0.017 0.19,0.029 0.253,0.037c0.063,0.008 0.066,0.002 0.009,-0.015c-0.081,-0.026 -0.337,-0.106 -0.767,-0.241" style="fill:none;fill-rule:nonzero;stroke:#c2361a;stroke-width:1.7px;"/><path d="M48.371,14.491c-0.02,-0.037 -0.078,-0.081 -0.175,-0.131c-0.061,-0.032 -0.037,-0.032 0.071,0.001c0.109,0.032 0.371,0.061 0.787,0.087c0.416,0.026 0.837,0.039 1.262,0.039l1.375,0c0.492,0 0.955,0.008 1.389,0.023c0.434,0.016 0.828,0.069 1.182,0.159c0.354,0.09 0.712,0.169 1.073,0.236c0.361,0.067 0.75,0.113 1.169,0.136c0.418,0.023 0.859,0.035 1.322,0.036c0.463,0 0.943,-0.002 1.44,-0.006c0.497,-0.004 0.988,-0.018 1.474,-0.039c0.485,-0.022 0.924,-0.034 1.317,-0.037c0.393,-0.003 0.754,-0.002 1.083,0.002c0.329,0.005 0.665,0.008 1.006,0.011c0.342,0.003 0.705,0.002 1.09,-0.003c0.385,-0.004 0.785,-0.031 1.199,-0.081c0.415,-0.049 0.827,-0.096 1.236,-0.141c0.409,-0.044 0.802,-0.084 1.177,-0.118c0.375,-0.034 0.757,-0.064 1.145,-0.089c0.388,-0.025 0.768,-0.039 1.139,-0.042c0.371,-0.003 0.696,-0.002 0.974,0.002c0.278,0.005 0.542,0.008 0.793,0.011c0.25,0.003 0.507,0.003 0.769,0.001c0.262,-0.002 0.519,-0.023 0.77,-0.063c0.251,-0.04 0.48,-0.074 0.686,-0.102c0.206,-0.028 0.384,-0.043 0.534,-0.046c0.15,-0.003 0.295,-0.005 0.436,-0.005l2.217,0l-0.051,0.004c-0.061,0.004 -0.21,0.016 -0.445,0.036" style="fill:none;fill-rule:nonzero;stroke:#c2361a;stroke-width:1.7px;"/><path d="M79.769,14.05l0,-0.004l0.005,0.074c0.003,0.06 0.011,0.211 0.024,0.452c0.013,0.241 0.036,0.553 0.07,0.937c0.034,0.384 0.063,0.787 0.088,1.211c0.025,0.424 0.049,0.846 0.073,1.265c0.024,0.419 0.054,0.8 0.09,1.14c0.036,0.341 0.063,0.654 0.081,0.94c0.018,0.286 0.027,0.557 0.027,0.813c0,0.257 0.002,0.507 0.004,0.752c0.002,0.245 0.01,0.532 0.025,0.861c0.014,0.329 0.028,0.674 0.04,1.034c0.012,0.36 0.019,0.703 0.019,1.027l0,0.968c0,0.321 -0.007,0.643 -0.02,0.966c-0.013,0.323 -0.035,0.653 -0.064,0.991c-0.029,0.338 -0.048,0.658 -0.056,0.961c-0.008,0.303 -0.012,0.586 -0.012,0.847c0,0.261 0.004,0.508 0.01,0.739c0.007,0.231 0.009,0.48 0.004,0.746c-0.004,0.266 -0.023,0.534 -0.056,0.804c-0.033,0.27 -0.053,0.551 -0.059,0.844c-0.006,0.293 -0.009,0.592 -0.009,0.898l0,2.773c0,0.235 -0.007,0.493 -0.021,0.774c-0.014,0.281 -0.035,0.558 -0.064,0.831c-0.029,0.273 -0.057,0.54 -0.084,0.8c-0.027,0.261 -0.046,0.498 -0.056,0.711c-0.01,0.213 -0.015,0.42 -0.016,0.619l0,0.602c0,0.202 0.006,0.389 0.017,0.56c0.012,0.171 0.019,0.345 0.022,0.522c0.003,0.176 0.004,0.364 0.004,0.563l0,1.04c0,0.142 0.001,0.275 0.003,0.4c0.002,0.125 0.009,0.231 0.021,0.318c0.012,0.087 0.022,0.158 0.029,0.215c0.011,0.081 -0.006,0.261 -0.052,0.541" style="fill:none;fill-rule:nonzero;stroke:#c2361a;stroke-width:1.7px;"/></svg>