<?xml version="1.0" encoding="UTF-8" standalone="no"?><!DOCTYPE svg PUBLIC "-//W3C//DTD SVG 1.1//EN" "http://www.w3.org/Graphics/SVG/1.1/DTD/svg11.dtd"><svg width="100%" height="100%" viewBox="0 0 177 43" version="1.1" xmlns="http://www.w3.org/2000/svg" xmlns:xlink="http://www.w3.org/1999/xlink" xml:space="preserve" xmlns:serif="http://www.serif.com/" style="fill-rule:evenodd;clip-rule:evenodd;stroke-linecap:round;stroke-linejoin:round;stroke-miterlimit:10;"><rect x="0" y="0" width="177" height="43" style="fill:#fff;"/><path d="M5.417,19.884c-0.065,-0.021 -0.14,-0.056 -0.224,-0.103c-0.055,-0.031 -0.033,-0.046 0.065,-0.047c0.098,0 0.282,0.002 0.552,0.006c0.27,0.004 0.559,0.029 0.867,0.074c0.309,0.045 0.76,0.074 1.354,0.088c0.594,0.014 1.318,-0.01 2.171,-0.073c0.853,-0.063 1.626,-0.12 2.318,-0.173c0.692,-0.053 1.3,-0.083 1.823,-0.089c0.523,-0.006 1.051,-0.015 1.583,-0.026c0.532,-0.012 1.036,-0.022 1.513,-0.032c0.477,-0.01 0.932,-0.015 1.365,-0.015l1.333,0c0.455,0 0.953,-0.001 1.494,-0.003c0.541,-0.002 1.073,-0.025 1.597,-0.07c0.523,-0.044 0.978,-0.079 1.364,-0.106c0.386,-0.026 0.746,-0.025 1.08,0.005c0.334,0.029 0.667,0.079 1,0.149c0.333,0.07 0.681,0.117 1.043,0.141c0.363,0.024 0.772,0.024 1.227,0.002c0.455,-0.022 0.921,-0.063 1.397,-0.121c0.476,-0.059 0.901,-0.091 1.276,-0.098c0.375,-0.006 0.724,0.017 1.046,0.07c0.322,0.053 0.643,0.105 0.964,0.155c0.32,0.05 0.64,0.079 0.959,0.084c0.319,0.006 0.617,0.008 0.894,0.006c0.277,-0.002 0.498,-0.009 0.663,-0.021c0.165,-0.012 0.272,-0.018 0.321,-0.019c0.068,-0.001 0.036,0.053 -0.096,0.161" style="fill:none;fill-rule:nonzero;stroke:#000;stroke-width:0.85px;"/><path d="M21.187,4.378c-0.086,0 -0.175,-0.01 -0.266,-0.031c-0.091,-0.021 -0.143,-0.051 -0.154,-0.093c-0.011,-0.041 -0.012,-0.065 0,-0.072c0.011,-0.007 0.045,0.056 0.102,0.187c0.057,0.131 0.105,0.36 0.142,0.686c0.038,0.326 0.073,0.725 0.106,1.197c0.033,0.472 0.091,0.971 0.174,1.498c0.083,0.526 0.179,1.056 0.289,1.588c0.109,0.532 0.193,1.052 0.251,1.559c0.058,0.507 0.101,0.948 0.128,1.321c0.027,0.373 0.054,0.681 0.081,0.922c0.027,0.242 0.044,0.494 0.053,0.756c0.008,0.262 0.012,0.551 0.012,0.866l0,1.83c0,0.301 -0.003,0.632 -0.01,0.994c-0.007,0.361 -0.031,0.736 -0.074,1.123c-0.043,0.387 -0.082,0.744 -0.116,1.07c-0.035,0.326 -0.054,0.622 -0.057,0.889c-0.003,0.267 -0.005,0.518 -0.005,0.754l0,2.356c0,0.307 -0.006,0.636 -0.017,0.987c-0.011,0.351 -0.035,0.691 -0.071,1.018c-0.036,0.328 -0.07,0.641 -0.102,0.94c-0.032,0.299 -0.058,0.607 -0.078,0.922c-0.02,0.316 -0.035,0.62 -0.045,0.913c-0.01,0.293 -0.015,0.558 -0.016,0.796l0,2.428c0,0.363 0.006,0.721 0.017,1.075c0.012,0.354 0.019,0.664 0.022,0.93c0.003,0.266 0.004,0.506 0.004,0.721l0,1.267c0,0.169 0.003,0.272 0.01,0.308c0.006,0.036 0.008,0.029 0.005,-0.022c-0.005,-0.075 0.007,-0.159 0.037,-0.251" style="fill:none;fill-rule:nonzero;stroke:#000;stroke-width:0.85px;"/><path d="M37.943,34.193c-0.012,-0.048 -0.032,-0.013 -0.06,0.105c-0.028,0.118 -0.099,0.413 -0.212,0.885c-0.113,0.472 -0.255,1.057 -0.425,1.753c-0.17,0.697 -0.324,1.289 -0.461,1.776c-0.137,0.487 -0.219,0.658 -0.245,0.512" style="fill:none;fill-rule:nonzero;stroke:#000;stroke-width:0.85px;"/><path d="M53.058,20.018l3.95,0c0.478,0 0.92,-0.001 1.325,-0.003c0.406,-0.002 0.832,-0.016 1.278,-0.042c0.446,-0.026 0.932,-0.06 1.458,-0.104c0.526,-0.044 1.031,-0.08 1.515,-0.11c0.485,-0.03 0.893,-0.049 1.224,-0.057c0.332,-0.008 0.612,-0.012 0.84,-0.012c0.228,0 0.474,-0.001 0.736,-0.003c0.262,-0.002 0.558,-0.02 0.886,-0.052c0.329,-0.033 0.661,-0.07 0.997,-0.111c0.336,-0.041 0.661,-0.071 0.975,-0.089c0.314,-0.018 0.636,-0.027 0.965,-0.028c0.329,0 0.679,0.003 1.05,0.01c0.37,0.007 0.761,0.014 1.173,0.022c0.412,0.008 0.829,0.012 1.252,0.012l1.207,0c0.381,0 0.735,0.006 1.063,0.017c0.327,0.011 0.659,0.022 0.996,0.033c0.336,0.011 0.682,0.016 1.037,0.016l3.386,0c0.256,0 0.522,-0.013 0.797,-0.038c0.275,-0.025 0.519,-0.056 0.731,-0.094c0.212,-0.037 0.388,-0.057 0.529,-0.061c0.14,-0.003 0.283,-0.002 0.428,0.005c0.145,0.007 0.315,0.018 0.51,0.032c0.195,0.015 0.395,0.022 0.6,0.023l0.51,0c0.183,0 0.153,-0.044 -0.092,-0.133" style="fill:none;fill-rule:nonzero;stroke:#000;stroke-width:0.85px;"/><path d="M68.589,4.181c0.032,-0.085 0.086,-0.16 0.162,-0.226c0.076,-0.066 0.143,-0.1 0.2,-0.101c0.057,-0.001 0.091,0.025 0.102,0.078c0.011,0.053 0.01,0.148 -0.003,0.287c-0.014,0.139 -0.032,0.285 -0.054,0.438c-0.023,0.153 -0.034,0.318 -0.034,0.494c0,0.176 0.026,0.385 0.079,0.628c0.053,0.243 0.114,0.522 0.183,0.838c0.069,0.316 0.115,0.663 0.139,1.043c0.024,0.38 0.04,0.744 0.05,1.091c0.009,0.348 0.034,0.655 0.075,0.923c0.04,0.267 0.082,0.512 0.123,0.735c0.042,0.223 0.077,0.434 0.107,0.634c0.029,0.2 0.063,0.399 0.102,0.599c0.038,0.199 0.077,0.397 0.116,0.594c0.039,0.197 0.072,0.387 0.1,0.57c0.027,0.183 0.052,0.361 0.074,0.534c0.022,0.173 0.04,0.353 0.055,0.542c0.015,0.189 0.023,0.384 0.023,0.585l0,4.211c0,0.263 -0.01,0.519 -0.031,0.767c-0.021,0.248 -0.041,0.485 -0.061,0.709c-0.02,0.224 -0.037,0.432 -0.052,0.623c-0.015,0.191 -0.029,0.368 -0.044,0.532c-0.015,0.164 -0.029,0.329 -0.044,0.496c-0.015,0.167 -0.029,0.352 -0.044,0.555c-0.015,0.203 -0.035,0.425 -0.061,0.666c-0.026,0.242 -0.056,0.503 -0.09,0.783c-0.034,0.281 -0.061,0.575 -0.081,0.883c-0.02,0.308 -0.031,0.592 -0.034,0.852c-0.003,0.26 -0.005,0.487 -0.005,0.681c0,0.194 0.002,0.384 0.007,0.571c0.005,0.187 0.008,0.398 0.011,0.634c0.003,0.236 0.004,0.489 0.004,0.758c0,0.269 -0.001,0.543 -0.003,0.823c-0.002,0.28 -0.013,0.537 -0.032,0.773c-0.019,0.235 -0.032,0.45 -0.04,0.643c-0.008,0.193 -0.012,0.384 -0.012,0.574l0,0.6c0,0.21 -0.007,0.44 -0.021,0.689c-0.014,0.249 -0.029,0.49 -0.047,0.722c-0.017,0.233 -0.029,0.444 -0.034,0.635c-0.005,0.191 -0.008,0.377 -0.008,0.56c0,0.182 -0.003,0.36 -0.01,0.533c-0.007,0.173 -0.021,0.338 -0.042,0.494c-0.022,0.156 -0.039,0.293 -0.051,0.409c-0.013,0.116 -0.02,0.201 -0.023,0.254c-0.003,0.053 -0.004,0.082 -0.004,0.086c0,0.004 -0.002,-0.011 -0.007,-0.043c-0.006,-0.046 -0.031,-0.245 -0.074,-0.597" style="fill:none;fill-rule:nonzero;stroke:#000;stroke-width:0.85px;"/><path d="M93.657,20.959c0.045,-0.079 0.226,-0.158 0.543,-0.236c0.317,-0.078 0.808,-0.142 1.472,-0.192c0.665,-0.05 1.386,-0.117 2.163,-0.202c0.778,-0.084 1.387,-0.146 1.827,-0.186l0.33,-0.029l-0.991,0.088" style="fill:none;fill-rule:nonzero;stroke:#000;stroke-width:0.85px;"/><path d="M96.785,18.115c0.057,-0.052 0.142,0.048 0.254,0.3c0.112,0.252 0.178,0.702 0.198,1.349c0.019,0.648 0.036,1.273 0.049,1.876c0.013,0.603 0.077,0.877 0.192,0.822" style="fill:none;fill-rule:nonzero;stroke:#000;stroke-width:0.85px;"/><path d="M108.487,19.756c0.128,0 0.273,0.011 0.434,0.033c0.162,0.022 0.322,0.216 0.479,0.582c0.157,0.366 0.311,0.939 0.46,1.717c0.149,0.778 0.269,1.526 0.359,2.243c0.09,0.717 0.143,1.207 0.161,1.471c0.017,0.263 0.014,0.375 -0.009,0.334c-0.034,-0.059 -0.139,-0.244 -0.315,-0.555" style="fill:none;fill-rule:nonzero;stroke:#000;stroke-width:0.85px;"/><path d="M108.554,18.735c-0.058,-0.088 -0.098,-0.365 -0.122,-0.831c-0.014,-0.277 0.04,-0.486 0.161,-0.627c0.122,-0.141 0.304,-0.27 0.547,-0.385c0.244,-0.115 0.568,-0.207 0.972,-0.274c0.404,-0.068 0.856,-0.095 1.355,-0.082c0.5,0.014 0.932,0.127 1.294,0.342c0.363,0.214 0.583,0.551 0.659,1.009c0.076,0.458 -0.003,0.948 -0.238,1.47c-0.235,0.521 -0.576,0.958 -1.022,1.309c-0.446,0.351 -0.879,0.569 -1.299,0.654c-0.42,0.085 -0.698,0.123 -0.834,0.115c-0.192,-0.011 -0.328,-0.497 -0.407,-1.456" style="fill:none;fill-rule:nonzero;stroke:#000;stroke-width:0.85px;"/><path d="M114.853,19.909c-0.012,0.007 0.014,0.011 0.078,0.012c0.065,0.001 0.226,0.003 0.483,0.007c0.258,0.004 0.566,-0.061 0.925,-0.192c0.359,-0.132 0.653,-0.35 0.882,-0.653c0.229,-0.303 0.317,-0.624 0.265,-0.964c-0.052,-0.339 -0.216,-0.594 -0.49,-0.765c-0.275,-0.171 -0.564,-0.206 -0.867,-0.106c-0.303,0.1 -0.568,0.405 -0.795,0.917c-0.227,0.511 -0.315,1.06 -0.264,1.646c0.052,0.586 0.26,1.022 0.626,1.308c0.366,0.286 0.743,0.404 1.133,0.355c0.389,-0.049 0.76,-0.28 1.112,-0.693c0.352,-0.413 0.669,-0.845 0.952,-1.297c0.282,-0.452 0.509,-0.761 0.682,-0.928c0.172,-0.167 0.298,-0.181 0.377,-0.042c0.08,0.139 0.166,0.396 0.258,0.772c0.092,0.376 0.169,0.744 0.231,1.105c0.062,0.361 0.109,0.622 0.139,0.783c0.031,0.161 0.046,0.205 0.047,0.13c0,-0.075 0.001,-0.352 0.001,-0.834c0,-0.482 0.007,-1.013 0.023,-1.593c0.015,-0.581 0.115,-1.022 0.299,-1.324c0.26,-0.428 0.731,-0.434 1.414,-0.02" style="fill:none;fill-rule:nonzero;stroke:#000;stroke-width:0.85px;"/><path d="M124.062,18.618c-0.032,0.042 -0.068,0.236 -0.107,0.582c-0.039,0.346 -0.061,0.72 -0.064,1.122c-0.003,0.402 0.01,0.705 0.037,0.909c0.027,0.204 0.077,0.277 0.149,0.219c0.071,-0.058 0.16,-0.293 0.265,-0.706c0.106,-0.413 0.234,-0.859 0.386,-1.338c0.151,-0.479 0.334,-0.855 0.547,-1.129c0.214,-0.274 0.437,-0.415 0.668,-0.424c0.232,-0.008 0.428,0.168 0.59,0.529c0.162,0.361 0.273,0.755 0.334,1.181c0.062,0.426 0.105,0.734 0.13,0.925c0.024,0.19 0.083,0.242 0.177,0.156c0.093,-0.086 0.241,-0.336 0.444,-0.749c0.203,-0.413 0.411,-0.799 0.624,-1.156c0.213,-0.357 0.386,-0.558 0.521,-0.603c0.135,-0.045 0.248,0.127 0.34,0.515c0.092,0.388 0.221,0.82 0.385,1.297c0.165,0.477 0.358,0.836 0.58,1.076l0.166,0.18l-0.499,-0.541" style="fill:none;fill-rule:nonzero;stroke:#000;stroke-width:0.85px;"/><path d="M132.09,17.962c-0.041,0.049 -0.027,0.267 0.041,0.655c0.069,0.388 0.208,0.787 0.42,1.197c0.211,0.41 0.417,0.706 0.617,0.886c0.2,0.18 0.394,0.188 0.582,0.023c0.188,-0.165 0.35,-0.517 0.486,-1.056c0.136,-0.539 0.235,-1.022 0.299,-1.448c0.063,-0.426 0.099,-0.634 0.108,-0.623c0.008,0.011 0.038,0.29 0.088,0.837c0.051,0.547 0.166,1.111 0.345,1.692c0.18,0.581 0.425,1.001 0.737,1.257c0.312,0.257 0.525,0.392 0.639,0.407c0.161,0.02 0.325,-0.316 0.492,-1.008" style="fill:none;fill-rule:nonzero;stroke:#000;stroke-width:0.85px;"/><path d="M138.105,12.297c-0.031,0.114 -0.033,0.538 -0.006,1.273c0.027,0.735 0.121,1.747 0.284,3.038c0.162,1.291 0.305,2.335 0.43,3.133c0.124,0.797 0.201,1.264 0.23,1.399c0.04,0.184 0.047,0.139 0.021,-0.136" style="fill:none;fill-rule:nonzero;stroke:#000;stroke-width:0.85px;"/><path d="M138.389,18.203c0.037,-0.163 0.209,-0.315 0.515,-0.456c0.445,-0.205 1.148,-0.218 2.11,-0.039" style="fill:none;fill-rule:nonzero;stroke:#000;stroke-width:0.85px;"/><path d="M143.618,18.29c-0.014,-0.107 -0.048,-0.226 -0.102,-0.358c-0.053,-0.132 -0.144,-0.238 -0.272,-0.318c-0.128,-0.08 -0.302,-0.116 -0.523,-0.108c-0.22,0.008 -0.462,0.163 -0.727,0.466c-0.266,0.302 -0.45,0.705 -0.552,1.208c-0.103,0.503 -0.039,0.913 0.191,1.23c0.23,0.317 0.579,0.463 1.045,0.436c0.466,-0.027 0.885,-0.218 1.258,-0.574c0.372,-0.356 0.638,-0.729 0.797,-1.12c0.158,-0.391 0.245,-0.611 0.261,-0.659c0.016,-0.049 0.024,-0.037 0.025,0.034c0.001,0.071 0.003,0.249 0.006,0.534c0.004,0.285 0.074,0.655 0.21,1.11c0.136,0.455 0.337,0.829 0.601,1.121c0.265,0.292 0.421,0.375 0.469,0.249" style="fill:none;fill-rule:nonzero;stroke:#000;stroke-width:0.85px;"/><path d="M148.474,11.793c-0.014,-0.007 0.077,0.448 0.273,1.363c0.195,0.916 0.344,2.13 0.445,3.645c0.102,1.514 0.11,2.72 0.024,3.616c-0.086,0.897 -0.171,1.418 -0.255,1.564l-0.064,0.11l0.19,-0.329" style="fill:none;fill-rule:nonzero;stroke:#000;stroke-width:0.85px;"/><path d="M147.074,17.853c0.036,-0.076 0.214,-0.133 0.534,-0.17c0.321,-0.037 0.739,0.034 1.254,0.213c0.516,0.179 0.958,0.48 1.328,0.903c0.37,0.423 0.631,0.855 0.785,1.296c0.154,0.441 0.239,0.747 0.254,0.918c0.02,0.233 -0.013,0.176 -0.099,-0.17" style="fill:none;fill-rule:nonzero;stroke:#000;stroke-width:0.85px;"/><path d="M151.82,15.468c0.03,-0.108 0.124,-0.105 0.282,0.009c0.227,0.163 0.47,0.799 0.729,1.908" style="fill:none;fill-rule:nonzero;stroke:#000;stroke-width:0.85px;"/><path d="M156.851,19.384c-0.124,-0.096 -0.258,-0.195 -0.403,-0.295c-0.145,-0.1 -0.282,-0.164 -0.41,-0.19c-0.128,-0.026 -0.28,0.007 -0.458,0.1c-0.178,0.093 -0.352,0.285 -0.522,0.575c-0.17,0.29 -0.277,0.611 -0.321,0.964c-0.043,0.352 0.009,0.625 0.158,0.819c0.149,0.193 0.369,0.271 0.658,0.234c0.29,-0.038 0.555,-0.235 0.797,-0.592c0.241,-0.357 0.425,-0.779 0.551,-1.265c0.126,-0.486 0.207,-0.853 0.243,-1.101c0.037,-0.247 0.094,-0.353 0.173,-0.317c0.08,0.036 0.209,0.223 0.388,0.561c0.179,0.338 0.377,0.675 0.592,1.009c0.216,0.335 0.419,0.571 0.61,0.711c0.192,0.139 0.37,0.157 0.536,0.053c0.165,-0.104 0.337,-0.298 0.514,-0.584c0.177,-0.285 0.341,-0.499 0.493,-0.642c0.152,-0.143 0.285,-0.186 0.399,-0.129c0.113,0.057 0.217,0.243 0.312,0.559c0.094,0.316 0.199,0.615 0.315,0.897l0.087,0.211l-0.26,-0.634" style="fill:none;fill-rule:nonzero;stroke:#000;stroke-width:0.85px;"/><path d="M166.417,17.04c0.011,-0.119 -0.089,-0.237 -0.3,-0.356c-0.142,-0.08 -0.367,-0.064 -0.676,0.047c-0.308,0.111 -0.622,0.297 -0.939,0.557c-0.318,0.26 -0.519,0.504 -0.603,0.732c-0.084,0.228 -0.015,0.43 0.207,0.607c0.222,0.176 0.569,0.346 1.043,0.509c0.473,0.163 0.958,0.326 1.454,0.489c0.496,0.163 0.97,0.347 1.423,0.554c0.453,0.207 0.788,0.426 1.006,0.657c0.217,0.231 0.297,0.449 0.239,0.654c-0.059,0.205 -0.219,0.383 -0.482,0.534c-0.262,0.15 -0.527,0.27 -0.795,0.36c-0.268,0.09 -0.553,0.16 -0.855,0.21c-0.436,0.073 -1.129,-0.073 -2.078,-0.436" style="fill:none;fill-rule:nonzero;stroke:#000;stroke-width:0.85px;"/><path d="M22.412,19.296c-0.014,0.024 -0.05,-0.058 -0.109,-0.246c-0.059,-0.188 -0.088,-0.374 -0.088,-0.558l0,-5.981c0,-0.201 -0.01,-0.4 -0.031,-0.597c-0.021,-0.197 -0.051,-0.385 -0.093,-0.563c-0.041,-0.178 -0.075,-0.358 -0.103,-0.54c-0.027,-0.182 -0.044,-0.37 -0.049,-0.564c-0.006,-0.194 -0.008,-0.381 -0.008,-0.559c0,-0.178 -0.003,-0.352 -0.01,-0.523c-0.007,-0.17 -0.02,-0.343 -0.039,-0.518c-0.019,-0.175 -0.034,-0.345 -0.044,-0.511c-0.01,-0.166 -0.015,-0.336 -0.015,-0.51l0,-0.577c0,-0.21 -0.015,-0.44 -0.045,-0.692c-0.03,-0.251 -0.076,-0.496 -0.139,-0.733c-0.063,-0.237 -0.122,-0.439 -0.179,-0.605c-0.057,-0.165 -0.094,-0.301 -0.112,-0.408c-0.018,-0.106 -0.026,-0.208 -0.022,-0.305c0.004,-0.097 0.03,-0.206 0.077,-0.326c0.047,-0.121 0.094,-0.226 0.141,-0.315c0.047,-0.09 0.079,-0.146 0.097,-0.17c0.018,-0.023 0.018,-0.019 0,0.013c-0.025,0.047 -0.031,0.096 -0.016,0.146" style="fill:none;fill-rule:nonzero;stroke:#c2361a;stroke-width:1.7px;"/><path d="M53.014,19.993c-0.106,0.006 -0.248,0.004 -0.427,-0.007c-0.115,-0.007 -0.178,-0.018 -0.19,-0.032c-0.011,-0.015 0.01,-0.02 0.065,-0.016c0.055,0.004 0.158,0.039 0.31,0.104c0.152,0.065 0.387,0.13 0.706,0.195c0.319,0.065 0.733,0.103 1.241,0.114c0.508,0.011 1.102,0.014 1.781,0.007c0.68,-0.007 1.421,-0.052 2.225,-0.136c0.804,-0.084 1.584,-0.166 2.342,-0.246c0.758,-0.08 1.457,-0.125 2.097,-0.137c0.64,-0.012 1.266,-0.02 1.876,-0.024c0.61,-0.004 1.235,-0.037 1.875,-0.098c0.64,-0.061 1.272,-0.113 1.897,-0.157c0.624,-0.043 1.172,-0.057 1.643,-0.039c0.471,0.017 0.886,0.056 1.246,0.116c0.359,0.06 0.753,0.099 1.181,0.115c0.428,0.016 0.909,0.017 1.443,0.001c0.534,-0.016 1.072,-0.056 1.612,-0.12c0.54,-0.064 1.061,-0.119 1.56,-0.164c0.5,-0.045 0.987,-0.074 1.461,-0.087c0.475,-0.014 0.959,-0.026 1.454,-0.038c0.495,-0.011 0.967,-0.028 1.418,-0.05c0.451,-0.022 0.84,-0.035 1.168,-0.038c0.328,-0.003 0.611,-0.005 0.849,-0.005l0.664,0c0.205,0 0.406,-0.005 0.603,-0.014c0.198,-0.009 0.342,-0.02 0.433,-0.032c0.091,-0.013 0.077,-0.021 -0.041,-0.024c-0.174,-0.004 -0.339,-0.073 -0.494,-0.207" style="fill:none;fill-rule:nonzero;stroke:#c2361a;stroke-width:1.7px;"/><path d="M69.595,20.259c0,-0.051 0,-0.042 0,0.028l0,0.521c0,0.278 -0.002,0.598 -0.007,0.959c-0.004,0.361 -0.028,0.748 -0.07,1.16c-0.042,0.412 -0.082,0.817 -0.12,1.214c-0.037,0.397 -0.058,0.778 -0.061,1.141c-0.003,0.363 -0.005,0.71 -0.005,1.039c0,0.329 -0.001,0.66 -0.003,0.993c-0.002,0.332 -0.023,0.648 -0.063,0.947c-0.04,0.299 -0.068,0.561 -0.084,0.787c-0.016,0.226 -0.017,0.439 -0.001,0.638c0.016,0.199 0.046,0.41 0.089,0.633c0.044,0.223 0.069,0.463 0.075,0.721c0.006,0.258 0.001,0.548 -0.015,0.869c-0.016,0.321 -0.047,0.651 -0.093,0.989c-0.046,0.338 -0.078,0.643 -0.096,0.916c-0.018,0.273 -0.027,0.513 -0.028,0.722c0,0.208 -0.001,0.43 -0.001,0.667l0,1.375c0,0.178 0.006,0.3 0.017,0.365c0.011,0.065 0.019,0.068 0.024,0.011c0.007,-0.083 0.028,-0.343 0.064,-0.781" style="fill:none;fill-rule:nonzero;stroke:#c2361a;stroke-width:1.7px;"/></svg>