<?xml version="1.0" encoding="UTF-8" standalone="no"?><!DOCTYPE svg PUBLIC "-//W3C//DTD SVG 1.1//EN" "http://www.w3.org/Graphics/SVG/1.1/DTD/svg11.dtd"><svg width="100%" height="100%" viewBox="0 0 210 66" version="1.1" xmlns="http://www.w3.org/2000/svg" xmlns:xlink="http://www.w3.org/1999/xlink" xml:space="preserve" xmlns:serif="http://www.serif.com/" style="fill-rule:evenodd;clip-rule:evenodd;stroke-linecap:round;stroke-linejoin:round;stroke-miterlimit:10;"><rect id="Artboard1" x="0" y="0" width="209.28" height="66" style="fill:#fff;"/><path d="M78.379,16.904c0.081,-0.014 0.161,-0.034 0.241,-0.06c0.08,-0.027 0.125,-0.041 0.136,-0.044c0.011,-0.003 0.016,-0.004 0.015,-0.005c-0.001,0 -0.003,0 -0.006,-0c-0.003,0 -0.064,-0.003 -0.181,-0.008c-0.117,-0.005 -0.231,-0.033 -0.341,-0.085c-0.11,-0.052 -0.193,-0.098 -0.248,-0.14c-0.055,-0.042 -0.117,-0.074 -0.185,-0.096c-0.068,-0.023 -0.143,-0.036 -0.224,-0.039c-0.082,-0.003 -0.177,0.02 -0.285,0.07c-0.108,0.05 -0.218,0.174 -0.328,0.373c-0.11,0.199 -0.193,0.434 -0.249,0.705c-0.056,0.271 -0.073,0.513 -0.052,0.726c0.021,0.213 0.122,0.35 0.303,0.412c0.181,0.061 0.395,0.053 0.643,-0.026c0.247,-0.079 0.462,-0.234 0.643,-0.466c0.181,-0.232 0.303,-0.482 0.366,-0.751c0.063,-0.269 0.086,-0.529 0.069,-0.782c-0.017,-0.252 -0.092,-0.457 -0.226,-0.614c-0.134,-0.157 -0.292,-0.25 -0.473,-0.279c-0.181,-0.029 -0.365,0.017 -0.549,0.136c-0.185,0.12 -0.353,0.313 -0.503,0.582c-0.151,0.268 -0.251,0.541 -0.301,0.817c-0.05,0.276 -0.037,0.488 0.04,0.635c0.077,0.147 0.232,0.221 0.466,0.221c0.234,0 0.449,-0.084 0.645,-0.253c0.195,-0.169 0.329,-0.389 0.401,-0.662c0.072,-0.273 0.038,-0.469 -0.103,-0.59c-0.141,-0.121 -0.327,-0.112 -0.558,0.026c-0.231,0.138 -0.399,0.348 -0.505,0.628c-0.106,0.281 -0.129,0.506 -0.07,0.675c0.059,0.169 0.194,0.255 0.405,0.258c0.211,0.003 0.382,-0.077 0.513,-0.242c0.131,-0.164 0.207,-0.338 0.23,-0.523c0.023,-0.184 -0.001,-0.301 -0.072,-0.35c-0.071,-0.049 -0.155,-0.037 -0.251,0.036c-0.096,0.073 -0.149,0.168 -0.157,0.286c-0.008,0.117 0.036,0.194 0.132,0.228c0.096,0.035 0.192,0.022 0.289,-0.04c0.096,-0.061 0.151,-0.189 0.164,-0.382c0.013,-0.193 0.047,-0.252 0.105,-0.177" style="fill:none;fill-rule:nonzero;stroke:#c2361a;stroke-width:0.85px;"/><path d="M110.009,16.773c0.069,-0.037 0.138,-0.096 0.206,-0.177c0.068,-0.081 0.109,-0.153 0.123,-0.217c0.014,-0.064 0.016,-0.114 0.008,-0.152c-0.009,-0.038 -0.062,-0.056 -0.161,-0.055c-0.098,0.001 -0.229,0.068 -0.393,0.202c-0.164,0.134 -0.318,0.35 -0.464,0.65c-0.146,0.3 -0.213,0.583 -0.201,0.849c0.012,0.266 0.174,0.429 0.486,0.489c0.313,0.06 0.642,-0.008 0.988,-0.202c0.346,-0.194 0.58,-0.447 0.701,-0.757c0.121,-0.311 0.121,-0.556 -0.001,-0.735c-0.121,-0.179 -0.339,-0.269 -0.654,-0.268c-0.315,0.001 -0.595,0.088 -0.84,0.259c-0.245,0.172 -0.416,0.374 -0.511,0.606c-0.095,0.232 -0.13,0.433 -0.103,0.603c0.027,0.169 0.152,0.264 0.376,0.284c0.224,0.02 0.448,-0.044 0.673,-0.194c0.224,-0.149 0.371,-0.33 0.44,-0.541c0.069,-0.211 0.068,-0.369 -0.004,-0.471c-0.071,-0.103 -0.214,-0.102 -0.429,0.003c-0.214,0.105 -0.363,0.29 -0.448,0.556c-0.084,0.266 -0.044,0.459 0.12,0.581c0.164,0.122 0.39,0.114 0.677,-0.024c0.287,-0.138 0.485,-0.345 0.592,-0.621c0.107,-0.277 0.089,-0.459 -0.056,-0.549c-0.145,-0.089 -0.344,-0.029 -0.599,0.181c-0.255,0.21 -0.405,0.367 -0.45,0.471c-0.064,0.148 0.132,0.366 0.588,0.655" style="fill:none;fill-rule:nonzero;stroke:#c2361a;stroke-width:0.85px;"/><path d="M142.514,16.795c-0.021,-0.023 -0.112,-0.058 -0.271,-0.105c-0.159,-0.047 -0.318,-0.028 -0.475,0.057c-0.157,0.085 -0.29,0.243 -0.398,0.474c-0.108,0.232 -0.139,0.456 -0.093,0.673c0.046,0.217 0.227,0.343 0.541,0.377c0.314,0.034 0.622,-0.053 0.924,-0.263c0.301,-0.21 0.485,-0.487 0.549,-0.832c0.065,-0.345 0.002,-0.629 -0.19,-0.851c-0.191,-0.222 -0.446,-0.31 -0.764,-0.265c-0.318,0.045 -0.576,0.226 -0.774,0.542c-0.198,0.316 -0.318,0.626 -0.359,0.931c-0.041,0.305 0.003,0.517 0.134,0.637c0.131,0.12 0.305,0.139 0.521,0.06c0.216,-0.08 0.376,-0.308 0.48,-0.684c0.103,-0.376 0.054,-0.647 -0.147,-0.812c-0.201,-0.165 -0.401,-0.123 -0.599,0.127c-0.198,0.25 -0.3,0.577 -0.306,0.979c-0.006,0.403 0.115,0.704 0.362,0.904c0.247,0.2 0.489,0.226 0.727,0.077c0.238,-0.149 0.374,-0.414 0.408,-0.794c0.034,-0.38 -0.029,-0.693 -0.189,-0.936c-0.16,-0.244 -0.368,-0.362 -0.623,-0.354c-0.255,0.008 -0.433,0.102 -0.536,0.28c-0.143,0.249 0.105,0.367 0.743,0.353" style="fill:none;fill-rule:nonzero;stroke:#c2361a;stroke-width:0.85px;"/><path d="M173.663,16.861c0,-0.067 -0.004,-0.145 -0.013,-0.232c-0.009,-0.087 -0.052,-0.132 -0.129,-0.135c-0.077,-0.003 -0.181,0.03 -0.311,0.101c-0.13,0.071 -0.237,0.197 -0.32,0.38c-0.083,0.182 -0.087,0.333 -0.01,0.451c0.077,0.119 0.271,0.165 0.581,0.14c0.31,-0.025 0.578,-0.164 0.803,-0.416c0.225,-0.252 0.349,-0.526 0.371,-0.822c0.022,-0.296 -0.069,-0.505 -0.272,-0.627c-0.203,-0.122 -0.428,-0.111 -0.676,0.034c-0.248,0.145 -0.417,0.378 -0.509,0.7c-0.092,0.322 -0.093,0.627 -0.003,0.916c0.09,0.289 0.274,0.475 0.554,0.558c0.279,0.083 0.547,0.045 0.804,-0.115c0.256,-0.16 0.423,-0.404 0.501,-0.732c0.078,-0.328 0.038,-0.597 -0.12,-0.806c-0.157,-0.209 -0.414,-0.274 -0.77,-0.194c-0.356,0.08 -0.633,0.297 -0.83,0.651c-0.197,0.354 -0.227,0.643 -0.09,0.868c0.137,0.225 0.405,0.293 0.804,0.203c0.399,-0.09 0.704,-0.304 0.913,-0.644c0.21,-0.34 0.273,-0.617 0.191,-0.833c-0.116,-0.304 -0.721,-0.133 -1.814,0.512" style="fill:none;fill-rule:nonzero;stroke:#c2361a;stroke-width:0.85px;"/><path d="M78.466,48.622c0,-0.11 -0.002,-0.232 -0.007,-0.365c-0.004,-0.133 -0.04,-0.241 -0.108,-0.325c-0.067,-0.084 -0.164,-0.145 -0.289,-0.183c-0.125,-0.038 -0.256,-0.059 -0.392,-0.062c-0.136,-0.003 -0.279,0.022 -0.429,0.076c-0.15,0.054 -0.294,0.189 -0.431,0.405c-0.137,0.216 -0.23,0.456 -0.278,0.721c-0.048,0.265 0.01,0.478 0.172,0.639c0.163,0.161 0.408,0.218 0.736,0.171c0.328,-0.047 0.603,-0.225 0.826,-0.536c0.223,-0.31 0.335,-0.645 0.337,-1.004c0.002,-0.359 -0.165,-0.602 -0.5,-0.729c-0.335,-0.127 -0.722,-0.077 -1.161,0.152c-0.439,0.228 -0.764,0.573 -0.973,1.033c-0.21,0.46 -0.221,0.869 -0.034,1.227c0.187,0.357 0.512,0.561 0.975,0.612c0.463,0.051 0.842,-0.033 1.139,-0.25c0.296,-0.217 0.445,-0.522 0.446,-0.915c0.001,-0.392 -0.138,-0.687 -0.417,-0.884c-0.279,-0.197 -0.543,-0.227 -0.793,-0.089c-0.25,0.137 -0.387,0.345 -0.411,0.624c-0.024,0.279 0.085,0.475 0.326,0.59c0.242,0.115 0.491,0.124 0.747,0.028c0.256,-0.096 0.417,-0.274 0.483,-0.533c0.065,-0.259 0.057,-0.475 -0.025,-0.646c-0.082,-0.171 -0.193,-0.249 -0.332,-0.233l-0.104,0.012l0.313,-0.036" style="fill:none;fill-rule:nonzero;stroke:#c2361a;stroke-width:0.85px;"/><path d="M110.096,49.125c0.087,-0.002 0.171,-0.021 0.252,-0.057c0.082,-0.036 0.126,-0.09 0.132,-0.162c0.006,-0.072 -0.036,-0.142 -0.128,-0.211c-0.092,-0.069 -0.242,-0.107 -0.45,-0.114c-0.209,-0.007 -0.417,0.051 -0.625,0.176c-0.208,0.125 -0.358,0.31 -0.451,0.555c-0.093,0.245 -0.089,0.458 0.011,0.638c0.1,0.18 0.32,0.265 0.659,0.256c0.339,-0.01 0.66,-0.136 0.963,-0.378c0.303,-0.242 0.506,-0.529 0.608,-0.862c0.102,-0.332 0.091,-0.588 -0.036,-0.766c-0.126,-0.178 -0.355,-0.214 -0.686,-0.106c-0.331,0.107 -0.609,0.338 -0.832,0.692c-0.223,0.354 -0.334,0.705 -0.333,1.053c0.001,0.348 0.148,0.591 0.442,0.729c0.293,0.138 0.605,0.145 0.933,0.022c0.329,-0.123 0.555,-0.336 0.677,-0.639c0.123,-0.302 0.12,-0.568 -0.008,-0.798c-0.128,-0.23 -0.368,-0.346 -0.721,-0.35c-0.353,-0.004 -0.631,0.099 -0.835,0.306c-0.203,0.208 -0.281,0.392 -0.232,0.552c0.049,0.161 0.241,0.231 0.577,0.211c0.485,-0.028 1.136,-0.449 1.954,-1.262" style="fill:none;fill-rule:nonzero;stroke:#c2361a;stroke-width:0.85px;"/><path d="M143.115,48.669c-0.054,0.033 -0.176,0.021 -0.364,-0.036c-0.119,-0.037 -0.185,-0.108 -0.197,-0.216c-0.012,-0.107 -0.012,-0.22 -0.001,-0.34c0.012,-0.12 0.013,-0.216 0.005,-0.289c-0.008,-0.073 -0.096,-0.088 -0.263,-0.045c-0.168,0.043 -0.372,0.217 -0.614,0.524c-0.242,0.306 -0.401,0.65 -0.48,1.029c-0.078,0.38 -0.01,0.677 0.204,0.892c0.214,0.215 0.495,0.311 0.842,0.288c0.347,-0.023 0.628,-0.176 0.844,-0.458c0.216,-0.282 0.327,-0.612 0.331,-0.988c0.005,-0.377 -0.108,-0.671 -0.34,-0.884c-0.231,-0.213 -0.515,-0.289 -0.85,-0.23c-0.335,0.06 -0.603,0.268 -0.804,0.627c-0.201,0.358 -0.304,0.721 -0.309,1.089c-0.005,0.368 0.1,0.624 0.313,0.77c0.213,0.146 0.472,0.156 0.778,0.03c0.306,-0.125 0.55,-0.392 0.733,-0.799c0.183,-0.407 0.252,-0.753 0.206,-1.037c-0.046,-0.284 -0.223,-0.401 -0.531,-0.351c-0.309,0.05 -0.569,0.208 -0.781,0.473c-0.212,0.266 -0.311,0.49 -0.298,0.673c0.019,0.258 0.501,0.286 1.447,0.085" style="fill:none;fill-rule:nonzero;stroke:#c2361a;stroke-width:0.85px;"/><path d="M174.713,48.928c0.008,-0.077 0.021,-0.183 0.038,-0.318c0.018,-0.135 0.024,-0.256 0.02,-0.363c-0.004,-0.108 -0.04,-0.193 -0.107,-0.256c-0.067,-0.063 -0.177,-0.089 -0.33,-0.077c-0.153,0.011 -0.342,0.109 -0.568,0.294c-0.226,0.184 -0.446,0.445 -0.66,0.781c-0.214,0.337 -0.346,0.654 -0.397,0.952c-0.05,0.298 0.03,0.504 0.242,0.619c0.212,0.115 0.505,0.105 0.881,-0.028c0.375,-0.133 0.69,-0.377 0.944,-0.73c0.254,-0.353 0.415,-0.729 0.483,-1.126c0.067,-0.397 0.019,-0.694 -0.146,-0.889c-0.165,-0.195 -0.401,-0.223 -0.708,-0.083c-0.308,0.14 -0.558,0.413 -0.751,0.82c-0.193,0.407 -0.298,0.787 -0.314,1.14c-0.016,0.352 0.092,0.596 0.325,0.732c0.233,0.135 0.526,0.158 0.881,0.067c0.355,-0.091 0.627,-0.289 0.818,-0.595c0.19,-0.305 0.285,-0.585 0.285,-0.838c-0.001,-0.253 -0.117,-0.4 -0.35,-0.44c-0.232,-0.04 -0.458,0.055 -0.676,0.287c-0.219,0.231 -0.34,0.483 -0.365,0.755c-0.025,0.272 0.073,0.458 0.292,0.558c0.22,0.1 0.458,0.098 0.716,-0.006c0.258,-0.104 0.438,-0.28 0.542,-0.528c0.103,-0.249 0.138,-0.43 0.104,-0.544c-0.047,-0.159 -0.251,-0.071 -0.612,0.264" style="fill:none;fill-rule:nonzero;stroke:#c2361a;stroke-width:0.85px;"/><path d="M77.985,16.882c-0.002,-0.085 -0.02,-0.176 -0.054,-0.276c-0.034,-0.099 -0.076,-0.171 -0.127,-0.215c-0.051,-0.044 -0.127,-0.072 -0.229,-0.083c-0.102,-0.011 -0.244,0.006 -0.425,0.051c-0.182,0.045 -0.376,0.158 -0.583,0.338c-0.207,0.18 -0.37,0.38 -0.489,0.598c-0.119,0.218 -0.168,0.43 -0.146,0.636c0.021,0.205 0.144,0.361 0.367,0.468c0.224,0.107 0.487,0.158 0.789,0.155c0.303,-0.004 0.585,-0.072 0.848,-0.206c0.263,-0.134 0.463,-0.289 0.599,-0.466c0.136,-0.177 0.221,-0.372 0.253,-0.587c0.032,-0.214 0.031,-0.432 -0.005,-0.652c-0.036,-0.22 -0.142,-0.397 -0.32,-0.532c-0.178,-0.135 -0.394,-0.218 -0.649,-0.248c-0.255,-0.03 -0.503,0.011 -0.743,0.123c-0.24,0.112 -0.433,0.303 -0.578,0.571c-0.146,0.268 -0.209,0.527 -0.189,0.775c0.02,0.248 0.17,0.42 0.45,0.513c0.28,0.094 0.579,0.118 0.894,0.072c0.316,-0.046 0.552,-0.155 0.71,-0.327c0.157,-0.172 0.247,-0.305 0.27,-0.4l0.017,-0.071l-0.052,0.213" style="fill:none;fill-rule:nonzero;stroke:#c2361a;stroke-width:0.85px;"/><path d="M110.359,16.948c0.015,-0.049 -0.03,-0.114 -0.135,-0.196c-0.105,-0.082 -0.231,-0.124 -0.378,-0.127c-0.147,-0.003 -0.308,0.024 -0.482,0.081c-0.174,0.057 -0.33,0.16 -0.466,0.308c-0.136,0.148 -0.22,0.322 -0.251,0.522c-0.031,0.2 0.025,0.391 0.168,0.573c0.143,0.182 0.355,0.317 0.636,0.406c0.281,0.089 0.586,0.125 0.916,0.108c0.329,-0.018 0.637,-0.13 0.922,-0.337c0.285,-0.207 0.489,-0.451 0.609,-0.732c0.121,-0.281 0.156,-0.525 0.107,-0.73c-0.049,-0.205 -0.181,-0.361 -0.396,-0.467c-0.214,-0.106 -0.437,-0.168 -0.668,-0.188c-0.231,-0.02 -0.463,0.017 -0.697,0.111c-0.234,0.094 -0.447,0.266 -0.641,0.517c-0.194,0.251 -0.332,0.514 -0.415,0.789c-0.083,0.276 -0.097,0.492 -0.042,0.648c0.054,0.157 0.21,0.219 0.467,0.188c0.257,-0.031 0.486,-0.152 0.688,-0.361c0.201,-0.21 0.33,-0.407 0.386,-0.592c0.056,-0.185 0.021,-0.307 -0.103,-0.366c-0.125,-0.059 -0.179,-0.054 -0.162,0.016" style="fill:none;fill-rule:nonzero;stroke:#c2361a;stroke-width:0.85px;"/><path d="M143.586,17.034c-0.062,0.003 -0.217,0.002 -0.463,-0.002c-0.146,-0.002 -0.249,-0.025 -0.309,-0.069c-0.06,-0.044 -0.114,-0.091 -0.162,-0.141c-0.048,-0.05 -0.13,-0.078 -0.246,-0.084c-0.116,-0.006 -0.253,0.014 -0.411,0.059c-0.158,0.046 -0.306,0.14 -0.446,0.282c-0.14,0.143 -0.247,0.308 -0.323,0.497c-0.076,0.189 -0.106,0.363 -0.09,0.523c0.015,0.16 0.128,0.272 0.336,0.337c0.209,0.065 0.45,0.096 0.725,0.096c0.275,-0.001 0.526,-0.042 0.754,-0.123c0.228,-0.081 0.41,-0.211 0.545,-0.391c0.135,-0.179 0.199,-0.392 0.191,-0.637c-0.008,-0.245 -0.144,-0.448 -0.407,-0.608c-0.263,-0.16 -0.594,-0.234 -0.991,-0.223c-0.397,0.012 -0.766,0.124 -1.107,0.338c-0.341,0.214 -0.554,0.464 -0.64,0.75c-0.086,0.287 0.045,0.503 0.393,0.649c0.348,0.146 0.799,0.191 1.355,0.134c0.555,-0.057 0.952,-0.132 1.191,-0.226l0.179,-0.07l-0.538,0.211" style="fill:none;fill-rule:nonzero;stroke:#c2361a;stroke-width:0.85px;"/><path d="M174.647,16.904c0.059,-0.056 0.099,-0.142 0.121,-0.26c0.022,-0.117 0.019,-0.208 -0.008,-0.272c-0.027,-0.064 -0.112,-0.114 -0.257,-0.149c-0.144,-0.035 -0.327,-0.053 -0.548,-0.054c-0.221,-0.001 -0.465,0.05 -0.731,0.153c-0.267,0.103 -0.496,0.274 -0.688,0.511c-0.192,0.237 -0.289,0.476 -0.292,0.716c-0.003,0.24 0.139,0.415 0.427,0.525c0.288,0.11 0.624,0.144 1.009,0.102c0.385,-0.042 0.693,-0.187 0.924,-0.433c0.231,-0.246 0.355,-0.501 0.372,-0.763c0.017,-0.263 -0.115,-0.435 -0.397,-0.518c-0.282,-0.083 -0.622,-0.039 -1.022,0.131c-0.4,0.17 -0.683,0.389 -0.849,0.656c-0.166,0.268 -0.25,0.438 -0.25,0.51c-0.001,0.102 0.582,0.066 1.75,-0.106" style="fill:none;fill-rule:nonzero;stroke:#c2361a;stroke-width:0.85px;"/><path d="M143.648,49.143c-0.098,0.014 -0.219,-0.049 -0.361,-0.19c-0.094,-0.093 -0.148,-0.175 -0.161,-0.246c-0.013,-0.071 -0.02,-0.132 -0.02,-0.184c-0,-0.052 0.002,-0.109 0.006,-0.171c0.005,-0.063 -0.001,-0.123 -0.016,-0.182c-0.015,-0.059 -0.108,-0.096 -0.279,-0.113c-0.171,-0.016 -0.406,0.04 -0.707,0.171c-0.3,0.13 -0.577,0.349 -0.83,0.657c-0.253,0.307 -0.395,0.599 -0.425,0.874c-0.031,0.275 0.109,0.47 0.421,0.584c0.312,0.114 0.715,0.14 1.209,0.078c0.494,-0.062 0.905,-0.205 1.232,-0.431c0.327,-0.226 0.525,-0.483 0.595,-0.771c0.07,-0.288 0.009,-0.537 -0.182,-0.746c-0.191,-0.21 -0.474,-0.331 -0.85,-0.363c-0.376,-0.033 -0.717,0.036 -1.023,0.207c-0.306,0.171 -0.52,0.424 -0.641,0.758c-0.122,0.335 -0.122,0.629 -0.002,0.882c0.12,0.254 0.387,0.396 0.8,0.426c0.413,0.03 0.792,-0.056 1.136,-0.259c0.344,-0.203 0.563,-0.469 0.658,-0.797c0.095,-0.328 0.012,-0.516 -0.247,-0.564" style="fill:none;fill-rule:nonzero;stroke:#c2361a;stroke-width:0.85px;"/><path d="M111.103,49.366c0.151,-0.145 0.316,-0.296 0.493,-0.452c0.177,-0.156 0.28,-0.29 0.307,-0.399c0.027,-0.11 -0.063,-0.198 -0.271,-0.264c-0.208,-0.066 -0.541,-0.08 -0.998,-0.041c-0.458,0.039 -0.91,0.202 -1.356,0.488c-0.446,0.287 -0.746,0.642 -0.898,1.066c-0.152,0.424 -0.027,0.749 0.374,0.976c0.402,0.227 0.945,0.282 1.63,0.164c0.685,-0.118 1.203,-0.364 1.555,-0.737c0.352,-0.373 0.469,-0.751 0.353,-1.135c-0.116,-0.384 -0.411,-0.646 -0.883,-0.787c-0.472,-0.141 -0.754,-0.127 -0.847,0.042" style="fill:none;fill-rule:nonzero;stroke:#c2361a;stroke-width:0.85px;"/><path d="M77.555,48.298c0.062,0.024 0.129,-0.009 0.202,-0.1c0.05,-0.062 0.015,-0.125 -0.104,-0.189c-0.119,-0.064 -0.295,-0.096 -0.53,-0.096c-0.234,-0.001 -0.437,0.094 -0.609,0.284c-0.172,0.19 -0.257,0.463 -0.255,0.817c0.002,0.354 0.162,0.632 0.481,0.834c0.319,0.202 0.67,0.206 1.055,0.013c0.385,-0.193 0.631,-0.504 0.74,-0.934c0.108,-0.43 0.147,-0.744 0.117,-0.943c-0.041,-0.269 -0.112,-0.251 -0.214,0.052" style="fill:none;fill-rule:nonzero;stroke:#c2361a;stroke-width:0.85px;"/><path d="M174.778,48.796c0.084,-0.001 0.162,-0.071 0.234,-0.208c0.048,-0.092 0.019,-0.178 -0.089,-0.256c-0.107,-0.079 -0.293,-0.133 -0.556,-0.165c-0.263,-0.031 -0.52,-0.027 -0.771,0.013c-0.251,0.04 -0.428,0.173 -0.531,0.399c-0.104,0.226 -0.096,0.497 0.023,0.812c0.119,0.315 0.363,0.557 0.734,0.725c0.37,0.168 0.717,0.207 1.041,0.116c0.324,-0.091 0.524,-0.345 0.601,-0.762c0.077,-0.417 0.033,-0.767 -0.131,-1.049c-0.234,-0.4 -0.715,-0.431 -1.444,-0.092" style="fill:none;fill-rule:nonzero;stroke:#c2361a;stroke-width:0.85px;"/><path d="M109.771,49.346c0.039,-0.044 0.098,-0.096 0.179,-0.155c0.052,-0.038 0.093,-0.064 0.121,-0.079c0.029,-0.014 0.068,-0.041 0.118,-0.082c0.05,-0.04 0.115,-0.093 0.194,-0.158c0.079,-0.065 0.175,-0.144 0.288,-0.237c0.113,-0.093 0.253,-0.208 0.421,-0.342c0.168,-0.135 0.357,-0.284 0.567,-0.449c0.21,-0.164 0.427,-0.33 0.65,-0.498c0.223,-0.168 0.446,-0.327 0.667,-0.479c0.221,-0.151 0.447,-0.311 0.678,-0.477c0.23,-0.167 0.462,-0.338 0.696,-0.512c0.233,-0.175 0.461,-0.348 0.683,-0.518c0.222,-0.17 0.432,-0.343 0.629,-0.517c0.198,-0.174 0.392,-0.36 0.585,-0.556c0.192,-0.196 0.385,-0.401 0.58,-0.614c0.194,-0.213 0.387,-0.431 0.58,-0.652c0.192,-0.221 0.381,-0.435 0.566,-0.642c0.185,-0.207 0.373,-0.414 0.565,-0.62c0.191,-0.206 0.396,-0.421 0.613,-0.644c0.217,-0.223 0.441,-0.443 0.669,-0.66c0.229,-0.217 0.447,-0.421 0.654,-0.611c0.207,-0.19 0.408,-0.374 0.603,-0.552c0.195,-0.177 0.388,-0.357 0.58,-0.54c0.192,-0.182 0.372,-0.358 0.541,-0.526c0.169,-0.168 0.338,-0.334 0.508,-0.497c0.17,-0.163 0.349,-0.337 0.538,-0.523c0.189,-0.186 0.376,-0.372 0.561,-0.557c0.185,-0.185 0.359,-0.36 0.52,-0.527c0.161,-0.166 0.316,-0.328 0.465,-0.486c0.149,-0.158 0.293,-0.316 0.434,-0.474c0.141,-0.158 0.29,-0.328 0.448,-0.512c0.157,-0.184 0.311,-0.367 0.459,-0.55c0.149,-0.183 0.293,-0.355 0.432,-0.516c0.139,-0.161 0.281,-0.318 0.426,-0.472c0.145,-0.153 0.296,-0.308 0.454,-0.466c0.158,-0.157 0.313,-0.317 0.467,-0.478c0.154,-0.161 0.294,-0.312 0.421,-0.454c0.127,-0.142 0.257,-0.277 0.391,-0.406c0.133,-0.129 0.273,-0.258 0.418,-0.387c0.146,-0.129 0.29,-0.257 0.434,-0.383c0.144,-0.126 0.28,-0.258 0.41,-0.396c0.129,-0.138 0.257,-0.287 0.383,-0.446c0.126,-0.16 0.255,-0.326 0.386,-0.498c0.131,-0.173 0.265,-0.339 0.401,-0.5c0.136,-0.161 0.266,-0.315 0.391,-0.461c0.125,-0.146 0.247,-0.296 0.365,-0.448c0.119,-0.153 0.246,-0.32 0.382,-0.501c0.136,-0.181 0.27,-0.363 0.404,-0.546c0.134,-0.183 0.269,-0.36 0.405,-0.533c0.136,-0.173 0.273,-0.339 0.412,-0.497c0.139,-0.159 0.281,-0.308 0.426,-0.447c0.146,-0.139 0.29,-0.277 0.433,-0.413c0.143,-0.136 0.29,-0.28 0.441,-0.432c0.15,-0.152 0.301,-0.31 0.452,-0.472c0.151,-0.163 0.306,-0.327 0.466,-0.492c0.16,-0.165 0.32,-0.327 0.481,-0.486c0.16,-0.158 0.321,-0.313 0.481,-0.463c0.16,-0.151 0.319,-0.298 0.474,-0.442c0.156,-0.144 0.31,-0.29 0.463,-0.437c0.153,-0.148 0.31,-0.304 0.47,-0.469c0.16,-0.165 0.329,-0.326 0.509,-0.485c0.179,-0.158 0.357,-0.302 0.532,-0.43c0.175,-0.128 0.342,-0.241 0.501,-0.339c0.159,-0.098 0.309,-0.2 0.45,-0.306c0.142,-0.106 0.28,-0.222 0.417,-0.348c0.136,-0.126 0.262,-0.246 0.377,-0.362c0.115,-0.115 0.226,-0.222 0.333,-0.319c0.107,-0.098 0.223,-0.191 0.349,-0.282c0.126,-0.09 0.246,-0.173 0.361,-0.249c0.115,-0.076 0.2,-0.13 0.255,-0.163l0.041,-0.024l-0.123,0.073" style="fill:none;fill-rule:nonzero;stroke:#c2361a;stroke-width:0.85px;"/><path d="M110.515,17.688c0.061,0.046 0.146,0.091 0.253,0.135c0.07,0.029 0.124,0.043 0.163,0.043c0.039,0 0.093,0.001 0.161,0.003c0.069,0.002 0.159,0.023 0.269,0.062c0.11,0.039 0.244,0.101 0.4,0.185c0.156,0.084 0.332,0.173 0.528,0.268c0.196,0.095 0.399,0.195 0.61,0.301c0.211,0.106 0.408,0.228 0.589,0.365c0.182,0.137 0.345,0.283 0.489,0.435c0.144,0.153 0.28,0.293 0.407,0.421c0.127,0.128 0.258,0.244 0.393,0.349c0.135,0.105 0.286,0.217 0.453,0.335c0.167,0.118 0.33,0.262 0.492,0.433c0.161,0.17 0.314,0.348 0.458,0.533c0.144,0.185 0.289,0.354 0.434,0.506c0.145,0.152 0.303,0.287 0.472,0.404c0.169,0.118 0.348,0.248 0.538,0.393c0.189,0.144 0.365,0.305 0.526,0.482c0.162,0.177 0.31,0.339 0.444,0.486c0.135,0.147 0.266,0.281 0.395,0.401c0.129,0.12 0.254,0.236 0.376,0.348c0.122,0.112 0.238,0.229 0.348,0.35c0.11,0.121 0.212,0.241 0.307,0.36c0.095,0.119 0.184,0.234 0.267,0.344c0.083,0.11 0.167,0.217 0.252,0.322c0.085,0.105 0.166,0.213 0.244,0.324c0.078,0.111 0.159,0.228 0.244,0.349c0.085,0.121 0.173,0.239 0.265,0.354c0.092,0.115 0.179,0.219 0.26,0.312c0.081,0.093 0.158,0.173 0.231,0.24c0.073,0.066 0.146,0.13 0.219,0.191c0.105,0.087 0.174,0.269 0.206,0.543" style="fill:none;fill-rule:nonzero;stroke:#c2361a;stroke-width:0.85px;"/><path d="M129.914,37.094c0.008,0.046 0.051,0.123 0.13,0.23c0.079,0.107 0.163,0.235 0.255,0.382c0.091,0.147 0.2,0.326 0.327,0.536c0.127,0.21 0.271,0.418 0.431,0.623c0.16,0.205 0.315,0.391 0.467,0.558c0.151,0.167 0.3,0.328 0.446,0.483c0.146,0.155 0.301,0.32 0.465,0.494c0.164,0.174 0.349,0.35 0.554,0.528c0.205,0.178 0.405,0.351 0.598,0.518c0.193,0.168 0.372,0.332 0.535,0.493c0.164,0.161 0.317,0.313 0.459,0.457c0.142,0.144 0.276,0.285 0.403,0.424c0.127,0.139 0.244,0.27 0.352,0.395c0.108,0.125 0.213,0.237 0.315,0.338c0.102,0.1 0.201,0.2 0.296,0.3c0.095,0.099 0.185,0.2 0.271,0.302c0.085,0.102 0.17,0.205 0.255,0.31c0.085,0.104 0.183,0.209 0.293,0.314c0.111,0.105 0.23,0.204 0.359,0.299c0.128,0.095 0.257,0.197 0.386,0.305c0.129,0.109 0.258,0.222 0.387,0.341c0.129,0.119 0.257,0.239 0.386,0.36c0.129,0.121 0.262,0.25 0.401,0.386c0.138,0.136 0.272,0.265 0.401,0.386c0.129,0.122 0.249,0.239 0.359,0.352c0.11,0.113 0.221,0.218 0.332,0.315c0.111,0.098 0.225,0.19 0.342,0.278c0.117,0.088 0.231,0.18 0.343,0.277c0.112,0.097 0.219,0.196 0.322,0.298c0.102,0.102 0.201,0.197 0.296,0.286c0.14,0.13 0.322,0.2 0.548,0.209" style="fill:none;fill-rule:nonzero;stroke:#c2361a;stroke-width:0.85px;"/><path d="M142.689,17.101c0.027,0.007 0.151,-0.02 0.369,-0.08c0.219,-0.06 0.477,-0.171 0.774,-0.334c0.297,-0.163 0.625,-0.335 0.984,-0.517c0.358,-0.182 0.722,-0.358 1.091,-0.529c0.369,-0.171 0.737,-0.335 1.105,-0.493c0.367,-0.158 0.71,-0.309 1.028,-0.454c0.318,-0.144 0.622,-0.276 0.912,-0.396c0.29,-0.12 0.578,-0.229 0.865,-0.327c0.287,-0.098 0.58,-0.199 0.881,-0.303c0.301,-0.104 0.614,-0.219 0.938,-0.344c0.325,-0.126 0.651,-0.255 0.98,-0.389c0.329,-0.134 0.653,-0.264 0.974,-0.39c0.321,-0.127 0.635,-0.239 0.942,-0.338c0.307,-0.099 0.603,-0.178 0.888,-0.237c0.285,-0.059 0.567,-0.115 0.847,-0.166c0.279,-0.051 0.564,-0.096 0.856,-0.136c0.291,-0.039 0.586,-0.079 0.885,-0.117c0.299,-0.039 0.594,-0.071 0.886,-0.096c0.291,-0.025 0.591,-0.048 0.9,-0.07c0.309,-0.022 0.593,-0.037 0.853,-0.045c0.26,-0.008 0.501,-0.012 0.723,-0.012c0.222,-0 0.442,-0 0.661,-0l1.278,0c0.2,0 0.395,0.002 0.585,0.007c0.19,0.005 0.375,0.015 0.556,0.032c0.181,0.017 0.349,0.04 0.505,0.071c0.156,0.031 0.306,0.065 0.45,0.101c0.144,0.036 0.283,0.075 0.417,0.116c0.134,0.041 0.269,0.081 0.405,0.12c0.136,0.039 0.276,0.083 0.422,0.131c0.145,0.048 0.304,0.094 0.476,0.138c0.172,0.044 0.343,0.084 0.513,0.121c0.17,0.037 0.333,0.073 0.486,0.11c0.154,0.036 0.297,0.086 0.429,0.147c0.132,0.062 0.264,0.138 0.394,0.23c0.131,0.091 0.271,0.19 0.421,0.297c0.15,0.107 0.306,0.215 0.469,0.324c0.163,0.109 0.316,0.219 0.461,0.328c0.144,0.109 0.274,0.218 0.389,0.325c0.115,0.107 0.224,0.211 0.326,0.31c0.102,0.1 0.213,0.199 0.331,0.299c0.118,0.1 0.237,0.2 0.356,0.299c0.119,0.099 0.233,0.201 0.34,0.306c0.107,0.104 0.214,0.211 0.321,0.32c0.106,0.109 0.227,0.225 0.362,0.345c0.135,0.121 0.278,0.241 0.428,0.361c0.151,0.119 0.287,0.23 0.41,0.333c0.123,0.103 0.23,0.202 0.321,0.297c0.091,0.095 0.174,0.197 0.25,0.305c0.076,0.109 0.152,0.22 0.23,0.334c0.078,0.114 0.163,0.237 0.257,0.367c0.094,0.131 0.19,0.256 0.287,0.376c0.097,0.12 0.187,0.235 0.268,0.347c0.081,0.112 0.158,0.232 0.231,0.36c0.073,0.128 0.149,0.259 0.229,0.393c0.08,0.133 0.167,0.268 0.261,0.405c0.095,0.136 0.183,0.274 0.267,0.412c0.083,0.138 0.167,0.281 0.252,0.429c0.085,0.148 0.173,0.303 0.265,0.465c0.092,0.162 0.189,0.336 0.291,0.523c0.102,0.187 0.197,0.377 0.285,0.571c0.088,0.194 0.173,0.392 0.253,0.594c0.08,0.202 0.159,0.397 0.237,0.587c0.078,0.19 0.157,0.378 0.237,0.566c0.08,0.187 0.163,0.377 0.247,0.569c0.085,0.192 0.171,0.382 0.258,0.569c0.087,0.187 0.168,0.381 0.242,0.583c0.074,0.201 0.145,0.403 0.213,0.605c0.068,0.202 0.134,0.399 0.197,0.591c0.063,0.192 0.123,0.376 0.179,0.552c0.056,0.176 0.107,0.355 0.151,0.54c0.044,0.184 0.082,0.369 0.114,0.554c0.032,0.185 0.061,0.37 0.088,0.555c0.027,0.185 0.055,0.375 0.084,0.571c0.029,0.196 0.062,0.399 0.098,0.607c0.036,0.209 0.07,0.419 0.102,0.63c0.032,0.211 0.059,0.417 0.081,0.617c0.022,0.2 0.041,0.391 0.056,0.574c0.015,0.183 0.023,0.362 0.023,0.537c0,0.176 0,0.345 0,0.508c0,0.163 0.001,0.327 0.003,0.493c0.002,0.165 0.006,0.328 0.011,0.489c0.005,0.16 0.008,0.324 0.008,0.491l0,0.527c0,0.184 -0.003,0.373 -0.01,0.567c-0.007,0.194 -0.023,0.39 -0.049,0.587c-0.026,0.197 -0.052,0.384 -0.076,0.559c-0.025,0.176 -0.051,0.339 -0.08,0.491c-0.029,0.152 -0.059,0.297 -0.09,0.436c-0.031,0.139 -0.068,0.278 -0.109,0.415c-0.041,0.138 -0.095,0.305 -0.162,0.502c-0.067,0.197 -0.143,0.417 -0.227,0.661c-0.085,0.244 -0.165,0.478 -0.241,0.701c-0.076,0.223 -0.139,0.412 -0.188,0.568c-0.049,0.155 -0.097,0.299 -0.143,0.43c-0.046,0.132 -0.104,0.281 -0.173,0.449c-0.069,0.168 -0.151,0.365 -0.245,0.592c-0.094,0.227 -0.185,0.445 -0.273,0.653c-0.088,0.208 -0.162,0.39 -0.221,0.545c-0.059,0.155 -0.115,0.282 -0.166,0.381c-0.051,0.099 -0.099,0.199 -0.143,0.3c-0.044,0.101 -0.093,0.209 -0.145,0.323c-0.053,0.114 -0.105,0.226 -0.156,0.336c-0.051,0.109 -0.101,0.215 -0.15,0.318c-0.049,0.103 -0.095,0.198 -0.139,0.286c-0.044,0.088 -0.088,0.177 -0.131,0.266c-0.044,0.09 -0.089,0.188 -0.135,0.294c-0.046,0.106 -0.101,0.225 -0.166,0.355c-0.065,0.13 -0.135,0.265 -0.21,0.403c-0.075,0.138 -0.152,0.278 -0.229,0.419c-0.078,0.141 -0.155,0.279 -0.233,0.416c-0.078,0.137 -0.155,0.272 -0.23,0.405c-0.075,0.134 -0.153,0.264 -0.233,0.39c-0.08,0.127 -0.16,0.25 -0.241,0.369c-0.08,0.119 -0.166,0.241 -0.258,0.364c-0.092,0.123 -0.186,0.251 -0.283,0.382c-0.097,0.131 -0.203,0.265 -0.319,0.401c-0.116,0.136 -0.231,0.27 -0.346,0.401c-0.115,0.132 -0.227,0.252 -0.336,0.359c-0.109,0.108 -0.222,0.208 -0.339,0.301c-0.116,0.093 -0.231,0.181 -0.343,0.264c-0.112,0.083 -0.217,0.165 -0.315,0.245c-0.098,0.08 -0.195,0.16 -0.292,0.241c-0.097,0.08 -0.197,0.166 -0.298,0.258c-0.102,0.092 -0.21,0.186 -0.327,0.283c-0.116,0.097 -0.236,0.194 -0.36,0.292c-0.123,0.097 -0.249,0.197 -0.375,0.299c-0.127,0.102 -0.247,0.199 -0.362,0.292c-0.115,0.093 -0.225,0.174 -0.329,0.243c-0.105,0.069 -0.217,0.134 -0.338,0.194c-0.12,0.061 -0.25,0.126 -0.388,0.197c-0.138,0.07 -0.272,0.135 -0.401,0.194c-0.129,0.059 -0.258,0.111 -0.387,0.158c-0.129,0.047 -0.268,0.091 -0.417,0.132c-0.15,0.042 -0.316,0.082 -0.499,0.12c-0.183,0.039 -0.388,0.083 -0.616,0.134c-0.227,0.051 -0.46,0.102 -0.698,0.153c-0.238,0.051 -0.468,0.097 -0.69,0.139c-0.222,0.042 -0.44,0.08 -0.654,0.114c-0.214,0.034 -0.425,0.068 -0.634,0.102c-0.209,0.034 -0.419,0.069 -0.631,0.106c-0.211,0.036 -0.421,0.073 -0.627,0.11c-0.207,0.037 -0.409,0.068 -0.606,0.095c-0.197,0.027 -0.393,0.052 -0.588,0.077c-0.195,0.025 -0.385,0.044 -0.57,0.059c-0.185,0.015 -0.362,0.031 -0.53,0.048c-0.168,0.017 -0.334,0.034 -0.497,0.051c-0.163,0.017 -0.329,0.032 -0.499,0.044c-0.17,0.012 -0.341,0.021 -0.514,0.026c-0.172,0.005 -0.345,0.008 -0.517,0.008c-0.173,0 -0.35,0 -0.532,0l-0.557,0c-0.189,0 -0.375,-0.001 -0.558,-0.003c-0.183,-0.002 -0.361,-0.016 -0.537,-0.042c-0.175,-0.026 -0.356,-0.06 -0.543,-0.104c-0.187,-0.043 -0.382,-0.087 -0.585,-0.131c-0.203,-0.044 -0.413,-0.084 -0.629,-0.121c-0.216,-0.037 -0.431,-0.077 -0.646,-0.12c-0.214,-0.043 -0.421,-0.093 -0.621,-0.148c-0.199,-0.055 -0.398,-0.113 -0.595,-0.174c-0.197,-0.06 -0.394,-0.127 -0.591,-0.2c-0.197,-0.073 -0.397,-0.142 -0.601,-0.208c-0.204,-0.066 -0.408,-0.132 -0.612,-0.197c-0.204,-0.066 -0.407,-0.13 -0.609,-0.194c-0.202,-0.063 -0.392,-0.124 -0.571,-0.183c-0.179,-0.058 -0.346,-0.116 -0.502,-0.171c-0.156,-0.056 -0.31,-0.116 -0.46,-0.182c-0.151,-0.065 -0.308,-0.14 -0.473,-0.224c-0.165,-0.085 -0.332,-0.167 -0.502,-0.248c-0.17,-0.081 -0.332,-0.155 -0.486,-0.224c-0.154,-0.068 -0.3,-0.131 -0.439,-0.187c-0.139,-0.056 -0.279,-0.117 -0.419,-0.182c-0.141,-0.065 -0.279,-0.135 -0.416,-0.21c-0.137,-0.075 -0.274,-0.151 -0.412,-0.229c-0.138,-0.078 -0.28,-0.153 -0.425,-0.226c-0.145,-0.073 -0.292,-0.142 -0.441,-0.208c-0.149,-0.066 -0.291,-0.135 -0.428,-0.207c-0.137,-0.072 -0.267,-0.158 -0.392,-0.257c-0.124,-0.099 -0.246,-0.196 -0.365,-0.291c-0.173,-0.139 -0.445,-0.221 -0.816,-0.245" style="fill:none;fill-rule:nonzero;stroke:#c2361a;stroke-width:0.85px;"/><path d="M110.339,49.623c0.016,0.006 0.091,0.001 0.225,-0.016c0.075,-0.01 0.113,-0.014 0.115,-0.012c0.001,0.002 -0.036,0.047 -0.112,0.135c-0.076,0.088 -0.191,0.212 -0.345,0.37c-0.154,0.159 -0.324,0.326 -0.51,0.5c-0.186,0.175 -0.38,0.345 -0.582,0.511c-0.202,0.166 -0.396,0.323 -0.584,0.472c-0.188,0.149 -0.372,0.291 -0.551,0.428c-0.18,0.137 -0.356,0.268 -0.529,0.395c-0.173,0.127 -0.347,0.247 -0.522,0.362c-0.175,0.115 -0.346,0.225 -0.514,0.329c-0.168,0.105 -0.343,0.208 -0.524,0.31c-0.182,0.102 -0.371,0.201 -0.567,0.296c-0.197,0.096 -0.398,0.177 -0.604,0.243c-0.206,0.066 -0.422,0.131 -0.647,0.194c-0.226,0.063 -0.462,0.132 -0.708,0.207c-0.247,0.075 -0.513,0.155 -0.798,0.239c-0.285,0.085 -0.581,0.168 -0.887,0.251c-0.306,0.083 -0.618,0.171 -0.936,0.266c-0.318,0.094 -0.617,0.188 -0.896,0.281c-0.279,0.093 -0.541,0.177 -0.784,0.253c-0.244,0.076 -0.488,0.142 -0.733,0.199c-0.245,0.057 -0.484,0.1 -0.716,0.13c-0.232,0.03 -0.462,0.052 -0.69,0.067c-0.228,0.015 -0.471,0.033 -0.73,0.055c-0.259,0.022 -0.518,0.041 -0.776,0.058c-0.258,0.017 -0.51,0.032 -0.756,0.045c-0.246,0.012 -0.483,0.019 -0.713,0.019c-0.229,0 -0.461,0 -0.696,0c-0.235,0 -0.469,-0.001 -0.7,-0.003c-0.231,-0.002 -0.463,-0.017 -0.696,-0.045c-0.233,-0.028 -0.479,-0.056 -0.738,-0.083c-0.259,-0.027 -0.528,-0.052 -0.807,-0.074c-0.279,-0.022 -0.544,-0.051 -0.793,-0.086c-0.249,-0.036 -0.48,-0.075 -0.693,-0.119c-0.213,-0.044 -0.421,-0.086 -0.625,-0.128c-0.204,-0.042 -0.409,-0.078 -0.616,-0.11c-0.206,-0.032 -0.419,-0.062 -0.637,-0.091c-0.218,-0.029 -0.435,-0.071 -0.649,-0.126c-0.214,-0.055 -0.433,-0.116 -0.655,-0.184c-0.223,-0.068 -0.461,-0.134 -0.715,-0.197c-0.254,-0.063 -0.511,-0.122 -0.772,-0.175c-0.26,-0.054 -0.501,-0.12 -0.721,-0.199c-0.221,-0.079 -0.429,-0.18 -0.627,-0.302c-0.197,-0.123 -0.401,-0.246 -0.612,-0.37c-0.211,-0.124 -0.436,-0.243 -0.675,-0.355c-0.24,-0.113 -0.468,-0.213 -0.687,-0.301c-0.218,-0.088 -0.393,-0.171 -0.526,-0.249c-0.132,-0.078 -0.241,-0.168 -0.327,-0.272c-0.086,-0.103 -0.186,-0.22 -0.301,-0.35c-0.115,-0.13 -0.243,-0.261 -0.384,-0.393c-0.141,-0.132 -0.268,-0.265 -0.381,-0.401c-0.113,-0.136 -0.205,-0.275 -0.274,-0.418c-0.069,-0.143 -0.137,-0.289 -0.202,-0.44c-0.065,-0.151 -0.141,-0.313 -0.228,-0.487c-0.087,-0.174 -0.18,-0.341 -0.279,-0.5c-0.1,-0.159 -0.185,-0.291 -0.257,-0.396c-0.072,-0.104 -0.133,-0.214 -0.185,-0.329" style="fill:none;fill-rule:nonzero;stroke:#c2361a;stroke-width:0.85px;"/><path d="M77.941,17.145c-0.051,0.096 -0.131,0.198 -0.241,0.305c-0.11,0.107 -0.194,0.174 -0.255,0.201c-0.06,0.026 -0.111,0.051 -0.152,0.074c-0.041,0.023 -0.114,0.092 -0.218,0.207c-0.104,0.115 -0.242,0.294 -0.415,0.537c-0.173,0.243 -0.37,0.557 -0.592,0.943c-0.222,0.386 -0.436,0.786 -0.642,1.198c-0.206,0.412 -0.369,0.756 -0.489,1.032c-0.12,0.276 -0.204,0.486 -0.252,0.63c-0.048,0.144 -0.095,0.29 -0.14,0.437c-0.045,0.147 -0.116,0.322 -0.211,0.527c-0.095,0.204 -0.201,0.425 -0.317,0.663c-0.116,0.238 -0.224,0.472 -0.322,0.704c-0.098,0.232 -0.178,0.446 -0.241,0.644c-0.062,0.198 -0.115,0.393 -0.16,0.585c-0.044,0.192 -0.082,0.383 -0.114,0.573c-0.032,0.19 -0.063,0.383 -0.095,0.579c-0.031,0.196 -0.071,0.413 -0.119,0.652c-0.048,0.239 -0.101,0.499 -0.159,0.783c-0.058,0.283 -0.113,0.571 -0.165,0.862c-0.052,0.292 -0.099,0.572 -0.143,0.84c-0.044,0.269 -0.082,0.525 -0.114,0.768c-0.032,0.244 -0.072,0.494 -0.12,0.75c-0.048,0.257 -0.097,0.528 -0.149,0.814c-0.051,0.286 -0.089,0.566 -0.112,0.838c-0.023,0.273 -0.035,0.536 -0.035,0.79c-0,0.254 0.004,0.491 0.013,0.711c0.009,0.22 0.027,0.431 0.053,0.633c0.027,0.202 0.051,0.418 0.073,0.651c0.022,0.232 0.042,0.464 0.059,0.695c0.017,0.231 0.037,0.457 0.058,0.676c0.021,0.219 0.049,0.431 0.083,0.636c0.034,0.204 0.069,0.411 0.105,0.62c0.036,0.209 0.079,0.427 0.127,0.654c0.048,0.227 0.098,0.461 0.149,0.702c0.051,0.241 0.1,0.478 0.146,0.712c0.046,0.234 0.092,0.467 0.135,0.7c0.044,0.233 0.087,0.462 0.131,0.686c0.044,0.225 0.087,0.435 0.131,0.63c0.044,0.196 0.087,0.377 0.131,0.546c0.044,0.168 0.091,0.336 0.141,0.504c0.051,0.168 0.113,0.338 0.187,0.51c0.074,0.172 0.162,0.359 0.263,0.559c0.101,0.2 0.209,0.422 0.323,0.666c0.114,0.244 0.222,0.493 0.325,0.746c0.102,0.253 0.208,0.494 0.317,0.724c0.109,0.23 0.218,0.438 0.328,0.624c0.109,0.186 0.222,0.371 0.338,0.555c0.116,0.184 0.242,0.377 0.378,0.578c0.136,0.202 0.261,0.379 0.377,0.533c0.116,0.154 0.215,0.255 0.299,0.305c0.117,0.07 0.192,-0.174 0.225,-0.732" style="fill:none;fill-rule:nonzero;stroke:#c2361a;stroke-width:0.85px;"/><path d="M78.422,16.576c-0.062,-0.036 0.04,-0.163 0.306,-0.381c0.266,-0.218 0.593,-0.443 0.981,-0.674c0.389,-0.231 0.807,-0.471 1.253,-0.719c0.447,-0.248 0.851,-0.451 1.213,-0.609c0.362,-0.158 0.666,-0.263 0.913,-0.318c0.247,-0.054 0.468,-0.089 0.663,-0.104c0.195,-0.015 0.422,-0.05 0.681,-0.104c0.259,-0.054 0.554,-0.128 0.885,-0.222c0.331,-0.094 0.675,-0.192 1.032,-0.294c0.357,-0.102 0.714,-0.201 1.071,-0.296c0.357,-0.095 0.71,-0.182 1.058,-0.26c0.348,-0.078 0.698,-0.161 1.05,-0.248c0.352,-0.087 0.719,-0.17 1.102,-0.248c0.383,-0.079 0.763,-0.145 1.141,-0.199c0.377,-0.054 0.739,-0.097 1.086,-0.13c0.346,-0.033 0.684,-0.06 1.012,-0.082c0.328,-0.022 0.657,-0.04 0.985,-0.055c0.328,-0.015 0.65,-0.033 0.967,-0.055c0.317,-0.022 0.625,-0.041 0.924,-0.058c0.3,-0.017 0.587,-0.029 0.863,-0.034c0.276,-0.005 0.532,-0.008 0.769,-0.008c0.237,-0 0.468,0.003 0.691,0.01c0.224,0.007 0.465,0.021 0.723,0.043c0.258,0.022 0.529,0.046 0.814,0.072c0.284,0.026 0.549,0.066 0.794,0.118c0.245,0.052 0.485,0.11 0.72,0.173c0.235,0.063 0.481,0.115 0.738,0.155c0.257,0.04 0.497,0.071 0.72,0.093c0.223,0.022 0.418,0.051 0.586,0.087c0.167,0.036 0.32,0.081 0.459,0.136c0.139,0.055 0.288,0.125 0.447,0.209c0.16,0.084 0.334,0.181 0.522,0.292c0.188,0.111 0.375,0.232 0.561,0.362c0.185,0.13 0.359,0.266 0.52,0.407c0.161,0.141 0.313,0.281 0.454,0.42c0.142,0.139 0.282,0.274 0.42,0.405c0.139,0.131 0.281,0.261 0.426,0.39c0.146,0.129 0.289,0.263 0.43,0.404c0.141,0.14 0.279,0.281 0.413,0.423c0.134,0.141 0.26,0.265 0.377,0.371c0.117,0.106 0.231,0.186 0.34,0.239c0.109,0.053 0.235,0.085 0.377,0.096l0.106,0.008l-0.319,-0.025" style="fill:none;fill-rule:nonzero;stroke:#c2361a;stroke-width:0.85px;"/><path d="M131.686,23.467c0.064,0.076 0.154,0.123 0.269,0.141c0.115,0.018 0.242,0.004 0.38,-0.042c0.139,-0.046 0.31,-0.116 0.514,-0.21c0.204,-0.094 0.428,-0.188 0.673,-0.283c0.244,-0.095 0.499,-0.178 0.763,-0.25c0.265,-0.072 0.512,-0.128 0.743,-0.168c0.231,-0.04 0.428,-0.07 0.593,-0.09c0.165,-0.02 0.295,-0.031 0.39,-0.034c0.095,-0.003 0.16,-0.004 0.193,-0.004l0.051,0c0.001,0 0.001,0.014 0.001,0.041l0,0.131c0,0.06 0.001,0.136 0.003,0.23c0.002,0.093 0.014,0.209 0.035,0.346c0.021,0.137 0.048,0.303 0.082,0.497c0.034,0.195 0.072,0.397 0.116,0.606c0.043,0.209 0.087,0.408 0.131,0.596c0.044,0.188 0.091,0.36 0.142,0.514c0.051,0.154 0.097,0.285 0.139,0.391c0.042,0.106 0.075,0.188 0.1,0.246c0.025,0.058 0.049,0.096 0.073,0.114c0.034,0.026 0.186,-0.104 0.456,-0.39" style="fill:none;fill-rule:nonzero;stroke:#c2361a;stroke-width:0.85px;"/><path d="M116.265,24.473c0.026,0.005 0.048,-0.07 0.064,-0.224c0.016,-0.154 0.016,-0.292 0,-0.412c-0.016,-0.12 -0.055,-0.257 -0.117,-0.408c-0.062,-0.152 -0.122,-0.329 -0.181,-0.531c-0.059,-0.202 -0.109,-0.412 -0.151,-0.628c-0.042,-0.216 -0.076,-0.42 -0.104,-0.611c-0.027,-0.191 -0.047,-0.352 -0.06,-0.483c-0.013,-0.131 -0.018,-0.237 -0.016,-0.316c0.002,-0.079 0.048,-0.144 0.138,-0.194c0.09,-0.05 0.23,-0.084 0.419,-0.102c0.189,-0.018 0.399,-0.027 0.629,-0.028c0.23,-0 0.456,-0 0.678,-0c0.222,0 0.423,0.003 0.602,0.01c0.179,0.007 0.338,0.021 0.475,0.043c0.137,0.022 0.26,0.04 0.368,0.055c0.181,0.025 0.29,0.049 0.33,0.074" style="fill:none;fill-rule:nonzero;stroke:#c2361a;stroke-width:0.85px;"/><path d="M111.503,9.784c0.035,0.02 0.121,0.014 0.257,-0.019c0.084,-0.021 0.131,-0.063 0.139,-0.127c0.009,-0.064 0.007,-0.127 -0.004,-0.188c-0.011,-0.061 -0.05,-0.12 -0.116,-0.176c-0.066,-0.056 -0.144,-0.11 -0.233,-0.161c-0.089,-0.051 -0.191,-0.093 -0.304,-0.126c-0.113,-0.033 -0.243,-0.051 -0.39,-0.054c-0.147,-0.003 -0.303,0.033 -0.468,0.109c-0.165,0.076 -0.311,0.2 -0.436,0.372c-0.126,0.172 -0.225,0.367 -0.298,0.585c-0.073,0.218 -0.115,0.44 -0.126,0.666c-0.011,0.226 -0.006,0.423 0.017,0.592c0.022,0.168 0.08,0.301 0.173,0.398c0.093,0.097 0.214,0.166 0.365,0.207c0.151,0.041 0.327,0.064 0.53,0.07c0.202,0.006 0.405,-0.012 0.608,-0.053c0.203,-0.041 0.38,-0.12 0.53,-0.236c0.15,-0.116 0.279,-0.269 0.388,-0.459c0.108,-0.19 0.197,-0.395 0.267,-0.616c0.069,-0.221 0.118,-0.427 0.147,-0.618c0.029,-0.191 0.043,-0.343 0.043,-0.456c0,-0.113 -0.006,-0.189 -0.02,-0.231c-0.014,-0.041 -0.039,-0.065 -0.075,-0.07c-0.036,-0.006 -0.065,-0.009 -0.084,-0.009c-0.02,-0 -0.037,0.011 -0.052,0.034c-0.015,0.023 -0.023,0.092 -0.026,0.207c-0.003,0.116 -0.004,0.266 -0.004,0.45c0,0.185 0.011,0.399 0.034,0.643c0.023,0.244 0.073,0.49 0.152,0.739c0.078,0.249 0.174,0.459 0.287,0.63l0.085,0.129l-0.254,-0.386" style="fill:none;fill-rule:nonzero;stroke:#c2361a;stroke-width:0.85px;"/><path d="M72.407,8.264c-0.121,-0.072 -0.227,-0.171 -0.318,-0.299c-0.091,-0.127 -0.153,-0.248 -0.185,-0.363c-0.032,-0.115 -0.079,-0.206 -0.14,-0.274c-0.061,-0.068 -0.172,-0.103 -0.333,-0.106c-0.161,-0.003 -0.356,0.067 -0.586,0.209c-0.229,0.142 -0.457,0.346 -0.681,0.612c-0.225,0.266 -0.397,0.574 -0.516,0.924c-0.12,0.35 -0.164,0.688 -0.133,1.014c0.031,0.326 0.163,0.566 0.396,0.719c0.234,0.154 0.502,0.22 0.805,0.199c0.303,-0.021 0.59,-0.138 0.862,-0.352c0.272,-0.214 0.5,-0.486 0.684,-0.817c0.184,-0.33 0.312,-0.636 0.384,-0.917c0.072,-0.281 0.112,-0.489 0.121,-0.623c0.009,-0.134 0.013,-0.214 0.013,-0.239c0,-0.025 -0.005,-0.033 -0.014,-0.024c-0.009,0.009 -0.02,0.078 -0.032,0.208c-0.012,0.13 -0.022,0.342 -0.03,0.635c-0.008,0.293 0.014,0.622 0.066,0.986c0.052,0.364 0.168,0.7 0.346,1.01c0.179,0.31 0.338,0.526 0.479,0.647c0.191,0.165 0.297,0.138 0.321,-0.081" style="fill:none;fill-rule:nonzero;stroke:#c2361a;stroke-width:0.85px;"/><path d="M68.888,4.742c0,0.075 0.01,0.151 0.028,0.228c0.012,0.051 0.069,0.072 0.171,0.061c0.102,-0.011 0.3,-0.051 0.594,-0.119c0.294,-0.069 0.656,-0.142 1.084,-0.22c0.429,-0.078 0.891,-0.136 1.388,-0.175c0.765,-0.059 1.401,-0.074 1.908,-0.043" style="fill:none;fill-rule:nonzero;stroke:#c2361a;stroke-width:0.85px;"/><path d="M139.629,9.526c0.043,0.013 0.121,0.008 0.233,-0.013c0.07,-0.013 0.107,-0.064 0.11,-0.151c0.003,-0.087 -0.018,-0.178 -0.063,-0.271c-0.045,-0.093 -0.152,-0.159 -0.321,-0.198c-0.169,-0.039 -0.364,-0.046 -0.587,-0.022c-0.222,0.024 -0.441,0.132 -0.656,0.324c-0.215,0.192 -0.383,0.452 -0.504,0.778c-0.121,0.327 -0.145,0.651 -0.072,0.972c0.074,0.321 0.279,0.547 0.616,0.676c0.337,0.13 0.701,0.158 1.09,0.086c0.389,-0.072 0.72,-0.243 0.99,-0.513c0.271,-0.269 0.461,-0.55 0.571,-0.843c0.11,-0.293 0.169,-0.537 0.176,-0.734c0.007,-0.196 -0.002,-0.333 -0.027,-0.41c-0.025,-0.077 -0.057,-0.122 -0.097,-0.136c-0.039,-0.014 -0.067,-0.018 -0.082,-0.014c-0.015,0.004 -0.027,0.061 -0.034,0.169c-0.007,0.109 -0.011,0.271 -0.011,0.487c-0,0.216 0.021,0.442 0.065,0.678c0.043,0.236 0.128,0.46 0.254,0.673c0.186,0.313 0.483,0.538 0.891,0.676" style="fill:none;fill-rule:nonzero;stroke:#c2361a;stroke-width:0.85px;"/><path d="M180.16,9.358c-0.036,-0.048 -0.071,-0.133 -0.106,-0.257c-0.035,-0.124 -0.081,-0.232 -0.137,-0.324c-0.056,-0.092 -0.152,-0.169 -0.287,-0.229c-0.135,-0.06 -0.317,-0.088 -0.544,-0.083c-0.228,0.005 -0.477,0.086 -0.749,0.245c-0.272,0.159 -0.503,0.366 -0.695,0.621c-0.192,0.256 -0.293,0.514 -0.303,0.775c-0.01,0.261 0.126,0.483 0.41,0.667c0.283,0.184 0.636,0.304 1.059,0.359c0.423,0.056 0.835,0.048 1.236,-0.024c0.401,-0.072 0.721,-0.236 0.959,-0.493c0.238,-0.257 0.395,-0.537 0.47,-0.841c0.075,-0.304 0.114,-0.561 0.116,-0.77c0.002,-0.21 -0.022,-0.336 -0.071,-0.38c-0.049,-0.044 -0.102,-0.041 -0.158,0.008c-0.056,0.049 -0.104,0.182 -0.144,0.4c-0.04,0.218 -0.059,0.476 -0.055,0.776c0.003,0.299 0.064,0.599 0.182,0.899c0.118,0.3 0.286,0.549 0.503,0.745c0.217,0.197 0.334,0.249 0.351,0.156" style="fill:none;fill-rule:nonzero;stroke:#c2361a;stroke-width:0.85px;"/><path d="M177.207,5.573c0.011,0.081 0.186,0.129 0.523,0.145c0.338,0.016 0.786,0.011 1.345,-0.015c0.822,-0.038 1.856,-0.067 3.103,-0.088" style="fill:none;fill-rule:nonzero;stroke:#c2361a;stroke-width:0.85px;"/><path d="M142.142,56.737c0.045,-0.02 0.043,-0.033 -0.006,-0.041c-0.049,-0.008 -0.171,-0.027 -0.365,-0.059c-0.195,-0.031 -0.402,0.004 -0.622,0.105c-0.22,0.101 -0.431,0.279 -0.632,0.534c-0.201,0.255 -0.34,0.543 -0.415,0.863c-0.076,0.32 -0.088,0.597 -0.038,0.83c0.05,0.233 0.208,0.392 0.473,0.475c0.265,0.083 0.577,0.115 0.938,0.097c0.36,-0.018 0.689,-0.109 0.984,-0.271c0.296,-0.163 0.514,-0.361 0.654,-0.594c0.14,-0.234 0.219,-0.483 0.24,-0.748c0.02,-0.265 0.007,-0.501 -0.039,-0.708c-0.046,-0.207 -0.099,-0.359 -0.157,-0.456c-0.059,-0.096 -0.107,-0.151 -0.144,-0.163c-0.037,-0.012 -0.064,0.011 -0.079,0.068c-0.015,0.057 -0.023,0.16 -0.024,0.308c-0,0.148 0.017,0.329 0.05,0.543c0.034,0.214 0.122,0.451 0.264,0.712c0.142,0.261 0.314,0.517 0.516,0.766c0.298,0.368 0.679,0.576 1.142,0.623" style="fill:none;fill-rule:nonzero;stroke:#c2361a;stroke-width:0.85px;"/><path d="M180.444,55.578l0.346,0c0.131,0 0.238,-0.009 0.322,-0.027c0.084,-0.018 0.14,-0.071 0.166,-0.158c0.026,-0.088 0.016,-0.193 -0.031,-0.316c-0.047,-0.123 -0.172,-0.237 -0.376,-0.344c-0.204,-0.106 -0.444,-0.17 -0.722,-0.19c-0.278,-0.02 -0.551,0.041 -0.82,0.183c-0.268,0.142 -0.502,0.386 -0.7,0.73c-0.198,0.344 -0.319,0.712 -0.361,1.104c-0.042,0.392 0.024,0.705 0.199,0.939c0.175,0.234 0.439,0.366 0.792,0.397c0.353,0.031 0.706,-0.028 1.057,-0.176c0.352,-0.148 0.65,-0.357 0.896,-0.627c0.246,-0.27 0.415,-0.551 0.508,-0.842c0.093,-0.292 0.135,-0.545 0.126,-0.761c-0.009,-0.216 -0.05,-0.352 -0.124,-0.409c-0.074,-0.057 -0.143,-0.015 -0.207,0.123c-0.064,0.139 -0.099,0.378 -0.104,0.719c-0.005,0.34 0.054,0.683 0.177,1.027c0.123,0.345 0.301,0.626 0.533,0.843l0.174,0.163l-0.524,-0.489" style="fill:none;fill-rule:nonzero;stroke:#c2361a;stroke-width:0.85px;"/><path d="M179.044,52.056c-0.03,0.013 -0.001,0.02 0.087,0.022c0.088,0.002 0.308,0.006 0.659,0.012c0.352,0.006 0.79,0.008 1.314,0.003c0.786,-0.007 1.514,-0.152 2.181,-0.438" style="fill:none;fill-rule:nonzero;stroke:#c2361a;stroke-width:0.85px;"/><path d="M110.468,57.984c0.019,-0.062 0.041,-0.163 0.067,-0.302c0.026,-0.139 0.046,-0.277 0.058,-0.413c0.013,-0.136 0.015,-0.249 0.007,-0.338c-0.008,-0.09 -0.085,-0.143 -0.229,-0.161c-0.144,-0.017 -0.353,0.031 -0.627,0.146c-0.273,0.115 -0.556,0.32 -0.849,0.616c-0.293,0.296 -0.522,0.629 -0.686,0.999c-0.164,0.37 -0.231,0.716 -0.2,1.039c0.031,0.322 0.195,0.548 0.492,0.678c0.297,0.13 0.653,0.156 1.07,0.079c0.416,-0.077 0.791,-0.256 1.125,-0.537c0.333,-0.281 0.576,-0.588 0.728,-0.921c0.152,-0.333 0.242,-0.625 0.27,-0.878c0.028,-0.252 0.037,-0.424 0.029,-0.515c-0.009,-0.091 -0.031,-0.132 -0.067,-0.123c-0.036,0.009 -0.073,0.102 -0.112,0.28c-0.039,0.177 -0.063,0.414 -0.072,0.711c-0.009,0.297 0.045,0.597 0.163,0.901c0.117,0.304 0.287,0.571 0.509,0.802c0.222,0.23 0.337,0.269 0.346,0.114" style="fill:none;fill-rule:nonzero;stroke:#c2361a;stroke-width:0.85px;"/><path d="M73.107,57.284c0.026,-0.074 0.061,-0.15 0.106,-0.228c0.044,-0.078 0.078,-0.14 0.099,-0.186c0.022,-0.046 0.037,-0.096 0.045,-0.149c0.008,-0.053 -0.016,-0.107 -0.072,-0.16c-0.056,-0.054 -0.233,-0.082 -0.53,-0.085c-0.297,-0.003 -0.656,0.094 -1.077,0.292c-0.421,0.198 -0.788,0.474 -1.101,0.83c-0.313,0.356 -0.516,0.732 -0.609,1.128c-0.093,0.396 -0.082,0.741 0.034,1.033c0.115,0.292 0.331,0.487 0.645,0.584c0.315,0.097 0.69,0.093 1.127,-0.012c0.437,-0.105 0.845,-0.317 1.224,-0.635c0.38,-0.318 0.656,-0.675 0.829,-1.071c0.173,-0.397 0.27,-0.757 0.291,-1.081c0.021,-0.324 0.005,-0.528 -0.049,-0.612c-0.053,-0.084 -0.11,-0.085 -0.168,-0.004c-0.059,0.081 -0.104,0.268 -0.135,0.56c-0.031,0.293 -0.025,0.609 0.018,0.949c0.043,0.34 0.146,0.649 0.309,0.928c0.164,0.278 0.35,0.481 0.559,0.609l0.157,0.096l-0.47,-0.288" style="fill:none;fill-rule:nonzero;stroke:#c2361a;stroke-width:0.85px;"/><path d="M69.301,53.87c0.048,0.005 0.185,0.011 0.41,0.018c0.131,0.004 0.26,0.006 0.385,0.006l0.509,0c0.31,0 0.896,-0.032 1.757,-0.095" style="fill:none;fill-rule:nonzero;stroke:#c2361a;stroke-width:0.85px;"/><path d="M77.329,16.948c0.078,-0.029 0.165,-0.087 0.26,-0.172c0.095,-0.085 0.152,-0.158 0.171,-0.219c0.018,-0.061 0.026,-0.12 0.021,-0.176c-0.004,-0.056 -0.05,-0.099 -0.138,-0.13c-0.088,-0.03 -0.215,-0.039 -0.381,-0.027c-0.166,0.013 -0.342,0.073 -0.529,0.181c-0.187,0.108 -0.357,0.239 -0.51,0.394c-0.153,0.155 -0.26,0.3 -0.322,0.434c-0.062,0.135 -0.092,0.256 -0.092,0.364c0.001,0.108 0.052,0.212 0.154,0.312c0.102,0.1 0.264,0.181 0.487,0.244c0.223,0.063 0.459,0.103 0.71,0.122c0.25,0.018 0.472,0.026 0.664,0.021c0.192,-0.004 0.356,-0.04 0.491,-0.107c0.135,-0.067 0.253,-0.183 0.354,-0.347c0.101,-0.164 0.165,-0.361 0.192,-0.59c0.027,-0.229 -0.002,-0.436 -0.086,-0.619c-0.084,-0.183 -0.22,-0.316 -0.408,-0.4c-0.187,-0.084 -0.378,-0.131 -0.574,-0.143c-0.195,-0.012 -0.367,-0.016 -0.515,-0.014c-0.148,0.002 -0.272,0.054 -0.373,0.155c-0.101,0.101 -0.175,0.262 -0.221,0.483c-0.046,0.221 -0.069,0.437 -0.068,0.647c0.001,0.211 0.057,0.38 0.168,0.507c0.111,0.128 0.257,0.206 0.439,0.236c0.182,0.03 0.343,0.017 0.484,-0.037c0.202,-0.078 0.35,-0.377 0.443,-0.895" style="fill:none;fill-rule:nonzero;stroke:#c2361a;stroke-width:1.7px;"/><path d="M110.381,17.189c0.124,-0.003 0.247,-0.025 0.37,-0.065c0.122,-0.04 0.197,-0.1 0.224,-0.179c0.027,-0.079 0.023,-0.162 -0.011,-0.25c-0.034,-0.087 -0.108,-0.176 -0.222,-0.266c-0.114,-0.09 -0.245,-0.174 -0.392,-0.252c-0.147,-0.078 -0.298,-0.139 -0.45,-0.182c-0.153,-0.043 -0.313,-0.064 -0.48,-0.063c-0.167,0.001 -0.332,0.067 -0.493,0.199c-0.161,0.131 -0.281,0.327 -0.361,0.588c-0.079,0.26 -0.057,0.499 0.067,0.716c0.124,0.217 0.339,0.361 0.644,0.432c0.305,0.071 0.595,0.086 0.87,0.044c0.275,-0.042 0.51,-0.145 0.704,-0.309c0.195,-0.164 0.343,-0.344 0.444,-0.541c0.101,-0.196 0.159,-0.391 0.174,-0.583c0.015,-0.193 -0.037,-0.342 -0.157,-0.446c-0.119,-0.104 -0.306,-0.135 -0.558,-0.092c-0.253,0.043 -0.483,0.163 -0.69,0.36c-0.207,0.198 -0.359,0.408 -0.456,0.632c-0.097,0.224 -0.117,0.415 -0.061,0.574c0.056,0.159 0.215,0.251 0.477,0.275c0.262,0.024 0.499,-0.003 0.709,-0.082c0.211,-0.078 0.357,-0.178 0.439,-0.298c0.082,-0.12 0.088,-0.184 0.018,-0.192" style="fill:none;fill-rule:nonzero;stroke:#c2361a;stroke-width:1.7px;"/><path d="M142.755,17.189l-0.326,0c-0.124,0 -0.238,-0.015 -0.341,-0.045c-0.103,-0.03 -0.193,-0.069 -0.272,-0.118c-0.079,-0.049 -0.159,-0.088 -0.241,-0.118c-0.082,-0.03 -0.17,-0.049 -0.265,-0.057c-0.094,-0.008 -0.198,0.016 -0.312,0.073c-0.114,0.057 -0.198,0.195 -0.252,0.416c-0.054,0.221 -0.032,0.464 0.067,0.729c0.099,0.265 0.312,0.461 0.639,0.587c0.327,0.126 0.658,0.169 0.992,0.129c0.334,-0.04 0.617,-0.188 0.849,-0.446c0.231,-0.257 0.384,-0.563 0.457,-0.917c0.073,-0.354 0.054,-0.646 -0.059,-0.877c-0.113,-0.231 -0.335,-0.344 -0.667,-0.341c-0.332,0.003 -0.65,0.139 -0.956,0.407c-0.306,0.268 -0.503,0.558 -0.591,0.868c-0.088,0.31 -0.085,0.551 0.009,0.723c0.095,0.172 0.274,0.265 0.537,0.279c0.381,0.021 0.815,-0.209 1.302,-0.689" style="fill:none;fill-rule:nonzero;stroke:#c2361a;stroke-width:1.7px;"/><path d="M174.254,17.298c0.061,-0.062 0.109,-0.165 0.144,-0.31c0.035,-0.144 0.04,-0.271 0.016,-0.381c-0.025,-0.11 -0.115,-0.192 -0.27,-0.246c-0.155,-0.054 -0.359,-0.057 -0.612,-0.008c-0.253,0.048 -0.495,0.192 -0.726,0.431c-0.231,0.239 -0.388,0.511 -0.469,0.817c-0.082,0.305 -0.013,0.554 0.206,0.745c0.219,0.191 0.538,0.287 0.956,0.286c0.418,-0.001 0.784,-0.117 1.096,-0.348c0.312,-0.231 0.517,-0.52 0.615,-0.866c0.098,-0.346 0.091,-0.638 -0.019,-0.876c-0.111,-0.238 -0.297,-0.372 -0.559,-0.403c-0.262,-0.031 -0.498,0.015 -0.708,0.138c-0.209,0.123 -0.379,0.296 -0.509,0.52c-0.13,0.224 -0.196,0.419 -0.199,0.586c-0.003,0.167 0.101,0.264 0.312,0.291c0.308,0.039 0.602,-0.066 0.882,-0.316" style="fill:none;fill-rule:nonzero;stroke:#c2361a;stroke-width:1.7px;"/><path d="M174.726,48.662c-0.021,0.044 -0.079,0.094 -0.174,0.148c-0.061,0.035 -0.093,0.025 -0.096,-0.03c-0.003,-0.055 -0.005,-0.15 -0.005,-0.288c0,-0.137 -0.004,-0.263 -0.013,-0.379c-0.009,-0.116 -0.075,-0.198 -0.198,-0.247c-0.123,-0.049 -0.313,-0.041 -0.569,0.024c-0.256,0.065 -0.51,0.22 -0.76,0.465c-0.251,0.245 -0.419,0.503 -0.506,0.774c-0.087,0.271 -0.04,0.483 0.14,0.637c0.18,0.154 0.454,0.234 0.82,0.241c0.367,0.007 0.697,-0.049 0.991,-0.168c0.294,-0.119 0.507,-0.292 0.639,-0.519c0.133,-0.227 0.201,-0.495 0.205,-0.805c0.004,-0.31 -0.059,-0.566 -0.19,-0.77c-0.131,-0.204 -0.293,-0.287 -0.487,-0.251c-0.193,0.037 -0.361,0.218 -0.504,0.544c-0.142,0.326 -0.211,0.657 -0.207,0.991c0.004,0.334 0.109,0.566 0.316,0.696c0.206,0.13 0.432,0.15 0.677,0.062c0.346,-0.125 0.329,-0.769 -0.051,-1.932" style="fill:none;fill-rule:nonzero;stroke:#c2361a;stroke-width:1.7px;"/><path d="M143.87,49.256c0,-0.072 0.002,-0.175 0.007,-0.309c0.005,-0.135 0.007,-0.261 0.008,-0.378c0,-0.117 -0.039,-0.233 -0.117,-0.347c-0.078,-0.114 -0.204,-0.208 -0.376,-0.281c-0.172,-0.073 -0.384,-0.097 -0.637,-0.073c-0.253,0.025 -0.491,0.143 -0.715,0.355c-0.224,0.212 -0.371,0.47 -0.441,0.774c-0.07,0.304 -0.023,0.58 0.139,0.828c0.162,0.247 0.434,0.401 0.815,0.462c0.381,0.061 0.744,0.008 1.089,-0.157c0.345,-0.166 0.574,-0.419 0.688,-0.759c0.114,-0.341 0.094,-0.676 -0.058,-1.005c-0.152,-0.329 -0.396,-0.553 -0.732,-0.671c-0.336,-0.118 -0.667,-0.092 -0.993,0.078c-0.326,0.17 -0.579,0.45 -0.761,0.839c-0.182,0.39 -0.257,0.736 -0.224,1.039c0.033,0.303 0.197,0.491 0.493,0.565c0.296,0.074 0.586,0.027 0.869,-0.141c0.283,-0.168 0.47,-0.41 0.561,-0.726c0.09,-0.316 0.134,-0.522 0.131,-0.619c-0.005,-0.136 -0.42,-0.192 -1.246,-0.167" style="fill:none;fill-rule:nonzero;stroke:#c2361a;stroke-width:1.7px;"/><path d="M110.534,48.666c0.04,-0.156 0.076,-0.353 0.107,-0.589c0.031,-0.236 0.035,-0.403 0.013,-0.499c-0.022,-0.096 -0.097,-0.154 -0.225,-0.174c-0.128,-0.019 -0.285,0.032 -0.473,0.156c-0.188,0.123 -0.368,0.367 -0.54,0.731c-0.173,0.364 -0.262,0.754 -0.267,1.168c-0.006,0.414 0.162,0.744 0.503,0.988c0.341,0.245 0.738,0.358 1.189,0.341c0.451,-0.017 0.787,-0.173 1.006,-0.468c0.22,-0.294 0.299,-0.644 0.237,-1.048c-0.062,-0.404 -0.287,-0.742 -0.675,-1.013c-0.388,-0.271 -0.797,-0.373 -1.225,-0.304c-0.429,0.069 -0.708,0.3 -0.837,0.693c-0.13,0.393 -0.084,0.748 0.136,1.066c0.22,0.318 0.521,0.517 0.901,0.598c0.38,0.081 0.674,0.099 0.882,0.054l0.156,-0.034l-0.468,0.102" style="fill:none;fill-rule:nonzero;stroke:#c2361a;stroke-width:1.7px;"/><path d="M78.138,47.922c-0.02,-0.047 -0.131,-0.122 -0.331,-0.223c-0.2,-0.102 -0.451,-0.146 -0.751,-0.135c-0.3,0.012 -0.6,0.096 -0.901,0.253c-0.301,0.157 -0.526,0.371 -0.674,0.642c-0.148,0.271 -0.151,0.535 -0.009,0.791c0.143,0.256 0.437,0.423 0.884,0.5c0.447,0.078 0.853,0.063 1.217,-0.044c0.364,-0.107 0.596,-0.312 0.694,-0.618c0.098,-0.305 0.015,-0.606 -0.249,-0.902c-0.264,-0.296 -0.649,-0.467 -1.153,-0.515c-0.504,-0.047 -0.917,0.093 -1.237,0.421c-0.32,0.328 -0.401,0.698 -0.242,1.108c0.159,0.41 0.586,0.672 1.282,0.786c0.696,0.114 1.314,0.106 1.855,-0.022c0.541,-0.129 0.859,-0.225 0.955,-0.288c0.135,-0.089 -0.305,-0.31 -1.317,-0.662" style="fill:none;fill-rule:nonzero;stroke:#c2361a;stroke-width:1.7px;"/><path d="M46.595,22.81c0.064,-0.032 0.101,0.175 0.113,0.621c0.012,0.445 0.018,0.963 0.018,1.553l0,1.713c0,0.552 0.01,0.982 0.03,1.291c0.02,0.309 0.044,0.496 0.071,0.563c0.038,0.092 0.033,0.008 -0.012,-0.254" style="fill:none;fill-rule:nonzero;stroke:#000;stroke-width:0.85px;"/><path d="M42.305,33.396c-0.048,0.069 -0.097,0.123 -0.145,0.16c-0.033,0.026 -0.015,0.038 0.052,0.038c0.067,0 0.291,-0.014 0.67,-0.041c0.379,-0.027 0.837,-0.076 1.372,-0.145c0.535,-0.07 1.138,-0.144 1.808,-0.224c0.67,-0.08 1.3,-0.151 1.888,-0.213c0.953,-0.1 1.609,-0.138 1.968,-0.115" style="fill:none;fill-rule:nonzero;stroke:#000;stroke-width:0.85px;"/><path d="M45.305,42.803c-0.09,-0.1 -0.191,-0.199 -0.303,-0.297c-0.112,-0.098 -0.225,-0.172 -0.338,-0.222c-0.113,-0.05 -0.261,-0.075 -0.445,-0.077c-0.184,-0.002 -0.403,0.073 -0.656,0.225c-0.253,0.152 -0.499,0.413 -0.736,0.783c-0.238,0.37 -0.407,0.791 -0.508,1.263c-0.101,0.472 -0.096,0.885 0.017,1.237c0.112,0.352 0.339,0.577 0.68,0.674c0.341,0.097 0.719,0.036 1.134,-0.185c0.415,-0.22 0.773,-0.576 1.073,-1.066c0.3,-0.49 0.504,-1.087 0.61,-1.791c0.106,-0.704 0.164,-1.421 0.173,-2.15c0.009,-0.729 0.018,-1.278 0.028,-1.648c0.01,-0.369 0.015,-0.618 0.015,-0.745c0,-0.128 -0.003,-0.226 -0.01,-0.295c-0.007,-0.069 -0.011,-0.121 -0.011,-0.157l-0.001,-0.036l-0.001,0.009c-0.001,0.018 -0.003,0.061 -0.007,0.131c-0.004,0.07 -0.007,0.3 -0.01,0.69c-0.003,0.39 0.018,0.88 0.061,1.47c0.043,0.59 0.127,1.228 0.252,1.916c0.125,0.688 0.235,1.327 0.332,1.918c0.096,0.591 0.181,1.002 0.255,1.232c0.073,0.231 0.151,0.34 0.232,0.327c0.116,-0.018 0.229,-0.278 0.34,-0.778" style="fill:none;fill-rule:nonzero;stroke:#000;stroke-width:0.85px;"/><path d="M50.802,44.146c-0.058,-0.028 -0.111,-0.105 -0.157,-0.23c-0.03,-0.082 -0.045,-0.142 -0.046,-0.182c-0,-0.039 -0,-0.08 -0,-0.121c0,-0.041 -0.003,-0.095 -0.01,-0.162c-0.007,-0.067 -0.05,-0.132 -0.129,-0.196c-0.079,-0.064 -0.195,-0.101 -0.345,-0.111c-0.151,-0.01 -0.332,0.075 -0.544,0.255c-0.212,0.18 -0.399,0.446 -0.561,0.797c-0.162,0.352 -0.247,0.689 -0.255,1.013c-0.008,0.324 0.087,0.558 0.285,0.702c0.198,0.144 0.441,0.204 0.727,0.18c0.286,-0.024 0.548,-0.14 0.787,-0.349c0.238,-0.209 0.43,-0.463 0.575,-0.761c0.145,-0.298 0.239,-0.565 0.281,-0.802c0.042,-0.237 0.063,-0.398 0.061,-0.484c-0.002,-0.086 -0.019,-0.127 -0.051,-0.122c-0.033,0.005 -0.061,0.079 -0.084,0.224c-0.023,0.145 -0.032,0.336 -0.025,0.575c0.006,0.238 0.057,0.49 0.152,0.754c0.095,0.265 0.242,0.506 0.441,0.725c0.198,0.219 0.412,0.396 0.641,0.53c0.229,0.134 0.377,0.218 0.446,0.253l0.052,0.026l-0.155,-0.077" style="fill:none;fill-rule:nonzero;stroke:#000;stroke-width:0.85px;"/><path d="M25.443,30.073c0.012,0.04 0.137,0.09 0.375,0.15c0.238,0.06 0.613,0.094 1.124,0.104c0.512,0.01 1.095,0.024 1.749,0.043c0.654,0.019 1.261,0.033 1.821,0.041c0.56,0.008 1.021,0.009 1.384,0.002c0.363,-0.007 0.588,-0.017 0.674,-0.032c0.119,-0.02 0.006,-0.036 -0.341,-0.048" style="fill:none;fill-rule:nonzero;stroke:#000;stroke-width:0.85px;"/><path d="M25.837,32.654c0.041,0.029 0.178,0.057 0.411,0.087c0.233,0.029 0.55,0.043 0.953,0.041c0.403,-0.002 0.86,-0.009 1.371,-0.021c0.511,-0.012 0.987,-0.018 1.426,-0.019c0.439,-0 0.802,-0 1.087,-0l0.757,0l-0.329,0" style="fill:none;fill-rule:nonzero;stroke:#000;stroke-width:0.85px;"/><path d="M25.771,35.454c-0.036,0.008 -0.019,0.012 0.049,0.013c0.069,0.001 0.241,0.002 0.516,0.005c0.275,0.003 0.627,0.011 1.056,0.025c0.429,0.014 0.914,0.037 1.456,0.071c0.542,0.033 1.079,0.063 1.614,0.088c0.534,0.025 1.003,0.038 1.405,0.039c0.402,0.001 0.689,-0 0.858,-0.002c0.17,-0.002 0.263,-0.006 0.281,-0.011l0.008,-0.003l-0.044,0.008c-0.06,0.012 -0.177,0.031 -0.351,0.055" style="fill:none;fill-rule:nonzero;stroke:#000;stroke-width:0.85px;"/><path d="M7.987,34.272c-0.09,0.003 -0.187,0.029 -0.292,0.078c-0.105,0.049 -0.204,0.144 -0.296,0.287c-0.092,0.142 -0.182,0.335 -0.27,0.58c-0.088,0.244 -0.153,0.521 -0.194,0.831c-0.041,0.309 -0.042,0.61 -0.002,0.901c0.04,0.291 0.158,0.518 0.354,0.679c0.196,0.161 0.458,0.249 0.786,0.264c0.328,0.015 0.699,-0.058 1.113,-0.219c0.414,-0.161 0.792,-0.372 1.134,-0.635c0.342,-0.263 0.626,-0.553 0.854,-0.872c0.228,-0.318 0.402,-0.687 0.523,-1.106c0.121,-0.419 0.203,-0.887 0.246,-1.404c0.043,-0.517 0.078,-1.002 0.106,-1.454c0.027,-0.452 0.041,-0.823 0.042,-1.113c0.001,-0.289 -0.042,-0.556 -0.13,-0.799c-0.088,-0.243 -0.202,-0.494 -0.343,-0.751c-0.141,-0.258 -0.269,-0.497 -0.384,-0.717c-0.115,-0.22 -0.231,-0.407 -0.347,-0.561c-0.116,-0.154 -0.228,-0.267 -0.336,-0.341c-0.107,-0.073 -0.218,-0.116 -0.331,-0.127c-0.114,-0.011 -0.235,0.002 -0.363,0.041c-0.128,0.038 -0.264,0.135 -0.407,0.289c-0.143,0.154 -0.288,0.336 -0.436,0.546c-0.148,0.21 -0.297,0.444 -0.448,0.703c-0.151,0.259 -0.291,0.517 -0.421,0.775c-0.13,0.258 -0.239,0.509 -0.328,0.753c-0.089,0.244 -0.148,0.47 -0.177,0.678c-0.029,0.208 -0.034,0.382 -0.014,0.52c0.02,0.138 0.09,0.269 0.21,0.393c0.12,0.124 0.26,0.255 0.42,0.393c0.16,0.138 0.337,0.259 0.532,0.364c0.195,0.104 0.418,0.176 0.668,0.215c0.25,0.039 0.53,0.05 0.84,0.033c0.309,-0.017 0.613,-0.067 0.911,-0.151c0.298,-0.084 0.577,-0.16 0.838,-0.229c0.261,-0.069 0.532,-0.135 0.813,-0.198c0.281,-0.063 0.541,-0.112 0.78,-0.145c0.239,-0.033 0.386,-0.05 0.442,-0.051l0.028,0.002l-0.284,0.036" style="fill:none;fill-rule:nonzero;stroke:#000;stroke-width:0.85px;"/><path d="M15.556,37.466c-0.014,-0.037 -0.026,-0.117 -0.036,-0.241c-0.01,-0.124 -0.032,-0.225 -0.067,-0.304c-0.035,-0.078 -0.102,-0.14 -0.201,-0.186c-0.099,-0.046 -0.235,-0.067 -0.408,-0.063c-0.173,0.003 -0.375,0.064 -0.606,0.182c-0.232,0.118 -0.444,0.29 -0.636,0.516c-0.193,0.226 -0.322,0.463 -0.387,0.711c-0.066,0.248 -0.073,0.464 -0.022,0.647c0.051,0.184 0.167,0.305 0.348,0.366c0.181,0.06 0.387,0.078 0.619,0.052c0.232,-0.026 0.475,-0.124 0.73,-0.294c0.255,-0.17 0.478,-0.356 0.668,-0.558c0.191,-0.202 0.334,-0.401 0.429,-0.598c0.096,-0.197 0.153,-0.38 0.173,-0.55c0.019,-0.17 0.028,-0.291 0.026,-0.362c-0.002,-0.072 -0.022,-0.098 -0.059,-0.077c-0.037,0.02 -0.069,0.129 -0.095,0.327c-0.026,0.198 -0.016,0.411 0.029,0.64c0.045,0.229 0.144,0.442 0.296,0.637c0.153,0.196 0.313,0.365 0.481,0.509c0.168,0.143 0.325,0.265 0.471,0.365c0.146,0.1 0.176,0.131 0.089,0.092" style="fill:none;fill-rule:nonzero;stroke:#000;stroke-width:0.85px;"/><path d="M62.083,17.545c-0.019,-0.03 -0.012,-0.098 0.02,-0.205c0.02,-0.067 0.119,-0.105 0.295,-0.112c0.177,-0.007 0.457,-0.002 0.841,0.013c0.384,0.016 0.899,0.03 1.543,0.042c0.645,0.012 1.371,0.01 2.179,-0.005c0.808,-0.015 1.594,-0.044 2.357,-0.087c0.763,-0.042 1.486,-0.074 2.168,-0.096c0.682,-0.021 1.349,-0.034 2.001,-0.038c0.652,-0.004 1.28,-0.006 1.886,-0.006c0.605,-0 1.2,-0 1.785,-0c0.585,0 1.156,0.01 1.712,0.029c0.557,0.019 1.123,0.043 1.7,0.071c0.576,0.028 1.2,0.035 1.871,0.02c0.671,-0.015 1.34,-0.047 2.006,-0.097c0.666,-0.05 1.263,-0.075 1.79,-0.075c0.527,-0 1.076,0.016 1.648,0.047c0.572,0.031 1.222,0.039 1.951,0.023c0.729,-0.016 1.458,-0.055 2.186,-0.115c0.728,-0.061 1.408,-0.099 2.038,-0.113c0.63,-0.015 1.239,-0.022 1.827,-0.022c0.588,-0 1.191,-0.011 1.808,-0.031c0.618,-0.021 1.233,-0.055 1.848,-0.103c0.614,-0.048 1.175,-0.079 1.683,-0.094c0.508,-0.015 0.97,-0.011 1.386,0.009c0.416,0.021 0.837,0.049 1.263,0.085c0.426,0.036 0.862,0.054 1.309,0.055c0.447,0.001 0.91,-0.02 1.39,-0.063c0.48,-0.043 0.95,-0.076 1.412,-0.1c0.462,-0.024 0.954,-0.037 1.477,-0.039c0.523,-0.002 1.072,-0.003 1.645,-0.003c0.573,-0 1.139,-0 1.698,-0l1.703,0c0.577,0 1.178,0.001 1.805,0.002c0.627,0.002 1.252,0.007 1.875,0.016c0.623,0.009 1.243,0.017 1.858,0.022c0.615,0.006 1.231,0.008 1.846,0.009c0.615,0 1.211,0.001 1.788,0.003c0.577,0.002 1.13,0.018 1.662,0.048c0.531,0.03 1.069,0.061 1.612,0.094c0.544,0.032 1.091,0.05 1.642,0.052c0.551,0.003 1.091,0.004 1.622,0.004c0.531,0 1.074,0.008 1.63,0.024c0.556,0.016 1.161,0.027 1.815,0.033c0.654,0.006 1.329,0.008 2.024,0.005c0.695,-0.003 1.349,-0.012 1.96,-0.025c0.612,-0.013 1.18,-0.02 1.705,-0.02c0.525,-0 1.062,0.009 1.612,0.029c0.55,0.019 1.144,0.033 1.782,0.042c0.638,0.008 1.293,0.012 1.966,0.01c0.672,-0.002 1.338,-0.009 1.997,-0.022c0.659,-0.013 1.29,-0.02 1.895,-0.023c0.605,-0.002 1.188,0.006 1.75,0.026c0.562,0.019 1.149,0.036 1.76,0.05c0.611,0.014 1.24,0.015 1.888,0.003c0.648,-0.012 1.284,-0.034 1.908,-0.068c0.624,-0.033 1.216,-0.052 1.777,-0.057c0.56,-0.005 1.099,-0.007 1.617,-0.007c0.518,0 1.06,-0.008 1.629,-0.024c0.568,-0.016 1.166,-0.042 1.792,-0.078c0.627,-0.037 1.243,-0.074 1.849,-0.114c0.606,-0.039 1.203,-0.066 1.792,-0.08c0.589,-0.014 1.185,-0.023 1.787,-0.027c0.602,-0.004 1.218,-0.008 1.849,-0.014c0.631,-0.006 1.254,-0.015 1.869,-0.027c0.615,-0.013 1.187,-0.027 1.714,-0.044c0.527,-0.017 1.037,-0.028 1.529,-0.034c0.492,-0.006 0.971,-0.009 1.437,-0.009c0.466,-0 0.93,-0 1.391,-0l2.712,0c0.445,0 0.879,0.011 1.303,0.032c0.424,0.021 0.827,0.056 1.211,0.105c0.383,0.049 0.75,0.098 1.099,0.147c0.349,0.049 0.688,0.085 1.017,0.11c0.328,0.025 0.657,0.041 0.985,0.047c0.328,0.006 0.647,0.009 0.958,0.009c0.311,0 0.601,0 0.871,0c0.27,0 0.535,-0.005 0.794,-0.016c0.26,-0.011 0.504,-0.022 0.734,-0.033c0.23,-0.011 0.423,-0.017 0.58,-0.018c0.157,-0 0.263,-0 0.319,-0c0.055,0 0.072,-0.005 0.05,-0.014c-0.031,-0.014 -0.129,-0.056 -0.293,-0.128" style="fill:none;fill-rule:nonzero;stroke:#983da2;stroke-width:0.85px;stroke-dasharray:0,1.701;"/><path d="M61.973,49.007c0.015,-0.012 0.187,-0.02 0.518,-0.023c0.331,-0.003 0.772,0.014 1.324,0.053c0.552,0.039 1.225,0.089 2.019,0.15c0.794,0.061 1.692,0.102 2.695,0.122c1.002,0.02 2.057,0.031 3.165,0.031c1.107,0 2.164,0 3.17,0c1.006,0 2.035,-0.008 3.086,-0.023c1.051,-0.015 2.09,-0.043 3.117,-0.082c1.026,-0.039 1.984,-0.054 2.873,-0.043c0.889,0.011 1.747,0.05 2.573,0.115c0.826,0.066 1.696,0.1 2.609,0.103c0.913,0.003 1.803,-0.032 2.67,-0.106c0.867,-0.074 1.667,-0.128 2.401,-0.162c0.734,-0.034 1.429,-0.051 2.087,-0.052c0.658,-0 1.366,-0.001 2.123,-0.001c0.758,0 1.543,-0.015 2.356,-0.045c0.813,-0.03 1.604,-0.07 2.373,-0.12c0.769,-0.05 1.513,-0.085 2.232,-0.105c0.719,-0.02 1.412,-0.026 2.077,-0.018c0.665,0.008 1.325,0.028 1.981,0.059c0.656,0.031 1.323,0.049 2,0.054c0.677,0.005 1.35,-0 2.019,-0.014c0.669,-0.014 1.314,-0.025 1.936,-0.033c0.622,-0.008 1.236,0.009 1.843,0.051c0.607,0.042 1.215,0.097 1.826,0.167c0.611,0.069 1.236,0.109 1.877,0.121c0.64,0.011 1.269,0.01 1.886,-0.004c0.617,-0.014 1.21,-0.029 1.78,-0.044c0.57,-0.015 1.169,-0.034 1.798,-0.055c0.629,-0.022 1.284,-0.043 1.965,-0.064c0.681,-0.021 1.363,-0.034 2.045,-0.04c0.682,-0.006 1.368,-0.009 2.059,-0.009c0.69,-0 1.401,-0.01 2.132,-0.031c0.731,-0.021 1.462,-0.055 2.195,-0.103c0.733,-0.048 1.442,-0.079 2.128,-0.094c0.686,-0.015 1.343,-0.019 1.97,-0.014c0.627,0.005 1.289,0.011 1.986,0.017c0.697,0.006 1.418,0.003 2.163,-0.009c0.745,-0.012 1.46,-0.038 2.147,-0.079c0.687,-0.04 1.336,-0.065 1.948,-0.074c0.612,-0.009 1.219,-0.013 1.821,-0.013c0.602,0 1.211,-0.003 1.828,-0.01c0.617,-0.007 1.254,-0.034 1.912,-0.08c0.658,-0.047 1.325,-0.089 2.001,-0.127c0.676,-0.038 1.342,-0.061 1.997,-0.07c0.655,-0.008 1.316,-0.013 1.982,-0.013c0.666,-0 1.345,-0 2.035,-0l6.157,0c0.692,0 1.379,-0.001 2.061,-0.003c0.681,-0.002 1.325,-0.004 1.93,-0.008c0.605,-0.004 1.177,-0.006 1.715,-0.006c0.538,0 1.072,0.004 1.604,0.013c0.531,0.009 1.053,0.022 1.564,0.041c0.511,0.018 0.998,0.041 1.461,0.069c0.463,0.027 0.908,0.057 1.336,0.088c0.427,0.032 0.849,0.062 1.264,0.092c0.416,0.03 0.822,0.058 1.219,0.087c0.397,0.028 0.806,0.048 1.227,0.06c0.421,0.012 0.851,0.018 1.288,0.018c0.437,0 0.873,0 1.306,0l5.732,0l0.018,0.001l-0.045,0.005c-0.072,0.006 -0.17,0.024 -0.294,0.056" style="fill:none;fill-rule:nonzero;stroke:#983da2;stroke-width:0.85px;stroke-dasharray:0,1.701;"/><path d="M61.374,33.026c-0.123,-0.072 -0.244,-0.152 -0.363,-0.241c-0.08,-0.059 -0.097,-0.089 -0.051,-0.09c0.045,-0 0.243,-0.001 0.593,-0.001l1.505,0c0.653,0 1.424,0.019 2.311,0.058c0.887,0.038 1.819,0.092 2.795,0.161c0.976,0.069 1.928,0.127 2.857,0.176c0.929,0.049 1.824,0.095 2.685,0.14c0.861,0.044 1.68,0.107 2.458,0.189c0.777,0.082 1.54,0.177 2.289,0.286c0.749,0.109 1.5,0.209 2.254,0.302c0.754,0.092 1.537,0.155 2.35,0.189c0.813,0.034 1.623,0.051 2.431,0.051c0.808,0 1.6,-0.002 2.377,-0.007c0.776,-0.005 1.558,-0.008 2.346,-0.008c0.788,-0 1.587,-0.001 2.396,-0.003c0.809,-0.002 1.658,-0.013 2.548,-0.035c0.89,-0.021 1.785,-0.05 2.687,-0.084c0.902,-0.035 1.792,-0.073 2.671,-0.116c0.879,-0.042 1.728,-0.087 2.548,-0.133c0.82,-0.046 1.665,-0.104 2.536,-0.173c0.871,-0.069 1.722,-0.133 2.554,-0.192c0.832,-0.059 1.602,-0.097 2.31,-0.115c0.708,-0.018 1.397,-0.037 2.066,-0.057c0.669,-0.02 1.358,-0.05 2.068,-0.09c0.71,-0.04 1.426,-0.075 2.149,-0.106c0.723,-0.03 1.434,-0.049 2.134,-0.055c0.7,-0.006 1.404,-0.008 2.113,-0.004c0.709,0.003 1.42,0.006 2.134,0.008c0.714,0.002 1.406,0.003 2.074,0.003c0.669,0 1.337,-0.001 2.006,-0.003c0.668,-0.002 1.342,-0.01 2.023,-0.024c0.68,-0.014 1.355,-0.033 2.024,-0.054c0.669,-0.022 1.357,-0.05 2.065,-0.085c0.708,-0.035 1.424,-0.069 2.146,-0.103c0.723,-0.034 1.44,-0.063 2.152,-0.087c0.712,-0.024 1.414,-0.048 2.107,-0.073c0.693,-0.024 1.361,-0.039 2.006,-0.046c0.645,-0.006 1.291,-0.01 1.938,-0.01c0.648,0 1.306,-0.003 1.975,-0.008c0.669,-0.005 1.325,-0.011 1.97,-0.017c0.644,-0.006 1.268,-0.009 1.87,-0.009c0.602,-0 1.185,-0 1.749,-0l1.749,0c0.602,0 1.233,-0.004 1.896,-0.013c0.662,-0.009 1.314,-0.017 1.954,-0.025c0.641,-0.008 1.262,-0.012 1.864,-0.012c0.601,0 1.214,0.004 1.836,0.013c0.623,0.009 1.274,0.022 1.954,0.041c0.68,0.018 1.387,0.031 2.12,0.037c0.734,0.006 1.486,0.008 2.256,0.007c0.77,-0.002 1.53,-0.004 2.277,-0.008c0.748,-0.004 1.501,-0.006 2.26,-0.006l2.315,0c0.785,0 1.58,-0.007 2.386,-0.021c0.806,-0.014 1.577,-0.025 2.313,-0.033c0.736,-0.008 1.419,-0.012 2.049,-0.012c0.63,0 1.207,0.011 1.733,0.034c0.525,0.023 1.007,0.054 1.444,0.095c0.437,0.041 0.887,0.078 1.349,0.112c0.462,0.034 0.886,0.064 1.273,0.09c0.387,0.026 0.71,0.05 0.969,0.073c0.259,0.022 0.498,0.042 0.716,0.059c0.218,0.017 0.428,0.028 0.631,0.032c0.203,0.004 0.372,0.006 0.506,0.006c0.135,0 0.229,0 0.281,0l0.126,0c0.011,0 0.024,-0.003 0.038,-0.008c0.015,-0.005 0.026,-0.011 0.034,-0.016c0.008,-0.006 0.014,-0.008 0.018,-0.009c0.004,-0 -0,0.005 -0.012,0.015c-0.017,0.014 -0.071,0.059 -0.162,0.135" style="fill:none;fill-rule:nonzero;stroke:#983da2;stroke-width:0.85px;stroke-dasharray:0,1.701;"/><path d="M196.885,47.639c-0.01,-0.034 0.06,-0.121 0.208,-0.262c0.148,-0.141 0.327,-0.3 0.535,-0.476c0.208,-0.176 0.402,-0.347 0.582,-0.514c0.18,-0.167 0.314,-0.282 0.403,-0.345c0.089,-0.064 0.143,-0.07 0.162,-0.02c0.019,0.051 0.01,0.185 -0.027,0.404c-0.037,0.219 -0.081,0.489 -0.134,0.812c-0.052,0.322 -0.092,0.693 -0.119,1.11c-0.027,0.418 -0.039,0.823 -0.036,1.215c0.003,0.392 0.024,0.709 0.063,0.951c0.039,0.241 0.075,0.431 0.108,0.568c0.033,0.138 0.05,0.254 0.053,0.35l0.002,0.072l-0.006,-0.215" style="fill:none;fill-rule:nonzero;stroke:#983da2;stroke-width:0.85px;"/><path d="M196.684,52.709c0.025,-0.054 0.217,-0.125 0.576,-0.214c0.359,-0.089 0.812,-0.172 1.358,-0.248c0.818,-0.114 1.622,-0.316 2.412,-0.606" style="fill:none;fill-rule:nonzero;stroke:#983da2;stroke-width:0.85px;"/><path d="M194.943,31.76c-0.019,-0.182 -0.011,-0.4 0.026,-0.653c0.024,-0.166 0.131,-0.275 0.322,-0.329c0.191,-0.054 0.448,-0.087 0.771,-0.099c0.323,-0.013 0.622,0.006 0.897,0.056c0.274,0.05 0.476,0.165 0.606,0.344c0.13,0.179 0.18,0.411 0.149,0.696c-0.031,0.285 -0.167,0.619 -0.408,1.001c-0.241,0.382 -0.504,0.779 -0.789,1.191c-0.285,0.412 -0.502,0.768 -0.653,1.068c-0.151,0.3 -0.218,0.51 -0.202,0.63c0.016,0.12 0.136,0.188 0.36,0.205c0.224,0.017 0.501,0.018 0.83,0.002c0.329,-0.016 0.687,-0.039 1.075,-0.071c0.388,-0.031 0.743,-0.051 1.064,-0.06l0.241,-0.006l-0.724,0.019" style="fill:none;fill-rule:nonzero;stroke:#983da2;stroke-width:0.85px;"/><path d="M194.033,13.665c0,-0.111 0.012,-0.225 0.036,-0.344c0.024,-0.119 0.136,-0.223 0.337,-0.313c0.201,-0.089 0.516,-0.169 0.947,-0.239c0.43,-0.07 0.863,-0.103 1.298,-0.099c0.435,0.004 0.776,0.071 1.024,0.202c0.247,0.131 0.376,0.288 0.385,0.472c0.009,0.184 -0.113,0.376 -0.365,0.576c-0.253,0.2 -0.512,0.38 -0.779,0.539c-0.266,0.16 -0.456,0.302 -0.567,0.427c-0.112,0.125 -0.123,0.255 -0.034,0.389c0.089,0.134 0.32,0.281 0.693,0.44c0.373,0.159 0.782,0.341 1.227,0.548c0.445,0.207 0.822,0.434 1.131,0.682c0.309,0.248 0.503,0.489 0.582,0.726c0.079,0.236 0.017,0.449 -0.186,0.639c-0.203,0.19 -0.534,0.327 -0.992,0.413c-0.458,0.086 -0.944,0.126 -1.457,0.12c-0.766,-0.009 -1.388,-0.226 -1.864,-0.653" style="fill:none;fill-rule:nonzero;stroke:#983da2;stroke-width:0.85px;"/><g transform="matrix(1,0,0,0.563039,0,-13.423432)"><text x="176.781px" y="42.937px" style="font-family:'Helvetica';font-size:10.453px;fill:none;">a</text></g><g transform="matrix(1,0,0,0.1611,0,-25.771005)"><text x="6.448px" y="462.384px" style="font-family:'Helvetica';font-size:291.515px;fill:none;">&amp;</text></g><g transform="matrix(0.40114,0,0,1,21.276398,0)"><text x="125.313px" y="43.408px" style="font-family:'Helvetica';font-size:28.03px;fill:none;">S</text></g><g transform="matrix(1,0,0,0.527704,0,-14.508927)"><text x="68.876px" y="140.038px" style="font-family:'Helvetica';font-size:11.974px;fill:none;">a</text></g><g transform="matrix(1,0,0,0.414309,0,-17.992442)"><text x="107.539px" y="188.122px" style="font-family:'Helvetica';font-size:9.2px;fill:none;">a</text></g></svg>