<?xml version="1.0" encoding="UTF-8" standalone="no"?><!DOCTYPE svg PUBLIC "-//W3C//DTD SVG 1.1//EN" "http://www.w3.org/Graphics/SVG/1.1/DTD/svg11.dtd"><svg width="100%" height="100%" viewBox="0 0 279 65" version="1.1" xmlns="http://www.w3.org/2000/svg" xmlns:xlink="http://www.w3.org/1999/xlink" xml:space="preserve" xmlns:serif="http://www.serif.com/" style="fill-rule:evenodd;clip-rule:evenodd;stroke-linecap:round;stroke-linejoin:round;stroke-miterlimit:10;"><rect id="Artboard3" x="0" y="0" width="278.4" height="64.8" style="fill:#fff;"/><clipPath id="_clip1"><rect id="Artboard31" serif:id="Artboard3" x="0" y="0" width="278.4" height="64.8"/></clipPath><g clip-path="url(#_clip1)"><path d="M10.034,10.128c-0.065,0.019 -0.104,0.137 -0.119,0.354c-0.014,0.217 -0.003,0.516 0.035,0.898c0.038,0.382 0.075,0.822 0.112,1.32c0.037,0.498 0.06,0.986 0.068,1.462c0.008,0.476 0.013,0.909 0.013,1.299c0,0.39 0,0.75 0,1.08c0,0.33 -0.001,0.644 -0.003,0.941c-0.002,0.298 -0.017,0.579 -0.045,0.846c-0.028,0.266 -0.059,0.52 -0.093,0.761c-0.034,0.241 -0.066,0.503 -0.096,0.785c-0.03,0.282 -0.053,0.58 -0.07,0.893c-0.017,0.313 -0.031,0.607 -0.041,0.881c-0.01,0.274 -0.02,0.523 -0.03,0.746c-0.01,0.223 -0.015,0.407 -0.015,0.551c-0,0.144 -0,0.249 -0,0.315l0,0.142c0,0.04 0.009,0.013 0.028,-0.082" style="fill:none;fill-rule:nonzero;stroke:#000;stroke-width:0.85px;"/><path d="M26.901,24.54c-0.052,-0.009 -0.136,-0.038 -0.252,-0.087c-0.073,-0.031 -0.12,-0.063 -0.143,-0.099c-0.023,-0.035 -0.036,-0.098 -0.039,-0.187c-0.003,-0.09 0.002,-0.233 0.016,-0.431c0.013,-0.197 0.068,-0.444 0.165,-0.74c0.096,-0.296 0.219,-0.608 0.369,-0.936c0.149,-0.328 0.317,-0.647 0.503,-0.96c0.186,-0.312 0.377,-0.592 0.574,-0.841c0.197,-0.248 0.394,-0.466 0.59,-0.652c0.196,-0.186 0.406,-0.361 0.628,-0.525c0.223,-0.164 0.456,-0.316 0.701,-0.458c0.245,-0.142 0.507,-0.283 0.788,-0.423c0.281,-0.141 0.564,-0.283 0.851,-0.427c0.287,-0.144 0.572,-0.277 0.854,-0.399c0.282,-0.123 0.549,-0.228 0.801,-0.317c0.252,-0.089 0.494,-0.16 0.728,-0.215c0.234,-0.054 0.474,-0.11 0.721,-0.168c0.247,-0.058 0.5,-0.145 0.757,-0.261c0.258,-0.117 0.507,-0.243 0.749,-0.38c0.242,-0.136 0.448,-0.253 0.619,-0.349c0.171,-0.096 0.317,-0.178 0.44,-0.244c0.122,-0.066 0.249,-0.139 0.379,-0.219c0.131,-0.079 0.278,-0.177 0.442,-0.292c0.164,-0.115 0.337,-0.246 0.519,-0.393c0.182,-0.147 0.366,-0.306 0.553,-0.475c0.187,-0.17 0.364,-0.333 0.531,-0.489c0.167,-0.156 0.308,-0.304 0.424,-0.443c0.116,-0.139 0.221,-0.286 0.317,-0.44c0.095,-0.155 0.196,-0.328 0.302,-0.521c0.106,-0.193 0.205,-0.389 0.296,-0.589c0.091,-0.2 0.165,-0.393 0.222,-0.581c0.057,-0.188 0.094,-0.381 0.11,-0.579c0.016,-0.198 0.029,-0.408 0.038,-0.629c0.009,-0.221 0.02,-0.427 0.033,-0.618c0.012,-0.191 0.02,-0.345 0.023,-0.459c0.004,-0.158 -0.08,-0.161 -0.251,-0.011" style="fill:none;fill-rule:nonzero;stroke:#000;stroke-width:0.85px;"/><path d="M27.403,9.384c-0.096,0.003 -0.134,0.139 -0.115,0.407c0.019,0.268 0.063,0.561 0.133,0.88c0.07,0.319 0.154,0.63 0.253,0.933c0.099,0.303 0.196,0.569 0.291,0.799c0.095,0.229 0.192,0.403 0.291,0.522c0.099,0.118 0.226,0.189 0.381,0.211l0.116,0.017l-0.348,-0.051" style="fill:none;fill-rule:nonzero;stroke:#000;stroke-width:0.85px;"/><path d="M37.073,18.769c-0.029,-0.115 0.035,-0.158 0.192,-0.128c0.156,0.03 0.338,0.121 0.545,0.274c0.207,0.153 0.435,0.33 0.684,0.53c0.249,0.2 0.499,0.408 0.75,0.624c0.251,0.216 0.475,0.432 0.672,0.649c0.197,0.216 0.359,0.437 0.485,0.663c0.126,0.225 0.235,0.453 0.326,0.682c0.091,0.229 0.17,0.441 0.236,0.637c0.066,0.196 0.119,0.37 0.156,0.523c0.038,0.153 0.059,0.274 0.065,0.364c0.006,0.09 0.018,0.157 0.036,0.202c0.019,0.045 0.049,0.076 0.091,0.094c0.059,0.025 0.148,-0.031 0.265,-0.167" style="fill:none;fill-rule:nonzero;stroke:#000;stroke-width:0.85px;"/><path d="M58.402,10.171c-0.074,-0.005 -0.117,0.143 -0.129,0.445c-0.012,0.301 0.002,0.674 0.041,1.118c0.039,0.444 0.091,0.932 0.154,1.465c0.063,0.533 0.117,1.061 0.162,1.586c0.045,0.524 0.083,1.001 0.115,1.43c0.032,0.429 0.059,0.815 0.081,1.159c0.022,0.343 0.035,0.662 0.038,0.957c0.003,0.295 0.01,0.586 0.022,0.873c0.012,0.288 0.032,0.561 0.061,0.819c0.029,0.259 0.051,0.503 0.066,0.732c0.015,0.23 0.023,0.448 0.024,0.655c0,0.207 0,0.416 0,0.627c0,0.211 -0.007,0.42 -0.021,0.628c-0.014,0.208 -0.028,0.382 -0.043,0.524c-0.015,0.141 -0.023,0.248 -0.023,0.321c-0,0.072 -0,0.124 -0,0.153c0,0.041 -0.025,0.026 -0.075,-0.044" style="fill:none;fill-rule:nonzero;stroke:#000;stroke-width:0.85px;"/><path d="M74.612,9.865c-0.079,-0.01 -0.143,0.108 -0.191,0.355c-0.048,0.247 -0.066,0.572 -0.055,0.974c0.011,0.402 0.048,0.887 0.109,1.456c0.062,0.569 0.114,1.14 0.157,1.713c0.043,0.573 0.074,1.091 0.094,1.552c0.02,0.462 0.04,0.882 0.059,1.261c0.019,0.379 0.045,0.736 0.079,1.07c0.034,0.334 0.059,0.654 0.074,0.959c0.015,0.305 0.022,0.6 0.02,0.885c-0.002,0.285 -0.021,0.573 -0.059,0.864c-0.037,0.291 -0.075,0.582 -0.112,0.871c-0.037,0.29 -0.058,0.562 -0.061,0.816c-0.003,0.255 0.002,0.469 0.015,0.643c0.014,0.174 0.04,0.292 0.078,0.354c0.039,0.062 0.071,0.097 0.098,0.106c0.037,0.012 0.085,-0.076 0.143,-0.265" style="fill:none;fill-rule:nonzero;stroke:#000;stroke-width:0.85px;"/><path d="M90.276,9.69c-0.06,-0.065 -0.126,-0.065 -0.196,-0.001c-0.07,0.064 -0.117,0.293 -0.14,0.686c-0.023,0.393 -0.035,0.859 -0.035,1.397c-0,0.538 0.011,1.107 0.034,1.706c0.023,0.599 0.038,1.205 0.044,1.818c0.006,0.613 0.016,1.173 0.03,1.681c0.014,0.508 0.025,0.977 0.033,1.407c0.008,0.43 0.012,0.818 0.012,1.164c0,0.346 0,0.659 0,0.941c0,0.282 0.004,0.558 0.013,0.831c0.009,0.272 0.029,0.547 0.06,0.824c0.031,0.277 0.056,0.539 0.073,0.786c0.018,0.247 0.041,0.463 0.069,0.647c0.028,0.184 0.064,0.373 0.108,0.567c0.043,0.194 0.086,0.363 0.128,0.507c0.042,0.144 0.071,0.242 0.089,0.294c0.024,0.072 0.045,0.021 0.061,-0.153" style="fill:none;fill-rule:nonzero;stroke:#000;stroke-width:0.85px;"/><path d="M17.559,32.135c-0.02,-0.011 0.092,-0.11 0.337,-0.297c0.245,-0.187 0.519,-0.41 0.824,-0.668c0.305,-0.258 0.646,-0.555 1.023,-0.891c0.377,-0.336 0.735,-0.655 1.074,-0.956c0.338,-0.302 0.635,-0.564 0.89,-0.788c0.255,-0.223 0.504,-0.454 0.747,-0.691c0.243,-0.237 0.492,-0.47 0.747,-0.7c0.255,-0.23 0.498,-0.434 0.731,-0.614c0.232,-0.179 0.447,-0.341 0.646,-0.485c0.198,-0.144 0.369,-0.292 0.512,-0.445c0.143,-0.153 0.269,-0.3 0.377,-0.443c0.108,-0.142 0.176,-0.231 0.204,-0.266l0.021,-0.026l-0.062,0.079" style="fill:none;fill-rule:nonzero;stroke:#000;stroke-width:0.85px;"/><path d="M9.924,24.588c0.03,0.001 0.174,0.114 0.429,0.338c0.256,0.224 0.536,0.47 0.84,0.738c0.304,0.268 0.654,0.539 1.048,0.814c0.394,0.275 0.767,0.551 1.118,0.828c0.351,0.277 0.641,0.569 0.872,0.876c0.23,0.308 0.446,0.59 0.647,0.846c0.201,0.256 0.431,0.462 0.69,0.615c0.259,0.154 0.492,0.298 0.699,0.434c0.207,0.136 0.376,0.28 0.507,0.433c0.131,0.153 0.253,0.291 0.364,0.414c0.112,0.123 0.239,0.226 0.381,0.307c0.142,0.081 0.283,0.155 0.422,0.221c0.14,0.066 0.244,0.115 0.313,0.147c0.098,0.045 0.161,0.037 0.189,-0.026" style="fill:none;fill-rule:nonzero;stroke:#000;stroke-width:0.85px;"/><path d="M41.534,25.06c-0.06,0.012 -0.152,-0.001 -0.277,-0.04c-0.079,-0.024 -0.121,-0.04 -0.125,-0.049c-0.004,-0.008 0.062,0.007 0.197,0.046c0.135,0.039 0.356,0.172 0.662,0.398c0.306,0.226 0.634,0.497 0.984,0.812c0.35,0.315 0.715,0.655 1.097,1.019c0.382,0.364 0.738,0.716 1.068,1.058c0.331,0.342 0.64,0.658 0.928,0.95c0.288,0.292 0.567,0.541 0.837,0.749c0.27,0.207 0.557,0.381 0.862,0.521c0.305,0.14 0.584,0.268 0.839,0.383c0.254,0.115 0.451,0.224 0.591,0.326c0.14,0.102 0.246,0.193 0.319,0.272c0.073,0.079 0.124,0.145 0.154,0.196l0.023,0.039l-0.068,-0.117" style="fill:none;fill-rule:nonzero;stroke:#000;stroke-width:0.85px;"/><path d="M50.724,31.326c0.026,-0.06 0.111,-0.151 0.257,-0.271c0.146,-0.121 0.369,-0.288 0.668,-0.502c0.3,-0.214 0.683,-0.503 1.148,-0.867c0.466,-0.364 0.97,-0.769 1.514,-1.215c0.543,-0.446 1.05,-0.844 1.518,-1.195c0.469,-0.35 0.863,-0.637 1.182,-0.86c0.319,-0.223 0.567,-0.423 0.744,-0.601c0.177,-0.178 0.327,-0.354 0.451,-0.527c0.123,-0.174 0.205,-0.297 0.244,-0.37c0.053,-0.099 0.016,-0.108 -0.113,-0.027" style="fill:none;fill-rule:nonzero;stroke:#000;stroke-width:0.85px;"/><path d="M74.767,24.478c-0.03,-0.055 -0.063,-0.123 -0.098,-0.204c-0.023,-0.053 -0.026,-0.029 -0.009,0.071c0.017,0.1 0.068,0.258 0.155,0.475c0.087,0.217 0.207,0.416 0.362,0.597c0.155,0.182 0.369,0.381 0.644,0.598c0.274,0.217 0.602,0.471 0.984,0.762c0.381,0.291 0.758,0.605 1.129,0.942c0.371,0.337 0.706,0.648 1.006,0.933c0.299,0.285 0.554,0.527 0.764,0.727c0.21,0.199 0.385,0.399 0.526,0.6c0.14,0.201 0.278,0.408 0.414,0.623c0.136,0.215 0.273,0.381 0.412,0.5c0.139,0.118 0.276,0.189 0.412,0.211c0.136,0.022 0.265,0.034 0.387,0.034l0.091,0l-0.274,-0" style="fill:none;fill-rule:nonzero;stroke:#000;stroke-width:0.85px;"/><path d="M82.863,31.727c-0.048,0.023 -0.098,0.074 -0.15,0.154c-0.033,0.052 0.001,0.055 0.104,0.008c0.103,-0.046 0.326,-0.22 0.669,-0.521c0.343,-0.301 0.807,-0.732 1.392,-1.294c0.585,-0.562 1.217,-1.169 1.897,-1.821c0.68,-0.652 1.276,-1.22 1.786,-1.705c0.51,-0.485 0.891,-0.86 1.143,-1.123" style="fill:none;fill-rule:nonzero;stroke:#000;stroke-width:0.85px;"/><path d="M33.813,41.411c0.048,-0.034 0.138,-0.072 0.27,-0.114c0.132,-0.042 0.332,-0.127 0.6,-0.252c0.268,-0.126 0.709,-0.37 1.323,-0.733c0.614,-0.363 1.31,-0.781 2.09,-1.254c0.779,-0.473 1.485,-0.903 2.116,-1.288c0.632,-0.386 1.189,-0.727 1.672,-1.024c0.483,-0.297 0.937,-0.569 1.361,-0.816c0.425,-0.247 0.825,-0.473 1.201,-0.675c0.376,-0.203 0.741,-0.404 1.094,-0.603c0.353,-0.199 0.689,-0.409 1.006,-0.629c0.318,-0.22 0.609,-0.449 0.873,-0.687c0.264,-0.238 0.511,-0.459 0.741,-0.663c0.23,-0.204 0.43,-0.355 0.601,-0.454c0.171,-0.099 0.285,-0.159 0.344,-0.181l0.044,-0.016l-0.131,0.049" style="fill:none;fill-rule:nonzero;stroke:#000;stroke-width:0.85px;"/><path d="M18.369,32.135c-0,-0.043 -0,-0.142 -0,-0.299c0,-0.094 0.001,-0.146 0.003,-0.158c0.002,-0.012 0.064,0.031 0.186,0.127c0.122,0.097 0.364,0.261 0.727,0.492c0.363,0.232 0.801,0.507 1.313,0.825c0.512,0.318 1.044,0.673 1.597,1.064c0.553,0.391 1.127,0.792 1.724,1.203c0.596,0.411 1.202,0.79 1.817,1.136c0.615,0.346 1.182,0.649 1.7,0.909c0.518,0.26 0.951,0.515 1.297,0.765c0.346,0.25 0.663,0.488 0.95,0.713c0.287,0.225 0.604,0.424 0.952,0.596c0.347,0.172 0.681,0.33 1.003,0.474c0.322,0.144 0.59,0.287 0.805,0.428c0.215,0.141 0.404,0.27 0.569,0.388c0.164,0.118 0.303,0.214 0.417,0.289c0.113,0.075 0.211,0.138 0.292,0.189c0.081,0.052 0.164,0.087 0.248,0.105c0.12,0.026 0.285,-0.158 0.495,-0.553" style="fill:none;fill-rule:nonzero;stroke:#000;stroke-width:0.85px;"/><path d="M58.249,49.658c0.015,0.018 0.214,-0.089 0.6,-0.322c0.385,-0.233 0.871,-0.524 1.459,-0.874c0.587,-0.351 1.225,-0.732 1.914,-1.143c0.689,-0.412 1.357,-0.832 2.004,-1.259c0.647,-0.428 1.245,-0.839 1.796,-1.235c0.551,-0.396 1.07,-0.785 1.557,-1.168c0.487,-0.383 0.968,-0.791 1.443,-1.225c0.475,-0.434 0.941,-0.858 1.398,-1.273c0.458,-0.415 0.896,-0.796 1.316,-1.144c0.42,-0.348 0.835,-0.695 1.245,-1.041c0.41,-0.346 0.842,-0.705 1.295,-1.077c0.453,-0.372 0.905,-0.724 1.356,-1.057c0.451,-0.333 0.846,-0.624 1.184,-0.875c0.339,-0.251 0.637,-0.497 0.895,-0.739c0.258,-0.242 0.548,-0.511 0.869,-0.809c0.321,-0.298 0.636,-0.58 0.944,-0.847c0.308,-0.267 0.588,-0.494 0.84,-0.682c0.252,-0.188 0.503,-0.356 0.753,-0.505c0.25,-0.149 0.474,-0.278 0.672,-0.387c0.198,-0.109 0.33,-0.184 0.396,-0.227c0.092,-0.058 0.041,-0.083 -0.152,-0.076" style="fill:none;fill-rule:nonzero;stroke:#000;stroke-width:0.85px;"/><path d="M34.316,42.045c-0.029,-0.105 0.08,-0.154 0.328,-0.145c0.248,0.009 0.565,0.099 0.952,0.271c0.387,0.172 0.9,0.393 1.542,0.663c0.641,0.269 1.368,0.543 2.179,0.822c0.811,0.278 1.578,0.525 2.3,0.739c0.722,0.214 1.406,0.384 2.051,0.508c0.645,0.125 1.272,0.246 1.88,0.363c0.608,0.118 1.157,0.272 1.647,0.462c0.49,0.19 0.979,0.374 1.466,0.553c0.487,0.178 1.003,0.334 1.548,0.467c0.545,0.133 1.086,0.258 1.626,0.375c0.539,0.117 1.039,0.239 1.498,0.368c0.459,0.128 0.896,0.257 1.311,0.386c0.415,0.129 0.791,0.272 1.127,0.428c0.336,0.157 0.642,0.305 0.915,0.445c0.274,0.14 0.53,0.257 0.77,0.351c0.24,0.094 0.457,0.162 0.654,0.202c0.196,0.041 0.361,0.063 0.495,0.066c0.133,0.003 0.219,0.005 0.255,0.005c0.052,0 -0.001,-0.288 -0.159,-0.864" style="fill:none;fill-rule:nonzero;stroke:#000;stroke-width:0.85px;"/><path d="M19.944,39.595c0,-0.086 -0.006,-0.19 -0.017,-0.314c-0.011,-0.124 -0.034,-0.229 -0.069,-0.317c-0.035,-0.088 -0.087,-0.184 -0.158,-0.289c-0.07,-0.105 -0.156,-0.186 -0.256,-0.244c-0.1,-0.057 -0.237,-0.076 -0.409,-0.056c-0.172,0.02 -0.363,0.141 -0.571,0.361c-0.209,0.22 -0.381,0.52 -0.516,0.9c-0.136,0.38 -0.193,0.747 -0.173,1.1c0.02,0.354 0.176,0.6 0.467,0.738c0.291,0.138 0.639,0.142 1.044,0.011c0.405,-0.131 0.739,-0.348 1.002,-0.654c0.263,-0.305 0.421,-0.596 0.474,-0.871c0.052,-0.275 0.047,-0.48 -0.017,-0.615c-0.064,-0.135 -0.138,-0.214 -0.222,-0.239c-0.084,-0.025 -0.139,0.005 -0.165,0.09c-0.026,0.085 -0.005,0.234 0.063,0.449c0.068,0.215 0.177,0.469 0.326,0.764c0.149,0.295 0.331,0.584 0.546,0.867c0.316,0.415 0.711,0.603 1.185,0.564" style="fill:none;fill-rule:nonzero;stroke:#000;stroke-width:0.85px;"/><path d="M46.698,36.379c-0.008,-0.016 -0.007,0.01 0.002,0.079c0.009,0.069 0.032,0.241 0.068,0.517c0.036,0.276 0.091,0.583 0.163,0.921c0.072,0.338 0.138,0.683 0.197,1.037c0.059,0.354 0.11,0.63 0.151,0.829c0.042,0.199 0.073,0.315 0.093,0.346c0.02,0.032 0.033,-0.011 0.039,-0.128c0.005,-0.117 0.02,-0.299 0.045,-0.546c0.025,-0.247 0.111,-0.493 0.259,-0.738c0.148,-0.245 0.363,-0.443 0.645,-0.596c0.282,-0.152 0.575,-0.246 0.878,-0.282c0.303,-0.036 0.547,0.001 0.732,0.111c0.185,0.11 0.305,0.278 0.36,0.505c0.055,0.226 0.043,0.449 -0.036,0.669c-0.079,0.22 -0.209,0.41 -0.39,0.57c-0.181,0.16 -0.358,0.292 -0.531,0.393c-0.173,0.102 -0.353,0.174 -0.539,0.218c-0.186,0.043 -0.401,0.06 -0.645,0.05c-0.244,-0.01 -0.437,-0.043 -0.58,-0.099c-0.199,-0.078 -0.164,-0.26 0.108,-0.546" style="fill:none;fill-rule:nonzero;stroke:#000;stroke-width:0.85px;"/><path d="M78.877,39.879c0.015,-0.059 0.032,-0.15 0.05,-0.272c0.012,-0.077 0.004,-0.128 -0.023,-0.151c-0.027,-0.023 -0.119,-0.033 -0.277,-0.029c-0.158,0.004 -0.373,0.047 -0.646,0.128c-0.273,0.081 -0.585,0.217 -0.935,0.407c-0.35,0.19 -0.675,0.431 -0.973,0.722c-0.299,0.291 -0.492,0.598 -0.581,0.921c-0.089,0.323 -0.034,0.608 0.163,0.856c0.197,0.247 0.495,0.426 0.894,0.535c0.399,0.11 0.847,0.164 1.343,0.162c0.734,-0.002 1.448,-0.233 2.141,-0.691" style="fill:none;fill-rule:nonzero;stroke:#000;stroke-width:0.85px;"/><path d="M107.58,32.223c-0.04,-0.032 -0.101,-0.079 -0.183,-0.139c-0.052,-0.038 -0.004,-0.058 0.144,-0.058c0.148,-0 0.44,-0 0.875,-0l4.937,0" style="fill:none;fill-rule:nonzero;stroke:#000;stroke-width:0.85px;"/><path d="M108.608,35.898c0.03,-0.073 0.256,-0.121 0.677,-0.142c0.421,-0.022 0.979,-0.033 1.674,-0.033l2.155,0c0.742,0 1.375,0.007 1.901,0.02l0.394,0.01l-1.183,-0.03" style="fill:none;fill-rule:nonzero;stroke:#000;stroke-width:0.85px;"/><path d="M185.919,10.237c0.022,-0 0.095,-0 0.219,-0c0.071,-0 0.117,0.013 0.139,0.04c0.022,0.027 0.051,0.127 0.086,0.301c0.036,0.174 0.079,0.42 0.13,0.738c0.051,0.319 0.099,0.676 0.146,1.073c0.047,0.397 0.078,0.771 0.093,1.121c0.015,0.351 0.026,0.657 0.031,0.92c0.005,0.263 0.008,0.514 0.008,0.755c0,0.24 -0.012,0.477 -0.034,0.709c-0.023,0.232 -0.046,0.447 -0.068,0.645c-0.023,0.198 -0.039,0.391 -0.049,0.578c-0.01,0.187 -0.026,0.375 -0.047,0.562c-0.021,0.187 -0.043,0.362 -0.065,0.524c-0.022,0.162 -0.04,0.312 -0.052,0.451c-0.012,0.139 -0.021,0.28 -0.026,0.423c-0.005,0.143 -0.013,0.292 -0.022,0.447c-0.009,0.155 -0.02,0.312 -0.032,0.47c-0.012,0.158 -0.022,0.312 -0.03,0.46c-0.007,0.149 -0.012,0.291 -0.015,0.427c-0.002,0.136 -0.009,0.283 -0.018,0.44c-0.01,0.157 -0.018,0.321 -0.025,0.491c-0.007,0.17 -0.012,0.333 -0.015,0.489c-0.003,0.156 -0.004,0.314 -0.004,0.474l0,1.314l0,-0.921" style="fill:none;fill-rule:nonzero;stroke:#000;stroke-width:0.85px;"/><path d="M202.217,24.238c-0.038,-0.043 -0.06,-0.117 -0.069,-0.222c-0.008,-0.105 -0.002,-0.199 0.019,-0.283c0.021,-0.084 0.06,-0.195 0.116,-0.334c0.057,-0.138 0.143,-0.315 0.261,-0.531c0.117,-0.216 0.253,-0.458 0.407,-0.727c0.154,-0.268 0.313,-0.523 0.476,-0.763c0.163,-0.24 0.317,-0.447 0.461,-0.619c0.144,-0.172 0.285,-0.318 0.423,-0.436c0.138,-0.119 0.294,-0.232 0.468,-0.341c0.173,-0.109 0.375,-0.232 0.603,-0.37c0.229,-0.138 0.467,-0.277 0.715,-0.418c0.248,-0.141 0.499,-0.282 0.754,-0.424c0.255,-0.141 0.496,-0.269 0.724,-0.382c0.228,-0.113 0.447,-0.213 0.659,-0.302c0.211,-0.088 0.421,-0.173 0.627,-0.253c0.207,-0.08 0.422,-0.16 0.645,-0.241c0.223,-0.08 0.438,-0.157 0.646,-0.23c0.208,-0.073 0.408,-0.147 0.6,-0.222c0.192,-0.075 0.404,-0.171 0.635,-0.288c0.231,-0.117 0.5,-0.273 0.806,-0.47c0.306,-0.197 0.614,-0.408 0.924,-0.634c0.31,-0.226 0.58,-0.43 0.809,-0.612c0.229,-0.182 0.423,-0.334 0.58,-0.455c0.158,-0.121 0.308,-0.235 0.451,-0.342c0.144,-0.107 0.3,-0.231 0.468,-0.372c0.169,-0.142 0.356,-0.314 0.561,-0.515c0.205,-0.202 0.409,-0.426 0.612,-0.673c0.203,-0.247 0.375,-0.486 0.516,-0.718c0.141,-0.232 0.253,-0.461 0.335,-0.687c0.082,-0.226 0.155,-0.46 0.218,-0.702c0.063,-0.242 0.122,-0.484 0.176,-0.726c0.054,-0.242 0.088,-0.439 0.102,-0.591c0.014,-0.152 -0.017,-0.258 -0.091,-0.317c-0.105,-0.084 -0.2,-0.056 -0.284,0.082" style="fill:none;fill-rule:nonzero;stroke:#000;stroke-width:0.85px;"/><path d="M202.545,9.252c-0.022,-0.017 -0.018,0.096 0.012,0.338c0.031,0.242 0.084,0.465 0.158,0.668c0.075,0.203 0.153,0.406 0.236,0.609c0.083,0.202 0.165,0.392 0.248,0.567c0.082,0.176 0.168,0.336 0.258,0.481c0.09,0.145 0.184,0.27 0.284,0.376c0.099,0.106 0.203,0.199 0.309,0.28c0.107,0.081 0.213,0.156 0.317,0.224c0.104,0.068 0.212,0.138 0.324,0.208c0.111,0.07 0.231,0.146 0.36,0.229c0.128,0.082 0.263,0.166 0.403,0.251c0.14,0.085 0.297,0.161 0.471,0.228c0.174,0.066 0.351,0.123 0.531,0.17c0.18,0.047 0.342,0.091 0.484,0.133c0.143,0.042 0.259,0.082 0.348,0.12c0.089,0.039 0.144,0.065 0.165,0.08c0.029,0.02 -0.045,0.047 -0.221,0.081" style="fill:none;fill-rule:nonzero;stroke:#000;stroke-width:0.85px;"/><path d="M213.614,18.55c-0.03,0.004 -0.018,0.012 0.035,0.026c0.053,0.014 0.186,0.048 0.398,0.103c0.212,0.055 0.432,0.12 0.659,0.195c0.227,0.075 0.459,0.158 0.698,0.25c0.238,0.092 0.459,0.199 0.663,0.322c0.204,0.123 0.384,0.251 0.541,0.384c0.157,0.133 0.294,0.269 0.41,0.408c0.116,0.138 0.212,0.283 0.288,0.433c0.076,0.15 0.151,0.294 0.224,0.431c0.073,0.137 0.153,0.269 0.24,0.395c0.087,0.127 0.18,0.25 0.279,0.369c0.099,0.119 0.197,0.233 0.292,0.34c0.095,0.107 0.173,0.217 0.233,0.328c0.06,0.111 0.098,0.233 0.114,0.366c0.016,0.133 0.024,0.281 0.024,0.446c0,0.164 0.003,0.325 0.01,0.481c0.007,0.156 0.017,0.29 0.032,0.402c0.015,0.112 0.028,0.19 0.04,0.237c0.012,0.046 0.02,0.071 0.023,0.074c0.003,0.003 0.002,0.001 -0.001,-0.008c-0.005,-0.012 -0.01,-0.038 -0.014,-0.076" style="fill:none;fill-rule:nonzero;stroke:#000;stroke-width:0.85px;"/><path d="M233.981,9.756c-0.032,-0.004 -0.051,0.178 -0.057,0.546c-0.006,0.368 0.009,0.761 0.043,1.178c0.034,0.417 0.08,0.85 0.136,1.3c0.056,0.45 0.107,0.882 0.154,1.297c0.046,0.415 0.088,0.794 0.125,1.136c0.037,0.342 0.06,0.69 0.068,1.045c0.008,0.354 0.017,0.693 0.026,1.015c0.009,0.323 0.029,0.614 0.06,0.874c0.031,0.26 0.052,0.508 0.063,0.744c0.011,0.236 0.016,0.471 0.016,0.704c0,0.233 -0.005,0.46 -0.014,0.68c-0.009,0.22 -0.016,0.418 -0.022,0.594c-0.005,0.176 -0.008,0.346 -0.008,0.509c0,0.163 -0,0.33 -0,0.499c0,0.17 -0.002,0.347 -0.007,0.531c-0.004,0.184 -0.021,0.373 -0.049,0.568c-0.029,0.194 -0.048,0.369 -0.059,0.525c-0.011,0.155 -0.016,0.278 -0.016,0.368c-0,0.09 -0,0.152 -0,0.185c0,0.033 0.003,0.054 0.01,0.062c0.007,0.008 0.006,-0.001 -0.003,-0.028c-0.012,-0.039 -0.023,-0.127 -0.034,-0.265" style="fill:none;fill-rule:nonzero;stroke:#000;stroke-width:0.85px;"/><path d="M250.235,9.953c0.044,-0.049 0.108,-0.115 0.19,-0.201c0.083,-0.085 0.137,-0.144 0.163,-0.178c0.026,-0.033 0.04,-0.051 0.04,-0.055c0,-0.003 -0.01,0.04 -0.03,0.129c-0.021,0.089 -0.045,0.256 -0.072,0.503c-0.027,0.246 -0.043,0.521 -0.046,0.826c-0.003,0.305 0.002,0.635 0.016,0.99c0.014,0.355 0.025,0.716 0.033,1.081c0.008,0.365 0.012,0.711 0.012,1.039c0,0.328 0,0.643 0,0.947l0,2.673c0,0.271 -0.007,0.524 -0.021,0.758c-0.014,0.234 -0.025,0.466 -0.033,0.694c-0.008,0.228 -0.012,0.466 -0.012,0.713c-0,0.247 0.002,0.498 0.006,0.753c0.004,0.255 0.015,0.518 0.032,0.79c0.017,0.271 0.026,0.578 0.026,0.919c0,0.342 -0.016,0.698 -0.048,1.068c-0.032,0.371 -0.063,0.666 -0.094,0.888c-0.03,0.221 -0.039,0.32 -0.027,0.295c0.018,-0.035 0.073,-0.145 0.167,-0.33" style="fill:none;fill-rule:nonzero;stroke:#000;stroke-width:0.85px;"/><path d="M266.642,9.887c-0.068,-0.017 -0.157,-0.035 -0.265,-0.052c-0.108,-0.018 -0.205,-0.028 -0.291,-0.031c-0.085,-0.003 -0.154,0.042 -0.207,0.133c-0.053,0.091 -0.084,0.29 -0.096,0.595c-0.011,0.305 -0.01,0.709 0.004,1.21c0.014,0.501 0.037,1.066 0.072,1.695c0.034,0.628 0.053,1.262 0.056,1.9c0.003,0.639 0.007,1.216 0.012,1.731c0.004,0.516 0.022,0.986 0.053,1.411c0.031,0.425 0.061,0.821 0.09,1.188c0.029,0.367 0.064,0.709 0.105,1.027c0.041,0.318 0.071,0.602 0.089,0.852c0.018,0.251 0.027,0.475 0.028,0.674c0,0.199 -0.003,0.38 -0.01,0.543c-0.007,0.164 -0.011,0.329 -0.011,0.497c-0,0.167 -0,0.333 -0,0.496c0,0.163 0.001,0.312 0.003,0.447c0.002,0.135 0.012,0.253 0.028,0.354c0.017,0.101 0.03,0.187 0.04,0.258c0.01,0.072 0.015,0.124 0.015,0.157c0,0.033 -0.002,0.03 -0.006,-0.008c-0.007,-0.057 -0.028,-0.094 -0.063,-0.113" style="fill:none;fill-rule:nonzero;stroke:#000;stroke-width:0.85px;"/><path d="M202.348,24.26c0.004,-0.024 0.073,0.083 0.206,0.318c0.133,0.236 0.244,0.458 0.334,0.666c0.09,0.208 0.189,0.426 0.298,0.654c0.109,0.228 0.229,0.451 0.362,0.668c0.133,0.217 0.285,0.424 0.456,0.622c0.171,0.198 0.35,0.388 0.537,0.57c0.187,0.183 0.376,0.365 0.568,0.547c0.192,0.182 0.398,0.354 0.617,0.516c0.22,0.162 0.458,0.311 0.715,0.448c0.257,0.137 0.508,0.271 0.755,0.402c0.247,0.131 0.474,0.264 0.682,0.397c0.208,0.133 0.412,0.274 0.611,0.422c0.199,0.148 0.401,0.3 0.605,0.458c0.204,0.158 0.415,0.312 0.633,0.464c0.218,0.151 0.433,0.28 0.645,0.386c0.212,0.106 0.408,0.211 0.587,0.315c0.179,0.104 0.338,0.22 0.478,0.348c0.14,0.128 0.279,0.26 0.417,0.396c0.138,0.136 0.293,0.266 0.464,0.388c0.171,0.122 0.364,0.239 0.579,0.351c0.215,0.112 0.432,0.235 0.651,0.37c0.219,0.135 0.436,0.278 0.653,0.428c0.216,0.15 0.437,0.302 0.663,0.456c0.225,0.153 0.455,0.298 0.689,0.435c0.234,0.137 0.45,0.265 0.648,0.384c0.199,0.12 0.366,0.237 0.502,0.351c0.136,0.114 0.251,0.218 0.344,0.312c0.094,0.093 0.167,0.163 0.22,0.209c0.053,0.046 0.085,0.07 0.096,0.074c0.011,0.003 0.007,-0.009 -0.012,-0.038c-0.028,-0.042 -0.07,-0.159 -0.126,-0.351" style="fill:none;fill-rule:nonzero;stroke:#000;stroke-width:0.85px;"/><path d="M218.906,24.536c-0.057,-0.011 -0.125,0.019 -0.203,0.088c-0.052,0.046 -0.073,0.095 -0.062,0.148c0.011,0.052 0.064,0.134 0.157,0.246c0.094,0.112 0.208,0.255 0.344,0.43c0.135,0.175 0.28,0.369 0.435,0.583c0.154,0.213 0.341,0.417 0.559,0.613c0.218,0.195 0.465,0.376 0.738,0.543c0.274,0.167 0.528,0.328 0.763,0.483c0.235,0.155 0.453,0.312 0.653,0.47c0.2,0.158 0.391,0.307 0.571,0.446c0.18,0.139 0.355,0.266 0.523,0.378c0.168,0.113 0.334,0.217 0.497,0.312c0.163,0.095 0.306,0.19 0.426,0.285c0.121,0.095 0.228,0.193 0.321,0.295c0.093,0.102 0.189,0.198 0.288,0.289c0.099,0.091 0.199,0.163 0.299,0.218c0.1,0.055 0.181,0.09 0.243,0.107c0.062,0.016 0.105,0.024 0.128,0.024c0.024,0 -0.001,-0.008 -0.073,-0.026c-0.103,-0.024 -0.428,-0.101 -0.974,-0.23" style="fill:none;fill-rule:nonzero;stroke:#000;stroke-width:0.85px;"/><path d="M234.639,24.654c0.02,-0.072 0.057,-0.164 0.111,-0.275c0.035,-0.072 0.05,-0.112 0.047,-0.121c-0.004,-0.009 -0.069,0.035 -0.197,0.132c-0.128,0.097 -0.31,0.246 -0.548,0.448c-0.238,0.202 -0.513,0.421 -0.826,0.658c-0.313,0.237 -0.673,0.492 -1.081,0.766c-0.408,0.274 -0.821,0.544 -1.24,0.812c-0.419,0.268 -0.802,0.526 -1.148,0.775c-0.346,0.249 -0.638,0.476 -0.875,0.682c-0.237,0.206 -0.459,0.396 -0.665,0.569c-0.206,0.173 -0.426,0.347 -0.658,0.522c-0.233,0.175 -0.459,0.353 -0.678,0.536c-0.22,0.183 -0.435,0.361 -0.646,0.536c-0.211,0.175 -0.422,0.355 -0.631,0.539c-0.21,0.184 -0.405,0.368 -0.586,0.55c-0.181,0.183 -0.348,0.354 -0.502,0.512c-0.154,0.159 -0.314,0.315 -0.481,0.468c-0.167,0.153 -0.36,0.319 -0.579,0.498c-0.219,0.179 -0.441,0.362 -0.665,0.549c-0.224,0.187 -0.426,0.355 -0.605,0.502c-0.179,0.148 -0.34,0.274 -0.482,0.38c-0.142,0.106 -0.287,0.206 -0.434,0.301c-0.148,0.095 -0.308,0.197 -0.482,0.305c-0.174,0.109 -0.362,0.236 -0.566,0.383c-0.203,0.146 -0.413,0.313 -0.629,0.499c-0.216,0.186 -0.423,0.367 -0.621,0.543c-0.198,0.176 -0.395,0.342 -0.591,0.498c-0.196,0.156 -0.399,0.308 -0.608,0.457c-0.209,0.149 -0.417,0.294 -0.623,0.438c-0.207,0.143 -0.417,0.295 -0.63,0.455c-0.213,0.16 -0.435,0.326 -0.666,0.498c-0.23,0.172 -0.458,0.341 -0.682,0.507c-0.224,0.166 -0.436,0.319 -0.637,0.458c-0.2,0.139 -0.385,0.27 -0.554,0.392c-0.169,0.122 -0.329,0.251 -0.48,0.386c-0.151,0.136 -0.291,0.267 -0.418,0.394c-0.127,0.127 -0.246,0.244 -0.356,0.352c-0.11,0.108 -0.227,0.213 -0.353,0.318c-0.126,0.104 -0.253,0.212 -0.382,0.324c-0.129,0.112 -0.244,0.217 -0.345,0.315c-0.101,0.098 -0.196,0.189 -0.286,0.274c-0.09,0.085 -0.183,0.176 -0.28,0.273c-0.097,0.097 -0.193,0.193 -0.288,0.288c-0.095,0.095 -0.187,0.19 -0.274,0.284c-0.088,0.095 -0.174,0.19 -0.259,0.284c-0.085,0.095 -0.167,0.187 -0.245,0.277c-0.078,0.09 -0.148,0.172 -0.209,0.246c-0.061,0.074 -0.118,0.141 -0.169,0.202c-0.051,0.061 -0.106,0.12 -0.164,0.175c-0.058,0.056 -0.116,0.11 -0.175,0.161c-0.058,0.052 -0.11,0.092 -0.154,0.122c-0.045,0.03 -0.079,0.049 -0.104,0.057l-0.019,0.006l0.056,-0.018" style="fill:none;fill-rule:nonzero;stroke:#000;stroke-width:0.85px;"/><path d="M186.556,24.74c-0.083,-0.017 -0.168,-0.035 -0.253,-0.056c-0.085,-0.021 -0.134,-0.023 -0.145,-0.008c-0.011,0.015 -0.005,0.085 0.02,0.21c0.025,0.124 0.085,0.283 0.18,0.476c0.095,0.193 0.194,0.408 0.297,0.647c0.102,0.239 0.196,0.513 0.282,0.824c0.086,0.311 0.173,0.652 0.262,1.025c0.089,0.373 0.201,0.719 0.335,1.038c0.134,0.319 0.294,0.599 0.479,0.84c0.185,0.241 0.383,0.465 0.594,0.672c0.211,0.207 0.43,0.422 0.658,0.645c0.228,0.223 0.458,0.436 0.692,0.639c0.233,0.203 0.464,0.39 0.693,0.561c0.229,0.171 0.456,0.35 0.682,0.539c0.226,0.188 0.453,0.391 0.682,0.609c0.228,0.218 0.444,0.432 0.647,0.642c0.203,0.21 0.413,0.411 0.63,0.604c0.218,0.192 0.459,0.375 0.725,0.548c0.266,0.173 0.538,0.362 0.818,0.567c0.279,0.205 0.55,0.431 0.81,0.677c0.261,0.246 0.53,0.49 0.809,0.733c0.278,0.242 0.559,0.451 0.841,0.626c0.283,0.175 0.539,0.337 0.77,0.485c0.231,0.148 0.442,0.317 0.635,0.507c0.193,0.19 0.386,0.399 0.581,0.627c0.194,0.228 0.394,0.439 0.601,0.633c0.206,0.193 0.399,0.38 0.578,0.56c0.179,0.18 0.36,0.364 0.544,0.555c0.184,0.19 0.382,0.362 0.595,0.517c0.213,0.154 0.436,0.292 0.669,0.412c0.233,0.12 0.456,0.239 0.668,0.358c0.212,0.119 0.416,0.246 0.611,0.381c0.195,0.135 0.386,0.276 0.574,0.422c0.188,0.146 0.364,0.278 0.527,0.396c0.163,0.118 0.321,0.231 0.472,0.341c0.151,0.109 0.297,0.215 0.439,0.318c0.141,0.103 0.274,0.197 0.399,0.282c0.125,0.086 0.245,0.166 0.362,0.242c0.117,0.076 0.228,0.151 0.333,0.226c0.105,0.075 0.207,0.151 0.307,0.226c0.1,0.076 0.189,0.141 0.268,0.195c0.079,0.054 0.141,0.096 0.186,0.126c0.045,0.03 0.076,0.056 0.094,0.077c0.025,0.03 -0.071,0.039 -0.287,0.029" style="fill:none;fill-rule:nonzero;stroke:#000;stroke-width:0.85px;"/><path d="M209.196,45.739c0.072,-0.045 0.181,-0.059 0.327,-0.041c0.146,0.017 0.325,0.092 0.537,0.222c0.212,0.131 0.49,0.265 0.832,0.402c0.342,0.137 0.758,0.268 1.246,0.395c0.489,0.126 1.003,0.266 1.542,0.421c0.539,0.154 1.077,0.314 1.613,0.48c0.536,0.165 1.101,0.311 1.695,0.437c0.594,0.126 1.175,0.225 1.744,0.297c0.569,0.072 1.073,0.143 1.514,0.212c0.44,0.07 0.847,0.165 1.22,0.287c0.373,0.122 0.749,0.262 1.128,0.419c0.379,0.157 0.765,0.309 1.157,0.456c0.393,0.147 0.795,0.287 1.205,0.42c0.411,0.134 0.812,0.28 1.204,0.44c0.392,0.159 0.781,0.317 1.168,0.474c0.387,0.157 0.761,0.281 1.122,0.373c0.361,0.092 0.69,0.168 0.987,0.227c0.297,0.059 0.551,0.118 0.764,0.176c0.212,0.058 0.404,0.126 0.575,0.206c0.171,0.079 0.337,0.155 0.497,0.226c0.161,0.071 0.311,0.127 0.451,0.167c0.14,0.04 0.251,0.064 0.334,0.073c0.083,0.008 0.14,0.017 0.173,0.026c0.033,0.009 0.062,0.019 0.086,0.029c0.024,0.01 0.061,0.02 0.111,0.03c0.05,0.01 0.116,0.017 0.197,0.022c0.119,0.007 0.299,0.003 0.539,-0.014" style="fill:none;fill-rule:nonzero;stroke:#000;stroke-width:0.85px;"/><path d="M234.242,53.264c-0.023,-0.009 0.152,-0.115 0.527,-0.318c0.374,-0.203 0.796,-0.453 1.265,-0.748c0.469,-0.296 0.976,-0.633 1.521,-1.011c0.545,-0.379 1.09,-0.791 1.635,-1.236c0.545,-0.445 1.084,-0.898 1.616,-1.357c0.532,-0.459 1.067,-0.91 1.605,-1.351c0.538,-0.441 1.046,-0.851 1.525,-1.23c0.479,-0.379 0.946,-0.737 1.401,-1.074c0.455,-0.336 0.891,-0.68 1.308,-1.031c0.417,-0.351 0.823,-0.73 1.217,-1.136c0.395,-0.406 0.793,-0.813 1.195,-1.22c0.402,-0.407 0.807,-0.779 1.214,-1.114c0.407,-0.336 0.801,-0.643 1.183,-0.922c0.382,-0.279 0.742,-0.546 1.08,-0.801c0.337,-0.255 0.671,-0.531 1.001,-0.829c0.33,-0.297 0.655,-0.594 0.974,-0.892c0.319,-0.298 0.62,-0.567 0.9,-0.807c0.281,-0.24 0.55,-0.476 0.809,-0.706c0.258,-0.231 0.52,-0.463 0.784,-0.696c0.265,-0.234 0.51,-0.443 0.736,-0.627c0.226,-0.185 0.404,-0.339 0.534,-0.463c0.13,-0.124 0.234,-0.228 0.313,-0.314c0.078,-0.086 0.166,-0.168 0.262,-0.246c0.096,-0.078 0.19,-0.153 0.281,-0.227c0.091,-0.073 0.178,-0.141 0.263,-0.202c0.085,-0.061 0.163,-0.116 0.234,-0.165c0.072,-0.049 0.127,-0.085 0.167,-0.108c0.04,-0.023 0.064,-0.035 0.073,-0.035c0.008,-0 0.016,-0 0.023,-0l0.011,0c-0,0 -0.068,0.007 -0.203,0.02" style="fill:none;fill-rule:nonzero;stroke:#000;stroke-width:0.85px;"/><path d="M250.67,25.068c0.038,-0.05 0.189,0.057 0.453,0.32c0.264,0.263 0.528,0.544 0.791,0.844c0.263,0.3 0.53,0.605 0.8,0.917c0.27,0.312 0.555,0.597 0.855,0.857c0.3,0.26 0.611,0.485 0.934,0.674c0.323,0.19 0.622,0.361 0.897,0.515c0.275,0.154 0.514,0.306 0.718,0.456c0.204,0.15 0.413,0.302 0.627,0.456c0.215,0.154 0.45,0.287 0.707,0.401c0.257,0.114 0.505,0.216 0.745,0.306c0.24,0.09 0.454,0.175 0.643,0.253c0.189,0.078 0.349,0.148 0.48,0.209c0.131,0.061 0.236,0.121 0.316,0.18c0.079,0.058 0.132,0.108 0.158,0.149l0.019,0.031l-0.058,-0.092" style="fill:none;fill-rule:nonzero;stroke:#000;stroke-width:0.85px;"/><path d="M266.55,24.565c0.069,-0.012 0.07,0.013 0.003,0.077c-0.067,0.064 -0.234,0.224 -0.501,0.481c-0.267,0.256 -0.572,0.564 -0.912,0.924c-0.341,0.36 -0.689,0.728 -1.044,1.105c-0.355,0.377 -0.695,0.727 -1.02,1.051c-0.325,0.323 -0.615,0.6 -0.871,0.83c-0.256,0.23 -0.478,0.436 -0.668,0.618c-0.189,0.183 -0.361,0.379 -0.515,0.589c-0.154,0.21 -0.307,0.428 -0.461,0.655c-0.153,0.227 -0.276,0.398 -0.37,0.515c-0.093,0.117 -0.147,0.186 -0.161,0.208c-0.014,0.022 -0.022,0.043 -0.022,0.064c-0,0.021 0.005,0.018 0.015,-0.007c0.015,-0.037 0.06,-0.068 0.138,-0.093" style="fill:none;fill-rule:nonzero;stroke:#000;stroke-width:0.85px;"/><path d="M189.579,36.998c-0.05,-0.013 -0.126,-0.089 -0.231,-0.228c-0.064,-0.085 -0.117,-0.182 -0.158,-0.291c-0.041,-0.108 -0.096,-0.215 -0.165,-0.321c-0.069,-0.105 -0.164,-0.181 -0.286,-0.228c-0.122,-0.046 -0.292,-0.043 -0.512,0.01c-0.22,0.053 -0.461,0.231 -0.723,0.535c-0.263,0.303 -0.46,0.703 -0.594,1.199c-0.133,0.496 -0.113,0.937 0.06,1.323c0.173,0.386 0.491,0.601 0.954,0.648c0.463,0.046 0.87,-0.048 1.221,-0.281c0.35,-0.233 0.571,-0.541 0.663,-0.925c0.091,-0.383 0.118,-0.737 0.081,-1.06c-0.038,-0.324 -0.097,-0.534 -0.177,-0.629c-0.08,-0.096 -0.123,-0.073 -0.13,0.067c-0.006,0.141 0.058,0.364 0.192,0.67c0.134,0.306 0.255,0.637 0.361,0.991c0.107,0.355 0.207,0.708 0.301,1.06c0.094,0.352 0.19,0.616 0.287,0.791c0.135,0.244 0.319,0.214 0.55,-0.088" style="fill:none;fill-rule:nonzero;stroke:#000;stroke-width:0.85px;"/><path d="M216.852,41.78c0.018,-0.049 0.104,-0.057 0.258,-0.024c0.154,0.033 0.297,0.126 0.428,0.279c0.131,0.153 0.251,0.317 0.359,0.491c0.108,0.175 0.186,0.35 0.232,0.525c0.046,0.175 0.067,0.349 0.061,0.522c-0.005,0.173 -0.065,0.328 -0.18,0.466c-0.114,0.138 -0.264,0.247 -0.45,0.327c-0.186,0.08 -0.372,0.128 -0.56,0.145c-0.187,0.017 -0.38,0.017 -0.579,0.002c-0.199,-0.016 -0.377,-0.05 -0.535,-0.103c-0.158,-0.053 -0.28,-0.111 -0.365,-0.173c-0.085,-0.062 -0.136,-0.139 -0.153,-0.231c-0.017,-0.091 -0.025,-0.191 -0.025,-0.3c-0,-0.109 0.001,-0.222 0.003,-0.338c0.002,-0.116 0.023,-0.234 0.062,-0.353c0.039,-0.119 0.092,-0.236 0.157,-0.351c0.065,-0.114 0.126,-0.216 0.183,-0.305c0.056,-0.089 0.109,-0.165 0.158,-0.229c0.049,-0.064 0.104,-0.121 0.167,-0.169c0.062,-0.049 0.194,-0.105 0.396,-0.169c0.202,-0.064 0.459,-0.117 0.772,-0.159c0.313,-0.042 0.589,-0.068 0.829,-0.078c0.24,-0.01 0.495,-0.015 0.766,-0.015c0.271,-0 0.556,-0 0.858,-0c0.301,0 0.575,-0.006 0.821,-0.017c0.246,-0.012 0.402,-0.019 0.466,-0.022c0.09,-0.004 0.046,-0.127 -0.133,-0.37" style="fill:none;fill-rule:nonzero;stroke:#000;stroke-width:0.85px;"/><path d="M224.421,34.015l0,0.416c0,0.236 0.009,0.505 0.028,0.807c0.018,0.302 0.041,0.623 0.068,0.961c0.027,0.338 0.047,0.628 0.059,0.868c0.012,0.241 0.024,0.408 0.034,0.503c0.01,0.095 0.021,0.141 0.033,0.14c0.012,-0.002 0.032,-0.055 0.06,-0.161c0.028,-0.105 0.079,-0.236 0.152,-0.394c0.073,-0.157 0.187,-0.304 0.342,-0.442c0.155,-0.137 0.339,-0.254 0.551,-0.351c0.212,-0.097 0.43,-0.158 0.654,-0.185c0.224,-0.027 0.411,-0.002 0.56,0.076c0.15,0.077 0.258,0.218 0.326,0.422c0.068,0.204 0.126,0.408 0.175,0.613c0.049,0.205 0.083,0.394 0.101,0.567c0.018,0.174 0.02,0.343 0.005,0.509c-0.015,0.166 -0.095,0.317 -0.241,0.455c-0.145,0.138 -0.327,0.237 -0.544,0.299c-0.217,0.062 -0.429,0.09 -0.634,0.085c-0.205,-0.005 -0.38,-0.056 -0.524,-0.152c-0.144,-0.096 -0.238,-0.21 -0.284,-0.34c-0.045,-0.131 -0.028,-0.22 0.051,-0.269" style="fill:none;fill-rule:nonzero;stroke:#000;stroke-width:0.85px;"/><path d="M234.624,28.39c-0.018,-0.05 -0.011,-0.134 0.021,-0.251c0.021,-0.075 0.063,-0.12 0.127,-0.136c0.064,-0.016 0.143,-0.019 0.237,-0.008c0.094,0.011 0.192,0.06 0.294,0.147c0.102,0.087 0.186,0.196 0.251,0.329c0.065,0.132 0.103,0.288 0.115,0.469c0.011,0.181 0.012,0.372 0,0.573c-0.011,0.202 -0.058,0.385 -0.14,0.549c-0.082,0.165 -0.194,0.302 -0.335,0.411c-0.141,0.109 -0.307,0.19 -0.498,0.243c-0.19,0.053 -0.376,0.084 -0.558,0.092c-0.181,0.008 -0.336,-0.002 -0.464,-0.032c-0.128,-0.03 -0.237,-0.093 -0.325,-0.191c-0.089,-0.098 -0.166,-0.202 -0.233,-0.314c-0.066,-0.112 -0.114,-0.229 -0.143,-0.352c-0.029,-0.123 -0.04,-0.26 -0.034,-0.41c0.006,-0.15 0.062,-0.3 0.167,-0.451c0.105,-0.151 0.223,-0.288 0.355,-0.411c0.132,-0.123 0.243,-0.224 0.332,-0.303c0.089,-0.079 0.16,-0.144 0.212,-0.194c0.052,-0.05 0.108,-0.087 0.168,-0.112c0.06,-0.025 0.153,-0.045 0.282,-0.06c0.128,-0.015 0.299,-0.029 0.513,-0.041c0.214,-0.012 0.442,-0.025 0.684,-0.036c0.243,-0.012 0.496,-0.027 0.76,-0.047c0.264,-0.019 0.542,-0.037 0.836,-0.055c0.293,-0.017 0.568,-0.029 0.823,-0.034c0.256,-0.005 0.456,-0.008 0.601,-0.008c0.145,-0 0.233,-0 0.263,-0c0.03,0 0.015,0.008 -0.043,0.024c-0.085,0.023 -0.229,0.095 -0.432,0.216" style="fill:none;fill-rule:nonzero;stroke:#000;stroke-width:0.85px;"/><path d="M221.571,53.376c0.098,-0.048 0.114,-0.097 0.046,-0.15c-0.049,-0.038 -0.16,-0.056 -0.335,-0.056c-0.174,-0 -0.363,0.029 -0.566,0.086c-0.203,0.057 -0.41,0.164 -0.622,0.322c-0.212,0.157 -0.394,0.344 -0.548,0.561c-0.154,0.217 -0.25,0.439 -0.288,0.665c-0.038,0.227 0.018,0.423 0.17,0.589c0.151,0.166 0.387,0.283 0.706,0.352c0.319,0.069 0.683,0.101 1.091,0.096c0.408,-0.005 0.807,-0.039 1.196,-0.104c0.389,-0.064 0.633,-0.103 0.73,-0.117c0.136,-0.019 0.09,-0.159 -0.138,-0.422" style="fill:none;fill-rule:nonzero;stroke:#000;stroke-width:0.85px;"/><path d="M253.776,43.349l0,-0.344c0,-0.101 -0.006,-0.173 -0.017,-0.216c-0.011,-0.043 -0.074,-0.061 -0.188,-0.053c-0.114,0.008 -0.303,0.084 -0.567,0.228c-0.264,0.145 -0.583,0.339 -0.958,0.582c-0.375,0.243 -0.719,0.486 -1.035,0.727c-0.315,0.241 -0.546,0.483 -0.691,0.726c-0.146,0.243 -0.209,0.479 -0.191,0.708c0.018,0.23 0.158,0.419 0.418,0.569c0.26,0.15 0.611,0.249 1.053,0.299c0.442,0.05 0.916,0.073 1.423,0.069c0.507,-0.004 0.921,-0.017 1.245,-0.04l0.243,-0.017l-0.728,0.052" style="fill:none;fill-rule:nonzero;stroke:#000;stroke-width:0.85px;"/><path d="M129.946,30.049c-0.062,-0.072 -0.123,-0.146 -0.183,-0.22c-0.061,-0.074 -0.086,-0.067 -0.076,0.02c0.01,0.088 0.051,0.36 0.123,0.819c0.072,0.458 0.123,1.02 0.154,1.684c0.031,0.665 0.045,1.408 0.041,2.229c-0.004,0.821 -0.015,1.572 -0.032,2.254c-0.017,0.682 -0.026,1.2 -0.026,1.554c-0,0.354 -0,0.555 -0,0.602c0,0.047 0,0.054 0,0.021l0,-0.443" style="fill:none;fill-rule:nonzero;stroke:#000;stroke-width:0.85px;"/><path d="M129.989,29.043c-0.038,-0.033 0.16,-0.094 0.594,-0.184c0.434,-0.09 0.879,-0.171 1.335,-0.242c0.456,-0.071 0.953,-0.129 1.491,-0.174c0.538,-0.045 1.061,-0.069 1.568,-0.073c0.508,-0.004 0.897,-0.005 1.168,-0.005c0.271,0 0.406,0.02 0.406,0.059" style="fill:none;fill-rule:nonzero;stroke:#000;stroke-width:0.85px;"/><path d="M130.602,33.505c-0.1,0 -0.201,0.006 -0.301,0.017c-0.101,0.011 -0.163,0.028 -0.187,0.05c-0.024,0.022 0.052,0.035 0.228,0.038c0.176,0.003 0.515,0.005 1.017,0.005c0.502,0 1.046,-0.003 1.63,-0.011c0.585,-0.007 1.163,-0.014 1.734,-0.021c0.572,-0.007 0.941,-0.011 1.108,-0.011c0.167,-0 0.247,-0.007 0.24,-0.02" style="fill:none;fill-rule:nonzero;stroke:#000;stroke-width:0.85px;"/><path d="M139.176,26.47c-0.019,-0.046 -0.053,-0.123 -0.1,-0.231c-0.03,-0.068 -0.039,-0.104 -0.029,-0.11c0.01,-0.006 0.094,-0.001 0.251,0.015c0.157,0.015 0.335,0.084 0.535,0.206c0.2,0.122 0.375,0.285 0.525,0.49c0.151,0.204 0.265,0.407 0.343,0.607c0.078,0.2 0.12,0.385 0.125,0.554c0.005,0.169 -0.071,0.323 -0.229,0.463c-0.158,0.14 -0.354,0.249 -0.587,0.327c-0.233,0.078 -0.444,0.121 -0.633,0.128c-0.189,0.007 -0.355,-0.043 -0.497,-0.15c-0.142,-0.107 -0.277,-0.229 -0.404,-0.366c-0.127,-0.137 -0.234,-0.254 -0.321,-0.35c-0.087,-0.096 -0.152,-0.185 -0.195,-0.265c-0.043,-0.08 -0.065,-0.184 -0.066,-0.313c-0.001,-0.129 0.032,-0.288 0.099,-0.479c0.067,-0.191 0.155,-0.375 0.264,-0.554c0.109,-0.179 0.231,-0.326 0.365,-0.443c0.134,-0.117 0.321,-0.211 0.559,-0.283c0.238,-0.072 0.538,-0.127 0.899,-0.164c0.361,-0.038 0.725,-0.058 1.091,-0.062c0.366,-0.003 0.538,0.032 0.516,0.107" style="fill:none;fill-rule:nonzero;stroke:#000;stroke-width:0.85px;"/><path d="M144.377,26.363c-0.027,-0.064 -0.08,-0.143 -0.161,-0.237c-0.052,-0.06 -0.083,-0.095 -0.094,-0.103c-0.011,-0.008 -0.003,-0.007 0.023,0.005c0.026,0.012 0.091,0.041 0.195,0.088c0.104,0.047 0.251,0.155 0.441,0.323c0.19,0.168 0.353,0.343 0.49,0.525c0.137,0.181 0.244,0.376 0.319,0.584c0.076,0.208 0.119,0.417 0.131,0.627c0.011,0.21 -0.011,0.39 -0.069,0.541c-0.057,0.151 -0.165,0.264 -0.325,0.34c-0.159,0.076 -0.359,0.117 -0.6,0.124c-0.241,0.007 -0.48,-0.036 -0.717,-0.128c-0.237,-0.093 -0.424,-0.23 -0.559,-0.412c-0.136,-0.182 -0.232,-0.385 -0.29,-0.608c-0.058,-0.223 -0.102,-0.435 -0.132,-0.636c-0.03,-0.201 -0.049,-0.37 -0.057,-0.509c-0.008,-0.139 -0.009,-0.254 -0.002,-0.345c0.007,-0.091 0.083,-0.172 0.228,-0.243c0.146,-0.071 0.381,-0.146 0.706,-0.226c0.325,-0.079 0.685,-0.155 1.081,-0.226c0.396,-0.072 0.753,-0.123 1.073,-0.153c0.497,-0.048 0.876,-0.03 1.138,0.052" style="fill:none;fill-rule:nonzero;stroke:#000;stroke-width:0.85px;"/><path d="M148.867,22.073c-0.09,-0.058 -0.18,-0.125 -0.269,-0.202c-0.09,-0.077 -0.123,-0.076 -0.1,0.001c0.023,0.078 0.108,0.284 0.256,0.618c0.147,0.334 0.27,0.752 0.368,1.255c0.098,0.502 0.157,1.064 0.176,1.686c0.019,0.621 0.029,1.192 0.029,1.713c0,0.52 0,0.886 0,1.098c0,0.211 0,0.307 0,0.287l0,-0.337c0,-0.205 0.027,-0.439 0.082,-0.701c0.055,-0.263 0.168,-0.487 0.339,-0.673c0.171,-0.186 0.376,-0.318 0.615,-0.394c0.239,-0.077 0.472,-0.098 0.699,-0.064c0.227,0.034 0.432,0.152 0.614,0.353c0.182,0.201 0.317,0.418 0.407,0.649c0.089,0.231 0.131,0.436 0.124,0.613c-0.006,0.177 -0.094,0.329 -0.262,0.454c-0.168,0.126 -0.37,0.226 -0.606,0.301c-0.236,0.075 -0.462,0.135 -0.678,0.179c-0.312,0.064 -0.782,-0.104 -1.41,-0.504" style="fill:none;fill-rule:nonzero;stroke:#000;stroke-width:0.85px;"/><path d="M140.795,38.85c0.003,-0.1 0.014,-0.209 0.034,-0.326c0.02,-0.117 0.036,-0.21 0.049,-0.279c0.013,-0.069 0.015,-0.12 0.007,-0.153c-0.008,-0.033 -0.094,-0.025 -0.256,0.023c-0.163,0.049 -0.406,0.191 -0.73,0.425c-0.324,0.235 -0.638,0.511 -0.943,0.83c-0.305,0.319 -0.491,0.625 -0.558,0.919c-0.067,0.294 0.082,0.52 0.447,0.68c0.365,0.159 0.814,0.254 1.345,0.284c0.832,0.047 1.437,-0.006 1.817,-0.161" style="fill:none;fill-rule:nonzero;stroke:#000;stroke-width:0.85px;"/><path d="M128.611,24.063c-0.061,-0.048 -0.157,-0.098 -0.287,-0.151c-0.13,-0.053 -0.279,-0.081 -0.447,-0.084c-0.168,-0.003 -0.365,0.012 -0.591,0.046c-0.226,0.034 -0.465,0.108 -0.715,0.222c-0.25,0.114 -0.487,0.248 -0.709,0.403c-0.222,0.154 -0.417,0.324 -0.586,0.51c-0.168,0.186 -0.284,0.392 -0.349,0.619c-0.065,0.227 -0.085,0.497 -0.062,0.811c0.024,0.314 0.075,0.702 0.155,1.163c0.08,0.461 0.133,0.98 0.159,1.557c0.026,0.577 0.038,1.187 0.034,1.83c-0.004,0.643 -0.028,1.289 -0.073,1.941c-0.045,0.651 -0.084,1.305 -0.116,1.961c-0.033,0.656 -0.052,1.296 -0.057,1.918c-0.006,0.623 -0.009,1.154 -0.009,1.594c-0,0.44 0.008,0.824 0.024,1.152c0.016,0.328 0.043,0.626 0.082,0.896c0.039,0.27 0.063,0.517 0.074,0.742c0.011,0.225 0.017,0.415 0.017,0.569c0,0.154 0,0.267 0,0.34c0,0.073 0.001,0.13 0.003,0.172c0.002,0.042 0.025,0.072 0.069,0.09c0.044,0.018 0.121,0.027 0.231,0.028c0.11,0 0.237,0 0.382,0l1.148,0c0.372,0 0.787,0.019 1.246,0.058" style="fill:none;fill-rule:nonzero;stroke:#000;stroke-width:0.85px;"/><path d="M154.172,23.115c-0.038,-0.056 -0.031,-0.117 0.02,-0.185c0.035,-0.047 0.138,-0.032 0.31,0.044c0.171,0.076 0.36,0.188 0.566,0.337c0.206,0.149 0.409,0.32 0.609,0.512c0.2,0.192 0.356,0.446 0.467,0.761c0.111,0.315 0.173,0.732 0.185,1.252c0.012,0.52 0.013,1.097 0.001,1.732c-0.011,0.635 -0.022,1.249 -0.033,1.842c-0.01,0.593 -0.014,1.17 -0.009,1.732c0.004,0.562 0.032,1.143 0.084,1.744c0.052,0.601 0.09,1.192 0.113,1.773c0.024,0.581 0.037,1.097 0.039,1.549c0.003,0.452 0.018,0.848 0.046,1.187c0.028,0.34 0.066,0.647 0.115,0.92c0.049,0.274 0.09,0.511 0.125,0.711c0.035,0.2 0.057,0.368 0.068,0.503c0.01,0.135 0.016,0.254 0.016,0.355c0,0.101 0,0.194 0,0.279c0,0.085 -0.003,0.168 -0.01,0.248c-0.007,0.08 -0.026,0.161 -0.056,0.241c-0.031,0.08 -0.067,0.158 -0.108,0.234c-0.041,0.076 -0.096,0.141 -0.165,0.195c-0.069,0.054 -0.188,0.093 -0.359,0.116c-0.17,0.023 -0.404,0.022 -0.701,-0.005c-0.438,-0.04 -0.937,-0.171 -1.499,-0.395" style="fill:none;fill-rule:nonzero;stroke:#000;stroke-width:0.85px;"/><path d="M161.335,38.522c0.022,-0.143 0.058,-0.31 0.109,-0.501c0.051,-0.191 0.066,-0.321 0.045,-0.39c-0.021,-0.069 -0.122,-0.108 -0.303,-0.117c-0.181,-0.009 -0.388,0.022 -0.621,0.094c-0.233,0.071 -0.464,0.2 -0.692,0.385c-0.229,0.185 -0.423,0.439 -0.583,0.763c-0.16,0.323 -0.217,0.658 -0.17,1.005c0.047,0.347 0.227,0.613 0.54,0.798c0.313,0.185 0.625,0.272 0.937,0.259c0.311,-0.012 0.568,-0.146 0.769,-0.403c0.201,-0.256 0.343,-0.551 0.425,-0.884c0.082,-0.333 0.129,-0.596 0.14,-0.787c0.011,-0.191 0.017,-0.309 0.017,-0.352l0,-0.032l0,0.034c0,0.045 0.008,0.168 0.024,0.368c0.016,0.2 0.066,0.478 0.151,0.833c0.085,0.355 0.207,0.719 0.367,1.092c0.16,0.373 0.326,0.649 0.5,0.827l0.13,0.133l-0.39,-0.4" style="fill:none;fill-rule:nonzero;stroke:#000;stroke-width:0.85px;"/><path d="M165.516,38.295c-0.052,-0.02 -0.107,-0.07 -0.165,-0.151c-0.038,-0.053 -0.04,-0.087 -0.006,-0.102c0.034,-0.015 0.098,-0.023 0.191,-0.023c0.093,-0 0.205,0.024 0.334,0.074c0.13,0.05 0.277,0.159 0.441,0.329c0.164,0.169 0.334,0.36 0.509,0.573c0.175,0.213 0.319,0.44 0.432,0.682c0.113,0.242 0.183,0.474 0.209,0.694c0.027,0.22 0.005,0.41 -0.065,0.571c-0.07,0.161 -0.194,0.281 -0.372,0.362c-0.178,0.081 -0.36,0.135 -0.547,0.163c-0.187,0.028 -0.373,0.043 -0.558,0.044c-0.185,0.001 -0.357,-0.029 -0.516,-0.089c-0.159,-0.06 -0.291,-0.154 -0.395,-0.281c-0.104,-0.127 -0.195,-0.263 -0.273,-0.409c-0.078,-0.146 -0.152,-0.292 -0.22,-0.44c-0.069,-0.148 -0.128,-0.302 -0.177,-0.462c-0.049,-0.16 -0.081,-0.317 -0.094,-0.471c-0.013,-0.154 -0.02,-0.292 -0.02,-0.415c-0,-0.123 0.01,-0.233 0.03,-0.331c0.02,-0.098 0.11,-0.192 0.269,-0.282c0.159,-0.09 0.396,-0.188 0.711,-0.294c0.315,-0.106 0.692,-0.218 1.131,-0.334c0.439,-0.116 0.856,-0.21 1.252,-0.281c0.396,-0.071 0.71,-0.11 0.942,-0.116c0.233,-0.006 0.326,-0.003 0.281,0.01" style="fill:none;fill-rule:nonzero;stroke:#000;stroke-width:0.85px;"/><path d="M129.858,46.331c-0.028,-0.051 0.01,-0.206 0.115,-0.465c0.105,-0.259 0.428,-0.682 0.968,-1.27c0.54,-0.588 1.281,-1.423 2.223,-2.505c0.941,-1.082 1.951,-2.291 3.03,-3.627c1.078,-1.336 2.141,-2.65 3.187,-3.943c1.046,-1.293 2.028,-2.491 2.944,-3.596c0.916,-1.105 1.758,-2.093 2.527,-2.964c0.768,-0.871 1.532,-1.766 2.291,-2.684c0.759,-0.918 1.468,-1.757 2.127,-2.516c0.659,-0.759 1.255,-1.453 1.788,-2.083c0.533,-0.63 1.043,-1.22 1.528,-1.77c0.485,-0.551 0.926,-1.032 1.322,-1.445c0.396,-0.413 0.762,-0.808 1.099,-1.186c0.336,-0.378 0.609,-0.701 0.818,-0.971c0.209,-0.27 0.348,-0.453 0.418,-0.548c0.07,-0.095 0.104,-0.141 0.102,-0.137c-0.002,0.004 -0.011,0.036 -0.027,0.097c-0.016,0.06 -0.048,0.175 -0.095,0.342c-0.047,0.168 -0.124,0.426 -0.231,0.777c-0.107,0.35 -0.209,0.739 -0.306,1.167c-0.097,0.428 -0.162,0.797 -0.195,1.106c-0.034,0.31 -0.051,0.514 -0.052,0.612c-0.001,0.098 0.005,0.13 0.019,0.098c0.013,-0.033 0.047,-0.114 0.101,-0.245c0.054,-0.131 0.154,-0.402 0.302,-0.813c0.148,-0.411 0.337,-0.855 0.568,-1.331c0.231,-0.476 0.451,-0.91 0.66,-1.304c0.209,-0.394 0.352,-0.702 0.427,-0.925c0.076,-0.223 0.095,-0.365 0.058,-0.426c-0.037,-0.061 -0.161,-0.093 -0.374,-0.096c-0.212,-0.003 -0.472,-0.004 -0.778,-0.002c-0.306,0.002 -0.637,0.008 -0.993,0.018c-0.356,0.01 -0.697,0.023 -1.023,0.039c-0.326,0.017 -0.531,0.028 -0.616,0.036c-0.116,0.01 -0.154,-0.029 -0.113,-0.117" style="fill:none;fill-rule:nonzero;stroke:#c2361a;stroke-width:0.85px;"/><path d="M147.576,7.811c-0.032,-0.022 0.053,-0.144 0.257,-0.364c0.204,-0.221 0.439,-0.478 0.706,-0.772c0.267,-0.294 0.501,-0.577 0.704,-0.849c0.203,-0.273 0.348,-0.475 0.435,-0.607c0.087,-0.132 0.134,-0.207 0.14,-0.225c0.007,-0.018 -0.004,0.039 -0.031,0.169c-0.027,0.13 -0.085,0.376 -0.174,0.739c-0.089,0.363 -0.16,0.761 -0.212,1.195c-0.053,0.434 -0.082,0.858 -0.088,1.273c-0.006,0.415 -0.009,0.779 -0.009,1.092c0,0.314 0.001,0.537 0.003,0.671c0.002,0.133 0.013,0.206 0.032,0.219c0.026,0.017 0.024,-0.007 -0.007,-0.072" style="fill:none;fill-rule:nonzero;stroke:#c2361a;stroke-width:0.85px;"/><path d="M147.401,11.201l-0.534,0c-0.036,0 -0.049,0 -0.039,0c0.01,0 0.114,-0.018 0.311,-0.055c0.197,-0.037 0.507,-0.099 0.93,-0.188c0.423,-0.089 0.875,-0.178 1.355,-0.269c0.73,-0.137 1.384,-0.29 1.96,-0.457" style="fill:none;fill-rule:nonzero;stroke:#c2361a;stroke-width:0.85px;"/><path d="M218.14,43.042c-0.182,0.042 -0.227,0.024 -0.134,-0.054c0.068,-0.057 0.238,-0.199 0.511,-0.427c0.272,-0.228 0.705,-0.548 1.298,-0.961c0.593,-0.413 1.055,-0.726 1.385,-0.939c0.33,-0.213 0.672,-0.423 1.025,-0.631c0.353,-0.207 0.686,-0.395 0.999,-0.563c0.313,-0.168 0.613,-0.35 0.898,-0.546c0.286,-0.196 0.71,-0.513 1.272,-0.951c0.562,-0.438 1.044,-0.817 1.445,-1.137c0.401,-0.32 0.696,-0.55 0.886,-0.689c0.189,-0.139 0.434,-0.336 0.733,-0.59c0.299,-0.254 0.63,-0.517 0.994,-0.787c0.364,-0.27 0.797,-0.599 1.3,-0.984c0.503,-0.386 0.915,-0.71 1.237,-0.972c0.322,-0.262 0.676,-0.541 1.065,-0.835c0.388,-0.294 0.732,-0.569 1.032,-0.824c0.3,-0.255 0.549,-0.496 0.747,-0.722c0.199,-0.226 0.385,-0.494 0.558,-0.805c0.173,-0.31 0.316,-0.582 0.426,-0.816c0.111,-0.233 0.207,-0.492 0.288,-0.777c0.081,-0.284 0.158,-0.597 0.231,-0.938c0.073,-0.341 0.135,-0.787 0.187,-1.338c0.052,-0.551 0.089,-1.041 0.111,-1.472c0.022,-0.43 0.033,-1.562 0.034,-3.394c0.001,-1.833 -0.049,-3.14 -0.151,-3.922c-0.101,-0.782 -0.181,-1.363 -0.239,-1.745c-0.058,-0.381 -0.099,-0.785 -0.122,-1.21c-0.023,-0.425 -0.059,-0.736 -0.109,-0.932c-0.05,-0.196 -0.141,-0.473 -0.271,-0.83c-0.13,-0.357 -0.233,-0.747 -0.306,-1.168c-0.074,-0.421 -0.15,-0.749 -0.23,-0.983c-0.079,-0.234 -0.152,-0.403 -0.218,-0.508c-0.066,-0.104 -0.233,-0.204 -0.502,-0.3c-0.269,-0.096 -0.519,-0.162 -0.751,-0.198c-0.232,-0.037 -0.663,-0.055 -1.293,-0.056c-0.63,-0.001 -1.109,0.013 -1.435,0.041c-0.326,0.028 -0.654,0.043 -0.983,0.044c-0.329,0.001 -0.734,-0.063 -1.216,-0.192c-0.482,-0.129 -0.891,-0.234 -1.228,-0.315c-0.336,-0.081 -0.781,-0.126 -1.335,-0.135c-0.553,-0.009 -1.374,-0.01 -2.463,-0.002c-1.089,0.007 -1.856,-0.014 -2.302,-0.064c-0.446,-0.05 -1.219,-0.076 -2.319,-0.077c-1.1,-0.001 -1.811,-0.022 -2.132,-0.065c-0.321,-0.042 -0.649,-0.068 -0.984,-0.076c-0.335,-0.009 -0.698,-0.027 -1.087,-0.056c-0.389,-0.028 -0.987,-0.047 -1.791,-0.055c-0.805,-0.008 -1.539,0.063 -2.203,0.213c-0.664,0.15 -1.163,0.266 -1.497,0.348c-0.334,0.082 -0.677,0.131 -1.028,0.147c-0.351,0.016 -0.744,0.024 -1.18,0.024c-0.436,0 -0.909,0.007 -1.419,0.022c-0.51,0.015 -1.023,0.007 -1.537,-0.022c-0.514,-0.029 -0.853,-0.058 -1.016,-0.087c-0.163,-0.029 -0.332,-0.044 -0.506,-0.044c-0.174,0 -0.343,0.018 -0.505,0.055c-0.163,0.036 -0.364,0.105 -0.604,0.207c-0.24,0.101 -0.505,0.235 -0.795,0.402c-0.29,0.167 -0.53,0.327 -0.721,0.479c-0.19,0.152 -0.402,0.381 -0.635,0.687c-0.233,0.305 -0.401,0.552 -0.503,0.741c-0.102,0.189 -0.194,0.421 -0.275,0.696c-0.081,0.276 -0.14,0.583 -0.177,0.923c-0.037,0.34 -0.056,0.739 -0.057,1.198c-0.001,0.459 0.056,0.984 0.171,1.573c0.115,0.59 0.245,1.173 0.39,1.75c0.145,0.577 0.255,1.045 0.328,1.404c0.074,0.359 0.129,0.822 0.166,1.39c0.037,0.568 0.077,0.94 0.12,1.117c0.043,0.177 0.154,0.45 0.334,0.82c0.18,0.37 0.361,0.767 0.544,1.19c0.183,0.423 0.347,0.762 0.492,1.018c0.145,0.256 0.358,0.576 0.64,0.961c0.282,0.385 0.541,0.789 0.777,1.214c0.236,0.424 0.394,0.718 0.475,0.881c0.081,0.163 0.176,0.32 0.284,0.473c0.108,0.152 0.235,0.302 0.379,0.447c0.144,0.146 0.337,0.414 0.578,0.806c0.241,0.391 0.465,0.771 0.672,1.139c0.207,0.368 0.458,0.773 0.755,1.215c0.297,0.442 0.531,0.776 0.704,1.001c0.173,0.225 0.373,0.469 0.6,0.733c0.228,0.264 0.43,0.546 0.607,0.846c0.177,0.3 0.314,0.535 0.41,0.705c0.096,0.17 0.252,0.392 0.469,0.667c0.217,0.275 0.424,0.556 0.622,0.841c0.198,0.285 0.388,0.52 0.57,0.704c0.182,0.184 0.383,0.414 0.602,0.69c0.219,0.276 0.416,0.513 0.592,0.712c0.176,0.198 0.35,0.366 0.524,0.503c0.173,0.137 0.363,0.315 0.567,0.533c0.205,0.219 0.446,0.449 0.723,0.69c0.277,0.241 0.496,0.45 0.656,0.624c0.16,0.175 0.394,0.369 0.7,0.581c0.306,0.212 0.588,0.418 0.844,0.616c0.256,0.198 0.541,0.403 0.854,0.614c0.314,0.211 0.52,0.343 0.621,0.397c0.1,0.054 0.156,0.084 0.166,0.09c0.011,0.006 0.005,-0.001 -0.016,-0.02c-0.021,-0.019 -0.131,-0.119 -0.331,-0.3c-0.199,-0.181 -0.401,-0.345 -0.606,-0.491c-0.205,-0.147 -0.427,-0.272 -0.667,-0.375c-0.24,-0.104 -0.505,-0.206 -0.796,-0.308c-0.291,-0.101 -0.556,-0.213 -0.796,-0.336c-0.24,-0.122 -0.48,-0.26 -0.72,-0.413c-0.241,-0.153 -0.481,-0.327 -0.722,-0.522c-0.241,-0.195 -0.474,-0.409 -0.7,-0.642c-0.226,-0.233 -0.452,-0.444 -0.678,-0.635c-0.226,-0.191 -0.547,-0.443 -0.962,-0.757c-0.416,-0.314 -0.788,-0.612 -1.116,-0.896c-0.328,-0.284 -0.7,-0.568 -1.114,-0.853c-0.415,-0.285 -0.75,-0.54 -1.005,-0.764c-0.255,-0.224 -0.471,-0.414 -0.646,-0.568c-0.175,-0.154 -0.42,-0.302 -0.736,-0.444c-0.316,-0.142 -0.532,-0.256 -0.649,-0.342c-0.117,-0.086 -0.284,-0.249 -0.503,-0.489c-0.219,-0.24 -0.412,-0.426 -0.581,-0.558c-0.168,-0.132 -0.337,-0.304 -0.507,-0.515c-0.169,-0.211 -0.363,-0.391 -0.581,-0.539c-0.218,-0.148 -0.45,-0.345 -0.698,-0.591c-0.247,-0.245 -0.502,-0.481 -0.763,-0.707c-0.262,-0.226 -0.507,-0.456 -0.735,-0.691c-0.228,-0.235 -0.456,-0.418 -0.682,-0.551c-0.226,-0.132 -0.433,-0.285 -0.621,-0.458c-0.188,-0.173 -0.359,-0.312 -0.513,-0.414c-0.154,-0.103 -0.261,-0.198 -0.322,-0.286c-0.061,-0.087 -0.098,-0.284 -0.113,-0.591c-0.015,-0.306 -0.022,-0.881 -0.023,-1.723c-0.001,-0.842 0.035,-1.547 0.106,-2.113c0.071,-0.567 0.108,-1.177 0.109,-1.83c0.002,-0.654 0.035,-1.353 0.1,-2.098c0.065,-0.745 0.098,-1.569 0.098,-2.473c0.001,-0.903 -0.017,-1.542 -0.052,-1.917c-0.036,-0.375 -0.054,-0.918 -0.055,-1.631c-0.001,-0.713 0.064,-1.203 0.193,-1.472c0.13,-0.268 0.246,-0.486 0.348,-0.655c0.102,-0.168 0.203,-0.286 0.303,-0.352c0.1,-0.066 0.252,-0.111 0.457,-0.134c0.205,-0.023 0.453,-0.035 0.743,-0.035c0.29,-0.001 0.836,-0.026 1.636,-0.074c0.8,-0.049 1.548,-0.102 2.244,-0.159c0.696,-0.057 1.225,-0.104 1.589,-0.14c0.364,-0.036 0.852,-0.069 1.465,-0.101c0.613,-0.031 2.125,-0.048 4.535,-0.05c2.41,-0.002 3.882,0.015 4.414,0.049c0.532,0.034 1.185,0.101 1.959,0.202c0.774,0.1 1.432,0.173 1.975,0.219c0.543,0.045 1.949,0.069 4.218,0.072c2.269,0.002 3.548,0.013 3.838,0.033c0.29,0.02 0.708,0.075 1.257,0.167c0.548,0.091 1.215,0.196 1.999,0.314c0.784,0.118 1.4,0.204 1.849,0.256c0.449,0.053 0.967,0.102 1.556,0.147c0.589,0.045 1.001,0.112 1.235,0.199c0.234,0.087 0.314,0.139 0.238,0.155c-0.076,0.016 -0.265,0.055 -0.569,0.117c-0.303,0.062 -0.753,0.13 -1.348,0.201c-0.596,0.072 -1.28,0.134 -2.052,0.187c-0.772,0.053 -1.628,0.101 -2.567,0.145c-0.939,0.044 -1.951,0.101 -3.037,0.173c-1.086,0.071 -2.149,0.154 -3.189,0.247c-1.04,0.093 -2.038,0.198 -2.993,0.313c-0.955,0.116 -1.901,0.239 -2.838,0.369c-0.937,0.13 -2.02,0.28 -3.249,0.45c-1.228,0.169 -2.143,0.288 -2.744,0.356c-0.601,0.068 -1.176,0.117 -1.726,0.148c-0.549,0.031 -1.215,0.065 -1.998,0.101c-0.783,0.036 -1.515,0.091 -2.198,0.163c-0.683,0.072 -1.214,0.144 -1.595,0.215c-0.38,0.071 -0.799,0.162 -1.257,0.271c-0.458,0.109 -0.745,0.194 -0.863,0.255c-0.118,0.061 -0.057,0.116 0.181,0.165c0.238,0.049 0.957,0.146 2.158,0.29c1.2,0.144 2.281,0.26 3.241,0.347c0.961,0.087 1.756,0.143 2.386,0.167c0.63,0.024 1.331,0.041 2.102,0.05c0.772,0.009 3.517,0.014 8.235,0.015c4.718,0.001 7.611,0.005 8.678,0.012c1.067,0.007 1.802,0.024 2.204,0.05c0.402,0.026 0.945,0.098 1.628,0.214c0.683,0.116 1.104,0.197 1.262,0.242c0.158,0.045 0.251,0.108 0.278,0.188c0.027,0.08 -0.097,0.163 -0.373,0.248c-0.276,0.085 -0.634,0.161 -1.074,0.226c-0.44,0.066 -1.221,0.167 -2.344,0.303c-1.122,0.136 -2.25,0.286 -3.382,0.45c-1.132,0.164 -2.095,0.309 -2.89,0.437c-0.794,0.128 -1.545,0.254 -2.251,0.378c-0.706,0.124 -1.43,0.258 -2.17,0.402c-0.74,0.144 -1.824,0.366 -3.251,0.666c-1.427,0.3 -2.761,0.568 -4,0.803c-1.24,0.235 -2.143,0.404 -2.711,0.508c-0.568,0.104 -1.363,0.264 -2.385,0.483c-1.022,0.218 -1.893,0.42 -2.612,0.605c-0.72,0.185 -1.194,0.305 -1.422,0.359c-0.228,0.054 -0.406,0.105 -0.533,0.152c-0.127,0.047 -0.212,0.079 -0.255,0.095c-0.043,0.016 -0.029,0.03 0.042,0.043c0.071,0.012 0.21,0.037 0.42,0.074c0.209,0.037 0.6,0.074 1.172,0.11c0.572,0.037 1.254,0.06 2.046,0.069c0.792,0.01 1.662,0.014 2.611,0.014c0.949,0 1.69,-0.006 2.223,-0.02c0.533,-0.013 1.421,-0.069 2.665,-0.167c1.244,-0.098 2.196,-0.182 2.855,-0.253c0.66,-0.071 1.347,-0.139 2.063,-0.205c0.716,-0.066 1.398,-0.119 2.047,-0.158c0.649,-0.039 1.305,-0.087 1.967,-0.144c0.662,-0.056 1.318,-0.117 1.968,-0.182c0.65,-0.065 1.474,-0.142 2.472,-0.232c0.997,-0.09 1.697,-0.143 2.098,-0.161c0.401,-0.018 1.075,-0.027 2.022,-0.029c0.947,-0.002 1.494,-0.007 1.641,-0.014c0.147,-0.007 0.199,0.004 0.157,0.033c-0.042,0.029 -0.148,0.102 -0.318,0.219c-0.17,0.117 -0.446,0.265 -0.828,0.444c-0.382,0.179 -0.904,0.391 -1.566,0.634c-0.661,0.244 -1.482,0.507 -2.462,0.789c-0.98,0.282 -1.802,0.506 -2.467,0.672c-0.665,0.166 -2.039,0.487 -4.122,0.962c-2.084,0.475 -3.691,0.849 -4.821,1.121c-1.131,0.272 -1.953,0.477 -2.467,0.615c-0.514,0.138 -1.182,0.328 -2.005,0.571c-0.823,0.243 -1.59,0.484 -2.302,0.725c-0.712,0.24 -1.118,0.385 -1.22,0.432c-0.102,0.048 -0.138,0.115 -0.108,0.202c0.03,0.087 0.152,0.153 0.367,0.197c0.215,0.044 0.855,0.082 1.92,0.112c1.065,0.03 2.196,0.046 3.392,0.046c1.196,0.001 2.063,-0.002 2.6,-0.009c0.537,-0.007 1.122,-0.046 1.753,-0.119c0.631,-0.073 1.571,-0.2 2.82,-0.38c1.249,-0.181 2.176,-0.331 2.782,-0.451c0.606,-0.12 1.163,-0.242 1.669,-0.366c0.507,-0.124 1.185,-0.309 2.035,-0.557c0.85,-0.248 1.61,-0.479 2.282,-0.693c0.671,-0.214 1.292,-0.396 1.864,-0.546c0.571,-0.15 1.157,-0.289 1.756,-0.416c0.6,-0.127 1.137,-0.265 1.612,-0.414c0.475,-0.149 0.767,-0.224 0.877,-0.225c0.11,-0.001 0.156,0.054 0.141,0.165c-0.016,0.111 -0.135,0.235 -0.358,0.371c-0.223,0.136 -0.513,0.287 -0.87,0.453c-0.357,0.166 -1.139,0.493 -2.345,0.982c-1.206,0.489 -2.184,0.893 -2.934,1.213c-0.75,0.32 -1.471,0.641 -2.162,0.963c-0.691,0.322 -1.32,0.626 -1.886,0.911c-0.566,0.285 -1.129,0.587 -1.688,0.906c-0.559,0.318 -1.213,0.683 -1.963,1.095c-0.749,0.412 -1.43,0.805 -2.042,1.18c-0.612,0.375 -1.053,0.64 -1.325,0.795c-0.271,0.155 -0.6,0.399 -0.987,0.732c-0.386,0.334 -0.64,0.549 -0.759,0.646c-0.12,0.097 -0.299,0.158 -0.537,0.181c-0.238,0.024 -0.481,0.035 -0.728,0.035c-0.247,0 -0.44,-0.017 -0.578,-0.052c-0.138,-0.035 -0.285,-0.099 -0.439,-0.192c-0.154,-0.093 -0.423,-0.303 -0.808,-0.629c-0.385,-0.326 -0.776,-0.671 -1.175,-1.033c-0.399,-0.362 -0.817,-0.715 -1.255,-1.06c-0.438,-0.344 -0.759,-0.586 -0.964,-0.725c-0.204,-0.139 -0.547,-0.312 -1.029,-0.518c-0.482,-0.206 -0.858,-0.364 -1.129,-0.474c-0.271,-0.11 -0.565,-0.261 -0.882,-0.452c-0.318,-0.191 -0.495,-0.327 -0.534,-0.408c-0.053,-0.113 0.07,-0.077 0.369,0.106" style="fill:none;fill-rule:nonzero;stroke:#89d0d0;stroke-opacity:0.5;stroke-width:6.52px;"/><g transform="matrix(1,0,0,1,-21.84,-311.04)"><g transform="matrix(7.235392,0,0,1,-194.320638,0)"><text x="31.164px" y="354.795px" style="font-family:'AppleSDGothicNeo-Regular', 'Apple SD Gothic Neo';font-size:41.184px;fill:none;"></text></g><g transform="matrix(2.238958,0,0,1,-350.943853,0)"><text x="299.295px" y="366.601px" style="font-family:'Helvetica';font-size:2.957px;fill:none;"><tspan x="299.295px " y="366.601px ">C</tspan></text></g></g></g></svg>