<?xml version="1.0" encoding="UTF-8" standalone="no"?><!DOCTYPE svg PUBLIC "-//W3C//DTD SVG 1.1//EN" "http://www.w3.org/Graphics/SVG/1.1/DTD/svg11.dtd"><svg width="100%" height="100%" viewBox="0 0 417 91" version="1.1" xmlns="http://www.w3.org/2000/svg" xmlns:xlink="http://www.w3.org/1999/xlink" xml:space="preserve" xmlns:serif="http://www.serif.com/" style="fill-rule:evenodd;clip-rule:evenodd;stroke-linecap:round;stroke-linejoin:round;stroke-miterlimit:10;"><rect id="Artboard1" x="0" y="0" width="416.4" height="90.24" style="fill:#fff;"/><path d="M20.181,43.622c-0.056,-0.08 -0.131,-0.15 -0.227,-0.211c-0.095,-0.061 -0.196,-0.096 -0.302,-0.104c-0.106,-0.008 -0.22,-0.013 -0.341,-0.013c-0.121,-0 -0.243,0.02 -0.367,0.061c-0.124,0.041 -0.23,0.13 -0.317,0.268c-0.087,0.138 -0.134,0.293 -0.14,0.465c-0.006,0.172 0.072,0.34 0.232,0.504c0.16,0.164 0.371,0.288 0.632,0.372c0.261,0.084 0.5,0.106 0.717,0.065c0.217,-0.04 0.365,-0.187 0.443,-0.441c0.078,-0.253 0.066,-0.509 -0.038,-0.767c-0.104,-0.258 -0.277,-0.443 -0.521,-0.556c-0.243,-0.113 -0.464,-0.115 -0.661,-0.007c-0.197,0.109 -0.328,0.367 -0.392,0.775c-0.064,0.408 -0.019,0.763 0.133,1.066c0.153,0.303 0.404,0.438 0.755,0.404c0.506,-0.048 0.888,-0.405 1.148,-1.07" style="fill:none;fill-rule:nonzero;stroke:#000;stroke-width:1.7px;"/><path d="M51.934,44.038c0.001,-0.059 -0.028,-0.171 -0.087,-0.336c-0.036,-0.101 -0.087,-0.168 -0.154,-0.199c-0.066,-0.031 -0.158,-0.045 -0.276,-0.041c-0.118,0.003 -0.225,0.059 -0.321,0.166c-0.097,0.107 -0.154,0.25 -0.171,0.428c-0.018,0.178 0.032,0.353 0.15,0.525c0.118,0.172 0.282,0.297 0.495,0.376c0.212,0.079 0.421,0.091 0.627,0.034c0.206,-0.057 0.342,-0.213 0.409,-0.467c0.067,-0.255 0.062,-0.482 -0.015,-0.681c-0.077,-0.2 -0.213,-0.308 -0.408,-0.324c-0.195,-0.017 -0.345,0.075 -0.449,0.273c-0.105,0.199 -0.139,0.411 -0.104,0.638c0.05,0.32 0.392,0.407 1.025,0.261" style="fill:none;fill-rule:nonzero;stroke:#000;stroke-width:1.7px;"/><path d="M83.333,43.906c0.001,-0.058 0.005,-0.181 0.013,-0.368c0.005,-0.113 -0.018,-0.189 -0.07,-0.228c-0.052,-0.039 -0.186,-0.011 -0.402,0.084c-0.216,0.095 -0.422,0.303 -0.618,0.624c-0.196,0.321 -0.308,0.639 -0.336,0.954c-0.028,0.315 0.071,0.509 0.295,0.582c0.225,0.074 0.487,0.004 0.786,-0.21c0.299,-0.213 0.511,-0.465 0.638,-0.756c0.126,-0.291 0.179,-0.505 0.16,-0.643c-0.019,-0.138 -0.101,-0.165 -0.245,-0.08l-0.108,0.064l0.324,-0.192" style="fill:none;fill-rule:nonzero;stroke:#000;stroke-width:1.7px;"/><path d="M115.771,43.95c-0.018,-0.089 -0.05,-0.188 -0.098,-0.297c-0.048,-0.109 -0.097,-0.17 -0.147,-0.185c-0.05,-0.014 -0.13,0.021 -0.24,0.106c-0.109,0.085 -0.233,0.226 -0.372,0.425c-0.139,0.199 -0.226,0.395 -0.263,0.589c-0.037,0.194 0.08,0.324 0.349,0.39c0.27,0.067 0.64,0.036 1.11,-0.093c0.471,-0.128 0.826,-0.304 1.065,-0.527c0.24,-0.223 0.323,-0.4 0.25,-0.532c-0.073,-0.132 -0.269,-0.185 -0.588,-0.159c-0.319,0.026 -0.568,0.126 -0.745,0.299c-0.178,0.173 -0.246,0.336 -0.206,0.487l0.03,0.113l-0.091,-0.34" style="fill:none;fill-rule:nonzero;stroke:#000;stroke-width:1.7px;"/><path d="M147.73,44.081c-0.112,-0.04 -0.267,-0.086 -0.467,-0.138c-0.2,-0.052 -0.404,-0.037 -0.612,0.047c-0.208,0.083 -0.379,0.252 -0.513,0.505c-0.134,0.254 -0.179,0.486 -0.136,0.696c0.043,0.211 0.235,0.324 0.575,0.34c0.34,0.016 0.685,-0.084 1.034,-0.298c0.349,-0.214 0.596,-0.434 0.74,-0.66c0.144,-0.226 0.202,-0.393 0.174,-0.503c-0.028,-0.11 -0.114,-0.158 -0.258,-0.146c-0.144,0.013 -0.212,0.072 -0.202,0.179" style="fill:none;fill-rule:nonzero;stroke:#000;stroke-width:1.7px;"/><path d="M180.531,43.78c0.049,-0.089 -0.006,-0.205 -0.166,-0.348c-0.109,-0.098 -0.272,-0.144 -0.488,-0.138c-0.216,0.006 -0.433,0.098 -0.651,0.276c-0.218,0.178 -0.366,0.386 -0.442,0.624c-0.077,0.238 -0.02,0.421 0.169,0.548c0.19,0.127 0.469,0.177 0.839,0.149c0.37,-0.028 0.664,-0.127 0.881,-0.296c0.217,-0.169 0.28,-0.325 0.189,-0.468c-0.091,-0.143 -0.218,-0.223 -0.379,-0.24c-0.227,-0.024 -0.349,0.106 -0.364,0.39" style="fill:none;fill-rule:nonzero;stroke:#000;stroke-width:1.7px;"/><path d="M243.133,19.263c-0.056,-0.08 -0.131,-0.15 -0.227,-0.211c-0.095,-0.061 -0.196,-0.096 -0.302,-0.104c-0.106,-0.008 -0.22,-0.013 -0.341,-0.013c-0.121,-0 -0.243,0.02 -0.367,0.061c-0.124,0.041 -0.23,0.13 -0.317,0.268c-0.087,0.138 -0.134,0.293 -0.14,0.465c-0.006,0.172 0.072,0.34 0.232,0.504c0.16,0.164 0.371,0.288 0.632,0.372c0.261,0.084 0.5,0.106 0.717,0.065c0.217,-0.04 0.365,-0.187 0.443,-0.441c0.078,-0.253 0.066,-0.509 -0.038,-0.767c-0.104,-0.258 -0.277,-0.443 -0.521,-0.556c-0.243,-0.113 -0.464,-0.115 -0.661,-0.007c-0.197,0.109 -0.328,0.367 -0.392,0.775c-0.064,0.408 -0.019,0.763 0.133,1.066c0.153,0.303 0.404,0.438 0.755,0.404c0.506,-0.048 0.888,-0.405 1.148,-1.07" style="fill:none;fill-rule:nonzero;stroke:#000;stroke-width:1.7px;"/><path d="M274.886,19.679c0.001,-0.059 -0.028,-0.171 -0.087,-0.336c-0.036,-0.101 -0.087,-0.168 -0.154,-0.199c-0.066,-0.031 -0.158,-0.045 -0.276,-0.041c-0.118,0.003 -0.225,0.059 -0.321,0.166c-0.097,0.107 -0.154,0.25 -0.171,0.428c-0.018,0.178 0.032,0.353 0.15,0.525c0.118,0.172 0.282,0.297 0.495,0.376c0.212,0.079 0.421,0.091 0.627,0.034c0.206,-0.057 0.342,-0.213 0.409,-0.467c0.067,-0.255 0.062,-0.482 -0.015,-0.681c-0.077,-0.2 -0.213,-0.308 -0.408,-0.324c-0.195,-0.017 -0.345,0.075 -0.449,0.273c-0.105,0.199 -0.139,0.411 -0.104,0.638c0.05,0.32 0.392,0.407 1.025,0.261" style="fill:none;fill-rule:nonzero;stroke:#000;stroke-width:1.7px;"/><path d="M306.284,19.548c0.001,-0.058 0.005,-0.181 0.013,-0.368c0.005,-0.113 -0.018,-0.189 -0.07,-0.228c-0.052,-0.039 -0.186,-0.011 -0.402,0.084c-0.216,0.095 -0.422,0.303 -0.618,0.624c-0.196,0.321 -0.308,0.639 -0.336,0.954c-0.028,0.315 0.071,0.509 0.295,0.582c0.225,0.074 0.487,0.004 0.786,-0.21c0.299,-0.213 0.511,-0.465 0.638,-0.756c0.126,-0.291 0.179,-0.505 0.16,-0.643c-0.019,-0.138 -0.101,-0.165 -0.245,-0.08l-0.108,0.064l0.324,-0.192" style="fill:none;fill-rule:nonzero;stroke:#000;stroke-width:1.7px;"/><path d="M338.723,19.591c-0.018,-0.089 -0.05,-0.188 -0.098,-0.297c-0.048,-0.109 -0.097,-0.17 -0.147,-0.185c-0.05,-0.014 -0.13,0.021 -0.24,0.106c-0.109,0.085 -0.233,0.226 -0.372,0.425c-0.139,0.199 -0.226,0.395 -0.263,0.589c-0.037,0.194 0.08,0.324 0.349,0.39c0.27,0.067 0.64,0.036 1.11,-0.093c0.471,-0.128 0.826,-0.304 1.065,-0.527c0.24,-0.223 0.323,-0.4 0.25,-0.532c-0.073,-0.132 -0.269,-0.185 -0.588,-0.159c-0.319,0.026 -0.568,0.126 -0.745,0.299c-0.178,0.173 -0.246,0.336 -0.206,0.487l0.03,0.113l-0.091,-0.34" style="fill:none;fill-rule:nonzero;stroke:#000;stroke-width:1.7px;"/><path d="M370.681,19.723c-0.112,-0.04 -0.267,-0.086 -0.467,-0.138c-0.2,-0.052 -0.404,-0.037 -0.612,0.047c-0.208,0.083 -0.379,0.252 -0.513,0.505c-0.134,0.254 -0.179,0.486 -0.136,0.696c0.043,0.211 0.235,0.324 0.575,0.34c0.34,0.016 0.685,-0.084 1.034,-0.298c0.349,-0.214 0.596,-0.434 0.74,-0.66c0.144,-0.226 0.202,-0.393 0.174,-0.503c-0.028,-0.11 -0.114,-0.158 -0.258,-0.146c-0.144,0.013 -0.212,0.072 -0.202,0.179" style="fill:none;fill-rule:nonzero;stroke:#000;stroke-width:1.7px;"/><path d="M403.483,19.421c0.049,-0.089 -0.006,-0.205 -0.166,-0.348c-0.109,-0.098 -0.272,-0.144 -0.488,-0.138c-0.216,0.006 -0.433,0.098 -0.651,0.276c-0.218,0.178 -0.366,0.386 -0.442,0.624c-0.077,0.238 -0.02,0.421 0.169,0.548c0.19,0.127 0.469,0.177 0.839,0.149c0.37,-0.028 0.664,-0.127 0.881,-0.296c0.217,-0.169 0.28,-0.325 0.189,-0.468c-0.091,-0.143 -0.218,-0.223 -0.379,-0.24c-0.227,-0.024 -0.349,0.106 -0.364,0.39" style="fill:none;fill-rule:nonzero;stroke:#000;stroke-width:1.7px;"/><path d="M40.939,36.624c-0.063,-0.075 -0.137,-0.157 -0.222,-0.246c-0.085,-0.089 -0.186,-0.16 -0.302,-0.211c-0.116,-0.052 -0.293,-0.087 -0.531,-0.105c-0.238,-0.018 -0.526,-0.031 -0.864,-0.038c-0.338,-0.007 -0.692,-0.021 -1.063,-0.043c-0.371,-0.022 -0.769,-0.042 -1.194,-0.062c-0.425,-0.02 -0.887,-0.031 -1.386,-0.034c-0.499,-0.003 -0.974,-0.004 -1.424,-0.004c-0.45,0 -0.852,-0.007 -1.206,-0.02c-0.354,-0.014 -0.681,-0.052 -0.984,-0.116c-0.302,-0.064 -0.608,-0.123 -0.916,-0.178c-0.308,-0.055 -0.636,-0.085 -0.984,-0.089c-0.348,-0.004 -0.708,0.017 -1.08,0.064c-0.372,0.046 -0.738,0.108 -1.098,0.186c-0.36,0.078 -0.726,0.147 -1.097,0.209c-0.371,0.062 -0.744,0.104 -1.118,0.127c-0.375,0.023 -0.736,0.047 -1.085,0.071c-0.349,0.024 -0.687,0.058 -1.013,0.104c-0.326,0.045 -0.63,0.094 -0.912,0.145c-0.281,0.051 -0.531,0.083 -0.75,0.094c-0.218,0.011 -0.425,0.017 -0.62,0.017c-0.195,0 -0.401,0 -0.618,0c-0.217,0 -0.451,0.006 -0.7,0.017c-0.249,0.011 -0.493,0.053 -0.729,0.126c-0.237,0.073 -0.464,0.15 -0.681,0.23c-0.217,0.08 -0.423,0.168 -0.618,0.262c-0.195,0.094 -0.393,0.205 -0.594,0.332c-0.201,0.127 -0.42,0.275 -0.657,0.444c-0.237,0.169 -0.476,0.338 -0.717,0.506c-0.241,0.168 -0.461,0.319 -0.66,0.451c-0.198,0.133 -0.38,0.266 -0.543,0.399c-0.164,0.133 -0.328,0.272 -0.493,0.418c-0.165,0.145 -0.333,0.298 -0.503,0.458c-0.17,0.16 -0.331,0.327 -0.482,0.501c-0.151,0.174 -0.294,0.36 -0.429,0.559c-0.134,0.198 -0.256,0.405 -0.364,0.621c-0.108,0.216 -0.192,0.429 -0.252,0.639c-0.06,0.21 -0.105,0.407 -0.135,0.593c-0.03,0.185 -0.055,0.37 -0.075,0.555c-0.02,0.184 -0.031,0.37 -0.034,0.558c-0.003,0.187 -0.005,0.376 -0.005,0.565l0,1.103c0,0.167 0.004,0.317 0.013,0.452c0.009,0.135 0.044,0.267 0.105,0.399c0.061,0.131 0.14,0.268 0.236,0.411c0.096,0.143 0.192,0.282 0.287,0.416c0.095,0.134 0.192,0.259 0.292,0.374c0.099,0.115 0.205,0.228 0.316,0.34c0.111,0.112 0.222,0.226 0.332,0.342c0.11,0.117 0.215,0.228 0.315,0.333c0.1,0.105 0.195,0.201 0.285,0.286c0.09,0.086 0.19,0.167 0.301,0.246c0.111,0.078 0.241,0.148 0.39,0.209c0.149,0.061 0.309,0.135 0.478,0.221c0.17,0.086 0.341,0.173 0.513,0.258c0.173,0.086 0.363,0.157 0.573,0.214c0.209,0.057 0.453,0.091 0.73,0.103c0.277,0.011 0.573,0.017 0.888,0.017c0.315,0 0.639,0.005 0.971,0.013c0.332,0.009 0.678,0.037 1.036,0.084c0.359,0.047 0.749,0.093 1.172,0.138c0.422,0.045 0.859,0.071 1.309,0.08c0.45,0.008 0.869,0.013 1.255,0.013c0.387,0 0.747,0.017 1.082,0.052c0.334,0.034 0.671,0.084 1.01,0.149c0.34,0.065 0.7,0.128 1.083,0.189c0.382,0.061 0.791,0.118 1.227,0.173c0.436,0.054 0.886,0.087 1.352,0.098c0.466,0.011 0.937,0.017 1.413,0.017c0.476,0 0.964,0 1.464,0l1.532,0c0.522,0 1.034,-0.005 1.536,-0.014c0.502,-0.009 0.969,-0.021 1.399,-0.036c0.43,-0.015 0.842,-0.031 1.234,-0.051c0.392,-0.019 0.764,-0.04 1.116,-0.062c0.352,-0.022 0.679,-0.037 0.983,-0.045c0.303,-0.008 0.576,-0.012 0.819,-0.012c0.242,-0 0.485,-0 0.727,-0l1.688,0c0.313,0 0.625,-0.001 0.936,-0.003c0.311,-0.002 0.614,-0.008 0.909,-0.018c0.295,-0.01 0.584,-0.021 0.869,-0.032c0.285,-0.012 0.583,-0.031 0.895,-0.057c0.312,-0.026 0.638,-0.061 0.977,-0.104c0.34,-0.043 0.665,-0.091 0.975,-0.141c0.31,-0.051 0.605,-0.097 0.883,-0.139c0.278,-0.042 0.547,-0.08 0.808,-0.114c0.261,-0.034 0.498,-0.067 0.711,-0.099c0.213,-0.032 0.41,-0.065 0.591,-0.098c0.181,-0.034 0.356,-0.069 0.527,-0.105c0.17,-0.036 0.343,-0.075 0.518,-0.116c0.175,-0.041 0.351,-0.086 0.528,-0.134c0.177,-0.048 0.353,-0.103 0.529,-0.163c0.175,-0.06 0.358,-0.123 0.55,-0.189c0.191,-0.066 0.39,-0.133 0.596,-0.204c0.206,-0.07 0.42,-0.147 0.643,-0.232c0.223,-0.084 0.449,-0.177 0.678,-0.279c0.229,-0.102 0.445,-0.209 0.648,-0.323c0.203,-0.113 0.383,-0.24 0.54,-0.38c0.157,-0.14 0.304,-0.307 0.44,-0.502c0.136,-0.194 0.285,-0.413 0.447,-0.654c0.162,-0.242 0.303,-0.495 0.422,-0.759c0.119,-0.265 0.206,-0.529 0.262,-0.794c0.056,-0.265 0.087,-0.525 0.093,-0.781c0.006,-0.256 0.009,-0.501 0.009,-0.735l0,-0.68c0,-0.219 -0.015,-0.424 -0.045,-0.615c-0.03,-0.191 -0.078,-0.369 -0.145,-0.535c-0.067,-0.166 -0.142,-0.321 -0.224,-0.465c-0.082,-0.144 -0.168,-0.29 -0.258,-0.438c-0.09,-0.148 -0.188,-0.3 -0.294,-0.455c-0.106,-0.155 -0.226,-0.312 -0.358,-0.47c-0.133,-0.158 -0.271,-0.308 -0.414,-0.45c-0.143,-0.142 -0.299,-0.28 -0.468,-0.417c-0.169,-0.136 -0.347,-0.267 -0.533,-0.391c-0.187,-0.125 -0.381,-0.239 -0.582,-0.344c-0.201,-0.105 -0.416,-0.201 -0.646,-0.286c-0.23,-0.086 -0.464,-0.175 -0.702,-0.266c-0.238,-0.092 -0.479,-0.193 -0.721,-0.305c-0.243,-0.111 -0.492,-0.213 -0.75,-0.304c-0.257,-0.091 -0.517,-0.165 -0.779,-0.222c-0.262,-0.057 -0.531,-0.104 -0.804,-0.141c-0.274,-0.037 -0.56,-0.079 -0.858,-0.126c-0.298,-0.047 -0.612,-0.128 -0.941,-0.242c-0.329,-0.114 -0.7,-0.23 -1.112,-0.348c-0.412,-0.118 -0.834,-0.214 -1.266,-0.288c-0.432,-0.075 -0.808,-0.135 -1.128,-0.182c-0.321,-0.047 -0.601,-0.097 -0.841,-0.149c-0.24,-0.053 -0.487,-0.127 -0.74,-0.223c-0.254,-0.096 -0.563,-0.174 -0.927,-0.235c-0.364,-0.061 -0.779,-0.091 -1.243,-0.09c-0.464,0.001 -0.903,0.029 -1.315,0.085c-0.413,0.056 -0.702,0.111 -0.867,0.164c-0.165,0.053 -0.181,0.107 -0.049,0.162" style="fill:none;fill-rule:nonzero;stroke:#000;stroke-width:0.85px;"/><path d="M104.331,37.084c-0.068,-0.034 -0.191,-0.07 -0.368,-0.109c-0.177,-0.038 -0.413,-0.059 -0.707,-0.062c-0.294,-0.003 -0.635,-0.005 -1.024,-0.005l-1.251,0c-0.446,0 -0.913,0.006 -1.402,0.017c-0.489,0.012 -0.967,0.021 -1.434,0.029c-0.466,0.008 -0.897,0.013 -1.29,0.015c-0.394,0.003 -0.778,0.004 -1.152,0.004c-0.374,0 -0.748,-0.001 -1.123,-0.003c-0.375,-0.002 -0.737,-0.008 -1.089,-0.018c-0.351,-0.01 -0.689,-0.016 -1.013,-0.019c-0.324,-0.003 -0.642,-0.004 -0.953,-0.004l-0.924,0c-0.304,0 -0.603,0.007 -0.898,0.021c-0.294,0.014 -0.59,0.035 -0.886,0.064c-0.296,0.029 -0.594,0.065 -0.893,0.108c-0.299,0.043 -0.579,0.086 -0.841,0.127c-0.261,0.042 -0.515,0.079 -0.762,0.113c-0.246,0.034 -0.487,0.068 -0.723,0.102c-0.236,0.034 -0.472,0.073 -0.711,0.116c-0.238,0.044 -0.481,0.088 -0.729,0.134c-0.248,0.046 -0.491,0.1 -0.729,0.163c-0.239,0.063 -0.472,0.127 -0.701,0.192c-0.229,0.066 -0.461,0.128 -0.696,0.186c-0.235,0.059 -0.475,0.126 -0.721,0.203c-0.245,0.077 -0.485,0.161 -0.719,0.253c-0.234,0.092 -0.464,0.196 -0.69,0.311c-0.226,0.115 -0.447,0.242 -0.664,0.38c-0.217,0.138 -0.421,0.284 -0.612,0.436c-0.191,0.152 -0.367,0.315 -0.528,0.487c-0.161,0.172 -0.308,0.347 -0.44,0.524c-0.132,0.177 -0.254,0.362 -0.364,0.553c-0.11,0.191 -0.22,0.388 -0.329,0.589c-0.109,0.201 -0.218,0.411 -0.328,0.629c-0.109,0.218 -0.221,0.442 -0.335,0.673c-0.114,0.231 -0.224,0.457 -0.329,0.679c-0.105,0.222 -0.185,0.435 -0.238,0.64c-0.053,0.204 -0.084,0.408 -0.093,0.609c-0.008,0.202 -0.012,0.407 -0.009,0.616c0.002,0.209 0.024,0.418 0.066,0.627c0.042,0.209 0.106,0.406 0.192,0.589c0.086,0.184 0.184,0.348 0.292,0.493c0.109,0.145 0.231,0.278 0.369,0.4c0.137,0.122 0.3,0.246 0.487,0.372c0.187,0.126 0.396,0.249 0.626,0.368c0.23,0.12 0.45,0.237 0.661,0.351c0.211,0.114 0.405,0.223 0.583,0.326c0.178,0.103 0.356,0.191 0.533,0.265c0.177,0.074 0.355,0.141 0.532,0.203c0.178,0.061 0.354,0.122 0.529,0.182c0.175,0.061 0.372,0.125 0.59,0.193c0.219,0.068 0.49,0.131 0.814,0.19c0.324,0.059 0.683,0.101 1.078,0.127c0.395,0.026 0.786,0.048 1.173,0.067c0.387,0.019 0.768,0.047 1.142,0.082c0.374,0.036 0.764,0.093 1.168,0.171c0.404,0.078 0.848,0.153 1.331,0.225c0.483,0.072 0.989,0.123 1.518,0.154c0.529,0.031 1.043,0.048 1.543,0.051c0.499,0.003 1.01,0.012 1.531,0.028c0.521,0.016 1.07,0.062 1.644,0.137c0.575,0.076 1.239,0.146 1.994,0.21c0.754,0.064 1.501,0.106 2.239,0.125c0.738,0.019 1.381,0.028 1.928,0.028c0.547,0 1.029,0.003 1.445,0.01c0.416,0.007 0.82,0.014 1.212,0.022c0.391,0.008 0.795,0.012 1.212,0.012c0.417,0 0.841,-0.004 1.274,-0.013c0.433,-0.009 0.847,-0.023 1.243,-0.043c0.396,-0.02 0.75,-0.03 1.062,-0.03c0.312,-0 0.602,-0 0.87,-0l0.876,0c0.316,0 0.64,-0.007 0.971,-0.02c0.331,-0.014 0.635,-0.04 0.912,-0.078c0.277,-0.039 0.535,-0.076 0.773,-0.112c0.239,-0.036 0.5,-0.081 0.785,-0.134c0.284,-0.053 0.591,-0.103 0.921,-0.149c0.33,-0.046 0.642,-0.08 0.935,-0.101c0.294,-0.021 0.558,-0.033 0.793,-0.035c0.235,-0.003 0.461,-0.011 0.677,-0.024c0.216,-0.014 0.44,-0.043 0.67,-0.088c0.231,-0.045 0.458,-0.095 0.682,-0.148c0.224,-0.053 0.439,-0.108 0.647,-0.164c0.207,-0.056 0.408,-0.118 0.603,-0.188c0.195,-0.07 0.39,-0.156 0.587,-0.259c0.196,-0.103 0.428,-0.226 0.694,-0.368c0.267,-0.142 0.548,-0.287 0.846,-0.435c0.297,-0.148 0.558,-0.306 0.782,-0.473c0.224,-0.167 0.408,-0.344 0.552,-0.53c0.143,-0.187 0.276,-0.382 0.398,-0.585c0.122,-0.203 0.238,-0.407 0.348,-0.612c0.11,-0.205 0.198,-0.4 0.263,-0.585c0.065,-0.185 0.103,-0.369 0.115,-0.551c0.011,-0.182 0.007,-0.369 -0.014,-0.561c-0.021,-0.192 -0.053,-0.383 -0.096,-0.576c-0.043,-0.192 -0.09,-0.376 -0.141,-0.552c-0.051,-0.176 -0.112,-0.345 -0.184,-0.509c-0.072,-0.163 -0.148,-0.319 -0.229,-0.468c-0.08,-0.148 -0.151,-0.301 -0.213,-0.459c-0.061,-0.158 -0.12,-0.319 -0.176,-0.484c-0.056,-0.165 -0.12,-0.322 -0.192,-0.471c-0.072,-0.149 -0.153,-0.293 -0.242,-0.431c-0.089,-0.139 -0.195,-0.28 -0.317,-0.423c-0.122,-0.143 -0.288,-0.292 -0.498,-0.447c-0.21,-0.155 -0.452,-0.309 -0.725,-0.463c-0.273,-0.154 -0.554,-0.299 -0.843,-0.435c-0.289,-0.137 -0.574,-0.27 -0.854,-0.402c-0.28,-0.131 -0.545,-0.274 -0.794,-0.429c-0.249,-0.155 -0.502,-0.313 -0.758,-0.476c-0.257,-0.163 -0.531,-0.329 -0.824,-0.499c-0.293,-0.17 -0.585,-0.314 -0.877,-0.431c-0.292,-0.117 -0.589,-0.203 -0.892,-0.258c-0.303,-0.055 -0.616,-0.102 -0.939,-0.142c-0.323,-0.039 -0.641,-0.072 -0.955,-0.1c-0.314,-0.027 -0.617,-0.051 -0.91,-0.07c-0.292,-0.02 -0.575,-0.035 -0.848,-0.045c-0.273,-0.01 -0.555,-0.015 -0.849,-0.015c-0.293,-0 -0.584,-0 -0.872,-0l-0.788,0c-0.237,0 -0.469,-0.003 -0.695,-0.01c-0.226,-0.007 -0.45,-0.02 -0.671,-0.039c-0.221,-0.019 -0.445,-0.031 -0.671,-0.034c-0.226,-0.003 -0.437,-0.005 -0.633,-0.005l-0.865,0l-0.079,-0.003l0.141,-0.015" style="fill:none;fill-rule:nonzero;stroke:#000;stroke-width:0.85px;"/><path d="M165.12,37.565c-0.159,-0.031 -0.336,-0.067 -0.532,-0.109c-0.196,-0.042 -0.4,-0.079 -0.612,-0.114c-0.212,-0.034 -0.474,-0.063 -0.788,-0.085c-0.314,-0.022 -0.688,-0.035 -1.122,-0.038c-0.434,-0.003 -0.899,-0.004 -1.395,-0.004l-1.569,0c-0.55,0 -1.11,0.001 -1.682,0.003c-0.571,0.002 -1.11,0.012 -1.617,0.028c-0.507,0.016 -0.948,0.039 -1.325,0.068c-0.377,0.029 -0.718,0.066 -1.023,0.111c-0.305,0.045 -0.617,0.099 -0.938,0.162c-0.32,0.063 -0.633,0.118 -0.937,0.165c-0.305,0.047 -0.617,0.093 -0.937,0.139c-0.32,0.046 -0.641,0.099 -0.965,0.159c-0.324,0.06 -0.634,0.127 -0.932,0.199c-0.298,0.073 -0.563,0.145 -0.793,0.218c-0.231,0.073 -0.441,0.147 -0.629,0.222c-0.188,0.075 -0.386,0.16 -0.594,0.254c-0.207,0.094 -0.435,0.194 -0.681,0.301c-0.247,0.107 -0.502,0.223 -0.767,0.348c-0.265,0.126 -0.522,0.254 -0.774,0.385c-0.251,0.131 -0.487,0.262 -0.706,0.394c-0.22,0.131 -0.439,0.266 -0.657,0.404c-0.218,0.138 -0.439,0.282 -0.663,0.433c-0.224,0.15 -0.43,0.306 -0.619,0.466c-0.189,0.16 -0.356,0.323 -0.501,0.488c-0.145,0.165 -0.277,0.337 -0.397,0.516c-0.12,0.179 -0.23,0.366 -0.33,0.56c-0.101,0.194 -0.191,0.4 -0.272,0.618c-0.081,0.218 -0.156,0.454 -0.227,0.71c-0.071,0.256 -0.148,0.53 -0.233,0.823c-0.084,0.293 -0.176,0.581 -0.276,0.865c-0.1,0.283 -0.181,0.528 -0.244,0.736c-0.063,0.207 -0.095,0.375 -0.098,0.504c-0.002,0.129 0.043,0.24 0.137,0.333c0.093,0.093 0.218,0.187 0.375,0.281c0.157,0.094 0.32,0.194 0.49,0.298c0.17,0.104 0.344,0.21 0.521,0.317c0.177,0.107 0.361,0.212 0.553,0.317c0.191,0.105 0.39,0.207 0.596,0.307c0.206,0.1 0.42,0.197 0.644,0.292c0.224,0.095 0.438,0.187 0.643,0.274c0.205,0.088 0.413,0.167 0.623,0.239c0.21,0.072 0.441,0.13 0.693,0.174c0.252,0.045 0.503,0.086 0.753,0.125c0.251,0.039 0.502,0.087 0.755,0.144c0.252,0.057 0.525,0.125 0.816,0.202c0.292,0.078 0.616,0.147 0.974,0.209c0.357,0.062 0.726,0.113 1.105,0.155c0.379,0.042 0.735,0.08 1.068,0.114c0.333,0.034 0.645,0.072 0.938,0.113c0.292,0.041 0.596,0.087 0.91,0.137c0.314,0.051 0.669,0.105 1.064,0.164c0.395,0.059 0.838,0.103 1.328,0.133c0.491,0.03 1.009,0.063 1.557,0.099c0.547,0.036 1.124,0.075 1.729,0.119c0.606,0.044 1.219,0.087 1.841,0.131c0.622,0.044 1.248,0.085 1.877,0.125c0.629,0.039 1.263,0.062 1.903,0.068c0.639,0.006 1.235,0.009 1.786,0.009c0.551,0 1.049,0.002 1.492,0.007c0.443,0.004 0.855,0.028 1.236,0.07c0.381,0.042 0.756,0.079 1.126,0.109c0.37,0.03 0.738,0.047 1.105,0.05c0.367,0.003 0.739,-0.006 1.115,-0.026c0.377,-0.02 0.749,-0.062 1.116,-0.124c0.367,-0.063 0.735,-0.117 1.104,-0.164c0.369,-0.047 0.749,-0.089 1.14,-0.126c0.391,-0.037 0.776,-0.066 1.155,-0.089c0.379,-0.022 0.774,-0.051 1.183,-0.087c0.41,-0.036 0.799,-0.074 1.17,-0.116c0.37,-0.042 0.681,-0.078 0.933,-0.11c0.252,-0.032 0.478,-0.059 0.678,-0.081c0.2,-0.022 0.423,-0.054 0.668,-0.097c0.246,-0.042 0.498,-0.102 0.756,-0.179c0.258,-0.077 0.499,-0.149 0.721,-0.215c0.222,-0.066 0.446,-0.125 0.672,-0.177c0.226,-0.051 0.454,-0.108 0.685,-0.17c0.231,-0.062 0.468,-0.16 0.713,-0.293c0.245,-0.133 0.486,-0.298 0.722,-0.496c0.237,-0.197 0.455,-0.409 0.656,-0.634c0.201,-0.225 0.384,-0.448 0.551,-0.667c0.167,-0.219 0.315,-0.43 0.445,-0.632c0.13,-0.203 0.24,-0.4 0.329,-0.592c0.089,-0.192 0.169,-0.388 0.24,-0.587c0.071,-0.199 0.12,-0.402 0.146,-0.608c0.026,-0.207 0.039,-0.403 0.04,-0.588c0,-0.186 -0.013,-0.363 -0.041,-0.531c-0.028,-0.168 -0.06,-0.334 -0.096,-0.497c-0.037,-0.163 -0.074,-0.325 -0.113,-0.485c-0.039,-0.16 -0.079,-0.321 -0.12,-0.481c-0.041,-0.16 -0.086,-0.318 -0.134,-0.474c-0.048,-0.156 -0.11,-0.306 -0.184,-0.45c-0.074,-0.144 -0.162,-0.283 -0.263,-0.417c-0.101,-0.134 -0.232,-0.268 -0.392,-0.401c-0.16,-0.134 -0.358,-0.27 -0.594,-0.408c-0.236,-0.138 -0.489,-0.289 -0.761,-0.453c-0.272,-0.164 -0.533,-0.329 -0.784,-0.495c-0.251,-0.166 -0.497,-0.322 -0.738,-0.469c-0.241,-0.147 -0.482,-0.279 -0.722,-0.396c-0.24,-0.117 -0.49,-0.232 -0.751,-0.345c-0.261,-0.113 -0.564,-0.233 -0.909,-0.361c-0.345,-0.127 -0.722,-0.242 -1.13,-0.343c-0.408,-0.101 -0.84,-0.196 -1.296,-0.286c-0.456,-0.09 -0.922,-0.178 -1.397,-0.266c-0.476,-0.087 -0.917,-0.173 -1.323,-0.256c-0.406,-0.083 -0.778,-0.17 -1.115,-0.262c-0.337,-0.092 -0.626,-0.185 -0.867,-0.28c-0.24,-0.095 -0.465,-0.182 -0.672,-0.26c-0.207,-0.079 -0.425,-0.136 -0.652,-0.172c-0.227,-0.036 -0.473,-0.054 -0.737,-0.055c-0.264,-0.001 -0.507,-0.001 -0.728,-0.001l-0.637,0c-0.204,0 -0.427,-0.003 -0.671,-0.011c-0.244,-0.007 -0.501,-0.011 -0.77,-0.011c-0.269,-0 -0.519,-0 -0.75,-0l-0.864,0c-0.065,0 -0.123,0.004 -0.174,0.013c-0.051,0.009 -0.093,0.026 -0.124,0.052c-0.044,0.035 -0.03,0.017 0.04,-0.057" style="fill:none;fill-rule:nonzero;stroke:#000;stroke-width:0.85px;"/><path d="M60.801,50.274c0.012,-0.095 0.033,-0.194 0.062,-0.297c0.03,-0.103 0.056,-0.188 0.077,-0.253c0.022,-0.066 0.037,-0.132 0.045,-0.197c0.008,-0.066 0.007,-0.128 -0.004,-0.187c-0.011,-0.059 -0.089,-0.1 -0.233,-0.123c-0.145,-0.023 -0.357,-0.003 -0.637,0.063c-0.28,0.065 -0.584,0.226 -0.912,0.482c-0.328,0.256 -0.615,0.569 -0.863,0.937c-0.248,0.369 -0.39,0.727 -0.425,1.075c-0.035,0.348 0.072,0.61 0.321,0.785c0.249,0.175 0.553,0.274 0.913,0.295c0.359,0.021 0.678,-0.016 0.957,-0.11c0.279,-0.095 0.504,-0.231 0.678,-0.409c0.173,-0.178 0.327,-0.372 0.462,-0.583c0.135,-0.21 0.263,-0.424 0.385,-0.64c0.122,-0.216 0.22,-0.416 0.293,-0.598c0.073,-0.182 0.116,-0.321 0.13,-0.416c0.014,-0.096 0.018,-0.152 0.014,-0.169c-0.004,-0.017 -0.023,-0.017 -0.056,0.001c-0.033,0.018 -0.063,0.094 -0.091,0.228c-0.027,0.134 -0.042,0.306 -0.042,0.515c-0.001,0.209 0.024,0.432 0.075,0.667c0.05,0.235 0.132,0.453 0.245,0.652c0.166,0.293 0.422,0.507 0.767,0.64" style="fill:none;fill-rule:nonzero;stroke:#000;stroke-width:0.85px;"/><path d="M125.134,47.605c-0.033,-0.078 -0.074,-0.158 -0.122,-0.241c-0.048,-0.083 -0.08,-0.136 -0.095,-0.16c-0.015,-0.023 -0.027,-0.034 -0.034,-0.032c-0.007,0.002 -0.021,0.066 -0.043,0.192c-0.022,0.126 -0.042,0.337 -0.062,0.631c-0.02,0.294 -0.031,0.632 -0.034,1.014c-0.003,0.381 -0,0.762 0.009,1.14c0.009,0.379 0.033,0.696 0.071,0.951c0.038,0.256 0.069,0.434 0.091,0.534c0.023,0.1 0.04,0.153 0.052,0.157c0.012,0.005 0.049,-0.047 0.112,-0.155c0.063,-0.108 0.17,-0.303 0.32,-0.585c0.15,-0.282 0.322,-0.573 0.516,-0.873c0.194,-0.3 0.374,-0.537 0.541,-0.71c0.167,-0.173 0.323,-0.275 0.469,-0.304c0.146,-0.029 0.323,0.025 0.531,0.165c0.208,0.139 0.446,0.309 0.713,0.508c0.267,0.199 0.48,0.388 0.638,0.566c0.158,0.178 0.244,0.366 0.256,0.564c0.012,0.198 -0.062,0.403 -0.222,0.614c-0.161,0.212 -0.368,0.407 -0.622,0.586c-0.254,0.179 -0.503,0.321 -0.747,0.426c-0.244,0.105 -0.48,0.17 -0.709,0.195c-0.229,0.025 -0.453,-0.01 -0.673,-0.104c-0.22,-0.094 -0.384,-0.199 -0.493,-0.315c-0.155,-0.165 -0.179,-0.305 -0.072,-0.42" style="fill:none;fill-rule:nonzero;stroke:#000;stroke-width:0.85px;"/><path d="M190.669,49.399c-0.006,-0.094 -0.028,-0.188 -0.068,-0.279c-0.039,-0.092 -0.098,-0.159 -0.176,-0.201c-0.078,-0.042 -0.193,-0.067 -0.346,-0.076c-0.153,-0.008 -0.33,-0.003 -0.53,0.018c-0.2,0.02 -0.411,0.093 -0.631,0.217c-0.221,0.125 -0.427,0.29 -0.619,0.497c-0.192,0.207 -0.319,0.422 -0.38,0.645c-0.061,0.224 -0.039,0.431 0.065,0.622c0.105,0.191 0.264,0.354 0.479,0.487c0.215,0.134 0.424,0.239 0.629,0.316c0.205,0.077 0.403,0.13 0.596,0.159c0.192,0.029 0.398,0.043 0.618,0.043c0.321,0 0.785,0.015 1.392,0.042" style="fill:none;fill-rule:nonzero;stroke:#000;stroke-width:0.85px;"/><path d="M67.56,27.481c-0.023,-0.07 -0.094,-0.145 -0.213,-0.225c-0.119,-0.08 -0.3,-0.134 -0.543,-0.162c-0.243,-0.028 -0.532,-0.055 -0.867,-0.081c-0.335,-0.026 -0.702,-0.06 -1.101,-0.101c-0.399,-0.041 -0.826,-0.083 -1.281,-0.127c-0.455,-0.044 -0.922,-0.079 -1.4,-0.107c-0.478,-0.028 -0.961,-0.044 -1.449,-0.049c-0.488,-0.005 -0.979,-0.014 -1.472,-0.026c-0.494,-0.012 -0.988,-0.024 -1.483,-0.036c-0.495,-0.012 -1.007,-0.02 -1.536,-0.023c-0.529,-0.003 -1.03,-0.004 -1.502,-0.004c-0.472,0 -0.924,0.002 -1.355,0.007c-0.431,0.005 -0.835,0.008 -1.212,0.011c-0.376,0.003 -0.724,0.003 -1.042,0.001c-0.318,-0.002 -0.616,-0.02 -0.894,-0.052c-0.278,-0.033 -0.573,-0.061 -0.887,-0.084c-0.314,-0.023 -0.647,-0.035 -0.999,-0.035c-0.352,-0 -0.699,0.009 -1.042,0.027c-0.343,0.018 -0.693,0.039 -1.049,0.061c-0.357,0.022 -0.727,0.047 -1.113,0.073c-0.385,0.026 -0.778,0.06 -1.179,0.101c-0.4,0.041 -0.812,0.08 -1.234,0.117c-0.422,0.037 -0.861,0.068 -1.316,0.092c-0.455,0.024 -0.948,0.057 -1.477,0.098c-0.53,0.041 -1.042,0.078 -1.536,0.113c-0.494,0.035 -0.929,0.06 -1.305,0.075c-0.376,0.015 -0.744,0.029 -1.105,0.041c-0.361,0.012 -0.756,0.043 -1.184,0.095c-0.428,0.052 -0.834,0.111 -1.216,0.176c-0.382,0.066 -0.733,0.12 -1.053,0.162c-0.32,0.042 -0.657,0.078 -1.012,0.107c-0.355,0.029 -0.737,0.082 -1.147,0.161c-0.41,0.078 -0.81,0.171 -1.2,0.277c-0.39,0.106 -0.757,0.209 -1.102,0.306c-0.345,0.098 -0.663,0.179 -0.954,0.244c-0.291,0.065 -0.571,0.111 -0.838,0.139c-0.267,0.028 -0.545,0.059 -0.833,0.091c-0.288,0.033 -0.59,0.086 -0.905,0.16c-0.315,0.074 -0.629,0.164 -0.94,0.27c-0.312,0.106 -0.603,0.202 -0.875,0.289c-0.272,0.086 -0.523,0.158 -0.752,0.215c-0.229,0.057 -0.458,0.112 -0.686,0.165c-0.228,0.053 -0.466,0.098 -0.713,0.132c-0.247,0.035 -0.515,0.082 -0.805,0.141c-0.29,0.059 -0.589,0.132 -0.898,0.219c-0.309,0.087 -0.589,0.181 -0.839,0.283c-0.25,0.101 -0.477,0.21 -0.68,0.326c-0.203,0.116 -0.403,0.247 -0.599,0.391c-0.197,0.145 -0.402,0.29 -0.615,0.436c-0.214,0.146 -0.423,0.284 -0.627,0.414c-0.205,0.13 -0.396,0.247 -0.575,0.353c-0.179,0.105 -0.351,0.208 -0.519,0.307c-0.167,0.099 -0.35,0.207 -0.548,0.323c-0.198,0.116 -0.418,0.244 -0.659,0.384c-0.241,0.14 -0.492,0.286 -0.752,0.437c-0.26,0.151 -0.508,0.3 -0.745,0.448c-0.237,0.148 -0.452,0.294 -0.646,0.438c-0.194,0.144 -0.36,0.302 -0.498,0.475c-0.138,0.173 -0.254,0.373 -0.348,0.6c-0.094,0.227 -0.181,0.459 -0.261,0.698c-0.08,0.238 -0.169,0.47 -0.265,0.694c-0.096,0.224 -0.208,0.45 -0.336,0.678c-0.128,0.228 -0.256,0.463 -0.386,0.706c-0.129,0.243 -0.243,0.476 -0.341,0.698c-0.099,0.222 -0.185,0.428 -0.258,0.616c-0.074,0.188 -0.145,0.369 -0.213,0.541c-0.068,0.173 -0.13,0.351 -0.187,0.536c-0.056,0.184 -0.099,0.372 -0.127,0.564c-0.028,0.192 -0.044,0.387 -0.047,0.586c-0.003,0.199 -0.007,0.398 -0.011,0.598c-0.005,0.2 -0.008,0.395 -0.011,0.588c-0.003,0.192 -0.005,0.379 -0.007,0.559c-0.002,0.18 -0.007,0.356 -0.014,0.526c-0.007,0.17 -0.016,0.344 -0.025,0.521c-0.01,0.177 -0.016,0.355 -0.019,0.536c-0.003,0.18 -0.004,0.355 -0.004,0.526l0,0.507c0,0.168 0.002,0.336 0.007,0.506c0.004,0.17 0.022,0.358 0.053,0.566c0.031,0.208 0.068,0.43 0.111,0.667c0.043,0.237 0.092,0.474 0.145,0.71c0.053,0.236 0.106,0.459 0.16,0.669c0.054,0.21 0.104,0.414 0.15,0.611c0.046,0.197 0.098,0.388 0.156,0.573c0.058,0.185 0.129,0.362 0.216,0.531c0.086,0.168 0.189,0.331 0.31,0.486c0.12,0.156 0.266,0.305 0.436,0.446c0.17,0.142 0.347,0.266 0.53,0.371c0.183,0.106 0.362,0.199 0.537,0.28c0.175,0.081 0.357,0.167 0.545,0.258c0.189,0.091 0.393,0.205 0.613,0.342c0.22,0.137 0.447,0.277 0.68,0.421c0.233,0.143 0.467,0.297 0.703,0.462c0.236,0.164 0.477,0.317 0.724,0.457c0.247,0.14 0.49,0.27 0.727,0.389c0.237,0.119 0.463,0.235 0.677,0.347c0.214,0.112 0.421,0.23 0.621,0.353c0.2,0.124 0.411,0.252 0.634,0.385c0.223,0.133 0.45,0.262 0.68,0.387c0.231,0.125 0.447,0.231 0.647,0.317c0.201,0.086 0.397,0.159 0.588,0.218c0.192,0.059 0.412,0.123 0.662,0.194c0.25,0.07 0.532,0.142 0.846,0.214c0.314,0.072 0.651,0.155 1.012,0.247c0.361,0.092 0.734,0.169 1.12,0.231c0.386,0.062 0.753,0.119 1.1,0.169c0.347,0.051 0.663,0.127 0.947,0.229c0.284,0.102 0.566,0.209 0.847,0.322c0.281,0.112 0.599,0.216 0.953,0.312c0.354,0.095 0.731,0.168 1.131,0.219c0.4,0.051 0.804,0.083 1.212,0.096c0.408,0.013 0.808,0.025 1.198,0.037c0.39,0.011 0.777,0.045 1.16,0.099c0.383,0.055 0.79,0.111 1.221,0.17c0.431,0.058 0.864,0.115 1.3,0.168c0.436,0.054 0.866,0.09 1.292,0.108c0.426,0.018 0.865,0.028 1.317,0.028c0.453,0 0.909,0.006 1.37,0.017c0.461,0.011 0.883,0.048 1.268,0.109c0.385,0.062 0.736,0.128 1.054,0.198c0.318,0.071 0.623,0.134 0.915,0.191c0.292,0.057 0.596,0.099 0.913,0.126c0.317,0.027 0.657,0.058 1.019,0.092c0.363,0.034 0.751,0.065 1.166,0.095c0.414,0.03 0.823,0.052 1.224,0.067c0.402,0.015 0.797,0.023 1.186,0.023c0.389,0 0.784,-0.004 1.185,-0.013c0.401,-0.009 0.787,-0.016 1.157,-0.022c0.371,-0.005 0.741,-0.006 1.113,-0.001c0.371,0.005 0.745,0.012 1.122,0.021c0.377,0.01 0.748,0.015 1.113,0.015c0.365,0 0.739,-0.003 1.122,-0.01c0.383,-0.007 0.772,-0.014 1.166,-0.022c0.394,-0.008 0.773,-0.005 1.135,0.009c0.363,0.014 0.737,0.032 1.122,0.054c0.385,0.023 0.772,0.034 1.158,0.034c0.387,0 0.761,0 1.121,0l2.3,0c0.417,0 0.844,0.003 1.28,0.01c0.436,0.007 0.882,0.019 1.336,0.036c0.454,0.017 0.894,0.028 1.318,0.034c0.424,0.005 0.844,0.007 1.259,0.005c0.415,-0.002 0.852,-0.022 1.309,-0.059c0.457,-0.037 0.911,-0.075 1.36,-0.112c0.449,-0.037 0.867,-0.058 1.255,-0.061c0.388,-0.003 0.793,0.001 1.217,0.012c0.423,0.012 0.864,0.019 1.323,0.022c0.459,0.003 0.901,0.004 1.325,0.004l1.225,0c0.392,0 0.761,0.001 1.106,0.003c0.345,0.002 0.66,0.015 0.943,0.039c0.283,0.024 0.572,0.037 0.865,0.04c0.293,0.003 0.6,0 0.92,-0.009c0.32,-0.009 0.65,-0.028 0.99,-0.057c0.34,-0.029 0.667,-0.046 0.982,-0.052c0.315,-0.006 0.626,-0.01 0.934,-0.012c0.308,-0.002 0.634,-0.012 0.978,-0.028c0.344,-0.016 0.686,-0.039 1.027,-0.068c0.341,-0.029 0.678,-0.061 1.011,-0.098c0.333,-0.036 0.672,-0.067 1.016,-0.092c0.344,-0.025 0.693,-0.044 1.045,-0.056c0.353,-0.013 0.691,-0.02 1.016,-0.023c0.324,-0.003 0.627,-0.004 0.908,-0.004c0.281,0 0.567,-0.007 0.857,-0.021c0.29,-0.014 0.601,-0.031 0.933,-0.05c0.332,-0.02 0.661,-0.031 0.988,-0.034c0.327,-0.003 0.631,-0.004 0.911,-0.004l0.885,0c0.309,0 0.642,0.003 0.998,0.01c0.356,0.007 0.725,0.016 1.105,0.029c0.381,0.012 0.757,0.024 1.13,0.036c0.373,0.012 0.739,0.03 1.099,0.054c0.36,0.024 0.732,0.048 1.117,0.072c0.385,0.025 0.801,0.041 1.248,0.049c0.448,0.008 0.894,0.012 1.34,0.012c0.446,0 0.856,-0.004 1.231,-0.013c0.375,-0.009 0.725,-0.033 1.049,-0.071c0.324,-0.038 0.643,-0.07 0.957,-0.095c0.314,-0.025 0.634,-0.049 0.962,-0.073c0.327,-0.024 0.648,-0.052 0.963,-0.083c0.315,-0.032 0.608,-0.065 0.879,-0.102c0.271,-0.036 0.532,-0.069 0.783,-0.099c0.25,-0.03 0.512,-0.05 0.786,-0.06c0.274,-0.01 0.556,-0.016 0.847,-0.016c0.291,-0 0.579,-0 0.864,-0l3.02,0c0.238,0 0.476,-0.007 0.711,-0.021c0.236,-0.014 0.462,-0.032 0.679,-0.053c0.217,-0.022 0.428,-0.044 0.633,-0.066c0.205,-0.022 0.407,-0.044 0.606,-0.066c0.199,-0.022 0.397,-0.039 0.595,-0.052c0.197,-0.013 0.384,-0.02 0.56,-0.023c0.176,-0.003 0.348,-0.004 0.515,-0.004c0.168,0 0.34,-0.005 0.517,-0.014c0.177,-0.009 0.367,-0.027 0.57,-0.053c0.203,-0.026 0.414,-0.05 0.633,-0.072c0.218,-0.022 0.431,-0.044 0.639,-0.066c0.207,-0.022 0.406,-0.044 0.596,-0.066c0.19,-0.022 0.385,-0.048 0.586,-0.079c0.201,-0.031 0.406,-0.066 0.615,-0.105c0.209,-0.039 0.402,-0.071 0.579,-0.096c0.177,-0.025 0.343,-0.047 0.499,-0.067c0.156,-0.02 0.309,-0.039 0.46,-0.058c0.151,-0.019 0.309,-0.049 0.476,-0.09c0.167,-0.041 0.339,-0.083 0.516,-0.127c0.177,-0.044 0.355,-0.086 0.532,-0.128c0.177,-0.042 0.348,-0.077 0.511,-0.107c0.163,-0.029 0.329,-0.06 0.496,-0.091c0.167,-0.031 0.337,-0.07 0.51,-0.115c0.173,-0.046 0.344,-0.102 0.514,-0.169c0.17,-0.067 0.342,-0.144 0.517,-0.231c0.174,-0.087 0.361,-0.177 0.559,-0.272c0.198,-0.095 0.408,-0.191 0.629,-0.288c0.221,-0.097 0.43,-0.2 0.629,-0.309c0.198,-0.109 0.376,-0.221 0.533,-0.335c0.157,-0.114 0.308,-0.233 0.454,-0.356c0.146,-0.124 0.304,-0.247 0.476,-0.371c0.172,-0.124 0.335,-0.239 0.489,-0.344c0.154,-0.105 0.294,-0.208 0.419,-0.308c0.125,-0.1 0.248,-0.204 0.369,-0.313c0.121,-0.109 0.255,-0.233 0.403,-0.372c0.147,-0.14 0.29,-0.289 0.427,-0.449c0.137,-0.16 0.256,-0.324 0.357,-0.492c0.101,-0.168 0.178,-0.324 0.231,-0.468c0.053,-0.144 0.092,-0.282 0.117,-0.414c0.025,-0.132 0.048,-0.273 0.07,-0.425c0.022,-0.152 0.052,-0.32 0.09,-0.503c0.038,-0.183 0.092,-0.394 0.161,-0.633c0.07,-0.239 0.137,-0.491 0.203,-0.758c0.066,-0.267 0.131,-0.532 0.194,-0.795c0.063,-0.263 0.124,-0.512 0.183,-0.746c0.058,-0.234 0.117,-0.457 0.175,-0.667c0.058,-0.21 0.103,-0.407 0.134,-0.59c0.031,-0.183 0.048,-0.363 0.051,-0.541c0.003,-0.177 0.002,-0.357 -0.002,-0.539c-0.004,-0.182 -0.019,-0.362 -0.042,-0.54c-0.024,-0.178 -0.048,-0.356 -0.072,-0.536c-0.024,-0.18 -0.056,-0.362 -0.097,-0.546c-0.041,-0.184 -0.087,-0.373 -0.137,-0.565c-0.051,-0.192 -0.1,-0.387 -0.149,-0.586c-0.049,-0.199 -0.092,-0.404 -0.129,-0.615c-0.037,-0.211 -0.073,-0.423 -0.107,-0.637c-0.034,-0.213 -0.072,-0.447 -0.116,-0.7c-0.043,-0.254 -0.096,-0.525 -0.159,-0.813c-0.063,-0.288 -0.127,-0.583 -0.192,-0.884c-0.066,-0.301 -0.142,-0.584 -0.228,-0.848c-0.086,-0.265 -0.202,-0.502 -0.348,-0.713c-0.146,-0.21 -0.32,-0.417 -0.522,-0.619c-0.203,-0.202 -0.411,-0.389 -0.625,-0.561c-0.214,-0.172 -0.431,-0.326 -0.651,-0.463c-0.22,-0.137 -0.454,-0.28 -0.701,-0.43c-0.247,-0.15 -0.496,-0.315 -0.747,-0.496c-0.251,-0.18 -0.491,-0.388 -0.72,-0.622c-0.229,-0.234 -0.465,-0.466 -0.707,-0.695c-0.242,-0.229 -0.498,-0.466 -0.766,-0.711c-0.269,-0.245 -0.548,-0.472 -0.836,-0.683c-0.289,-0.211 -0.585,-0.409 -0.888,-0.595c-0.303,-0.186 -0.619,-0.353 -0.949,-0.503c-0.329,-0.15 -0.683,-0.278 -1.06,-0.384c-0.377,-0.106 -0.758,-0.206 -1.143,-0.301c-0.385,-0.095 -0.746,-0.211 -1.083,-0.35c-0.338,-0.139 -0.675,-0.309 -1.014,-0.512c-0.338,-0.203 -0.743,-0.386 -1.213,-0.551c-0.471,-0.165 -0.992,-0.311 -1.564,-0.439c-0.572,-0.127 -1.122,-0.249 -1.649,-0.366c-0.527,-0.116 -1.053,-0.242 -1.576,-0.378c-0.524,-0.136 -1.079,-0.276 -1.665,-0.422c-0.586,-0.146 -1.163,-0.268 -1.731,-0.368c-0.567,-0.1 -1.141,-0.179 -1.721,-0.238c-0.58,-0.059 -1.146,-0.13 -1.697,-0.214c-0.551,-0.084 -1.1,-0.178 -1.645,-0.282c-0.546,-0.104 -1.092,-0.213 -1.638,-0.326c-0.547,-0.114 -1.038,-0.236 -1.473,-0.368c-0.436,-0.131 -0.888,-0.235 -1.357,-0.31c-0.469,-0.075 -0.973,-0.143 -1.513,-0.203c-0.54,-0.061 -1.094,-0.116 -1.662,-0.165c-0.568,-0.05 -1.142,-0.089 -1.723,-0.119c-0.581,-0.029 -1.144,-0.059 -1.691,-0.088c-0.546,-0.029 -1.063,-0.056 -1.551,-0.081c-0.487,-0.025 -0.996,-0.047 -1.526,-0.066c-0.53,-0.02 -1.071,-0.031 -1.623,-0.034c-0.552,-0.003 -1.084,-0.004 -1.596,-0.005c-0.512,0 -0.985,-0 -1.419,-0l-4.397,0c-0.332,0 -0.67,-0.017 -1.014,-0.051c-0.344,-0.034 -0.735,-0.089 -1.173,-0.164c-0.438,-0.075 -0.934,-0.12 -1.49,-0.135c-0.555,-0.014 -1.102,-0.012 -1.64,0.006c-0.538,0.018 -1.015,0.046 -1.433,0.082c-0.418,0.037 -0.814,0.062 -1.188,0.074c-0.374,0.013 -0.744,0.032 -1.11,0.058c-0.366,0.026 -0.713,0.061 -1.042,0.104c-0.329,0.043 -0.655,0.084 -0.978,0.121c-0.323,0.037 -0.658,0.071 -1.004,0.103c-0.346,0.031 -0.705,0.064 -1.077,0.098c-0.372,0.034 -0.732,0.07 -1.081,0.109c-0.349,0.039 -0.672,0.086 -0.971,0.141c-0.299,0.055 -0.549,0.117 -0.75,0.184c-0.201,0.068 -0.34,0.129 -0.415,0.184l-0.057,0.042l0.17,-0.125" style="fill:none;fill-rule:nonzero;stroke:#000;stroke-width:0.85px;"/><path d="M135.83,60.052c-0.014,-0.065 -0.046,-0.138 -0.096,-0.219c-0.05,-0.081 -0.108,-0.137 -0.174,-0.168c-0.066,-0.032 -0.195,-0.047 -0.386,-0.047c-0.191,0 -0.46,0.089 -0.808,0.265c-0.347,0.176 -0.692,0.451 -1.033,0.824c-0.341,0.374 -0.566,0.757 -0.672,1.15c-0.107,0.393 -0.078,0.718 0.086,0.974c0.164,0.256 0.42,0.426 0.769,0.51c0.349,0.084 0.693,0.123 1.033,0.118c0.34,-0.005 0.642,-0.079 0.908,-0.224c0.265,-0.145 0.486,-0.368 0.662,-0.671c0.176,-0.303 0.323,-0.655 0.441,-1.056c0.118,-0.401 0.226,-0.81 0.324,-1.226c0.098,-0.417 0.182,-0.791 0.251,-1.123c0.069,-0.332 0.12,-0.611 0.153,-0.838c0.033,-0.227 0.053,-0.437 0.062,-0.629c0.008,-0.193 0.009,-0.392 0.002,-0.598c-0.007,-0.206 -0.038,-0.402 -0.095,-0.588c-0.057,-0.186 -0.111,-0.331 -0.163,-0.434c-0.052,-0.103 -0.088,-0.169 -0.109,-0.198c-0.021,-0.029 -0.037,-0.042 -0.049,-0.038c-0.012,0.004 -0.03,0.074 -0.054,0.21c-0.024,0.136 -0.047,0.367 -0.069,0.695c-0.022,0.327 -0.035,0.69 -0.038,1.087c-0.003,0.397 0.008,0.802 0.033,1.215c0.025,0.412 0.065,0.83 0.121,1.253c0.055,0.423 0.113,0.821 0.174,1.193c0.061,0.372 0.121,0.701 0.182,0.986c0.061,0.285 0.135,0.519 0.223,0.7c0.088,0.181 0.2,0.308 0.335,0.38c0.135,0.072 0.25,0.111 0.345,0.117c0.134,0.009 0.202,-0.057 0.204,-0.198" style="fill:none;fill-rule:nonzero;stroke:#000;stroke-width:0.85px;"/><path d="M117.981,17.637c-0.048,-0.082 -0.137,-0.174 -0.268,-0.273c-0.131,-0.1 -0.324,-0.169 -0.578,-0.207c-0.255,-0.038 -0.563,-0.069 -0.924,-0.093c-0.361,-0.024 -0.763,-0.048 -1.205,-0.073c-0.442,-0.024 -0.946,-0.052 -1.514,-0.084c-0.568,-0.032 -1.197,-0.067 -1.886,-0.105c-0.69,-0.038 -1.391,-0.081 -2.105,-0.126c-0.714,-0.046 -1.439,-0.1 -2.175,-0.162c-0.736,-0.062 -1.453,-0.122 -2.15,-0.18c-0.697,-0.057 -1.367,-0.092 -2.011,-0.105c-0.644,-0.013 -1.256,-0.031 -1.837,-0.055c-0.581,-0.024 -1.13,-0.047 -1.648,-0.069c-0.517,-0.022 -0.991,-0.036 -1.42,-0.041c-0.429,-0.005 -0.811,-0.017 -1.144,-0.036c-0.333,-0.019 -0.669,-0.036 -1.008,-0.051c-0.339,-0.015 -0.704,-0.022 -1.096,-0.02c-0.392,0.002 -0.794,0.019 -1.204,0.052c-0.41,0.033 -0.815,0.061 -1.215,0.084c-0.4,0.023 -0.769,0.035 -1.106,0.035c-0.338,0 -0.672,-0.006 -1.004,-0.02c-0.332,-0.014 -0.703,-0.025 -1.113,-0.033c-0.41,-0.008 -0.846,0.006 -1.31,0.043c-0.463,0.037 -0.932,0.089 -1.405,0.157c-0.474,0.068 -0.95,0.119 -1.429,0.152c-0.479,0.033 -0.948,0.056 -1.408,0.068c-0.46,0.012 -0.917,0.02 -1.372,0.023c-0.454,0.003 -0.92,0.004 -1.395,0.004c-0.476,0 -0.972,0.004 -1.49,0.013c-0.518,0.009 -1.092,0.033 -1.722,0.071c-0.63,0.038 -1.255,0.063 -1.875,0.074c-0.619,0.011 -1.228,0.011 -1.826,-0.001c-0.598,-0.012 -1.214,-0.019 -1.848,-0.022c-0.634,-0.003 -1.339,0.007 -2.113,0.029c-0.775,0.023 -1.528,0.075 -2.26,0.156c-0.732,0.082 -1.354,0.132 -1.865,0.152c-0.511,0.02 -0.997,0.024 -1.458,0.012c-0.461,-0.012 -0.956,-0.019 -1.486,-0.022c-0.53,-0.003 -1.086,-0.004 -1.67,-0.004c-0.584,-0 -1.161,-0 -1.732,-0l-1.628,0c-0.514,0 -1.038,0.006 -1.571,0.017c-0.533,0.011 -1.105,0.065 -1.717,0.161c-0.612,0.096 -1.241,0.221 -1.887,0.376c-0.647,0.155 -1.256,0.277 -1.829,0.369c-0.572,0.091 -1.106,0.151 -1.601,0.178c-0.495,0.028 -0.986,0.07 -1.472,0.127c-0.486,0.057 -0.954,0.122 -1.403,0.195c-0.449,0.073 -0.858,0.127 -1.225,0.163c-0.367,0.036 -0.737,0.069 -1.11,0.1c-0.373,0.031 -0.777,0.069 -1.212,0.115c-0.435,0.046 -0.887,0.082 -1.356,0.11c-0.469,0.028 -0.916,0.059 -1.341,0.092c-0.425,0.033 -0.838,0.071 -1.239,0.115c-0.401,0.044 -0.801,0.086 -1.2,0.128c-0.399,0.042 -0.784,0.076 -1.154,0.103c-0.371,0.027 -0.739,0.066 -1.106,0.116c-0.366,0.05 -0.733,0.097 -1.101,0.142c-0.367,0.045 -0.733,0.081 -1.098,0.111c-0.365,0.029 -0.708,0.061 -1.031,0.095c-0.322,0.034 -0.66,0.081 -1.012,0.143c-0.352,0.062 -0.724,0.142 -1.116,0.241c-0.392,0.099 -0.723,0.191 -0.993,0.277c-0.27,0.086 -0.499,0.162 -0.685,0.228c-0.186,0.066 -0.393,0.131 -0.621,0.194c-0.228,0.063 -0.496,0.123 -0.805,0.179c-0.308,0.056 -0.647,0.127 -1.017,0.212c-0.37,0.086 -0.761,0.2 -1.173,0.344c-0.412,0.144 -0.824,0.309 -1.235,0.495c-0.412,0.186 -0.793,0.362 -1.143,0.529c-0.35,0.167 -0.683,0.306 -1,0.417c-0.316,0.111 -0.654,0.22 -1.015,0.326c-0.36,0.106 -0.732,0.248 -1.116,0.428c-0.384,0.18 -0.751,0.372 -1.1,0.576c-0.349,0.205 -0.657,0.387 -0.923,0.546c-0.266,0.16 -0.528,0.313 -0.787,0.461c-0.259,0.148 -0.524,0.304 -0.794,0.47c-0.27,0.165 -0.526,0.322 -0.768,0.471c-0.242,0.149 -0.464,0.292 -0.668,0.428c-0.203,0.137 -0.403,0.275 -0.6,0.416c-0.197,0.14 -0.384,0.278 -0.563,0.412c-0.178,0.134 -0.343,0.261 -0.495,0.381c-0.152,0.119 -0.306,0.244 -0.463,0.375c-0.157,0.13 -0.328,0.273 -0.511,0.427c-0.184,0.155 -0.377,0.314 -0.582,0.48c-0.204,0.165 -0.391,0.32 -0.56,0.465c-0.169,0.144 -0.321,0.279 -0.456,0.403c-0.135,0.124 -0.282,0.268 -0.443,0.431c-0.161,0.163 -0.341,0.355 -0.54,0.574c-0.199,0.219 -0.392,0.45 -0.579,0.693c-0.188,0.243 -0.36,0.477 -0.517,0.705c-0.157,0.227 -0.292,0.443 -0.405,0.648c-0.113,0.204 -0.218,0.412 -0.316,0.623c-0.097,0.211 -0.192,0.426 -0.285,0.645c-0.093,0.219 -0.18,0.423 -0.26,0.611c-0.081,0.188 -0.161,0.372 -0.241,0.552c-0.08,0.179 -0.166,0.378 -0.258,0.595c-0.092,0.217 -0.189,0.446 -0.291,0.686c-0.102,0.24 -0.201,0.482 -0.299,0.725c-0.097,0.243 -0.189,0.477 -0.275,0.701c-0.086,0.224 -0.159,0.443 -0.221,0.654c-0.062,0.212 -0.107,0.43 -0.135,0.655c-0.028,0.225 -0.052,0.461 -0.071,0.708c-0.019,0.247 -0.045,0.503 -0.079,0.768c-0.034,0.265 -0.071,0.522 -0.112,0.773c-0.041,0.251 -0.067,0.496 -0.079,0.734c-0.011,0.239 -0.017,0.477 -0.017,0.715c-0,0.238 0.001,0.478 0.003,0.721c0.002,0.243 0.008,0.49 0.018,0.743c0.01,0.252 0.024,0.505 0.043,0.758c0.019,0.253 0.044,0.505 0.075,0.755c0.032,0.25 0.065,0.491 0.102,0.723c0.036,0.232 0.067,0.453 0.092,0.663c0.025,0.21 0.052,0.403 0.08,0.579c0.029,0.176 0.065,0.354 0.108,0.533c0.043,0.179 0.097,0.378 0.162,0.598c0.065,0.219 0.134,0.455 0.209,0.707c0.075,0.252 0.148,0.505 0.219,0.758c0.071,0.253 0.146,0.507 0.226,0.762c0.079,0.255 0.171,0.522 0.274,0.803c0.103,0.281 0.219,0.578 0.348,0.89c0.128,0.313 0.258,0.61 0.389,0.891c0.131,0.281 0.269,0.542 0.414,0.781c0.145,0.24 0.294,0.457 0.447,0.653c0.153,0.196 0.306,0.367 0.459,0.512c0.153,0.145 0.306,0.273 0.459,0.383c0.153,0.11 0.314,0.23 0.483,0.36c0.169,0.13 0.343,0.267 0.52,0.411c0.178,0.144 0.352,0.272 0.522,0.385c0.17,0.113 0.33,0.215 0.479,0.305c0.149,0.09 0.303,0.184 0.463,0.28c0.159,0.096 0.346,0.22 0.561,0.372c0.214,0.152 0.439,0.306 0.674,0.464c0.235,0.157 0.472,0.326 0.71,0.505c0.238,0.179 0.472,0.357 0.7,0.532c0.229,0.176 0.474,0.342 0.737,0.501c0.263,0.158 0.547,0.319 0.853,0.482c0.305,0.163 0.605,0.318 0.9,0.464c0.295,0.147 0.58,0.293 0.855,0.438c0.275,0.145 0.559,0.287 0.852,0.424c0.293,0.137 0.596,0.248 0.909,0.333c0.312,0.084 0.636,0.172 0.971,0.263c0.335,0.091 0.65,0.187 0.944,0.286c0.294,0.1 0.559,0.203 0.794,0.309c0.235,0.107 0.477,0.221 0.725,0.342c0.249,0.121 0.517,0.217 0.806,0.288c0.288,0.07 0.578,0.128 0.87,0.172c0.292,0.044 0.578,0.094 0.858,0.149c0.28,0.055 0.564,0.135 0.852,0.24c0.288,0.105 0.601,0.223 0.94,0.353c0.338,0.131 0.694,0.261 1.068,0.39c0.374,0.13 0.733,0.243 1.077,0.342c0.344,0.098 0.68,0.19 1.009,0.275c0.329,0.085 0.656,0.187 0.981,0.307c0.325,0.12 0.679,0.248 1.06,0.384c0.381,0.136 0.798,0.27 1.25,0.402c0.452,0.131 0.923,0.24 1.414,0.324c0.491,0.085 0.962,0.159 1.413,0.222c0.451,0.063 0.877,0.147 1.278,0.252c0.4,0.105 0.782,0.219 1.145,0.341c0.363,0.122 0.738,0.222 1.125,0.299c0.387,0.077 0.783,0.137 1.186,0.179c0.404,0.042 0.796,0.086 1.176,0.131c0.38,0.045 0.749,0.125 1.107,0.239c0.358,0.114 0.712,0.229 1.062,0.344c0.35,0.115 0.739,0.194 1.168,0.236c0.429,0.042 0.892,0.063 1.388,0.064c0.497,0.001 0.998,0.017 1.503,0.048c0.506,0.032 1.02,0.113 1.544,0.244c0.524,0.131 1.068,0.243 1.633,0.336c0.565,0.093 1.164,0.152 1.798,0.178c0.634,0.026 1.319,0.041 2.057,0.044c0.738,0.003 1.47,0.006 2.197,0.008c0.727,0.002 1.409,0.025 2.046,0.07c0.637,0.044 1.298,0.1 1.985,0.166c0.687,0.066 1.363,0.112 2.028,0.138c0.665,0.025 1.307,0.038 1.926,0.038c0.619,0 1.192,0.012 1.719,0.035c0.528,0.023 1.067,0.059 1.618,0.108c0.551,0.049 1.118,0.078 1.7,0.086c0.582,0.008 1.205,0.026 1.867,0.053c0.663,0.027 1.267,0.074 1.812,0.139c0.545,0.066 1.028,0.121 1.447,0.165c0.42,0.044 0.809,0.083 1.168,0.118c0.359,0.035 0.711,0.064 1.056,0.089c0.345,0.025 0.712,0.054 1.101,0.087c0.389,0.033 0.811,0.067 1.266,0.101c0.455,0.034 0.919,0.065 1.393,0.092c0.474,0.027 0.947,0.065 1.418,0.115c0.472,0.049 0.967,0.111 1.486,0.184c0.519,0.073 1.089,0.118 1.711,0.135c0.621,0.017 1.249,0.025 1.882,0.025c0.633,0 1.265,0 1.896,0l1.927,0c0.654,0 1.284,0.006 1.89,0.017c0.606,0.011 1.241,0.022 1.904,0.033c0.663,0.01 1.322,0.016 1.976,0.016c0.654,0 1.266,0 1.837,0c0.57,0 1.162,-0.002 1.774,-0.007c0.612,-0.004 1.274,-0.019 1.985,-0.042c0.711,-0.024 1.451,-0.039 2.22,-0.045c0.769,-0.006 1.548,0.003 2.337,0.027c0.789,0.024 1.574,0.037 2.356,0.04c0.782,0.003 1.521,0.004 2.217,0.002c0.696,-0.002 1.363,-0.015 2.002,-0.039c0.638,-0.024 1.248,-0.037 1.829,-0.04c0.581,-0.003 1.152,0.002 1.713,0.016c0.561,0.014 1.129,0.028 1.705,0.043c0.576,0.015 1.146,0.023 1.711,0.023c0.565,0 1.107,0 1.626,0l5.074,0c0.569,0 1.125,-0.007 1.668,-0.021c0.543,-0.014 1.088,-0.028 1.634,-0.043c0.546,-0.015 1.114,-0.033 1.706,-0.054c0.591,-0.021 1.207,-0.053 1.847,-0.096c0.64,-0.043 1.28,-0.087 1.92,-0.131c0.639,-0.044 1.281,-0.077 1.925,-0.1c0.644,-0.023 1.276,-0.035 1.897,-0.035c0.621,-0 1.236,-0.002 1.847,-0.004c0.61,-0.002 1.228,-0.016 1.853,-0.042c0.625,-0.026 1.298,-0.068 2.019,-0.128c0.721,-0.059 1.459,-0.131 2.215,-0.216c0.756,-0.084 1.471,-0.166 2.145,-0.244c0.674,-0.078 1.34,-0.155 1.998,-0.231c0.658,-0.075 1.313,-0.153 1.965,-0.233c0.652,-0.08 1.276,-0.156 1.872,-0.23c0.596,-0.074 1.15,-0.144 1.663,-0.212c0.513,-0.068 1.029,-0.144 1.548,-0.229c0.519,-0.084 1.029,-0.17 1.529,-0.255c0.5,-0.086 0.958,-0.154 1.375,-0.207c0.416,-0.052 0.807,-0.099 1.173,-0.14c0.366,-0.041 0.717,-0.093 1.053,-0.156c0.336,-0.063 0.668,-0.131 0.993,-0.206c0.326,-0.075 0.655,-0.154 0.988,-0.236c0.333,-0.083 0.645,-0.155 0.936,-0.217c0.291,-0.062 0.551,-0.114 0.78,-0.156c0.228,-0.042 0.448,-0.083 0.659,-0.124c0.211,-0.041 0.469,-0.101 0.776,-0.179c0.307,-0.079 0.646,-0.167 1.017,-0.264c0.371,-0.097 0.716,-0.177 1.035,-0.239c0.319,-0.062 0.604,-0.115 0.856,-0.159c0.252,-0.044 0.518,-0.102 0.798,-0.173c0.28,-0.071 0.59,-0.162 0.931,-0.273c0.341,-0.11 0.675,-0.227 1.002,-0.348c0.327,-0.122 0.624,-0.231 0.891,-0.326c0.267,-0.096 0.517,-0.185 0.748,-0.268c0.232,-0.083 0.461,-0.173 0.686,-0.269c0.226,-0.096 0.457,-0.197 0.692,-0.301c0.236,-0.105 0.475,-0.203 0.717,-0.296c0.243,-0.093 0.477,-0.18 0.705,-0.26c0.227,-0.081 0.434,-0.155 0.62,-0.224c0.186,-0.069 0.37,-0.138 0.552,-0.208c0.182,-0.07 0.377,-0.147 0.585,-0.232c0.208,-0.084 0.419,-0.172 0.633,-0.262c0.214,-0.09 0.416,-0.169 0.603,-0.235c0.188,-0.066 0.374,-0.13 0.559,-0.19c0.184,-0.061 0.382,-0.134 0.592,-0.22c0.21,-0.086 0.434,-0.193 0.672,-0.32c0.238,-0.127 0.478,-0.27 0.721,-0.427c0.243,-0.157 0.485,-0.318 0.725,-0.484c0.24,-0.165 0.497,-0.333 0.771,-0.503c0.273,-0.17 0.544,-0.329 0.813,-0.479c0.269,-0.15 0.483,-0.278 0.643,-0.384c0.16,-0.106 0.297,-0.214 0.411,-0.325c0.114,-0.111 0.258,-0.234 0.43,-0.369c0.172,-0.135 0.357,-0.272 0.554,-0.411c0.197,-0.139 0.371,-0.272 0.521,-0.399c0.15,-0.127 0.299,-0.262 0.446,-0.407c0.148,-0.145 0.311,-0.303 0.49,-0.475c0.179,-0.172 0.353,-0.343 0.521,-0.514c0.168,-0.17 0.333,-0.338 0.493,-0.504c0.16,-0.166 0.314,-0.325 0.461,-0.478c0.147,-0.153 0.288,-0.314 0.424,-0.48c0.136,-0.167 0.268,-0.339 0.395,-0.516c0.127,-0.177 0.245,-0.359 0.355,-0.546c0.11,-0.187 0.218,-0.375 0.326,-0.565c0.107,-0.19 0.212,-0.376 0.314,-0.558c0.102,-0.182 0.191,-0.361 0.264,-0.536c0.074,-0.175 0.135,-0.355 0.182,-0.539c0.047,-0.184 0.097,-0.378 0.15,-0.581c0.053,-0.203 0.12,-0.425 0.202,-0.664c0.082,-0.239 0.156,-0.484 0.223,-0.735c0.066,-0.251 0.113,-0.493 0.139,-0.727c0.026,-0.234 0.044,-0.465 0.054,-0.694c0.01,-0.229 0.021,-0.446 0.033,-0.651c0.012,-0.205 0.021,-0.402 0.026,-0.589c0.005,-0.187 0.009,-0.373 0.011,-0.558c0.003,-0.185 0.005,-0.37 0.007,-0.554c0.002,-0.184 0.013,-0.385 0.032,-0.602c0.019,-0.217 0.032,-0.453 0.04,-0.706c0.008,-0.254 0.012,-0.519 0.012,-0.796c0,-0.277 -0.015,-0.548 -0.045,-0.814c-0.03,-0.266 -0.07,-0.523 -0.121,-0.771c-0.051,-0.248 -0.107,-0.492 -0.167,-0.73c-0.06,-0.238 -0.138,-0.479 -0.234,-0.722c-0.096,-0.243 -0.205,-0.486 -0.328,-0.729c-0.123,-0.243 -0.251,-0.486 -0.385,-0.729c-0.133,-0.243 -0.275,-0.476 -0.425,-0.699c-0.15,-0.222 -0.305,-0.43 -0.465,-0.623c-0.16,-0.193 -0.314,-0.384 -0.46,-0.573c-0.147,-0.19 -0.286,-0.38 -0.417,-0.572c-0.132,-0.192 -0.264,-0.381 -0.397,-0.569c-0.133,-0.188 -0.276,-0.377 -0.429,-0.569c-0.152,-0.192 -0.322,-0.381 -0.51,-0.569c-0.188,-0.188 -0.39,-0.37 -0.606,-0.548c-0.216,-0.178 -0.435,-0.35 -0.659,-0.515c-0.224,-0.166 -0.437,-0.33 -0.639,-0.493c-0.203,-0.163 -0.405,-0.331 -0.606,-0.506c-0.201,-0.174 -0.4,-0.355 -0.595,-0.542c-0.195,-0.187 -0.393,-0.374 -0.594,-0.561c-0.201,-0.187 -0.42,-0.369 -0.657,-0.547c-0.237,-0.178 -0.494,-0.359 -0.772,-0.543c-0.278,-0.184 -0.578,-0.376 -0.9,-0.574c-0.322,-0.199 -0.644,-0.409 -0.965,-0.632c-0.321,-0.223 -0.651,-0.457 -0.99,-0.704c-0.339,-0.247 -0.718,-0.499 -1.137,-0.757c-0.419,-0.258 -0.864,-0.514 -1.336,-0.77c-0.471,-0.255 -0.924,-0.502 -1.358,-0.741c-0.434,-0.239 -0.85,-0.478 -1.247,-0.719c-0.397,-0.241 -0.827,-0.477 -1.289,-0.708c-0.463,-0.231 -0.986,-0.46 -1.57,-0.686c-0.584,-0.226 -1.194,-0.459 -1.83,-0.699c-0.636,-0.24 -1.284,-0.488 -1.943,-0.745c-0.659,-0.257 -1.385,-0.508 -2.176,-0.752c-0.792,-0.244 -1.607,-0.464 -2.446,-0.66c-0.839,-0.196 -1.631,-0.392 -2.376,-0.588c-0.745,-0.196 -1.472,-0.404 -2.182,-0.621c-0.71,-0.218 -1.451,-0.441 -2.223,-0.67c-0.773,-0.229 -1.567,-0.439 -2.382,-0.63c-0.816,-0.191 -1.636,-0.37 -2.463,-0.535c-0.826,-0.166 -1.638,-0.333 -2.434,-0.504c-0.796,-0.17 -1.579,-0.332 -2.347,-0.486c-0.769,-0.154 -1.547,-0.286 -2.336,-0.394c-0.789,-0.109 -1.582,-0.2 -2.379,-0.274c-0.798,-0.074 -1.57,-0.143 -2.316,-0.206c-0.746,-0.063 -1.462,-0.132 -2.147,-0.207c-0.685,-0.075 -1.346,-0.144 -1.982,-0.209c-0.636,-0.064 -1.243,-0.122 -1.822,-0.173c-0.578,-0.051 -1.121,-0.099 -1.626,-0.143c-0.506,-0.044 -0.986,-0.098 -1.439,-0.163c-0.454,-0.064 -0.887,-0.14 -1.299,-0.227c-0.412,-0.087 -0.832,-0.171 -1.26,-0.252c-0.428,-0.081 -0.886,-0.151 -1.373,-0.21c-0.487,-0.059 -0.95,-0.11 -1.388,-0.152c-0.438,-0.042 -0.84,-0.072 -1.207,-0.09c-0.366,-0.018 -0.724,-0.027 -1.072,-0.028c-0.348,-0 -0.68,-0.002 -0.995,-0.004c-0.315,-0.002 -0.602,-0.02 -0.862,-0.052c-0.26,-0.033 -0.512,-0.07 -0.757,-0.111c-0.245,-0.042 -0.512,-0.079 -0.802,-0.113c-0.29,-0.034 -0.591,-0.065 -0.902,-0.092c-0.311,-0.027 -0.619,-0.051 -0.923,-0.07c-0.304,-0.02 -0.609,-0.031 -0.915,-0.034c-0.306,-0.003 -0.618,-0.004 -0.936,-0.004l-2.716,0c-0.28,0 -0.542,0.016 -0.784,0.048c-0.243,0.032 -0.417,0.081 -0.522,0.146c-0.144,0.09 -0.083,0.157 0.184,0.202" style="fill:none;fill-rule:nonzero;stroke:#000;stroke-width:0.85px;"/><path d="M187.519,67.029c-0,-0.045 -0,-0.129 -0,-0.254l0,-0.145c0,-0.02 0.002,-0.043 0.007,-0.069c0.004,-0.026 0.035,-0.061 0.09,-0.104c0.056,-0.043 0.139,-0.104 0.249,-0.183c0.11,-0.079 0.236,-0.174 0.379,-0.288c0.143,-0.113 0.276,-0.239 0.402,-0.377c0.125,-0.138 0.223,-0.266 0.293,-0.384c0.07,-0.118 0.119,-0.213 0.147,-0.285c0.028,-0.072 0.049,-0.137 0.064,-0.196c0.015,-0.058 0.027,-0.108 0.037,-0.147c0.01,-0.04 0.015,-0.064 0.015,-0.072c0,-0.008 -0,-0.01 -0.002,-0.006c-0.002,0.005 -0.006,0.016 -0.013,0.034c-0.007,0.018 -0.031,0.073 -0.071,0.166c-0.04,0.093 -0.078,0.191 -0.113,0.296c-0.035,0.104 -0.072,0.231 -0.113,0.379c-0.041,0.148 -0.097,0.343 -0.169,0.585c-0.072,0.242 -0.147,0.512 -0.225,0.81c-0.078,0.298 -0.147,0.58 -0.206,0.847c-0.059,0.267 -0.103,0.507 -0.131,0.72c-0.028,0.214 -0.047,0.393 -0.057,0.54c-0.01,0.146 -0.02,0.262 -0.029,0.349c-0.009,0.087 -0.034,0.173 -0.075,0.26c-0.04,0.087 -0.081,0.177 -0.123,0.269c-0.042,0.093 -0.071,0.18 -0.089,0.263c-0.018,0.083 -0.027,0.162 -0.028,0.238c-0,0.076 -0,0.139 -0,0.192l0,0.162l0,-0.084" style="fill:none;fill-rule:nonzero;stroke:#000;stroke-width:0.85px;"/><path d="M186.031,70.945c0.014,0.064 0.171,0.109 0.471,0.135c0.3,0.027 0.689,0.031 1.168,0.012c0.479,-0.018 0.924,-0.036 1.335,-0.054c0.412,-0.018 0.669,-0.027 0.773,-0.027l0.078,-0l-0.233,0.001" style="fill:none;fill-rule:nonzero;stroke:#000;stroke-width:0.85px;"/><path d="M274.869,20.627c0.027,-0.06 0.004,-0.131 -0.069,-0.214c-0.05,-0.056 -0.141,-0.055 -0.274,0.004c-0.133,0.059 -0.307,0.197 -0.523,0.416c-0.216,0.219 -0.472,0.483 -0.767,0.793c-0.296,0.31 -0.65,0.661 -1.064,1.052c-0.414,0.391 -0.831,0.778 -1.251,1.162c-0.42,0.383 -0.795,0.721 -1.127,1.014c-0.332,0.293 -0.631,0.546 -0.898,0.76c-0.267,0.214 -0.51,0.421 -0.73,0.622c-0.22,0.201 -0.451,0.42 -0.692,0.657c-0.241,0.237 -0.486,0.464 -0.735,0.682c-0.249,0.218 -0.483,0.412 -0.703,0.581c-0.22,0.169 -0.43,0.332 -0.633,0.487c-0.202,0.155 -0.4,0.314 -0.592,0.477c-0.192,0.163 -0.38,0.339 -0.562,0.53c-0.183,0.191 -0.371,0.395 -0.565,0.613c-0.194,0.218 -0.381,0.423 -0.562,0.614c-0.181,0.191 -0.361,0.375 -0.54,0.553c-0.18,0.177 -0.353,0.349 -0.519,0.515c-0.166,0.166 -0.314,0.315 -0.444,0.445c-0.13,0.13 -0.263,0.256 -0.398,0.377c-0.136,0.121 -0.277,0.258 -0.425,0.41c-0.148,0.152 -0.297,0.301 -0.448,0.448c-0.151,0.147 -0.295,0.287 -0.431,0.421c-0.137,0.134 -0.263,0.252 -0.378,0.353c-0.115,0.101 -0.216,0.187 -0.302,0.255c-0.086,0.069 -0.171,0.143 -0.256,0.222c-0.085,0.079 -0.182,0.186 -0.293,0.32c-0.111,0.134 -0.213,0.258 -0.308,0.372l-0.086,0.1l0.036,-0.05c0.087,-0.116 0.36,-0.48 0.82,-1.093" style="fill:none;fill-rule:nonzero;stroke:#000;stroke-width:0.85px;"/><path d="M243.517,21.487c0.02,-0.075 0.048,-0.169 0.083,-0.281c0.035,-0.112 0.056,-0.196 0.061,-0.252c0.006,-0.056 0.009,-0.08 0.009,-0.073c0,0.007 0.001,0.102 0.003,0.284c0.002,0.182 0.048,0.411 0.138,0.686c0.09,0.276 0.244,0.552 0.463,0.829c0.219,0.277 0.503,0.552 0.851,0.825c0.348,0.272 0.706,0.539 1.075,0.8c0.368,0.261 0.701,0.51 0.998,0.75c0.297,0.239 0.565,0.466 0.805,0.681c0.24,0.215 0.478,0.403 0.716,0.566c0.238,0.163 0.465,0.315 0.68,0.455c0.216,0.141 0.403,0.286 0.563,0.437c0.16,0.15 0.318,0.294 0.475,0.431c0.157,0.137 0.33,0.265 0.519,0.384c0.189,0.119 0.371,0.25 0.547,0.392c0.176,0.142 0.328,0.295 0.456,0.458c0.128,0.163 0.256,0.311 0.384,0.443c0.128,0.132 0.266,0.264 0.414,0.395c0.148,0.131 0.297,0.267 0.448,0.407c0.151,0.14 0.292,0.28 0.424,0.419c0.132,0.139 0.268,0.272 0.408,0.399c0.14,0.127 0.3,0.256 0.481,0.387c0.181,0.131 0.356,0.26 0.524,0.386c0.169,0.126 0.325,0.249 0.47,0.369c0.144,0.12 0.282,0.237 0.414,0.351c0.131,0.114 0.263,0.231 0.394,0.349c0.131,0.118 0.264,0.242 0.397,0.371c0.133,0.129 0.265,0.254 0.394,0.376c0.129,0.122 0.25,0.239 0.363,0.351c0.113,0.112 0.213,0.223 0.301,0.332c0.088,0.109 0.168,0.219 0.239,0.328c0.071,0.109 0.143,0.22 0.216,0.331c0.073,0.112 0.147,0.211 0.222,0.298c0.075,0.087 0.148,0.152 0.219,0.195c0.071,0.043 0.136,0.066 0.195,0.069c0.081,0.005 0.057,-0.033 -0.073,-0.114" style="fill:none;fill-rule:nonzero;stroke:#000;stroke-width:0.85px;"/><path d="M322.593,36.055c-0.067,-0.036 0.047,-0.214 0.342,-0.534c0.295,-0.32 0.679,-0.695 1.152,-1.124c0.472,-0.429 0.977,-0.896 1.514,-1.401c0.537,-0.504 1.032,-0.981 1.487,-1.429c0.454,-0.448 0.853,-0.851 1.197,-1.208c0.343,-0.357 0.673,-0.71 0.989,-1.057c0.316,-0.347 0.643,-0.677 0.98,-0.988c0.338,-0.311 0.673,-0.581 1.005,-0.809c0.333,-0.228 0.668,-0.446 1.007,-0.653c0.339,-0.207 0.63,-0.411 0.875,-0.61c0.245,-0.199 0.468,-0.422 0.669,-0.67c0.201,-0.247 0.438,-0.518 0.71,-0.812c0.272,-0.294 0.55,-0.559 0.835,-0.795c0.285,-0.236 0.553,-0.46 0.804,-0.67c0.251,-0.211 0.509,-0.464 0.774,-0.759c0.264,-0.296 0.5,-0.59 0.708,-0.884c0.208,-0.293 0.373,-0.542 0.497,-0.745c0.124,-0.203 0.224,-0.346 0.302,-0.428c0.077,-0.082 0.124,-0.128 0.141,-0.137c0.017,-0.009 0.013,-0.005 -0.009,0.012c-0.033,0.025 -0.069,0.067 -0.108,0.127" style="fill:none;fill-rule:nonzero;stroke:#000;stroke-width:0.85px;"/><path d="M305.939,20.815c-0.04,-0.047 -0.114,-0.088 -0.224,-0.124c-0.071,-0.023 -0.116,-0.025 -0.134,-0.004c-0.019,0.02 -0.003,0.072 0.049,0.154c0.051,0.083 0.176,0.177 0.375,0.284c0.199,0.107 0.413,0.237 0.642,0.39c0.229,0.153 0.474,0.345 0.732,0.576c0.259,0.231 0.543,0.47 0.852,0.718c0.309,0.248 0.621,0.479 0.936,0.692c0.314,0.213 0.601,0.405 0.861,0.577c0.26,0.171 0.504,0.337 0.734,0.498c0.229,0.16 0.431,0.331 0.606,0.513c0.175,0.182 0.338,0.357 0.488,0.525c0.151,0.168 0.322,0.32 0.515,0.455c0.193,0.135 0.395,0.263 0.607,0.385c0.212,0.122 0.398,0.263 0.558,0.423c0.16,0.161 0.296,0.343 0.406,0.546c0.111,0.203 0.219,0.389 0.326,0.556c0.107,0.167 0.227,0.314 0.363,0.439c0.135,0.125 0.27,0.24 0.404,0.345c0.134,0.105 0.269,0.212 0.405,0.321c0.136,0.109 0.278,0.238 0.425,0.387c0.147,0.149 0.312,0.303 0.493,0.461c0.181,0.158 0.369,0.301 0.563,0.429c0.194,0.128 0.39,0.243 0.587,0.346c0.197,0.103 0.379,0.204 0.546,0.303c0.167,0.099 0.317,0.198 0.452,0.295c0.135,0.097 0.263,0.189 0.384,0.275c0.122,0.086 0.242,0.168 0.361,0.249c0.119,0.08 0.235,0.157 0.347,0.23c0.112,0.073 0.225,0.161 0.339,0.264c0.114,0.103 0.227,0.219 0.339,0.35c0.112,0.131 0.225,0.261 0.339,0.39c0.114,0.129 0.226,0.253 0.335,0.373c0.11,0.119 0.224,0.227 0.342,0.323c0.119,0.096 0.248,0.191 0.388,0.286c0.14,0.095 0.281,0.196 0.422,0.304c0.141,0.108 0.276,0.229 0.406,0.363c0.129,0.133 0.249,0.254 0.359,0.362c0.11,0.108 0.218,0.195 0.322,0.26c0.105,0.065 0.194,0.103 0.269,0.115c0.074,0.011 0.131,0.017 0.168,0.017c0.052,0 0.025,-0.012 -0.082,-0.037" style="fill:none;fill-rule:nonzero;stroke:#000;stroke-width:0.85px;"/><path d="M386.006,36.274c0.041,-0.064 0.101,-0.155 0.18,-0.275c0.079,-0.119 0.159,-0.248 0.241,-0.385c0.082,-0.137 0.189,-0.306 0.322,-0.507c0.133,-0.201 0.353,-0.476 0.658,-0.824c0.306,-0.348 0.736,-0.795 1.291,-1.34c0.555,-0.545 1.164,-1.115 1.827,-1.708c0.663,-0.594 1.271,-1.165 1.825,-1.712c0.554,-0.548 1.06,-1.102 1.518,-1.664c0.458,-0.562 0.859,-1.062 1.203,-1.5c0.344,-0.438 0.678,-0.823 1,-1.154c0.323,-0.331 0.664,-0.653 1.025,-0.967c0.361,-0.313 0.735,-0.616 1.124,-0.909c0.388,-0.293 0.746,-0.563 1.073,-0.811c0.327,-0.248 0.596,-0.463 0.806,-0.644c0.21,-0.182 0.417,-0.383 0.62,-0.604c0.203,-0.221 0.419,-0.469 0.647,-0.746c0.228,-0.276 0.422,-0.52 0.581,-0.73c0.159,-0.21 0.267,-0.354 0.324,-0.432c0.057,-0.078 0.075,-0.109 0.052,-0.094c-0.032,0.022 -0.132,0.093 -0.301,0.212" style="fill:none;fill-rule:nonzero;stroke:#000;stroke-width:0.85px;"/><path d="M369.6,20.7c0.067,-0.047 0.15,-0.055 0.247,-0.023c0.097,0.031 0.224,0.184 0.378,0.458c0.155,0.274 0.397,0.582 0.727,0.924c0.33,0.342 0.697,0.682 1.101,1.02c0.404,0.338 0.826,0.672 1.263,1c0.438,0.328 0.895,0.649 1.371,0.964c0.476,0.314 0.932,0.63 1.366,0.948c0.435,0.318 0.837,0.646 1.207,0.986c0.37,0.34 0.695,0.674 0.975,1.003c0.28,0.329 0.562,0.64 0.847,0.934c0.285,0.293 0.616,0.555 0.992,0.786c0.376,0.23 0.737,0.456 1.083,0.677c0.346,0.221 0.646,0.448 0.902,0.681c0.255,0.233 0.502,0.45 0.741,0.651c0.238,0.201 0.457,0.384 0.656,0.551c0.199,0.167 0.378,0.321 0.536,0.462c0.159,0.141 0.322,0.298 0.489,0.469c0.167,0.171 0.323,0.338 0.468,0.499c0.145,0.161 0.272,0.302 0.383,0.423c0.111,0.121 0.201,0.219 0.27,0.293c0.069,0.074 0.139,0.147 0.209,0.217c0.07,0.07 0.151,0.151 0.242,0.242c0.092,0.091 0.18,0.19 0.266,0.297c0.086,0.107 0.168,0.217 0.249,0.331c0.08,0.114 0.159,0.224 0.237,0.329c0.078,0.105 0.161,0.201 0.251,0.286c0.089,0.086 0.182,0.159 0.277,0.221c0.095,0.062 0.177,0.105 0.247,0.128c0.096,0.033 0.079,-0.054 -0.051,-0.261" style="fill:none;fill-rule:nonzero;stroke:#000;stroke-width:0.85px;"/><path d="M290,52.396c0.026,-0.052 0.169,-0.162 0.43,-0.33c0.261,-0.168 0.596,-0.354 1.005,-0.56c0.41,-0.206 0.872,-0.443 1.387,-0.711c0.515,-0.268 1.037,-0.559 1.567,-0.874c0.53,-0.315 1.067,-0.629 1.61,-0.943c0.544,-0.314 1.085,-0.613 1.623,-0.896c0.538,-0.284 1.043,-0.542 1.515,-0.774c0.472,-0.233 0.923,-0.456 1.354,-0.67c0.431,-0.214 0.865,-0.434 1.302,-0.659c0.437,-0.225 0.868,-0.465 1.291,-0.719c0.424,-0.254 0.843,-0.521 1.259,-0.8c0.415,-0.279 0.827,-0.531 1.234,-0.755c0.407,-0.224 0.789,-0.42 1.145,-0.589c0.357,-0.169 0.713,-0.334 1.07,-0.494c0.357,-0.16 0.715,-0.32 1.075,-0.478c0.36,-0.158 0.701,-0.308 1.024,-0.45c0.323,-0.142 0.614,-0.275 0.874,-0.399c0.26,-0.124 0.512,-0.252 0.757,-0.383c0.245,-0.131 0.508,-0.265 0.788,-0.404c0.281,-0.138 0.562,-0.281 0.844,-0.426c0.282,-0.146 0.551,-0.277 0.805,-0.396c0.254,-0.118 0.496,-0.225 0.724,-0.32c0.228,-0.095 0.486,-0.201 0.772,-0.319c0.287,-0.118 0.603,-0.264 0.949,-0.44c0.346,-0.175 0.679,-0.347 1,-0.513c0.321,-0.167 0.596,-0.308 0.825,-0.424c0.229,-0.116 0.451,-0.224 0.667,-0.323c0.216,-0.099 0.458,-0.219 0.725,-0.358c0.268,-0.139 0.542,-0.29 0.825,-0.453c0.282,-0.163 0.553,-0.315 0.812,-0.457c0.259,-0.142 0.478,-0.249 0.656,-0.32c0.178,-0.071 0.333,-0.12 0.462,-0.148c0.13,-0.028 0.214,-0.044 0.254,-0.05c0.054,-0.008 0.044,-0.035 -0.032,-0.082" style="fill:none;fill-rule:nonzero;stroke:#000;stroke-width:0.85px;"/><path d="M259.879,36.165l-0.345,0c-0.003,0 0.003,0.003 0.019,0.01c0.016,0.006 0.055,0.023 0.118,0.049c0.063,0.026 0.177,0.139 0.343,0.338c0.166,0.199 0.391,0.398 0.675,0.596c0.284,0.198 0.68,0.415 1.188,0.652c0.508,0.237 1.06,0.495 1.657,0.775c0.597,0.28 1.202,0.581 1.815,0.903c0.614,0.322 1.261,0.644 1.942,0.966c0.681,0.321 1.35,0.635 2.009,0.942c0.658,0.307 1.274,0.618 1.846,0.933c0.572,0.315 1.098,0.634 1.578,0.955c0.48,0.321 0.912,0.622 1.296,0.904c0.384,0.282 0.781,0.528 1.189,0.74c0.408,0.212 0.848,0.387 1.318,0.525c0.47,0.138 0.895,0.277 1.275,0.417c0.38,0.14 0.69,0.309 0.932,0.509c0.242,0.2 0.481,0.395 0.716,0.586c0.235,0.191 0.467,0.358 0.696,0.5c0.229,0.143 0.454,0.286 0.675,0.432c0.221,0.145 0.446,0.303 0.674,0.475c0.228,0.171 0.441,0.338 0.637,0.5c0.196,0.162 0.389,0.306 0.578,0.434c0.189,0.127 0.373,0.248 0.551,0.363c0.178,0.114 0.365,0.239 0.56,0.374c0.196,0.135 0.412,0.282 0.649,0.443c0.237,0.16 0.477,0.303 0.72,0.429c0.244,0.126 0.462,0.23 0.657,0.314c0.194,0.084 0.36,0.16 0.498,0.229c0.138,0.068 0.274,0.137 0.41,0.205c0.136,0.068 0.27,0.136 0.401,0.204c0.132,0.068 0.255,0.136 0.37,0.204c0.115,0.068 0.222,0.14 0.322,0.215c0.1,0.075 0.191,0.148 0.271,0.219c0.081,0.071 0.165,0.138 0.252,0.202c0.087,0.063 0.171,0.116 0.252,0.159c0.081,0.042 0.153,0.07 0.217,0.083c0.064,0.013 0.109,0.02 0.134,0.02c0.025,0 0.019,-0.002 -0.02,-0.008c-0.056,-0.008 -0.128,-0.032 -0.215,-0.073" style="fill:none;fill-rule:nonzero;stroke:#000;stroke-width:0.85px;"/><path d="M338.758,67.904c0.002,-0.084 0.017,-0.166 0.043,-0.247c0.027,-0.08 0.069,-0.14 0.125,-0.179c0.057,-0.039 0.171,-0.095 0.343,-0.169c0.172,-0.074 0.451,-0.206 0.838,-0.397c0.387,-0.191 0.922,-0.484 1.607,-0.88c0.685,-0.396 1.415,-0.857 2.191,-1.384c0.776,-0.527 1.473,-1.017 2.093,-1.469c0.62,-0.452 1.197,-0.872 1.732,-1.26c0.535,-0.388 1.12,-0.849 1.755,-1.383c0.636,-0.534 1.264,-1.074 1.886,-1.621c0.622,-0.547 1.21,-1.041 1.764,-1.482c0.554,-0.441 1.079,-0.854 1.574,-1.237c0.495,-0.383 1.004,-0.758 1.526,-1.125c0.522,-0.367 1.064,-0.73 1.626,-1.092c0.561,-0.361 1.104,-0.698 1.628,-1.01c0.524,-0.312 1.044,-0.617 1.558,-0.914c0.515,-0.297 1.033,-0.59 1.553,-0.879c0.521,-0.289 1.036,-0.6 1.546,-0.933c0.51,-0.333 1.034,-0.692 1.573,-1.077c0.538,-0.385 1.074,-0.749 1.608,-1.089c0.534,-0.341 1.024,-0.653 1.469,-0.936c0.446,-0.283 0.857,-0.556 1.233,-0.82c0.376,-0.264 0.749,-0.503 1.117,-0.719c0.368,-0.216 0.768,-0.437 1.198,-0.664c0.43,-0.227 0.86,-0.477 1.289,-0.75c0.429,-0.273 0.827,-0.55 1.194,-0.83c0.367,-0.28 0.692,-0.533 0.975,-0.759c0.282,-0.226 0.552,-0.417 0.81,-0.572c0.257,-0.155 0.533,-0.31 0.829,-0.465c0.295,-0.155 0.619,-0.336 0.971,-0.545c0.352,-0.209 0.713,-0.438 1.084,-0.688c0.371,-0.25 0.684,-0.473 0.939,-0.667c0.255,-0.195 0.49,-0.364 0.706,-0.509c0.216,-0.145 0.447,-0.287 0.691,-0.428c0.245,-0.141 0.497,-0.293 0.756,-0.457c0.26,-0.164 0.511,-0.334 0.755,-0.509c0.244,-0.175 0.476,-0.34 0.696,-0.494c0.22,-0.154 0.423,-0.287 0.607,-0.398c0.185,-0.111 0.424,-0.229 0.719,-0.354c0.295,-0.125 0.562,-0.244 0.802,-0.358c0.24,-0.114 0.413,-0.193 0.518,-0.24c0.105,-0.046 0.163,-0.071 0.175,-0.074l0.006,-0.002l-0.024,0.004c-0.034,0.007 -0.14,0.029 -0.319,0.065" style="fill:none;fill-rule:nonzero;stroke:#000;stroke-width:0.85px;"/><path d="M289.212,53.205c-0.005,-0.055 0.139,-0.059 0.432,-0.01c0.293,0.049 0.638,0.131 1.032,0.246c0.395,0.115 0.874,0.247 1.437,0.394c0.563,0.148 1.161,0.286 1.795,0.416c0.634,0.13 1.227,0.269 1.78,0.418c0.553,0.149 1.092,0.331 1.615,0.544c0.524,0.214 1.095,0.439 1.714,0.675c0.619,0.236 1.258,0.453 1.918,0.652c0.66,0.198 1.348,0.386 2.064,0.564c0.716,0.177 1.494,0.365 2.333,0.564c0.839,0.198 1.65,0.403 2.434,0.615c0.783,0.211 1.488,0.409 2.115,0.592c0.627,0.183 1.236,0.351 1.829,0.503c0.593,0.152 1.216,0.29 1.87,0.415c0.654,0.125 1.329,0.25 2.025,0.376c0.697,0.126 1.36,0.254 1.989,0.382c0.629,0.128 1.149,0.268 1.558,0.418c0.409,0.15 0.753,0.301 1.03,0.452c0.277,0.151 0.59,0.276 0.937,0.376c0.348,0.099 0.767,0.187 1.259,0.262c0.492,0.075 0.985,0.169 1.479,0.281c0.494,0.112 0.979,0.245 1.453,0.397c0.475,0.153 0.947,0.286 1.416,0.4c0.469,0.114 0.915,0.209 1.339,0.285c0.423,0.076 0.781,0.149 1.073,0.216c0.292,0.068 0.532,0.146 0.72,0.235c0.188,0.089 0.361,0.177 0.519,0.263c0.159,0.086 0.314,0.159 0.467,0.221c0.153,0.061 0.326,0.123 0.518,0.186c0.192,0.063 0.406,0.132 0.641,0.207c0.235,0.075 0.452,0.154 0.651,0.236c0.199,0.083 0.377,0.163 0.533,0.241c0.156,0.078 0.318,0.152 0.485,0.223c0.167,0.071 0.345,0.139 0.534,0.205c0.189,0.066 0.384,0.13 0.586,0.194c0.202,0.063 0.389,0.122 0.563,0.176c0.174,0.054 0.347,0.103 0.519,0.147c0.172,0.044 0.349,0.084 0.531,0.121c0.182,0.037 0.353,0.075 0.512,0.113c0.159,0.039 0.311,0.077 0.454,0.113c0.144,0.036 0.288,0.079 0.434,0.126c0.146,0.048 0.292,0.102 0.437,0.163c0.146,0.061 0.296,0.116 0.452,0.165c0.155,0.049 0.291,0.092 0.408,0.129c0.117,0.037 0.189,0.063 0.219,0.078c0.029,0.015 0.003,0.007 -0.079,-0.023c-0.118,-0.044 -0.369,-0.119 -0.753,-0.228" style="fill:none;fill-rule:nonzero;stroke:#000;stroke-width:0.85px;"/><path d="M240.28,11.425c-0.02,-0.082 -0.046,-0.179 -0.076,-0.291c-0.031,-0.112 -0.047,-0.188 -0.05,-0.229c-0.003,-0.041 0.027,-0.063 0.091,-0.066c0.064,-0.003 0.191,0.01 0.382,0.039c0.191,0.03 0.4,0.095 0.628,0.198c0.228,0.102 0.437,0.223 0.626,0.363c0.189,0.14 0.328,0.287 0.414,0.442c0.087,0.155 0.136,0.314 0.148,0.477c0.012,0.163 -0.043,0.322 -0.165,0.478c-0.122,0.156 -0.323,0.301 -0.603,0.436c-0.28,0.135 -0.564,0.243 -0.852,0.326c-0.288,0.082 -0.537,0.134 -0.747,0.156c-0.21,0.022 -0.372,0.016 -0.484,-0.018c-0.112,-0.034 -0.218,-0.125 -0.318,-0.275c-0.1,-0.15 -0.191,-0.315 -0.274,-0.497c-0.083,-0.182 -0.158,-0.359 -0.224,-0.532c-0.066,-0.173 -0.115,-0.333 -0.146,-0.48c-0.031,-0.147 -0.048,-0.293 -0.051,-0.439c-0.003,-0.146 0.022,-0.287 0.074,-0.423c0.052,-0.137 0.162,-0.265 0.328,-0.385c0.167,-0.12 0.373,-0.221 0.621,-0.302c0.247,-0.082 0.533,-0.15 0.856,-0.204c0.323,-0.055 0.657,-0.093 1.002,-0.117c0.345,-0.023 0.686,-0.035 1.021,-0.035c0.336,-0 0.654,-0 0.955,-0l0.645,0l-0.194,-0" style="fill:none;fill-rule:nonzero;stroke:#000;stroke-width:0.85px;"/><path d="M272.76,11.338c-0.004,-0.062 -0.022,-0.163 -0.053,-0.301c-0.02,-0.087 -0.001,-0.139 0.058,-0.155c0.059,-0.017 0.186,-0.019 0.382,-0.008c0.196,0.011 0.391,0.065 0.587,0.16c0.195,0.096 0.376,0.227 0.543,0.393c0.166,0.166 0.299,0.34 0.397,0.522c0.098,0.182 0.143,0.364 0.136,0.547c-0.008,0.182 -0.114,0.36 -0.318,0.533c-0.204,0.173 -0.433,0.32 -0.686,0.439c-0.253,0.119 -0.493,0.208 -0.72,0.266c-0.227,0.058 -0.442,0.093 -0.644,0.104c-0.203,0.011 -0.394,-0.019 -0.575,-0.089c-0.181,-0.071 -0.333,-0.205 -0.458,-0.403c-0.124,-0.198 -0.22,-0.393 -0.287,-0.584c-0.067,-0.191 -0.113,-0.371 -0.136,-0.539c-0.023,-0.168 -0.028,-0.333 -0.012,-0.493c0.015,-0.161 0.068,-0.304 0.158,-0.43c0.09,-0.126 0.208,-0.226 0.353,-0.3c0.145,-0.074 0.363,-0.144 0.654,-0.21c0.291,-0.066 0.667,-0.135 1.13,-0.207c0.463,-0.072 0.96,-0.15 1.493,-0.233c0.532,-0.083 0.976,-0.148 1.331,-0.196c0.355,-0.048 0.574,-0.071 0.659,-0.068c0.114,0.004 0.109,0.026 -0.015,0.064" style="fill:none;fill-rule:nonzero;stroke:#000;stroke-width:0.85px;"/><path d="M303.015,12.366c0,-0.076 0.004,-0.172 0.011,-0.289c0.007,-0.117 0.015,-0.199 0.024,-0.244c0.009,-0.046 0.041,-0.07 0.095,-0.074c0.054,-0.004 0.147,0.013 0.281,0.049c0.133,0.036 0.278,0.117 0.434,0.244c0.156,0.126 0.285,0.273 0.387,0.442c0.102,0.169 0.167,0.344 0.194,0.527c0.027,0.182 0.036,0.36 0.028,0.533c-0.008,0.173 -0.071,0.332 -0.188,0.477c-0.117,0.144 -0.277,0.269 -0.481,0.372c-0.204,0.104 -0.424,0.186 -0.659,0.245c-0.235,0.06 -0.464,0.096 -0.686,0.107c-0.222,0.011 -0.428,0.006 -0.619,-0.016c-0.191,-0.022 -0.367,-0.109 -0.529,-0.259c-0.162,-0.151 -0.309,-0.338 -0.441,-0.562c-0.132,-0.224 -0.231,-0.45 -0.298,-0.676c-0.067,-0.227 -0.092,-0.44 -0.075,-0.64c0.016,-0.2 0.071,-0.378 0.164,-0.533c0.093,-0.155 0.22,-0.278 0.382,-0.367c0.162,-0.09 0.394,-0.163 0.697,-0.22c0.303,-0.057 0.682,-0.097 1.139,-0.12c0.457,-0.023 0.935,-0.043 1.434,-0.06c0.499,-0.017 0.912,-0.035 1.238,-0.055c0.326,-0.02 0.577,-0.031 0.754,-0.034c0.176,-0.003 0.287,-0.004 0.331,-0.004c0.062,-0 0.034,0.057 -0.083,0.171" style="fill:none;fill-rule:nonzero;stroke:#000;stroke-width:0.85px;"/><path d="M337.38,11.469c0.076,-0.03 0.168,-0.058 0.275,-0.084c0.107,-0.026 0.221,-0.04 0.343,-0.043c0.122,-0.003 0.266,0.034 0.433,0.109c0.167,0.076 0.317,0.202 0.451,0.379c0.134,0.177 0.225,0.374 0.274,0.589c0.049,0.215 0.075,0.422 0.079,0.62c0.003,0.198 -0.027,0.375 -0.091,0.529c-0.064,0.155 -0.183,0.284 -0.357,0.388c-0.174,0.104 -0.368,0.173 -0.581,0.207c-0.213,0.034 -0.431,0.046 -0.654,0.036c-0.223,-0.01 -0.44,-0.059 -0.65,-0.147c-0.21,-0.087 -0.388,-0.184 -0.534,-0.291c-0.146,-0.107 -0.276,-0.216 -0.391,-0.328c-0.115,-0.112 -0.209,-0.223 -0.281,-0.335c-0.072,-0.112 -0.116,-0.231 -0.13,-0.359c-0.014,-0.128 -0.01,-0.263 0.013,-0.403c0.023,-0.141 0.08,-0.27 0.173,-0.388c0.093,-0.118 0.196,-0.221 0.309,-0.309c0.113,-0.088 0.243,-0.165 0.387,-0.228c0.145,-0.064 0.303,-0.123 0.474,-0.177c0.171,-0.054 0.369,-0.1 0.593,-0.14c0.224,-0.04 0.46,-0.066 0.708,-0.079c0.248,-0.013 0.498,-0.021 0.75,-0.024c0.253,-0.003 0.501,-0.004 0.745,-0.004c0.244,0 0.47,-0.004 0.678,-0.011c0.208,-0.007 0.305,-0.024 0.292,-0.05" style="fill:none;fill-rule:nonzero;stroke:#000;stroke-width:0.85px;"/><path d="M367.522,11.906c0.063,-0.077 0.148,-0.147 0.253,-0.209c0.105,-0.062 0.238,-0.097 0.398,-0.106c0.16,-0.009 0.346,0.019 0.556,0.083c0.21,0.064 0.417,0.185 0.62,0.364c0.202,0.179 0.374,0.366 0.516,0.561c0.141,0.195 0.238,0.38 0.29,0.556c0.052,0.176 0.059,0.34 0.022,0.494c-0.037,0.154 -0.128,0.287 -0.271,0.398c-0.143,0.111 -0.287,0.2 -0.43,0.268c-0.143,0.067 -0.298,0.113 -0.465,0.136c-0.166,0.023 -0.35,0.035 -0.551,0.036c-0.201,0 -0.396,-0.004 -0.587,-0.013c-0.19,-0.009 -0.376,-0.044 -0.556,-0.105c-0.18,-0.061 -0.352,-0.15 -0.515,-0.267c-0.163,-0.117 -0.315,-0.254 -0.455,-0.411c-0.14,-0.157 -0.264,-0.302 -0.372,-0.435c-0.108,-0.133 -0.183,-0.241 -0.225,-0.326c-0.042,-0.084 -0.015,-0.17 0.08,-0.257c0.095,-0.087 0.293,-0.191 0.593,-0.314c0.301,-0.122 0.61,-0.251 0.927,-0.385c0.317,-0.134 0.613,-0.257 0.889,-0.37c0.276,-0.113 0.566,-0.213 0.87,-0.301c0.304,-0.088 0.622,-0.172 0.953,-0.253c0.331,-0.081 0.616,-0.143 0.856,-0.186c0.24,-0.043 0.457,-0.065 0.652,-0.066c0.288,-0.002 0.585,0.068 0.889,0.21" style="fill:none;fill-rule:nonzero;stroke:#000;stroke-width:0.85px;"/><path d="M402.848,12.648c0.072,-0.046 0.133,-0.094 0.183,-0.144c0.034,-0.034 0.056,-0.051 0.065,-0.051c0.009,-0 0.032,0.026 0.067,0.078c0.035,0.052 0.082,0.165 0.139,0.339c0.057,0.174 0.111,0.363 0.161,0.566c0.05,0.204 0.083,0.404 0.102,0.601c0.018,0.197 0.025,0.379 0.021,0.546c-0.004,0.167 -0.051,0.31 -0.142,0.428c-0.09,0.118 -0.234,0.21 -0.43,0.275c-0.196,0.065 -0.405,0.105 -0.626,0.119c-0.221,0.014 -0.451,-0.003 -0.692,-0.051c-0.24,-0.048 -0.452,-0.135 -0.635,-0.262c-0.183,-0.127 -0.326,-0.268 -0.431,-0.422c-0.105,-0.155 -0.189,-0.308 -0.254,-0.459c-0.065,-0.151 -0.11,-0.293 -0.136,-0.425c-0.026,-0.132 -0.032,-0.257 -0.02,-0.374c0.013,-0.117 0.095,-0.237 0.248,-0.361c0.152,-0.124 0.32,-0.241 0.503,-0.351c0.183,-0.11 0.353,-0.209 0.509,-0.298c0.156,-0.088 0.326,-0.162 0.508,-0.222c0.183,-0.059 0.411,-0.104 0.684,-0.135c0.274,-0.03 0.597,-0.051 0.969,-0.06c0.373,-0.01 0.78,-0.028 1.221,-0.054c0.441,-0.026 0.858,-0.057 1.25,-0.094c0.392,-0.036 0.705,-0.063 0.937,-0.082c0.232,-0.018 0.298,-0.01 0.197,0.026" style="fill:none;fill-rule:nonzero;stroke:#000;stroke-width:0.85px;"/><path d="M267.404,46.271c-0.01,-0.082 -0.02,-0.177 -0.029,-0.283c-0.009,-0.107 -0.022,-0.196 -0.038,-0.27c-0.016,-0.073 -0.052,-0.141 -0.109,-0.202c-0.056,-0.061 -0.158,-0.107 -0.305,-0.138c-0.147,-0.031 -0.339,-0.04 -0.577,-0.027c-0.238,0.013 -0.483,0.106 -0.737,0.281c-0.253,0.175 -0.47,0.435 -0.649,0.779c-0.179,0.345 -0.278,0.697 -0.297,1.056c-0.019,0.359 0.085,0.636 0.311,0.831c0.226,0.195 0.533,0.296 0.92,0.305c0.388,0.008 0.764,-0.066 1.129,-0.223c0.365,-0.157 0.645,-0.353 0.84,-0.59c0.195,-0.237 0.312,-0.475 0.353,-0.713c0.04,-0.239 0.06,-0.447 0.058,-0.625c-0.002,-0.178 -0.014,-0.304 -0.038,-0.379c-0.023,-0.075 -0.044,-0.118 -0.062,-0.132c-0.018,-0.013 -0.031,-0.001 -0.041,0.037c-0.01,0.038 -0.017,0.131 -0.022,0.278c-0.005,0.147 0.001,0.324 0.019,0.532c0.018,0.207 0.08,0.426 0.186,0.656c0.106,0.23 0.228,0.455 0.366,0.675c0.138,0.22 0.284,0.423 0.439,0.608l0.116,0.139l-0.347,-0.418" style="fill:none;fill-rule:nonzero;stroke:#000;stroke-width:0.85px;"/><path d="M312.616,44.149c0.004,-0.059 0.003,-0.146 -0.005,-0.26c-0.005,-0.072 -0.022,-0.111 -0.052,-0.115c-0.03,-0.004 -0.066,0.066 -0.108,0.209c-0.042,0.143 -0.071,0.364 -0.089,0.664c-0.018,0.3 -0.027,0.622 -0.028,0.966c-0,0.345 0.027,0.67 0.082,0.977c0.055,0.306 0.129,0.549 0.222,0.726c0.093,0.178 0.169,0.292 0.229,0.342c0.06,0.05 0.096,0.064 0.11,0.04c0.014,-0.024 0.051,-0.118 0.113,-0.283c0.062,-0.165 0.186,-0.346 0.371,-0.544c0.185,-0.198 0.403,-0.354 0.651,-0.47c0.249,-0.115 0.494,-0.183 0.735,-0.203c0.241,-0.02 0.463,0.025 0.664,0.135c0.201,0.111 0.352,0.261 0.451,0.452c0.099,0.191 0.148,0.391 0.147,0.6c-0.002,0.209 -0.058,0.392 -0.168,0.55c-0.11,0.158 -0.252,0.279 -0.425,0.362c-0.173,0.083 -0.372,0.138 -0.596,0.164c-0.225,0.026 -0.446,0.036 -0.663,0.03c-0.218,-0.006 -0.385,-0.055 -0.501,-0.146c-0.165,-0.129 -0.07,-0.418 0.284,-0.867" style="fill:none;fill-rule:nonzero;stroke:#000;stroke-width:0.85px;"/><path d="M376.578,47.255c-0.028,-0.065 -0.078,-0.134 -0.151,-0.207c-0.073,-0.073 -0.177,-0.115 -0.313,-0.126c-0.135,-0.011 -0.315,0.006 -0.538,0.051c-0.223,0.045 -0.469,0.152 -0.738,0.321c-0.269,0.169 -0.522,0.368 -0.76,0.597c-0.238,0.229 -0.417,0.464 -0.536,0.705c-0.119,0.241 -0.162,0.47 -0.127,0.688c0.034,0.218 0.236,0.401 0.603,0.55c0.368,0.149 0.844,0.25 1.428,0.305c0.584,0.055 1.147,0.081 1.688,0.08c0.541,-0.001 0.956,-0.017 1.245,-0.048c0.289,-0.031 0.365,-0.073 0.227,-0.125" style="fill:none;fill-rule:nonzero;stroke:#000;stroke-width:0.85px;"/><path d="M307.631,65.083c-0.047,-0.07 -0.101,-0.141 -0.164,-0.214c-0.063,-0.073 -0.119,-0.133 -0.17,-0.182c-0.051,-0.048 -0.113,-0.096 -0.187,-0.142c-0.074,-0.046 -0.169,-0.08 -0.284,-0.101c-0.115,-0.021 -0.255,-0.027 -0.421,-0.019c-0.166,0.008 -0.358,0.081 -0.578,0.219c-0.22,0.138 -0.435,0.336 -0.645,0.594c-0.21,0.258 -0.371,0.563 -0.483,0.912c-0.112,0.35 -0.154,0.683 -0.128,1c0.026,0.317 0.132,0.562 0.316,0.736c0.185,0.174 0.402,0.273 0.654,0.297c0.251,0.024 0.502,-0.039 0.754,-0.189c0.251,-0.15 0.461,-0.375 0.63,-0.675c0.169,-0.3 0.3,-0.633 0.392,-0.998c0.092,-0.366 0.156,-0.727 0.192,-1.085c0.036,-0.358 0.066,-0.704 0.09,-1.038c0.024,-0.334 0.046,-0.64 0.066,-0.917c0.02,-0.277 0.029,-0.505 0.027,-0.684c-0.002,-0.179 -0.023,-0.312 -0.062,-0.4c-0.04,-0.088 -0.071,-0.159 -0.095,-0.213c-0.023,-0.054 -0.035,-0.103 -0.036,-0.147c-0,-0.044 -0,-0.072 -0,-0.083c0,-0.011 -0,-0.016 -0.001,-0.014c-0,0.002 -0.002,0.006 -0.003,0.013c-0.002,0.007 -0.005,0.088 -0.01,0.244c-0.005,0.155 -0.008,0.399 -0.008,0.732c-0,0.332 0.018,0.771 0.054,1.317c0.036,0.546 0.115,1.064 0.238,1.555c0.123,0.491 0.242,0.883 0.359,1.174c0.117,0.292 0.238,0.545 0.363,0.76c0.126,0.215 0.29,0.363 0.492,0.444l0.152,0.061l-0.455,-0.182" style="fill:none;fill-rule:nonzero;stroke:#000;stroke-width:0.85px;"/><path d="M338.648,68.342l0,-0.068l-0.002,0.058c-0.001,0.06 -0.005,0.211 -0.01,0.453c-0.005,0.241 -0.019,0.485 -0.04,0.73c-0.022,0.245 -0.037,0.489 -0.048,0.732c-0.01,0.243 -0.018,0.481 -0.023,0.715c-0.005,0.234 -0.008,0.456 -0.008,0.666c-0,0.21 -0,0.405 -0,0.586l0,0.513c0,0.161 0.003,0.315 0.01,0.461c0.007,0.146 0.021,0.296 0.043,0.448c0.022,0.153 0.04,0.315 0.055,0.487c0.015,0.172 0.023,0.349 0.023,0.531c0,0.182 0,0.363 0,0.543c0,0.18 -0.002,0.348 -0.007,0.505c-0.005,0.157 -0.008,0.297 -0.011,0.423c-0.003,0.125 -0.004,0.242 -0.004,0.352l0,2.2c0,0.129 0.001,0.262 0.003,0.4c0.002,0.138 0.009,0.27 0.021,0.395c0.012,0.125 0.022,0.233 0.029,0.324c0.007,0.091 0.016,0.165 0.025,0.219c0.009,0.055 0.017,0.093 0.022,0.116c0.005,0.023 0.008,0.043 0.008,0.06l0,0.589c0,0.053 0.003,0.138 0.01,0.254" style="fill:none;fill-rule:nonzero;stroke:#000;stroke-width:0.85px;stroke-dasharray:0,1.701;"/><path d="M344.401,75.298c0.001,-0.053 0.032,-0.145 0.091,-0.275c0.059,-0.13 0.14,-0.255 0.241,-0.376c0.101,-0.121 0.194,-0.233 0.278,-0.336c0.084,-0.103 0.152,-0.189 0.204,-0.259c0.052,-0.07 0.09,-0.118 0.113,-0.147c0.023,-0.028 0.033,-0.021 0.029,0.021c-0.004,0.042 -0.031,0.161 -0.08,0.358c-0.049,0.197 -0.097,0.436 -0.144,0.718c-0.047,0.282 -0.087,0.594 -0.122,0.937c-0.035,0.343 -0.06,0.689 -0.075,1.037c-0.015,0.348 -0.024,0.664 -0.027,0.946c-0.003,0.283 -0.004,0.512 -0.004,0.689l0,0.729c0,0.097 -0.001,0.185 -0.003,0.264c-0.002,0.079 -0.006,0.137 -0.011,0.175c-0.005,0.038 0,0.038 0.016,0.001c0.022,-0.054 0.093,-0.222 0.213,-0.505" style="fill:none;fill-rule:nonzero;stroke:#000;stroke-width:0.85px;"/><path d="M343.614,80.285c0.036,-0.041 0.183,-0.088 0.44,-0.141c0.258,-0.054 0.583,-0.087 0.975,-0.101c0.593,-0.02 1.15,-0.014 1.671,0.019" style="fill:none;fill-rule:nonzero;stroke:#000;stroke-width:0.85px;"/><path d="M215.124,41.787c-0.02,-0.11 -0.048,-0.219 -0.083,-0.327c-0.035,-0.108 -0.051,-0.172 -0.048,-0.191c0.003,-0.019 0.088,-0.015 0.254,0.012c0.167,0.027 0.457,0.062 0.871,0.104c0.414,0.042 0.921,0.065 1.521,0.068c0.6,0.003 1.197,0.002 1.791,-0.005c0.594,-0.007 1.077,-0.014 1.45,-0.022c0.373,-0.008 0.514,-0.04 0.425,-0.097" style="fill:none;fill-rule:nonzero;stroke:#000;stroke-width:0.85px;"/><path d="M215.146,44.893l-0.021,0.002l0.085,0.008c0.085,0.005 0.297,0.018 0.637,0.038c0.339,0.02 0.827,0.032 1.464,0.035c0.636,0.003 1.256,0.005 1.859,0.005l1.273,0l-0.368,0" style="fill:none;fill-rule:nonzero;stroke:#000;stroke-width:0.85px;"/><g transform="matrix(1,0,0,0.100231,0,-17.707444)"><text x="238.148px" y="309.727px" style="font-family:'Helvetica';font-size:38.929px;fill:none;">- <tspan x="257.745px " y="309.727px ">-</tspan></text></g><g transform="matrix(1,0,0,0.126609,0,-17.188329)"><text x="300.042px" y="248.293px" style="font-family:'Helvetica';font-size:31.074px;fill:none;">0 <tspan x="320.585px " y="248.293px ">0</tspan></text></g><g transform="matrix(1,0,0,0.251888,0,-14.722851)"><text x="365.262px" y="114.009px" style="font-family:'Helvetica';font-size:15.108px;fill:none;">-</text></g><g transform="matrix(1,0,0,0.308133,0,-13.615935)"><text x="399.778px" y="92.655px" style="font-family:'Helvetica';font-size:12.365px;fill:none;">5</text></g><g transform="matrix(1,0,0,0.066478,-0,-18.371704)"><text x="240.58px" y="773.993px" style="font-family:'Helvetica';font-size:240.062px;fill:none;">.<tspan x="240.58px 240.58px " y="773.993px 773.993px ">..</tspan></text></g><g transform="matrix(1,0,0,0.271362,0,-14.339594)"><text x="243.092px" y="174.001px" style="font-family:'Helvetica';font-size:50.213px;fill:none;">V</text></g><g transform="matrix(1,0,0,0.20789,-0,-15.588716)"><text x="4.378px" y="371.05px" style="font-family:'Menlo-Regular', 'Menlo', monospace;font-size:232.494px;fill:none;"></text></g><g transform="matrix(1,0,0,0.09552,0,-17.800162)"><text x="259.104px" y="833.907px" style="font-family:'Helvetica';font-size:294.678px;fill:none;">-</text></g><g transform="matrix(0.89856,0,0,1,2.253961,0)"><text x="373.751px" y="78.696px" style="font-family:'Helvetica';font-size:11.458px;fill:none;">1<tspan x="378.829px " y="78.696px ">1</tspan></text></g></svg>