<?xml version="1.0" encoding="UTF-8" standalone="no"?><!DOCTYPE svg PUBLIC "-//W3C//DTD SVG 1.1//EN" "http://www.w3.org/Graphics/SVG/1.1/DTD/svg11.dtd"><svg width="100%" height="100%" viewBox="0 0 168 166" version="1.1" xmlns="http://www.w3.org/2000/svg" xmlns:xlink="http://www.w3.org/1999/xlink" xml:space="preserve" xmlns:serif="http://www.serif.com/" style="fill-rule:evenodd;clip-rule:evenodd;stroke-linecap:round;stroke-linejoin:round;stroke-miterlimit:10;"><rect id="Artboard2" x="0" y="0" width="167.28" height="165.36" style="fill:#fff;"/><g id="Artboard21" serif:id="Artboard2"><path d="M74.079,14.314c-0.081,-0.002 -0.176,-0.001 -0.284,0.002c-0.071,0.002 -0.076,0.037 -0.016,0.104c0.06,0.067 0.202,0.159 0.426,0.275c0.224,0.116 0.466,0.237 0.725,0.362c0.259,0.126 0.522,0.271 0.786,0.438c0.265,0.166 0.556,0.358 0.874,0.574c0.318,0.217 0.681,0.453 1.089,0.71c0.408,0.256 0.813,0.517 1.216,0.782c0.403,0.265 0.793,0.521 1.169,0.767c0.377,0.246 0.746,0.476 1.107,0.689c0.361,0.213 0.673,0.38 0.935,0.501c0.263,0.121 0.446,0.195 0.552,0.222c0.105,0.027 0.164,0.041 0.176,0.041c0.012,0 0.018,0.004 0.018,0.01c0,0.009 0.023,-0.036 0.068,-0.137" style="fill:none;fill-rule:nonzero;stroke:#000;stroke-width:0.85px;"/><path d="M90.156,14.072c-0.064,-0.06 -0.149,-0.104 -0.255,-0.133c-0.106,-0.028 -0.228,-0.012 -0.368,0.049c-0.14,0.061 -0.379,0.234 -0.717,0.519c-0.338,0.285 -0.818,0.689 -1.44,1.21c-0.622,0.522 -1.27,1.047 -1.944,1.577c-0.674,0.53 -1.221,0.943 -1.64,1.241c-0.419,0.298 -0.705,0.514 -0.857,0.647c-0.152,0.134 -0.234,0.229 -0.245,0.287c-0.016,0.08 0.054,0.075 0.208,-0.015" style="fill:none;fill-rule:nonzero;stroke:#000;stroke-width:0.85px;"/><path d="M106.494,13.788c0.004,-0.061 0.003,-0.157 -0.005,-0.287c-0.005,-0.082 -0.008,-0.122 -0.011,-0.12c-0.003,0.002 0.008,0.074 0.033,0.217c0.025,0.143 0.103,0.321 0.235,0.536c0.132,0.215 0.292,0.428 0.48,0.641c0.188,0.212 0.425,0.42 0.712,0.625c0.287,0.204 0.623,0.401 1.007,0.592c0.384,0.19 0.765,0.377 1.143,0.559c0.378,0.182 0.745,0.358 1.103,0.526c0.358,0.168 0.701,0.332 1.031,0.49c0.33,0.158 0.621,0.331 0.875,0.519c0.253,0.188 0.469,0.36 0.647,0.516c0.178,0.156 0.342,0.271 0.493,0.347c0.151,0.076 0.305,0.12 0.463,0.135c0.158,0.014 0.318,0.021 0.481,0.021c0.163,0 0.238,-0.048 0.224,-0.144" style="fill:none;fill-rule:nonzero;stroke:#000;stroke-width:0.85px;"/><path d="M122.18,14.007l0,-0.328c0,-0 -0.021,0.022 -0.064,0.067c-0.043,0.045 -0.202,0.201 -0.479,0.47c-0.277,0.268 -0.654,0.604 -1.132,1.006c-0.478,0.402 -1.013,0.817 -1.605,1.243c-0.592,0.426 -1.156,0.809 -1.691,1.148c-0.535,0.34 -0.953,0.606 -1.255,0.799c-0.302,0.193 -0.48,0.321 -0.536,0.383c-0.056,0.062 -0.047,0.106 0.027,0.133l0.055,0.02l-0.166,-0.06" style="fill:none;fill-rule:nonzero;stroke:#000;stroke-width:0.85px;"/><path d="M138.061,13.788c-0.02,-0.044 0.004,-0.043 0.073,0.002c0.069,0.045 0.24,0.158 0.514,0.338c0.274,0.18 0.609,0.392 1.004,0.636c0.395,0.244 0.816,0.509 1.262,0.797c0.446,0.288 0.864,0.578 1.254,0.87c0.39,0.292 0.756,0.574 1.099,0.844c0.343,0.271 0.691,0.514 1.044,0.73c0.352,0.216 0.667,0.428 0.942,0.637c0.276,0.209 0.502,0.397 0.678,0.565c0.176,0.168 0.309,0.291 0.397,0.369c0.088,0.079 0.143,0.128 0.163,0.149l0.013,0.012l-0.027,-0.029c-0.045,-0.046 -0.098,-0.106 -0.159,-0.179" style="fill:none;fill-rule:nonzero;stroke:#000;stroke-width:0.85px;"/><path d="M153.911,14.332c0.012,-0.041 -0.001,-0.113 -0.039,-0.217c-0.024,-0.066 -0.051,-0.1 -0.079,-0.103c-0.029,-0.003 -0.093,0.046 -0.194,0.149c-0.1,0.103 -0.292,0.312 -0.576,0.628c-0.284,0.316 -0.677,0.702 -1.18,1.157c-0.503,0.455 -1.044,0.942 -1.623,1.461c-0.578,0.519 -1.092,0.998 -1.54,1.438c-0.448,0.44 -0.812,0.797 -1.091,1.071c-0.279,0.274 -0.471,0.459 -0.577,0.555c-0.106,0.096 -0.152,0.152 -0.139,0.168c0.018,0.022 0.397,-0.117 1.137,-0.418" style="fill:none;fill-rule:nonzero;stroke:#000;stroke-width:0.85px;"/><path d="M98.206,30.152c-0.032,-0.006 -0.109,-0.012 -0.231,-0.018c-0.073,-0.004 -0.114,-0.006 -0.125,-0.006c-0.01,0 -0.005,-0.004 0.015,-0.011c0.02,-0.007 0.07,-0.026 0.151,-0.056c0.081,-0.03 0.331,-0.135 0.752,-0.316c0.421,-0.181 0.921,-0.42 1.501,-0.717c0.58,-0.297 1.198,-0.628 1.855,-0.994c0.657,-0.366 1.253,-0.719 1.788,-1.058c0.535,-0.339 0.996,-0.654 1.383,-0.946c0.387,-0.292 0.726,-0.544 1.017,-0.758c0.292,-0.214 0.592,-0.424 0.901,-0.63c0.309,-0.206 0.651,-0.429 1.026,-0.668c0.375,-0.24 0.754,-0.471 1.136,-0.693c0.382,-0.222 0.744,-0.458 1.085,-0.706c0.341,-0.248 0.697,-0.533 1.068,-0.854c0.371,-0.321 0.74,-0.637 1.107,-0.947c0.368,-0.311 0.72,-0.568 1.057,-0.771c0.337,-0.203 0.633,-0.364 0.89,-0.481c0.257,-0.117 0.414,-0.186 0.472,-0.207c0.081,-0.029 0.022,-0.077 -0.176,-0.145" style="fill:none;fill-rule:nonzero;stroke:#000;stroke-width:0.85px;"/><path d="M82.865,19.403c-0.065,-0.031 -0.142,-0.014 -0.23,0.05c-0.06,0.043 -0.021,0.14 0.115,0.289c0.137,0.149 0.388,0.346 0.754,0.591c0.366,0.245 0.758,0.529 1.178,0.852c0.42,0.323 0.838,0.654 1.254,0.992c0.416,0.338 0.852,0.661 1.309,0.968c0.457,0.307 0.927,0.612 1.411,0.913c0.484,0.301 0.934,0.597 1.351,0.887c0.417,0.29 0.788,0.571 1.114,0.844c0.326,0.273 0.635,0.524 0.927,0.752c0.292,0.228 0.612,0.413 0.959,0.555c0.347,0.142 0.713,0.269 1.096,0.38c0.384,0.111 0.765,0.244 1.145,0.398c0.379,0.154 0.725,0.34 1.037,0.559c0.312,0.219 0.597,0.421 0.856,0.606c0.259,0.185 0.501,0.324 0.726,0.417c0.226,0.093 0.412,0.17 0.558,0.231c0.146,0.061 0.271,0.122 0.374,0.183c0.103,0.061 0.192,0.112 0.266,0.155c0.074,0.042 0.131,0.07 0.171,0.083c0.04,0.013 0.064,0.02 0.073,0.02c0.008,0 0.004,-0.002 -0.013,-0.007c-0.024,-0.008 -0.101,-0.031 -0.23,-0.071" style="fill:none;fill-rule:nonzero;stroke:#000;stroke-width:0.85px;"/><path d="M122.399,37.303c-0.031,-0.042 0.104,-0.156 0.404,-0.343c0.3,-0.187 0.648,-0.388 1.042,-0.604c0.394,-0.216 0.842,-0.472 1.344,-0.768c0.502,-0.296 1.034,-0.619 1.597,-0.971c0.563,-0.351 1.106,-0.696 1.628,-1.035c0.522,-0.339 1.013,-0.656 1.472,-0.951c0.459,-0.296 0.919,-0.596 1.38,-0.901c0.46,-0.305 0.931,-0.628 1.412,-0.969c0.481,-0.341 0.95,-0.686 1.406,-1.035c0.456,-0.348 0.867,-0.667 1.233,-0.956c0.366,-0.289 0.721,-0.568 1.065,-0.838c0.344,-0.27 0.72,-0.525 1.129,-0.764c0.408,-0.24 0.825,-0.467 1.251,-0.681c0.426,-0.214 0.861,-0.459 1.306,-0.735c0.445,-0.275 0.908,-0.591 1.39,-0.948c0.481,-0.356 0.933,-0.672 1.356,-0.945c0.423,-0.274 0.813,-0.501 1.171,-0.681c0.357,-0.18 0.689,-0.367 0.994,-0.559c0.305,-0.192 0.588,-0.398 0.847,-0.617c0.26,-0.219 0.488,-0.407 0.685,-0.563c0.197,-0.156 0.358,-0.272 0.482,-0.348c0.125,-0.076 0.202,-0.119 0.231,-0.131c0.04,-0.016 0.032,-0.009 -0.024,0.021" style="fill:none;fill-rule:nonzero;stroke:#000;stroke-width:0.85px;"/><path d="M98.315,30.04c-0.038,-0.027 -0.021,-0.03 0.048,-0.011c0.07,0.02 0.245,0.069 0.525,0.148c0.28,0.079 0.626,0.201 1.038,0.367c0.412,0.166 0.922,0.339 1.53,0.519c0.607,0.18 1.285,0.345 2.033,0.495c0.748,0.15 1.471,0.29 2.17,0.421c0.699,0.131 1.309,0.274 1.829,0.429c0.52,0.155 0.965,0.303 1.333,0.445c0.368,0.141 0.738,0.271 1.109,0.389c0.371,0.118 0.749,0.222 1.135,0.313c0.386,0.091 0.779,0.178 1.18,0.263c0.401,0.085 0.764,0.176 1.089,0.273c0.325,0.097 0.587,0.195 0.786,0.295c0.199,0.1 0.37,0.197 0.514,0.292c0.144,0.095 0.326,0.186 0.546,0.274c0.22,0.088 0.449,0.169 0.686,0.242c0.237,0.073 0.439,0.146 0.607,0.219c0.168,0.073 0.332,0.147 0.494,0.223c0.162,0.076 0.339,0.142 0.53,0.198c0.191,0.057 0.382,0.099 0.572,0.127c0.19,0.028 0.369,0.047 0.538,0.057c0.168,0.01 0.331,0.028 0.487,0.054c0.156,0.026 0.314,0.057 0.474,0.094c0.16,0.036 0.341,0.064 0.543,0.085c0.202,0.02 0.392,0.033 0.57,0.038c0.178,0.005 0.293,0.011 0.345,0.018l0.033,0.004l-0.063,-0.006c-0.108,-0.012 -0.225,-0.02 -0.352,-0.025" style="fill:none;fill-rule:nonzero;stroke:#000;stroke-width:0.85px;"/><path d="M74.057,14.007c-0.041,-0.018 -0.097,-0.088 -0.168,-0.212c-0.07,-0.124 -0.114,-0.273 -0.132,-0.448c-0.018,-0.175 -0.027,-0.419 -0.028,-0.73c-0,-0.311 -0,-0.659 -0,-1.044l0,-1.127c0,-0.581 0.016,-1.006 0.049,-1.276" style="fill:none;fill-rule:nonzero;stroke:#000;stroke-width:0.85px;"/><path d="M90.113,13.547c-0.061,-0.072 -0.12,-0.181 -0.176,-0.326c-0.056,-0.146 -0.078,-0.344 -0.065,-0.596c0.013,-0.252 0.052,-0.575 0.119,-0.969c0.067,-0.395 0.123,-0.798 0.167,-1.209c0.07,-0.642 0.146,-1.141 0.229,-1.499" style="fill:none;fill-rule:nonzero;stroke:#000;stroke-width:0.85px;"/><path d="M106.256,13.175l0,-2.167c0,-0.728 0.08,-1.497 0.24,-2.306" style="fill:none;fill-rule:nonzero;stroke:#000;stroke-width:0.85px;"/><path d="M122.093,13.46c-0.03,-0.088 -0.056,-0.197 -0.077,-0.326c-0.021,-0.129 -0.031,-0.279 -0.029,-0.45c0.002,-0.171 0.025,-0.421 0.069,-0.75c0.044,-0.329 0.121,-0.74 0.231,-1.233c0.11,-0.493 0.217,-0.987 0.322,-1.481c0.105,-0.494 0.082,-0.712 -0.069,-0.654" style="fill:none;fill-rule:nonzero;stroke:#000;stroke-width:0.85px;"/><path d="M138.127,13.088c-0.1,0.031 -0.199,0.066 -0.297,0.106c-0.098,0.04 -0.16,0.061 -0.187,0.064c-0.027,0.003 -0.04,-0.04 -0.04,-0.129c-0,-0.089 0.007,-0.254 0.021,-0.495c0.014,-0.241 0.011,-0.556 -0.008,-0.946c-0.019,-0.39 -0.086,-0.855 -0.201,-1.395c-0.173,-0.815 -0.163,-1.541 0.031,-2.177" style="fill:none;fill-rule:nonzero;stroke:#000;stroke-width:0.85px;"/><path d="M153.724,13.492c-0.036,0.003 -0.111,0.054 -0.224,0.153c-0.068,0.059 -0.089,0.048 -0.063,-0.033c0.027,-0.081 0.072,-0.265 0.135,-0.551c0.063,-0.286 0.101,-0.609 0.112,-0.967c0.011,-0.358 0.018,-0.79 0.02,-1.294c0.003,-0.747 0.055,-1.597 0.154,-2.55" style="fill:none;fill-rule:nonzero;stroke:#000;stroke-width:0.85px;"/><path d="M82.522,25.513l-0.237,0c-0.064,0 -0.099,-0.005 -0.105,-0.014c-0.005,-0.009 -0.008,-0.02 -0.008,-0.032c-0,-0.012 0.007,-0.036 0.02,-0.071c0.014,-0.035 0.042,-0.075 0.085,-0.119c0.043,-0.044 0.09,-0.085 0.141,-0.124c0.051,-0.039 0.098,-0.075 0.142,-0.106c0.044,-0.032 0.087,-0.059 0.128,-0.081c0.042,-0.022 0.075,-0.04 0.1,-0.052c0.025,-0.012 0.044,-0.021 0.056,-0.026c0.013,-0.005 0.02,0.024 0.023,0.088c0.003,0.064 0.004,0.181 0.004,0.35l0,2.316c0,0.129 0.003,0.229 0.01,0.301c0.007,0.072 0.021,0.126 0.041,0.16c0.029,0.048 0.087,0.018 0.173,-0.09" style="fill:none;fill-rule:nonzero;stroke:#000;stroke-width:0.85px;"/><path d="M82.301,28.623c-0.06,-0.039 -0.133,-0.068 -0.218,-0.087c-0.056,-0.013 -0.042,0.008 0.043,0.063c0.122,0.078 0.585,0.077 1.389,-0.004" style="fill:none;fill-rule:nonzero;stroke:#000;stroke-width:0.85px;"/><path d="M142.458,27.744c-0.035,-0.06 -0.056,-0.161 -0.063,-0.302c-0.007,-0.141 0.016,-0.265 0.069,-0.372c0.054,-0.107 0.111,-0.202 0.173,-0.286c0.061,-0.084 0.115,-0.151 0.162,-0.201c0.047,-0.05 0.085,-0.08 0.115,-0.092c0.03,-0.011 0.049,0.034 0.057,0.134c0.008,0.101 0.011,0.262 0.009,0.483c-0.002,0.221 -0.018,0.447 -0.049,0.678c-0.03,0.231 -0.055,0.454 -0.073,0.669c-0.018,0.215 -0.027,0.408 -0.027,0.58c-0,0.172 -0,0.314 -0,0.426c0,0.112 0.003,0.191 0.01,0.238l0.005,0.035l-0.015,-0.106" style="fill:none;fill-rule:nonzero;stroke:#000;stroke-width:0.85px;"/><path d="M142.02,30.325c0.003,0 0.281,-0.009 0.832,-0.026" style="fill:none;fill-rule:nonzero;stroke:#000;stroke-width:0.85px;"/><path d="M110.306,25.703c-0.024,-0.014 -0.079,-0.088 -0.166,-0.223c-0.05,-0.078 -0.079,-0.136 -0.087,-0.175c-0.008,-0.039 -0.011,-0.079 -0.009,-0.12c0.002,-0.041 0.021,-0.083 0.056,-0.127c0.035,-0.044 0.086,-0.087 0.153,-0.131c0.067,-0.044 0.135,-0.085 0.203,-0.124c0.068,-0.039 0.132,-0.07 0.191,-0.093c0.059,-0.023 0.107,-0.037 0.144,-0.042c0.037,-0.005 0.06,0.018 0.068,0.07c0.008,0.052 0.013,0.168 0.013,0.346c0,0.178 -0.007,0.379 -0.02,0.602c-0.014,0.223 -0.037,0.444 -0.071,0.663c-0.034,0.219 -0.059,0.42 -0.074,0.601c-0.015,0.182 -0.024,0.341 -0.027,0.479c-0.003,0.138 -0.004,0.252 -0.004,0.344l0,0.321c0,0.016 0.026,0.016 0.078,-0.001" style="fill:none;fill-rule:nonzero;stroke:#000;stroke-width:0.85px;"/><path d="M110.086,28.531c-0.005,-0.08 -0.002,-0.152 0.008,-0.218c0.007,-0.044 0.029,-0.066 0.067,-0.066c0.038,0 0.102,-0 0.195,-0c0.132,-0 0.456,0.005 0.971,0.015" style="fill:none;fill-rule:nonzero;stroke:#000;stroke-width:0.85px;"/><path d="M10.238,16.681c-0.008,-0.058 -0.076,-0.159 -0.205,-0.304c-0.079,-0.089 -0.109,-0.024 -0.088,0.196c0.021,0.22 0.1,0.605 0.237,1.156c0.138,0.551 0.276,1.232 0.415,2.045c0.139,0.812 0.261,1.695 0.365,2.648c0.104,0.953 0.181,1.794 0.232,2.522c0.051,0.728 0.07,1.239 0.058,1.534c-0.012,0.295 -0.071,0.524 -0.177,0.687" style="fill:none;fill-rule:nonzero;stroke:#000;stroke-width:0.85px;"/><path d="M17.625,20.311c-0.078,-0.058 -0.164,-0.123 -0.259,-0.194c-0.094,-0.071 -0.187,-0.12 -0.278,-0.149c-0.091,-0.028 -0.212,-0.023 -0.363,0.014c-0.151,0.037 -0.325,0.2 -0.524,0.488c-0.198,0.288 -0.363,0.694 -0.493,1.217c-0.131,0.523 -0.179,1.046 -0.145,1.568c0.034,0.522 0.231,0.886 0.593,1.091c0.362,0.205 0.812,0.256 1.352,0.153c0.539,-0.103 1.005,-0.304 1.398,-0.601c0.392,-0.297 0.666,-0.624 0.82,-0.982c0.154,-0.357 0.219,-0.738 0.194,-1.141c-0.025,-0.403 -0.168,-0.742 -0.43,-1.016c-0.262,-0.274 -0.532,-0.453 -0.81,-0.538l-0.344,-0.099l0.015,0.007" style="fill:none;fill-rule:nonzero;stroke:#000;stroke-width:0.85px;"/><path d="M26.923,21.054c0,-0.084 0.004,-0.195 0.011,-0.331c0.007,-0.136 0.01,-0.237 0.008,-0.302c-0.002,-0.065 -0.036,-0.118 -0.103,-0.16c-0.067,-0.042 -0.174,-0.072 -0.322,-0.09c-0.148,-0.018 -0.336,-0.013 -0.564,0.016c-0.228,0.029 -0.478,0.161 -0.75,0.397c-0.272,0.236 -0.501,0.572 -0.689,1.006c-0.188,0.434 -0.258,0.885 -0.21,1.354c0.048,0.468 0.263,0.83 0.646,1.086c0.382,0.256 0.827,0.385 1.333,0.386c0.507,0.001 0.985,-0.13 1.436,-0.392c0.451,-0.263 0.825,-0.591 1.123,-0.984c0.298,-0.393 0.493,-0.791 0.583,-1.193c0.09,-0.402 0.044,-0.748 -0.138,-1.038c-0.263,-0.418 -0.774,-0.596 -1.532,-0.535" style="fill:none;fill-rule:nonzero;stroke:#000;stroke-width:0.85px;"/><path d="M32.479,15.629c0.02,0.045 0.176,0.175 0.467,0.392c0.292,0.217 0.703,0.516 1.234,0.897c0.531,0.381 1.026,0.835 1.484,1.361c0.459,0.527 0.806,1.015 1.042,1.466c0.236,0.45 0.391,0.824 0.464,1.12c0.073,0.296 0.083,0.589 0.028,0.879c-0.055,0.29 -0.232,0.64 -0.532,1.05c-0.3,0.411 -0.642,0.854 -1.026,1.331c-0.384,0.476 -0.714,0.881 -0.992,1.214c-0.468,0.56 -0.748,0.921 -0.842,1.083" style="fill:none;fill-rule:nonzero;stroke:#000;stroke-width:0.85px;"/><path d="M47.749,20.004c-0.07,-0.049 -0.154,-0.111 -0.252,-0.187c-0.064,-0.049 -0.005,-0.074 0.177,-0.074c0.182,-0 0.552,-0.001 1.112,-0.001l1.934,0c0.73,0 1.434,0.02 2.113,0.061c0.679,0.041 0.965,0.075 0.858,0.102" style="fill:none;fill-rule:nonzero;stroke:#000;stroke-width:0.85px;"/><path d="M46.874,23.286c-0.025,-0.146 0.138,-0.247 0.489,-0.303c0.352,-0.055 0.909,-0.082 1.672,-0.081c1.138,0.002 2.334,0.079 3.59,0.229" style="fill:none;fill-rule:nonzero;stroke:#000;stroke-width:0.85px;"/><path d="M74.219,53.193c-0.081,-0.002 -0.176,-0.001 -0.284,0.002c-0.071,0.002 -0.076,0.037 -0.016,0.104c0.06,0.067 0.202,0.159 0.426,0.275c0.224,0.116 0.466,0.237 0.725,0.362c0.259,0.126 0.522,0.271 0.786,0.438c0.265,0.166 0.556,0.358 0.874,0.574c0.318,0.217 0.681,0.453 1.089,0.71c0.408,0.256 0.813,0.517 1.216,0.782c0.403,0.265 0.793,0.521 1.169,0.767c0.377,0.246 0.746,0.476 1.107,0.689c0.361,0.213 0.673,0.38 0.935,0.501c0.263,0.121 0.446,0.195 0.552,0.222c0.105,0.027 0.164,0.041 0.176,0.041c0.012,0 0.018,0.004 0.018,0.01c0,0.009 0.023,-0.036 0.068,-0.137" style="fill:none;fill-rule:nonzero;stroke:#000;stroke-width:0.85px;"/><path d="M90.297,52.952c-0.064,-0.06 -0.149,-0.104 -0.255,-0.133c-0.106,-0.028 -0.228,-0.012 -0.368,0.049c-0.14,0.061 -0.379,0.234 -0.717,0.519c-0.338,0.285 -0.818,0.689 -1.44,1.21c-0.622,0.522 -1.27,1.047 -1.944,1.577c-0.674,0.53 -1.221,0.943 -1.64,1.241c-0.419,0.298 -0.705,0.514 -0.857,0.647c-0.152,0.134 -0.234,0.229 -0.245,0.287c-0.016,0.08 0.054,0.075 0.208,-0.015" style="fill:none;fill-rule:nonzero;stroke:#000;stroke-width:0.85px;"/><path d="M106.634,52.667c0.004,-0.061 0.003,-0.157 -0.005,-0.287c-0.005,-0.082 -0.008,-0.122 -0.011,-0.12c-0.003,0.002 0.008,0.074 0.033,0.217c0.025,0.143 0.103,0.321 0.235,0.536c0.132,0.215 0.292,0.428 0.48,0.641c0.188,0.212 0.425,0.42 0.712,0.625c0.287,0.204 0.623,0.401 1.007,0.592c0.384,0.19 0.765,0.377 1.143,0.559c0.378,0.182 0.745,0.358 1.103,0.526c0.358,0.168 0.701,0.332 1.031,0.49c0.33,0.158 0.621,0.331 0.875,0.519c0.253,0.188 0.469,0.36 0.647,0.516c0.178,0.156 0.342,0.271 0.493,0.347c0.151,0.076 0.305,0.12 0.463,0.135c0.158,0.014 0.318,0.021 0.481,0.021c0.163,0 0.238,-0.048 0.224,-0.144" style="fill:none;fill-rule:nonzero;stroke:#000;stroke-width:0.85px;"/><path d="M122.321,52.886l0,-0.328c0,-0 -0.021,0.022 -0.064,0.067c-0.043,0.045 -0.202,0.201 -0.479,0.47c-0.277,0.268 -0.654,0.604 -1.132,1.006c-0.478,0.402 -1.013,0.817 -1.605,1.243c-0.592,0.426 -1.156,0.809 -1.691,1.148c-0.535,0.34 -0.953,0.606 -1.255,0.799c-0.302,0.193 -0.48,0.321 -0.536,0.383c-0.056,0.062 -0.047,0.106 0.027,0.133l0.055,0.02l-0.166,-0.06" style="fill:none;fill-rule:nonzero;stroke:#000;stroke-width:0.85px;"/><path d="M138.201,52.668c-0.02,-0.044 0.004,-0.043 0.073,0.002c0.069,0.045 0.24,0.158 0.514,0.338c0.274,0.18 0.609,0.392 1.004,0.636c0.395,0.244 0.816,0.509 1.262,0.797c0.446,0.288 0.864,0.578 1.254,0.87c0.39,0.292 0.756,0.574 1.099,0.844c0.343,0.271 0.691,0.514 1.044,0.73c0.352,0.216 0.667,0.428 0.942,0.637c0.276,0.209 0.502,0.397 0.678,0.565c0.176,0.168 0.309,0.291 0.397,0.369c0.088,0.079 0.143,0.128 0.163,0.149l0.013,0.012l-0.027,-0.029c-0.045,-0.046 -0.098,-0.106 -0.159,-0.179" style="fill:none;fill-rule:nonzero;stroke:#000;stroke-width:0.85px;"/><path d="M154.051,53.212c0.012,-0.041 -0.001,-0.113 -0.039,-0.217c-0.024,-0.066 -0.051,-0.1 -0.079,-0.103c-0.029,-0.003 -0.093,0.046 -0.194,0.149c-0.1,0.103 -0.292,0.312 -0.576,0.628c-0.284,0.316 -0.677,0.702 -1.18,1.157c-0.503,0.455 -1.044,0.942 -1.623,1.461c-0.578,0.519 -1.092,0.998 -1.54,1.438c-0.448,0.44 -0.812,0.797 -1.091,1.071c-0.279,0.274 -0.471,0.459 -0.577,0.555c-0.106,0.096 -0.152,0.152 -0.139,0.168c0.018,0.022 0.397,-0.117 1.137,-0.418" style="fill:none;fill-rule:nonzero;stroke:#000;stroke-width:0.85px;"/><path d="M98.346,69.031c-0.032,-0.006 -0.109,-0.012 -0.231,-0.018c-0.073,-0.004 -0.114,-0.006 -0.125,-0.006c-0.01,0 -0.005,-0.004 0.015,-0.011c0.02,-0.007 0.07,-0.026 0.151,-0.056c0.081,-0.03 0.331,-0.135 0.752,-0.316c0.421,-0.181 0.921,-0.42 1.501,-0.717c0.58,-0.297 1.198,-0.628 1.855,-0.994c0.657,-0.366 1.253,-0.719 1.788,-1.058c0.535,-0.339 0.996,-0.654 1.383,-0.946c0.387,-0.292 0.726,-0.544 1.017,-0.758c0.292,-0.214 0.592,-0.424 0.901,-0.63c0.309,-0.206 0.651,-0.429 1.026,-0.668c0.375,-0.24 0.754,-0.471 1.136,-0.693c0.382,-0.222 0.744,-0.458 1.085,-0.706c0.341,-0.248 0.697,-0.533 1.068,-0.854c0.371,-0.321 0.74,-0.637 1.107,-0.947c0.368,-0.311 0.72,-0.568 1.057,-0.771c0.337,-0.203 0.633,-0.364 0.89,-0.481c0.257,-0.117 0.414,-0.186 0.472,-0.207c0.081,-0.029 0.022,-0.077 -0.176,-0.145" style="fill:none;fill-rule:nonzero;stroke:#000;stroke-width:0.85px;"/><path d="M83.006,58.282c-0.065,-0.031 -0.142,-0.014 -0.23,0.05c-0.06,0.043 -0.021,0.14 0.115,0.289c0.137,0.149 0.388,0.346 0.754,0.591c0.366,0.245 0.758,0.529 1.178,0.852c0.42,0.323 0.838,0.654 1.254,0.992c0.416,0.338 0.852,0.661 1.309,0.968c0.457,0.307 0.927,0.612 1.411,0.913c0.484,0.301 0.934,0.597 1.351,0.887c0.417,0.29 0.788,0.571 1.114,0.844c0.326,0.273 0.635,0.524 0.927,0.752c0.292,0.228 0.612,0.413 0.959,0.555c0.347,0.142 0.713,0.269 1.096,0.38c0.384,0.111 0.765,0.244 1.145,0.398c0.379,0.154 0.725,0.34 1.037,0.559c0.312,0.219 0.597,0.421 0.856,0.606c0.259,0.185 0.501,0.324 0.726,0.417c0.226,0.093 0.412,0.17 0.558,0.231c0.146,0.061 0.271,0.122 0.374,0.183c0.103,0.061 0.192,0.112 0.266,0.155c0.074,0.042 0.131,0.07 0.171,0.083c0.04,0.013 0.064,0.02 0.073,0.02c0.008,0 0.004,-0.002 -0.013,-0.007c-0.024,-0.008 -0.101,-0.031 -0.23,-0.071" style="fill:none;fill-rule:nonzero;stroke:#000;stroke-width:0.85px;"/><path d="M122.539,76.182c-0.031,-0.042 0.104,-0.156 0.404,-0.343c0.3,-0.187 0.648,-0.388 1.042,-0.604c0.394,-0.216 0.842,-0.472 1.344,-0.768c0.502,-0.296 1.034,-0.619 1.597,-0.971c0.563,-0.351 1.106,-0.696 1.628,-1.035c0.522,-0.339 1.013,-0.656 1.472,-0.951c0.459,-0.296 0.919,-0.596 1.38,-0.901c0.46,-0.305 0.931,-0.628 1.412,-0.969c0.481,-0.341 0.95,-0.686 1.406,-1.035c0.456,-0.348 0.867,-0.667 1.233,-0.956c0.366,-0.289 0.721,-0.568 1.065,-0.838c0.344,-0.27 0.72,-0.525 1.129,-0.764c0.408,-0.24 0.825,-0.467 1.251,-0.681c0.426,-0.214 0.861,-0.459 1.306,-0.735c0.445,-0.275 0.908,-0.591 1.39,-0.948c0.481,-0.356 0.933,-0.672 1.356,-0.945c0.423,-0.274 0.813,-0.501 1.171,-0.681c0.357,-0.18 0.689,-0.367 0.994,-0.559c0.305,-0.192 0.588,-0.398 0.847,-0.617c0.26,-0.219 0.488,-0.407 0.685,-0.563c0.197,-0.156 0.358,-0.272 0.482,-0.348c0.125,-0.076 0.202,-0.119 0.231,-0.131c0.04,-0.016 0.032,-0.009 -0.024,0.021" style="fill:none;fill-rule:nonzero;stroke:#000;stroke-width:0.85px;"/><path d="M98.456,68.92c-0.038,-0.027 -0.021,-0.03 0.048,-0.011c0.07,0.02 0.245,0.069 0.525,0.148c0.28,0.079 0.626,0.201 1.038,0.367c0.412,0.166 0.922,0.339 1.53,0.519c0.607,0.18 1.285,0.345 2.033,0.495c0.748,0.15 1.471,0.29 2.17,0.421c0.699,0.131 1.309,0.274 1.829,0.429c0.52,0.155 0.965,0.303 1.333,0.445c0.368,0.141 0.738,0.271 1.109,0.389c0.371,0.118 0.749,0.222 1.135,0.313c0.386,0.091 0.779,0.178 1.18,0.263c0.401,0.085 0.764,0.176 1.089,0.273c0.325,0.097 0.587,0.195 0.786,0.295c0.199,0.1 0.37,0.197 0.514,0.292c0.144,0.095 0.326,0.186 0.546,0.274c0.22,0.088 0.449,0.169 0.686,0.242c0.237,0.073 0.439,0.146 0.607,0.219c0.168,0.073 0.332,0.147 0.494,0.223c0.162,0.076 0.339,0.142 0.53,0.198c0.191,0.057 0.382,0.099 0.572,0.127c0.19,0.028 0.369,0.047 0.538,0.057c0.168,0.01 0.331,0.028 0.487,0.054c0.156,0.026 0.314,0.057 0.474,0.094c0.16,0.036 0.341,0.064 0.543,0.085c0.202,0.02 0.392,0.033 0.57,0.038c0.178,0.005 0.293,0.011 0.345,0.018l0.033,0.004l-0.063,-0.006c-0.108,-0.012 -0.225,-0.02 -0.352,-0.025" style="fill:none;fill-rule:nonzero;stroke:#000;stroke-width:0.85px;"/><path d="M74.197,52.886c-0.041,-0.018 -0.097,-0.088 -0.168,-0.212c-0.07,-0.124 -0.114,-0.273 -0.132,-0.448c-0.018,-0.175 -0.027,-0.419 -0.028,-0.73c-0,-0.311 -0,-0.659 -0,-1.044l0,-1.127c0,-0.581 0.016,-1.006 0.049,-1.276" style="fill:none;fill-rule:nonzero;stroke:#000;stroke-width:0.85px;"/><path d="M90.253,52.427c-0.061,-0.072 -0.12,-0.181 -0.176,-0.326c-0.056,-0.146 -0.078,-0.344 -0.065,-0.596c0.013,-0.252 0.052,-0.575 0.119,-0.969c0.067,-0.395 0.123,-0.798 0.167,-1.209c0.07,-0.642 0.146,-1.141 0.229,-1.499" style="fill:none;fill-rule:nonzero;stroke:#000;stroke-width:0.85px;"/><path d="M106.396,52.055l0,-2.167c0,-0.728 0.08,-1.497 0.24,-2.306" style="fill:none;fill-rule:nonzero;stroke:#000;stroke-width:0.85px;"/><path d="M122.233,52.339c-0.03,-0.088 -0.056,-0.197 -0.077,-0.326c-0.021,-0.129 -0.031,-0.279 -0.029,-0.45c0.002,-0.171 0.025,-0.421 0.069,-0.75c0.044,-0.329 0.121,-0.74 0.231,-1.233c0.11,-0.493 0.217,-0.987 0.322,-1.481c0.105,-0.494 0.082,-0.712 -0.069,-0.654" style="fill:none;fill-rule:nonzero;stroke:#000;stroke-width:0.85px;"/><path d="M138.267,51.968c-0.1,0.031 -0.199,0.066 -0.297,0.106c-0.098,0.04 -0.16,0.061 -0.187,0.064c-0.027,0.003 -0.04,-0.04 -0.04,-0.129c-0,-0.089 0.007,-0.254 0.021,-0.495c0.014,-0.241 0.011,-0.556 -0.008,-0.946c-0.019,-0.39 -0.086,-0.855 -0.201,-1.395c-0.173,-0.815 -0.163,-1.541 0.031,-2.177" style="fill:none;fill-rule:nonzero;stroke:#000;stroke-width:0.85px;"/><path d="M153.864,52.372c-0.036,0.003 -0.111,0.054 -0.224,0.153c-0.068,0.059 -0.089,0.048 -0.063,-0.033c0.027,-0.081 0.072,-0.265 0.135,-0.551c0.063,-0.286 0.101,-0.609 0.112,-0.967c0.011,-0.358 0.018,-0.79 0.02,-1.294c0.003,-0.747 0.055,-1.597 0.154,-2.55" style="fill:none;fill-rule:nonzero;stroke:#000;stroke-width:0.85px;"/><path d="M82.663,64.392l-0.237,0c-0.064,0 -0.099,-0.005 -0.105,-0.014c-0.005,-0.009 -0.008,-0.02 -0.008,-0.032c-0,-0.012 0.007,-0.036 0.02,-0.071c0.014,-0.035 0.042,-0.075 0.085,-0.119c0.043,-0.044 0.09,-0.085 0.141,-0.124c0.051,-0.039 0.098,-0.075 0.142,-0.106c0.044,-0.032 0.087,-0.059 0.128,-0.081c0.042,-0.022 0.075,-0.04 0.1,-0.052c0.025,-0.012 0.044,-0.021 0.056,-0.026c0.013,-0.005 0.02,0.024 0.023,0.088c0.003,0.064 0.004,0.181 0.004,0.35l0,2.316c0,0.129 0.003,0.229 0.01,0.301c0.007,0.072 0.021,0.126 0.041,0.16c0.029,0.048 0.087,0.018 0.173,-0.09" style="fill:none;fill-rule:nonzero;stroke:#000;stroke-width:0.85px;"/><path d="M82.441,67.502c-0.06,-0.039 -0.133,-0.068 -0.218,-0.087c-0.056,-0.013 -0.042,0.008 0.043,0.063c0.122,0.078 0.585,0.077 1.389,-0.004" style="fill:none;fill-rule:nonzero;stroke:#000;stroke-width:0.85px;"/><path d="M74.666,94.107c-0.081,-0.002 -0.176,-0.001 -0.284,0.002c-0.071,0.002 -0.076,0.037 -0.016,0.104c0.06,0.067 0.202,0.159 0.426,0.275c0.224,0.116 0.466,0.237 0.725,0.362c0.259,0.126 0.522,0.271 0.786,0.438c0.265,0.166 0.556,0.358 0.874,0.574c0.318,0.217 0.681,0.453 1.089,0.71c0.408,0.256 0.813,0.517 1.216,0.782c0.403,0.265 0.793,0.521 1.169,0.767c0.377,0.246 0.746,0.476 1.107,0.689c0.361,0.213 0.673,0.38 0.935,0.501c0.263,0.121 0.446,0.195 0.552,0.222c0.105,0.027 0.164,0.041 0.176,0.041c0.012,0 0.018,0.004 0.018,0.01c0,0.009 0.023,-0.036 0.068,-0.137" style="fill:none;fill-rule:nonzero;stroke:#000;stroke-width:0.85px;"/><path d="M90.743,93.866c-0.064,-0.06 -0.149,-0.104 -0.255,-0.133c-0.106,-0.028 -0.228,-0.012 -0.368,0.049c-0.14,0.061 -0.379,0.234 -0.717,0.519c-0.338,0.285 -0.818,0.689 -1.44,1.21c-0.622,0.522 -1.27,1.047 -1.944,1.577c-0.674,0.53 -1.221,0.943 -1.64,1.241c-0.419,0.298 -0.705,0.514 -0.857,0.647c-0.152,0.134 -0.234,0.229 -0.245,0.287c-0.016,0.08 0.054,0.075 0.208,-0.015" style="fill:none;fill-rule:nonzero;stroke:#000;stroke-width:0.85px;"/><path d="M107.081,93.581c0.004,-0.061 0.003,-0.157 -0.005,-0.287c-0.005,-0.082 -0.008,-0.122 -0.011,-0.12c-0.003,0.002 0.008,0.074 0.033,0.217c0.025,0.143 0.103,0.321 0.235,0.536c0.132,0.215 0.292,0.428 0.48,0.641c0.188,0.212 0.425,0.42 0.712,0.625c0.287,0.204 0.623,0.401 1.007,0.592c0.384,0.19 0.765,0.377 1.143,0.559c0.378,0.182 0.745,0.358 1.103,0.526c0.358,0.168 0.701,0.332 1.031,0.49c0.33,0.158 0.621,0.331 0.875,0.519c0.253,0.188 0.469,0.36 0.647,0.516c0.178,0.156 0.342,0.271 0.493,0.347c0.151,0.076 0.305,0.12 0.463,0.135c0.158,0.014 0.318,0.021 0.481,0.021c0.163,0 0.238,-0.048 0.224,-0.144" style="fill:none;fill-rule:nonzero;stroke:#000;stroke-width:0.85px;"/><path d="M122.767,93.8l0,-0.328c0,-0 -0.021,0.022 -0.064,0.067c-0.043,0.045 -0.202,0.201 -0.479,0.47c-0.277,0.268 -0.654,0.604 -1.132,1.006c-0.478,0.402 -1.013,0.817 -1.605,1.243c-0.592,0.426 -1.156,0.809 -1.691,1.148c-0.535,0.34 -0.953,0.606 -1.255,0.799c-0.302,0.193 -0.48,0.321 -0.536,0.383c-0.056,0.062 -0.047,0.106 0.027,0.133l0.055,0.02l-0.166,-0.06" style="fill:none;fill-rule:nonzero;stroke:#000;stroke-width:0.85px;"/><path d="M138.648,93.582c-0.02,-0.044 0.004,-0.043 0.073,0.002c0.069,0.045 0.24,0.158 0.514,0.338c0.274,0.18 0.609,0.392 1.004,0.636c0.395,0.244 0.816,0.509 1.262,0.797c0.446,0.288 0.864,0.578 1.254,0.87c0.39,0.292 0.756,0.574 1.099,0.844c0.343,0.271 0.691,0.514 1.044,0.73c0.352,0.216 0.667,0.428 0.942,0.637c0.276,0.209 0.502,0.397 0.678,0.565c0.176,0.168 0.309,0.291 0.397,0.369c0.088,0.079 0.143,0.128 0.163,0.149l0.013,0.012l-0.027,-0.029c-0.045,-0.046 -0.098,-0.106 -0.159,-0.179" style="fill:none;fill-rule:nonzero;stroke:#000;stroke-width:0.85px;"/><path d="M154.498,94.126c0.012,-0.041 -0.001,-0.113 -0.039,-0.217c-0.024,-0.066 -0.051,-0.1 -0.079,-0.103c-0.029,-0.003 -0.093,0.046 -0.194,0.149c-0.1,0.103 -0.292,0.312 -0.576,0.628c-0.284,0.316 -0.677,0.702 -1.18,1.157c-0.503,0.455 -1.044,0.942 -1.623,1.461c-0.578,0.519 -1.092,0.998 -1.54,1.438c-0.448,0.44 -0.812,0.797 -1.091,1.071c-0.279,0.274 -0.471,0.459 -0.577,0.555c-0.106,0.096 -0.152,0.152 -0.139,0.168c0.018,0.022 0.397,-0.117 1.137,-0.418" style="fill:none;fill-rule:nonzero;stroke:#000;stroke-width:0.85px;"/><path d="M98.793,109.945c-0.032,-0.006 -0.109,-0.012 -0.231,-0.018c-0.073,-0.004 -0.114,-0.006 -0.125,-0.006c-0.01,0 -0.005,-0.004 0.015,-0.011c0.02,-0.007 0.07,-0.026 0.151,-0.056c0.081,-0.03 0.331,-0.135 0.752,-0.316c0.421,-0.181 0.921,-0.42 1.501,-0.717c0.58,-0.297 1.198,-0.628 1.855,-0.994c0.657,-0.366 1.253,-0.719 1.788,-1.058c0.535,-0.339 0.996,-0.654 1.383,-0.946c0.387,-0.292 0.726,-0.544 1.017,-0.758c0.292,-0.214 0.592,-0.424 0.901,-0.63c0.309,-0.206 0.651,-0.429 1.026,-0.668c0.375,-0.24 0.754,-0.471 1.136,-0.693c0.382,-0.222 0.744,-0.458 1.085,-0.706c0.341,-0.248 0.697,-0.533 1.068,-0.854c0.371,-0.321 0.74,-0.637 1.107,-0.947c0.368,-0.311 0.72,-0.568 1.057,-0.771c0.337,-0.203 0.633,-0.364 0.89,-0.481c0.257,-0.117 0.414,-0.186 0.472,-0.207c0.081,-0.029 0.022,-0.077 -0.176,-0.145" style="fill:none;fill-rule:nonzero;stroke:#000;stroke-width:0.85px;"/><path d="M83.452,99.196c-0.065,-0.031 -0.142,-0.014 -0.23,0.05c-0.06,0.043 -0.021,0.14 0.115,0.289c0.137,0.149 0.388,0.346 0.754,0.591c0.366,0.245 0.758,0.529 1.178,0.852c0.42,0.323 0.838,0.654 1.254,0.992c0.416,0.338 0.852,0.661 1.309,0.968c0.457,0.307 0.927,0.612 1.411,0.913c0.484,0.301 0.934,0.597 1.351,0.887c0.417,0.29 0.788,0.571 1.114,0.844c0.326,0.273 0.635,0.524 0.927,0.752c0.292,0.228 0.612,0.413 0.959,0.555c0.347,0.142 0.713,0.269 1.096,0.38c0.384,0.111 0.765,0.244 1.145,0.398c0.379,0.154 0.725,0.34 1.037,0.559c0.312,0.219 0.597,0.421 0.856,0.606c0.259,0.185 0.501,0.324 0.726,0.417c0.226,0.093 0.412,0.17 0.558,0.231c0.146,0.061 0.271,0.122 0.374,0.183c0.103,0.061 0.192,0.112 0.266,0.155c0.074,0.042 0.131,0.07 0.171,0.083c0.04,0.013 0.064,0.02 0.073,0.02c0.008,0 0.004,-0.002 -0.013,-0.007c-0.024,-0.008 -0.101,-0.031 -0.23,-0.071" style="fill:none;fill-rule:nonzero;stroke:#000;stroke-width:0.85px;"/><path d="M122.986,117.096c-0.031,-0.042 0.104,-0.156 0.404,-0.343c0.3,-0.187 0.648,-0.388 1.042,-0.604c0.394,-0.216 0.842,-0.472 1.344,-0.768c0.502,-0.296 1.034,-0.619 1.597,-0.971c0.563,-0.351 1.106,-0.696 1.628,-1.035c0.522,-0.339 1.013,-0.656 1.472,-0.951c0.459,-0.296 0.919,-0.596 1.38,-0.901c0.46,-0.305 0.931,-0.628 1.412,-0.969c0.481,-0.341 0.95,-0.686 1.406,-1.035c0.456,-0.348 0.867,-0.667 1.233,-0.956c0.366,-0.289 0.721,-0.568 1.065,-0.838c0.344,-0.27 0.72,-0.525 1.129,-0.764c0.408,-0.24 0.825,-0.467 1.251,-0.681c0.426,-0.214 0.861,-0.459 1.306,-0.735c0.445,-0.275 0.908,-0.591 1.39,-0.948c0.481,-0.356 0.933,-0.672 1.356,-0.945c0.423,-0.274 0.813,-0.501 1.171,-0.681c0.357,-0.18 0.689,-0.367 0.994,-0.559c0.305,-0.192 0.588,-0.398 0.847,-0.617c0.26,-0.219 0.488,-0.407 0.685,-0.563c0.197,-0.156 0.358,-0.272 0.482,-0.348c0.125,-0.076 0.202,-0.119 0.231,-0.131c0.04,-0.016 0.032,-0.009 -0.024,0.021" style="fill:none;fill-rule:nonzero;stroke:#000;stroke-width:0.85px;"/><path d="M98.902,109.834c-0.038,-0.027 -0.021,-0.03 0.048,-0.011c0.07,0.02 0.245,0.069 0.525,0.148c0.28,0.079 0.626,0.201 1.038,0.367c0.412,0.166 0.922,0.339 1.53,0.519c0.607,0.18 1.285,0.345 2.033,0.495c0.748,0.15 1.471,0.29 2.17,0.421c0.699,0.131 1.309,0.274 1.829,0.429c0.52,0.155 0.965,0.303 1.333,0.445c0.368,0.141 0.738,0.271 1.109,0.389c0.371,0.118 0.749,0.222 1.135,0.313c0.386,0.091 0.779,0.178 1.18,0.263c0.401,0.085 0.764,0.176 1.089,0.273c0.325,0.097 0.587,0.195 0.786,0.295c0.199,0.1 0.37,0.197 0.514,0.292c0.144,0.095 0.326,0.186 0.546,0.274c0.22,0.088 0.449,0.169 0.686,0.242c0.237,0.073 0.439,0.146 0.607,0.219c0.168,0.073 0.332,0.147 0.494,0.223c0.162,0.076 0.339,0.142 0.53,0.198c0.191,0.057 0.382,0.099 0.572,0.127c0.19,0.028 0.369,0.047 0.538,0.057c0.168,0.01 0.331,0.028 0.487,0.054c0.156,0.026 0.314,0.057 0.474,0.094c0.16,0.036 0.341,0.064 0.543,0.085c0.202,0.02 0.392,0.033 0.57,0.038c0.178,0.005 0.293,0.011 0.345,0.018l0.033,0.004l-0.063,-0.006c-0.108,-0.012 -0.225,-0.02 -0.352,-0.025" style="fill:none;fill-rule:nonzero;stroke:#000;stroke-width:0.85px;"/><path d="M74.644,93.8c-0.041,-0.018 -0.097,-0.088 -0.168,-0.212c-0.07,-0.124 -0.114,-0.273 -0.132,-0.448c-0.018,-0.175 -0.027,-0.419 -0.028,-0.73c-0,-0.311 -0,-0.659 -0,-1.044l0,-1.127c0,-0.581 0.016,-1.006 0.049,-1.276" style="fill:none;fill-rule:nonzero;stroke:#000;stroke-width:0.85px;"/><path d="M90.699,93.341c-0.061,-0.072 -0.12,-0.181 -0.176,-0.326c-0.056,-0.146 -0.078,-0.344 -0.065,-0.596c0.013,-0.252 0.052,-0.575 0.119,-0.969c0.067,-0.395 0.123,-0.798 0.167,-1.209c0.07,-0.642 0.146,-1.141 0.229,-1.499" style="fill:none;fill-rule:nonzero;stroke:#000;stroke-width:0.85px;"/><path d="M106.843,92.969l0,-2.167c0,-0.728 0.08,-1.497 0.24,-2.306" style="fill:none;fill-rule:nonzero;stroke:#000;stroke-width:0.85px;"/><path d="M122.68,93.253c-0.03,-0.088 -0.056,-0.197 -0.077,-0.326c-0.021,-0.129 -0.031,-0.279 -0.029,-0.45c0.002,-0.171 0.025,-0.421 0.069,-0.75c0.044,-0.329 0.121,-0.74 0.231,-1.233c0.11,-0.493 0.217,-0.987 0.322,-1.481c0.105,-0.494 0.082,-0.712 -0.069,-0.654" style="fill:none;fill-rule:nonzero;stroke:#000;stroke-width:0.85px;"/><path d="M138.714,92.882c-0.1,0.031 -0.199,0.066 -0.297,0.106c-0.098,0.04 -0.16,0.061 -0.187,0.064c-0.027,0.003 -0.04,-0.04 -0.04,-0.129c-0,-0.089 0.007,-0.254 0.021,-0.495c0.014,-0.241 0.011,-0.556 -0.008,-0.946c-0.019,-0.39 -0.086,-0.855 -0.201,-1.395c-0.173,-0.815 -0.163,-1.541 0.031,-2.177" style="fill:none;fill-rule:nonzero;stroke:#000;stroke-width:0.85px;"/><path d="M154.311,93.286c-0.036,0.003 -0.111,0.054 -0.224,0.153c-0.068,0.059 -0.089,0.048 -0.063,-0.033c0.027,-0.081 0.072,-0.265 0.135,-0.551c0.063,-0.286 0.101,-0.609 0.112,-0.967c0.011,-0.358 0.018,-0.79 0.02,-1.294c0.003,-0.747 0.055,-1.597 0.154,-2.55" style="fill:none;fill-rule:nonzero;stroke:#000;stroke-width:0.85px;"/><path d="M143.045,107.537c-0.035,-0.06 -0.056,-0.161 -0.063,-0.302c-0.007,-0.141 0.016,-0.265 0.069,-0.372c0.054,-0.107 0.111,-0.202 0.173,-0.286c0.061,-0.084 0.115,-0.151 0.162,-0.201c0.047,-0.05 0.085,-0.08 0.115,-0.092c0.03,-0.011 0.049,0.034 0.057,0.134c0.008,0.101 0.011,0.262 0.009,0.483c-0.002,0.221 -0.018,0.447 -0.049,0.678c-0.03,0.231 -0.055,0.454 -0.073,0.669c-0.018,0.215 -0.027,0.408 -0.027,0.58c-0,0.172 -0,0.314 -0,0.426c0,0.112 0.003,0.191 0.01,0.238l0.005,0.035l-0.015,-0.106" style="fill:none;fill-rule:nonzero;stroke:#000;stroke-width:0.85px;"/><path d="M142.607,110.119c0.003,0 0.281,-0.009 0.832,-0.026" style="fill:none;fill-rule:nonzero;stroke:#000;stroke-width:0.85px;"/><path d="M73.822,132.725c-0.081,-0.002 -0.176,-0.001 -0.284,0.002c-0.071,0.002 -0.076,0.037 -0.016,0.104c0.06,0.067 0.202,0.159 0.426,0.275c0.224,0.116 0.466,0.237 0.725,0.362c0.259,0.126 0.522,0.271 0.786,0.438c0.265,0.166 0.556,0.358 0.874,0.574c0.318,0.217 0.681,0.453 1.089,0.71c0.408,0.256 0.813,0.517 1.216,0.782c0.403,0.265 0.793,0.521 1.169,0.767c0.377,0.246 0.746,0.476 1.107,0.689c0.361,0.213 0.673,0.38 0.935,0.501c0.263,0.121 0.446,0.195 0.552,0.222c0.105,0.027 0.164,0.041 0.176,0.041c0.012,0 0.018,0.004 0.018,0.01c0,0.009 0.023,-0.036 0.068,-0.137" style="fill:none;fill-rule:nonzero;stroke:#000;stroke-width:0.85px;"/><path d="M89.899,132.483c-0.064,-0.06 -0.149,-0.104 -0.255,-0.133c-0.106,-0.028 -0.228,-0.012 -0.368,0.049c-0.14,0.061 -0.379,0.234 -0.717,0.519c-0.338,0.285 -0.818,0.689 -1.44,1.21c-0.622,0.522 -1.27,1.047 -1.944,1.577c-0.674,0.53 -1.221,0.943 -1.64,1.241c-0.419,0.298 -0.705,0.514 -0.857,0.647c-0.152,0.134 -0.234,0.229 -0.245,0.287c-0.016,0.08 0.054,0.075 0.208,-0.015" style="fill:none;fill-rule:nonzero;stroke:#000;stroke-width:0.85px;"/><path d="M106.237,132.199c0.004,-0.061 0.003,-0.157 -0.005,-0.287c-0.005,-0.082 -0.008,-0.122 -0.011,-0.12c-0.003,0.002 0.008,0.074 0.033,0.217c0.025,0.143 0.103,0.321 0.235,0.536c0.132,0.215 0.292,0.428 0.48,0.641c0.188,0.212 0.425,0.42 0.712,0.625c0.287,0.204 0.623,0.401 1.007,0.592c0.384,0.19 0.765,0.377 1.143,0.559c0.378,0.182 0.745,0.358 1.103,0.526c0.358,0.168 0.701,0.332 1.031,0.49c0.33,0.158 0.621,0.331 0.875,0.519c0.253,0.188 0.469,0.36 0.647,0.516c0.178,0.156 0.342,0.271 0.493,0.347c0.151,0.076 0.305,0.12 0.463,0.135c0.158,0.014 0.318,0.021 0.481,0.021c0.163,0 0.238,-0.048 0.224,-0.144" style="fill:none;fill-rule:nonzero;stroke:#000;stroke-width:0.85px;"/><path d="M121.923,132.418l0,-0.328c0,-0 -0.021,0.022 -0.064,0.067c-0.043,0.045 -0.202,0.201 -0.479,0.47c-0.277,0.268 -0.654,0.604 -1.132,1.006c-0.478,0.402 -1.013,0.817 -1.605,1.243c-0.592,0.426 -1.156,0.809 -1.691,1.148c-0.535,0.34 -0.953,0.606 -1.255,0.799c-0.302,0.193 -0.48,0.321 -0.536,0.383c-0.056,0.062 -0.047,0.106 0.027,0.133l0.055,0.02l-0.166,-0.06" style="fill:none;fill-rule:nonzero;stroke:#000;stroke-width:0.85px;"/><path d="M137.804,132.199c-0.02,-0.044 0.004,-0.043 0.073,0.002c0.069,0.045 0.24,0.158 0.514,0.338c0.274,0.18 0.609,0.392 1.004,0.636c0.395,0.244 0.816,0.509 1.262,0.797c0.446,0.288 0.864,0.578 1.254,0.87c0.39,0.292 0.756,0.574 1.099,0.844c0.343,0.271 0.691,0.514 1.044,0.73c0.352,0.216 0.667,0.428 0.942,0.637c0.276,0.209 0.502,0.397 0.678,0.565c0.176,0.168 0.309,0.291 0.397,0.369c0.088,0.079 0.143,0.128 0.163,0.149l0.013,0.012l-0.027,-0.029c-0.045,-0.046 -0.098,-0.106 -0.159,-0.179" style="fill:none;fill-rule:nonzero;stroke:#000;stroke-width:0.85px;"/><path d="M153.654,132.743c0.012,-0.041 -0.001,-0.113 -0.039,-0.217c-0.024,-0.066 -0.051,-0.1 -0.079,-0.103c-0.029,-0.003 -0.093,0.046 -0.194,0.149c-0.1,0.103 -0.292,0.312 -0.576,0.628c-0.284,0.316 -0.677,0.702 -1.18,1.157c-0.503,0.455 -1.044,0.942 -1.623,1.461c-0.578,0.519 -1.092,0.998 -1.54,1.438c-0.448,0.44 -0.812,0.797 -1.091,1.071c-0.279,0.274 -0.471,0.459 -0.577,0.555c-0.106,0.096 -0.152,0.152 -0.139,0.168c0.018,0.022 0.397,-0.117 1.137,-0.418" style="fill:none;fill-rule:nonzero;stroke:#000;stroke-width:0.85px;"/><path d="M97.949,148.563c-0.032,-0.006 -0.109,-0.012 -0.231,-0.018c-0.073,-0.004 -0.114,-0.006 -0.125,-0.006c-0.01,0 -0.005,-0.004 0.015,-0.011c0.02,-0.007 0.07,-0.026 0.151,-0.056c0.081,-0.03 0.331,-0.135 0.752,-0.316c0.421,-0.181 0.921,-0.42 1.501,-0.717c0.58,-0.297 1.198,-0.628 1.855,-0.994c0.657,-0.366 1.253,-0.719 1.788,-1.058c0.535,-0.339 0.996,-0.654 1.383,-0.946c0.387,-0.292 0.726,-0.544 1.017,-0.758c0.292,-0.214 0.592,-0.424 0.901,-0.63c0.309,-0.206 0.651,-0.429 1.026,-0.668c0.375,-0.24 0.754,-0.471 1.136,-0.693c0.382,-0.222 0.744,-0.458 1.085,-0.706c0.341,-0.248 0.697,-0.533 1.068,-0.854c0.371,-0.321 0.74,-0.637 1.107,-0.947c0.368,-0.311 0.72,-0.568 1.057,-0.771c0.337,-0.203 0.633,-0.364 0.89,-0.481c0.257,-0.117 0.414,-0.186 0.472,-0.207c0.081,-0.029 0.022,-0.077 -0.176,-0.145" style="fill:none;fill-rule:nonzero;stroke:#000;stroke-width:0.85px;"/><path d="M82.608,137.813c-0.065,-0.031 -0.142,-0.014 -0.23,0.05c-0.06,0.043 -0.021,0.14 0.115,0.289c0.137,0.149 0.388,0.346 0.754,0.591c0.366,0.245 0.758,0.529 1.178,0.852c0.42,0.323 0.838,0.654 1.254,0.992c0.416,0.338 0.852,0.661 1.309,0.968c0.457,0.307 0.927,0.612 1.411,0.913c0.484,0.301 0.934,0.597 1.351,0.887c0.417,0.29 0.788,0.571 1.114,0.844c0.326,0.273 0.635,0.524 0.927,0.752c0.292,0.228 0.612,0.413 0.959,0.555c0.347,0.142 0.713,0.269 1.096,0.38c0.384,0.111 0.765,0.244 1.145,0.398c0.379,0.154 0.725,0.34 1.037,0.559c0.312,0.219 0.597,0.421 0.856,0.606c0.259,0.185 0.501,0.324 0.726,0.417c0.226,0.093 0.412,0.17 0.558,0.231c0.146,0.061 0.271,0.122 0.374,0.183c0.103,0.061 0.192,0.112 0.266,0.155c0.074,0.042 0.131,0.07 0.171,0.083c0.04,0.013 0.064,0.02 0.073,0.02c0.008,0 0.004,-0.002 -0.013,-0.007c-0.024,-0.008 -0.101,-0.031 -0.23,-0.071" style="fill:none;fill-rule:nonzero;stroke:#000;stroke-width:0.85px;"/><path d="M122.142,155.714c-0.031,-0.042 0.104,-0.156 0.404,-0.343c0.3,-0.187 0.648,-0.388 1.042,-0.604c0.394,-0.216 0.842,-0.472 1.344,-0.768c0.502,-0.296 1.034,-0.619 1.597,-0.971c0.563,-0.351 1.106,-0.696 1.628,-1.035c0.522,-0.339 1.013,-0.656 1.472,-0.951c0.459,-0.296 0.919,-0.596 1.38,-0.901c0.46,-0.305 0.931,-0.628 1.412,-0.969c0.481,-0.341 0.95,-0.686 1.406,-1.035c0.456,-0.348 0.867,-0.667 1.233,-0.956c0.366,-0.289 0.721,-0.568 1.065,-0.838c0.344,-0.27 0.72,-0.525 1.129,-0.764c0.408,-0.24 0.825,-0.467 1.251,-0.681c0.426,-0.214 0.861,-0.459 1.306,-0.735c0.445,-0.275 0.908,-0.591 1.39,-0.948c0.481,-0.356 0.933,-0.672 1.356,-0.945c0.423,-0.274 0.813,-0.501 1.171,-0.681c0.357,-0.18 0.689,-0.367 0.994,-0.559c0.305,-0.192 0.588,-0.398 0.847,-0.617c0.26,-0.219 0.488,-0.407 0.685,-0.563c0.197,-0.156 0.358,-0.272 0.482,-0.348c0.125,-0.076 0.202,-0.119 0.231,-0.131c0.04,-0.016 0.032,-0.009 -0.024,0.021" style="fill:none;fill-rule:nonzero;stroke:#000;stroke-width:0.85px;"/><path d="M98.058,148.451c-0.038,-0.027 -0.021,-0.03 0.048,-0.011c0.07,0.02 0.245,0.069 0.525,0.148c0.28,0.079 0.626,0.201 1.038,0.367c0.412,0.166 0.922,0.339 1.53,0.519c0.607,0.18 1.285,0.345 2.033,0.495c0.748,0.15 1.471,0.29 2.17,0.421c0.699,0.131 1.309,0.274 1.829,0.429c0.52,0.155 0.965,0.303 1.333,0.445c0.368,0.141 0.738,0.271 1.109,0.389c0.371,0.118 0.749,0.222 1.135,0.313c0.386,0.091 0.779,0.178 1.18,0.263c0.401,0.085 0.764,0.176 1.089,0.273c0.325,0.097 0.587,0.195 0.786,0.295c0.199,0.1 0.37,0.197 0.514,0.292c0.144,0.095 0.326,0.186 0.546,0.274c0.22,0.088 0.449,0.169 0.686,0.242c0.237,0.073 0.439,0.146 0.607,0.219c0.168,0.073 0.332,0.147 0.494,0.223c0.162,0.076 0.339,0.142 0.53,0.198c0.191,0.057 0.382,0.099 0.572,0.127c0.19,0.028 0.369,0.047 0.538,0.057c0.168,0.01 0.331,0.028 0.487,0.054c0.156,0.026 0.314,0.057 0.474,0.094c0.16,0.036 0.341,0.064 0.543,0.085c0.202,0.02 0.392,0.033 0.57,0.038c0.178,0.005 0.293,0.011 0.345,0.018l0.033,0.004l-0.063,-0.006c-0.108,-0.012 -0.225,-0.02 -0.352,-0.025" style="fill:none;fill-rule:nonzero;stroke:#000;stroke-width:0.85px;"/><path d="M73.8,132.418c-0.041,-0.018 -0.097,-0.088 -0.168,-0.212c-0.07,-0.124 -0.114,-0.273 -0.132,-0.448c-0.018,-0.175 -0.027,-0.419 -0.028,-0.73c-0,-0.311 -0,-0.659 -0,-1.044l0,-1.127c0,-0.581 0.016,-1.006 0.049,-1.276" style="fill:none;fill-rule:nonzero;stroke:#000;stroke-width:0.85px;"/><path d="M89.856,131.958c-0.061,-0.072 -0.12,-0.181 -0.176,-0.326c-0.056,-0.146 -0.078,-0.344 -0.065,-0.596c0.013,-0.252 0.052,-0.575 0.119,-0.969c0.067,-0.395 0.123,-0.798 0.167,-1.209c0.07,-0.642 0.146,-1.141 0.229,-1.499" style="fill:none;fill-rule:nonzero;stroke:#000;stroke-width:0.85px;"/><path d="M105.999,131.586l0,-2.167c0,-0.728 0.08,-1.497 0.24,-2.306" style="fill:none;fill-rule:nonzero;stroke:#000;stroke-width:0.85px;"/><path d="M121.836,131.871c-0.03,-0.088 -0.056,-0.197 -0.077,-0.326c-0.021,-0.129 -0.031,-0.279 -0.029,-0.45c0.002,-0.171 0.025,-0.421 0.069,-0.75c0.044,-0.329 0.121,-0.74 0.231,-1.233c0.11,-0.493 0.217,-0.987 0.322,-1.481c0.105,-0.494 0.082,-0.712 -0.069,-0.654" style="fill:none;fill-rule:nonzero;stroke:#000;stroke-width:0.85px;"/><path d="M137.87,131.499c-0.1,0.031 -0.199,0.066 -0.297,0.106c-0.098,0.04 -0.16,0.061 -0.187,0.064c-0.027,0.003 -0.04,-0.04 -0.04,-0.129c-0,-0.089 0.007,-0.254 0.021,-0.495c0.014,-0.241 0.011,-0.556 -0.008,-0.946c-0.019,-0.39 -0.086,-0.855 -0.201,-1.395c-0.173,-0.815 -0.163,-1.541 0.031,-2.177" style="fill:none;fill-rule:nonzero;stroke:#000;stroke-width:0.85px;"/><path d="M153.467,131.903c-0.036,0.003 -0.111,0.054 -0.224,0.153c-0.068,0.059 -0.089,0.048 -0.063,-0.033c0.027,-0.081 0.072,-0.265 0.135,-0.551c0.063,-0.286 0.101,-0.609 0.112,-0.967c0.011,-0.358 0.018,-0.79 0.02,-1.294c0.003,-0.747 0.055,-1.597 0.154,-2.55" style="fill:none;fill-rule:nonzero;stroke:#000;stroke-width:0.85px;"/><path d="M110.049,144.114c-0.024,-0.014 -0.079,-0.088 -0.166,-0.223c-0.05,-0.078 -0.079,-0.136 -0.087,-0.175c-0.008,-0.039 -0.011,-0.079 -0.009,-0.12c0.002,-0.041 0.021,-0.083 0.056,-0.127c0.035,-0.044 0.086,-0.087 0.153,-0.131c0.067,-0.044 0.135,-0.085 0.203,-0.124c0.068,-0.039 0.132,-0.07 0.191,-0.093c0.059,-0.023 0.107,-0.037 0.144,-0.042c0.037,-0.005 0.06,0.018 0.068,0.07c0.008,0.052 0.013,0.168 0.013,0.346c0,0.178 -0.007,0.379 -0.02,0.602c-0.014,0.223 -0.037,0.444 -0.071,0.663c-0.034,0.219 -0.059,0.42 -0.074,0.601c-0.015,0.182 -0.024,0.341 -0.027,0.479c-0.003,0.138 -0.004,0.252 -0.004,0.344l0,0.321c0,0.016 0.026,0.016 0.078,-0.001" style="fill:none;fill-rule:nonzero;stroke:#000;stroke-width:0.85px;"/><path d="M109.829,146.942c-0.005,-0.08 -0.002,-0.152 0.008,-0.218c0.007,-0.044 0.029,-0.066 0.067,-0.066c0.038,0 0.102,-0 0.195,-0c0.132,-0 0.456,0.005 0.971,0.015" style="fill:none;fill-rule:nonzero;stroke:#000;stroke-width:0.85px;"/><path d="M108.751,65.272c0.004,-0.059 0.022,-0.115 0.053,-0.169c0.032,-0.054 0.068,-0.096 0.109,-0.127c0.041,-0.031 0.091,-0.049 0.15,-0.055c0.059,-0.006 0.13,-0.004 0.213,0.005c0.083,0.009 0.17,0.048 0.261,0.117c0.091,0.069 0.182,0.166 0.273,0.291c0.091,0.125 0.188,0.271 0.291,0.436c0.103,0.165 0.23,0.316 0.381,0.453c0.151,0.137 0.341,0.229 0.569,0.276c0.228,0.047 0.477,0.051 0.748,0.012c0.27,-0.039 0.533,-0.129 0.789,-0.269c0.256,-0.14 0.49,-0.323 0.703,-0.548c0.213,-0.225 0.369,-0.478 0.466,-0.758c0.141,-0.405 0.049,-0.748 -0.277,-1.027" style="fill:none;fill-rule:nonzero;stroke:#000;stroke-width:0.85px;"/><path d="M111.493,63.969c-0.035,0.019 -0.068,0.082 -0.097,0.189c-0.029,0.107 -0.045,0.291 -0.046,0.551c-0.002,0.26 0.012,0.569 0.042,0.927c0.03,0.358 0.071,0.706 0.124,1.047c0.053,0.34 0.105,0.638 0.155,0.893c0.05,0.255 0.083,0.362 0.099,0.321" style="fill:none;fill-rule:nonzero;stroke:#000;stroke-width:0.85px;"/><path d="M141.335,67.284c0.003,-0.078 0.016,-0.161 0.039,-0.25c0.022,-0.089 0.051,-0.155 0.085,-0.2c0.034,-0.045 0.08,-0.081 0.138,-0.109c0.058,-0.028 0.133,-0.053 0.225,-0.074c0.093,-0.022 0.179,-0.034 0.259,-0.037c0.08,-0.003 0.143,0.028 0.189,0.092c0.046,0.064 0.081,0.195 0.106,0.392c0.024,0.197 0.059,0.419 0.105,0.665c0.046,0.247 0.132,0.466 0.258,0.658c0.126,0.192 0.315,0.317 0.566,0.376c0.251,0.059 0.532,0.063 0.84,0.011c0.309,-0.051 0.621,-0.135 0.935,-0.25c0.315,-0.116 0.615,-0.242 0.902,-0.379c0.287,-0.137 0.517,-0.281 0.692,-0.433c0.25,-0.217 0.282,-0.53 0.094,-0.937" style="fill:none;fill-rule:nonzero;stroke:#000;stroke-width:0.85px;"/><path d="M144.561,65.677c-0.004,0.01 -0.028,0.141 -0.071,0.391c-0.043,0.25 -0.097,0.642 -0.162,1.177c-0.065,0.535 -0.107,1.053 -0.127,1.557c-0.02,0.503 -0.005,0.88 0.044,1.129c0.049,0.249 0.094,0.4 0.135,0.452c0.057,0.072 0.103,0.043 0.138,-0.085" style="fill:none;fill-rule:nonzero;stroke:#000;stroke-width:0.85px;"/><path d="M81.435,106.389c-0.057,-0.044 -0.111,-0.136 -0.161,-0.277c-0.032,-0.09 -0.013,-0.177 0.056,-0.259c0.069,-0.082 0.176,-0.155 0.321,-0.217c0.145,-0.062 0.287,-0.103 0.426,-0.12c0.139,-0.018 0.26,-0.001 0.363,0.05c0.103,0.051 0.181,0.182 0.235,0.392c0.054,0.21 0.129,0.461 0.224,0.753c0.096,0.292 0.265,0.552 0.508,0.778c0.243,0.227 0.555,0.357 0.936,0.391c0.381,0.034 0.755,-0.034 1.123,-0.205c0.368,-0.171 0.649,-0.37 0.844,-0.598c0.195,-0.228 0.307,-0.381 0.336,-0.458c0.042,-0.111 -0.013,-0.247 -0.165,-0.409" style="fill:none;fill-rule:nonzero;stroke:#000;stroke-width:0.85px;"/><path d="M84.833,105.083c-0.03,0.027 -0.062,0.197 -0.096,0.511c-0.034,0.313 -0.053,0.736 -0.056,1.268c-0.003,0.532 -0.004,1.004 -0.003,1.415c0.001,0.412 0.003,0.663 0.005,0.755l0.002,0.068l-0.005,-0.205" style="fill:none;fill-rule:nonzero;stroke:#000;stroke-width:0.85px;"/><path d="M110.246,105.679c0,-0.053 0.017,-0.119 0.05,-0.197c0.034,-0.079 0.118,-0.148 0.254,-0.208c0.136,-0.06 0.275,-0.113 0.418,-0.159c0.143,-0.046 0.257,-0.073 0.342,-0.082c0.085,-0.009 0.141,0.048 0.167,0.17c0.027,0.122 0.068,0.333 0.124,0.63c0.056,0.298 0.184,0.597 0.384,0.897c0.2,0.301 0.458,0.518 0.773,0.652c0.315,0.134 0.661,0.147 1.036,0.039c0.375,-0.108 0.742,-0.288 1.1,-0.54c0.358,-0.252 0.66,-0.507 0.906,-0.765c0.246,-0.258 0.415,-0.489 0.508,-0.695l0.07,-0.155l-0.209,0.464" style="fill:none;fill-rule:nonzero;stroke:#000;stroke-width:0.85px;"/><path d="M114.202,104.364c-0.073,0.027 -0.136,0.154 -0.188,0.379c-0.052,0.225 -0.086,0.578 -0.1,1.058c-0.014,0.48 -0.022,0.953 -0.024,1.418c-0.003,0.74 -0.003,1.28 -0.002,1.62" style="fill:none;fill-rule:nonzero;stroke:#000;stroke-width:0.85px;"/><path d="M81.005,145.434c-0.041,-0.056 -0.075,-0.138 -0.102,-0.245c-0.018,-0.07 -0.007,-0.13 0.031,-0.181c0.039,-0.051 0.114,-0.108 0.225,-0.172c0.111,-0.063 0.246,-0.122 0.403,-0.177c0.157,-0.054 0.307,-0.091 0.45,-0.11c0.142,-0.019 0.264,0.006 0.366,0.075c0.101,0.069 0.196,0.223 0.283,0.463c0.087,0.24 0.202,0.521 0.344,0.844c0.142,0.322 0.344,0.597 0.606,0.825c0.262,0.228 0.578,0.358 0.947,0.391c0.369,0.033 0.756,-0.052 1.162,-0.255c0.6,-0.3 0.984,-0.748 1.152,-1.346" style="fill:none;fill-rule:nonzero;stroke:#000;stroke-width:0.85px;"/><path d="M84.878,144.336c-0.016,0.031 -0.029,0.148 -0.04,0.352c-0.011,0.203 -0.01,0.53 0.003,0.979c0.013,0.45 0.023,0.897 0.03,1.343c0.011,0.754 0.037,1.22 0.076,1.4" style="fill:none;fill-rule:nonzero;stroke:#000;stroke-width:0.85px;"/><path d="M137.929,147.54c-0.007,-0.081 -0.016,-0.18 -0.027,-0.297c-0.011,-0.117 -0.006,-0.21 0.016,-0.277c0.022,-0.067 0.079,-0.116 0.17,-0.145c0.092,-0.029 0.193,-0.041 0.304,-0.035c0.111,0.006 0.221,0.075 0.329,0.206c0.109,0.132 0.216,0.314 0.323,0.548c0.106,0.234 0.224,0.451 0.354,0.652c0.129,0.201 0.319,0.344 0.567,0.428c0.249,0.084 0.576,0.087 0.983,0.01c0.406,-0.077 0.79,-0.209 1.15,-0.396c0.361,-0.187 0.643,-0.367 0.847,-0.542c0.204,-0.175 0.328,-0.289 0.37,-0.344c0.061,-0.079 0.051,-0.204 -0.03,-0.375" style="fill:none;fill-rule:nonzero;stroke:#000;stroke-width:0.85px;"/><path d="M141.279,146.101c-0.003,0.025 -0.04,0.168 -0.111,0.429c-0.071,0.261 -0.16,0.614 -0.268,1.059c-0.108,0.445 -0.171,0.862 -0.189,1.251c-0.018,0.39 0.011,0.702 0.085,0.936l0.056,0.176l-0.169,-0.527" style="fill:none;fill-rule:nonzero;stroke:#000;stroke-width:0.85px;"/><path d="M46.602,59.017c-0.009,-0.003 0.033,0 0.127,0.008c0.094,0.008 0.329,0.029 0.704,0.063c0.376,0.034 0.866,0.053 1.472,0.058c0.606,0.005 1.257,0.006 1.954,0.002c0.697,-0.004 1.316,-0.011 1.859,-0.02l0.407,-0.007l-1.221,0.021" style="fill:none;fill-rule:nonzero;stroke:#000;stroke-width:0.85px;"/><path d="M46.621,62.468c0.014,0.022 0.236,0.041 0.665,0.056c0.429,0.015 0.964,0.023 1.606,0.023l2.077,0c1.197,-0 1.943,-0.115 2.239,-0.346" style="fill:none;fill-rule:nonzero;stroke:#000;stroke-width:0.85px;"/><path d="M11.226,56.474c-0.063,-0.032 -0.133,-0.032 -0.21,0c-0.077,0.032 -0.123,0.16 -0.139,0.383c-0.016,0.223 -0.023,0.568 -0.019,1.035c0.004,0.467 0.021,1.072 0.051,1.815c0.03,0.743 0.048,1.506 0.053,2.287c0.005,0.781 0.008,1.501 0.008,2.159c0,0.658 0.001,1.237 0.003,1.737c0.002,0.499 0.021,0.862 0.057,1.089c0.036,0.226 0.074,0.352 0.113,0.379c0.055,0.036 0.06,-0.036 0.013,-0.218" style="fill:none;fill-rule:nonzero;stroke:#000;stroke-width:0.85px;"/><path d="M16.747,60.713c0,-0.078 -0.001,-0.16 -0.003,-0.249c-0.002,-0.088 -0.011,-0.159 -0.028,-0.212c-0.017,-0.053 -0.045,-0.099 -0.083,-0.137c-0.038,-0.038 -0.107,-0.06 -0.207,-0.065c-0.1,-0.005 -0.247,0.026 -0.441,0.093c-0.194,0.068 -0.413,0.216 -0.658,0.445c-0.245,0.229 -0.44,0.503 -0.586,0.823c-0.146,0.32 -0.175,0.644 -0.087,0.974c0.088,0.33 0.331,0.598 0.729,0.806c0.398,0.207 0.845,0.33 1.341,0.367c0.496,0.037 0.964,-0.039 1.404,-0.23c0.44,-0.191 0.774,-0.457 1.002,-0.798c0.228,-0.342 0.356,-0.725 0.385,-1.151c0.028,-0.425 -0.026,-0.801 -0.162,-1.128c-0.137,-0.327 -0.312,-0.535 -0.525,-0.625c-0.214,-0.09 -0.35,-0.069 -0.409,0.062" style="fill:none;fill-rule:nonzero;stroke:#000;stroke-width:0.85px;"/><path d="M24.536,60.023l-0.391,0c-0.027,0 -0.047,0.001 -0.061,0.003c-0.014,0.002 -0.024,0.008 -0.03,0.019c-0.007,0.011 0,0.016 0.02,0.017c0.02,0 0.096,-0.018 0.227,-0.055c0.132,-0.037 0.288,-0.12 0.469,-0.249c0.181,-0.129 0.351,-0.262 0.51,-0.398c0.159,-0.136 0.291,-0.265 0.396,-0.386c0.105,-0.121 0.185,-0.224 0.24,-0.309c0.055,-0.085 0.088,-0.143 0.1,-0.173c0.012,-0.03 0.018,-0.046 0.018,-0.046c0,-0.001 -0.005,0.015 -0.015,0.046c-0.01,0.031 -0.02,0.082 -0.029,0.153c-0.009,0.071 -0.03,0.172 -0.064,0.303c-0.034,0.131 -0.083,0.307 -0.148,0.529c-0.065,0.222 -0.131,0.496 -0.2,0.823c-0.068,0.327 -0.123,0.692 -0.163,1.096c-0.04,0.403 -0.07,0.788 -0.088,1.155c-0.018,0.367 -0.03,0.657 -0.035,0.869c-0.005,0.212 -0.007,0.346 -0.007,0.401l-0,0.073l0,-0.067c0,-0.052 0.043,-0.138 0.129,-0.257" style="fill:none;fill-rule:nonzero;stroke:#000;stroke-width:0.85px;"/><path d="M23.747,64.381c0.046,-0.029 0.255,-0.049 0.626,-0.061c0.371,-0.012 0.824,-0.014 1.36,-0.006c0.811,0.012 1.551,0.073 2.219,0.183" style="fill:none;fill-rule:nonzero;stroke:#000;stroke-width:0.85px;"/><path d="M29.522,55.513c-0.073,-0.043 -0.164,-0.075 -0.274,-0.095c-0.072,-0.013 -0.074,0.085 -0.006,0.295c0.069,0.21 0.233,0.492 0.495,0.847c0.261,0.354 0.568,0.7 0.92,1.037c0.352,0.337 0.734,0.665 1.144,0.984c0.41,0.32 0.792,0.672 1.145,1.057c0.353,0.385 0.598,0.787 0.736,1.205c0.138,0.418 0.185,0.832 0.14,1.242c-0.044,0.41 -0.145,0.813 -0.302,1.208c-0.157,0.395 -0.331,0.781 -0.52,1.159c-0.189,0.378 -0.394,0.713 -0.615,1.003c-0.22,0.291 -0.428,0.528 -0.623,0.712c-0.195,0.184 -0.329,0.334 -0.402,0.451c-0.106,0.17 -0.113,0.333 -0.021,0.489" style="fill:none;fill-rule:nonzero;stroke:#000;stroke-width:0.85px;"/><path d="M10.418,97.962c-0,0.019 0.001,0.233 0.003,0.641c0.002,0.408 0.016,0.899 0.041,1.472c0.025,0.573 0.075,1.194 0.15,1.863c0.075,0.669 0.158,1.335 0.251,1.997c0.092,0.662 0.159,1.289 0.201,1.881c0.041,0.592 0.074,1.049 0.099,1.369c0.024,0.32 0.038,0.516 0.041,0.586c0.003,0.071 0.002,0.096 -0.001,0.075c-0.006,-0.03 -0.023,-0.124 -0.053,-0.283" style="fill:none;fill-rule:nonzero;stroke:#000;stroke-width:0.85px;"/><path d="M15.249,100.841l-0.393,0l0.006,0c0.003,0 0.051,-0.012 0.144,-0.035c0.093,-0.023 0.211,-0.082 0.353,-0.176c0.143,-0.094 0.269,-0.19 0.38,-0.288c0.111,-0.098 0.218,-0.203 0.322,-0.314c0.104,-0.111 0.188,-0.212 0.253,-0.301c0.065,-0.089 0.111,-0.157 0.139,-0.205c0.028,-0.048 0.044,-0.076 0.049,-0.086c0.005,-0.01 0.007,-0.015 0.007,-0.015c0,-0 -0.001,0.023 -0.003,0.068c-0.002,0.045 -0.018,0.126 -0.047,0.242c-0.029,0.116 -0.062,0.263 -0.097,0.44c-0.035,0.177 -0.071,0.394 -0.108,0.649c-0.037,0.255 -0.075,0.551 -0.115,0.885c-0.039,0.335 -0.073,0.661 -0.1,0.979c-0.027,0.318 -0.051,0.587 -0.073,0.807c-0.022,0.22 -0.048,0.409 -0.078,0.567c-0.03,0.158 -0.064,0.293 -0.101,0.406c-0.037,0.113 -0.067,0.196 -0.089,0.249c-0.022,0.053 -0.039,0.088 -0.051,0.106c-0.011,0.018 -0.018,0.032 -0.021,0.041c-0.002,0.009 -0.005,0.019 -0.007,0.03c-0.002,0.011 -0.005,0.019 -0.01,0.023c-0.005,0.005 -0.007,0.007 -0.007,0.007c-0,0 -0,0.001 -0,0.003l0,0.187c0,0.012 0.112,-0.08 0.336,-0.276" style="fill:none;fill-rule:nonzero;stroke:#000;stroke-width:0.85px;"/><path d="M14.815,105.416c0.032,-0.026 0.136,-0.037 0.312,-0.034c0.176,0.004 0.428,0.019 0.756,0.048c0.482,0.041 1.098,0.06 1.847,0.057" style="fill:none;fill-rule:nonzero;stroke:#000;stroke-width:0.85px;"/><path d="M24.024,101.077c-0.03,-0.08 -0.073,-0.159 -0.128,-0.235c-0.055,-0.076 -0.116,-0.13 -0.181,-0.162c-0.065,-0.032 -0.143,-0.052 -0.234,-0.061c-0.091,-0.009 -0.197,0.001 -0.318,0.031c-0.121,0.03 -0.278,0.14 -0.47,0.331c-0.192,0.19 -0.389,0.462 -0.59,0.814c-0.201,0.352 -0.334,0.729 -0.399,1.133c-0.065,0.403 -0.005,0.755 0.182,1.057c0.186,0.301 0.477,0.512 0.873,0.633c0.396,0.121 0.828,0.157 1.298,0.109c0.469,-0.048 0.898,-0.174 1.284,-0.378c0.387,-0.204 0.688,-0.451 0.905,-0.741c0.217,-0.29 0.326,-0.624 0.329,-1.002c0.003,-0.378 -0.166,-0.733 -0.507,-1.065c-0.504,-0.49 -1.068,-0.712 -1.692,-0.665" style="fill:none;fill-rule:nonzero;stroke:#000;stroke-width:0.85px;"/><path d="M28.243,97.173c-0.068,-0.025 -0.137,-0.047 -0.207,-0.068c-0.07,-0.021 -0.1,0.002 -0.09,0.068c0.01,0.066 0.108,0.186 0.293,0.36c0.186,0.174 0.433,0.386 0.743,0.635c0.31,0.249 0.67,0.532 1.08,0.847c0.41,0.315 0.84,0.655 1.29,1.02c0.45,0.365 0.837,0.709 1.16,1.031c0.323,0.322 0.555,0.599 0.693,0.83c0.139,0.231 0.188,0.441 0.149,0.63c-0.039,0.189 -0.169,0.388 -0.39,0.598c-0.221,0.209 -0.434,0.435 -0.64,0.676c-0.205,0.242 -0.399,0.51 -0.582,0.807c-0.182,0.296 -0.366,0.606 -0.551,0.929c-0.185,0.323 -0.408,0.683 -0.669,1.079c-0.261,0.396 -0.519,0.781 -0.776,1.154c-0.257,0.373 -0.473,0.672 -0.649,0.899c-0.176,0.227 -0.271,0.348 -0.285,0.366l-0.006,0.008l0.039,-0.042c0.052,-0.058 0.215,-0.239 0.489,-0.544" style="fill:none;fill-rule:nonzero;stroke:#000;stroke-width:0.85px;"/><path d="M46.937,100.979c-0.045,-0.036 -0.097,-0.078 -0.157,-0.128c-0.039,-0.033 -0.019,-0.049 0.061,-0.049c0.08,-0 0.309,-0 0.689,-0l3.278,0c1.055,0 1.691,-0.101 1.908,-0.302" style="fill:none;fill-rule:nonzero;stroke:#000;stroke-width:0.85px;"/><path d="M46.799,103.838c0.026,-0.014 0.185,-0.025 0.479,-0.031c0.294,-0.006 0.723,-0.01 1.288,-0.012c0.831,-0.003 1.888,-0.048 3.172,-0.135" style="fill:none;fill-rule:nonzero;stroke:#000;stroke-width:0.85px;"/><path d="M46.74,138.78c-0.06,-0.02 -0.135,-0.053 -0.226,-0.099c-0.091,-0.046 -0.133,-0.071 -0.126,-0.074c0.007,-0.003 0.133,-0.001 0.379,0.007c0.246,0.008 0.591,0.03 1.035,0.067c0.444,0.036 0.921,0.068 1.43,0.095c0.509,0.027 1.014,0.044 1.515,0.051c0.501,0.007 0.93,0.011 1.287,0.011c0.357,0 0.473,-0.018 0.347,-0.053" style="fill:none;fill-rule:nonzero;stroke:#000;stroke-width:0.85px;"/><path d="M46.187,142.861c0.078,-0.033 0.189,-0.066 0.334,-0.099c0.145,-0.033 0.366,-0.052 0.661,-0.057c0.296,-0.005 0.685,-0.018 1.167,-0.039c0.482,-0.021 1.01,-0.047 1.582,-0.078c0.885,-0.047 1.594,-0.012 2.129,0.107" style="fill:none;fill-rule:nonzero;stroke:#000;stroke-width:0.85px;"/><path d="M10.14,135.765c-0.06,-0.035 -0.131,-0.067 -0.211,-0.094c-0.053,-0.018 -0.089,-0.01 -0.107,0.025c-0.018,0.034 -0.028,0.141 -0.031,0.32c-0.003,0.179 -0.001,0.399 0.005,0.663c0.006,0.263 0.037,0.54 0.095,0.831c0.057,0.291 0.124,0.591 0.201,0.901c0.077,0.31 0.14,0.638 0.189,0.982c0.049,0.345 0.091,0.709 0.124,1.094c0.033,0.385 0.054,0.766 0.061,1.143c0.008,0.378 0.011,0.742 0.011,1.094c0,0.352 0.001,0.68 0.003,0.984c0.002,0.305 0.015,0.585 0.038,0.839c0.023,0.255 0.039,0.521 0.046,0.799c0.008,0.278 0.013,0.551 0.018,0.821c0.004,0.27 0.011,0.531 0.019,0.785c0.009,0.254 0.023,0.442 0.042,0.563c0.019,0.122 0.035,0.191 0.046,0.209c0.011,0.018 0.014,0.012 0.008,-0.016c-0.009,-0.04 -0.037,-0.167 -0.084,-0.38" style="fill:none;fill-rule:nonzero;stroke:#000;stroke-width:0.85px;"/><path d="M14.598,139.47c0.003,-0.048 0.019,-0.122 0.049,-0.22c0.03,-0.098 0.068,-0.193 0.113,-0.286c0.045,-0.093 0.102,-0.196 0.169,-0.31c0.067,-0.113 0.133,-0.229 0.197,-0.348c0.064,-0.119 0.119,-0.225 0.166,-0.321c0.047,-0.095 0.084,-0.175 0.111,-0.24c0.027,-0.065 0.044,-0.114 0.051,-0.148c0.007,-0.034 0.011,-0.053 0.011,-0.056c0,-0.003 0,-0.004 0,-0.004l0,0.166c0,0.083 0.002,0.208 0.006,0.375c0.004,0.168 0.007,0.4 0.01,0.697c0.002,0.297 -0.008,0.654 -0.031,1.072c-0.023,0.418 -0.039,0.83 -0.049,1.237c-0.01,0.407 -0.015,0.777 -0.015,1.111c-0,0.334 0.001,0.631 0.003,0.892c0.002,0.261 0.011,0.469 0.028,0.622c0.017,0.154 0.035,0.25 0.055,0.288c0.02,0.039 0.036,0.059 0.049,0.062c0.013,0.003 0.013,-0.006 0,-0.027c-0.018,-0.029 -0.022,-0.111 -0.012,-0.244" style="fill:none;fill-rule:nonzero;stroke:#000;stroke-width:0.85px;"/><path d="M14.144,144.202c0.038,0 0.202,-0.012 0.492,-0.037c0.29,-0.025 0.606,-0.054 0.948,-0.087c0.51,-0.05 1.047,-0.079 1.612,-0.089" style="fill:none;fill-rule:nonzero;stroke:#000;stroke-width:0.85px;"/><path d="M22.19,138.78c0.004,-0.069 0.034,-0.143 0.091,-0.22c0.057,-0.078 0.134,-0.152 0.231,-0.223c0.097,-0.071 0.207,-0.16 0.332,-0.269c0.125,-0.108 0.237,-0.217 0.337,-0.327c0.1,-0.11 0.175,-0.208 0.225,-0.295c0.05,-0.087 0.083,-0.153 0.1,-0.198c0.016,-0.045 0.025,-0.065 0.025,-0.059c0,0.006 -0.012,0.075 -0.037,0.206c-0.025,0.131 -0.056,0.29 -0.093,0.477c-0.037,0.187 -0.07,0.391 -0.099,0.611c-0.029,0.22 -0.052,0.473 -0.07,0.76c-0.018,0.287 -0.028,0.592 -0.031,0.915c-0.003,0.324 -0.004,0.628 -0.004,0.913c-0,0.285 0.001,0.541 0.003,0.769c0.002,0.228 0.007,0.427 0.016,0.598c0.009,0.171 0.021,0.321 0.035,0.451l0.011,0.097l-0.033,-0.292" style="fill:none;fill-rule:nonzero;stroke:#000;stroke-width:0.85px;"/><path d="M22.033,143.926c-0.003,-0.075 -0.001,-0.142 0.005,-0.202c0.004,-0.04 0.043,-0.063 0.119,-0.067c0.075,-0.005 0.222,-0.013 0.442,-0.026c0.219,-0.012 0.507,-0.025 0.863,-0.039c0.356,-0.014 0.684,-0.021 0.984,-0.021c0.3,-0 0.551,0.004 0.754,0.012c0.203,0.008 0.351,0.024 0.445,0.047c0.094,0.023 0.134,0.053 0.12,0.09" style="fill:none;fill-rule:nonzero;stroke:#000;stroke-width:0.85px;"/><path d="M27.69,134.324c-0.007,-0.018 -0.037,-0.078 -0.091,-0.18c-0.03,-0.058 -0.025,-0.065 0.015,-0.021c0.041,0.044 0.156,0.198 0.347,0.463c0.191,0.265 0.41,0.566 0.656,0.902c0.247,0.336 0.527,0.727 0.84,1.172c0.313,0.445 0.648,0.888 1.004,1.329c0.356,0.44 0.679,0.831 0.968,1.173c0.289,0.341 0.492,0.638 0.607,0.891c0.116,0.252 0.186,0.481 0.21,0.687c0.024,0.205 0.036,0.381 0.037,0.528c0,0.147 0,0.279 0,0.398c0,0.119 -0.006,0.252 -0.018,0.399c-0.012,0.147 -0.051,0.333 -0.117,0.558c-0.066,0.225 -0.172,0.503 -0.32,0.834c-0.148,0.331 -0.344,0.699 -0.587,1.101c-0.244,0.403 -0.532,0.834 -0.865,1.293c-0.333,0.46 -0.634,0.867 -0.901,1.222c-0.267,0.355 -0.462,0.653 -0.583,0.894c-0.183,0.362 -0.255,0.7 -0.215,1.014" style="fill:none;fill-rule:nonzero;stroke:#000;stroke-width:0.85px;"/><g transform="matrix(1,0,0,0.217307,0,-102.000613)"><text x="73.263px" y="556.196px" style="font-family:'Helvetica';font-size:26.061px;fill:none;">Y</text></g><g transform="matrix(1,0,0,1,-21.84,-130.32)"><g transform="matrix(1.358266,0,0,1,-11.224048,0)"><text x="31.329px" y="155.406px" style="font-family:'Helvetica';font-size:10.379px;fill:none;">100)</text></g><g transform="matrix(3.216772,0,0,1,-151.297494,0)"><text x="68.251px" y="153.143px" style="font-family:'Helvetica';font-size:3.682px;fill:none;">=</text></g></g><g transform="matrix(1,0,0,0.126615,-0,-113.819511)"><text x="73.303px" y="1148.963px" style="font-family:'Helvetica';font-size:198.792px;fill:none;">*</text></g><g transform="matrix(1,0,0,0.137224,0,-112.437025)"><text x="46.162px" y="1271.815px" style="font-family:'Helvetica';font-size:26.773px;fill:none;">I</text></g><g transform="matrix(1,0,0,0.82259,-0,-23.120115)"><text x="10.427px" y="107.413px" style="font-family:'Helvetica';font-size:13.106px;fill:none;">1<tspan x="16.688px 22.949px 29.21px " y="107.413px 107.413px 107.413px ">01)</tspan></text></g><g transform="matrix(1,0,0,0.379654,0,-80.84349)"><text x="73.403px" y="398.731px" style="font-family:'Helvetica';font-size:66.298px;fill:none;">*<tspan x="102.441px 131.479px " y="398.731px 398.731px ">**</tspan></text></g><g transform="matrix(1,0,0,1,-21.84,-130.32)"><g transform="matrix(1.214676,0,0,1,-6.833645,0)"><text x="31.832px" y="237.21px" style="font-family:'Helvetica';font-size:10.755px;fill:none;">1<tspan x="36.684px 42.329px 47.974px " y="237.21px 237.21px 237.21px ">10)</tspan></text></g><g transform="matrix(2.92589,0,0,1,-131.220245,0)"><text x="68.135px" y="233.736px" style="font-family:'Helvetica';font-size:3.51px;fill:none;">=</text></g></g><g transform="matrix(1,0,0,0.126551,0,-113.82783)"><text x="73.85px" y="1780.132px" style="font-family:'Helvetica';font-size:198.893px;fill:none;">*</text></g><g transform="matrix(1,0,0,0.348513,0,-84.901841)"><text x="73.006px" y="636.132px" style="font-family:'Helvetica';font-size:32.234px;fill:none;">X<tspan x="92.268px 106.147px 120.026px 139.288px " y="636.132px 636.132px 636.132px 636.132px ">yvX/</tspan></text></g><g transform="matrix(1,0,0,1,-21.84,-130.32)"><g transform="matrix(1.123473,0,0,1,-3.852514,0)"><text x="31.201px" y="276.537px" style="font-family:'Helvetica';font-size:13.218px;fill:none;">(<tspan x="35.109px 40.992px 47.85px " y="276.537px 276.537px 276.537px ">11)</tspan></text></g><g transform="matrix(2.57347,0,0,1,-106.368722,0)"><text x="67.601px" y="272.574px" style="font-family:'Helvetica';font-size:4.282px;fill:none;">=</text></g></g><g transform="matrix(1,0,0,0.178016,0,-107.120991)"><text x="80.451px" y="1452.882px" style="font-family:'Helvetica';font-size:84.714px;fill:none;">x</text></g><g transform="matrix(1,0,0,0.344504,0,-85.424207)"><text x="121.671px" y="691.088px" style="font-family:'Helvetica';font-size:41.882px;fill:none;">+</text></g></g></svg>