<?xml version="1.0" encoding="UTF-8" standalone="no"?><!DOCTYPE svg PUBLIC "-//W3C//DTD SVG 1.1//EN" "http://www.w3.org/Graphics/SVG/1.1/DTD/svg11.dtd"><svg width="100%" height="100%" viewBox="0 0 558 268" version="1.1" xmlns="http://www.w3.org/2000/svg" xmlns:xlink="http://www.w3.org/1999/xlink" xml:space="preserve" xmlns:serif="http://www.serif.com/" style="fill-rule:evenodd;clip-rule:evenodd;stroke-linecap:round;stroke-linejoin:round;stroke-miterlimit:10;"><rect x="0" y="0" width="558" height="268" style="fill:#fff;"/><g><path d="M162.583,147.381c0.317,0.013 0.742,0.008 1.267,-0.021c0.342,-0.017 0.517,-0.167 0.533,-0.45c0.017,-0.283 0.004,-0.7 -0.033,-1.258c-0.038,-0.558 -0.163,-1.121 -0.379,-1.679c-0.217,-0.563 -0.604,-0.979 -1.167,-1.246c-0.558,-0.267 -1.338,-0.208 -2.325,0.179c-0.992,0.379 -1.954,1.175 -2.896,2.375c-0.942,1.204 -1.542,2.504 -1.792,3.9c-0.254,1.4 0.133,2.492 1.158,3.271c1.029,0.783 2.438,1.188 4.238,1.221c1.796,0.033 3.271,-0.267 4.429,-0.9c1.158,-0.629 1.863,-1.525 2.113,-2.683c0.25,-1.163 0.067,-2.313 -0.554,-3.454c-0.617,-1.146 -1.508,-2.017 -2.667,-2.621c-1.158,-0.6 -2.271,-0.842 -3.338,-0.717c-1.071,0.121 -2.033,0.854 -2.896,2.196c-0.858,1.342 -1.475,2.863 -1.838,4.571c-0.367,1.704 -0.233,2.983 0.396,3.833c0.629,0.854 1.817,1.083 3.567,0.696c1.746,-0.392 3.292,-1.196 4.638,-2.413c1.346,-1.217 2.196,-2.446 2.558,-3.688c0.358,-1.238 0.054,-2.325 -0.921,-3.258c-0.975,-0.938 -2.417,-1.658 -4.325,-2.171c-1.913,-0.513 -3.633,-0.75 -5.163,-0.717c-1.533,0.033 -2.65,0.563 -3.35,1.579c-0.7,1.017 -1.017,2.233 -0.942,3.646c0.071,1.413 0.65,2.725 1.738,3.946c1.088,1.221 2.346,2.033 3.775,2.442c1.429,0.408 2.6,0.304 3.517,-0.308c0.917,-0.613 1.475,-1.621 1.683,-3.017c0.204,-1.4 0.096,-2.463 -0.325,-3.196c-0.421,-0.733 -0.942,-1.129 -1.563,-1.188c-0.621,-0.058 -1.075,0.033 -1.363,0.267c-0.288,0.233 -0.446,0.438 -0.471,0.604c-0.025,0.167 -0.038,0.267 -0.038,0.304c0,0.033 0.004,0.05 0.013,0.05l0.208,0c0.05,0 0.096,0.033 0.138,0.1c0.042,0.067 0.083,0.2 0.121,0.4c0.042,0.196 0.063,0.529 0.063,1.004c0.004,0.471 0.004,1.238 0.004,2.296l0,4.038c0,1.638 0.042,3.258 0.129,4.867c0.083,1.608 0.233,3.054 0.442,4.342c0.213,1.288 0.367,2.5 0.463,3.638c0.1,1.138 0.146,2.271 0.15,3.404l0,3.508c0,1.2 -0.004,2.388 -0.013,3.55c-0.008,1.167 -0.038,2.313 -0.088,3.442c-0.054,1.125 -0.079,2.125 -0.079,3l0,15.979c0,0.375 -0.013,0.763 -0.029,1.167c-0.021,0.404 -0.038,0.788 -0.046,1.142c-0.013,0.358 -0.017,0.679 -0.017,0.967l0,9.975c0,0.45 0.004,0.875 0.013,1.271c0.008,0.396 0.025,0.813 0.046,1.258c0.021,0.442 0.029,0.867 0.029,1.275c0.004,0.408 0.013,0.771 0.029,1.088c0.021,0.321 0.038,0.596 0.046,0.829c0.013,0.238 0.021,0.413 0.033,0.529c0.008,0.117 0.021,0.196 0.046,0.238c0.021,0.042 0.029,0.063 0.029,0.067l0.029,0c0.021,0 0.079,-0.063 0.175,-0.188c0.138,-0.175 0.317,-0.688 0.538,-1.533" style="fill:none;fill-rule:nonzero;stroke:#63b633;stroke-width:7.08px;"/></g><g><path d="M162.583,219.936l0,-1.038c0,-0.329 -0.083,-0.413 -0.246,-0.254" style="fill:none;fill-rule:nonzero;stroke:#63b633;stroke-width:7.08px;"/></g><g><path d="M181.996,137.725c0.179,0.079 0.642,-0.029 1.388,-0.329c0.746,-0.3 1.575,-0.725 2.483,-1.288c0.913,-0.558 1.892,-1.142 2.942,-1.75c1.05,-0.604 2.113,-1.2 3.188,-1.779c1.075,-0.579 2.083,-1.121 3.033,-1.629c0.946,-0.508 1.896,-1.05 2.858,-1.621c0.958,-0.575 1.946,-1.25 2.971,-2.033c1.021,-0.783 2.038,-1.588 3.05,-2.404c1.013,-0.821 2.004,-1.663 2.967,-2.517c0.967,-0.858 1.942,-1.858 2.933,-3c0.988,-1.138 2,-2.458 3.033,-3.958c1.033,-1.5 2,-3.025 2.896,-4.575c0.896,-1.546 1.754,-3.125 2.579,-4.733c0.821,-1.608 1.642,-3.254 2.463,-4.942c0.821,-1.692 1.567,-3.35 2.229,-4.988c0.667,-1.633 1.208,-3.183 1.621,-4.646c0.417,-1.467 0.746,-2.942 0.992,-4.425c0.25,-1.488 0.433,-3.017 0.55,-4.596c0.117,-1.575 0.208,-3.163 0.279,-4.763c0.071,-1.596 0.121,-3.183 0.154,-4.758c0.033,-1.575 0.029,-3.067 -0.017,-4.479c-0.046,-1.413 -0.313,-2.783 -0.8,-4.113c-0.488,-1.329 -1.108,-2.604 -1.863,-3.825c-0.754,-1.221 -1.55,-2.379 -2.388,-3.479c-0.838,-1.096 -1.663,-2.133 -2.475,-3.113c-0.813,-0.979 -1.592,-1.808 -2.333,-2.488c-0.742,-0.679 -1.454,-1.375 -2.133,-2.083c-0.679,-0.713 -1.375,-1.521 -2.096,-2.429c-0.717,-0.908 -1.488,-1.788 -2.313,-2.642c-0.825,-0.854 -1.671,-1.596 -2.538,-2.217c-0.867,-0.625 -1.854,-1.196 -2.958,-1.713c-1.104,-0.517 -2.104,-0.938 -2.996,-1.263c-0.892,-0.325 -1.829,-0.729 -2.808,-1.208c-0.979,-0.479 -1.988,-0.988 -3.029,-1.521c-1.042,-0.538 -2.108,-1.088 -3.2,-1.654c-1.092,-0.567 -2.233,-1.067 -3.425,-1.5c-1.192,-0.433 -2.3,-0.808 -3.321,-1.138c-1.025,-0.325 -1.967,-0.667 -2.829,-1.029c-0.863,-0.363 -1.788,-0.767 -2.775,-1.213c-0.983,-0.442 -2.033,-0.821 -3.146,-1.129c-1.108,-0.313 -2.179,-0.542 -3.208,-0.688c-1.025,-0.15 -1.992,-0.25 -2.9,-0.3c-0.904,-0.05 -1.829,-0.121 -2.775,-0.213c-0.946,-0.088 -1.975,-0.217 -3.088,-0.388c-1.108,-0.171 -2.225,-0.333 -3.35,-0.483c-1.125,-0.154 -2.258,-0.25 -3.404,-0.288c-1.142,-0.033 -2.229,-0.033 -3.254,0.004c-1.029,0.038 -2.017,0.138 -2.958,0.296c-0.946,0.158 -1.854,0.308 -2.729,0.438c-0.875,0.133 -1.771,0.233 -2.688,0.296c-0.917,0.063 -1.858,0.146 -2.833,0.242c-0.971,0.1 -1.929,0.263 -2.875,0.488c-0.942,0.229 -1.867,0.533 -2.767,0.913c-0.904,0.383 -1.767,0.754 -2.592,1.121c-0.821,0.367 -1.617,0.7 -2.388,0.996c-0.771,0.292 -1.575,0.642 -2.413,1.038c-0.838,0.4 -1.708,0.938 -2.604,1.617c-0.9,0.675 -1.85,1.479 -2.85,2.404c-1,0.925 -1.954,1.825 -2.858,2.7c-0.908,0.875 -1.708,1.642 -2.408,2.3c-0.696,0.654 -1.338,1.308 -1.925,1.95c-0.588,0.646 -1.2,1.388 -1.838,2.229c-0.633,0.842 -1.3,1.829 -2,2.963c-0.696,1.138 -1.392,2.329 -2.079,3.583c-0.692,1.254 -1.371,2.517 -2.038,3.792c-0.667,1.279 -1.338,2.592 -2.004,3.946c-0.671,1.35 -1.292,2.717 -1.867,4.096c-0.571,1.379 -1.017,2.758 -1.329,4.146c-0.313,1.388 -0.538,2.804 -0.675,4.25c-0.133,1.446 -0.275,2.9 -0.425,4.367c-0.15,1.467 -0.317,2.938 -0.5,4.408c-0.183,1.471 -0.35,2.871 -0.504,4.204c-0.154,1.333 -0.25,2.621 -0.283,3.867c-0.033,1.246 -0.054,2.542 -0.054,3.888c0,1.342 0.046,2.654 0.129,3.933c0.088,1.279 0.221,2.558 0.4,3.846c0.183,1.288 0.375,2.554 0.575,3.8c0.2,1.25 0.463,2.454 0.779,3.625c0.317,1.167 0.758,2.325 1.325,3.479c0.571,1.154 1.2,2.3 1.892,3.433c0.692,1.133 1.404,2.275 2.138,3.425c0.733,1.146 1.492,2.175 2.267,3.083c0.775,0.913 1.6,1.742 2.479,2.496c0.879,0.754 1.725,1.429 2.538,2.021c0.813,0.596 1.617,1.108 2.408,1.538c0.788,0.433 1.592,0.808 2.413,1.125c0.817,0.317 1.608,0.633 2.371,0.958c0.763,0.325 1.438,0.596 2.025,0.813c0.583,0.221 1.054,0.379 1.408,0.471c0.35,0.096 0.604,0.15 0.763,0.163c0.158,0.013 0.288,0.017 0.392,0.017c0.1,0 0.238,-0.038 0.404,-0.108c0.171,-0.075 0.292,-0.463 0.358,-1.167c0.067,-0.7 0.067,-1.571 0.004,-2.613c-0.067,-1.038 -0.304,-2.033 -0.721,-2.992c-0.413,-0.958 -0.854,-1.779 -1.321,-2.471c-0.467,-0.692 -0.846,-1.221 -1.138,-1.6c-0.292,-0.375 -0.488,-0.617 -0.583,-0.729c-0.1,-0.108 -0.146,-0.15 -0.146,-0.125c0,0.025 0.004,0.092 0.013,0.196c0.004,0.104 0.108,0.475 0.313,1.117c0.204,0.638 0.479,1.425 0.833,2.358c0.35,0.938 0.708,1.871 1.075,2.804c0.363,0.938 0.746,1.796 1.15,2.583c0.404,0.783 0.783,1.504 1.142,2.154c0.358,0.654 0.658,1.275 0.896,1.863c0.238,0.588 0.392,1.146 0.471,1.679c0.075,0.529 0.113,0.954 0.117,1.267c0,0.313 -0.029,0.508 -0.083,0.588c-0.058,0.075 -0.238,0.117 -0.542,0.117l-1.192,0c-0.492,0 -0.992,-0.008 -1.496,-0.025c-0.508,-0.017 -1.017,-0.108 -1.521,-0.263c-0.508,-0.158 -0.992,-0.308 -1.446,-0.454c-0.458,-0.146 -0.917,-0.225 -1.375,-0.238l-0.346,-0.013l1.033,0.033" style="fill:none;fill-rule:nonzero;stroke:#63b633;stroke-width:3.54px;"/></g><g><path d="M28.513,83.129c-0.267,0.2 -0.525,0.425 -0.771,0.688c-0.25,0.258 -0.379,0.471 -0.396,0.633c-0.013,0.163 0.175,0.258 0.567,0.283c0.392,0.025 1.046,0.038 1.967,0.038l6.325,0c1.217,0 2.513,-0.013 3.888,-0.042c1.375,-0.029 2.675,-0.088 3.896,-0.179c1.225,-0.088 2.35,-0.192 3.379,-0.313c1.029,-0.121 1.933,-0.208 2.717,-0.263c0.779,-0.054 1.483,-0.088 2.113,-0.096c0.629,-0.013 1.283,-0.017 1.958,-0.017c0.679,-0.004 1.371,-0.029 2.079,-0.088c0.708,-0.058 1.354,-0.104 1.938,-0.138c0.583,-0.033 1.154,-0.05 1.708,-0.05c0.554,0 1.2,0.013 1.942,0.042c0.742,0.029 1.538,0.046 2.388,0.046c0.85,0.004 1.621,0.004 2.321,0.004l3.675,0c0.329,0 0.704,-0.025 1.129,-0.071c0.425,-0.05 0.833,-0.125 1.233,-0.225c0.396,-0.1 0.771,-0.167 1.125,-0.2c0.354,-0.033 0.717,-0.067 1.079,-0.096c0.367,-0.029 0.733,-0.054 1.108,-0.075c0.375,-0.021 0.713,-0.038 1.008,-0.046c0.296,-0.013 0.554,-0.017 0.771,-0.017l0.554,0c0.15,0 0.333,0.004 0.542,0.013c0.208,0.008 0.5,0.025 0.867,0.046c0.367,0.021 0.771,0.029 1.204,0.033l5.688,0c0.117,0 -0.221,-0.492 -1.017,-1.467" style="fill:none;fill-rule:nonzero;stroke:#c2361a;stroke-width:7.08px;"/></g><g><path d="M117.013,81.492c-0.4,0.2 -0.579,0.296 -0.529,0.292c0.033,-0.004 0.117,-0.017 0.25,-0.029c0.133,-0.017 0.496,-0.096 1.079,-0.238c0.583,-0.138 0.983,-0.208 1.192,-0.208c0.213,0 0.504,-0.004 0.871,-0.013c0.367,-0.008 0.863,-0.05 1.492,-0.121c0.629,-0.067 1.333,-0.125 2.108,-0.167c0.775,-0.042 1.608,-0.063 2.504,-0.063c0.896,0 1.917,-0.021 3.063,-0.058c1.146,-0.038 2.313,-0.129 3.5,-0.279c1.188,-0.15 2.246,-0.254 3.167,-0.308c0.925,-0.058 1.733,-0.083 2.425,-0.083c0.692,-0.004 1.433,-0.004 2.217,-0.004l13.729,0c0.392,0 0.796,0.017 1.2,0.046c0.404,0.029 0.758,0.046 1.067,0.046l4.167,0c0.304,0 0.633,-0.004 0.983,-0.013c0.35,-0.008 0.746,-0.083 1.179,-0.217c0.433,-0.138 0.804,-0.304 1.117,-0.508c0.308,-0.2 0.521,-0.413 0.629,-0.633c0.108,-0.221 0.158,-0.471 0.15,-0.742c-0.008,-0.271 -0.113,-0.542 -0.313,-0.804c-0.204,-0.263 -0.533,-0.467 -0.992,-0.604c-0.454,-0.138 -1.079,-0.163 -1.879,-0.071c-0.796,0.092 -1.679,0.483 -2.65,1.179c-0.971,0.696 -1.721,1.546 -2.254,2.55c-0.533,1.004 -0.604,2.013 -0.221,3.017c0.383,1.008 1.321,1.813 2.808,2.408c1.492,0.6 3.067,0.921 4.729,0.971c1.663,0.05 3.079,-0.271 4.25,-0.958c1.171,-0.688 1.883,-1.629 2.138,-2.821c0.254,-1.196 0.067,-2.363 -0.563,-3.508c-0.633,-1.146 -1.583,-1.967 -2.858,-2.471c-1.271,-0.504 -2.542,-0.717 -3.8,-0.646c-1.263,0.071 -2.367,0.517 -3.313,1.342c-0.946,0.821 -1.638,1.783 -2.071,2.888c-0.438,1.1 -0.496,2.046 -0.175,2.833c0.317,0.783 1.225,1.263 2.713,1.425c1.492,0.167 3.05,-0.038 4.671,-0.604c1.621,-0.567 2.792,-1.429 3.513,-2.588c0.717,-1.158 0.804,-2.383 0.258,-3.683c-0.546,-1.3 -1.575,-2.313 -3.088,-3.042c-1.513,-0.729 -2.963,-0.967 -4.358,-0.713c-1.396,0.25 -2.542,1.088 -3.442,2.504c-0.896,1.413 -1.379,2.842 -1.45,4.292c-0.067,1.446 0.371,2.571 1.321,3.371c0.954,0.8 2.138,1.171 3.554,1.113c1.417,-0.063 2.617,-0.571 3.6,-1.533c0.983,-0.963 1.558,-2.175 1.721,-3.642c0.167,-1.467 -0.213,-2.779 -1.133,-3.938c-0.921,-1.158 -2.008,-1.867 -3.258,-2.133c-1.25,-0.267 -1.846,-0.179 -1.788,0.263" style="fill:none;fill-rule:nonzero;stroke:#c2361a;stroke-width:7.08px;"/></g><g><path d="M252.175,96.713l-1.863,0l0.613,0c0.688,0 2.204,-0.042 4.546,-0.117c2.346,-0.075 4.633,-0.15 6.867,-0.225c2.233,-0.075 4.279,-0.113 6.133,-0.113c1.85,-0.004 2.538,0.179 2.054,0.542" style="fill:none;fill-rule:nonzero;stroke:#000;stroke-width:3.54px;"/></g><g><path d="M252.904,107.742c-0.342,0.054 -0.704,0.142 -1.096,0.263c-0.388,0.121 -0.55,0.225 -0.488,0.317c0.063,0.092 0.771,0.154 2.129,0.188c1.358,0.033 3.404,0.05 6.133,0.05c4.033,0 8.871,-0.163 14.517,-0.488" style="fill:none;fill-rule:nonzero;stroke:#000;stroke-width:3.54px;"/></g><g><path d="M317.979,103.362c0.121,-0.067 0.413,-0.242 0.883,-0.525c0.275,-0.171 0.425,-0.263 0.45,-0.275c0.025,-0.013 0.038,-0.017 0.038,-0.017c0,0 0.121,0.008 0.367,0.025c0.246,0.021 0.9,0.108 1.958,0.267c1.058,0.154 2.733,0.313 5.025,0.467c2.296,0.154 4.925,0.246 7.892,0.283c2.963,0.033 5.638,0.05 8.017,0.05l5.067,0l-1.496,0" style="fill:none;fill-rule:nonzero;stroke:#000;stroke-width:3.54px;"/></g><g><path d="M365.742,83.679c0.254,0.038 0.554,0.067 0.896,0.075c0.346,0.013 0.563,0.017 0.658,0.017c0.092,0 0.146,-0.004 0.158,-0.013c0.013,-0.013 0.017,-0.038 0.017,-0.075c0,-0.042 0.046,-0.088 0.129,-0.138c0.088,-0.05 0.238,-0.104 0.458,-0.163c0.217,-0.063 0.567,-0.129 1.05,-0.2c0.488,-0.071 1.083,-0.125 1.796,-0.167c0.713,-0.042 1.467,-0.063 2.254,-0.067l16.121,0c0.704,0 1.363,-0.008 1.971,-0.029c0.613,-0.021 1.25,-0.058 1.925,-0.117c0.675,-0.063 1.392,-0.121 2.15,-0.183c0.758,-0.058 1.517,-0.096 2.275,-0.108c0.763,-0.013 1.504,-0.017 2.238,-0.017l16.688,0c0.663,0 1.358,-0.017 2.092,-0.046c0.729,-0.025 1.367,-0.079 1.913,-0.163c0.546,-0.079 0.983,-0.142 1.313,-0.183c0.333,-0.042 0.617,-0.079 0.85,-0.108c0.238,-0.029 0.442,-0.063 0.617,-0.092c0.171,-0.029 0.3,-0.046 0.388,-0.046c0.083,0 0.171,-0.004 0.258,-0.004l13.833,0c1.088,0 2.192,0.025 3.313,0.075c1.121,0.046 2.304,0.092 3.554,0.133c1.25,0.042 2.517,0.063 3.792,0.067l6.413,0c0.808,0 1.613,0.021 2.421,0.058c0.808,0.038 1.675,0.083 2.6,0.133c0.929,0.054 1.908,0.079 2.938,0.079c1.029,0.004 2.1,0.004 3.213,0.004l10.179,0c1.217,0 2.529,-0.025 3.933,-0.075c1.4,-0.046 2.75,-0.092 4.046,-0.133c1.292,-0.042 2.479,-0.092 3.558,-0.15c1.079,-0.058 2.167,-0.15 3.271,-0.267c1.1,-0.121 2.208,-0.271 3.325,-0.45c1.113,-0.183 2.1,-0.371 2.954,-0.558c0.858,-0.192 1.496,-0.404 1.913,-0.638c0.421,-0.229 0.683,-0.483 0.796,-0.754c0.113,-0.275 0.167,-0.596 0.171,-0.963l0,-1.133c0,-0.388 -0.029,-0.746 -0.083,-1.071c-0.058,-0.329 -0.238,-0.604 -0.542,-0.829c-0.304,-0.225 -0.688,-0.404 -1.15,-0.529c-0.463,-0.125 -0.888,-0.225 -1.279,-0.296c-0.388,-0.071 -0.808,-0.121 -1.267,-0.142c-0.458,-0.025 -1.088,0.046 -1.888,0.204c-0.796,0.163 -1.663,0.554 -2.596,1.179c-0.933,0.621 -1.692,1.329 -2.271,2.129c-0.583,0.796 -0.963,1.604 -1.138,2.421c-0.179,0.821 -0.208,1.658 -0.1,2.508c0.113,0.85 0.392,1.633 0.85,2.35c0.454,0.717 0.996,1.283 1.629,1.7c0.629,0.417 1.438,0.667 2.425,0.746c0.988,0.083 2.038,0.05 3.142,-0.1c1.108,-0.154 2.046,-0.483 2.821,-0.988c0.775,-0.504 1.358,-1.113 1.746,-1.825c0.388,-0.713 0.617,-1.463 0.688,-2.254c0.071,-0.792 -0.054,-1.546 -0.379,-2.267c-0.325,-0.725 -0.871,-1.338 -1.642,-1.842c-0.771,-0.508 -1.575,-0.867 -2.413,-1.079c-0.838,-0.217 -1.688,-0.304 -2.55,-0.263c-0.863,0.042 -1.7,0.433 -2.513,1.183c-0.813,0.75 -1.438,1.775 -1.871,3.075c-0.433,1.304 -0.588,2.571 -0.458,3.796c0.129,1.229 0.821,2.079 2.083,2.558c1.263,0.475 2.708,0.492 4.346,0.042c1.633,-0.446 2.858,-1.367 3.663,-2.758c0.808,-1.392 1.054,-2.746 0.733,-4.071c-0.317,-1.321 -1.167,-2.2 -2.538,-2.629c-1.375,-0.429 -2.288,-0.646 -2.738,-0.654l-0.338,-0.004l1.017,0.013" style="fill:none;fill-rule:nonzero;stroke:#c2361a;stroke-width:7.08px;"/></g><g><path d="M500.083,142.466c-0.063,-0.129 -0.3,-0.396 -0.717,-0.804c-0.417,-0.408 -1.046,-0.592 -1.888,-0.554c-0.842,0.042 -1.863,0.429 -3.058,1.154c-1.196,0.729 -2.271,1.754 -3.221,3.075c-0.946,1.321 -1.533,2.654 -1.754,4c-0.225,1.346 0.154,2.342 1.138,2.992c0.983,0.65 2.358,0.908 4.125,0.771c1.771,-0.133 3.388,-0.558 4.858,-1.275c1.467,-0.713 2.529,-1.488 3.179,-2.325c0.65,-0.838 0.958,-1.808 0.933,-2.908c-0.029,-1.1 -0.421,-2.242 -1.175,-3.421c-0.754,-1.179 -1.65,-2.1 -2.688,-2.763c-1.038,-0.663 -2.121,-0.979 -3.242,-0.942c-1.121,0.033 -2.225,0.567 -3.313,1.6c-1.092,1.038 -1.954,2.329 -2.592,3.883c-0.638,1.55 -0.983,2.996 -1.033,4.338c-0.054,1.342 0.35,2.317 1.208,2.925c0.863,0.608 2.104,0.821 3.729,0.633c1.629,-0.183 3.054,-0.663 4.288,-1.438c1.229,-0.775 2.067,-1.588 2.508,-2.438c0.446,-0.854 0.479,-1.625 0.113,-2.313c-0.371,-0.688 -1.146,-1.142 -2.325,-1.363c-1.179,-0.217 -2.196,-0.329 -3.058,-0.333c-0.858,-0.004 -1.446,0.046 -1.758,0.15c-0.313,0.108 -0.479,0.354 -0.508,0.733c-0.025,0.383 -0.008,0.95 0.046,1.708c0.054,0.758 0.263,1.638 0.613,2.642c0.354,1.004 0.717,2.108 1.088,3.304c0.367,1.2 0.654,2.463 0.863,3.783c0.208,1.325 0.367,2.621 0.471,3.892c0.104,1.271 0.208,2.488 0.321,3.654c0.108,1.171 0.246,2.333 0.404,3.496c0.158,1.167 0.296,2.354 0.413,3.567c0.117,1.217 0.179,2.442 0.192,3.675c0.013,1.233 0.021,2.488 0.021,3.763l0,40.3c0,0.404 0.013,0.65 0.042,0.729c0.025,0.083 0.038,0.046 0.038,-0.104c-0.004,-0.221 0.1,-0.583 0.308,-1.079" style="fill:none;fill-rule:nonzero;stroke:#63b633;stroke-width:7.08px;"/></g></svg>