<?xml version="1.0" encoding="UTF-8" standalone="no"?><!DOCTYPE svg PUBLIC "-//W3C//DTD SVG 1.1//EN" "http://www.w3.org/Graphics/SVG/1.1/DTD/svg11.dtd"><svg width="100%" height="100%" viewBox="0 0 1383 278" version="1.1" xmlns="http://www.w3.org/2000/svg" xmlns:xlink="http://www.w3.org/1999/xlink" xml:space="preserve" xmlns:serif="http://www.serif.com/" style="fill-rule:evenodd;clip-rule:evenodd;stroke-linecap:round;stroke-linejoin:round;stroke-miterlimit:10;"><rect x="0" y="0" width="1383" height="278" style="fill:#fff;"/><g><path d="M103.417,97.142c-0.008,-0.238 -0.146,-0.517 -0.413,-0.842c-0.267,-0.321 -0.658,-0.492 -1.175,-0.504c-0.517,-0.017 -1.129,0.088 -1.833,0.304c-0.704,0.221 -1.363,0.696 -1.979,1.429c-0.617,0.733 -1.038,1.575 -1.267,2.533c-0.229,0.954 -0.242,1.913 -0.05,2.867c0.196,0.958 0.621,1.779 1.279,2.471c0.654,0.692 1.367,1.158 2.133,1.396c0.767,0.242 1.517,0.283 2.25,0.125c0.733,-0.154 1.346,-0.604 1.846,-1.342c0.496,-0.742 0.846,-1.613 1.046,-2.621c0.204,-1.004 0.313,-1.992 0.325,-2.958c0.017,-0.967 -0.096,-1.817 -0.333,-2.546c-0.238,-0.733 -0.683,-1.233 -1.342,-1.504c-0.654,-0.267 -1.371,-0.333 -2.15,-0.188c-0.779,0.146 -1.504,0.6 -2.167,1.371c-0.667,0.767 -1.167,1.729 -1.504,2.883c-0.342,1.154 -0.433,2.271 -0.283,3.354c0.15,1.083 0.671,1.875 1.558,2.375c0.888,0.504 1.842,0.704 2.871,0.604c1.025,-0.1 1.842,-0.583 2.45,-1.458c0.608,-0.875 0.863,-1.892 0.771,-3.058c-0.096,-1.163 -0.625,-2.05 -1.6,-2.654c-0.971,-0.604 -2,-0.833 -3.079,-0.692c-1.083,0.146 -1.863,0.688 -2.333,1.625c-0.475,0.942 -0.583,1.808 -0.325,2.604c0.254,0.796 0.854,1.263 1.8,1.396c0.946,0.138 1.804,-0.021 2.579,-0.479c0.775,-0.458 1.296,-0.842 1.571,-1.154c0.271,-0.308 0.358,-0.621 0.263,-0.933" style="fill:none;fill-rule:nonzero;stroke:#c2361a;stroke-width:7.08px;"/></g><g><path d="M238.125,95.682c-0.604,-0.025 -1.217,-0.225 -1.842,-0.596c-0.629,-0.375 -1.042,-0.896 -1.242,-1.567c-0.204,-0.671 -0.379,-1.288 -0.529,-1.842c-0.15,-0.554 -0.45,-0.938 -0.9,-1.146c-0.45,-0.204 -1.1,0 -1.95,0.613c-0.846,0.617 -1.683,1.808 -2.504,3.579c-0.821,1.771 -1.192,3.533 -1.117,5.292c0.079,1.754 0.896,3.05 2.458,3.883c1.558,0.833 3.242,1.142 5.046,0.925c1.804,-0.217 3.163,-1.008 4.083,-2.379c0.921,-1.367 1.383,-2.833 1.383,-4.392c0.004,-1.558 -0.567,-2.688 -1.708,-3.383c-1.142,-0.696 -2.55,-0.779 -4.225,-0.254c-1.675,0.525 -3.05,1.579 -4.133,3.154c-1.079,1.575 -1.446,3.058 -1.104,4.446c0.346,1.388 1.396,2.225 3.158,2.513c1.763,0.292 3.217,-0.004 4.363,-0.883c1.146,-0.883 1.571,-2.121 1.283,-3.717c-0.292,-1.596 -1.271,-2.792 -2.942,-3.592c-1.671,-0.8 -3.063,-0.992 -4.179,-0.575c-1.117,0.417 -1.579,1.1 -1.388,2.05c0.267,1.342 2.183,1.763 5.742,1.254" style="fill:none;fill-rule:nonzero;stroke:#c2361a;stroke-width:7.08px;"/></g><g><path d="M99.771,104.706c-0.196,0.271 -0.408,0.621 -0.642,1.05c-0.233,0.429 -0.367,0.846 -0.4,1.258c-0.038,0.413 0.083,0.942 0.358,1.588c0.279,0.646 0.817,1.479 1.621,2.5c0.804,1.021 1.783,2.2 2.933,3.55c1.154,1.346 2.421,2.708 3.804,4.092c1.383,1.383 2.775,2.554 4.183,3.513c1.408,0.958 2.813,1.725 4.208,2.296c1.396,0.567 2.854,1.021 4.379,1.363c1.525,0.342 3.096,0.638 4.713,0.896c1.617,0.254 3.246,0.5 4.888,0.729c1.646,0.233 3.208,0.513 4.692,0.846c1.483,0.329 2.967,0.717 4.454,1.158c1.483,0.442 3.05,0.833 4.696,1.175c1.646,0.338 3.421,0.579 5.333,0.721c1.913,0.138 3.95,0.229 6.113,0.267c2.158,0.042 4.267,0.171 6.321,0.383c2.054,0.213 3.963,0.613 5.725,1.196c1.763,0.583 3.492,1.238 5.192,1.967c1.7,0.729 3.488,1.446 5.363,2.154c1.879,0.713 3.738,1.408 5.575,2.088c1.838,0.679 3.613,1.367 5.329,2.063c1.717,0.696 3.333,1.454 4.85,2.271c1.513,0.813 3.042,1.654 4.579,2.513c1.533,0.863 3.063,1.704 4.583,2.525c1.521,0.821 3.021,1.671 4.504,2.546c1.479,0.879 2.842,1.854 4.075,2.929c1.238,1.075 2.329,2.258 3.271,3.55c0.942,1.288 1.775,2.488 2.5,3.592c0.725,1.108 1.454,2.05 2.192,2.829c0.733,0.779 1.517,1.508 2.346,2.188c0.829,0.679 1.613,1.371 2.346,2.067c0.733,0.7 1.383,1.421 1.946,2.171c0.563,0.746 1.092,1.492 1.588,2.229c0.496,0.742 1.017,1.471 1.563,2.192c0.546,0.721 1.092,1.438 1.642,2.154c0.546,0.717 1.058,1.521 1.538,2.404c0.483,0.883 0.892,1.913 1.229,3.096c0.342,1.183 0.683,2.496 1.038,3.938c0.35,1.438 0.758,2.929 1.221,4.467c0.463,1.538 0.908,3.075 1.333,4.604c0.429,1.529 0.808,3.05 1.138,4.571c0.329,1.517 0.588,3.104 0.775,4.758c0.188,1.654 0.333,3.3 0.433,4.938c0.1,1.633 0.213,3.113 0.333,4.433c0.121,1.317 0.246,2.421 0.367,3.313c0.121,0.888 0.258,1.575 0.408,2.063c0.15,0.488 0.279,0.863 0.379,1.121c0.104,0.263 0.213,0.475 0.321,0.638c0.113,0.167 0.204,0.279 0.275,0.342c0.104,0.092 0.288,0.046 0.55,-0.125" style="fill:none;fill-rule:nonzero;stroke:#c2361a;stroke-width:7.08px;"/></g><g><path d="M100.317,99.238c0.058,-0.358 0.117,-0.763 0.179,-1.208c0.063,-0.442 0.092,-0.821 0.092,-1.125c0.004,-0.308 -0.058,-0.583 -0.179,-0.829c-0.125,-0.246 -0.463,-0.417 -1.013,-0.517c-0.554,-0.096 -1.2,-0.142 -1.946,-0.133c-0.746,0.008 -1.508,0.142 -2.288,0.4c-0.775,0.258 -1.604,0.713 -2.483,1.358c-0.879,0.646 -1.683,1.45 -2.413,2.408c-0.729,0.963 -1.233,1.983 -1.517,3.067c-0.279,1.083 -0.2,2.108 0.242,3.079c0.442,0.967 1.3,1.746 2.575,2.329c1.275,0.583 2.6,0.946 3.979,1.079c1.379,0.138 2.667,0.029 3.863,-0.325c1.192,-0.35 2.175,-0.925 2.942,-1.725c0.771,-0.8 1.254,-1.663 1.454,-2.592c0.2,-0.929 0.171,-1.871 -0.092,-2.825c-0.263,-0.95 -0.838,-1.763 -1.733,-2.438c-0.892,-0.671 -1.817,-1.192 -2.775,-1.567c-0.958,-0.375 -1.638,-0.604 -2.05,-0.683c-0.55,-0.108 -0.563,0.029 -0.038,0.417" style="fill:none;fill-rule:nonzero;stroke:#c2361a;stroke-width:7.08px;"/></g><g><path d="M101.121,231.618c0.375,-0.113 0.617,-0.338 0.725,-0.679c0.075,-0.229 0.096,-0.458 0.071,-0.675c-0.029,-0.221 -0.083,-0.538 -0.167,-0.954c-0.079,-0.417 -0.146,-0.954 -0.196,-1.613c-0.05,-0.658 -0.117,-1.45 -0.196,-2.371c-0.079,-0.925 -0.167,-1.904 -0.258,-2.933c-0.092,-1.029 -0.171,-2.113 -0.242,-3.254c-0.075,-1.142 -0.142,-2.313 -0.2,-3.517c-0.058,-1.204 -0.167,-2.329 -0.325,-3.371c-0.158,-1.042 -0.417,-1.95 -0.771,-2.729c-0.358,-0.779 -0.754,-1.479 -1.188,-2.1c-0.433,-0.621 -0.875,-1.267 -1.321,-1.929c-0.446,-0.667 -0.896,-1.363 -1.35,-2.092c-0.454,-0.729 -0.929,-1.467 -1.425,-2.213c-0.492,-0.75 -1.013,-1.488 -1.558,-2.221c-0.546,-0.729 -1.117,-1.421 -1.713,-2.071c-0.596,-0.65 -1.217,-1.325 -1.863,-2.021c-0.642,-0.692 -1.354,-1.479 -2.129,-2.354c-0.775,-0.875 -1.65,-1.75 -2.621,-2.621c-0.975,-0.875 -2.071,-1.692 -3.288,-2.458c-1.217,-0.763 -2.458,-1.45 -3.725,-2.054c-1.267,-0.604 -2.446,-1.079 -3.542,-1.433c-1.092,-0.354 -2.104,-0.733 -3.038,-1.142c-0.933,-0.408 -1.879,-0.933 -2.829,-1.575c-0.954,-0.642 -1.879,-1.296 -2.783,-1.963c-0.908,-0.671 -1.729,-1.342 -2.475,-2.021c-0.746,-0.679 -1.467,-1.396 -2.167,-2.15c-0.696,-0.758 -1.425,-1.538 -2.183,-2.35c-0.758,-0.808 -1.504,-1.629 -2.233,-2.454c-0.733,-0.829 -1.438,-1.725 -2.117,-2.692c-0.679,-0.967 -1.325,-2.025 -1.933,-3.175c-0.613,-1.146 -1.221,-2.358 -1.829,-3.629c-0.604,-1.267 -1.242,-2.638 -1.908,-4.108c-0.663,-1.471 -1.371,-2.975 -2.117,-4.504c-0.746,-1.529 -1.488,-3.013 -2.217,-4.442c-0.733,-1.433 -1.371,-2.846 -1.917,-4.242c-0.55,-1.4 -0.946,-2.871 -1.2,-4.425c-0.25,-1.55 -0.442,-3.204 -0.563,-4.963c-0.125,-1.754 -0.292,-3.542 -0.5,-5.354c-0.204,-1.813 -0.5,-3.575 -0.879,-5.292c-0.379,-1.717 -0.779,-3.35 -1.208,-4.908c-0.425,-1.554 -0.767,-3.083 -1.029,-4.579c-0.263,-1.496 -0.429,-3.029 -0.508,-4.6c-0.075,-1.567 -0.129,-3.083 -0.158,-4.55c-0.029,-1.463 -0.046,-2.854 -0.05,-4.175c0,-1.321 0.096,-2.646 0.288,-3.983c0.196,-1.333 0.463,-2.733 0.8,-4.196c0.342,-1.463 0.763,-2.954 1.263,-4.471c0.5,-1.521 1.033,-2.975 1.6,-4.354c0.563,-1.383 1.15,-2.75 1.758,-4.096c0.604,-1.346 1.196,-2.725 1.775,-4.142c0.579,-1.417 1.208,-2.813 1.892,-4.192c0.679,-1.375 1.513,-2.771 2.492,-4.179c0.983,-1.413 2.042,-2.704 3.171,-3.875c1.129,-1.175 2.263,-2.263 3.4,-3.258c1.133,-0.996 2.375,-1.996 3.717,-2.996c1.342,-1 2.917,-2.067 4.725,-3.196c1.804,-1.129 3.75,-2.271 5.829,-3.429c2.083,-1.154 4.029,-2.204 5.833,-3.146c1.808,-0.942 3.471,-1.746 4.983,-2.413c1.517,-0.663 3.171,-1.354 4.971,-2.071c1.796,-0.713 3.7,-1.471 5.713,-2.267c2.013,-0.8 4.029,-1.533 6.054,-2.2c2.029,-0.663 4.017,-1.204 5.963,-1.617c1.95,-0.417 3.896,-0.771 5.85,-1.067c1.95,-0.296 4.008,-0.617 6.179,-0.971c2.167,-0.35 4.375,-0.675 6.629,-0.975c2.25,-0.296 4.379,-0.5 6.383,-0.608c2.004,-0.113 3.908,-0.154 5.717,-0.125c1.808,0.025 3.65,0.183 5.529,0.479c1.875,0.292 3.838,0.592 5.879,0.9c2.042,0.304 4.017,0.613 5.929,0.913c1.908,0.304 3.763,0.596 5.558,0.879c1.792,0.288 3.575,0.6 5.338,0.942c1.767,0.342 3.483,0.704 5.158,1.088c1.675,0.383 3.292,0.771 4.858,1.167c1.563,0.396 3.079,0.829 4.55,1.3c1.471,0.471 2.979,0.996 4.525,1.571c1.546,0.575 3.1,1.146 4.658,1.713c1.558,0.567 3.142,1.158 4.75,1.775c1.608,0.617 3.196,1.275 4.758,1.979c1.563,0.704 3.05,1.475 4.467,2.313c1.413,0.833 2.742,1.704 3.983,2.604c1.238,0.9 2.496,1.792 3.767,2.675c1.271,0.879 2.592,1.754 3.954,2.625c1.367,0.871 2.7,1.779 4.004,2.729c1.3,0.95 2.438,1.883 3.417,2.796c0.975,0.917 1.8,1.846 2.475,2.796c0.679,0.946 1.358,1.95 2.042,3.008c0.688,1.063 1.408,2.117 2.171,3.175c0.758,1.054 1.425,2.1 2,3.133c0.575,1.029 1.058,2.113 1.45,3.242c0.388,1.129 0.717,2.275 0.988,3.442c0.267,1.167 0.517,2.283 0.75,3.35c0.233,1.063 0.479,2.108 0.742,3.138c0.263,1.025 0.529,1.958 0.804,2.796c0.271,0.838 0.513,1.571 0.721,2.196c0.204,0.625 0.354,1.133 0.45,1.529c0.096,0.392 0.179,0.675 0.246,0.846c0.071,0.171 0.208,0.263 0.413,0.275c0.288,0.021 0.483,-0.188 0.588,-0.621" style="fill:none;fill-rule:nonzero;stroke:#c2361a;stroke-width:7.08px;"/></g><g><path d="M113.533,87.573c0.171,-0.125 0.65,-0.638 1.446,-1.533c0.8,-0.896 1.875,-1.938 3.233,-3.117c1.354,-1.179 3.067,-2.375 5.133,-3.592c2.067,-1.213 4.154,-2.1 6.263,-2.663c2.113,-0.563 4.325,-0.963 6.642,-1.2c2.313,-0.238 4.738,-0.483 7.267,-0.738c2.529,-0.254 4.979,-0.504 7.346,-0.758c2.367,-0.254 4.646,-0.475 6.838,-0.658c2.192,-0.188 4.358,-0.317 6.5,-0.392c2.138,-0.075 4.171,-0.104 6.096,-0.088c1.925,0.017 3.663,0.163 5.213,0.433c1.554,0.275 3.054,0.588 4.504,0.942c1.446,0.354 2.921,0.671 4.417,0.946c1.496,0.275 2.971,0.583 4.421,0.925c1.454,0.342 2.883,0.742 4.292,1.2c1.404,0.463 2.738,0.983 3.996,1.571c1.254,0.583 2.254,1.129 2.996,1.629c0.738,0.5 1.25,0.95 1.538,1.346c0.292,0.4 0.463,0.738 0.517,1.017c0.058,0.279 0.092,0.454 0.1,0.521c0.013,0.071 0.017,0.096 0.017,0.079l0,-0.142c0,-0.071 -0.013,-0.471 -0.038,-1.196c-0.029,-0.729 -0.217,-1.575 -0.571,-2.542c-0.35,-0.967 -0.754,-1.929 -1.208,-2.883c-0.454,-0.958 -0.888,-1.813 -1.296,-2.571c-0.408,-0.763 -0.754,-1.354 -1.046,-1.783c-0.288,-0.425 -0.525,-0.683 -0.708,-0.763c-0.188,-0.083 -0.35,0.021 -0.492,0.317c-0.146,0.296 -0.2,0.817 -0.171,1.567c0.029,0.75 0.442,1.508 1.238,2.279c0.8,0.771 1.792,1.55 2.983,2.338c1.188,0.788 2.35,1.608 3.492,2.458c1.138,0.846 2.083,1.642 2.833,2.379c0.75,0.733 1.196,1.35 1.338,1.846c0.142,0.492 -0.138,0.913 -0.842,1.263c-0.7,0.35 -1.642,0.638 -2.821,0.867c-1.183,0.225 -2.233,0.379 -3.158,0.454c-0.925,0.075 -1.65,0.121 -2.171,0.133l-0.392,0.008l1.175,-0.025" style="fill:none;fill-rule:nonzero;stroke:#d2d2d2;stroke-width:3.54px;"/></g><g><path d="M194.925,104.342c0.046,0.179 -0.375,0.483 -1.254,0.908c-0.883,0.425 -1.871,0.796 -2.963,1.108c-1.092,0.313 -2.375,0.621 -3.846,0.925c-1.475,0.304 -3.142,0.604 -5.004,0.9c-1.863,0.296 -3.738,0.558 -5.633,0.792c-1.896,0.233 -3.733,0.479 -5.517,0.733c-1.779,0.25 -3.442,0.513 -4.988,0.788c-1.542,0.271 -3.046,0.554 -4.508,0.846c-1.463,0.296 -2.925,0.55 -4.392,0.767c-1.463,0.217 -3.017,0.388 -4.65,0.513c-1.638,0.125 -3.242,0.204 -4.813,0.238c-1.575,0.033 -3.075,0.05 -4.5,0.05c-1.425,0 -2.754,-0.063 -3.983,-0.183c-1.229,-0.125 -2.475,-0.404 -3.742,-0.838c-1.263,-0.438 -2.388,-0.942 -3.363,-1.513c-0.979,-0.575 -1.75,-1.163 -2.308,-1.763c-0.563,-0.6 -0.996,-1.104 -1.308,-1.517c-0.308,-0.413 -0.554,-0.717 -0.733,-0.904c-0.179,-0.192 -0.275,-0.333 -0.288,-0.425c-0.013,-0.092 -0.021,-0.233 -0.021,-0.421c0,-0.188 0.029,-0.396 0.088,-0.629c0.054,-0.233 0.1,-0.442 0.133,-0.625c0.033,-0.183 0.054,-0.338 0.054,-0.463l0,-0.267c0,-0.054 -0.004,-0.104 -0.017,-0.154c-0.008,-0.05 -0.038,-0.088 -0.088,-0.108c-0.046,-0.025 -0.117,-0.033 -0.208,-0.033l-0.271,0c-0.092,0 -0.154,0.029 -0.188,0.096c-0.033,0.067 -0.025,0.375 0.029,0.933c0.058,0.558 0.329,1.308 0.821,2.258c0.488,0.95 1.054,1.967 1.692,3.05c0.638,1.083 1.188,2.046 1.65,2.888c0.467,0.846 0.783,1.483 0.958,1.913c0.175,0.433 0.263,0.688 0.263,0.771c0.004,0.079 -0.05,0.075 -0.167,-0.021c-0.113,-0.092 -0.363,-0.333 -0.746,-0.721c-0.388,-0.383 -0.875,-0.8 -1.467,-1.246c-0.592,-0.446 -1.221,-0.896 -1.888,-1.35c-0.671,-0.454 -1.246,-0.921 -1.733,-1.396c-0.483,-0.475 -0.817,-0.946 -1,-1.413c-0.188,-0.467 -0.279,-0.871 -0.283,-1.213c0,-0.338 0.025,-0.604 0.083,-0.792c0.054,-0.188 0.3,-0.342 0.738,-0.463c0.438,-0.121 1.217,-0.275 2.346,-0.467c1.638,-0.275 4.283,-0.471 7.933,-0.583" style="fill:none;fill-rule:nonzero;stroke:#d2d2d2;stroke-width:3.54px;"/></g><g><path d="M64.583,119.279c-0.663,0.308 -1.242,0.538 -1.738,0.683c-0.333,0.1 -0.142,0.133 0.575,0.104c0.721,-0.025 1.708,-0.221 2.971,-0.583c1.258,-0.358 2.313,-0.854 3.158,-1.479c0.85,-0.629 1.483,-1.413 1.896,-2.35c0.413,-0.942 0.529,-2.033 0.342,-3.283c-0.188,-1.25 -0.867,-2.246 -2.038,-2.983c-1.171,-0.738 -2.55,-0.992 -4.142,-0.758c-1.592,0.233 -3.092,1.1 -4.508,2.596c-1.413,1.5 -2.4,3.179 -2.963,5.038c-0.563,1.863 -0.35,3.6 0.646,5.217c0.992,1.613 2.588,2.871 4.783,3.771c2.192,0.904 4.367,1.429 6.525,1.575c3.246,0.217 6.054,-0.238 8.421,-1.363" style="fill:none;fill-rule:nonzero;stroke:#c2361a;stroke-width:3.54px;"/></g><g><path d="M260.546,100.333l-1.433,0c-0.5,0 -0.746,0.042 -0.75,0.129c0,0.083 0.663,0.158 1.992,0.225c1.329,0.067 3.079,-0.058 5.254,-0.371c2.175,-0.317 4.167,-0.871 5.971,-1.667c1.808,-0.796 3.05,-1.688 3.721,-2.679c0.675,-0.988 0.671,-1.921 -0.017,-2.8c-0.683,-0.879 -1.754,-1.529 -3.213,-1.942c-1.454,-0.417 -2.858,-0.583 -4.2,-0.5c-1.346,0.079 -2.583,0.592 -3.717,1.529c-1.133,0.942 -2.108,2.154 -2.921,3.65c-0.817,1.492 -1.346,3.138 -1.588,4.929c-0.246,1.796 -0.025,3.396 0.658,4.8c0.683,1.408 1.904,2.308 3.667,2.708c1.763,0.4 3.675,0.521 5.738,0.367c3.121,-0.238 5.983,-0.7 8.583,-1.396" style="fill:none;fill-rule:nonzero;stroke:#c2361a;stroke-width:3.54px;"/></g><g><path d="M327.808,96.229c-0.204,0.383 0.442,0.575 1.95,0.571c1.504,-0.004 3.379,-0.138 5.625,-0.408c2.246,-0.271 4.45,-0.496 6.604,-0.671c2.154,-0.179 3.842,-0.25 5.058,-0.208l0.917,0.029l-2.746,-0.092" style="fill:none;fill-rule:nonzero;stroke:#000;stroke-width:3.54px;"/></g><g><path d="M328.538,109.812c-0.275,-0.071 -0.254,-0.125 0.058,-0.163c0.313,-0.042 1.092,-0.138 2.342,-0.296c1.254,-0.154 2.942,-0.238 5.063,-0.25c2.125,-0.017 4.492,-0.021 7.104,-0.021c3.925,0 7.692,-0.296 11.288,-0.883" style="fill:none;fill-rule:nonzero;stroke:#000;stroke-width:3.54px;"/></g><g><path d="M439.692,98.469c0.313,-0.329 0.788,-1.146 1.421,-2.446c0.383,-0.792 0.367,-1.358 -0.054,-1.692c-0.425,-0.338 -1.113,-0.546 -2.067,-0.625c-0.954,-0.075 -1.863,-0.071 -2.717,0.021c-0.858,0.092 -1.658,0.454 -2.413,1.079c-0.75,0.625 -1.433,1.479 -2.05,2.558c-0.617,1.079 -1.038,2.233 -1.267,3.458c-0.229,1.225 -0.025,2.292 0.613,3.2c0.633,0.908 1.65,1.517 3.046,1.821c1.392,0.304 2.738,0.429 4.029,0.371c1.296,-0.058 2.388,-0.408 3.275,-1.042c0.892,-0.638 1.529,-1.479 1.925,-2.529c0.392,-1.05 0.579,-2.183 0.563,-3.396c-0.017,-1.213 -0.283,-2.304 -0.8,-3.271c-0.521,-0.967 -1.242,-1.629 -2.167,-1.988c-0.925,-0.358 -2.092,-0.458 -3.504,-0.308c-1.413,0.154 -2.879,0.638 -4.404,1.458c-1.525,0.817 -2.792,1.767 -3.808,2.842c-1.017,1.079 -1.671,2.154 -1.958,3.221c-0.292,1.067 0.021,1.946 0.942,2.633c0.917,0.683 2.271,1.108 4.058,1.267c1.788,0.158 3.354,0.046 4.696,-0.333c1.346,-0.379 2.296,-1.054 2.85,-2.029c0.554,-0.979 0.779,-2.063 0.671,-3.254c-0.108,-1.192 -0.596,-2.196 -1.458,-3.008c-0.867,-0.813 -1.808,-1.296 -2.825,-1.458c-1.021,-0.163 -1.85,-0.096 -2.492,0.2c-0.642,0.292 -1.083,0.708 -1.321,1.246c-0.233,0.538 -0.363,1.004 -0.375,1.404c-0.017,0.4 -0.025,0.725 -0.025,0.975c0,0.246 0.021,0.479 0.058,0.7c0.038,0.221 0.125,0.542 0.263,0.958c0.142,0.417 0.317,0.938 0.525,1.558c0.208,0.617 0.421,1.358 0.638,2.221c0.213,0.863 0.408,1.8 0.579,2.808c0.175,1.008 0.317,2.042 0.429,3.104c0.113,1.063 0.225,2.083 0.338,3.058c0.113,0.979 0.213,1.921 0.292,2.833c0.083,0.917 0.129,1.871 0.142,2.867c0.013,1 0.021,2.017 0.021,3.05l0,11.533c0,1 0.004,2 0.013,3.004c0.008,1.004 0.067,1.967 0.175,2.879c0.108,0.917 0.238,1.833 0.388,2.75c0.154,0.921 0.263,1.929 0.325,3.025c0.067,1.096 0.1,2.233 0.1,3.404l0,7.108c0,1.192 0.008,2.425 0.017,3.7c0.008,1.271 0.025,2.583 0.046,3.938c0.021,1.358 0.029,2.7 0.029,4.029l0,13.438c0,1.096 -0.004,2.196 -0.013,3.308c-0.008,1.117 -0.033,2.267 -0.075,3.458c-0.038,1.188 -0.067,2.442 -0.075,3.754c-0.013,1.313 -0.017,2.638 -0.017,3.975l0,7.146c0,1.083 -0.004,2.283 -0.017,3.6c-0.008,1.317 -0.083,2.692 -0.229,4.117c-0.146,1.429 -0.3,2.733 -0.467,3.913c-0.167,1.179 -0.258,2.154 -0.271,2.925c-0.013,0.771 -0.029,1.471 -0.05,2.1c-0.021,0.629 -0.063,1.317 -0.133,2.063c-0.067,0.746 -0.138,1.454 -0.208,2.129c-0.071,0.675 -0.121,1.196 -0.142,1.563l-0.017,0.275l0.05,-0.825" style="fill:none;fill-rule:nonzero;stroke:#c2361a;stroke-width:7.08px;"/></g><g><path d="M570.433,101.15c-0.075,-0.283 -0.15,-0.688 -0.238,-1.217c-0.083,-0.529 -0.129,-1.017 -0.142,-1.467c-0.008,-0.45 -0.067,-0.842 -0.175,-1.179c-0.108,-0.338 -0.308,-0.633 -0.604,-0.892c-0.296,-0.254 -0.721,-0.463 -1.279,-0.617c-0.554,-0.158 -1.283,-0.221 -2.183,-0.188c-0.896,0.029 -1.871,0.367 -2.925,1.008c-1.05,0.638 -1.917,1.538 -2.596,2.7c-0.679,1.163 -0.996,2.438 -0.946,3.829c0.05,1.396 0.767,2.583 2.154,3.571c1.388,0.988 3.146,1.533 5.279,1.642c2.133,0.104 4.058,-0.358 5.775,-1.388c1.721,-1.029 2.938,-2.458 3.654,-4.292c0.721,-1.833 0.871,-3.671 0.45,-5.517c-0.417,-1.85 -1.538,-3.146 -3.354,-3.892c-1.821,-0.746 -3.775,-0.896 -5.867,-0.442c-2.088,0.45 -3.963,1.475 -5.625,3.067c-1.658,1.596 -2.925,3.417 -3.804,5.467c-0.875,2.05 -0.921,3.813 -0.138,5.283c0.783,1.475 2.471,2.271 5.058,2.396c2.592,0.125 4.875,-0.4 6.858,-1.571c1.983,-1.175 3.113,-2.7 3.392,-4.588c0.279,-1.888 -0.371,-3.683 -1.946,-5.388c-1.575,-1.704 -3.463,-2.738 -5.663,-3.108c-2.196,-0.371 -3.946,-0.021 -5.246,1.046c-1.3,1.063 -2.046,2.333 -2.246,3.8c-0.196,1.471 0.054,2.65 0.75,3.542c0.696,0.888 1.517,1.358 2.463,1.413c0.946,0.05 1.696,-0.267 2.25,-0.954c0.554,-0.688 0.908,-1.367 1.063,-2.038c0.154,-0.667 0.217,-1.092 0.196,-1.275c-0.025,-0.179 -0.196,0.046 -0.508,0.675c-0.317,0.633 -0.592,1.675 -0.833,3.129c-0.242,1.454 -0.383,3.171 -0.429,5.15c-0.05,1.979 -0.071,4.071 -0.071,6.271l0,22.575c0,1.588 0.017,3.1 0.058,4.542c0.038,1.442 0.067,2.938 0.088,4.492c0.025,1.55 0.021,3.142 -0.008,4.775c-0.025,1.633 -0.079,3.179 -0.163,4.646c-0.079,1.463 -0.125,2.854 -0.138,4.163c-0.013,1.313 -0.021,2.608 -0.021,3.896c0,1.283 0.042,2.613 0.129,3.988c0.088,1.371 0.163,2.838 0.229,4.4c0.063,1.563 0.096,3.163 0.096,4.804l0,33.217c0,1.654 0.033,3.258 0.1,4.813c0.067,1.554 0.163,3.029 0.283,4.421c0.121,1.396 0.25,2.654 0.379,3.783c0.133,1.125 0.238,2.046 0.321,2.763c0.083,0.713 0.154,1.229 0.204,1.542c0.05,0.317 0.088,0.513 0.117,0.583c0.033,0.075 0.05,0.038 0.054,-0.108c0.004,-0.208 0.146,-0.563 0.425,-1.067" style="fill:none;fill-rule:nonzero;stroke:#c2361a;stroke-width:7.08px;"/></g><g><path d="M401.454,83.288l1.65,0c0.858,0 1.854,-0.004 2.988,-0.013c1.129,-0.008 2.229,-0.229 3.292,-0.663c1.067,-0.433 1.796,-1.15 2.188,-2.154c0.392,-1.008 0.375,-2.004 -0.054,-2.988c-0.433,-0.983 -1.275,-1.625 -2.533,-1.925c-1.254,-0.3 -2.446,-0.367 -3.571,-0.192c-1.125,0.175 -2.121,0.775 -2.996,1.792c-0.871,1.021 -1.508,2.375 -1.913,4.071c-0.408,1.692 -0.454,3.408 -0.142,5.146c0.313,1.742 1.146,3.129 2.496,4.163c1.358,1.033 3.004,1.667 4.95,1.896c2.838,0.329 6.225,-0.596 10.163,-2.779" style="fill:none;fill-rule:nonzero;stroke:#c2361a;stroke-width:3.54px;"/></g><g><path d="M574.35,76.362c0.196,-0.1 0.842,-0.246 1.946,-0.433c1.1,-0.183 2.392,-0.425 3.871,-0.721c1.479,-0.296 2.854,-0.725 4.125,-1.279c1.271,-0.558 2.229,-1.225 2.871,-1.996c0.642,-0.775 1.004,-1.567 1.083,-2.379c0.083,-0.813 -0.188,-1.496 -0.808,-2.046c-0.617,-0.55 -1.517,-0.929 -2.696,-1.142c-1.179,-0.213 -2.438,-0.296 -3.775,-0.246c-1.338,0.046 -2.579,0.442 -3.733,1.179c-1.154,0.742 -2.158,1.879 -3.013,3.421c-0.854,1.538 -1.379,3.35 -1.583,5.438c-0.204,2.083 0.263,4.017 1.4,5.804c1.138,1.783 2.817,3.05 5.038,3.804c2.221,0.75 4.546,1.121 6.979,1.113c3.671,-0.017 6.854,-0.654 9.55,-1.913" style="fill:none;fill-rule:nonzero;stroke:#c2361a;stroke-width:3.54px;"/></g><g><path d="M648.633,218.636c0,0.308 -0.038,0.833 -0.113,1.579c-0.075,0.742 -0.442,1.938 -1.104,3.592c-0.979,2.425 -2.333,5.421 -4.067,8.988" style="fill:none;fill-rule:nonzero;stroke:#c2361a;stroke-width:3.54px;"/></g><g><path d="M837.296,95.226c-0.346,0 -0.7,-0.004 -1.067,-0.013c-0.367,-0.008 -0.667,-0.025 -0.896,-0.046c-0.229,-0.021 -0.496,-0.029 -0.796,-0.029c-0.304,0 -0.646,0.021 -1.029,0.067c-0.379,0.046 -0.796,0.304 -1.238,0.771c-0.442,0.467 -0.829,1.104 -1.163,1.917c-0.329,0.813 -0.538,1.692 -0.617,2.642c-0.079,0.946 -0.021,1.9 0.179,2.854c0.196,0.954 0.583,1.821 1.163,2.608c0.579,0.788 1.196,1.413 1.854,1.871c0.658,0.458 1.325,0.775 2,0.946c0.675,0.175 1.454,0.163 2.338,-0.029c0.883,-0.196 1.808,-0.775 2.783,-1.742c0.975,-0.963 1.821,-2.083 2.542,-3.358c0.721,-1.271 1.221,-2.421 1.504,-3.446c0.279,-1.025 0.325,-1.888 0.133,-2.588c-0.192,-0.7 -0.775,-1.296 -1.754,-1.788c-0.979,-0.492 -2.013,-0.9 -3.096,-1.221c-1.088,-0.317 -2.1,-0.558 -3.033,-0.717c-0.938,-0.158 -1.825,-0.2 -2.658,-0.117c-0.838,0.079 -1.563,0.363 -2.179,0.846c-0.617,0.479 -1.138,1.1 -1.571,1.858c-0.433,0.758 -0.746,1.696 -0.938,2.821c-0.196,1.121 -0.125,2.217 0.2,3.279c0.329,1.063 1.033,1.838 2.117,2.317c1.083,0.483 2.213,0.738 3.392,0.767c1.179,0.033 2.192,-0.192 3.038,-0.675c0.846,-0.479 1.417,-1.213 1.713,-2.204c0.292,-0.988 0.267,-2 -0.083,-3.025c-0.346,-1.029 -0.954,-1.817 -1.825,-2.367c-0.867,-0.554 -1.758,-0.75 -2.675,-0.596c-0.913,0.15 -1.625,0.796 -2.129,1.929c-0.508,1.133 -0.696,2.225 -0.558,3.275c0.133,1.054 0.758,1.704 1.871,1.958c1.113,0.254 2.158,0.071 3.142,-0.554c0.983,-0.621 1.583,-1.488 1.804,-2.6c0.217,-1.113 0.079,-1.929 -0.421,-2.454c-0.5,-0.525 -1.033,-0.713 -1.6,-0.554c-0.571,0.158 -0.892,0.346 -0.963,0.558c-0.1,0.296 1.233,0.792 3.996,1.479" style="fill:none;fill-rule:nonzero;stroke:#63b633;stroke-width:7.08px;"/></g><g><path d="M969.454,95.682c0.2,-0.063 0.038,-0.325 -0.483,-0.783c-0.525,-0.458 -1.121,-0.7 -1.783,-0.725c-0.667,-0.025 -1.342,0.113 -2.017,0.417c-0.679,0.304 -1.292,0.896 -1.838,1.767c-0.542,0.875 -0.929,1.871 -1.154,2.988c-0.225,1.121 -0.283,2.2 -0.179,3.242c0.108,1.038 0.567,1.871 1.379,2.5c0.813,0.625 1.871,1.063 3.175,1.304c1.3,0.246 2.746,0.321 4.329,0.221c1.579,-0.096 2.988,-0.413 4.217,-0.946c1.229,-0.533 2.088,-1.133 2.579,-1.796c0.492,-0.667 0.758,-1.45 0.8,-2.363c0.042,-0.908 -0.125,-1.929 -0.5,-3.063c-0.375,-1.129 -0.954,-2.113 -1.746,-2.95c-0.788,-0.838 -1.679,-1.4 -2.675,-1.696c-0.996,-0.296 -2.05,-0.383 -3.163,-0.267c-1.113,0.117 -2.213,0.575 -3.296,1.379c-1.088,0.808 -2.038,1.788 -2.854,2.942c-0.813,1.158 -1.342,2.367 -1.588,3.633c-0.246,1.267 -0.029,2.317 0.646,3.15c0.679,0.833 1.667,1.321 2.963,1.454c1.3,0.133 2.475,-0.058 3.521,-0.579c1.05,-0.517 1.758,-1.354 2.117,-2.508c0.363,-1.158 0.325,-2.296 -0.121,-3.413c-0.442,-1.121 -1.217,-1.804 -2.329,-2.054c-1.108,-0.246 -2.088,0.021 -2.938,0.8c-0.85,0.783 -1.363,1.738 -1.542,2.863c-0.175,1.129 0.121,1.925 0.892,2.392c0.767,0.467 1.738,0.525 2.904,0.171c1.171,-0.354 2.004,-0.963 2.496,-1.829c0.496,-0.867 0.758,-1.463 0.788,-1.796c0.042,-0.463 -0.425,-0.346 -1.396,0.358" style="fill:none;fill-rule:nonzero;stroke:#63b633;stroke-width:7.08px;"/></g><g><path d="M839.392,106.987c-0.263,0 -0.654,0.079 -1.175,0.238c-0.525,0.163 -0.925,0.588 -1.204,1.275c-0.283,0.692 -0.417,1.567 -0.413,2.629c0.008,1.058 0.283,2.217 0.817,3.467c0.538,1.254 1.171,2.446 1.9,3.579c0.725,1.129 1.483,2.154 2.271,3.075c0.788,0.917 1.633,1.758 2.538,2.525c0.904,0.767 1.9,1.454 2.975,2.067c1.079,0.613 2.167,1.213 3.263,1.796c1.096,0.588 2.146,1.204 3.15,1.85c1.004,0.65 2.046,1.254 3.125,1.813c1.079,0.563 2.225,1.058 3.438,1.488c1.208,0.429 2.433,0.863 3.671,1.296c1.233,0.433 2.433,0.95 3.588,1.55c1.158,0.596 2.363,1.263 3.608,1.988c1.25,0.729 2.65,1.392 4.2,1.983c1.546,0.596 3.171,1.142 4.867,1.642c1.7,0.5 3.358,0.95 4.971,1.358c1.617,0.404 3.221,0.846 4.821,1.321c1.6,0.471 3.192,1 4.771,1.583c1.583,0.579 3.108,1.175 4.583,1.783c1.471,0.608 2.946,1.196 4.421,1.754c1.479,0.563 3.038,1.025 4.679,1.383c1.646,0.363 3.304,0.738 4.979,1.129c1.675,0.388 3.233,0.917 4.679,1.583c1.446,0.671 2.946,1.375 4.508,2.113c1.563,0.742 3.229,1.4 4.996,1.975c1.763,0.575 3.488,1.046 5.163,1.417c1.679,0.371 3.225,0.817 4.646,1.346c1.417,0.529 2.7,1.179 3.842,1.95c1.146,0.771 2.279,1.563 3.413,2.375c1.129,0.813 2.292,1.517 3.488,2.113c1.192,0.596 2.404,1.138 3.625,1.625c1.225,0.488 2.404,1.008 3.546,1.563c1.142,0.55 2.158,1.204 3.05,1.954c0.888,0.754 1.708,1.558 2.463,2.417c0.75,0.858 1.471,1.742 2.163,2.65c0.696,0.913 1.338,1.879 1.925,2.908c0.592,1.025 1.146,2.138 1.667,3.338c0.517,1.2 1.017,2.4 1.492,3.6c0.479,1.196 0.908,2.3 1.288,3.313c0.379,1.008 0.688,1.975 0.925,2.896c0.238,0.921 0.413,1.871 0.517,2.85c0.104,0.979 0.196,2.058 0.263,3.233c0.071,1.179 0.163,2.379 0.271,3.608c0.113,1.225 0.229,2.392 0.35,3.488c0.121,1.1 0.204,2.158 0.25,3.171c0.042,1.013 0.067,2.05 0.067,3.113l0,6.9c0,1.175 -0.017,2.271 -0.046,3.279c-0.029,1.008 -0.046,1.942 -0.058,2.796c-0.008,0.854 -0.042,1.692 -0.088,2.513c-0.05,0.821 -0.1,1.588 -0.154,2.304c-0.05,0.717 -0.083,1.288 -0.092,1.717c-0.013,0.425 -0.021,0.7 -0.021,0.817l0,0.067l-0.017,-0.213c-0.021,-0.317 -0.083,-0.821 -0.192,-1.513" style="fill:none;fill-rule:nonzero;stroke:#63b633;stroke-width:7.08px;"/></g><g><path d="M834.108,233.583c-0.058,-0.3 -0.1,-0.767 -0.121,-1.404c-0.025,-0.633 0.079,-1.388 0.313,-2.258c0.233,-0.871 0.463,-1.838 0.692,-2.904c0.229,-1.071 0.367,-2.229 0.413,-3.475c0.046,-1.25 0.071,-2.517 0.071,-3.804l0,-3.775c0,-1.229 -0.025,-2.383 -0.071,-3.463c-0.05,-1.079 -0.121,-2.138 -0.225,-3.179c-0.1,-1.046 -0.188,-2.088 -0.258,-3.133c-0.071,-1.046 -0.142,-2.046 -0.213,-3c-0.071,-0.954 -0.175,-1.871 -0.313,-2.758c-0.142,-0.883 -0.296,-1.763 -0.467,-2.646c-0.171,-0.879 -0.392,-1.758 -0.658,-2.638c-0.271,-0.883 -0.629,-1.804 -1.075,-2.775c-0.45,-0.967 -0.967,-1.967 -1.55,-3c-0.583,-1.033 -1.175,-2.029 -1.771,-2.996c-0.6,-0.967 -1.254,-1.867 -1.967,-2.704c-0.713,-0.833 -1.488,-1.633 -2.325,-2.392c-0.838,-0.763 -1.671,-1.504 -2.492,-2.225c-0.821,-0.721 -1.608,-1.433 -2.363,-2.142c-0.75,-0.708 -1.496,-1.45 -2.233,-2.229c-0.738,-0.779 -1.496,-1.608 -2.275,-2.496c-0.779,-0.883 -1.596,-1.817 -2.454,-2.8c-0.854,-0.979 -1.758,-1.963 -2.708,-2.958c-0.95,-0.992 -1.929,-1.904 -2.942,-2.733c-1.013,-0.829 -1.988,-1.529 -2.933,-2.104c-0.946,-0.575 -1.879,-1.154 -2.8,-1.742c-0.921,-0.579 -1.863,-1.25 -2.825,-2c-0.958,-0.754 -1.846,-1.588 -2.65,-2.504c-0.808,-0.913 -1.558,-1.925 -2.25,-3.038c-0.692,-1.108 -1.429,-2.204 -2.213,-3.292c-0.788,-1.083 -1.588,-2.158 -2.408,-3.221c-0.821,-1.067 -1.554,-2.15 -2.204,-3.263c-0.65,-1.113 -1.179,-2.296 -1.588,-3.558c-0.408,-1.258 -0.833,-2.546 -1.267,-3.863c-0.433,-1.317 -0.9,-2.642 -1.404,-3.979c-0.5,-1.333 -1.054,-2.675 -1.658,-4.025c-0.604,-1.346 -1.2,-2.667 -1.779,-3.967c-0.583,-1.3 -1.079,-2.571 -1.492,-3.817c-0.413,-1.246 -0.763,-2.538 -1.058,-3.867c-0.296,-1.333 -0.596,-2.708 -0.9,-4.125c-0.304,-1.417 -0.604,-2.763 -0.896,-4.038c-0.296,-1.271 -0.567,-2.433 -0.813,-3.483c-0.246,-1.05 -0.446,-2.104 -0.6,-3.167c-0.154,-1.058 -0.25,-2.221 -0.283,-3.488c-0.038,-1.267 -0.033,-2.583 0.004,-3.95c0.033,-1.367 0.138,-2.721 0.308,-4.058c0.167,-1.342 0.392,-2.629 0.667,-3.867c0.279,-1.242 0.671,-2.5 1.179,-3.783c0.508,-1.283 1.108,-2.6 1.8,-3.958c0.692,-1.354 1.425,-2.679 2.192,-3.979c0.771,-1.296 1.463,-2.658 2.079,-4.079c0.617,-1.421 1.117,-2.858 1.5,-4.308c0.379,-1.45 0.742,-2.829 1.083,-4.129c0.342,-1.3 0.792,-2.575 1.35,-3.821c0.558,-1.246 1.242,-2.446 2.054,-3.596c0.813,-1.15 1.65,-2.179 2.508,-3.092c0.863,-0.908 1.775,-1.817 2.742,-2.725c0.967,-0.908 2.029,-1.854 3.183,-2.833c1.154,-0.979 2.488,-2.008 3.992,-3.088c1.504,-1.079 3.1,-2.1 4.779,-3.063c1.679,-0.963 3.296,-1.717 4.85,-2.258c1.554,-0.542 3.192,-0.996 4.913,-1.363c1.721,-0.363 3.638,-0.792 5.75,-1.283c2.108,-0.492 4.388,-1.046 6.825,-1.671c2.442,-0.621 4.975,-1.283 7.604,-1.983c2.629,-0.696 5.158,-1.254 7.596,-1.675c2.433,-0.421 4.683,-0.696 6.746,-0.825c2.067,-0.129 4.158,-0.233 6.279,-0.313c2.121,-0.079 4.354,-0.183 6.692,-0.3c2.342,-0.121 4.671,-0.2 6.988,-0.233c2.317,-0.038 4.458,-0.05 6.425,-0.042c1.967,0.013 3.883,0.121 5.746,0.333c1.863,0.213 3.733,0.458 5.604,0.733c1.875,0.275 3.7,0.517 5.479,0.721c1.775,0.2 3.479,0.471 5.104,0.808c1.625,0.338 3.242,0.779 4.85,1.329c1.608,0.55 3.3,1.15 5.075,1.796c1.775,0.646 3.592,1.288 5.458,1.925c1.863,0.642 3.654,1.338 5.371,2.092c1.717,0.75 3.367,1.571 4.954,2.458c1.583,0.888 3.088,1.779 4.513,2.671c1.425,0.892 2.775,1.788 4.058,2.688c1.279,0.9 2.479,1.796 3.6,2.688c1.117,0.896 2.238,1.788 3.363,2.675c1.121,0.892 2.242,1.779 3.358,2.658c1.117,0.879 2.158,1.817 3.125,2.804c0.967,0.988 1.904,2.025 2.804,3.117c0.9,1.092 1.779,2.175 2.633,3.25c0.854,1.075 1.621,2.142 2.296,3.208c0.675,1.063 1.325,2.1 1.954,3.113c0.625,1.017 1.271,2.05 1.929,3.1c0.658,1.054 1.304,2.15 1.942,3.292c0.638,1.138 1.225,2.258 1.758,3.358c0.533,1.096 0.942,2.117 1.221,3.067c0.283,0.946 0.529,1.875 0.729,2.783c0.204,0.913 0.404,1.829 0.596,2.75c0.192,0.921 0.388,1.808 0.592,2.667c0.204,0.854 0.367,1.604 0.492,2.254c0.125,0.646 0.238,1.117 0.338,1.4l0.075,0.221l-0.079,-0.208c-0.15,-0.4 -0.617,-1.654 -1.404,-3.767" style="fill:none;fill-rule:nonzero;stroke:#63b633;stroke-width:7.08px;"/></g><g><path d="M852.792,91.033c0.417,0.104 0.858,0.133 1.325,0.088c0.463,-0.042 0.946,-0.296 1.446,-0.763c0.5,-0.463 1.179,-0.942 2.046,-1.442c0.867,-0.496 1.988,-0.963 3.367,-1.4c1.375,-0.438 3.058,-0.875 5.05,-1.308c1.992,-0.433 4.175,-0.892 6.546,-1.367c2.375,-0.475 4.717,-0.888 7.033,-1.238c2.313,-0.354 4.546,-0.621 6.7,-0.808c2.15,-0.188 4.229,-0.333 6.225,-0.438c2,-0.104 4.029,-0.179 6.079,-0.233c2.05,-0.054 4.1,-0.083 6.15,-0.096c2.05,-0.013 3.954,-0.004 5.708,0.025c1.754,0.025 3.354,0.171 4.8,0.438c1.446,0.263 2.938,0.604 4.471,1.025c1.533,0.421 3.054,0.858 4.571,1.317c1.513,0.454 2.879,0.892 4.1,1.308c1.221,0.417 2.213,0.796 2.975,1.133c0.767,0.338 1.333,0.629 1.7,0.875c0.371,0.246 0.583,0.408 0.646,0.488c0.058,0.079 0.083,0.117 0.075,0.117c-0.008,0 -0.079,-0.117 -0.204,-0.354c-0.129,-0.238 -0.242,-0.675 -0.346,-1.313c-0.104,-0.638 -0.233,-1.363 -0.392,-2.179c-0.158,-0.817 -0.358,-1.663 -0.6,-2.542c-0.242,-0.879 -0.479,-1.683 -0.713,-2.413c-0.233,-0.729 -0.417,-1.283 -0.542,-1.663c-0.125,-0.375 -0.221,-0.588 -0.283,-0.629c-0.063,-0.042 -0.079,0.167 -0.054,0.621c0.025,0.45 0.263,1.042 0.708,1.767c0.446,0.725 1.05,1.492 1.813,2.3c0.763,0.808 1.508,1.629 2.229,2.471c0.725,0.838 1.288,1.667 1.688,2.479c0.404,0.813 0.525,1.513 0.367,2.1c-0.158,0.588 -0.8,1.046 -1.933,1.379c-1.129,0.333 -2.375,0.617 -3.733,0.85c-1.363,0.238 -2.242,0.388 -2.642,0.463l-0.3,0.054l0.9,-0.163" style="fill:none;fill-rule:nonzero;stroke:#d2d2d2;stroke-width:3.54px;"/></g><g><path d="M939.104,110.427c0.196,-0.004 0.529,-0.096 1.004,-0.267c0.296,-0.108 0.121,-0.138 -0.525,-0.083c-0.646,0.054 -1.713,0.283 -3.2,0.688c-1.488,0.4 -3.15,0.883 -4.979,1.446c-1.833,0.563 -3.817,1.225 -5.954,1.988c-2.138,0.763 -4.254,1.483 -6.346,2.158c-2.092,0.675 -4.15,1.204 -6.175,1.579c-2.025,0.375 -4.058,0.658 -6.092,0.846c-2.038,0.188 -4.05,0.304 -6.033,0.346c-1.988,0.046 -4.004,0.067 -6.058,0.071c-2.054,0 -4.013,-0.004 -5.879,-0.013c-1.867,-0.008 -3.417,-0.096 -4.646,-0.263c-1.229,-0.163 -2.3,-0.367 -3.204,-0.613c-0.904,-0.242 -1.913,-0.429 -3.029,-0.554c-1.113,-0.125 -2.258,-0.233 -3.433,-0.325c-1.175,-0.092 -2.3,-0.225 -3.367,-0.404c-1.071,-0.175 -2.042,-0.429 -2.921,-0.758c-0.879,-0.329 -1.725,-0.642 -2.546,-0.942c-0.821,-0.296 -1.558,-0.529 -2.204,-0.696c-0.65,-0.167 -1.104,-0.296 -1.363,-0.388c-0.254,-0.092 -0.388,-0.225 -0.396,-0.392c-0.004,-0.167 0.163,-0.467 0.5,-0.9c0.333,-0.433 0.788,-0.988 1.35,-1.663c0.567,-0.671 1.088,-1.313 1.567,-1.925c0.479,-0.613 0.942,-1.138 1.388,-1.571c0.446,-0.429 0.904,-0.783 1.371,-1.063c0.463,-0.279 0.863,-0.471 1.196,-0.583c0.329,-0.108 0.542,-0.15 0.629,-0.121c0.092,0.025 -0.142,0.3 -0.696,0.821c-0.554,0.521 -1.358,1.196 -2.417,2.025c-1.054,0.829 -2.071,1.538 -3.05,2.129c-0.979,0.588 -1.858,1.013 -2.646,1.279c-0.788,0.263 -1.475,0.433 -2.063,0.508c-0.583,0.079 -1.004,0.129 -1.258,0.163c-0.258,0.029 -0.392,0.079 -0.408,0.146c-0.017,0.067 0.146,0.225 0.492,0.471c0.346,0.246 0.875,0.6 1.583,1.071c0.708,0.467 1.475,1.029 2.292,1.679c0.821,0.654 1.638,1.317 2.45,1.983c0.813,0.671 1.542,1.275 2.196,1.821c0.654,0.542 1.271,0.988 1.85,1.329c0.871,0.513 1.721,0.808 2.55,0.888" style="fill:none;fill-rule:nonzero;stroke:#d2d2d2;stroke-width:3.54px;"/></g><g><path d="M802.392,79.097l-2.008,0c-0.096,0 -0.154,0.175 -0.163,0.525c-0.013,0.354 0.013,0.992 0.079,1.917c0.063,0.925 0.275,1.942 0.633,3.046c0.354,1.1 0.679,2.05 0.967,2.846c0.288,0.796 0.471,1.371 0.55,1.721c0.083,0.35 0.117,0.488 0.108,0.413c-0.008,-0.071 -0.054,-0.708 -0.133,-1.913c-0.079,-1.204 -0.071,-2.946 0.029,-5.229c0.1,-2.288 0.517,-4.346 1.25,-6.179c0.733,-1.838 1.733,-3.129 2.996,-3.879c1.258,-0.75 2.475,-1.058 3.642,-0.929c1.167,0.133 2.083,0.746 2.75,1.838c0.667,1.088 1.138,2.363 1.413,3.817c0.271,1.458 0.471,2.667 0.6,3.638c0.125,0.967 0.196,1.575 0.208,1.821l0.013,0.117l0.008,-0.546c0,-0.529 0.117,-1.421 0.354,-2.671c0.242,-1.254 0.713,-2.413 1.413,-3.479c0.704,-1.071 1.563,-1.829 2.575,-2.279c1.017,-0.45 2.096,-0.6 3.25,-0.454c1.15,0.15 2.167,0.721 3.046,1.717c0.875,0.992 1.458,2.167 1.742,3.517c0.288,1.35 0.433,2.567 0.45,3.646c0.013,1.079 0.046,1.95 0.104,2.617" style="fill:none;fill-rule:nonzero;stroke:#63b633;stroke-width:3.54px;"/></g><g><path d="M979.663,75.359c-0.175,0.108 -0.004,0.858 0.517,2.246c0.521,1.392 1.067,2.821 1.625,4.296c0.563,1.479 0.975,2.571 1.242,3.283c0.263,0.708 0.417,1.054 0.463,1.029c0.05,-0.025 0.075,-0.558 0.075,-1.6c0,-1.046 0.004,-2.463 0.013,-4.254c0.008,-1.796 0.221,-3.533 0.633,-5.208c0.413,-1.679 1.104,-2.879 2.079,-3.596c0.975,-0.717 2.008,-0.95 3.092,-0.692c1.088,0.258 2.1,1.038 3.038,2.342c0.938,1.304 1.7,2.754 2.283,4.354c0.583,1.596 0.938,2.967 1.063,4.108c0.125,1.138 0.188,1.858 0.179,2.158c-0.008,0.304 -0.038,0.275 -0.088,-0.083c-0.05,-0.354 0.013,-1.121 0.188,-2.3c0.179,-1.183 0.771,-2.479 1.783,-3.9c1.013,-1.417 2.246,-2.513 3.708,-3.283c1.458,-0.775 2.733,-1.013 3.821,-0.713c1.088,0.3 1.804,1.371 2.15,3.213c0.35,1.842 0.617,3.85 0.808,6.025c0.192,2.175 0.463,3.875 0.808,5.1c0.35,1.229 0.692,2.021 1.029,2.379l0.25,0.271l-0.754,-0.808" style="fill:none;fill-rule:nonzero;stroke:#63b633;stroke-width:3.54px;"/></g><g><path d="M1050.025,92.859c0.017,0.463 0.317,0.775 0.892,0.938c0.575,0.163 1.6,0.238 3.075,0.233c1.479,-0.008 3.367,-0.125 5.671,-0.346c2.3,-0.225 4.692,-0.492 7.171,-0.808c2.475,-0.317 4.308,-0.504 5.492,-0.567l1.092,-0.042l-0.429,0.038" style="fill:none;fill-rule:nonzero;stroke:#000;stroke-width:3.54px;"/></g><g><path d="M1050.847,105.161c0.021,-0.001 0.908,-0.028 2.661,-0.084c1.749,-0.059 4.007,-0.115 6.765,-0.168c2.758,-0.053 5.345,-0.084 7.763,-0.095c2.417,-0.01 3.525,0.118 3.324,0.395" style="fill:none;fill-rule:nonzero;stroke:#000;stroke-width:3.54px;"/></g><g><path d="M1168.696,94.289c0.358,0.054 0.663,0.025 0.921,-0.088c0.175,-0.075 0.092,-0.196 -0.25,-0.358c-0.342,-0.163 -1.1,-0.258 -2.279,-0.283c-1.179,-0.025 -2.346,0.167 -3.496,0.571c-1.15,0.4 -2.213,1.033 -3.188,1.892c-0.975,0.858 -1.733,1.813 -2.275,2.858c-0.546,1.05 -0.867,2.1 -0.958,3.158c-0.096,1.054 0.071,2.029 0.5,2.917c0.429,0.888 1.204,1.65 2.329,2.288c1.125,0.638 2.329,1.117 3.617,1.433c1.283,0.317 2.567,0.475 3.842,0.475c1.279,0.004 2.475,-0.258 3.596,-0.783c1.121,-0.525 2.146,-1.279 3.079,-2.267c0.929,-0.988 1.646,-2.15 2.15,-3.488c0.504,-1.338 0.788,-2.633 0.842,-3.892c0.054,-1.254 -0.146,-2.246 -0.6,-2.975c-0.454,-0.729 -1.154,-1.279 -2.1,-1.642c-0.95,-0.367 -1.983,-0.646 -3.104,-0.842c-1.121,-0.2 -2.267,-0.292 -3.442,-0.283c-1.175,0.008 -2.317,0.588 -3.421,1.738c-1.108,1.15 -1.929,2.592 -2.458,4.325c-0.533,1.733 -0.383,2.858 0.446,3.383c0.829,0.525 1.763,0.821 2.808,0.896c1.042,0.071 1.929,-0.025 2.654,-0.292c0.725,-0.267 1.171,-0.742 1.329,-1.417c0.163,-0.675 0.058,-1.342 -0.317,-2c-0.375,-0.658 -0.871,-1.121 -1.483,-1.388c-0.617,-0.267 -1.158,-0.392 -1.621,-0.371c-0.467,0.021 -0.796,0.233 -0.988,0.633c-0.192,0.4 -0.296,0.888 -0.308,1.463c-0.013,0.575 0.021,1.221 0.108,1.942c0.083,0.725 0.267,1.563 0.546,2.517c0.279,0.95 0.517,2.008 0.713,3.163c0.2,1.158 0.35,2.425 0.454,3.804c0.1,1.379 0.204,2.871 0.304,4.475c0.1,1.6 0.233,3.229 0.404,4.883c0.171,1.65 0.338,3.192 0.5,4.617c0.163,1.429 0.317,2.754 0.458,3.975c0.142,1.221 0.246,2.488 0.313,3.796c0.063,1.313 0.1,2.625 0.113,3.946c0.008,1.317 0.054,2.592 0.133,3.821c0.075,1.229 0.175,2.463 0.296,3.708c0.121,1.242 0.242,2.542 0.363,3.892c0.121,1.354 0.217,2.763 0.279,4.225c0.063,1.463 0.096,3.017 0.1,4.663l0,10c0,1.713 -0.042,3.513 -0.129,5.388c-0.083,1.879 -0.246,3.871 -0.488,5.979c-0.238,2.108 -0.488,4.304 -0.754,6.588c-0.263,2.283 -0.433,4.508 -0.513,6.675c-0.079,2.171 -0.092,4.113 -0.038,5.829c0.058,1.717 0.146,3.367 0.271,4.946c0.121,1.579 0.188,3.254 0.188,5.029c0.004,1.771 0.004,3.638 0.004,5.6c0,1.958 0.025,3.813 0.071,5.558c0.046,1.75 0.117,3.221 0.208,4.417c0.092,1.196 0.146,2.113 0.158,2.746c0.013,0.638 0.017,1.208 0.017,1.713c0,0.504 -0.054,0.992 -0.163,1.471l-0.083,0.358l0.246,-1.075" style="fill:none;fill-rule:nonzero;stroke:#63b633;stroke-width:7.08px;"/></g><g><path d="M1302.492,98.508c0.417,-0.138 0.867,-0.371 1.354,-0.708c0.483,-0.333 0.933,-0.688 1.35,-1.058c0.417,-0.375 0.742,-0.738 0.983,-1.096c0.242,-0.354 0.388,-0.696 0.433,-1.017c0.046,-0.325 -0.125,-0.621 -0.517,-0.892c-0.388,-0.267 -1.088,-0.429 -2.092,-0.488c-1.004,-0.058 -2.138,0.129 -3.4,0.571c-1.263,0.442 -2.442,1.163 -3.546,2.171c-1.108,1.008 -1.938,2.146 -2.5,3.417c-0.563,1.267 -0.871,2.517 -0.925,3.75c-0.054,1.229 0.229,2.308 0.854,3.233c0.629,0.925 1.6,1.567 2.917,1.925c1.317,0.358 2.742,0.458 4.267,0.308c1.529,-0.154 2.933,-0.704 4.213,-1.646c1.279,-0.942 2.292,-2.146 3.046,-3.613c0.75,-1.463 1.246,-2.813 1.483,-4.046c0.242,-1.233 0.225,-2.196 -0.046,-2.896c-0.271,-0.696 -0.808,-1.263 -1.6,-1.704c-0.796,-0.442 -1.688,-0.833 -2.675,-1.171c-0.992,-0.338 -1.975,-0.554 -2.958,-0.646c-0.983,-0.092 -1.917,0.025 -2.792,0.346c-0.875,0.325 -1.6,0.929 -2.175,1.817c-0.571,0.888 -0.908,1.804 -1,2.746c-0.096,0.946 0,1.729 0.288,2.35c0.283,0.625 0.683,1.071 1.2,1.35c0.517,0.275 0.954,0.433 1.317,0.479c0.358,0.05 0.65,0.071 0.867,0.071l0.483,0c0.104,0 0.179,0.033 0.221,0.1c0.042,0.063 0.075,0.329 0.096,0.8c0.021,0.471 0.033,1.125 0.033,1.963l0,6.408c0,1.208 -0.025,2.379 -0.071,3.513c-0.05,1.138 -0.117,2.271 -0.208,3.404c-0.096,1.133 -0.146,2.338 -0.158,3.604c-0.013,1.271 -0.021,2.6 -0.021,3.983l0,13.321c0,1.508 0.046,3.004 0.129,4.483c0.088,1.483 0.188,2.879 0.3,4.192c0.117,1.313 0.196,2.596 0.238,3.854c0.042,1.258 0.079,2.504 0.121,3.742c0.038,1.233 0.1,2.492 0.179,3.763c0.079,1.275 0.138,2.571 0.171,3.896c0.033,1.325 0.05,2.658 0.05,3.992c0,1.338 0.008,2.683 0.029,4.042c0.017,1.358 0.063,2.721 0.129,4.083c0.071,1.367 0.15,2.763 0.242,4.192c0.092,1.425 0.175,2.863 0.258,4.308c0.083,1.446 0.133,2.929 0.154,4.446c0.025,1.513 0.063,3.096 0.121,4.742c0.058,1.642 0.146,3.321 0.254,5.033c0.113,1.713 0.183,3.358 0.221,4.946c0.033,1.588 0.05,3.058 0.05,4.417l0,7.525c0,1.183 0.013,2.321 0.042,3.408c0.029,1.088 0.083,2.154 0.163,3.2c0.083,1.046 0.158,2.029 0.229,2.946c0.067,0.917 0.15,1.667 0.242,2.246c0.088,0.583 0.163,1.025 0.213,1.325c0.054,0.304 0.088,0.588 0.096,0.858c0.013,0.275 0.017,0.513 0.017,0.713c0,0.204 -0.054,0.325 -0.163,0.363" style="fill:none;fill-rule:nonzero;stroke:#63b633;stroke-width:7.08px;"/></g><g><path d="M1114.275,79.414c0.35,-0.046 0.821,-0.258 1.421,-0.642c0.383,-0.242 0.613,-0.279 0.683,-0.104c0.075,0.171 0.229,0.754 0.463,1.75c0.233,0.996 0.492,2.2 0.767,3.617c0.275,1.417 0.496,2.771 0.663,4.063c0.167,1.288 0.263,2.233 0.288,2.842c0.021,0.604 0.058,0.838 0.108,0.696c0.05,-0.142 0.121,-0.904 0.221,-2.283c0.1,-1.379 0.263,-3.158 0.488,-5.338c0.229,-2.183 0.571,-4.121 1.025,-5.813c0.458,-1.696 1.046,-2.842 1.767,-3.438c0.717,-0.596 1.467,-0.808 2.25,-0.633c0.783,0.175 1.454,0.821 2.008,1.933c0.558,1.113 0.979,2.321 1.263,3.621c0.283,1.3 0.458,2.354 0.525,3.167c0.071,0.813 0.104,1.308 0.104,1.483c0,0.171 0.021,0.179 0.067,0.017c0.046,-0.163 0.158,-0.571 0.342,-1.221c0.183,-0.65 0.725,-1.738 1.633,-3.258c0.904,-1.525 2.038,-2.725 3.396,-3.6c1.358,-0.875 2.592,-1.204 3.696,-0.983c1.108,0.221 2.05,1.008 2.821,2.363c0.771,1.354 1.342,2.783 1.713,4.288c0.371,1.504 0.588,2.758 0.646,3.763c0.058,1.004 0.088,1.629 0.088,1.875c0,0.346 -0.408,0.475 -1.225,0.379" style="fill:none;fill-rule:nonzero;stroke:#63b633;stroke-width:3.54px;"/></g><g><path d="M1317.804,77.09c0.325,0.121 0.692,0.725 1.096,1.813c0.408,1.088 0.7,2.4 0.883,3.942c0.188,1.542 0.329,2.842 0.438,3.9c0.104,1.058 0.196,1.746 0.275,2.054c0.079,0.308 0.146,0.383 0.2,0.221c0.058,-0.167 0.192,-0.575 0.413,-1.229c0.221,-0.654 0.604,-1.954 1.15,-3.896c0.546,-1.946 1.188,-3.854 1.925,-5.729c0.733,-1.879 1.471,-3.163 2.208,-3.858c0.742,-0.696 1.488,-0.792 2.25,-0.296c0.758,0.5 1.475,1.613 2.15,3.342c0.671,1.729 1.238,3.404 1.692,5.025c0.454,1.617 0.75,2.813 0.883,3.588c0.133,0.775 0.2,1.192 0.2,1.254c0.004,0.063 0.083,-0.354 0.242,-1.254c0.163,-0.9 0.7,-2.188 1.621,-3.858c0.921,-1.675 2.088,-3.129 3.492,-4.354c1.408,-1.229 2.771,-1.85 4.088,-1.858c1.317,-0.008 2.417,0.746 3.308,2.263c0.888,1.517 1.55,3.258 1.992,5.225c0.442,1.967 0.75,3.6 0.929,4.9c0.179,1.3 0.329,2.154 0.45,2.567c0.163,0.563 0.367,0.521 0.613,-0.117" style="fill:none;fill-rule:nonzero;stroke:#63b633;stroke-width:3.54px;"/></g></svg>