<?xml version="1.0" encoding="UTF-8" standalone="no"?><!DOCTYPE svg PUBLIC "-//W3C//DTD SVG 1.1//EN" "http://www.w3.org/Graphics/SVG/1.1/DTD/svg11.dtd"><svg width="100%" height="100%" viewBox="0 0 370 79" version="1.1" xmlns="http://www.w3.org/2000/svg" xmlns:xlink="http://www.w3.org/1999/xlink" xml:space="preserve" xmlns:serif="http://www.serif.com/" style="fill-rule:evenodd;clip-rule:evenodd;stroke-linecap:round;stroke-linejoin:round;stroke-miterlimit:10;"><rect id="Artboard1" x="0" y="0" width="369.84" height="78.72" style="fill:#fff;"/><path d="M40.725,15.185c0.008,0.041 0.1,0.178 0.275,0.412c0.175,0.234 0.408,0.507 0.698,0.821c0.29,0.314 0.614,0.688 0.972,1.124c0.358,0.436 0.748,0.877 1.17,1.324c0.423,0.446 0.863,0.848 1.32,1.204c0.457,0.356 0.883,0.672 1.277,0.95c0.394,0.277 0.745,0.536 1.052,0.778c0.307,0.241 0.585,0.467 0.835,0.678c0.25,0.21 0.481,0.401 0.694,0.573c0.213,0.171 0.424,0.334 0.636,0.487c0.211,0.153 0.419,0.308 0.623,0.463c0.204,0.155 0.405,0.322 0.603,0.501c0.197,0.179 0.387,0.366 0.57,0.563c0.183,0.197 0.368,0.383 0.557,0.559c0.189,0.176 0.386,0.335 0.589,0.478c0.204,0.142 0.402,0.276 0.595,0.403c0.193,0.127 0.367,0.253 0.521,0.379c0.155,0.126 0.3,0.257 0.436,0.393c0.136,0.136 0.279,0.287 0.429,0.453c0.15,0.166 0.306,0.343 0.469,0.53c0.163,0.187 0.321,0.36 0.474,0.52c0.153,0.159 0.306,0.287 0.457,0.382c0.151,0.095 0.289,0.156 0.414,0.183c0.125,0.027 0.234,0.04 0.328,0.04c0.093,0 0.17,0 0.231,0c0.084,0 0.032,-0.033 -0.155,-0.1" style="fill:none;fill-rule:nonzero;stroke:#000;stroke-width:0.85px;"/><path d="M56.475,29.206l0,0.495c0,0.034 0.005,0.044 0.016,0.031c0.01,-0.013 0.036,-0.046 0.078,-0.098c0.042,-0.052 0.182,-0.206 0.42,-0.462c0.238,-0.256 0.535,-0.559 0.889,-0.91c0.354,-0.35 0.726,-0.704 1.114,-1.061c0.389,-0.357 0.769,-0.703 1.142,-1.038c0.373,-0.335 0.725,-0.652 1.057,-0.951c0.332,-0.3 0.647,-0.586 0.945,-0.86c0.298,-0.273 0.582,-0.527 0.853,-0.762c0.271,-0.235 0.537,-0.452 0.8,-0.653c0.263,-0.2 0.526,-0.399 0.791,-0.595c0.265,-0.197 0.525,-0.407 0.781,-0.632c0.256,-0.225 0.509,-0.46 0.759,-0.705c0.25,-0.245 0.499,-0.488 0.747,-0.729c0.248,-0.241 0.501,-0.482 0.761,-0.723c0.26,-0.241 0.511,-0.47 0.753,-0.687c0.242,-0.217 0.472,-0.426 0.691,-0.625c0.219,-0.2 0.437,-0.397 0.653,-0.592c0.217,-0.195 0.435,-0.385 0.656,-0.57c0.221,-0.185 0.448,-0.369 0.681,-0.551c0.233,-0.182 0.464,-0.363 0.692,-0.543c0.228,-0.18 0.469,-0.38 0.721,-0.602c0.252,-0.222 0.483,-0.444 0.692,-0.666c0.209,-0.222 0.372,-0.401 0.487,-0.536c0.115,-0.135 0.19,-0.224 0.224,-0.266l0.025,-0.032l-0.076,0.095" style="fill:none;fill-rule:nonzero;stroke:#000;stroke-width:0.85px;"/><path d="M55.775,29.294c0.079,0.069 0.162,0.147 0.249,0.234c0.087,0.087 0.166,0.162 0.235,0.226c0.069,0.063 0.166,0.139 0.29,0.228c0.124,0.089 0.281,0.199 0.471,0.331c0.19,0.132 0.399,0.294 0.626,0.486c0.227,0.192 0.474,0.412 0.739,0.661c0.266,0.249 0.557,0.508 0.873,0.777c0.317,0.269 0.647,0.54 0.992,0.812c0.345,0.272 0.668,0.552 0.969,0.841c0.301,0.289 0.589,0.571 0.864,0.847c0.275,0.276 0.564,0.523 0.866,0.741c0.302,0.218 0.599,0.422 0.89,0.613c0.291,0.19 0.55,0.4 0.778,0.628c0.228,0.229 0.447,0.467 0.656,0.715c0.209,0.248 0.425,0.481 0.648,0.699c0.223,0.218 0.444,0.411 0.663,0.581c0.219,0.17 0.42,0.329 0.601,0.477c0.182,0.149 0.341,0.295 0.478,0.438c0.137,0.143 0.273,0.293 0.406,0.448c0.133,0.155 0.275,0.306 0.425,0.452c0.15,0.147 0.296,0.286 0.438,0.418c0.142,0.132 0.272,0.263 0.392,0.394c0.12,0.131 0.238,0.266 0.354,0.407c0.117,0.141 0.24,0.292 0.371,0.454c0.13,0.162 0.272,0.33 0.424,0.505c0.152,0.175 0.303,0.342 0.452,0.501c0.149,0.159 0.288,0.294 0.418,0.406c0.129,0.111 0.248,0.197 0.356,0.257c0.108,0.06 0.199,0.103 0.273,0.128c0.074,0.025 0.142,0.043 0.203,0.053c0.061,0.01 0.116,0.018 0.165,0.023c0.069,0.007 0.068,-0.065 -0.002,-0.217" style="fill:none;fill-rule:nonzero;stroke:#000;stroke-width:0.85px;"/><path d="M72.509,45.612c0.015,0.089 0.107,0.011 0.276,-0.233c0.169,-0.244 0.362,-0.482 0.58,-0.716c0.218,-0.233 0.49,-0.521 0.816,-0.864c0.326,-0.343 0.703,-0.742 1.13,-1.199c0.427,-0.456 0.865,-0.918 1.312,-1.385c0.447,-0.467 0.898,-0.936 1.352,-1.407c0.454,-0.471 0.905,-0.925 1.353,-1.362c0.448,-0.437 0.888,-0.865 1.322,-1.283c0.433,-0.419 0.85,-0.823 1.25,-1.213c0.4,-0.39 0.792,-0.778 1.176,-1.164c0.384,-0.386 0.777,-0.786 1.18,-1.2c0.402,-0.414 0.818,-0.824 1.248,-1.229c0.43,-0.405 0.838,-0.781 1.224,-1.128c0.387,-0.347 0.763,-0.691 1.129,-1.033c0.366,-0.342 0.745,-0.707 1.136,-1.094c0.391,-0.387 0.781,-0.764 1.17,-1.13c0.389,-0.366 0.773,-0.712 1.153,-1.036c0.379,-0.325 0.761,-0.643 1.145,-0.954c0.384,-0.311 0.77,-0.622 1.159,-0.933c0.389,-0.311 0.766,-0.625 1.132,-0.944c0.366,-0.319 0.729,-0.638 1.091,-0.958c0.362,-0.32 0.725,-0.642 1.09,-0.966c0.365,-0.324 0.706,-0.616 1.024,-0.876c0.318,-0.26 0.612,-0.516 0.881,-0.768c0.269,-0.252 0.539,-0.532 0.81,-0.841c0.271,-0.309 0.571,-0.646 0.899,-1.011c0.328,-0.365 0.661,-0.728 1,-1.089c0.338,-0.361 0.682,-0.707 1.031,-1.037c0.349,-0.331 0.696,-0.665 1.043,-1.004c0.347,-0.339 0.657,-0.653 0.932,-0.944c0.275,-0.291 0.518,-0.554 0.73,-0.79c0.212,-0.236 0.363,-0.417 0.453,-0.543c0.09,-0.126 0.111,-0.181 0.062,-0.164c-0.069,0.024 -0.288,0.099 -0.655,0.225" style="fill:none;fill-rule:nonzero;stroke:#000;stroke-width:0.85px;"/><path d="M72.968,45.174c-0.051,0.051 -0,0.167 0.153,0.348c0.153,0.182 0.337,0.391 0.55,0.629c0.214,0.238 0.456,0.509 0.726,0.813c0.27,0.304 0.557,0.627 0.86,0.968c0.303,0.342 0.594,0.692 0.872,1.051c0.279,0.359 0.534,0.726 0.767,1.1c0.233,0.374 0.458,0.727 0.677,1.06c0.219,0.333 0.433,0.627 0.642,0.883c0.21,0.255 0.416,0.487 0.621,0.696c0.204,0.208 0.404,0.393 0.599,0.555c0.195,0.162 0.38,0.32 0.556,0.476c0.176,0.156 0.349,0.316 0.519,0.48c0.17,0.165 0.34,0.339 0.51,0.523c0.17,0.184 0.346,0.377 0.527,0.578c0.182,0.201 0.38,0.4 0.595,0.598c0.215,0.197 0.438,0.386 0.668,0.566c0.231,0.18 0.457,0.374 0.679,0.582c0.222,0.208 0.432,0.428 0.629,0.66c0.198,0.232 0.396,0.467 0.594,0.703c0.199,0.236 0.409,0.448 0.632,0.635c0.223,0.187 0.441,0.354 0.653,0.501c0.212,0.147 0.401,0.293 0.565,0.438c0.165,0.145 0.319,0.304 0.463,0.476c0.144,0.172 0.294,0.344 0.451,0.516c0.157,0.173 0.327,0.339 0.511,0.501c0.184,0.161 0.36,0.314 0.529,0.458c0.169,0.144 0.329,0.289 0.48,0.434c0.151,0.145 0.294,0.29 0.429,0.434c0.135,0.144 0.258,0.27 0.371,0.379c0.113,0.108 0.214,0.195 0.305,0.259c0.091,0.064 0.169,0.121 0.236,0.17c0.067,0.049 0.118,0.088 0.155,0.117c0.051,0.041 -0.024,0.047 -0.227,0.02" style="fill:none;fill-rule:nonzero;stroke:#000;stroke-width:0.85px;"/><path d="M47.399,23.976c0.054,0.04 0.114,0.075 0.18,0.104c0.044,0.019 0.068,0.027 0.073,0.023c0.005,-0.004 0.008,-0.025 0.008,-0.063c0,-0.038 0,-0.08 0,-0.126c0,-0.046 -0.01,-0.11 -0.031,-0.194c-0.021,-0.083 -0.06,-0.198 -0.117,-0.343c-0.057,-0.146 -0.118,-0.325 -0.181,-0.54c-0.063,-0.214 -0.112,-0.44 -0.145,-0.678c-0.033,-0.238 -0.048,-0.454 -0.044,-0.649c0.004,-0.194 0.042,-0.35 0.114,-0.467c0.072,-0.117 0.172,-0.193 0.299,-0.228c0.127,-0.035 0.273,-0.04 0.437,-0.015c0.164,0.025 0.343,0.074 0.537,0.149c0.194,0.074 0.386,0.138 0.578,0.19c0.284,0.077 0.615,0.13 0.993,0.158" style="fill:none;fill-rule:nonzero;stroke:#000;stroke-width:0.85px;"/><path d="M64.875,19.472c0.026,-0.007 0.202,-0.016 0.528,-0.027c0.326,-0.01 0.629,-0.02 0.907,-0.027c0.278,-0.008 0.511,-0.005 0.696,0.008c0.186,0.013 0.329,0.079 0.429,0.196c0.1,0.117 0.167,0.267 0.201,0.45c0.034,0.183 0.052,0.372 0.055,0.567c0.003,0.195 -0.001,0.372 -0.013,0.532c-0.012,0.16 -0.019,0.279 -0.022,0.358c-0.004,0.109 0.08,0.088 0.252,-0.064" style="fill:none;fill-rule:nonzero;stroke:#000;stroke-width:0.85px;"/><path d="M92.654,23.081c0.002,0.051 0.001,0.132 -0.002,0.242c-0.002,0.069 -0.006,0.112 -0.011,0.127c-0.005,0.015 0.045,0.022 0.15,0.02c0.105,-0.002 0.291,-0.038 0.556,-0.107c0.265,-0.069 0.557,-0.146 0.875,-0.23c0.318,-0.084 0.599,-0.139 0.844,-0.165c0.244,-0.026 0.444,-0.028 0.6,-0.003c0.156,0.024 0.282,0.092 0.379,0.204c0.097,0.111 0.175,0.243 0.234,0.395c0.059,0.152 0.107,0.318 0.142,0.497c0.035,0.179 0.062,0.349 0.082,0.511c0.02,0.162 0.04,0.302 0.062,0.42c0.022,0.118 0.049,0.207 0.082,0.266c0.033,0.059 0.053,0.067 0.062,0.024" style="fill:none;fill-rule:nonzero;stroke:#000;stroke-width:0.85px;"/><path d="M62.709,38.459l0.298,0c0.116,0 0.194,0.003 0.233,0.01c0.039,0.007 0.059,0.018 0.059,0.032c0.001,0.015 -0.012,0.022 -0.037,0.023c-0.025,0 -0.056,-0.009 -0.093,-0.026c-0.036,-0.018 -0.072,-0.074 -0.106,-0.169c-0.034,-0.094 -0.072,-0.218 -0.113,-0.372c-0.041,-0.153 -0.082,-0.333 -0.124,-0.537c-0.042,-0.205 -0.068,-0.408 -0.079,-0.608c-0.011,-0.201 -0.009,-0.369 0.007,-0.505c0.016,-0.136 0.066,-0.234 0.151,-0.293c0.085,-0.059 0.198,-0.092 0.339,-0.101c0.141,-0.008 0.31,-0.006 0.505,0.008c0.195,0.014 0.406,0.037 0.633,0.072c0.227,0.034 0.462,0.053 0.702,0.056c0.241,0.003 0.467,0.003 0.677,-0.002c0.211,-0.004 0.389,-0.015 0.535,-0.032c0.146,-0.017 0.238,-0.026 0.278,-0.026c0.055,-0 -0.008,0.096 -0.191,0.29" style="fill:none;fill-rule:nonzero;stroke:#000;stroke-width:0.85px;"/><path d="M80.318,55.98c-0.025,0.077 -0.081,0.011 -0.167,-0.198c-0.086,-0.209 -0.134,-0.382 -0.145,-0.52c-0.011,-0.138 -0.017,-0.283 -0.017,-0.436c0,-0.153 0.002,-0.302 0.007,-0.449c0.004,-0.146 0.029,-0.277 0.073,-0.393c0.045,-0.116 0.105,-0.212 0.182,-0.289c0.077,-0.077 0.171,-0.124 0.284,-0.141c0.113,-0.017 0.251,-0.017 0.414,-0.002c0.163,0.016 0.337,0.055 0.522,0.117c0.185,0.062 0.37,0.117 0.557,0.164c0.187,0.047 0.373,0.079 0.558,0.094c0.279,0.023 0.539,0.061 0.779,0.114" style="fill:none;fill-rule:nonzero;stroke:#000;stroke-width:0.85px;"/><path d="M39.763,22.447c-0.008,-0.04 -0.111,-0.067 -0.311,-0.081c-0.2,-0.014 -0.431,0.103 -0.694,0.35c-0.263,0.248 -0.476,0.571 -0.641,0.97c-0.165,0.399 -0.215,0.729 -0.151,0.989c0.064,0.261 0.231,0.399 0.501,0.415c0.27,0.016 0.519,-0.073 0.749,-0.268c0.229,-0.195 0.408,-0.434 0.535,-0.716c0.127,-0.283 0.22,-0.544 0.278,-0.783c0.058,-0.239 0.094,-0.403 0.107,-0.491c0.013,-0.088 0.042,-0.091 0.085,-0.009c0.044,0.082 0.148,0.26 0.313,0.532c0.238,0.394 0.816,0.71 1.732,0.95" style="fill:none;fill-rule:nonzero;stroke:#000;stroke-width:0.85px;"/><path d="M66.012,10.701c-0.072,-0.032 -0.155,-0.079 -0.247,-0.142c-0.093,-0.063 -0.184,-0.106 -0.275,-0.129c-0.091,-0.023 -0.226,-0.002 -0.407,0.063c-0.181,0.065 -0.386,0.265 -0.615,0.601c-0.229,0.336 -0.38,0.71 -0.453,1.124c-0.074,0.414 0.027,0.723 0.301,0.928c0.274,0.205 0.671,0.31 1.192,0.314c0.775,0.007 1.482,-0.192 2.121,-0.598" style="fill:none;fill-rule:nonzero;stroke:#000;stroke-width:0.85px;"/><path d="M96.044,9.243c-0.044,-0.005 -0.125,0.014 -0.243,0.058c-0.073,0.027 -0.12,0.101 -0.14,0.222c-0.021,0.121 -0.031,0.342 -0.031,0.665c-0,0.323 0.03,0.708 0.092,1.156c0.062,0.448 0.137,0.839 0.226,1.174c0.088,0.335 0.155,0.566 0.201,0.692c0.045,0.126 0.085,0.186 0.118,0.178c0.033,-0.008 0.107,-0.108 0.219,-0.3c0.113,-0.192 0.278,-0.419 0.496,-0.682c0.218,-0.262 0.456,-0.479 0.716,-0.649c0.26,-0.17 0.485,-0.27 0.676,-0.3c0.191,-0.03 0.325,0.052 0.402,0.244c0.077,0.193 0.119,0.426 0.125,0.702c0.006,0.275 -0.034,0.515 -0.121,0.72c-0.087,0.205 -0.238,0.361 -0.453,0.469c-0.215,0.108 -0.451,0.179 -0.709,0.213c-0.373,0.049 -0.769,-0.125 -1.187,-0.522" style="fill:none;fill-rule:nonzero;stroke:#000;stroke-width:0.85px;"/><path d="M57.722,43.49c-0.063,0.014 -0.157,0.024 -0.282,0.029c-0.124,0.005 -0.263,-0.014 -0.417,-0.058c-0.153,-0.044 -0.335,-0.073 -0.544,-0.085c-0.209,-0.012 -0.444,0.076 -0.706,0.265c-0.261,0.189 -0.513,0.516 -0.756,0.981c-0.243,0.465 -0.41,0.942 -0.502,1.43c-0.092,0.488 -0.072,0.822 0.06,0.999c0.132,0.178 0.34,0.196 0.624,0.055c0.284,-0.141 0.546,-0.396 0.785,-0.765c0.239,-0.369 0.425,-0.79 0.558,-1.265c0.133,-0.475 0.213,-1.035 0.241,-1.682c0.028,-0.647 0.023,-1.275 -0.014,-1.885c-0.037,-0.61 -0.076,-1.017 -0.118,-1.22c-0.042,-0.204 -0.068,-0.246 -0.076,-0.128c-0.008,0.118 -0.008,0.387 0.001,0.807c0.009,0.42 0.046,0.95 0.112,1.59c0.066,0.64 0.157,1.28 0.274,1.92c0.117,0.64 0.23,1.117 0.338,1.431l0.081,0.235l-0.243,-0.706" style="fill:none;fill-rule:nonzero;stroke:#000;stroke-width:0.85px;"/><path d="M71.94,60.049c0.149,0.062 0.304,0.107 0.464,0.134c0.161,0.027 0.344,0.025 0.55,-0.007c0.206,-0.031 0.449,-0.125 0.729,-0.281c0.28,-0.156 0.55,-0.344 0.81,-0.563c0.26,-0.219 0.45,-0.457 0.571,-0.714c0.121,-0.256 0.151,-0.512 0.09,-0.766c-0.061,-0.254 -0.263,-0.424 -0.607,-0.511c-0.344,-0.086 -0.756,-0.019 -1.236,0.202c-0.48,0.221 -0.896,0.569 -1.248,1.045c-0.352,0.476 -0.555,0.996 -0.607,1.56c-0.053,0.564 0.14,1.014 0.579,1.352c0.438,0.338 1.003,0.526 1.694,0.565c0.691,0.039 1.337,-0.018 1.938,-0.171c0.601,-0.153 0.859,-0.234 0.773,-0.242" style="fill:none;fill-rule:nonzero;stroke:#000;stroke-width:0.85px;"/><path d="M9.884,35.513c-0.029,0.004 -0.154,0.073 -0.377,0.208c-0.123,0.075 -0.2,0.212 -0.232,0.413c-0.032,0.201 0.018,0.565 0.149,1.094c0.131,0.528 0.274,1.211 0.431,2.049c0.156,0.838 0.261,1.616 0.313,2.335c0.052,0.719 0.089,1.191 0.11,1.416c0.022,0.225 0.042,0.314 0.061,0.266c0.028,-0.068 0.115,-0.282 0.261,-0.642" style="fill:none;fill-rule:nonzero;stroke:#000;stroke-width:0.85px;"/><path d="M9.467,34.937c-0.193,0 -0.385,-0.016 -0.576,-0.048c-0.191,-0.032 -0.287,-0.094 -0.289,-0.187c-0.002,-0.093 0.16,-0.215 0.486,-0.366c0.326,-0.151 0.797,-0.301 1.414,-0.448c0.617,-0.147 1.262,-0.235 1.936,-0.262c0.674,-0.028 1.225,0.078 1.654,0.317c0.429,0.239 0.653,0.585 0.674,1.038c0.02,0.453 -0.192,0.938 -0.638,1.456c-0.446,0.518 -0.959,0.985 -1.54,1.4c-0.581,0.416 -1.088,0.755 -1.521,1.019c-0.433,0.263 -0.721,0.434 -0.866,0.511c-0.145,0.077 -0.207,0.116 -0.187,0.117c0.02,0.001 0.095,0.018 0.224,0.049c0.129,0.032 0.347,0.083 0.653,0.153c0.306,0.07 0.719,0.163 1.238,0.28c0.52,0.117 1.11,0.272 1.77,0.466c0.661,0.194 1.262,0.436 1.804,0.727c0.542,0.291 0.933,0.608 1.171,0.952c0.238,0.344 0.356,0.662 0.353,0.954c-0.002,0.292 -0.109,0.552 -0.32,0.78c-0.211,0.228 -0.498,0.419 -0.861,0.573c-0.363,0.154 -0.755,0.261 -1.176,0.323c-0.421,0.062 -0.836,0.072 -1.243,0.031c-0.407,-0.041 -0.764,-0.173 -1.071,-0.395c-0.442,-0.32 -0.618,-0.868 -0.528,-1.642" style="fill:none;fill-rule:nonzero;stroke:#000;stroke-width:0.85px;"/><path d="M21.437,36.913c0.031,0.072 0.011,0.17 -0.06,0.293c-0.047,0.081 -0.086,0.154 -0.116,0.218c-0.03,0.064 -0.046,0.103 -0.046,0.117l0,0.006l0.006,-0.043c0.005,-0.039 0.008,-0.083 0.011,-0.133c0.003,-0.05 0.004,-0.078 0.004,-0.084c0,-0.008 -0.052,0.031 -0.157,0.12" style="fill:none;fill-rule:nonzero;stroke:#000;stroke-width:0.85px;"/><path d="M21.613,41.354c0.063,0.024 0.145,0.007 0.247,-0.053c0.068,-0.039 0.104,-0.073 0.11,-0.101c0.006,-0.028 0.009,-0.043 0.009,-0.046c0,-0.003 0,-0.005 0,-0.005c0,0 -0.112,-0.06 -0.335,-0.179" style="fill:none;fill-rule:nonzero;stroke:#000;stroke-width:0.85px;"/><path d="M119.626,35.944c0.105,0.008 0.22,0.028 0.344,0.059c0.124,0.031 0.22,0.093 0.289,0.186c0.069,0.093 0.132,0.297 0.191,0.61c0.059,0.314 0.117,0.735 0.175,1.264c0.058,0.529 0.108,1.04 0.151,1.533c0.043,0.493 0.066,0.859 0.069,1.098c0.003,0.239 0.007,0.377 0.012,0.414c0.004,0.037 0.014,0.032 0.029,-0.017c0.022,-0.069 0.09,-0.286 0.204,-0.651" style="fill:none;fill-rule:nonzero;stroke:#000;stroke-width:0.85px;"/><path d="M120.96,38.678c0.07,-0.023 0.187,-0.055 0.35,-0.096c0.163,-0.041 0.382,-0.065 0.657,-0.07c0.275,-0.006 0.664,-0.008 1.166,-0.009l1.732,0c0.653,0 1.28,-0.001 1.882,-0.003c0.602,-0.002 1.174,-0.021 1.717,-0.056c0.543,-0.035 1.065,-0.08 1.566,-0.136c0.501,-0.056 0.925,-0.095 1.272,-0.119c0.347,-0.023 0.63,-0.035 0.85,-0.036c0.22,-0 0.426,-0.006 0.618,-0.018c0.192,-0.012 0.368,-0.019 0.529,-0.022c0.161,-0.003 0.28,-0.004 0.358,-0.004c0.078,0 0.131,0.021 0.159,0.062c0.028,0.041 0.044,0.105 0.047,0.191c0.003,0.086 -0.027,0.188 -0.091,0.306c-0.064,0.118 -0.183,0.252 -0.358,0.402c-0.175,0.15 -0.344,0.299 -0.509,0.448c-0.165,0.149 -0.293,0.272 -0.386,0.369c-0.092,0.097 -0.157,0.17 -0.193,0.217c-0.036,0.048 -0.055,0.074 -0.055,0.077c-0.001,0.004 0.001,0.003 0.004,-0.002c0.003,-0.005 0.011,-0.017 0.023,-0.037c0.012,-0.02 0.082,-0.098 0.209,-0.235c0.127,-0.137 0.312,-0.296 0.555,-0.478c0.244,-0.182 0.516,-0.353 0.817,-0.515c0.301,-0.162 0.564,-0.29 0.789,-0.385c0.225,-0.095 0.386,-0.163 0.483,-0.203c0.097,-0.04 0.155,-0.074 0.174,-0.101c0.019,-0.027 0.014,-0.071 -0.015,-0.132c-0.029,-0.061 -0.133,-0.155 -0.311,-0.282c-0.179,-0.127 -0.431,-0.265 -0.757,-0.416c-0.326,-0.151 -0.668,-0.286 -1.026,-0.407c-0.358,-0.121 -0.627,-0.21 -0.805,-0.269l-0.134,-0.044l0.401,0.133" style="fill:none;fill-rule:nonzero;stroke:#000;stroke-width:0.85px;"/><path d="M37.705,11.179c-0.048,0.035 -0.11,0.069 -0.185,0.102c-0.049,0.021 -0.074,0.025 -0.075,0.012c-0,-0.019 0.026,-0.173 0.079,-0.46" style="fill:none;fill-rule:nonzero;stroke:#000;stroke-width:0.85px;"/><path d="M36.4,8.63c0.023,0.049 0.003,0.142 -0.063,0.279c-0.042,0.088 -0.072,0.139 -0.09,0.152c-0.018,0.013 -0.024,0.015 -0.018,0.005c0.008,-0.014 0.035,-0.058 0.079,-0.132" style="fill:none;fill-rule:nonzero;stroke:#000;stroke-width:0.85px;"/><path d="M34.185,6.326c0.047,0.028 0.111,0.068 0.19,0.121c0.073,0.049 0.187,0.037 0.341,-0.036" style="fill:none;fill-rule:nonzero;stroke:#000;stroke-width:0.85px;"/><path d="M93.226,66.513c0.04,-0.008 0.115,0.02 0.225,0.085c0.103,0.06 0.201,0.131 0.295,0.213" style="fill:none;fill-rule:nonzero;stroke:#000;stroke-width:0.85px;"/><path d="M95.061,68.405l-0.148,0.129l0.148,-0.129" style="fill:none;fill-rule:nonzero;stroke:#000;stroke-width:0.85px;"/><path d="M97.267,70.726c0.068,0.088 0.133,0.194 0.195,0.317c0.041,0.081 0.065,0.125 0.069,0.131c0.005,0.006 0.023,0.009 0.054,0.009c0.045,-0 0.092,-0.05 0.143,-0.151" style="fill:none;fill-rule:nonzero;stroke:#000;stroke-width:0.85px;"/><path d="M152.876,14.535c-0.051,0.007 -0.118,0.037 -0.203,0.091c-0.054,0.034 -0.079,0.077 -0.075,0.127c0.004,0.05 0.043,0.109 0.118,0.177c0.074,0.068 0.187,0.148 0.337,0.241c0.151,0.093 0.328,0.218 0.533,0.373c0.205,0.155 0.44,0.354 0.705,0.596c0.265,0.242 0.549,0.507 0.852,0.793c0.303,0.286 0.59,0.562 0.862,0.828c0.272,0.266 0.521,0.516 0.749,0.751c0.227,0.235 0.44,0.451 0.638,0.649c0.198,0.198 0.396,0.384 0.595,0.557c0.199,0.174 0.4,0.334 0.604,0.48c0.204,0.146 0.404,0.301 0.599,0.462c0.195,0.162 0.37,0.338 0.525,0.529c0.154,0.191 0.302,0.39 0.444,0.597c0.141,0.207 0.283,0.399 0.427,0.578c0.143,0.179 0.284,0.34 0.423,0.485c0.139,0.145 0.271,0.276 0.395,0.393c0.124,0.117 0.235,0.235 0.331,0.354c0.096,0.118 0.189,0.25 0.278,0.395c0.09,0.145 0.184,0.298 0.284,0.458c0.099,0.16 0.207,0.319 0.323,0.478c0.116,0.158 0.236,0.308 0.36,0.45c0.124,0.142 0.242,0.28 0.355,0.417c0.113,0.136 0.215,0.275 0.308,0.415c0.093,0.14 0.182,0.28 0.267,0.419c0.085,0.139 0.176,0.269 0.273,0.392c0.097,0.123 0.206,0.239 0.329,0.348c0.123,0.109 0.245,0.216 0.367,0.321c0.122,0.105 0.239,0.215 0.351,0.331c0.112,0.116 0.229,0.236 0.349,0.36c0.121,0.124 0.246,0.247 0.374,0.371c0.129,0.124 0.265,0.251 0.407,0.382c0.143,0.131 0.282,0.259 0.416,0.384c0.134,0.124 0.264,0.242 0.388,0.351c0.124,0.11 0.238,0.215 0.341,0.315c0.103,0.1 0.194,0.183 0.273,0.247c0.079,0.065 0.144,0.114 0.196,0.15c0.052,0.035 0.096,0.059 0.133,0.072c0.037,0.013 0.074,0.019 0.111,0.019l0.028,0l-0.083,-0.001" style="fill:none;fill-rule:nonzero;stroke:#000;stroke-width:0.85px;"/><path d="M168.799,30.584c0.066,0.035 0.148,0.015 0.246,-0.06c0.098,-0.075 0.186,-0.166 0.263,-0.275c0.077,-0.109 0.167,-0.223 0.271,-0.345c0.103,-0.121 0.227,-0.244 0.371,-0.368c0.144,-0.124 0.311,-0.251 0.501,-0.382c0.19,-0.131 0.401,-0.26 0.633,-0.386c0.232,-0.127 0.474,-0.252 0.727,-0.376c0.252,-0.124 0.499,-0.244 0.74,-0.361c0.241,-0.117 0.475,-0.226 0.702,-0.326c0.226,-0.101 0.449,-0.188 0.668,-0.262c0.219,-0.074 0.431,-0.141 0.636,-0.202c0.204,-0.061 0.421,-0.126 0.651,-0.196c0.229,-0.07 0.475,-0.152 0.736,-0.246c0.262,-0.094 0.535,-0.193 0.821,-0.298c0.286,-0.104 0.578,-0.201 0.877,-0.289c0.298,-0.088 0.612,-0.171 0.941,-0.249c0.329,-0.078 0.675,-0.151 1.039,-0.219c0.363,-0.068 0.747,-0.14 1.152,-0.215c0.405,-0.075 0.805,-0.153 1.203,-0.233c0.397,-0.08 0.767,-0.155 1.11,-0.226c0.342,-0.071 0.668,-0.136 0.978,-0.194c0.309,-0.059 0.62,-0.116 0.933,-0.172c0.313,-0.056 0.643,-0.113 0.989,-0.171c0.346,-0.058 0.689,-0.117 1.028,-0.175c0.339,-0.059 0.669,-0.11 0.99,-0.154c0.321,-0.044 0.649,-0.088 0.984,-0.132c0.335,-0.044 0.676,-0.084 1.023,-0.121c0.347,-0.037 0.7,-0.077 1.06,-0.12c0.359,-0.043 0.717,-0.08 1.072,-0.11c0.356,-0.03 0.69,-0.049 1.002,-0.057c0.313,-0.008 0.61,-0.012 0.893,-0.012c0.283,-0 0.573,-0.001 0.871,-0.003c0.298,-0.002 0.621,-0.02 0.969,-0.052c0.348,-0.033 0.698,-0.067 1.049,-0.104c0.351,-0.037 0.676,-0.064 0.974,-0.082c0.299,-0.018 0.583,-0.036 0.853,-0.055c0.27,-0.019 0.562,-0.051 0.875,-0.096c0.314,-0.045 0.665,-0.111 1.054,-0.2c0.389,-0.089 0.784,-0.176 1.186,-0.262c0.402,-0.086 0.782,-0.158 1.141,-0.217c0.359,-0.059 0.694,-0.112 1.004,-0.159c0.31,-0.047 0.612,-0.089 0.904,-0.128c0.292,-0.039 0.566,-0.08 0.82,-0.124c0.255,-0.044 0.485,-0.081 0.691,-0.11c0.206,-0.03 0.402,-0.057 0.59,-0.081c0.187,-0.024 0.376,-0.052 0.566,-0.083c0.19,-0.032 0.37,-0.067 0.541,-0.105c0.171,-0.038 0.335,-0.077 0.494,-0.116c0.159,-0.039 0.322,-0.082 0.491,-0.127c0.169,-0.046 0.347,-0.099 0.534,-0.159c0.187,-0.06 0.377,-0.127 0.572,-0.199c0.194,-0.073 0.385,-0.144 0.573,-0.215c0.188,-0.07 0.376,-0.143 0.565,-0.218c0.189,-0.075 0.373,-0.154 0.551,-0.237c0.178,-0.083 0.338,-0.164 0.481,-0.244c0.142,-0.08 0.272,-0.16 0.39,-0.241c0.117,-0.08 0.224,-0.16 0.32,-0.241c0.096,-0.08 0.181,-0.163 0.257,-0.248c0.076,-0.085 0.154,-0.172 0.233,-0.262c0.08,-0.09 0.17,-0.185 0.272,-0.287c0.102,-0.102 0.202,-0.199 0.302,-0.292c0.1,-0.093 0.194,-0.18 0.282,-0.26c0.088,-0.08 0.171,-0.159 0.249,-0.234c0.078,-0.076 0.149,-0.15 0.213,-0.223c0.064,-0.073 0.12,-0.145 0.169,-0.215c0.049,-0.071 0.096,-0.141 0.139,-0.211c0.044,-0.07 0.088,-0.142 0.131,-0.215c0.044,-0.073 0.085,-0.148 0.124,-0.226c0.039,-0.078 0.077,-0.156 0.113,-0.237c0.036,-0.08 0.075,-0.157 0.116,-0.23c0.041,-0.073 0.083,-0.149 0.127,-0.226c0.044,-0.078 0.087,-0.162 0.131,-0.254c0.044,-0.092 0.085,-0.186 0.124,-0.283c0.039,-0.097 0.072,-0.205 0.1,-0.323c0.027,-0.118 0.055,-0.235 0.084,-0.35c0.029,-0.115 0.054,-0.22 0.077,-0.315c0.022,-0.096 0.041,-0.184 0.056,-0.265c0.022,-0.119 0.002,-0.247 -0.059,-0.384" style="fill:none;fill-rule:nonzero;stroke:#000;stroke-width:0.85px;"/><path d="M168.602,31.241c0.047,0 0.128,0 0.245,0l0.163,0c0.036,0 0.08,0.003 0.13,0.01c0.05,0.007 0.119,0.05 0.208,0.129c0.089,0.079 0.2,0.198 0.334,0.356c0.134,0.158 0.296,0.338 0.486,0.541c0.19,0.203 0.406,0.413 0.65,0.629c0.243,0.217 0.521,0.417 0.832,0.6c0.311,0.183 0.627,0.361 0.946,0.534c0.319,0.173 0.62,0.352 0.904,0.538c0.283,0.186 0.556,0.385 0.819,0.595c0.263,0.211 0.517,0.423 0.764,0.637c0.246,0.214 0.482,0.418 0.706,0.611c0.224,0.193 0.439,0.374 0.644,0.542c0.205,0.169 0.396,0.324 0.572,0.465c0.176,0.142 0.333,0.281 0.471,0.417c0.137,0.136 0.266,0.27 0.385,0.401c0.119,0.131 0.249,0.263 0.389,0.394c0.14,0.131 0.29,0.264 0.45,0.397c0.16,0.133 0.317,0.263 0.471,0.387c0.154,0.125 0.292,0.245 0.415,0.362c0.123,0.117 0.232,0.24 0.328,0.371c0.096,0.13 0.185,0.27 0.267,0.418c0.083,0.148 0.177,0.289 0.283,0.423c0.106,0.134 0.215,0.262 0.327,0.384c0.112,0.122 0.225,0.24 0.339,0.354c0.114,0.114 0.222,0.23 0.322,0.346c0.1,0.117 0.196,0.232 0.289,0.347c0.092,0.114 0.185,0.231 0.278,0.35c0.093,0.119 0.187,0.233 0.284,0.343c0.097,0.11 0.194,0.215 0.291,0.315c0.097,0.1 0.188,0.195 0.271,0.285c0.083,0.09 0.158,0.185 0.224,0.284c0.066,0.099 0.133,0.208 0.201,0.327c0.068,0.118 0.138,0.237 0.211,0.356c0.073,0.119 0.141,0.225 0.205,0.316c0.064,0.091 0.121,0.16 0.173,0.205c0.052,0.045 0.096,0.072 0.133,0.081c0.037,0.008 0.036,-0.001 -0.005,-0.029c-0.058,-0.04 -0.087,-0.131 -0.087,-0.273" style="fill:none;fill-rule:nonzero;stroke:#000;stroke-width:0.85px;"/><path d="M184.111,45.349c0.033,0.101 0.142,0.072 0.327,-0.085c0.185,-0.157 0.37,-0.322 0.554,-0.495c0.184,-0.173 0.397,-0.367 0.639,-0.582c0.242,-0.215 0.48,-0.428 0.714,-0.638c0.234,-0.21 0.441,-0.393 0.621,-0.551c0.18,-0.158 0.338,-0.29 0.476,-0.396c0.137,-0.106 0.265,-0.201 0.382,-0.284c0.117,-0.083 0.243,-0.17 0.378,-0.262c0.135,-0.092 0.276,-0.192 0.421,-0.301c0.146,-0.109 0.293,-0.23 0.441,-0.365c0.148,-0.135 0.301,-0.279 0.459,-0.432c0.158,-0.153 0.303,-0.298 0.436,-0.435c0.133,-0.137 0.255,-0.262 0.367,-0.374c0.112,-0.112 0.227,-0.224 0.346,-0.336c0.119,-0.112 0.234,-0.221 0.343,-0.328c0.11,-0.107 0.216,-0.21 0.318,-0.307c0.102,-0.097 0.21,-0.201 0.324,-0.309c0.114,-0.109 0.228,-0.225 0.343,-0.348c0.114,-0.124 0.223,-0.244 0.326,-0.361c0.103,-0.117 0.194,-0.236 0.275,-0.357c0.081,-0.121 0.158,-0.244 0.231,-0.368c0.073,-0.124 0.145,-0.25 0.216,-0.379c0.07,-0.129 0.134,-0.248 0.19,-0.358c0.057,-0.11 0.107,-0.211 0.151,-0.301c0.044,-0.09 0.082,-0.179 0.114,-0.267c0.032,-0.088 0.065,-0.179 0.099,-0.273c0.034,-0.095 0.069,-0.186 0.105,-0.273c0.036,-0.088 0.068,-0.169 0.096,-0.242c0.027,-0.074 0.047,-0.143 0.06,-0.209c0.013,-0.066 0.025,-0.136 0.037,-0.21c0.012,-0.075 0.023,-0.161 0.033,-0.26c0.01,-0.099 0.022,-0.207 0.036,-0.323c0.014,-0.116 0.027,-0.227 0.036,-0.332c0.01,-0.105 0.015,-0.207 0.015,-0.307c0,-0.1 0,-0.201 0,-0.303l0,-0.32c0,-0.111 -0.001,-0.231 -0.003,-0.359c-0.002,-0.128 -0.015,-0.252 -0.038,-0.372c-0.024,-0.12 -0.054,-0.234 -0.093,-0.344c-0.038,-0.11 -0.077,-0.223 -0.116,-0.339c-0.039,-0.116 -0.085,-0.239 -0.138,-0.367c-0.053,-0.128 -0.111,-0.256 -0.173,-0.382c-0.062,-0.127 -0.13,-0.246 -0.203,-0.359c-0.073,-0.113 -0.146,-0.211 -0.219,-0.294c-0.073,-0.084 -0.145,-0.152 -0.215,-0.204c-0.071,-0.052 -0.14,-0.101 -0.208,-0.147c-0.068,-0.046 -0.144,-0.093 -0.228,-0.142c-0.084,-0.049 -0.164,-0.096 -0.237,-0.142c-0.074,-0.046 -0.126,-0.104 -0.158,-0.173c-0.045,-0.098 0.035,-0.227 0.241,-0.385" style="fill:none;fill-rule:nonzero;stroke:#000;stroke-width:0.85px;"/><path d="M185.861,20.894c0.006,0.079 0.011,0.162 0.015,0.247c0.004,0.085 0.007,0.142 0.007,0.169l0,0.087c0,0 -0.014,-0.001 -0.041,-0.003c-0.028,-0.002 -0.069,-0.03 -0.124,-0.083c-0.055,-0.053 -0.113,-0.134 -0.174,-0.241c-0.06,-0.108 -0.119,-0.24 -0.175,-0.396c-0.056,-0.156 -0.109,-0.33 -0.158,-0.521c-0.049,-0.191 -0.097,-0.377 -0.146,-0.558c-0.049,-0.181 -0.096,-0.352 -0.142,-0.513c-0.046,-0.161 -0.096,-0.314 -0.149,-0.458c-0.053,-0.144 -0.107,-0.289 -0.16,-0.434c-0.054,-0.146 -0.099,-0.294 -0.136,-0.444c-0.037,-0.15 -0.067,-0.296 -0.089,-0.438c-0.022,-0.142 -0.042,-0.278 -0.059,-0.41c-0.017,-0.132 -0.029,-0.257 -0.034,-0.377c-0.005,-0.119 -0.008,-0.241 -0.008,-0.364c0,-0.123 0.013,-0.247 0.038,-0.372c0.025,-0.124 0.064,-0.243 0.117,-0.355c0.053,-0.112 0.102,-0.216 0.146,-0.312c0.044,-0.096 0.085,-0.184 0.122,-0.264c0.037,-0.081 0.066,-0.146 0.089,-0.196c0.022,-0.05 0.041,-0.08 0.055,-0.091c0.02,-0.015 0.04,-0.001 0.058,0.044" style="fill:none;fill-rule:nonzero;stroke:#000;stroke-width:0.85px;"/><path d="M184.417,45.393c0.063,-0.026 0.187,0.046 0.37,0.215c0.183,0.169 0.378,0.37 0.585,0.603c0.207,0.233 0.44,0.483 0.698,0.75c0.258,0.267 0.532,0.531 0.82,0.794c0.289,0.263 0.562,0.53 0.819,0.802c0.257,0.272 0.491,0.544 0.702,0.817c0.21,0.273 0.416,0.531 0.618,0.775c0.201,0.244 0.424,0.471 0.667,0.682c0.244,0.21 0.5,0.412 0.77,0.604c0.269,0.192 0.528,0.399 0.775,0.622c0.247,0.222 0.475,0.45 0.685,0.684c0.21,0.234 0.42,0.446 0.632,0.637c0.211,0.191 0.422,0.368 0.631,0.529c0.209,0.161 0.413,0.313 0.61,0.454c0.197,0.142 0.391,0.29 0.581,0.444c0.19,0.155 0.371,0.326 0.544,0.514c0.173,0.188 0.34,0.379 0.501,0.571c0.161,0.192 0.326,0.376 0.496,0.552c0.17,0.176 0.334,0.352 0.492,0.529c0.159,0.177 0.304,0.359 0.436,0.546c0.132,0.187 0.263,0.372 0.391,0.554c0.129,0.183 0.255,0.353 0.38,0.509c0.124,0.157 0.242,0.297 0.351,0.423c0.11,0.125 0.214,0.252 0.311,0.38c0.098,0.128 0.194,0.256 0.288,0.382c0.095,0.127 0.196,0.24 0.305,0.341c0.109,0.101 0.216,0.186 0.321,0.255c0.105,0.069 0.204,0.128 0.297,0.177c0.093,0.049 0.177,0.095 0.253,0.136c0.076,0.042 0.153,0.075 0.23,0.1c0.078,0.025 0.142,0.045 0.194,0.059l0.05,0.015l-0.058,-0.013" style="fill:none;fill-rule:nonzero;stroke:#000;stroke-width:0.85px;"/><path d="M202.879,63.418l-0.115,0.064l0.115,-0.064" style="fill:none;fill-rule:nonzero;stroke:#000;stroke-width:0.85px;"/><path d="M204.061,64.774c0.079,0.015 0.166,0.031 0.261,0.048c0.063,0.012 0.097,0.017 0.103,0.017c0.008,0 0.017,0.024 0.027,0.072" style="fill:none;fill-rule:nonzero;stroke:#000;stroke-width:0.85px;"/><path d="M205.81,66.022c0.108,0.046 0.195,0.088 0.261,0.126c0.045,0.026 0.071,0.04 0.077,0.043c0.009,0.004 0.012,-0.021 0.009,-0.075" style="fill:none;fill-rule:nonzero;stroke:#000;stroke-width:0.85px;"/><path d="M149.987,12.407l0.28,0c0.083,0 0.13,-0.01 0.141,-0.031c0.016,-0.029 -0.038,-0.064 -0.162,-0.103" style="fill:none;fill-rule:nonzero;stroke:#000;stroke-width:0.85px;"/><path d="M147.975,9.957l0.082,-0.133l-0.027,0.044" style="fill:none;fill-rule:nonzero;stroke:#000;stroke-width:0.85px;"/><path d="M147.297,8.863c-0.001,-0.088 -0.074,-0.193 -0.219,-0.315" style="fill:none;fill-rule:nonzero;stroke:#000;stroke-width:0.85px;"/><path d="M159.481,22.775c-0.041,0.067 -0.1,0.139 -0.177,0.219c-0.077,0.079 -0.142,0.128 -0.196,0.147c-0.054,0.018 -0.092,0.028 -0.116,0.028c-0.023,0 -0.039,-0.017 -0.046,-0.051c-0.007,-0.034 -0.011,-0.095 -0.011,-0.18c-0,-0.086 -0,-0.188 -0,-0.306c0,-0.118 0.009,-0.249 0.028,-0.392c0.018,-0.143 0.044,-0.287 0.078,-0.433c0.034,-0.145 0.071,-0.298 0.112,-0.458c0.041,-0.16 0.085,-0.31 0.13,-0.45c0.046,-0.14 0.096,-0.257 0.149,-0.351c0.053,-0.094 0.111,-0.158 0.174,-0.192c0.062,-0.034 0.146,-0.049 0.251,-0.045c0.105,0.004 0.233,0.043 0.385,0.117c0.151,0.074 0.317,0.167 0.496,0.279c0.179,0.112 0.366,0.202 0.56,0.269c0.194,0.068 0.392,0.107 0.593,0.119c0.202,0.011 0.278,-0.018 0.23,-0.088" style="fill:none;fill-rule:nonzero;stroke:#000;stroke-width:0.85px;"/><path d="M212.11,18.269c0.081,0.014 0.165,0.033 0.254,0.057c0.088,0.024 0.173,0.039 0.255,0.044c0.082,0.005 0.181,0.008 0.299,0.008c0.118,0 0.261,-0.01 0.429,-0.03c0.168,-0.02 0.35,-0.064 0.547,-0.131c0.197,-0.067 0.378,-0.127 0.545,-0.179c0.167,-0.052 0.301,-0.081 0.4,-0.088c0.1,-0.006 0.17,0.033 0.211,0.118c0.041,0.085 0.066,0.229 0.077,0.432c0.01,0.203 0.026,0.422 0.047,0.655c0.021,0.233 0.058,0.448 0.109,0.645c0.052,0.197 0.117,0.354 0.194,0.471c0.078,0.117 0.14,0.195 0.186,0.233c0.063,0.052 0.081,0.033 0.055,-0.056" style="fill:none;fill-rule:nonzero;stroke:#000;stroke-width:0.85px;"/><path d="M182.23,18.707c0.041,-0.018 0.141,-0.088 0.298,-0.211c0.157,-0.123 0.303,-0.249 0.439,-0.377c0.135,-0.128 0.265,-0.248 0.387,-0.361c0.123,-0.113 0.236,-0.204 0.341,-0.274c0.105,-0.07 0.209,-0.117 0.314,-0.14c0.104,-0.023 0.222,-0.033 0.355,-0.029c0.132,0.004 0.286,0.049 0.463,0.135c0.176,0.086 0.362,0.196 0.558,0.329c0.196,0.133 0.392,0.261 0.587,0.383c0.195,0.122 0.369,0.23 0.521,0.324c0.152,0.094 0.287,0.173 0.405,0.237c0.118,0.064 0.235,0.107 0.351,0.128c0.184,0.033 0.322,0.057 0.414,0.071" style="fill:none;fill-rule:nonzero;stroke:#000;stroke-width:0.85px;"/><path d="M176.28,39.137c0.083,-0.007 0.163,-0.03 0.242,-0.071c0.078,-0.041 0.123,-0.086 0.135,-0.135c0.011,-0.049 0.013,-0.095 0.004,-0.139c-0.009,-0.044 -0.033,-0.098 -0.071,-0.162c-0.038,-0.064 -0.066,-0.145 -0.085,-0.241c-0.018,-0.096 -0.027,-0.205 -0.028,-0.326c-0,-0.121 -0,-0.238 -0,-0.35c0,-0.113 0.007,-0.21 0.021,-0.291c0.014,-0.081 0.039,-0.155 0.074,-0.221c0.036,-0.066 0.075,-0.123 0.119,-0.17c0.044,-0.047 0.095,-0.076 0.155,-0.087c0.06,-0.011 0.143,-0.017 0.25,-0.017c0.107,-0 0.248,0.002 0.423,0.007c0.175,0.005 0.38,0.012 0.617,0.021c0.237,0.01 0.473,0.019 0.71,0.029c0.237,0.009 0.416,0.027 0.537,0.052l0.091,0.019l-0.273,-0.056" style="fill:none;fill-rule:nonzero;stroke:#000;stroke-width:0.85px;"/><path d="M192.457,55.134c0.019,0.03 0.013,0.101 -0.02,0.213c-0.021,0.071 -0.046,0.11 -0.075,0.118c-0.03,0.008 -0.054,0.003 -0.074,-0.015c-0.02,-0.018 -0.031,-0.082 -0.034,-0.193c-0.003,-0.111 -0.004,-0.25 -0.004,-0.418l0,-0.578c0,-0.217 0.01,-0.419 0.031,-0.607c0.021,-0.187 0.053,-0.337 0.096,-0.449c0.043,-0.112 0.091,-0.188 0.144,-0.227c0.053,-0.039 0.128,-0.059 0.226,-0.059c0.098,-0.001 0.214,0.007 0.349,0.023c0.135,0.016 0.282,0.057 0.442,0.124c0.16,0.067 0.328,0.12 0.505,0.161c0.261,0.059 0.574,0.096 0.937,0.111" style="fill:none;fill-rule:nonzero;stroke:#000;stroke-width:0.85px;"/><path d="M151.715,21.988c-0.067,-0.015 -0.131,-0.074 -0.194,-0.178c-0.062,-0.104 -0.13,-0.19 -0.204,-0.259c-0.073,-0.069 -0.181,-0.108 -0.321,-0.119c-0.141,-0.01 -0.317,0.069 -0.529,0.238c-0.212,0.169 -0.391,0.408 -0.537,0.716c-0.146,0.308 -0.194,0.585 -0.143,0.831c0.05,0.245 0.194,0.408 0.43,0.486c0.236,0.079 0.467,0.1 0.692,0.062c0.225,-0.037 0.416,-0.14 0.571,-0.308c0.156,-0.168 0.287,-0.358 0.393,-0.569c0.106,-0.211 0.192,-0.397 0.26,-0.558c0.067,-0.161 0.109,-0.262 0.126,-0.303c0.016,-0.041 0.023,-0.042 0.021,-0.002c-0.003,0.04 -0.009,0.139 -0.02,0.297c-0.011,0.159 -0.022,0.401 -0.033,0.729c-0.011,0.327 0.059,0.615 0.212,0.862c0.219,0.355 0.624,0.474 1.216,0.358" style="fill:none;fill-rule:nonzero;stroke:#000;stroke-width:0.85px;"/><path d="M189.624,10.547c0.086,0 0.176,0.005 0.269,0.016c0.093,0.011 0.179,0.112 0.258,0.302c0.079,0.19 0.162,0.488 0.25,0.892c0.087,0.404 0.174,0.82 0.259,1.248c0.085,0.428 0.154,0.755 0.207,0.98c0.053,0.225 0.084,0.354 0.096,0.386c0.011,0.032 0.017,0.042 0.017,0.031c0,-0.011 0,-0.04 0,-0.086c0,-0.046 0.012,-0.146 0.037,-0.301c0.025,-0.155 0.103,-0.326 0.235,-0.513c0.132,-0.187 0.281,-0.355 0.446,-0.506c0.165,-0.151 0.336,-0.265 0.512,-0.343c0.176,-0.078 0.377,-0.111 0.601,-0.098c0.225,0.013 0.429,0.106 0.612,0.277c0.183,0.171 0.298,0.385 0.345,0.641c0.046,0.256 -0.016,0.514 -0.188,0.775c-0.172,0.261 -0.425,0.469 -0.758,0.625c-0.333,0.155 -0.595,0.256 -0.785,0.303c-0.264,0.064 -0.371,-0.064 -0.321,-0.384" style="fill:none;fill-rule:nonzero;stroke:#000;stroke-width:0.85px;"/><path d="M224.425,12.866c-0.048,-0.054 -0.086,-0.134 -0.113,-0.24c-0.027,-0.105 -0.056,-0.197 -0.088,-0.276c-0.032,-0.079 -0.112,-0.136 -0.239,-0.172c-0.127,-0.036 -0.322,-0.037 -0.584,-0.005c-0.262,0.033 -0.567,0.166 -0.913,0.398c-0.346,0.233 -0.64,0.541 -0.88,0.926c-0.24,0.385 -0.317,0.757 -0.229,1.115c0.087,0.358 0.367,0.624 0.837,0.797c0.471,0.173 0.95,0.27 1.439,0.291c0.489,0.021 0.804,0.031 0.947,0.031c0.204,0 0.343,-0.16 0.417,-0.48" style="fill:none;fill-rule:nonzero;stroke:#000;stroke-width:0.85px;"/><path d="M172.017,42.628c0.066,0.019 0.14,0.009 0.221,-0.028c0.054,-0.025 0.063,-0.076 0.027,-0.152c-0.036,-0.076 -0.116,-0.16 -0.239,-0.25c-0.124,-0.09 -0.281,-0.162 -0.473,-0.214c-0.192,-0.053 -0.415,-0.047 -0.671,0.017c-0.256,0.064 -0.496,0.25 -0.72,0.558c-0.224,0.307 -0.357,0.642 -0.396,1.003c-0.04,0.361 0.061,0.628 0.304,0.799c0.242,0.172 0.518,0.237 0.826,0.196c0.308,-0.041 0.559,-0.169 0.753,-0.382c0.194,-0.214 0.333,-0.495 0.416,-0.842c0.084,-0.348 0.132,-0.737 0.147,-1.168c0.014,-0.431 0.022,-0.879 0.022,-1.343c0,-0.464 0,-0.88 0,-1.247l0,-0.696l-0.003,-0.048l-0.022,0.197c-0.016,0.196 -0.023,0.523 -0.02,0.981c0.003,0.457 0.056,0.947 0.159,1.469c0.103,0.522 0.228,1.02 0.375,1.494c0.147,0.474 0.302,0.89 0.465,1.248c0.26,0.571 0.461,0.973 0.605,1.206" style="fill:none;fill-rule:nonzero;stroke:#000;stroke-width:0.85px;"/><path d="M186.342,59.065c0.074,0.02 0.179,0.033 0.315,0.037c0.136,0.004 0.285,-0 0.448,-0.014c0.163,-0.014 0.337,-0.036 0.522,-0.067c0.185,-0.031 0.353,-0.08 0.506,-0.146c0.152,-0.066 0.27,-0.17 0.353,-0.313c0.083,-0.143 0.126,-0.333 0.129,-0.57c0.003,-0.237 -0.061,-0.476 -0.191,-0.716c-0.13,-0.24 -0.333,-0.405 -0.611,-0.494c-0.277,-0.089 -0.586,-0.086 -0.925,0.011c-0.339,0.096 -0.644,0.342 -0.914,0.738c-0.27,0.396 -0.42,0.834 -0.45,1.316c-0.03,0.481 0.156,0.872 0.56,1.171c0.404,0.299 0.895,0.466 1.473,0.5c0.578,0.034 1.067,0.033 1.467,-0.002c0.4,-0.035 0.643,-0.056 0.73,-0.062c0.119,-0.008 0.063,-0.067 -0.169,-0.177" style="fill:none;fill-rule:nonzero;stroke:#000;stroke-width:0.85px;"/><path d="M222.326,36.651c0.098,0.022 0.201,0.047 0.309,0.074c0.108,0.027 0.226,0.044 0.352,0.049c0.126,0.005 0.296,0.008 0.509,0.008c0.213,0 0.472,-0.003 0.778,-0.01c0.456,-0.01 0.937,-0.024 1.442,-0.042" style="fill:none;fill-rule:nonzero;stroke:#000;stroke-width:0.85px;"/><path d="M221.56,38.97c0.033,0.053 0.173,0.093 0.42,0.123c0.247,0.029 0.57,0.045 0.968,0.048c0.398,0.003 0.855,0.017 1.372,0.042c0.767,0.038 1.616,0.016 2.548,-0.065" style="fill:none;fill-rule:nonzero;stroke:#000;stroke-width:0.85px;"/><path d="M233.744,29.37c-0.089,-0.006 -0.195,-0.003 -0.316,0.008l-0.038,0.006l0.174,0.005c0.17,0 0.565,0 1.186,0c0.621,0 1.394,-0.018 2.321,-0.055c0.927,-0.037 1.838,-0.079 2.732,-0.126c0.895,-0.048 1.566,-0.073 2.015,-0.076l0.337,-0.003l-1.01,0.008" style="fill:none;fill-rule:nonzero;stroke:#000;stroke-width:0.85px;"/><path d="M234.117,29.89c-0.094,0.006 -0.29,0.102 -0.588,0.288c-0.18,0.112 -0.283,0.227 -0.309,0.342c-0.026,0.116 0.054,0.239 0.241,0.37c0.187,0.131 0.47,0.284 0.85,0.459c0.379,0.175 0.761,0.396 1.145,0.662c0.384,0.266 0.672,0.609 0.866,1.03c0.194,0.421 0.244,0.939 0.151,1.555c-0.093,0.616 -0.307,1.276 -0.642,1.982c-0.335,0.706 -0.658,1.385 -0.969,2.037c-0.311,0.653 -0.589,1.238 -0.834,1.756c-0.245,0.518 -0.478,0.953 -0.7,1.305c-0.222,0.352 -0.436,0.627 -0.644,0.826c-0.207,0.199 -0.381,0.35 -0.521,0.453c-0.14,0.103 -0.225,0.177 -0.255,0.222c-0.03,0.045 -0.045,0.089 -0.046,0.133c-0,0.043 -0,0.096 -0,0.159l0,0.2c0,0.071 0.007,0.135 0.02,0.194c0.014,0.059 0.068,0.101 0.164,0.127c0.096,0.026 0.286,0.042 0.572,0.05c0.286,0.008 0.718,0.03 1.297,0.067c0.579,0.037 1.285,0.101 2.119,0.192c0.834,0.091 1.691,0.17 2.572,0.238c0.881,0.068 1.669,0.104 2.365,0.108c0.696,0.004 1.166,-0.003 1.41,-0.021c0.244,-0.018 0.329,-0.051 0.252,-0.098" style="fill:none;fill-rule:nonzero;stroke:#000;stroke-width:0.85px;"/><path d="M241.728,28.426c0,-0.089 0.007,-0.204 0.02,-0.345c0.013,-0.141 0.083,-0.237 0.21,-0.289c0.126,-0.052 0.279,-0.028 0.458,0.07c0.179,0.099 0.354,0.339 0.525,0.722c0.171,0.383 0.328,0.785 0.473,1.207c0.144,0.422 0.273,0.797 0.387,1.126l0.085,0.247l-0.256,-0.74" style="fill:none;fill-rule:nonzero;stroke:#000;stroke-width:0.85px;"/><path d="M238.871,48.334c0.091,0.04 0.167,0.009 0.231,-0.09c0.044,-0.07 0.022,-0.16 -0.067,-0.269c-0.089,-0.11 -0.247,-0.187 -0.474,-0.231c-0.227,-0.044 -0.486,-0.036 -0.776,0.024c-0.29,0.06 -0.573,0.231 -0.85,0.512c-0.276,0.281 -0.486,0.669 -0.628,1.164c-0.142,0.495 -0.199,1.057 -0.168,1.686c0.03,0.629 0.111,1.245 0.241,1.849c0.13,0.604 0.219,1.107 0.266,1.509c0.047,0.403 0.05,0.666 0.008,0.79c-0.059,0.174 -0.322,-0.162 -0.788,-1.009" style="fill:none;fill-rule:nonzero;stroke:#000;stroke-width:0.85px;"/><path d="M234.685,52.182c0.078,-0.037 0.252,-0.113 0.521,-0.229c0.269,-0.115 0.653,-0.21 1.151,-0.284c0.751,-0.111 1.426,-0.076 2.022,0.107" style="fill:none;fill-rule:nonzero;stroke:#000;stroke-width:0.85px;"/><path d="M252.315,33.914c0.155,0.005 0.29,0.002 0.405,-0.008c0.078,-0.007 0.127,0.086 0.146,0.28c0.02,0.194 0.05,0.619 0.09,1.275c0.04,0.657 0.085,1.429 0.134,2.318c0.049,0.889 0.092,1.678 0.128,2.368c0.037,0.69 0.072,1.177 0.107,1.462c0.035,0.285 0.053,0.441 0.057,0.469c0.003,0.027 -0.004,0.018 -0.021,-0.027c-0.025,-0.066 -0.09,-0.16 -0.194,-0.283" style="fill:none;fill-rule:nonzero;stroke:#000;stroke-width:0.85px;"/><path d="M252.709,32.232c0.02,-0.11 0.05,-0.225 0.09,-0.344c0.04,-0.119 0.064,-0.202 0.072,-0.247c0.008,-0.046 0.013,-0.071 0.013,-0.077c0,-0.006 0.002,-0.01 0.007,-0.012c0.004,-0.002 0.073,-0.024 0.207,-0.066c0.134,-0.042 0.372,-0.098 0.714,-0.168c0.343,-0.07 0.774,-0.127 1.293,-0.17c0.519,-0.043 1.059,-0.052 1.619,-0.026c0.56,0.026 1.029,0.156 1.405,0.39c0.376,0.234 0.572,0.565 0.588,0.991c0.015,0.426 -0.229,0.897 -0.733,1.411c-0.504,0.514 -1.106,0.959 -1.807,1.334c-0.701,0.375 -1.323,0.628 -1.866,0.761c-0.543,0.132 -0.921,0.203 -1.133,0.213c-0.213,0.01 -0.313,0.004 -0.302,-0.017c0.011,-0.021 0.122,-0.035 0.332,-0.044c0.21,-0.008 0.516,0.026 0.915,0.104c0.4,0.078 0.856,0.225 1.367,0.441c0.512,0.216 1.035,0.481 1.569,0.795c0.534,0.313 0.958,0.628 1.273,0.945c0.314,0.317 0.495,0.633 0.542,0.948c0.047,0.315 0.007,0.646 -0.121,0.993c-0.127,0.346 -0.295,0.696 -0.502,1.049c-0.207,0.353 -0.454,0.663 -0.739,0.93c-0.286,0.267 -0.642,0.455 -1.068,0.566c-0.427,0.111 -0.899,0.137 -1.416,0.078c-0.517,-0.058 -0.962,-0.213 -1.334,-0.463c-0.372,-0.251 -0.534,-0.387 -0.484,-0.408" style="fill:none;fill-rule:nonzero;stroke:#000;stroke-width:0.85px;"/><path d="M262.093,29.673c-0.067,-0.078 -0.147,-0.165 -0.242,-0.262c-0.095,-0.097 -0.187,-0.174 -0.277,-0.231c-0.089,-0.057 -0.194,-0.09 -0.314,-0.099c-0.12,-0.009 -0.246,0.054 -0.378,0.19c-0.131,0.136 -0.225,0.354 -0.28,0.656c-0.055,0.302 -0.01,0.606 0.136,0.912c0.146,0.306 0.367,0.538 0.664,0.695c0.297,0.158 0.566,0.233 0.807,0.226c0.241,-0.007 0.433,-0.114 0.575,-0.323c0.143,-0.208 0.243,-0.469 0.301,-0.781c0.058,-0.312 0.093,-0.595 0.104,-0.849c0.011,-0.254 0.016,-0.433 0.013,-0.536c-0.002,-0.103 -0.016,-0.141 -0.042,-0.115c-0.026,0.026 -0.043,0.163 -0.051,0.41c-0.008,0.247 0.022,0.554 0.09,0.921c0.068,0.367 0.224,0.72 0.469,1.058c0.245,0.338 0.519,0.591 0.824,0.757c0.304,0.167 0.471,0.113 0.501,-0.159" style="fill:none;fill-rule:nonzero;stroke:#000;stroke-width:0.85px;"/><path d="M265.68,26.457c0.084,0.111 0.141,0.241 0.172,0.391c0.031,0.15 0.055,0.402 0.071,0.756c0.016,0.354 0.051,0.82 0.106,1.398c0.055,0.578 0.105,1.112 0.153,1.604c0.047,0.491 0.082,0.824 0.104,0.999c0.022,0.175 0.065,0.238 0.128,0.189c0.063,-0.048 0.155,-0.206 0.275,-0.473c0.12,-0.267 0.279,-0.567 0.477,-0.898c0.199,-0.331 0.41,-0.587 0.633,-0.766c0.224,-0.18 0.43,-0.249 0.619,-0.207c0.189,0.042 0.368,0.232 0.539,0.57c0.171,0.338 0.296,0.708 0.376,1.109c0.08,0.402 0.081,0.737 0.003,1.006c-0.078,0.269 -0.248,0.442 -0.511,0.519c-0.263,0.077 -0.54,0.11 -0.831,0.097c-0.292,-0.012 -0.513,-0.055 -0.666,-0.129l-0.114,-0.055l0.342,0.166" style="fill:none;fill-rule:nonzero;stroke:#000;stroke-width:0.85px;"/><path d="M272.569,30.071c0.077,-0.01 0.12,-0.066 0.128,-0.169c0.006,-0.072 -0.056,-0.116 -0.187,-0.135c-0.131,-0.018 -0.314,-0.012 -0.549,0.02c-0.235,0.031 -0.475,0.132 -0.719,0.301c-0.244,0.17 -0.448,0.394 -0.613,0.672c-0.165,0.279 -0.217,0.579 -0.155,0.902c0.062,0.323 0.316,0.601 0.763,0.834c0.666,0.348 1.391,0.544 2.177,0.589" style="fill:none;fill-rule:nonzero;stroke:#000;stroke-width:0.85px;"/><path d="M261.743,42.973c0.026,0.034 0.16,0.06 0.404,0.08c0.244,0.02 0.509,0.026 0.795,0.02c0.286,-0.007 0.571,-0.063 0.855,-0.17c0.284,-0.107 0.497,-0.251 0.64,-0.432c0.143,-0.181 0.203,-0.345 0.18,-0.494c-0.023,-0.149 -0.184,-0.235 -0.484,-0.259c-0.3,-0.024 -0.657,0.039 -1.069,0.189c-0.413,0.15 -0.776,0.374 -1.09,0.671c-0.314,0.297 -0.517,0.626 -0.609,0.988c-0.092,0.361 -0.001,0.69 0.272,0.986c0.273,0.296 0.68,0.498 1.219,0.608c0.539,0.11 1.077,0.147 1.615,0.111l0.403,-0.027l-1.21,0.08" style="fill:none;fill-rule:nonzero;stroke:#000;stroke-width:0.85px;"/><path d="M250.412,25.823c-0.026,-0.039 -0.118,-0.091 -0.277,-0.155c-0.159,-0.065 -0.32,-0.099 -0.482,-0.102c-0.162,-0.003 -0.325,0.026 -0.488,0.088c-0.163,0.062 -0.306,0.177 -0.43,0.346c-0.124,0.169 -0.207,0.393 -0.249,0.673c-0.042,0.28 -0.055,0.625 -0.04,1.036c0.015,0.411 0.073,0.882 0.175,1.415c0.102,0.533 0.201,1.114 0.297,1.743c0.096,0.629 0.168,1.282 0.216,1.958c0.048,0.676 0.076,1.399 0.085,2.168c0.008,0.769 0.003,1.571 -0.018,2.406c-0.02,0.835 -0.057,1.625 -0.111,2.369c-0.054,0.744 -0.083,1.401 -0.087,1.972c-0.004,0.571 0.012,1.076 0.047,1.517c0.035,0.441 0.052,0.853 0.049,1.237c-0.003,0.384 -0.038,0.71 -0.107,0.977c-0.069,0.267 -0.119,0.479 -0.15,0.636c-0.031,0.157 -0.047,0.281 -0.048,0.373c-0,0.092 -0.001,0.166 -0.001,0.223c0,0.057 0.007,0.108 0.021,0.155c0.014,0.046 0.035,0.089 0.064,0.128c0.029,0.039 0.057,0.09 0.083,0.152c0.027,0.062 0.057,0.124 0.091,0.185c0.034,0.061 0.08,0.116 0.139,0.165c0.059,0.049 0.156,0.088 0.291,0.115c0.135,0.028 0.325,0.044 0.569,0.05c0.244,0.005 0.509,0.015 0.795,0.029c0.428,0.021 0.865,0.051 1.311,0.09" style="fill:none;fill-rule:nonzero;stroke:#000;stroke-width:0.85px;"/><path d="M275.152,25.67c0.128,0.021 0.26,0.037 0.396,0.048c0.136,0.011 0.266,0.022 0.392,0.031c0.126,0.009 0.274,0.046 0.444,0.112c0.17,0.065 0.386,0.167 0.647,0.306c0.261,0.139 0.557,0.287 0.886,0.445c0.33,0.158 0.604,0.335 0.825,0.532c0.22,0.197 0.351,0.474 0.393,0.831c0.042,0.357 0.035,0.82 -0.02,1.389c-0.055,0.569 -0.105,1.178 -0.152,1.829c-0.046,0.65 -0.063,1.303 -0.05,1.959c0.013,0.656 0.044,1.315 0.095,1.976c0.05,0.661 0.096,1.312 0.138,1.952c0.042,0.64 0.074,1.26 0.097,1.86c0.023,0.6 0.045,1.157 0.066,1.671c0.021,0.515 0.052,0.954 0.093,1.317c0.041,0.363 0.085,0.668 0.134,0.914c0.049,0.246 0.085,0.468 0.108,0.666c0.023,0.198 0.035,0.389 0.035,0.575c0,0.186 0,0.358 0,0.517c0,0.159 0.005,0.306 0.014,0.44c0.009,0.134 0.023,0.262 0.043,0.384c0.019,0.122 0.039,0.241 0.058,0.358c0.02,0.117 0.037,0.237 0.051,0.36c0.015,0.123 0.027,0.243 0.037,0.358c0.01,0.115 0.02,0.212 0.029,0.292c0.009,0.079 0.02,0.143 0.032,0.193c0.012,0.049 0.023,0.095 0.033,0.137c0.01,0.042 0.018,0.078 0.023,0.11c0.005,0.032 0.008,0.058 0.008,0.078c0,0.02 -0.026,0.035 -0.079,0.045c-0.053,0.01 -0.17,0.015 -0.352,0.015c-0.182,0 -0.449,0 -0.802,0c-0.521,0 -1.154,-0.032 -1.9,-0.096" style="fill:none;fill-rule:nonzero;stroke:#000;stroke-width:0.85px;"/><path d="M283.622,43.918c0.065,0.019 0.125,-0.017 0.179,-0.108c0.038,-0.063 0.049,-0.124 0.033,-0.182c-0.016,-0.058 -0.075,-0.116 -0.179,-0.175c-0.104,-0.058 -0.226,-0.109 -0.366,-0.151c-0.14,-0.042 -0.3,-0.061 -0.481,-0.056c-0.181,0.005 -0.371,0.098 -0.57,0.279c-0.199,0.182 -0.349,0.443 -0.45,0.784c-0.1,0.341 -0.092,0.68 0.025,1.018c0.117,0.338 0.33,0.571 0.64,0.7c0.31,0.128 0.605,0.161 0.887,0.097c0.282,-0.063 0.52,-0.251 0.716,-0.563c0.195,-0.312 0.356,-0.706 0.482,-1.182c0.126,-0.476 0.218,-1.004 0.274,-1.585c0.056,-0.581 0.084,-1.121 0.083,-1.62c-0.001,-0.499 -0.02,-0.898 -0.058,-1.197c-0.038,-0.299 -0.073,-0.51 -0.105,-0.633c-0.032,-0.123 -0.062,-0.189 -0.089,-0.199c-0.027,-0.01 -0.056,0.039 -0.087,0.147c-0.031,0.108 -0.068,0.305 -0.111,0.59c-0.043,0.285 -0.081,0.654 -0.114,1.105c-0.033,0.451 -0.044,0.958 -0.034,1.521c0.01,0.563 0.061,1.112 0.153,1.648c0.092,0.536 0.203,0.955 0.333,1.258c0.13,0.303 0.275,0.475 0.434,0.516c0.226,0.059 0.428,-0.208 0.607,-0.801" style="fill:none;fill-rule:nonzero;stroke:#000;stroke-width:0.85px;"/><path d="M290.026,41.004c0.062,-0.183 0.117,-0.375 0.166,-0.577c0.049,-0.202 0.063,-0.369 0.044,-0.502c-0.019,-0.133 -0.112,-0.229 -0.279,-0.288c-0.167,-0.059 -0.388,-0.065 -0.664,-0.017c-0.276,0.048 -0.576,0.233 -0.899,0.555c-0.323,0.322 -0.585,0.779 -0.786,1.372c-0.201,0.593 -0.306,1.267 -0.312,2.022c-0.007,0.755 0.057,1.469 0.189,2.143c0.133,0.674 0.264,1.248 0.393,1.723c0.13,0.475 0.248,0.826 0.356,1.055c0.108,0.228 0.188,0.36 0.24,0.397c0.072,0.05 0.083,-0.003 0.033,-0.158" style="fill:none;fill-rule:nonzero;stroke:#000;stroke-width:0.85px;"/><path d="M286.614,44.876c0.017,0.085 0.163,0.129 0.438,0.133c0.275,0.004 0.665,-0.054 1.171,-0.173c0.767,-0.181 1.469,-0.349 2.108,-0.506" style="fill:none;fill-rule:nonzero;stroke:#000;stroke-width:0.85px;"/><path d="M295.67,13.552l-0.568,0c-0.029,0 -0.037,0.002 -0.024,0.005c0.013,0.004 0.046,0.012 0.099,0.027c0.053,0.014 0.176,0.089 0.369,0.226c0.193,0.136 0.412,0.321 0.656,0.553c0.244,0.233 0.512,0.494 0.804,0.784c0.292,0.29 0.601,0.593 0.926,0.908c0.325,0.316 0.644,0.623 0.959,0.923c0.314,0.3 0.619,0.589 0.913,0.866c0.295,0.278 0.591,0.552 0.89,0.822c0.299,0.27 0.589,0.537 0.872,0.803c0.283,0.265 0.575,0.516 0.877,0.754c0.302,0.237 0.623,0.456 0.964,0.657c0.34,0.2 0.635,0.386 0.885,0.557c0.25,0.171 0.466,0.346 0.65,0.525c0.184,0.179 0.371,0.364 0.562,0.553c0.191,0.189 0.407,0.375 0.649,0.558c0.242,0.183 0.474,0.363 0.696,0.54c0.223,0.178 0.423,0.349 0.602,0.515c0.179,0.166 0.349,0.319 0.509,0.458c0.161,0.14 0.318,0.268 0.471,0.385c0.154,0.117 0.297,0.232 0.429,0.344c0.132,0.112 0.247,0.232 0.346,0.36c0.099,0.128 0.194,0.264 0.286,0.41c0.092,0.146 0.194,0.285 0.304,0.42c0.111,0.134 0.235,0.262 0.373,0.384c0.138,0.122 0.282,0.235 0.433,0.337c0.151,0.103 0.285,0.206 0.403,0.31c0.118,0.104 0.222,0.217 0.31,0.337c0.088,0.121 0.179,0.251 0.273,0.391c0.094,0.14 0.214,0.281 0.36,0.422c0.146,0.142 0.304,0.261 0.475,0.358c0.17,0.097 0.319,0.171 0.448,0.224c0.128,0.052 0.23,0.094 0.305,0.127c0.075,0.032 0.125,0.05 0.151,0.054c0.036,0.005 0.024,-0.055 -0.034,-0.18" style="fill:none;fill-rule:nonzero;stroke:#000;stroke-width:0.85px;"/><path d="M327.672,14.558c0.077,0.027 0.021,0.133 -0.168,0.317c-0.189,0.184 -0.408,0.406 -0.656,0.667c-0.248,0.261 -0.53,0.569 -0.845,0.926c-0.316,0.356 -0.654,0.727 -1.015,1.111c-0.361,0.384 -0.717,0.746 -1.069,1.086c-0.351,0.34 -0.678,0.656 -0.978,0.946c-0.301,0.291 -0.58,0.565 -0.839,0.824c-0.259,0.258 -0.518,0.52 -0.778,0.785c-0.26,0.265 -0.497,0.514 -0.711,0.749c-0.214,0.235 -0.409,0.457 -0.584,0.666c-0.176,0.209 -0.358,0.426 -0.547,0.649c-0.189,0.223 -0.384,0.446 -0.586,0.67c-0.202,0.224 -0.392,0.431 -0.57,0.623c-0.179,0.191 -0.35,0.365 -0.516,0.521c-0.165,0.156 -0.326,0.31 -0.482,0.461c-0.156,0.151 -0.303,0.297 -0.439,0.438c-0.137,0.141 -0.269,0.288 -0.398,0.44c-0.129,0.152 -0.267,0.311 -0.414,0.476c-0.147,0.165 -0.298,0.333 -0.451,0.503c-0.153,0.17 -0.299,0.331 -0.439,0.483c-0.139,0.152 -0.271,0.288 -0.395,0.408c-0.124,0.12 -0.248,0.235 -0.372,0.344c-0.124,0.11 -0.249,0.219 -0.375,0.329c-0.126,0.11 -0.237,0.207 -0.331,0.294c-0.094,0.086 -0.157,0.151 -0.189,0.194c-0.032,0.043 -0.043,0.063 -0.035,0.059c0.012,-0.006 0.05,-0.023 0.114,-0.053" style="fill:none;fill-rule:nonzero;stroke:#000;stroke-width:0.85px;"/><path d="M312.733,29.907c0.038,0.007 0.115,-0.004 0.231,-0.032c0.071,-0.018 0.115,-0.026 0.133,-0.027c0.018,-0 0.047,0.015 0.086,0.047c0.04,0.032 0.113,0.115 0.219,0.25c0.106,0.135 0.252,0.307 0.436,0.516c0.184,0.209 0.401,0.449 0.65,0.719c0.249,0.27 0.49,0.547 0.724,0.829c0.234,0.282 0.463,0.557 0.687,0.825c0.224,0.268 0.467,0.531 0.73,0.789c0.263,0.258 0.535,0.51 0.818,0.756c0.282,0.246 0.543,0.487 0.783,0.723c0.24,0.236 0.471,0.467 0.695,0.694c0.223,0.226 0.476,0.447 0.758,0.661c0.282,0.215 0.582,0.411 0.899,0.591c0.318,0.179 0.621,0.346 0.91,0.502c0.289,0.156 0.537,0.318 0.744,0.487c0.207,0.169 0.408,0.359 0.605,0.569c0.196,0.21 0.401,0.425 0.615,0.644c0.213,0.219 0.419,0.418 0.617,0.597c0.198,0.179 0.368,0.336 0.508,0.471c0.14,0.135 0.282,0.278 0.424,0.43c0.143,0.152 0.297,0.315 0.465,0.489c0.167,0.174 0.323,0.357 0.468,0.548c0.145,0.192 0.28,0.386 0.407,0.582c0.127,0.197 0.253,0.386 0.379,0.567c0.126,0.181 0.259,0.348 0.4,0.502c0.14,0.154 0.284,0.297 0.43,0.429c0.146,0.132 0.277,0.259 0.392,0.38c0.115,0.121 0.228,0.252 0.337,0.393c0.109,0.141 0.21,0.265 0.301,0.374c0.091,0.109 0.178,0.195 0.26,0.26c0.083,0.065 0.154,0.107 0.213,0.128c0.059,0.021 0.098,0.033 0.115,0.036c0.024,0.004 0.007,-0.126 -0.052,-0.389" style="fill:none;fill-rule:nonzero;stroke:#000;stroke-width:0.85px;"/><path d="M330.122,45.138c-0.061,-0.041 0.017,-0.18 0.234,-0.417c0.216,-0.237 0.485,-0.492 0.805,-0.764c0.32,-0.272 0.719,-0.625 1.197,-1.059c0.478,-0.434 0.996,-0.932 1.553,-1.494c0.557,-0.562 1.111,-1.128 1.663,-1.696c0.551,-0.568 1.049,-1.074 1.492,-1.517c0.444,-0.443 0.867,-0.852 1.271,-1.227c0.404,-0.375 0.8,-0.75 1.187,-1.124c0.387,-0.374 0.761,-0.768 1.122,-1.182c0.361,-0.414 0.72,-0.83 1.076,-1.249c0.357,-0.419 0.723,-0.828 1.099,-1.226c0.376,-0.398 0.752,-0.812 1.126,-1.242c0.375,-0.43 0.733,-0.83 1.075,-1.2c0.342,-0.37 0.679,-0.731 1.012,-1.083c0.333,-0.352 0.671,-0.716 1.016,-1.092c0.345,-0.376 0.698,-0.754 1.059,-1.134c0.362,-0.38 0.72,-0.736 1.075,-1.068c0.355,-0.332 0.696,-0.653 1.02,-0.962c0.325,-0.309 0.632,-0.634 0.922,-0.975c0.29,-0.341 0.596,-0.682 0.917,-1.024c0.322,-0.341 0.651,-0.658 0.989,-0.949c0.338,-0.291 0.661,-0.582 0.968,-0.872c0.308,-0.291 0.596,-0.601 0.865,-0.93c0.269,-0.329 0.529,-0.664 0.782,-1.005c0.253,-0.341 0.536,-0.666 0.849,-0.976c0.314,-0.31 0.621,-0.607 0.921,-0.892c0.301,-0.285 0.564,-0.572 0.791,-0.861c0.226,-0.289 0.437,-0.57 0.632,-0.843c0.195,-0.273 0.391,-0.54 0.588,-0.8c0.197,-0.261 0.371,-0.48 0.522,-0.656c0.151,-0.177 0.258,-0.294 0.323,-0.353l0.051,-0.046l-0.126,0.117" style="fill:none;fill-rule:nonzero;stroke:#000;stroke-width:0.85px;"/><path d="M328.678,45.772c0.085,-0.035 0.195,-0.007 0.331,0.082c0.136,0.09 0.28,0.25 0.434,0.481c0.154,0.231 0.325,0.512 0.513,0.842c0.188,0.33 0.396,0.657 0.623,0.979c0.227,0.322 0.454,0.604 0.681,0.845c0.227,0.241 0.443,0.465 0.651,0.673c0.207,0.207 0.42,0.408 0.638,0.603c0.218,0.195 0.438,0.386 0.659,0.573c0.221,0.188 0.444,0.374 0.667,0.558c0.223,0.184 0.437,0.368 0.64,0.551c0.203,0.183 0.395,0.362 0.575,0.537c0.18,0.175 0.375,0.339 0.585,0.49c0.21,0.152 0.436,0.29 0.678,0.415c0.242,0.125 0.466,0.249 0.67,0.372c0.204,0.123 0.379,0.265 0.523,0.423c0.145,0.159 0.291,0.333 0.439,0.521c0.148,0.189 0.311,0.376 0.49,0.561c0.179,0.185 0.352,0.358 0.518,0.516c0.166,0.159 0.324,0.317 0.472,0.475c0.148,0.158 0.298,0.315 0.449,0.471c0.151,0.156 0.295,0.297 0.431,0.422c0.137,0.125 0.269,0.246 0.398,0.362c0.129,0.116 0.262,0.241 0.401,0.375c0.138,0.133 0.281,0.261 0.429,0.383c0.148,0.122 0.29,0.239 0.427,0.351c0.137,0.112 0.271,0.235 0.403,0.37c0.132,0.135 0.258,0.288 0.38,0.459c0.122,0.171 0.249,0.348 0.382,0.531c0.133,0.183 0.269,0.351 0.407,0.505c0.139,0.154 0.271,0.287 0.398,0.398c0.127,0.111 0.254,0.198 0.38,0.26c0.126,0.062 0.239,0.108 0.338,0.136c0.099,0.028 0.159,0.044 0.182,0.046c0.032,0.004 0.004,-0.066 -0.082,-0.21" style="fill:none;fill-rule:nonzero;stroke:#000;stroke-width:0.85px;"/><path d="M346.637,62.659l0.078,0.146l-0.026,-0.049" style="fill:none;fill-rule:nonzero;stroke:#000;stroke-width:0.85px;"/><path d="M348.059,64.085c0.077,-0.005 0.149,0.002 0.214,0.02c0.062,0.017 0.055,0.114 -0.02,0.291" style="fill:none;fill-rule:nonzero;stroke:#000;stroke-width:0.85px;"/><path d="M349.906,65.284c-0.001,0.036 0.034,0.105 0.105,0.208c0.043,0.063 0.071,0.098 0.082,0.106c0.016,0.011 0.029,-0.044 0.038,-0.164" style="fill:none;fill-rule:nonzero;stroke:#000;stroke-width:0.85px;"/><path d="M293.211,10.776c-0.008,0.052 0.021,0.122 0.087,0.21c0.043,0.057 0.077,0.087 0.102,0.09c0.035,0.004 -0.006,-0.112 -0.121,-0.348" style="fill:none;fill-rule:nonzero;stroke:#000;stroke-width:0.85px;"/><path d="M291.165,9.038c0.125,0.011 0.246,-0.002 0.361,-0.039c0.077,-0.025 0.124,-0.042 0.139,-0.05c0.015,-0.008 0.016,-0.011 0.001,-0.007c-0.021,0.005 -0.089,0.019 -0.203,0.044" style="fill:none;fill-rule:nonzero;stroke:#000;stroke-width:0.85px;"/><path d="M288.825,6.836c-0.015,-0.054 -0.032,-0.13 -0.05,-0.228c-0.016,-0.087 0.039,-0.074 0.163,0.039" style="fill:none;fill-rule:nonzero;stroke:#000;stroke-width:0.85px;"/><path d="M301.99,22.485c0.051,-0.008 0.106,-0.059 0.164,-0.153c0.038,-0.061 0.057,-0.114 0.057,-0.157c0,-0.043 0,-0.103 0,-0.179c0,-0.076 -0.004,-0.181 -0.013,-0.315c-0.009,-0.134 -0.034,-0.299 -0.074,-0.493c-0.04,-0.195 -0.086,-0.397 -0.137,-0.606c-0.051,-0.209 -0.095,-0.393 -0.132,-0.551c-0.037,-0.158 -0.06,-0.289 -0.068,-0.393c-0.008,-0.104 -0.013,-0.187 -0.013,-0.25c0,-0.062 0.002,-0.103 0.007,-0.121c0.004,-0.018 0.028,-0.027 0.07,-0.025c0.042,0.002 0.124,0.023 0.247,0.062c0.122,0.039 0.296,0.091 0.522,0.154c0.225,0.063 0.466,0.124 0.721,0.182c0.255,0.058 0.494,0.111 0.717,0.158c0.222,0.047 0.45,0.078 0.682,0.094c0.232,0.016 0.43,0.024 0.593,0.024c0.163,0 0.258,-0.046 0.286,-0.138" style="fill:none;fill-rule:nonzero;stroke:#000;stroke-width:0.85px;"/><path d="M321,18.255c0.016,0.098 0.122,0.149 0.319,0.155c0.197,0.005 0.402,-0.01 0.614,-0.046c0.212,-0.036 0.414,-0.059 0.606,-0.07c0.191,-0.011 0.355,-0.007 0.49,0.014c0.136,0.02 0.251,0.09 0.347,0.211c0.096,0.12 0.175,0.267 0.237,0.441c0.062,0.174 0.111,0.345 0.146,0.513c0.035,0.168 0.054,0.318 0.058,0.449c0.003,0.131 0.008,0.245 0.015,0.343c0.007,0.098 0.03,0.142 0.07,0.133" style="fill:none;fill-rule:nonzero;stroke:#000;stroke-width:0.85px;"/><path d="M350.749,20.07c0.025,0.029 0.145,0.018 0.36,-0.033c0.214,-0.051 0.42,-0.115 0.618,-0.192c0.198,-0.077 0.408,-0.156 0.631,-0.237c0.223,-0.08 0.424,-0.15 0.602,-0.209c0.178,-0.059 0.319,-0.097 0.423,-0.113c0.105,-0.016 0.187,-0.024 0.246,-0.021c0.059,0.002 0.116,0.025 0.169,0.069c0.053,0.044 0.108,0.108 0.164,0.192c0.056,0.084 0.111,0.18 0.164,0.289c0.054,0.109 0.103,0.235 0.147,0.379c0.044,0.144 0.083,0.295 0.118,0.454c0.034,0.158 0.077,0.305 0.13,0.439c0.053,0.135 0.117,0.253 0.194,0.354c0.114,0.15 0.267,0.272 0.459,0.367" style="fill:none;fill-rule:nonzero;stroke:#000;stroke-width:0.85px;"/><path d="M319.797,38.904c0.029,0.029 0.079,0.079 0.151,0.151c0.044,0.045 0.074,0.066 0.088,0.064c0.015,-0.002 0.032,-0.03 0.051,-0.086c0.019,-0.055 0.031,-0.137 0.034,-0.246c0.003,-0.108 0.003,-0.226 0.001,-0.354c-0.002,-0.128 -0.023,-0.277 -0.063,-0.448c-0.04,-0.17 -0.068,-0.381 -0.084,-0.631c-0.016,-0.25 -0.017,-0.494 -0.001,-0.732c0.016,-0.238 0.051,-0.423 0.106,-0.556c0.055,-0.133 0.122,-0.223 0.201,-0.269c0.079,-0.047 0.192,-0.073 0.34,-0.078c0.148,-0.006 0.33,0.011 0.546,0.05c0.217,0.039 0.452,0.086 0.707,0.14c0.254,0.054 0.498,0.096 0.73,0.126c0.358,0.046 0.63,0.126 0.816,0.238" style="fill:none;fill-rule:nonzero;stroke:#000;stroke-width:0.85px;"/><path d="M336.706,56.688c-0.056,-0.058 -0.095,-0.134 -0.118,-0.229c-0.023,-0.095 -0.035,-0.198 -0.035,-0.31l0,-1.18c0,-0.259 0.01,-0.493 0.03,-0.7c0.02,-0.207 0.074,-0.372 0.162,-0.494c0.087,-0.122 0.2,-0.206 0.337,-0.253c0.137,-0.047 0.292,-0.068 0.466,-0.064c0.174,0.004 0.369,0.038 0.586,0.104c0.217,0.065 0.452,0.141 0.704,0.226c0.252,0.085 0.5,0.156 0.744,0.213c0.244,0.057 0.405,0.095 0.482,0.114c0.108,0.026 0.129,-0.052 0.065,-0.235" style="fill:none;fill-rule:nonzero;stroke:#000;stroke-width:0.85px;"/><path d="M296.217,22.039c0,-0.082 -0.001,-0.188 -0.003,-0.318c-0.002,-0.13 -0.025,-0.253 -0.069,-0.369c-0.044,-0.116 -0.139,-0.213 -0.285,-0.291c-0.146,-0.078 -0.36,-0.105 -0.642,-0.08c-0.282,0.024 -0.582,0.171 -0.898,0.441c-0.317,0.27 -0.553,0.611 -0.71,1.024c-0.156,0.413 -0.183,0.785 -0.079,1.117c0.104,0.332 0.314,0.543 0.63,0.634c0.316,0.091 0.621,0.08 0.915,-0.033c0.294,-0.113 0.53,-0.307 0.707,-0.58c0.178,-0.274 0.305,-0.581 0.383,-0.922c0.077,-0.341 0.181,-0.371 0.31,-0.09c0.129,0.281 0.277,0.553 0.443,0.817c0.252,0.401 0.521,0.659 0.808,0.775" style="fill:none;fill-rule:nonzero;stroke:#000;stroke-width:0.85px;"/><path d="M317.697,11.495c0,0.121 0,0.242 0,0.364c0,0.121 0.001,0.3 0.003,0.535c0.002,0.235 0.032,0.537 0.09,0.905c0.058,0.368 0.124,0.738 0.197,1.109c0.073,0.371 0.126,0.661 0.157,0.868c0.031,0.207 0.051,0.323 0.061,0.348c0.01,0.025 0.034,-0.039 0.074,-0.192c0.04,-0.152 0.128,-0.344 0.265,-0.576c0.137,-0.231 0.325,-0.415 0.565,-0.551c0.24,-0.136 0.492,-0.215 0.757,-0.238c0.265,-0.023 0.506,0.012 0.723,0.103c0.216,0.091 0.375,0.246 0.474,0.464c0.1,0.218 0.144,0.442 0.134,0.671c-0.011,0.229 -0.099,0.428 -0.266,0.596c-0.167,0.168 -0.363,0.294 -0.588,0.377c-0.333,0.123 -0.696,0.145 -1.089,0.067" style="fill:none;fill-rule:nonzero;stroke:#000;stroke-width:0.85px;"/><path d="M353.068,12.895c-0.002,-0.084 -0.049,-0.162 -0.143,-0.234c-0.093,-0.071 -0.261,-0.096 -0.504,-0.075c-0.242,0.021 -0.541,0.132 -0.896,0.331c-0.355,0.199 -0.665,0.454 -0.932,0.766c-0.266,0.311 -0.403,0.608 -0.409,0.891c-0.006,0.282 0.182,0.489 0.564,0.619c0.561,0.191 1.277,0.264 2.146,0.217" style="fill:none;fill-rule:nonzero;stroke:#000;stroke-width:0.85px;"/><path d="M315.51,38.948c0,-0.08 -0.003,-0.187 -0.01,-0.32c-0.007,-0.133 -0.046,-0.256 -0.118,-0.368c-0.072,-0.112 -0.177,-0.193 -0.313,-0.242c-0.137,-0.049 -0.294,0.002 -0.473,0.155c-0.179,0.152 -0.326,0.437 -0.442,0.855c-0.116,0.417 -0.176,0.893 -0.18,1.428c-0.004,0.534 0.061,1.069 0.195,1.605c0.134,0.536 0.258,1.048 0.373,1.536c0.115,0.488 0.185,0.914 0.21,1.278c0.025,0.363 0.026,0.618 0.004,0.765c-0.031,0.206 -0.29,0.176 -0.777,-0.089" style="fill:none;fill-rule:nonzero;stroke:#000;stroke-width:0.85px;"/><path d="M312.229,42.426c0.21,-0.037 0.529,-0.095 0.958,-0.174c0.428,-0.078 0.918,-0.134 1.468,-0.168c0.836,-0.051 1.521,0.05 2.056,0.302" style="fill:none;fill-rule:nonzero;stroke:#000;stroke-width:0.85px;"/><path d="M328.153,57.06c0.065,0.003 0.211,0.011 0.438,0.024c0.227,0.013 0.476,0.008 0.748,-0.014c0.272,-0.022 0.524,-0.114 0.756,-0.276c0.232,-0.162 0.384,-0.388 0.456,-0.678c0.072,-0.29 -0.001,-0.542 -0.218,-0.756c-0.217,-0.214 -0.557,-0.292 -1.019,-0.235c-0.463,0.057 -0.859,0.274 -1.188,0.65c-0.33,0.376 -0.51,0.794 -0.541,1.253c-0.031,0.46 0.132,0.859 0.49,1.198c0.358,0.339 0.794,0.57 1.309,0.692c0.766,0.182 1.507,0.135 2.224,-0.141" style="fill:none;fill-rule:nonzero;stroke:#000;stroke-width:0.85px;"/><g transform="matrix(1,0,0,1,-23.76,-18)"><g transform="matrix(16.711776,0,0,1,-501.734036,0)"><text x="31.934px" y="57.285px" style="font-family:'Helvetica';font-size:35.062px;fill:none;">.</text></g><g transform="matrix(9.23994,0,0,1,-263.131208,0)"><text x="31.934px" y="63.877px" style="font-family:'Helvetica';font-size:41.825px;fill:none;"><tspan x="31.934px " y="63.877px ">b</tspan></text></g></g><g transform="matrix(1,0,0,0.684573,-0,-5.677682)"><text x="70.951px" y="96.389px" style="font-family:'Helvetica';font-size:23.869px;fill:none;">e<tspan x="83.153px " y="96.389px ">t</tspan></text></g><g transform="matrix(1,0,0,0.680672,0,-5.74791)"><text x="183.992px" y="93.628px" style="font-family:'Helvetica';font-size:20.139px;fill:none;">a<tspan x="193.955px " y="93.628px ">t</tspan></text></g><g transform="matrix(1,0,0,0.46978,0,-9.543951)"><text x="202.224px" y="160.57px" style="font-family:'Helvetica';font-size:6.475px;fill:none;">.<tspan x="204.838px " y="160.57px ">.</tspan></text></g><g transform="matrix(1,0,0,1,-23.76,-18)"><g transform="matrix(1.569598,0,0,1,-199.857033,0)"><text x="350.874px" y="76.443px" style="font-family:'Helvetica';font-size:13.809px;fill:none;">e<tspan x="359.175px " y="76.443px ">t</tspan></text></g><g transform="matrix(1.34786,0,0,1,-129.021465,0)"><text x="370.901px" y="83.271px" style="font-family:'Helvetica';font-size:3.189px;fill:none;">.<tspan x="371.93px 372.96px " y="83.271px 83.271px ">..</tspan></text></g></g><g transform="matrix(1,0,0,0.276058,-0,-13.030965)"><text x="92.801px" y="302.549px" style="font-family:'Helvetica';font-size:16.791px;fill:none;">.</text></g></svg>