<?xml version="1.0" encoding="UTF-8" standalone="no"?><!DOCTYPE svg PUBLIC "-//W3C//DTD SVG 1.1//EN" "http://www.w3.org/Graphics/SVG/1.1/DTD/svg11.dtd"><svg width="100%" height="100%" viewBox="0 0 832 155" version="1.1" xmlns="http://www.w3.org/2000/svg" xmlns:xlink="http://www.w3.org/1999/xlink" xml:space="preserve" xmlns:serif="http://www.serif.com/" style="fill-rule:evenodd;clip-rule:evenodd;stroke-linecap:round;stroke-linejoin:round;stroke-miterlimit:10;"><rect id="Artboard2" x="0" y="0" width="832" height="155" style="fill:none;"/><clipPath id="_clip1"><rect x="0" y="0" width="832" height="155"/></clipPath><g clip-path="url(#_clip1)"><rect x="0" y="-0" width="832" height="155" style="fill:#fff;"/><path d="M60.786,69.837c-0.141,0.089 -0.481,0.262 -1.02,0.52c-0.323,0.154 -0.521,0.212 -0.596,0.172c-0.074,-0.039 -0.102,-0.271 -0.083,-0.696c0.019,-0.425 0.03,-0.827 0.032,-1.206c0.002,-0.379 -0.179,-0.688 -0.545,-0.926c-0.365,-0.238 -0.894,-0.396 -1.585,-0.473c-0.692,-0.077 -1.437,-0.04 -2.237,0.11c-0.8,0.15 -1.522,0.492 -2.166,1.027c-0.645,0.534 -1.155,1.245 -1.532,2.132c-0.377,0.887 -0.577,1.905 -0.6,3.053c-0.024,1.148 0.27,2.277 0.88,3.386c0.61,1.109 1.456,2.089 2.538,2.941c1.082,0.852 2.264,1.485 3.545,1.898c1.281,0.414 2.571,0.485 3.869,0.213c1.298,-0.272 2.384,-1.065 3.258,-2.378c0.873,-1.314 1.407,-2.821 1.601,-4.523c0.194,-1.702 0.183,-3.436 -0.035,-5.203c-0.217,-1.767 -0.591,-3.208 -1.12,-4.322c-0.53,-1.115 -1.14,-1.851 -1.831,-2.209c-0.691,-0.358 -1.532,-0.537 -2.524,-0.536c-0.991,0.001 -2.039,0.224 -3.144,0.67c-1.104,0.446 -2.145,1.126 -3.123,2.04c-0.978,0.914 -1.813,2.101 -2.506,3.561c-0.693,1.46 -1.106,3.03 -1.24,4.709c-0.134,1.679 0.147,3.148 0.843,4.407c0.696,1.258 1.598,2.164 2.706,2.716c1.108,0.553 2.22,0.852 3.334,0.897c1.114,0.045 2.195,-0.226 3.243,-0.815c1.048,-0.589 1.949,-1.434 2.701,-2.535c0.753,-1.101 1.265,-2.317 1.537,-3.648c0.272,-1.331 0.263,-2.619 -0.026,-3.863c-0.29,-1.245 -0.839,-2.251 -1.648,-3.019c-0.809,-0.768 -1.667,-1.34 -2.575,-1.718c-0.907,-0.378 -1.948,-0.574 -3.121,-0.589c-1.174,-0.014 -2.366,0.337 -3.577,1.054c-1.211,0.717 -2.167,1.741 -2.869,3.073c-0.702,1.332 -1.094,2.711 -1.176,4.139c-0.082,1.428 0.296,2.741 1.134,3.941c0.838,1.2 2.103,2.076 3.794,2.63c1.691,0.553 3.439,0.748 5.244,0.583c1.805,-0.165 3.412,-0.765 4.819,-1.8c1.407,-1.036 2.464,-2.199 3.17,-3.491c0.707,-1.291 1.077,-2.62 1.112,-3.987c0.035,-1.367 -0.353,-2.609 -1.164,-3.726c-0.811,-1.117 -1.737,-2.023 -2.78,-2.717c-1.042,-0.694 -2.051,-1.205 -3.027,-1.533c-0.976,-0.327 -1.996,-0.35 -3.062,-0.068c-1.066,0.282 -2.153,1.086 -3.261,2.412c-1.108,1.326 -2.011,2.743 -2.71,4.253c-0.699,1.509 -1.086,2.985 -1.159,4.426c-0.073,1.441 0.363,2.719 1.309,3.832c0.946,1.113 2.292,1.817 4.038,2.111c1.746,0.294 3.416,0.184 5.011,-0.331c1.595,-0.515 2.837,-1.34 3.728,-2.477c0.891,-1.137 1.414,-2.516 1.57,-4.138c0.156,-1.622 -0.165,-3.418 -0.963,-5.389c-0.798,-1.971 -1.978,-3.531 -3.54,-4.68c-1.563,-1.149 -3.175,-1.656 -4.838,-1.522c-1.663,0.134 -3.117,1.045 -4.365,2.732c-1.247,1.687 -2.142,3.653 -2.686,5.898c-0.543,2.245 -0.729,4.208 -0.556,5.888c0.173,1.68 0.864,2.834 2.076,3.462c1.211,0.628 2.547,0.787 4.007,0.477c1.461,-0.31 2.703,-1.078 3.727,-2.306c1.024,-1.228 1.686,-2.663 1.985,-4.303c0.299,-1.641 0.222,-3.073 -0.23,-4.296c-0.452,-1.223 -1.326,-1.954 -2.621,-2.193c-1.295,-0.239 -2.531,0.07 -3.71,0.925c-1.178,0.856 -2.044,2.068 -2.596,3.637c-0.552,1.569 -0.819,3.029 -0.799,4.381c0.019,1.352 0.516,2.328 1.489,2.927c0.973,0.599 2.245,0.707 3.814,0.323c1.569,-0.384 2.925,-1.262 4.067,-2.632c1.142,-1.37 1.792,-2.87 1.951,-4.498c0.159,-1.628 -0.271,-2.923 -1.289,-3.882c-1.018,-0.96 -2.334,-1.325 -3.947,-1.098c-1.613,0.228 -2.928,1.105 -3.945,2.632c-1.017,1.527 -1.514,3.195 -1.492,5.004c0.023,1.809 0.65,3.195 1.883,4.158c1.233,0.963 2.636,1.316 4.209,1.057c1.573,-0.259 2.749,-0.999 3.527,-2.22c0.778,-1.222 1.101,-2.45 0.97,-3.684c-0.131,-1.234 -0.675,-2.086 -1.632,-2.555c-0.957,-0.469 -1.927,-0.411 -2.91,0.173c-0.983,0.585 -1.635,1.467 -1.954,2.646c-0.32,1.18 -0.263,2.126 0.17,2.84c0.433,0.714 1.128,1.02 2.086,0.92c0.958,-0.1 1.672,-0.566 2.142,-1.396c0.47,-0.831 0.724,-1.622 0.763,-2.374c0.039,-0.752 -0.037,-1.244 -0.229,-1.475c-0.192,-0.232 -0.411,-0.259 -0.658,-0.081c-0.247,0.178 -0.394,0.44 -0.441,0.785c-0.047,0.346 -0.067,0.588 -0.058,0.728c0.009,0.14 0.119,0.178 0.331,0.116c0.212,-0.062 0.486,-0.344 0.821,-0.844c0.336,-0.5 0.573,-0.993 0.713,-1.477c0.14,-0.484 0.197,-0.793 0.172,-0.928c-0.025,-0.134 -0.16,-0.122 -0.406,0.038c-0.246,0.159 -0.482,0.45 -0.708,0.873c-0.226,0.423 -0.377,0.76 -0.454,1.01c-0.077,0.25 -0.111,0.413 -0.103,0.49c0.008,0.077 0.085,0.026 0.231,-0.153c0.146,-0.178 0.248,-0.58 0.305,-1.207c0.057,-0.626 -0.159,-1.233 -0.648,-1.82c-0.489,-0.588 -1.153,-0.763 -1.991,-0.527c-0.838,0.237 -1.367,0.8 -1.586,1.691c-0.219,0.891 -0.274,1.615 -0.165,2.171c0.109,0.556 0.427,0.806 0.953,0.75c0.526,-0.057 0.962,-0.445 1.308,-1.165c0.346,-0.72 0.494,-1.52 0.443,-2.399c-0.051,-0.879 -0.219,-1.366 -0.503,-1.463c-0.39,-0.132 -0.187,-0.119 0.609,0.038" style="fill:none;fill-rule:nonzero;stroke:#c2361a;stroke-width:3.54px;"/><path d="M259.117,68.842c-0.092,0 -0.493,0 -1.202,0c-0.394,-0 -0.747,-0.062 -1.059,-0.185c-0.312,-0.123 -0.682,-0.369 -1.111,-0.738c-0.429,-0.368 -0.93,-0.727 -1.504,-1.074c-0.574,-0.348 -1.203,-0.611 -1.887,-0.791c-0.684,-0.18 -1.429,-0.198 -2.235,-0.054c-0.806,0.144 -1.611,0.774 -2.416,1.891c-0.805,1.117 -1.365,2.481 -1.681,4.093c-0.316,1.612 -0.31,3.119 0.018,4.521c0.328,1.403 0.96,2.52 1.896,3.353c0.936,0.833 1.94,1.414 3.011,1.744c1.071,0.33 2.211,0.51 3.42,0.539c1.209,0.029 2.475,-0.197 3.801,-0.679c1.325,-0.482 2.536,-1.159 3.633,-2.03c1.097,-0.872 1.972,-1.88 2.627,-3.025c0.655,-1.145 1.072,-2.33 1.251,-3.555c0.179,-1.225 0.147,-2.369 -0.097,-3.432c-0.244,-1.063 -0.788,-1.95 -1.633,-2.661c-0.845,-0.711 -1.681,-1.323 -2.506,-1.835c-0.826,-0.512 -1.579,-0.944 -2.262,-1.295c-0.682,-0.351 -1.414,-0.568 -2.197,-0.65c-0.783,-0.082 -1.701,0.145 -2.755,0.68c-1.054,0.535 -2.134,1.455 -3.24,2.758c-1.106,1.303 -2.033,2.768 -2.782,4.394c-0.749,1.626 -1.176,3.154 -1.281,4.582c-0.106,1.429 0.191,2.695 0.89,3.801c0.698,1.105 1.567,2.011 2.606,2.718c1.039,0.707 2.166,1.113 3.382,1.218c1.216,0.105 2.483,-0.23 3.802,-1.005c1.319,-0.774 2.487,-1.824 3.504,-3.149c1.017,-1.325 1.774,-2.735 2.271,-4.23c0.497,-1.495 0.725,-3.017 0.685,-4.566c-0.041,-1.549 -0.414,-2.864 -1.12,-3.944c-0.706,-1.08 -1.6,-1.765 -2.681,-2.055c-1.081,-0.29 -2.278,-0.218 -3.589,0.217c-1.311,0.434 -2.56,1.325 -3.745,2.672c-1.185,1.347 -2.06,2.86 -2.625,4.539c-0.564,1.679 -0.727,3.239 -0.488,4.68c0.239,1.441 0.996,2.58 2.27,3.417c1.274,0.837 2.724,1.304 4.35,1.402c1.626,0.098 3.111,-0.27 4.455,-1.104c1.344,-0.834 2.305,-1.968 2.885,-3.401c0.579,-1.434 0.767,-2.912 0.565,-4.435c-0.203,-1.523 -0.924,-2.778 -2.165,-3.767c-1.241,-0.988 -2.679,-1.602 -4.315,-1.84c-1.636,-0.238 -3.149,-0.053 -4.538,0.555c-1.389,0.608 -2.589,1.67 -3.599,3.186c-1.01,1.516 -1.685,3.078 -2.025,4.683c-0.34,1.606 -0.145,2.915 0.584,3.927c0.73,1.012 1.955,1.593 3.675,1.743c1.72,0.15 3.368,-0.107 4.944,-0.771c1.575,-0.664 2.77,-1.68 3.583,-3.048c0.813,-1.368 1.143,-2.936 0.991,-4.706c-0.153,-1.77 -0.918,-3.47 -2.298,-5.101c-1.379,-1.631 -2.866,-2.649 -4.461,-3.053c-1.594,-0.405 -2.946,0.027 -4.055,1.296c-1.109,1.269 -1.784,2.963 -2.025,5.082c-0.241,2.12 -0.096,3.993 0.436,5.62c0.532,1.627 1.48,2.769 2.844,3.425c1.364,0.656 2.802,0.864 4.315,0.624c1.513,-0.24 2.739,-0.992 3.68,-2.256c0.941,-1.264 1.491,-2.793 1.65,-4.588c0.159,-1.795 -0.139,-3.528 -0.893,-5.2c-0.754,-1.672 -1.798,-2.803 -3.131,-3.393c-1.334,-0.59 -2.681,-0.523 -4.043,0.201c-1.362,0.723 -2.461,2.077 -3.298,4.06c-0.836,1.983 -1.332,3.979 -1.488,5.987c-0.155,2.008 0.171,3.574 0.978,4.699c0.808,1.124 2.113,1.653 3.917,1.587c1.804,-0.067 3.62,-0.767 5.447,-2.102c1.828,-1.335 3.144,-2.957 3.949,-4.867c0.805,-1.91 0.999,-3.837 0.581,-5.78c-0.418,-1.943 -1.435,-3.394 -3.052,-4.353c-1.617,-0.959 -3.386,-1.362 -5.308,-1.209c-1.922,0.153 -3.663,0.932 -5.223,2.337c-1.56,1.405 -2.677,3.08 -3.352,5.025c-0.675,1.945 -0.841,3.782 -0.5,5.511c0.342,1.728 1.358,2.993 3.048,3.793c1.69,0.8 3.481,1.121 5.372,0.961c1.891,-0.16 3.411,-0.805 4.56,-1.937c1.149,-1.131 1.793,-2.544 1.931,-4.239c0.138,-1.694 -0.288,-3.336 -1.278,-4.926c-0.99,-1.59 -2.31,-2.581 -3.959,-2.974c-1.649,-0.393 -3.109,-0.143 -4.38,0.75c-1.27,0.893 -2.099,2.187 -2.487,3.883c-0.387,1.696 -0.345,3.293 0.126,4.789c0.471,1.497 1.358,2.528 2.663,3.093c1.304,0.566 2.61,0.629 3.917,0.192c1.307,-0.438 2.25,-1.284 2.83,-2.539c0.579,-1.255 0.791,-2.51 0.634,-3.767c-0.156,-1.257 -0.765,-2.11 -1.827,-2.56c-1.062,-0.45 -2.19,-0.42 -3.383,0.089c-1.193,0.509 -2.039,1.325 -2.535,2.449c-0.497,1.124 -0.657,2.139 -0.479,3.046c0.178,0.907 0.732,1.48 1.663,1.717c0.931,0.238 1.813,0.142 2.647,-0.287c0.834,-0.429 1.388,-0.998 1.661,-1.708c0.273,-0.71 0.337,-1.206 0.191,-1.49c-0.146,-0.283 -0.441,-0.342 -0.885,-0.175c-0.443,0.167 -0.732,0.442 -0.866,0.827c-0.134,0.385 -0.197,0.633 -0.19,0.745c0.008,0.112 0.104,0.107 0.288,-0.014c0.185,-0.121 0.36,-0.429 0.526,-0.925c0.166,-0.496 0.281,-0.984 0.346,-1.464c0.094,-0.704 -0.086,-1.462 -0.539,-2.271" style="fill:none;fill-rule:nonzero;stroke:#c2361a;stroke-width:3.54px;"/><path d="M68.017,48.885c-0.063,0.507 -0.015,0.71 0.144,0.61c0.114,-0.072 0.632,-0.538 1.553,-1.399c0.921,-0.861 2.209,-1.708 3.865,-2.542c1.656,-0.834 3.764,-1.778 6.326,-2.834c2.562,-1.055 5.382,-2.169 8.461,-3.341c3.078,-1.172 6.028,-2.284 8.848,-3.336c2.82,-1.052 5.51,-1.967 8.069,-2.747c2.559,-0.78 4.974,-1.394 7.244,-1.842c2.27,-0.448 4.508,-0.738 6.713,-0.871c2.205,-0.133 4.446,-0.2 6.723,-0.201c2.277,-0.002 4.531,-0.002 6.761,-0.002c2.23,0 4.483,-0.005 6.758,-0.014c2.275,-0.009 4.62,-0.072 7.032,-0.189c2.413,-0.117 4.938,-0.228 7.576,-0.332c2.638,-0.104 5.202,-0.163 7.692,-0.175c2.49,-0.013 4.935,-0.019 7.334,-0.019l7.202,0c2.402,0 4.75,0.028 7.044,0.083c2.294,0.056 4.483,0.227 6.565,0.515c2.083,0.288 4.177,0.574 6.281,0.858c2.104,0.285 4.023,0.621 5.756,1.008c1.733,0.388 3.3,0.834 4.701,1.34c1.401,0.506 2.873,0.983 4.417,1.431c1.544,0.448 3.034,0.928 4.47,1.439c1.437,0.511 2.737,1.07 3.902,1.676c1.165,0.606 2.188,1.194 3.07,1.763c0.882,0.569 1.621,1.099 2.218,1.588c0.597,0.49 1.134,0.91 1.613,1.261c0.478,0.351 0.908,0.601 1.288,0.751c0.38,0.15 0.66,0.226 0.839,0.228c0.179,0.003 0.286,-0.158 0.321,-0.482c0.035,-0.324 0.043,-0.852 0.025,-1.583c-0.018,-0.731 -0.139,-1.468 -0.363,-2.208c-0.224,-0.74 -0.511,-1.498 -0.862,-2.274c-0.351,-0.775 -0.739,-1.647 -1.164,-2.614c-0.425,-0.967 -0.787,-1.851 -1.086,-2.652c-0.299,-0.801 -0.532,-1.392 -0.699,-1.773c-0.167,-0.381 -0.282,-0.493 -0.346,-0.336c-0.064,0.157 -0.013,0.753 0.155,1.789c0.167,1.036 0.618,2.171 1.35,3.406c0.733,1.235 1.51,2.426 2.331,3.574c0.821,1.148 1.603,2.241 2.344,3.281c0.742,1.04 1.434,1.901 2.078,2.583c0.643,0.683 1.153,1.216 1.529,1.6c0.376,0.384 0.629,0.685 0.759,0.902c0.13,0.217 0.074,0.422 -0.17,0.613c-0.244,0.192 -0.845,0.418 -1.805,0.679c-0.959,0.261 -2.001,0.528 -3.126,0.802c-1.658,0.403 -3.679,0.654 -6.06,0.753" style="fill:none;fill-rule:nonzero;stroke:#c2361a;stroke-width:3.54px;"/><path d="M237.243,94.908c-0.445,0 -1,0.033 -1.666,0.099c-0.665,0.065 -1.37,0.28 -2.113,0.642c-0.743,0.363 -1.601,0.864 -2.574,1.503c-0.973,0.64 -2.097,1.324 -3.371,2.053c-1.274,0.729 -2.691,1.409 -4.252,2.04c-1.56,0.631 -3.195,1.237 -4.903,1.816c-1.708,0.58 -3.466,1.128 -5.273,1.646c-1.807,0.518 -3.725,1.021 -5.754,1.509c-2.029,0.488 -4.033,0.922 -6.012,1.301c-1.979,0.379 -3.975,0.707 -5.987,0.984c-2.012,0.277 -4.079,0.522 -6.2,0.735c-2.121,0.213 -4.314,0.498 -6.578,0.856c-2.264,0.358 -4.537,0.745 -6.818,1.163c-2.282,0.417 -4.459,0.755 -6.533,1.014c-2.074,0.259 -4.051,0.495 -5.933,0.708c-1.881,0.213 -3.637,0.397 -5.266,0.552c-1.629,0.155 -3.19,0.265 -4.681,0.329c-1.491,0.064 -2.996,0.097 -4.514,0.098c-1.518,0.001 -3.026,-0.065 -4.525,-0.199c-1.499,-0.134 -3.032,-0.336 -4.599,-0.606c-1.567,-0.27 -3.098,-0.547 -4.592,-0.832c-1.494,-0.285 -2.912,-0.564 -4.253,-0.837c-1.341,-0.273 -2.685,-0.576 -4.029,-0.907c-1.345,-0.331 -2.758,-0.645 -4.24,-0.943c-1.482,-0.298 -2.993,-0.573 -4.533,-0.825c-1.54,-0.253 -3.055,-0.515 -4.545,-0.789c-1.49,-0.273 -2.942,-0.59 -4.356,-0.95c-1.414,-0.36 -2.63,-0.704 -3.65,-1.031c-1.019,-0.327 -1.83,-0.662 -2.431,-1.004c-0.601,-0.342 -1.12,-0.71 -1.557,-1.103c-0.437,-0.393 -0.95,-0.86 -1.539,-1.401c-0.589,-0.541 -1.353,-1.077 -2.291,-1.608c-0.938,-0.531 -1.944,-0.947 -3.018,-1.249c-1.074,-0.302 -2.046,-0.569 -2.917,-0.802c-0.871,-0.233 -1.643,-0.535 -2.318,-0.906c-0.675,-0.371 -1.291,-0.826 -1.849,-1.364c-0.558,-0.538 -1.111,-1.039 -1.659,-1.5c-0.548,-0.462 -1.052,-0.833 -1.513,-1.113c-0.461,-0.28 -0.827,-0.493 -1.098,-0.64c-0.271,-0.146 -0.445,-0.226 -0.522,-0.24c-0.077,-0.014 -0.116,0.012 -0.117,0.077c-0.001,0.065 -0.002,0.365 -0.002,0.902l0,4.955c0,0.981 0.04,1.894 0.119,2.738c0.08,0.844 0.228,1.597 0.444,2.258c0.216,0.661 0.383,1.12 0.5,1.378c0.117,0.258 0.181,0.315 0.194,0.171c0.013,-0.143 -0.095,-0.672 -0.323,-1.587c-0.228,-0.914 -0.599,-1.968 -1.112,-3.161c-0.513,-1.193 -0.956,-2.295 -1.327,-3.307c-0.371,-1.011 -0.676,-1.882 -0.913,-2.613c-0.237,-0.73 -0.38,-1.289 -0.427,-1.676c-0.047,-0.387 -0.067,-0.66 -0.058,-0.818c0.009,-0.158 0.21,-0.269 0.602,-0.333c0.393,-0.064 1.167,-0.125 2.322,-0.184c1.156,-0.059 2.627,-0.167 4.414,-0.325c1.787,-0.158 3.464,-0.334 5.032,-0.528c1.568,-0.194 2.857,-0.315 3.869,-0.361c1.012,-0.046 1.443,0.031 1.293,0.232" style="fill:none;fill-rule:nonzero;stroke:#c2361a;stroke-width:3.54px;"/><path d="M528.683,66.583c0.243,-0.116 0.328,-0.405 0.254,-0.866c-0.051,-0.316 -0.259,-0.555 -0.626,-0.716c-0.366,-0.161 -0.82,-0.323 -1.36,-0.487c-0.54,-0.164 -1.143,-0.273 -1.808,-0.327c-0.665,-0.054 -1.38,-0.04 -2.145,0.043c-0.765,0.083 -1.587,0.408 -2.466,0.975c-0.878,0.567 -1.725,1.36 -2.541,2.378c-0.815,1.018 -1.444,2.158 -1.886,3.42c-0.442,1.262 -0.699,2.444 -0.77,3.547c-0.071,1.103 -0.002,2.083 0.208,2.94c0.21,0.858 0.55,1.678 1.02,2.46c0.47,0.782 1.001,1.534 1.593,2.256c0.592,0.722 1.346,1.265 2.263,1.628c0.916,0.363 2.047,0.416 3.391,0.16c1.344,-0.256 2.698,-0.948 4.061,-2.077c1.363,-1.129 2.524,-2.313 3.482,-3.552c0.959,-1.239 1.685,-2.34 2.178,-3.302c0.493,-0.962 0.786,-1.84 0.88,-2.635c0.093,-0.795 0.012,-1.558 -0.245,-2.29c-0.257,-0.733 -0.686,-1.328 -1.286,-1.785c-0.6,-0.458 -1.363,-0.807 -2.29,-1.049c-0.926,-0.242 -1.901,-0.371 -2.923,-0.387c-1.023,-0.016 -1.948,0.164 -2.775,0.54c-0.827,0.376 -1.691,1.02 -2.592,1.932c-0.901,0.911 -1.668,2.03 -2.302,3.356c-0.634,1.326 -0.968,2.631 -1.003,3.916c-0.035,1.284 0.367,2.308 1.205,3.07c0.838,0.763 1.882,1.234 3.131,1.415c1.249,0.18 2.45,0.076 3.602,-0.313c1.152,-0.389 2.097,-1.105 2.836,-2.147c0.739,-1.043 1.19,-2.302 1.353,-3.778c0.163,-1.476 -0.207,-3.079 -1.11,-4.809c-0.903,-1.73 -2.076,-2.95 -3.518,-3.66c-1.442,-0.71 -2.791,-0.815 -4.045,-0.313c-1.255,0.502 -2.474,1.675 -3.657,3.519c-1.183,1.844 -2.027,3.786 -2.533,5.827c-0.506,2.041 -0.432,3.78 0.224,5.218c0.655,1.437 1.968,2.366 3.937,2.788c1.97,0.421 3.958,0.373 5.965,-0.145c2.007,-0.518 3.665,-1.45 4.971,-2.795c1.307,-1.345 2.168,-2.868 2.584,-4.57c0.416,-1.702 0.409,-3.268 -0.021,-4.698c-0.43,-1.43 -1.286,-2.381 -2.57,-2.852c-1.284,-0.472 -2.64,-0.565 -4.07,-0.279c-1.43,0.286 -2.728,0.968 -3.894,2.047c-1.167,1.079 -2.051,2.295 -2.654,3.649c-0.603,1.354 -0.862,2.599 -0.778,3.736c0.084,1.137 0.741,1.943 1.972,2.417c1.231,0.475 2.769,0.469 4.615,-0.017c1.846,-0.486 3.37,-1.453 4.571,-2.903c1.202,-1.45 1.81,-3.176 1.824,-5.179c0.015,-2.003 -0.566,-3.606 -1.742,-4.809c-1.176,-1.203 -2.711,-1.608 -4.604,-1.215c-1.893,0.393 -3.687,1.598 -5.381,3.614c-1.694,2.016 -2.856,4.206 -3.485,6.571c-0.629,2.364 -0.683,4.191 -0.161,5.48c0.521,1.289 1.548,1.844 3.079,1.665c1.531,-0.18 3.04,-0.933 4.527,-2.261c1.487,-1.327 2.506,-2.746 3.058,-4.256c0.552,-1.51 0.664,-2.717 0.335,-3.619c-0.328,-0.903 -1.152,-1.37 -2.472,-1.401c-1.32,-0.032 -2.552,0.37 -3.697,1.204c-1.145,0.834 -1.888,1.724 -2.23,2.671c-0.342,0.947 -0.35,1.659 -0.025,2.137c0.325,0.478 1.069,0.638 2.232,0.482c1.163,-0.157 2.21,-0.628 3.141,-1.413c0.931,-0.785 1.539,-1.527 1.825,-2.224c0.286,-0.697 0.236,-1.138 -0.149,-1.322c-0.385,-0.184 -0.959,0.012 -1.721,0.59c-0.762,0.578 -1.269,1.225 -1.521,1.942c-0.252,0.718 -0.253,1.216 -0.001,1.497c0.251,0.28 0.704,0.319 1.359,0.118c0.655,-0.202 1.132,-0.633 1.431,-1.293c0.299,-0.66 0.453,-1.219 0.461,-1.676c0.008,-0.457 -0.066,-0.78 -0.224,-0.97c-0.158,-0.19 -0.27,-0.298 -0.336,-0.323c-0.067,-0.025 -0.053,-0.007 0.041,0.054c0.138,0.089 0.292,0.265 0.463,0.53" style="fill:none;fill-rule:nonzero;stroke:#c2361a;stroke-width:3.54px;"/><path d="M725.677,70.3c0.401,-0.078 0.655,-0.348 0.761,-0.808c0.106,-0.461 -0.001,-0.919 -0.323,-1.375c-0.322,-0.455 -0.757,-0.863 -1.306,-1.223c-0.549,-0.36 -1.238,-0.644 -2.068,-0.853c-0.829,-0.209 -1.777,-0.326 -2.844,-0.351c-1.067,-0.025 -2.153,0.104 -3.258,0.388c-1.106,0.284 -2.095,0.944 -2.968,1.983c-0.873,1.038 -1.482,2.281 -1.829,3.729c-0.346,1.448 -0.28,2.865 0.198,4.251c0.478,1.387 1.429,2.511 2.852,3.374c1.423,0.863 2.934,1.441 4.533,1.733c1.599,0.293 3.165,0.406 4.699,0.339c1.534,-0.067 2.959,-0.477 4.275,-1.231c1.315,-0.754 2.423,-1.741 3.323,-2.962c0.9,-1.221 1.522,-2.515 1.868,-3.884c0.345,-1.368 0.494,-2.548 0.444,-3.539c-0.049,-0.991 -0.324,-1.771 -0.823,-2.341c-0.499,-0.57 -1.173,-1.035 -2.02,-1.395c-0.848,-0.36 -1.898,-0.625 -3.15,-0.795c-1.252,-0.17 -2.605,-0.244 -4.058,-0.222c-1.454,0.022 -2.839,0.305 -4.156,0.851c-1.317,0.546 -2.444,1.279 -3.381,2.199c-0.937,0.92 -1.632,1.964 -2.086,3.13c-0.454,1.167 -0.689,2.407 -0.705,3.721c-0.017,1.314 0.392,2.504 1.226,3.572c0.834,1.067 1.892,1.894 3.173,2.482c1.281,0.587 2.532,0.919 3.75,0.996c1.219,0.077 2.344,-0.235 3.377,-0.935c1.033,-0.7 1.862,-1.862 2.487,-3.486c0.625,-1.624 1.011,-3.387 1.158,-5.29c0.147,-1.903 0.069,-3.567 -0.233,-4.991c-0.302,-1.425 -0.929,-2.416 -1.881,-2.973c-0.952,-0.557 -2.076,-0.773 -3.373,-0.648c-1.297,0.125 -2.591,0.718 -3.882,1.779c-1.291,1.06 -2.363,2.408 -3.217,4.043c-0.853,1.635 -1.302,3.281 -1.347,4.94c-0.044,1.659 0.586,2.957 1.891,3.894c1.305,0.938 2.873,1.435 4.704,1.492c1.831,0.057 3.428,-0.336 4.79,-1.179c1.362,-0.843 2.278,-2.068 2.747,-3.676c0.469,-1.607 0.566,-3.2 0.291,-4.778c-0.275,-1.578 -1.091,-2.64 -2.449,-3.188c-1.358,-0.548 -2.922,-0.512 -4.693,0.109c-1.771,0.621 -3.293,1.739 -4.565,3.356c-1.273,1.616 -2.088,3.22 -2.446,4.811c-0.358,1.591 -0.094,2.853 0.792,3.785c0.886,0.932 2.363,1.419 4.431,1.461c2.068,0.042 3.988,-0.395 5.758,-1.31c1.77,-0.915 2.962,-2.183 3.574,-3.805c0.612,-1.622 0.623,-3.153 0.033,-4.592c-0.59,-1.44 -1.736,-2.381 -3.437,-2.825c-1.701,-0.443 -3.429,-0.339 -5.182,0.313c-1.754,0.653 -3.085,1.812 -3.995,3.479c-0.91,1.667 -1.288,3.245 -1.136,4.733c0.152,1.488 0.95,2.461 2.394,2.919c1.444,0.458 3.007,0.411 4.688,-0.14c1.681,-0.551 2.906,-1.445 3.676,-2.683c0.769,-1.237 0.934,-2.537 0.495,-3.899c-0.439,-1.362 -1.531,-2.176 -3.277,-2.441c-1.746,-0.265 -3.145,-0.013 -4.2,0.758c-1.054,0.77 -1.685,1.623 -1.893,2.56c-0.208,0.936 -0.127,1.696 0.244,2.28c0.371,0.584 0.948,0.929 1.73,1.035c0.782,0.106 1.498,-0.018 2.148,-0.371c0.65,-0.354 1.073,-0.791 1.272,-1.312c0.198,-0.521 0.065,-0.86 -0.401,-1.016c-0.465,-0.156 -1.066,-0.097 -1.801,0.179c-0.735,0.276 -1.205,0.638 -1.408,1.084c-0.204,0.447 0.044,0.748 0.744,0.903c0.699,0.155 1.583,0.095 2.65,-0.18c1.067,-0.275 1.856,-0.666 2.368,-1.174c0.512,-0.507 0.689,-0.839 0.533,-0.996c-0.156,-0.156 -0.59,-0.135 -1.299,0.064c-0.71,0.199 -1.232,0.438 -1.567,0.716l-0.251,0.209l0.753,-0.626" style="fill:none;fill-rule:nonzero;stroke:#c2361a;stroke-width:3.54px;"/><path d="M351.718,67.475c-0.459,0.085 -0.937,0.22 -1.435,0.404c-0.498,0.185 -0.803,0.3 -0.915,0.346c-0.112,0.046 -0.164,0.069 -0.157,0.069c0.007,0 0.155,-0.019 0.446,-0.057c0.29,-0.038 0.796,-0.083 1.517,-0.135c0.72,-0.052 1.729,-0.083 3.025,-0.093c1.296,-0.01 2.823,-0.069 4.582,-0.176c2.702,-0.164 4.938,-0.477 6.706,-0.938" style="fill:none;fill-rule:nonzero;stroke:#000;stroke-width:3.54px;"/><path d="M347.507,78.137c-0.017,0.394 -0.089,0.764 -0.215,1.108c-0.085,0.231 -0.119,0.347 -0.102,0.349c0.017,0.002 0.271,-0.012 0.761,-0.04c0.49,-0.028 1.321,-0.107 2.492,-0.235c1.171,-0.128 2.692,-0.268 4.562,-0.42c1.87,-0.152 3.838,-0.28 5.904,-0.384c3.125,-0.158 6.039,-0.383 8.743,-0.675" style="fill:none;fill-rule:nonzero;stroke:#000;stroke-width:3.54px;"/><path d="M418.053,72.746c-0.151,0.174 -0.39,0.34 -0.719,0.498c-0.214,0.103 -0.318,0.155 -0.312,0.155l4.843,0c1.843,0 4.101,-0.005 6.774,-0.014c4.057,-0.014 7.75,-0.142 11.08,-0.383" style="fill:none;fill-rule:nonzero;stroke:#000;stroke-width:3.54px;"/><g transform="matrix(1,0,0,1,2.716412,-69.50348)"><g transform="matrix(17.433121,0,0,1,-1042.434423,0)"><text x="63.435px" y="116.123px" style="font-family:'Helvetica';font-size:19.911px;fill:none;">-</text></g><g transform="matrix(1.214144,0,0,1,-9.71872,0)"><g transform="matrix(20.042127,0,0,20.042127,62.72057,148.8314)"></g><text x="45.384px" y="148.831px" style="font-family:'AppleSDGothicNeo-Regular', 'Apple SD Gothic Neo';font-size:20.042px;fill:none;">⑧</text></g></g><g transform="matrix(1,0,0,0.103232,0,-39.672373)"><g transform="matrix(196.852391,0,0,196.852391,358.736137,1160.765449)"></g><text x="243.777px" y="1160.765px" style="font-family:'Helvetica';font-size:196.852px;fill:none;">=</text></g><g transform="matrix(1,0,0,0.081034,0,-39.647756)"><g transform="matrix(246.270141,0,0,246.270141,497.251964,1492.986267)"></g><text x="415.242px" y="1492.986px" style="font-family:'Helvetica';font-size:246.27px;fill:none;">-</text></g><g transform="matrix(1,0,0,0.226707,0,-33.875023)"><g transform="matrix(81.942536,0,0,81.942536,732.317511,499.982491)"></g><text x="709.551px" y="499.982px" style="font-family:'Helvetica';font-size:81.943px;fill:none;">·</text></g><g transform="matrix(1,0,0,0.067672,0,-21.006784)"><g transform="matrix(332.800409,0,0,332.800409,188.801761,1940.304387)"></g><text x="77.977px" y="1940.304px" style="font-family:'Helvetica';font-size:332.8px;fill:none;">-</text></g></g></svg>