<?xml version="1.0" encoding="UTF-8" standalone="no"?><!DOCTYPE svg PUBLIC "-//W3C//DTD SVG 1.1//EN" "http://www.w3.org/Graphics/SVG/1.1/DTD/svg11.dtd"><svg width="100%" height="100%" viewBox="0 0 255 75" version="1.1" xmlns="http://www.w3.org/2000/svg" xmlns:xlink="http://www.w3.org/1999/xlink" xml:space="preserve" xmlns:serif="http://www.serif.com/" style="fill-rule:evenodd;clip-rule:evenodd;stroke-linecap:round;stroke-linejoin:round;stroke-miterlimit:10;"><rect id="Artboard5" x="0" y="0" width="254.07" height="74.563" style="fill:none;"/><clipPath id="_clip1"><rect x="0" y="0" width="254.07" height="74.563"/></clipPath><g clip-path="url(#_clip1)"><rect x="0" y="0" width="254.07" height="74.563" style="fill:#fff;"/><path d="M15.685,15.9c0.002,0.06 -0.051,0.146 -0.158,0.256c-0.069,0.07 -0.118,0.107 -0.149,0.111c-0.03,0.003 -0.049,0.002 -0.058,-0.005c-0.008,-0.007 -0.004,-0.02 0.011,-0.039c0.016,-0.019 0.076,-0.03 0.182,-0.03c0.106,-0.001 0.238,0.039 0.397,0.12c0.159,0.081 0.339,0.204 0.542,0.369c0.203,0.165 0.435,0.364 0.698,0.597c0.263,0.233 0.545,0.492 0.848,0.778c0.303,0.286 0.593,0.566 0.869,0.842c0.276,0.276 0.527,0.524 0.753,0.745c0.225,0.221 0.438,0.424 0.638,0.609c0.2,0.186 0.399,0.371 0.599,0.555c0.199,0.184 0.393,0.388 0.58,0.609c0.188,0.222 0.365,0.456 0.531,0.704c0.166,0.248 0.326,0.484 0.48,0.709c0.154,0.225 0.298,0.42 0.432,0.585c0.134,0.165 0.267,0.317 0.398,0.456c0.131,0.139 0.258,0.278 0.38,0.416c0.122,0.138 0.238,0.275 0.348,0.409c0.11,0.134 0.226,0.263 0.35,0.388c0.123,0.124 0.248,0.237 0.374,0.337c0.126,0.1 0.26,0.208 0.403,0.324c0.143,0.115 0.301,0.247 0.475,0.394c0.174,0.147 0.354,0.298 0.541,0.451c0.187,0.153 0.375,0.299 0.565,0.439c0.19,0.139 0.363,0.27 0.52,0.392c0.157,0.122 0.306,0.243 0.447,0.361c0.141,0.119 0.283,0.24 0.427,0.364c0.143,0.124 0.288,0.255 0.433,0.393c0.146,0.138 0.288,0.281 0.427,0.429c0.139,0.148 0.276,0.296 0.413,0.445c0.136,0.148 0.264,0.291 0.384,0.427c0.12,0.137 0.24,0.261 0.361,0.374c0.121,0.113 0.242,0.216 0.361,0.309c0.119,0.093 0.243,0.185 0.371,0.277c0.128,0.092 0.264,0.196 0.406,0.312c0.143,0.116 0.293,0.243 0.45,0.38c0.158,0.138 0.35,0.301 0.577,0.491c0.227,0.189 0.487,0.394 0.781,0.613c0.294,0.219 0.574,0.434 0.843,0.645c0.268,0.211 0.526,0.425 0.772,0.641c0.247,0.216 0.47,0.422 0.672,0.618c0.201,0.196 0.389,0.385 0.565,0.567c0.175,0.182 0.353,0.367 0.532,0.553c0.179,0.187 0.372,0.395 0.578,0.624c0.206,0.229 0.421,0.476 0.646,0.739c0.225,0.264 0.465,0.537 0.719,0.821c0.254,0.284 0.505,0.555 0.754,0.811c0.249,0.257 0.484,0.493 0.706,0.708c0.222,0.215 0.432,0.418 0.63,0.609c0.198,0.19 0.385,0.378 0.563,0.562c0.178,0.184 0.37,0.375 0.578,0.572c0.208,0.197 0.414,0.378 0.619,0.545c0.205,0.167 0.399,0.324 0.582,0.472c0.183,0.148 0.358,0.314 0.527,0.498c0.168,0.184 0.331,0.367 0.486,0.55c0.156,0.183 0.314,0.364 0.474,0.543c0.16,0.179 0.327,0.37 0.502,0.571c0.175,0.201 0.363,0.418 0.565,0.652c0.202,0.233 0.42,0.49 0.654,0.77c0.234,0.28 0.437,0.525 0.609,0.737c0.172,0.211 0.327,0.4 0.464,0.567c0.137,0.166 0.278,0.342 0.423,0.528c0.145,0.185 0.311,0.399 0.5,0.64c0.188,0.242 0.382,0.484 0.581,0.728c0.199,0.244 0.388,0.465 0.566,0.663c0.178,0.199 0.354,0.38 0.527,0.544c0.173,0.164 0.348,0.33 0.525,0.5c0.177,0.169 0.371,0.364 0.583,0.585c0.212,0.221 0.46,0.482 0.746,0.785c0.285,0.302 0.546,0.583 0.781,0.843c0.236,0.26 0.455,0.495 0.657,0.706c0.203,0.211 0.395,0.4 0.579,0.566c0.183,0.167 0.358,0.32 0.523,0.459c0.166,0.139 0.332,0.284 0.5,0.434c0.167,0.15 0.335,0.312 0.503,0.486c0.168,0.174 0.333,0.347 0.496,0.517c0.163,0.17 0.336,0.336 0.52,0.497c0.184,0.161 0.36,0.312 0.529,0.454c0.169,0.142 0.317,0.267 0.445,0.375c0.128,0.108 0.241,0.206 0.339,0.294c0.098,0.088 0.19,0.174 0.275,0.256c0.085,0.082 0.178,0.17 0.28,0.262c0.101,0.092 0.208,0.186 0.32,0.28c0.112,0.095 0.222,0.196 0.332,0.305c0.109,0.109 0.227,0.231 0.352,0.369c0.125,0.137 0.261,0.287 0.406,0.449c0.145,0.162 0.306,0.333 0.482,0.512c0.176,0.179 0.351,0.361 0.524,0.546c0.173,0.185 0.332,0.352 0.477,0.502c0.145,0.15 0.269,0.282 0.372,0.395c0.103,0.113 0.199,0.228 0.287,0.347c0.088,0.118 0.183,0.253 0.287,0.405c0.103,0.152 0.237,0.337 0.399,0.555c0.163,0.218 0.321,0.43 0.473,0.634c0.152,0.204 0.277,0.369 0.374,0.496c0.097,0.127 0.176,0.223 0.237,0.288c0.062,0.065 0.117,0.114 0.168,0.146l0.034,0.019l-0.049,-0.042c-0.09,-0.07 -0.157,-0.155 -0.203,-0.256" style="fill:none;fill-rule:nonzero;stroke:#000;stroke-width:0.85px;"/><path d="M31.954,31.452c0.018,-0.015 0.128,-0.138 0.328,-0.369c0.2,-0.231 0.505,-0.547 0.915,-0.948c0.409,-0.401 0.888,-0.851 1.437,-1.35c0.549,-0.499 1.095,-1 1.638,-1.504c0.543,-0.504 1.052,-0.969 1.526,-1.395c0.474,-0.426 0.909,-0.803 1.304,-1.131c0.395,-0.327 0.738,-0.606 1.03,-0.837c0.292,-0.23 0.601,-0.488 0.926,-0.772c0.326,-0.284 0.663,-0.575 1.011,-0.872c0.348,-0.297 0.669,-0.566 0.963,-0.807c0.294,-0.241 0.55,-0.46 0.766,-0.657c0.217,-0.197 0.41,-0.407 0.581,-0.63c0.171,-0.223 0.343,-0.443 0.515,-0.66c0.172,-0.217 0.345,-0.405 0.517,-0.563c0.173,-0.158 0.35,-0.31 0.531,-0.455c0.182,-0.145 0.369,-0.298 0.561,-0.459c0.192,-0.16 0.36,-0.303 0.503,-0.429c0.143,-0.126 0.275,-0.237 0.397,-0.335c0.179,-0.144 0.415,-0.284 0.71,-0.418" style="fill:none;fill-rule:nonzero;stroke:#000;stroke-width:0.85px;"/><path d="M48.032,47.858c0.069,-0.005 0.158,-0.032 0.266,-0.081c0.108,-0.048 0.215,-0.129 0.321,-0.24c0.106,-0.112 0.241,-0.249 0.406,-0.413c0.165,-0.164 0.368,-0.355 0.608,-0.574c0.24,-0.219 0.516,-0.477 0.827,-0.775c0.311,-0.298 0.656,-0.631 1.035,-0.999c0.379,-0.367 0.766,-0.73 1.16,-1.089c0.394,-0.359 0.766,-0.683 1.116,-0.972c0.349,-0.29 0.674,-0.557 0.975,-0.801c0.301,-0.244 0.587,-0.49 0.86,-0.736c0.273,-0.247 0.549,-0.525 0.828,-0.834c0.279,-0.309 0.551,-0.616 0.814,-0.921c0.263,-0.305 0.512,-0.584 0.747,-0.836c0.234,-0.253 0.463,-0.49 0.687,-0.711c0.224,-0.221 0.454,-0.464 0.692,-0.73c0.238,-0.266 0.473,-0.539 0.707,-0.821c0.234,-0.282 0.472,-0.558 0.714,-0.828c0.243,-0.27 0.495,-0.532 0.756,-0.785c0.262,-0.253 0.544,-0.529 0.846,-0.828c0.302,-0.299 0.601,-0.601 0.897,-0.907c0.296,-0.305 0.558,-0.558 0.786,-0.759c0.228,-0.201 0.45,-0.387 0.666,-0.559c0.216,-0.172 0.456,-0.385 0.722,-0.639c0.265,-0.254 0.54,-0.537 0.825,-0.85c0.285,-0.313 0.546,-0.593 0.784,-0.839c0.238,-0.246 0.457,-0.461 0.657,-0.645c0.2,-0.184 0.408,-0.37 0.623,-0.559c0.215,-0.189 0.44,-0.395 0.676,-0.621c0.236,-0.225 0.463,-0.445 0.683,-0.66c0.22,-0.215 0.433,-0.415 0.64,-0.6c0.207,-0.186 0.423,-0.373 0.647,-0.562c0.225,-0.189 0.464,-0.388 0.719,-0.597c0.255,-0.209 0.502,-0.42 0.744,-0.633c0.241,-0.213 0.484,-0.45 0.73,-0.71c0.245,-0.26 0.49,-0.531 0.733,-0.811c0.244,-0.28 0.475,-0.525 0.695,-0.735c0.22,-0.21 0.43,-0.403 0.633,-0.581c0.202,-0.178 0.401,-0.372 0.595,-0.584c0.194,-0.212 0.399,-0.442 0.615,-0.689c0.215,-0.247 0.438,-0.487 0.669,-0.719c0.231,-0.232 0.445,-0.439 0.644,-0.621c0.198,-0.182 0.388,-0.348 0.569,-0.498c0.181,-0.15 0.382,-0.327 0.602,-0.532c0.22,-0.204 0.402,-0.385 0.545,-0.542c0.143,-0.157 0.255,-0.284 0.334,-0.381c0.08,-0.097 0.177,-0.197 0.294,-0.3c0.17,-0.151 0.415,-0.352 0.733,-0.603" style="fill:none;fill-rule:nonzero;stroke:#000;stroke-width:0.85px;"/><path d="M22.064,25.094c-0.033,-0.012 -0.151,-0.009 -0.353,0.006c-0.116,0.009 -0.2,0.031 -0.25,0.067c-0.05,0.036 -0.079,0.061 -0.085,0.074c-0.006,0.013 -0.002,0.011 0.011,-0.007c0.014,-0.018 0.045,-0.078 0.096,-0.179c0.05,-0.102 0.097,-0.226 0.141,-0.373c0.044,-0.147 0.088,-0.311 0.132,-0.492c0.044,-0.181 0.097,-0.379 0.159,-0.595c0.062,-0.215 0.129,-0.417 0.199,-0.603c0.071,-0.187 0.131,-0.333 0.18,-0.438c0.049,-0.105 0.099,-0.175 0.15,-0.209c0.051,-0.034 0.127,-0.052 0.229,-0.055c0.102,-0.003 0.245,0.002 0.429,0.016c0.184,0.014 0.388,0.05 0.611,0.109c0.223,0.059 0.434,0.131 0.632,0.215c0.294,0.125 0.634,0.194 1.021,0.208" style="fill:none;fill-rule:nonzero;stroke:#000;stroke-width:0.85px;"/><path d="M38.441,22.067c-0.004,0.044 -0.042,0.108 -0.115,0.195c-0.046,0.054 -0.073,0.083 -0.082,0.086l-0.004,0.002l0.015,-0.003c0.015,-0.004 0.054,-0.014 0.116,-0.031c0.062,-0.016 0.207,-0.054 0.435,-0.112c0.228,-0.058 0.48,-0.101 0.756,-0.129c0.277,-0.028 0.566,-0.043 0.868,-0.046c0.302,-0.003 0.562,0.003 0.78,0.019c0.218,0.016 0.379,0.083 0.482,0.203c0.104,0.12 0.171,0.267 0.202,0.441c0.031,0.174 0.048,0.348 0.051,0.524c0.003,0.175 0.005,0.342 0.005,0.501c0,0.159 -0.002,0.309 -0.007,0.45c-0.007,0.21 0.046,0.403 0.16,0.577" style="fill:none;fill-rule:nonzero;stroke:#000;stroke-width:0.85px;"/><path d="M68.2,25.809c0.026,-0.003 0.203,-0.041 0.533,-0.114c0.33,-0.073 0.696,-0.173 1.099,-0.3c0.403,-0.127 0.756,-0.243 1.059,-0.347c0.303,-0.104 0.524,-0.167 0.663,-0.189c0.139,-0.022 0.243,-0.01 0.313,0.038c0.07,0.048 0.137,0.143 0.202,0.286c0.065,0.143 0.141,0.3 0.228,0.47c0.087,0.17 0.178,0.333 0.275,0.489c0.144,0.232 0.34,0.427 0.587,0.584" style="fill:none;fill-rule:nonzero;stroke:#000;stroke-width:0.85px;"/><path d="M39.483,41.783c0.111,0.029 0.183,0.001 0.216,-0.084c0.024,-0.06 0.024,-0.137 0,-0.233c-0.024,-0.095 -0.049,-0.207 -0.075,-0.335c-0.027,-0.128 -0.06,-0.255 -0.101,-0.379c-0.041,-0.124 -0.087,-0.241 -0.137,-0.351c-0.051,-0.11 -0.088,-0.223 -0.111,-0.339c-0.023,-0.116 -0.035,-0.239 -0.036,-0.367c-0,-0.129 0.001,-0.249 0.003,-0.362c0.002,-0.113 0.021,-0.212 0.056,-0.298c0.035,-0.086 0.09,-0.155 0.167,-0.207c0.076,-0.052 0.18,-0.087 0.312,-0.106c0.132,-0.018 0.299,-0.028 0.503,-0.028c0.204,-0 0.43,0.01 0.68,0.03c0.25,0.021 0.485,0.054 0.705,0.099c0.221,0.046 0.423,0.097 0.609,0.155c0.269,0.084 0.694,0.213 1.274,0.387" style="fill:none;fill-rule:nonzero;stroke:#000;stroke-width:0.85px;"/><path d="M55.141,58.401c0.018,-0.048 0.022,-0.158 0.013,-0.329c-0.009,-0.171 -0.012,-0.325 -0.01,-0.463c0.002,-0.138 0.014,-0.273 0.035,-0.408c0.021,-0.134 0.048,-0.258 0.082,-0.371c0.034,-0.113 0.08,-0.21 0.14,-0.291c0.059,-0.081 0.144,-0.147 0.254,-0.197c0.11,-0.05 0.246,-0.084 0.41,-0.102c0.163,-0.018 0.355,-0.025 0.574,-0.021c0.219,0.004 0.471,0.03 0.755,0.077c0.284,0.047 0.582,0.092 0.893,0.134c0.311,0.042 0.598,0.072 0.861,0.09c0.263,0.017 0.427,0.032 0.492,0.043c0.089,0.016 0.055,0.053 -0.104,0.112" style="fill:none;fill-rule:nonzero;stroke:#000;stroke-width:0.85px;"/><path d="M12.989,9.403c-0.083,-0.069 -0.2,-0.159 -0.351,-0.269c-0.151,-0.11 -0.278,-0.205 -0.381,-0.284c-0.103,-0.079 -0.208,-0.13 -0.314,-0.154c-0.106,-0.024 -0.255,0.01 -0.448,0.1c-0.193,0.091 -0.409,0.311 -0.647,0.661c-0.238,0.35 -0.413,0.76 -0.524,1.228c-0.111,0.468 -0.089,0.857 0.067,1.168c0.156,0.31 0.435,0.455 0.838,0.434c0.403,-0.021 0.765,-0.193 1.084,-0.514c0.32,-0.322 0.523,-0.681 0.609,-1.077c0.086,-0.396 0.099,-0.729 0.038,-0.998c-0.061,-0.27 -0.138,-0.422 -0.232,-0.457c-0.094,-0.035 -0.143,0.049 -0.147,0.251c-0.004,0.203 0.09,0.466 0.281,0.789c0.192,0.323 0.435,0.659 0.729,1.006c0.441,0.521 0.948,0.929 1.522,1.224" style="fill:none;fill-rule:nonzero;stroke:#000;stroke-width:0.85px;"/><path d="M43.595,7.452c-0.068,0.016 -0.114,0.081 -0.138,0.194c-0.016,0.077 0.05,0.201 0.198,0.373c0.148,0.172 0.306,0.447 0.475,0.825c0.169,0.378 0.286,0.809 0.351,1.292c0.065,0.483 0.1,0.881 0.106,1.194c0.006,0.313 0.009,0.5 0.009,0.561c0,0.061 0.001,0.084 0.003,0.068c0.002,-0.016 0.008,-0.055 0.016,-0.119c0.009,-0.063 0.096,-0.218 0.261,-0.465c0.165,-0.246 0.395,-0.464 0.688,-0.653c0.293,-0.189 0.589,-0.303 0.887,-0.343c0.298,-0.04 0.551,0.025 0.759,0.193c0.208,0.169 0.347,0.405 0.418,0.709c0.071,0.304 0.066,0.586 -0.014,0.847c-0.081,0.261 -0.257,0.458 -0.529,0.592c-0.272,0.134 -0.561,0.212 -0.868,0.235c-0.307,0.023 -0.504,0.034 -0.591,0.034c-0.123,0 -0.108,-0.274 0.044,-0.821" style="fill:none;fill-rule:nonzero;stroke:#000;stroke-width:0.85px;"/><path d="M82.418,9.491c-0.008,-0.07 -0.065,-0.145 -0.173,-0.226c-0.108,-0.081 -0.246,-0.122 -0.415,-0.124c-0.168,-0.002 -0.371,0.074 -0.609,0.226c-0.237,0.153 -0.497,0.405 -0.78,0.756c-0.283,0.351 -0.472,0.717 -0.569,1.098c-0.097,0.381 0.013,0.672 0.328,0.876c0.315,0.203 0.788,0.295 1.418,0.275c0.967,-0.03 1.749,-0.163 2.348,-0.397" style="fill:none;fill-rule:nonzero;stroke:#000;stroke-width:0.85px;"/><path d="M50.132,62.623c-0.008,-0.044 -0.014,-0.158 -0.017,-0.342c-0.003,-0.184 -0.007,-0.358 -0.012,-0.522c-0.004,-0.165 -0.045,-0.315 -0.121,-0.451c-0.077,-0.136 -0.204,-0.213 -0.383,-0.23c-0.179,-0.017 -0.407,0.109 -0.686,0.381c-0.279,0.271 -0.552,0.664 -0.82,1.179c-0.268,0.515 -0.436,0.978 -0.505,1.39c-0.069,0.412 0.012,0.654 0.244,0.725c0.232,0.072 0.585,-0.049 1.06,-0.361c0.475,-0.312 0.902,-0.718 1.282,-1.216c0.38,-0.498 0.641,-1.07 0.781,-1.715c0.141,-0.645 0.189,-1.31 0.144,-1.995c-0.045,-0.685 -0.127,-1.155 -0.246,-1.411c-0.119,-0.256 -0.199,-0.382 -0.241,-0.378c-0.042,0.004 -0.063,0.076 -0.064,0.216c-0.001,0.14 0,0.376 0.002,0.709c0.002,0.333 0.009,0.752 0.021,1.256c0.012,0.505 0.042,1.073 0.091,1.706c0.049,0.633 0.141,1.216 0.276,1.749c0.135,0.533 0.268,0.89 0.397,1.071l0.097,0.136l-0.291,-0.407" style="fill:none;fill-rule:nonzero;stroke:#000;stroke-width:0.85px;"/><path d="M31.757,43.986c0.083,0.076 0.18,0.135 0.293,0.177c0.113,0.042 0.237,0.063 0.374,0.063c0.137,0 0.311,-0.005 0.522,-0.016c0.211,-0.011 0.426,-0.058 0.643,-0.14c0.217,-0.082 0.397,-0.209 0.539,-0.38c0.142,-0.171 0.221,-0.384 0.236,-0.639c0.015,-0.254 -0.066,-0.537 -0.244,-0.848c-0.177,-0.311 -0.408,-0.546 -0.693,-0.704c-0.284,-0.159 -0.566,-0.226 -0.845,-0.203c-0.279,0.023 -0.532,0.155 -0.759,0.394c-0.228,0.24 -0.415,0.57 -0.562,0.992c-0.147,0.422 -0.241,0.891 -0.281,1.406c-0.041,0.516 0.028,0.966 0.204,1.352c0.177,0.385 0.48,0.624 0.909,0.717c0.43,0.093 0.921,0.077 1.475,-0.047c0.818,-0.183 1.44,-0.614 1.867,-1.294" style="fill:none;fill-rule:nonzero;stroke:#000;stroke-width:0.85px;"/><path d="M88.521,38.19c-0.05,-0.042 -0.145,-0.078 -0.283,-0.108c-0.138,-0.03 -0.251,-0.035 -0.338,-0.014c-0.087,0.021 -0.138,0.049 -0.153,0.086c-0.015,0.037 0.092,0.062 0.322,0.076c0.23,0.014 0.562,0.043 0.996,0.087c0.434,0.044 0.908,0.074 1.421,0.09c0.754,0.024 1.65,-0.14 2.687,-0.491" style="fill:none;fill-rule:nonzero;stroke:#000;stroke-width:0.85px;"/><path d="M87.996,40.793c-0.037,0.077 0.101,0.14 0.412,0.189c0.312,0.049 0.703,0.071 1.176,0.067c0.472,-0.004 0.983,-0.027 1.533,-0.067c0.549,-0.04 0.972,-0.064 1.267,-0.07l0.222,-0.005l-0.665,0.014" style="fill:none;fill-rule:nonzero;stroke:#000;stroke-width:0.85px;"/><path d="M107.264,32.14c-0.066,0.015 -0.211,-0.003 -0.434,-0.055c-0.136,-0.031 -0.214,-0.05 -0.233,-0.056c-0.019,-0.006 -0.012,-0.006 0.023,-0.001c0.035,0.005 0.121,0.018 0.259,0.039c0.138,0.021 0.456,0.04 0.954,0.058c0.498,0.018 1.083,0.026 1.755,0.026c0.672,0 1.408,-0.013 2.206,-0.038c0.798,-0.025 1.514,-0.053 2.148,-0.082c0.634,-0.029 1.088,-0.049 1.364,-0.06l0.207,-0.008l-0.62,0.024" style="fill:none;fill-rule:nonzero;stroke:#000;stroke-width:0.85px;"/><path d="M106.414,32.984c0,0.041 0.041,0.178 0.123,0.409c0.082,0.231 0.258,0.499 0.528,0.803c0.27,0.304 0.608,0.667 1.013,1.088c0.405,0.421 0.756,0.894 1.053,1.417c0.297,0.523 0.466,1.086 0.506,1.687c0.041,0.601 -0.032,1.214 -0.219,1.837c-0.186,0.624 -0.446,1.232 -0.78,1.825c-0.333,0.593 -0.722,1.146 -1.166,1.661c-0.444,0.514 -0.878,0.943 -1.304,1.285c-0.425,0.342 -0.782,0.623 -1.071,0.843c-0.289,0.22 -0.47,0.38 -0.542,0.479c-0.073,0.1 -0.11,0.155 -0.11,0.167c-0.001,0.012 0.011,0.017 0.036,0.014c0.025,-0.002 0.08,-0.013 0.166,-0.032c0.086,-0.019 0.19,-0.037 0.312,-0.054c0.123,-0.017 0.289,-0.039 0.498,-0.065c0.209,-0.026 0.503,-0.061 0.88,-0.104c0.377,-0.043 0.845,-0.08 1.402,-0.11c0.558,-0.03 1.175,-0.064 1.853,-0.102c0.677,-0.038 1.349,-0.093 2.014,-0.165c0.666,-0.072 1.275,-0.148 1.827,-0.228c0.553,-0.08 0.982,-0.152 1.288,-0.217c0.491,-0.103 0.838,-0.176 1.04,-0.218" style="fill:none;fill-rule:nonzero;stroke:#000;stroke-width:0.85px;"/><path d="M115.098,31.627c0.035,-0.103 0.111,-0.203 0.228,-0.301c0.117,-0.098 0.225,-0.072 0.326,0.076c0.101,0.149 0.199,0.439 0.295,0.87c0.145,0.647 0.341,1.264 0.589,1.85" style="fill:none;fill-rule:nonzero;stroke:#000;stroke-width:0.85px;"/><path d="M111.467,50.045c0.121,-0.051 0.223,-0.136 0.304,-0.254c0.082,-0.118 0.121,-0.24 0.118,-0.367c-0.003,-0.126 -0.052,-0.238 -0.148,-0.334c-0.095,-0.097 -0.235,-0.162 -0.42,-0.196c-0.184,-0.034 -0.404,-0.004 -0.66,0.089c-0.255,0.093 -0.522,0.301 -0.799,0.626c-0.277,0.324 -0.504,0.736 -0.68,1.234c-0.176,0.498 -0.252,1.011 -0.228,1.54c0.024,0.528 0.142,1.022 0.356,1.483c0.213,0.46 0.419,0.928 0.618,1.402c0.199,0.474 0.328,0.834 0.387,1.079c0.06,0.245 0.085,0.393 0.075,0.445c-0.013,0.072 -0.066,0.049 -0.159,-0.068" style="fill:none;fill-rule:nonzero;stroke:#000;stroke-width:0.85px;"/><path d="M107.595,53.523c0.01,-0.055 0.269,-0.117 0.777,-0.184c0.75,-0.1 1.635,-0.211 2.655,-0.332" style="fill:none;fill-rule:nonzero;stroke:#000;stroke-width:0.85px;"/><path d="M127.786,36.877c-0.002,0.012 -0.012,0.097 -0.03,0.253c-0.01,0.084 -0.009,0.222 0.003,0.413c0.011,0.192 0.026,0.562 0.043,1.11c0.018,0.548 0.026,1.262 0.027,2.142c0,0.879 0.002,1.678 0.004,2.395c0.002,0.717 0.025,1.209 0.07,1.475c0.044,0.267 0.089,0.401 0.133,0.403c0.063,0.003 0.07,-0.3 0.021,-0.908" style="fill:none;fill-rule:nonzero;stroke:#000;stroke-width:0.85px;"/><path d="M127.676,35.871c0.039,0.034 0.326,0.033 0.863,-0.002c0.536,-0.036 1.218,-0.123 2.043,-0.262c0.826,-0.139 1.641,-0.241 2.444,-0.306c0.803,-0.064 1.448,-0.095 1.935,-0.092c0.487,0.003 0.775,0.008 0.866,0.015c0.124,0.01 0.058,-0.012 -0.196,-0.063" style="fill:none;fill-rule:nonzero;stroke:#000;stroke-width:0.85px;"/><path d="M128.113,39.699c-0.027,0.078 -0.063,0.171 -0.107,0.28c-0.044,0.109 -0.021,0.184 0.069,0.225c0.09,0.041 0.326,0.054 0.707,0.039c0.381,-0.015 0.812,-0.046 1.292,-0.092c0.48,-0.046 0.957,-0.083 1.431,-0.11c0.707,-0.04 1.425,-0.168 2.155,-0.384" style="fill:none;fill-rule:nonzero;stroke:#000;stroke-width:0.85px;"/><path d="M142.244,33.399c-0.058,-0.065 -0.136,-0.152 -0.234,-0.261c-0.098,-0.109 -0.209,-0.21 -0.335,-0.304c-0.126,-0.094 -0.276,-0.158 -0.451,-0.192c-0.175,-0.034 -0.39,0.012 -0.645,0.14c-0.255,0.127 -0.494,0.363 -0.716,0.707c-0.223,0.344 -0.36,0.687 -0.413,1.028c-0.053,0.341 0.013,0.592 0.197,0.753c0.184,0.161 0.427,0.231 0.728,0.21c0.301,-0.021 0.557,-0.133 0.768,-0.335c0.211,-0.202 0.37,-0.44 0.478,-0.711c0.108,-0.272 0.177,-0.493 0.206,-0.664c0.029,-0.171 0.044,-0.274 0.044,-0.31l0.001,-0.03l0.001,0.018c0,0.028 0.002,0.098 0.003,0.21c0.002,0.112 0.058,0.313 0.168,0.604c0.11,0.291 0.288,0.563 0.532,0.817c0.244,0.254 0.511,0.432 0.799,0.536c0.288,0.104 0.483,0.157 0.585,0.161c0.144,0.006 0.262,-0.276 0.354,-0.844" style="fill:none;fill-rule:nonzero;stroke:#000;stroke-width:0.85px;"/><path d="M145.46,29.374c-0.081,0.001 -0.115,0.262 -0.102,0.782c0.013,0.521 0.089,1.099 0.228,1.735c0.139,0.636 0.26,1.207 0.362,1.711c0.102,0.505 0.166,0.839 0.193,1.002c0.027,0.164 0.04,0.225 0.041,0.185c0,-0.04 0.006,-0.18 0.017,-0.419c0.011,-0.239 0.084,-0.485 0.219,-0.737c0.135,-0.253 0.321,-0.432 0.556,-0.538c0.236,-0.106 0.475,-0.122 0.719,-0.05c0.244,0.072 0.449,0.246 0.616,0.52c0.167,0.274 0.255,0.569 0.264,0.884c0.009,0.315 -0.11,0.611 -0.359,0.889c-0.249,0.277 -0.507,0.487 -0.774,0.629c-0.268,0.142 -0.495,0.215 -0.683,0.22c-0.265,0.007 -0.377,-0.36 -0.337,-1.1" style="fill:none;fill-rule:nonzero;stroke:#000;stroke-width:0.85px;"/><path d="M152.831,33.071c0.003,-0.081 0.013,-0.168 0.03,-0.261c0.018,-0.094 0.028,-0.164 0.031,-0.211c0.003,-0.047 -0.017,-0.082 -0.06,-0.105c-0.043,-0.023 -0.171,-0.022 -0.383,0.005c-0.212,0.026 -0.458,0.16 -0.737,0.401c-0.279,0.241 -0.506,0.563 -0.683,0.965c-0.176,0.403 -0.257,0.777 -0.242,1.121c0.015,0.345 0.149,0.583 0.402,0.716c0.253,0.133 0.579,0.201 0.977,0.206c0.609,0.007 1.114,-0.053 1.517,-0.179" style="fill:none;fill-rule:nonzero;stroke:#000;stroke-width:0.85px;"/><path d="M142.244,47.246c0.022,-0 0.145,-0 0.369,-0c0.122,0 0.213,-0 0.273,-0l0.127,0c0.025,0 0.049,-0.021 0.071,-0.062c0.022,-0.041 0.04,-0.105 0.055,-0.192c0.015,-0.087 0.018,-0.173 0.01,-0.258c-0.008,-0.085 -0.071,-0.161 -0.187,-0.228c-0.116,-0.066 -0.286,-0.113 -0.509,-0.139c-0.223,-0.026 -0.463,-0.025 -0.72,0.004c-0.257,0.029 -0.511,0.138 -0.763,0.328c-0.251,0.19 -0.455,0.45 -0.61,0.779c-0.156,0.329 -0.213,0.642 -0.171,0.937c0.042,0.296 0.232,0.488 0.571,0.576c0.339,0.088 0.696,0.072 1.071,-0.048c0.376,-0.12 0.697,-0.35 0.965,-0.688c0.267,-0.338 0.47,-0.749 0.608,-1.232c0.138,-0.483 0.237,-1.019 0.298,-1.608c0.061,-0.588 0.102,-1.088 0.126,-1.498c0.023,-0.41 0.031,-0.665 0.022,-0.764c-0.009,-0.099 -0.039,-0.123 -0.091,-0.069c-0.052,0.053 -0.095,0.198 -0.128,0.435c-0.033,0.236 -0.05,0.546 -0.051,0.93c-0.001,0.383 0.016,0.837 0.051,1.362c0.034,0.525 0.077,1.091 0.129,1.698c0.051,0.607 0.097,1.12 0.136,1.539c0.039,0.419 0.072,0.678 0.099,0.777c0.037,0.137 0.09,0.016 0.159,-0.362" style="fill:none;fill-rule:nonzero;stroke:#000;stroke-width:0.85px;"/><path d="M126.517,30.752c-0.049,-0.05 -0.156,-0.109 -0.32,-0.177c-0.164,-0.068 -0.359,-0.124 -0.587,-0.168c-0.227,-0.044 -0.484,-0.083 -0.77,-0.118c-0.286,-0.035 -0.555,-0.054 -0.807,-0.057c-0.252,-0.003 -0.47,0.015 -0.652,0.056c-0.182,0.041 -0.329,0.12 -0.442,0.237c-0.112,0.117 -0.196,0.243 -0.251,0.375c-0.055,0.133 -0.086,0.312 -0.093,0.538c-0.006,0.226 0.026,0.536 0.098,0.93c0.072,0.394 0.147,0.888 0.227,1.481c0.08,0.593 0.12,1.265 0.12,2.016c0,0.751 -0.038,1.52 -0.113,2.309c-0.075,0.788 -0.142,1.521 -0.199,2.199c-0.058,0.678 -0.09,1.301 -0.096,1.868c-0.006,0.567 0.025,1.098 0.094,1.592c0.069,0.494 0.143,0.927 0.223,1.299c0.08,0.372 0.125,0.699 0.137,0.981c0.012,0.282 0.012,0.551 0.001,0.807c-0.011,0.256 -0.022,0.471 -0.033,0.645c-0.01,0.174 -0.016,0.313 -0.016,0.417c-0,0.103 0.003,0.22 0.01,0.35c0.007,0.13 0.021,0.27 0.043,0.42c0.022,0.151 0.041,0.277 0.058,0.379c0.017,0.102 0.029,0.175 0.034,0.218c0.005,0.043 0.008,0.071 0.008,0.084c0,0.013 0.002,0.02 0.007,0.02c0.005,0 0.016,0 0.035,0c0.019,0 0.049,-0.002 0.092,-0.007c0.043,-0.005 0.115,-0.015 0.216,-0.032c0.101,-0.016 0.263,-0.04 0.484,-0.071c0.323,-0.045 0.783,-0.104 1.379,-0.175" style="fill:none;fill-rule:nonzero;stroke:#000;stroke-width:0.85px;"/><path d="M156.003,30.512c-0.008,-0.083 0.124,-0.104 0.395,-0.063c0.271,0.041 0.537,0.103 0.798,0.185c0.261,0.082 0.495,0.186 0.704,0.313c0.209,0.126 0.368,0.312 0.477,0.557c0.109,0.245 0.166,0.611 0.172,1.099c0.006,0.488 -0.03,1.077 -0.108,1.767c-0.078,0.69 -0.132,1.38 -0.161,2.069c-0.029,0.689 -0.033,1.359 -0.01,2.009c0.022,0.65 0.061,1.28 0.117,1.889c0.056,0.609 0.096,1.17 0.122,1.682c0.026,0.512 0.042,0.967 0.05,1.365c0.008,0.398 0.023,0.767 0.047,1.108c0.023,0.341 0.041,0.699 0.051,1.074c0.011,0.375 0.016,0.745 0.016,1.109c0,0.364 -0.003,0.677 -0.01,0.939c-0.007,0.262 -0.011,0.468 -0.011,0.617c-0,0.149 0.015,0.279 0.044,0.389c0.03,0.11 0.069,0.223 0.118,0.34c0.049,0.116 0.088,0.223 0.118,0.319c0.03,0.096 0.055,0.17 0.075,0.223c0.02,0.053 0.031,0.083 0.034,0.092c0.003,0.009 0.005,0.013 0.005,0.013c0,0 -0.028,0.003 -0.085,0.01c-0.057,0.007 -0.189,0.021 -0.398,0.042c-0.208,0.022 -0.475,0.043 -0.8,0.065c-0.475,0.032 -1.058,-0.105 -1.747,-0.412" style="fill:none;fill-rule:nonzero;stroke:#000;stroke-width:0.85px;"/><path d="M162.675,47.267c0.06,0 0.179,0 0.357,0c0.178,-0 0.363,-0.007 0.553,-0.02c0.19,-0.013 0.376,-0.064 0.557,-0.151c0.181,-0.087 0.328,-0.207 0.44,-0.36c0.112,-0.153 0.176,-0.333 0.192,-0.541c0.016,-0.208 -0.062,-0.372 -0.233,-0.491c-0.171,-0.119 -0.417,-0.167 -0.737,-0.144c-0.32,0.024 -0.642,0.166 -0.967,0.426c-0.325,0.26 -0.584,0.592 -0.777,0.995c-0.193,0.403 -0.281,0.791 -0.264,1.164c0.018,0.373 0.21,0.653 0.576,0.841c0.367,0.188 0.791,0.291 1.274,0.311c0.711,0.029 1.349,-0.21 1.914,-0.717" style="fill:none;fill-rule:nonzero;stroke:#000;stroke-width:0.85px;"/><path d="M170.484,44.555c0.013,-0.089 0.031,-0.203 0.053,-0.34c0.022,-0.137 0.029,-0.288 0.021,-0.452c-0.008,-0.164 -0.101,-0.32 -0.277,-0.468c-0.176,-0.148 -0.427,-0.227 -0.752,-0.236c-0.325,-0.009 -0.627,0.142 -0.906,0.454c-0.279,0.312 -0.477,0.778 -0.594,1.4c-0.118,0.622 -0.186,1.373 -0.206,2.255c-0.02,0.881 -0.01,1.766 0.028,2.655c0.038,0.888 0.119,1.64 0.241,2.256c0.122,0.616 0.214,1.038 0.276,1.266l0.086,0.313l-0.001,-0.003c-0.007,-0.03 -0.03,-0.125 -0.068,-0.285" style="fill:none;fill-rule:nonzero;stroke:#000;stroke-width:0.85px;"/><path d="M167.356,48.996c0.108,0 0.24,-0.015 0.395,-0.045c0.155,-0.03 0.334,-0.076 0.539,-0.139c0.205,-0.063 0.488,-0.123 0.849,-0.182c0.53,-0.086 1.201,-0.254 2.013,-0.504" style="fill:none;fill-rule:nonzero;stroke:#000;stroke-width:0.85px;"/><path d="M175.099,15.943c0.048,-0.078 0.028,-0.138 -0.058,-0.179c-0.086,-0.041 -0.131,-0.061 -0.134,-0.061c-0.003,0 0.028,0.042 0.094,0.126c0.066,0.084 0.162,0.225 0.29,0.424c0.127,0.199 0.252,0.396 0.375,0.592c0.123,0.196 0.264,0.391 0.423,0.586c0.159,0.195 0.319,0.388 0.48,0.58c0.161,0.192 0.315,0.375 0.464,0.548c0.148,0.173 0.308,0.342 0.48,0.505c0.171,0.163 0.359,0.335 0.562,0.516c0.203,0.181 0.408,0.391 0.615,0.629c0.207,0.238 0.403,0.492 0.589,0.761c0.185,0.269 0.372,0.529 0.562,0.778c0.189,0.249 0.393,0.473 0.613,0.672c0.22,0.199 0.459,0.387 0.718,0.564c0.259,0.178 0.522,0.371 0.789,0.581c0.268,0.21 0.52,0.433 0.757,0.668c0.237,0.236 0.472,0.454 0.705,0.654c0.233,0.201 0.467,0.388 0.703,0.561c0.236,0.173 0.469,0.35 0.7,0.529c0.231,0.179 0.464,0.381 0.697,0.605c0.233,0.224 0.458,0.46 0.675,0.708c0.217,0.248 0.436,0.482 0.657,0.702c0.221,0.221 0.443,0.406 0.667,0.557c0.224,0.151 0.436,0.295 0.636,0.433c0.2,0.138 0.388,0.295 0.564,0.471c0.176,0.176 0.344,0.352 0.505,0.528c0.161,0.175 0.321,0.342 0.482,0.501c0.16,0.159 0.314,0.31 0.461,0.453c0.147,0.144 0.287,0.295 0.421,0.455c0.134,0.16 0.272,0.334 0.415,0.522c0.143,0.189 0.292,0.38 0.447,0.575c0.156,0.195 0.305,0.379 0.449,0.552c0.144,0.173 0.289,0.339 0.434,0.498c0.146,0.159 0.291,0.313 0.437,0.464c0.146,0.151 0.301,0.31 0.465,0.476c0.165,0.166 0.332,0.348 0.502,0.544c0.17,0.196 0.339,0.4 0.507,0.611c0.168,0.211 0.339,0.413 0.513,0.606c0.174,0.193 0.345,0.375 0.511,0.546c0.166,0.171 0.324,0.346 0.472,0.525c0.149,0.179 0.303,0.369 0.462,0.57c0.159,0.201 0.332,0.403 0.519,0.605c0.187,0.202 0.378,0.399 0.575,0.591c0.197,0.192 0.388,0.39 0.573,0.594c0.185,0.204 0.377,0.403 0.575,0.598c0.198,0.195 0.411,0.388 0.639,0.58c0.228,0.192 0.452,0.39 0.674,0.593c0.222,0.204 0.427,0.41 0.616,0.619c0.188,0.209 0.371,0.417 0.549,0.624c0.177,0.207 0.354,0.399 0.529,0.575c0.175,0.176 0.348,0.342 0.518,0.498c0.17,0.156 0.338,0.313 0.504,0.471c0.166,0.158 0.324,0.318 0.475,0.48c0.151,0.163 0.301,0.33 0.449,0.503c0.148,0.173 0.293,0.329 0.434,0.469c0.141,0.14 0.28,0.266 0.416,0.379c0.136,0.112 0.269,0.23 0.398,0.353c0.129,0.123 0.265,0.26 0.408,0.409c0.142,0.15 0.294,0.308 0.453,0.476c0.16,0.167 0.327,0.326 0.502,0.475c0.175,0.149 0.343,0.289 0.504,0.418c0.161,0.129 0.314,0.258 0.458,0.387c0.144,0.128 0.286,0.266 0.427,0.414c0.141,0.148 0.291,0.302 0.45,0.462c0.16,0.16 0.328,0.312 0.505,0.457c0.177,0.144 0.359,0.284 0.546,0.42c0.187,0.136 0.381,0.286 0.582,0.45c0.201,0.164 0.399,0.327 0.594,0.488c0.195,0.161 0.39,0.328 0.584,0.502c0.194,0.174 0.385,0.344 0.573,0.511c0.188,0.166 0.368,0.313 0.541,0.441c0.173,0.128 0.345,0.251 0.515,0.37c0.17,0.119 0.336,0.254 0.496,0.406c0.161,0.152 0.322,0.318 0.485,0.499c0.163,0.181 0.334,0.373 0.513,0.574c0.179,0.201 0.363,0.399 0.552,0.594c0.189,0.195 0.391,0.383 0.606,0.563c0.215,0.18 0.444,0.379 0.686,0.596c0.242,0.217 0.483,0.455 0.721,0.713c0.239,0.259 0.482,0.512 0.729,0.758c0.247,0.247 0.495,0.467 0.743,0.661c0.248,0.194 0.489,0.394 0.723,0.602c0.234,0.208 0.462,0.426 0.686,0.654c0.223,0.228 0.456,0.456 0.699,0.685c0.243,0.229 0.472,0.433 0.687,0.613c0.216,0.18 0.399,0.335 0.55,0.465c0.151,0.13 0.285,0.261 0.402,0.391c0.117,0.13 0.244,0.271 0.382,0.421c0.138,0.151 0.286,0.301 0.446,0.452c0.16,0.15 0.315,0.284 0.467,0.4c0.152,0.117 0.284,0.2 0.398,0.251c0.113,0.051 0.209,0.091 0.288,0.12c0.079,0.029 0.149,0.061 0.21,0.094c0.061,0.034 0.127,0.084 0.197,0.151c0.07,0.067 0.14,0.139 0.211,0.217c0.071,0.078 0.127,0.141 0.168,0.19c0.057,0.068 -0.025,0.074 -0.247,0.018" style="fill:none;fill-rule:nonzero;stroke:#000;stroke-width:0.85px;"/><path d="M207.517,48.078c-0.063,0.025 -0.144,0.06 -0.244,0.107c-0.064,0.03 -0.098,0.045 -0.102,0.045c-0.003,0 0.024,-0.034 0.082,-0.104c0.058,-0.069 0.179,-0.23 0.363,-0.481c0.184,-0.251 0.385,-0.508 0.602,-0.772c0.218,-0.264 0.485,-0.59 0.803,-0.98c0.318,-0.389 0.658,-0.804 1.021,-1.244c0.363,-0.44 0.732,-0.851 1.106,-1.232c0.374,-0.382 0.758,-0.73 1.151,-1.046c0.393,-0.316 0.782,-0.621 1.167,-0.915c0.385,-0.294 0.758,-0.594 1.122,-0.9c0.363,-0.306 0.705,-0.601 1.025,-0.884c0.32,-0.283 0.607,-0.551 0.86,-0.802c0.253,-0.251 0.489,-0.496 0.708,-0.734c0.219,-0.238 0.442,-0.478 0.668,-0.719c0.226,-0.241 0.459,-0.473 0.698,-0.698c0.24,-0.224 0.484,-0.43 0.732,-0.616c0.248,-0.187 0.497,-0.359 0.747,-0.517c0.25,-0.158 0.504,-0.343 0.762,-0.554c0.258,-0.211 0.504,-0.452 0.738,-0.723c0.234,-0.27 0.456,-0.545 0.666,-0.825c0.21,-0.28 0.416,-0.541 0.617,-0.783c0.201,-0.242 0.417,-0.465 0.647,-0.668c0.23,-0.203 0.456,-0.395 0.678,-0.575c0.222,-0.18 0.436,-0.364 0.643,-0.55c0.207,-0.187 0.433,-0.4 0.679,-0.641c0.246,-0.241 0.508,-0.487 0.788,-0.738c0.279,-0.252 0.541,-0.468 0.786,-0.65c0.244,-0.182 0.488,-0.369 0.73,-0.562c0.242,-0.192 0.505,-0.426 0.788,-0.701c0.283,-0.275 0.566,-0.535 0.849,-0.781c0.283,-0.246 0.533,-0.449 0.75,-0.609c0.217,-0.161 0.415,-0.318 0.595,-0.472c0.18,-0.154 0.373,-0.346 0.578,-0.577c0.205,-0.231 0.43,-0.484 0.674,-0.76c0.245,-0.276 0.479,-0.532 0.705,-0.768c0.225,-0.236 0.424,-0.436 0.595,-0.601c0.172,-0.165 0.341,-0.317 0.509,-0.456c0.167,-0.139 0.341,-0.282 0.52,-0.427c0.179,-0.145 0.364,-0.301 0.556,-0.468c0.192,-0.167 0.386,-0.33 0.583,-0.489c0.197,-0.159 0.378,-0.299 0.542,-0.419c0.164,-0.12 0.327,-0.242 0.49,-0.365c0.162,-0.123 0.332,-0.267 0.509,-0.434c0.177,-0.166 0.355,-0.343 0.535,-0.53c0.18,-0.187 0.348,-0.361 0.505,-0.523c0.157,-0.162 0.303,-0.308 0.44,-0.44c0.136,-0.132 0.28,-0.271 0.429,-0.419c0.15,-0.147 0.307,-0.315 0.473,-0.503c0.165,-0.188 0.323,-0.376 0.475,-0.564c0.151,-0.188 0.301,-0.375 0.449,-0.562c0.148,-0.187 0.299,-0.365 0.452,-0.534c0.153,-0.169 0.282,-0.306 0.387,-0.411c0.104,-0.105 0.178,-0.173 0.222,-0.205c0.043,-0.031 0.069,-0.049 0.077,-0.052c0.008,-0.003 0.02,-0.005 0.037,-0.005c0.016,0 0.039,0 0.068,0l0.019,0.001l-0.03,0.003c-0.055,0.003 -0.1,0.014 -0.135,0.033" style="fill:none;fill-rule:nonzero;stroke:#000;stroke-width:0.85px;"/><path d="M207.495,16.118c-0.063,0 -0.157,0 -0.284,0l-0.137,0c-0.011,0 -0.009,0.003 0.007,0.01c0.016,0.007 0.056,0.024 0.119,0.051c0.064,0.027 0.194,0.117 0.392,0.269c0.198,0.152 0.403,0.32 0.616,0.503c0.213,0.183 0.449,0.39 0.709,0.619c0.26,0.229 0.556,0.483 0.887,0.76c0.331,0.278 0.662,0.564 0.993,0.858c0.331,0.294 0.646,0.581 0.944,0.861c0.298,0.28 0.573,0.552 0.825,0.815c0.252,0.263 0.499,0.525 0.742,0.788c0.243,0.263 0.489,0.519 0.739,0.77c0.25,0.251 0.512,0.479 0.785,0.682c0.274,0.204 0.554,0.387 0.841,0.548c0.287,0.162 0.553,0.324 0.798,0.489c0.245,0.164 0.472,0.351 0.682,0.561c0.21,0.21 0.427,0.437 0.652,0.682c0.225,0.245 0.464,0.481 0.716,0.708c0.252,0.227 0.5,0.443 0.744,0.648c0.244,0.204 0.47,0.408 0.678,0.61c0.208,0.202 0.411,0.39 0.611,0.564c0.199,0.174 0.404,0.327 0.615,0.459c0.211,0.132 0.414,0.266 0.61,0.402c0.195,0.136 0.372,0.273 0.529,0.411c0.157,0.139 0.299,0.273 0.426,0.402c0.127,0.13 0.253,0.243 0.377,0.342c0.124,0.098 0.251,0.191 0.382,0.279c0.131,0.088 0.264,0.173 0.4,0.256c0.136,0.082 0.27,0.162 0.401,0.238c0.132,0.076 0.249,0.134 0.352,0.175c0.103,0.041 0.203,0.066 0.3,0.077c0.129,0.014 0.129,0.005 0.001,-0.027" style="fill:none;fill-rule:nonzero;stroke:#000;stroke-width:0.85px;"/><path d="M189.471,34.103c0.044,0.002 0.118,0.02 0.221,0.052c0.065,0.02 0.102,0.031 0.112,0.031c0.01,0 0.023,-0.035 0.037,-0.106c0.014,-0.071 0.034,-0.191 0.061,-0.361c0.026,-0.17 0.058,-0.368 0.094,-0.594c0.036,-0.226 0.066,-0.468 0.088,-0.725c0.023,-0.257 0.04,-0.506 0.052,-0.745c0.012,-0.239 0.023,-0.434 0.033,-0.584c0.01,-0.15 0.027,-0.249 0.05,-0.299c0.023,-0.049 0.082,-0.069 0.175,-0.059c0.094,0.01 0.252,0.05 0.476,0.119c0.224,0.069 0.488,0.145 0.792,0.227c0.305,0.082 0.6,0.167 0.886,0.255c0.286,0.088 0.546,0.16 0.781,0.217c0.235,0.057 0.46,0.098 0.675,0.124c0.215,0.025 0.247,-0.017 0.098,-0.126" style="fill:none;fill-rule:nonzero;stroke:#000;stroke-width:0.85px;"/><path d="M213.069,25.033c0.048,-0.021 0.089,-0.078 0.124,-0.172c0.023,-0.061 0.034,-0.113 0.034,-0.156c0,-0.043 0.003,-0.111 0.01,-0.204c0.007,-0.093 0.021,-0.216 0.042,-0.369c0.022,-0.153 0.04,-0.33 0.055,-0.531c0.015,-0.201 0.023,-0.387 0.023,-0.559c0,-0.172 0,-0.313 0,-0.422l0,-0.254c0,-0.06 0.026,-0.096 0.078,-0.107c0.052,-0.011 0.17,0.01 0.353,0.065c0.183,0.055 0.405,0.143 0.668,0.264c0.262,0.121 0.55,0.209 0.862,0.263c0.312,0.054 0.624,0.083 0.936,0.086c0.312,0.003 0.6,0.002 0.865,-0.006c0.265,-0.007 0.431,-0.011 0.496,-0.011c0.091,-0 0.061,-0.057 -0.088,-0.169" style="fill:none;fill-rule:nonzero;stroke:#000;stroke-width:0.85px;"/><path d="M232.279,21.281c0,0.038 0,0.134 0,0.288c0,0.091 0.042,0.149 0.127,0.175c0.085,0.026 0.261,0.036 0.529,0.03c0.268,-0.006 0.604,-0.057 1.009,-0.153c0.405,-0.096 0.79,-0.189 1.156,-0.278c0.366,-0.09 0.64,-0.143 0.823,-0.16c0.182,-0.017 0.288,0.037 0.317,0.164c0.029,0.126 0.038,0.34 0.03,0.641c-0.009,0.301 -0.034,0.628 -0.074,0.981c-0.04,0.352 -0.076,0.655 -0.106,0.908c-0.03,0.253 -0.049,0.431 -0.057,0.536c-0.008,0.105 -0.055,0.163 -0.14,0.174" style="fill:none;fill-rule:nonzero;stroke:#000;stroke-width:0.85px;"/><path d="M215.086,58.905c-0.019,-0.046 -0.03,-0.141 -0.036,-0.283c-0.005,-0.142 0.006,-0.308 0.033,-0.496c0.028,-0.188 0.063,-0.404 0.107,-0.646c0.044,-0.242 0.094,-0.467 0.152,-0.673c0.058,-0.206 0.119,-0.374 0.185,-0.504c0.066,-0.13 0.132,-0.219 0.2,-0.268c0.068,-0.049 0.14,-0.075 0.218,-0.078c0.078,-0.003 0.171,0.011 0.281,0.043c0.11,0.032 0.244,0.086 0.403,0.163c0.159,0.077 0.337,0.153 0.535,0.229c0.198,0.076 0.42,0.139 0.666,0.192c0.246,0.052 0.495,0.086 0.746,0.102c0.4,0.025 0.685,0.059 0.856,0.101" style="fill:none;fill-rule:nonzero;stroke:#000;stroke-width:0.85px;"/><path d="M214.604,37.358c-0.089,-0.003 -0.195,-0.007 -0.32,-0.013c-0.125,-0.006 -0.224,-0.008 -0.298,-0.006c-0.074,0.002 -0.127,0.02 -0.161,0.052c-0.033,0.033 -0.034,0.063 -0.001,0.091c0.033,0.028 0.158,0.043 0.374,0.046c0.216,0.003 0.509,0.007 0.878,0.011c0.369,0.004 0.741,0.025 1.117,0.063c0.376,0.038 0.719,0.085 1.03,0.143c0.311,0.057 0.534,0.143 0.67,0.257c0.136,0.114 0.197,0.293 0.182,0.538c-0.015,0.244 -0.082,0.54 -0.201,0.885c-0.119,0.346 -0.214,0.655 -0.285,0.927c-0.071,0.272 -0.112,0.469 -0.123,0.591c-0.011,0.122 -0.017,0.195 -0.017,0.22l-0,0.011l-0.002,-0.066c-0.002,-0.089 -0.008,-0.266 -0.018,-0.531" style="fill:none;fill-rule:nonzero;stroke:#000;stroke-width:0.85px;"/><path d="M173.678,10.081l0,-0.606c0,-0.103 -0.011,-0.218 -0.034,-0.344c-0.023,-0.126 -0.094,-0.229 -0.214,-0.309c-0.12,-0.08 -0.299,-0.121 -0.538,-0.122c-0.239,-0.001 -0.512,0.091 -0.819,0.275c-0.307,0.184 -0.565,0.436 -0.773,0.756c-0.208,0.32 -0.319,0.66 -0.334,1.022c-0.015,0.362 0.079,0.67 0.281,0.924c0.202,0.254 0.436,0.415 0.703,0.485c0.267,0.07 0.527,0.045 0.781,-0.076c0.254,-0.12 0.472,-0.358 0.656,-0.713c0.183,-0.355 0.308,-0.718 0.373,-1.087c0.065,-0.369 0.1,-0.661 0.106,-0.874c0.006,-0.213 0.002,-0.34 -0.012,-0.379c-0.014,-0.039 -0.025,0.006 -0.033,0.137c-0.008,0.131 0.01,0.322 0.053,0.572c0.043,0.251 0.115,0.509 0.216,0.777c0.101,0.267 0.212,0.529 0.333,0.785c0.184,0.389 0.372,0.728 0.566,1.019" style="fill:none;fill-rule:nonzero;stroke:#000;stroke-width:0.85px;"/><path d="M241.641,8.441c-0.064,-0.061 -0.133,-0.133 -0.205,-0.217c-0.072,-0.084 -0.154,-0.15 -0.245,-0.2c-0.091,-0.05 -0.223,-0.077 -0.396,-0.081c-0.174,-0.005 -0.398,0.083 -0.675,0.263c-0.276,0.18 -0.532,0.468 -0.768,0.863c-0.235,0.396 -0.354,0.788 -0.354,1.177c-0.001,0.389 0.179,0.684 0.541,0.885c0.361,0.201 0.784,0.313 1.267,0.336c0.761,0.037 1.236,-0.036 1.425,-0.22" style="fill:none;fill-rule:nonzero;stroke:#000;stroke-width:0.85px;"/><path d="M203.137,5.646c-0.034,-0.035 -0.122,-0.083 -0.263,-0.145c-0.086,-0.038 -0.132,-0.027 -0.138,0.031c-0.006,0.059 0.007,0.216 0.039,0.474c0.032,0.257 0.086,0.595 0.163,1.013c0.077,0.418 0.168,0.868 0.274,1.352c0.106,0.483 0.202,0.886 0.289,1.209c0.087,0.322 0.148,0.523 0.183,0.601c0.036,0.078 0.061,0.06 0.076,-0.056c0.015,-0.115 0.066,-0.339 0.154,-0.672c0.088,-0.333 0.238,-0.631 0.451,-0.894c0.212,-0.263 0.465,-0.436 0.759,-0.517c0.294,-0.082 0.583,-0.051 0.867,0.092c0.284,0.143 0.503,0.373 0.657,0.69c0.154,0.317 0.233,0.624 0.236,0.921c0.003,0.297 -0.074,0.534 -0.232,0.711c-0.158,0.177 -0.353,0.315 -0.587,0.415c-0.234,0.1 -0.484,0.168 -0.75,0.204c-0.404,0.055 -0.767,0.051 -1.089,-0.011" style="fill:none;fill-rule:nonzero;stroke:#000;stroke-width:0.85px;"/><path d="M210.317,63.192l0,-0.377c0,-0.148 -0.002,-0.279 -0.007,-0.391c-0.004,-0.112 -0.03,-0.219 -0.077,-0.322c-0.047,-0.102 -0.124,-0.206 -0.231,-0.31c-0.107,-0.104 -0.244,-0.198 -0.412,-0.279c-0.168,-0.082 -0.375,-0.11 -0.623,-0.084c-0.247,0.026 -0.515,0.191 -0.804,0.496c-0.289,0.305 -0.525,0.701 -0.709,1.188c-0.183,0.488 -0.251,0.907 -0.202,1.259c0.048,0.351 0.233,0.546 0.553,0.585c0.32,0.038 0.654,-0.064 1,-0.308c0.347,-0.244 0.637,-0.56 0.87,-0.949c0.233,-0.389 0.393,-0.845 0.478,-1.367c0.086,-0.522 0.127,-1.086 0.125,-1.693c-0.003,-0.606 -0.028,-1.156 -0.075,-1.649c-0.048,-0.493 -0.079,-0.87 -0.095,-1.132c-0.016,-0.262 -0.025,-0.419 -0.028,-0.471l-0.004,-0.076l0,0c0,0.002 -0.003,0.044 -0.01,0.126c-0.007,0.083 -0.021,0.266 -0.043,0.549c-0.022,0.283 -0.033,0.673 -0.034,1.17c-0.001,0.497 0.045,1.04 0.137,1.63c0.092,0.59 0.23,1.16 0.416,1.709c0.186,0.549 0.351,0.957 0.497,1.224c0.146,0.267 0.25,0.427 0.312,0.479c0.085,0.072 0.092,-0.001 0.018,-0.22" style="fill:none;fill-rule:nonzero;stroke:#000;stroke-width:0.85px;"/><path d="M223.42,41.296c0,-0.086 -0.001,-0.2 -0.003,-0.341c-0.002,-0.142 -0.013,-0.282 -0.032,-0.42c-0.019,-0.138 -0.047,-0.28 -0.085,-0.426c-0.038,-0.146 -0.105,-0.269 -0.202,-0.369c-0.097,-0.1 -0.241,-0.122 -0.432,-0.067c-0.191,0.055 -0.418,0.288 -0.681,0.701c-0.263,0.412 -0.502,0.919 -0.717,1.519c-0.215,0.601 -0.366,1.21 -0.454,1.829c-0.088,0.619 -0.118,1.179 -0.09,1.68c0.027,0.501 0.086,0.927 0.176,1.278c0.09,0.351 0.149,0.617 0.178,0.798c0.029,0.181 0.037,0.306 0.025,0.375c-0.018,0.097 -0.223,0.065 -0.615,-0.093" style="fill:none;fill-rule:nonzero;stroke:#000;stroke-width:0.85px;"/><path d="M219.001,44.489c0.021,-0.032 0.193,-0.106 0.516,-0.225c0.323,-0.118 0.765,-0.231 1.326,-0.34c0.865,-0.167 1.574,-0.324 2.125,-0.47" style="fill:none;fill-rule:nonzero;stroke:#000;stroke-width:0.85px;"/></g></svg>