<?xml version="1.0" encoding="UTF-8" standalone="no"?><!DOCTYPE svg PUBLIC "-//W3C//DTD SVG 1.1//EN" "http://www.w3.org/Graphics/SVG/1.1/DTD/svg11.dtd"><svg width="100%" height="100%" viewBox="0 0 1137 331" version="1.1" xmlns="http://www.w3.org/2000/svg" xmlns:xlink="http://www.w3.org/1999/xlink" xml:space="preserve" xmlns:serif="http://www.serif.com/" style="fill-rule:evenodd;clip-rule:evenodd;stroke-linecap:round;stroke-linejoin:round;stroke-miterlimit:10;"><rect id="Artboard7" x="0" y="0" width="1137" height="331" style="fill:none;"/><rect x="0" y="0" width="1137" height="331" style="fill:#fff;"/><path d="M57.696,198.376c0.036,-0.285 0.09,-0.645 0.162,-1.078c0.072,-0.433 0.108,-0.812 0.11,-1.135c0.001,-0.323 -0.074,-0.652 -0.225,-0.987c-0.151,-0.335 -0.49,-0.593 -1.015,-0.772c-0.525,-0.18 -1.159,-0.207 -1.901,-0.081c-0.743,0.125 -1.466,0.721 -2.171,1.787c-0.705,1.066 -1.179,2.385 -1.422,3.956c-0.243,1.572 -0.104,2.963 0.416,4.172c0.52,1.209 1.516,1.943 2.989,2.201c1.473,0.258 2.931,0.025 4.374,-0.697c1.443,-0.723 2.479,-1.697 3.108,-2.924c0.629,-1.227 0.953,-2.426 0.971,-3.598c0.018,-1.172 -0.274,-2.161 -0.877,-2.967c-0.603,-0.807 -1.387,-1.351 -2.35,-1.632c-0.964,-0.282 -1.968,-0.235 -3.011,0.138c-1.044,0.374 -1.924,1.214 -2.641,2.522c-0.717,1.308 -1.123,2.723 -1.217,4.245c-0.095,1.523 0.346,2.706 1.321,3.55c0.975,0.844 2.309,1.179 4.003,1.005c1.693,-0.174 3.03,-0.839 4.01,-1.994c0.98,-1.155 1.456,-2.456 1.429,-3.903c-0.028,-1.447 -0.521,-2.534 -1.481,-3.261c-0.959,-0.727 -1.974,-0.695 -3.045,0.097c-1.071,0.791 -1.602,1.752 -1.593,2.882l0.007,0.848l-0.02,-2.542" style="fill:none;fill-rule:nonzero;stroke:#000;stroke-width:7.09px;"/><path d="M192.223,197.647c0.173,-0.288 0.395,-0.653 0.665,-1.094c0.27,-0.441 0.464,-0.79 0.58,-1.048c0.117,-0.258 0.182,-0.493 0.194,-0.706c0.013,-0.213 -0.033,-0.411 -0.135,-0.594c-0.103,-0.183 -0.415,-0.338 -0.937,-0.464c-0.522,-0.126 -1.184,-0.172 -1.986,-0.138c-0.802,0.034 -1.653,0.375 -2.551,1.023c-0.899,0.648 -1.652,1.626 -2.258,2.935c-0.607,1.309 -0.859,2.602 -0.757,3.879c0.102,1.277 0.755,2.185 1.961,2.724c1.206,0.539 2.574,0.662 4.105,0.37c1.531,-0.292 2.801,-1.07 3.81,-2.335c1.009,-1.265 1.641,-2.639 1.899,-4.12c0.257,-1.482 0.11,-2.635 -0.441,-3.458c-0.551,-0.824 -1.528,-1.039 -2.932,-0.644c-1.403,0.394 -2.763,1.396 -4.077,3.006c-1.315,1.61 -2.177,3.206 -2.587,4.789c-0.41,1.583 -0.159,2.743 0.753,3.479c0.912,0.736 2.328,0.908 4.249,0.515c1.921,-0.393 3.431,-1.197 4.529,-2.412c1.098,-1.215 1.659,-2.445 1.683,-3.69c0.024,-1.244 -0.419,-2.111 -1.33,-2.599c-0.911,-0.488 -1.793,-0.558 -2.645,-0.209c-0.853,0.348 -1.092,0.765 -0.718,1.248" style="fill:none;fill-rule:nonzero;stroke:#000;stroke-width:7.09px;"/><path d="M393.467,195.916c0.047,-0.065 -0.37,-0.142 -1.253,-0.231c-0.883,-0.089 -1.68,-0.087 -2.392,0.007c-0.712,0.094 -1.478,0.429 -2.298,1.006c-0.82,0.576 -1.467,1.413 -1.943,2.51c-0.475,1.097 -0.645,2.235 -0.508,3.415c0.137,1.18 0.745,2.078 1.826,2.692c1.081,0.614 2.314,0.931 3.699,0.951c1.385,0.02 2.648,-0.35 3.787,-1.11c1.139,-0.76 1.96,-1.718 2.461,-2.875c0.502,-1.156 0.755,-2.26 0.76,-3.313c0.005,-1.053 -0.516,-1.92 -1.564,-2.603c-1.048,-0.683 -2.387,-1.075 -4.017,-1.178c-1.631,-0.103 -3.064,0.152 -4.299,0.764c-1.235,0.612 -2.122,1.623 -2.66,3.031c-0.538,1.409 -0.576,2.777 -0.114,4.106c0.462,1.329 1.514,2.284 3.155,2.864c1.641,0.58 3.152,0.825 4.533,0.735c1.381,-0.09 2.306,-0.538 2.775,-1.344c0.468,-0.806 0.522,-1.668 0.162,-2.585c-0.36,-0.917 -1.062,-1.55 -2.103,-1.899c-1.041,-0.349 -1.837,-0.531 -2.388,-0.546c-0.754,-0.021 -0.938,0.293 -0.552,0.942" style="fill:none;fill-rule:nonzero;stroke:#000;stroke-width:7.09px;"/><path d="M58.79,224.99c-0.474,-0.085 -0.965,-0.214 -1.474,-0.389c-0.509,-0.175 -0.95,-0.334 -1.324,-0.477c-0.374,-0.143 -0.792,-0.256 -1.253,-0.339c-0.461,-0.083 -1.008,-0.127 -1.639,-0.13c-0.631,-0.003 -1.306,0.187 -2.025,0.57c-0.719,0.383 -1.375,1.062 -1.97,2.035c-0.595,0.973 -0.973,2.114 -1.133,3.423c-0.161,1.309 0.061,2.513 0.666,3.612c0.605,1.099 1.44,1.854 2.507,2.267c1.067,0.413 2.118,0.563 3.154,0.45c1.036,-0.113 1.994,-0.625 2.874,-1.537c0.88,-0.912 1.603,-2.013 2.17,-3.303c0.567,-1.29 1.003,-2.44 1.308,-3.451c0.305,-1.011 0.481,-1.71 0.528,-2.097c0.048,-0.387 0.072,-0.591 0.072,-0.612l0,-0.001l0,0.81c0,0.56 0.028,1.418 0.083,2.576c0.056,1.158 0.279,2.356 0.671,3.596c0.392,1.24 0.926,2.343 1.604,3.307c0.678,0.964 1.146,1.29 1.405,0.978" style="fill:none;fill-rule:nonzero;stroke:#000;stroke-width:3.54px;"/><path d="M181.286,221.344c-0.127,-0.3 -0.289,-0.624 -0.485,-0.973c-0.196,-0.349 -0.25,-0.353 -0.16,-0.011c0.089,0.342 0.335,1.396 0.737,3.163c0.402,1.767 0.707,3.463 0.915,5.088c0.208,1.625 0.335,3.035 0.381,4.231c0.046,1.195 0.07,2.025 0.07,2.487c0,0.463 0.043,0.634 0.129,0.513c0.086,-0.12 0.285,-0.594 0.598,-1.42c0.313,-0.827 0.842,-1.718 1.585,-2.675c0.744,-0.956 1.628,-1.727 2.654,-2.31c1.026,-0.584 2.056,-0.905 3.091,-0.965c1.035,-0.06 1.953,0.215 2.755,0.825c0.802,0.61 1.389,1.423 1.761,2.438c0.372,1.015 0.493,2.036 0.362,3.063c-0.131,1.027 -0.658,1.906 -1.583,2.638c-0.925,0.731 -2.012,1.315 -3.261,1.75c-1.25,0.435 -2.46,0.753 -3.631,0.954c-1.171,0.2 -1.93,0.308 -2.278,0.322c-0.495,0.02 -1.225,-0.914 -2.191,-2.803" style="fill:none;fill-rule:nonzero;stroke:#000;stroke-width:3.54px;"/><path d="M182.835,167.115c-0.007,-0.286 -0.204,-0.645 -0.593,-1.079c-0.388,-0.433 -1.18,-0.821 -2.375,-1.163c-1.195,-0.342 -2.771,-0.715 -4.729,-1.119c-1.958,-0.404 -4.152,-0.817 -6.584,-1.241c-2.432,-0.423 -4.739,-0.839 -6.921,-1.247c-2.182,-0.408 -4.16,-0.747 -5.934,-1.015c-1.774,-0.269 -3.559,-0.495 -5.355,-0.679c-1.796,-0.184 -3.661,-0.357 -5.594,-0.52c-1.933,-0.163 -3.831,-0.316 -5.696,-0.459c-1.865,-0.143 -3.792,-0.232 -5.781,-0.267c-1.989,-0.035 -4.016,-0.052 -6.081,-0.053c-2.065,0 -4.106,-0.019 -6.123,-0.056c-2.018,-0.037 -4.043,-0.179 -6.078,-0.424c-2.035,-0.245 -4.17,-0.453 -6.406,-0.624c-2.236,-0.17 -4.568,-0.272 -6.996,-0.303c-2.428,-0.032 -4.838,-0.001 -7.23,0.091c-2.392,0.093 -4.608,0.292 -6.646,0.598c-2.039,0.306 -4.275,0.644 -6.709,1.013c-2.434,0.37 -4.716,0.666 -6.846,0.891c-2.13,0.224 -4.171,0.477 -6.125,0.758c-1.953,0.281 -3.794,0.627 -5.522,1.036c-1.728,0.41 -3.428,0.847 -5.098,1.311c-1.67,0.465 -3.356,0.988 -5.058,1.57c-1.702,0.582 -3.369,1.225 -5.002,1.931c-1.633,0.705 -3.187,1.447 -4.663,2.224c-1.476,0.778 -2.855,1.523 -4.138,2.236c-1.283,0.713 -2.441,1.351 -3.475,1.914c-1.034,0.563 -1.958,1.15 -2.772,1.761c-0.814,0.612 -1.665,1.348 -2.553,2.21c-0.888,0.862 -1.787,1.84 -2.699,2.935c-0.911,1.095 -1.799,2.268 -2.663,3.52c-0.864,1.252 -1.62,2.531 -2.268,3.836c-0.648,1.305 -1.203,2.597 -1.664,3.875c-0.461,1.278 -0.861,2.525 -1.197,3.742c-0.337,1.216 -0.668,2.423 -0.993,3.619c-0.325,1.196 -0.606,2.368 -0.842,3.515c-0.236,1.147 -0.408,2.272 -0.515,3.374c-0.107,1.102 -0.196,2.254 -0.267,3.457c-0.071,1.203 -0.127,2.407 -0.169,3.613c-0.042,1.206 -0.063,2.368 -0.064,3.485c-0.001,1.118 0.085,2.214 0.257,3.289c0.173,1.076 0.405,2.101 0.697,3.077c0.292,0.976 0.609,1.9 0.952,2.774c0.342,0.873 0.715,1.794 1.118,2.762c0.403,0.968 0.831,1.925 1.284,2.87c0.453,0.946 0.947,1.792 1.482,2.54c0.534,0.747 1.113,1.412 1.735,1.993c0.623,0.582 1.35,1.136 2.183,1.663c0.833,0.527 1.777,1.097 2.832,1.71c1.055,0.613 2.16,1.293 3.313,2.038c1.153,0.745 2.369,1.513 3.649,2.303c1.28,0.791 2.564,1.561 3.853,2.312c1.289,0.75 2.538,1.461 3.745,2.132c1.207,0.671 2.404,1.307 3.589,1.909c1.185,0.602 2.394,1.128 3.626,1.58c1.232,0.451 2.477,0.86 3.733,1.225c1.257,0.366 2.494,0.731 3.711,1.096c1.217,0.365 2.423,0.744 3.617,1.138c1.194,0.394 2.449,0.757 3.764,1.09c1.315,0.333 2.642,0.663 3.982,0.991c1.339,0.328 2.791,0.712 4.355,1.151c1.564,0.439 3.171,0.927 4.82,1.463c1.649,0.536 3.346,1.01 5.091,1.422c1.745,0.412 3.573,0.727 5.485,0.945c1.912,0.219 3.748,0.438 5.508,0.659c1.76,0.221 3.388,0.472 4.886,0.753c1.498,0.282 3.036,0.545 4.616,0.792c1.58,0.246 3.322,0.408 5.228,0.486c1.906,0.078 3.797,0.17 5.675,0.278c1.878,0.108 3.665,0.214 5.362,0.316c1.697,0.102 3.415,0.189 5.153,0.261c1.738,0.072 3.513,0.119 5.322,0.14c1.81,0.022 3.66,0.086 5.553,0.193c1.893,0.107 3.77,0.222 5.634,0.346c1.864,0.124 3.743,0.202 5.637,0.236c1.895,0.034 3.696,0.051 5.405,0.051c1.709,0 3.389,0 5.039,0c1.65,0 3.277,-0.029 4.881,-0.086c1.604,-0.058 3.129,-0.132 4.573,-0.223c1.445,-0.091 2.812,-0.201 4.102,-0.331c1.29,-0.13 2.611,-0.28 3.964,-0.451c1.353,-0.171 2.723,-0.348 4.111,-0.53c1.388,-0.182 2.771,-0.383 4.147,-0.603c1.376,-0.22 2.763,-0.495 4.161,-0.825c1.397,-0.331 2.771,-0.717 4.12,-1.159c1.349,-0.442 2.725,-0.953 4.129,-1.533c1.403,-0.58 2.878,-1.257 4.424,-2.031c1.546,-0.774 3.065,-1.581 4.558,-2.421c1.493,-0.84 2.849,-1.661 4.067,-2.463c1.218,-0.801 2.243,-1.568 3.075,-2.299c0.832,-0.731 1.594,-1.49 2.286,-2.277c0.692,-0.787 1.358,-1.609 1.998,-2.468c0.64,-0.859 1.25,-1.757 1.828,-2.696c0.579,-0.938 1.185,-1.961 1.82,-3.067c0.635,-1.106 1.268,-2.266 1.898,-3.48c0.631,-1.214 1.178,-2.414 1.64,-3.6c0.463,-1.186 0.838,-2.376 1.128,-3.571c0.289,-1.195 0.498,-2.385 0.626,-3.57c0.128,-1.185 0.193,-2.37 0.196,-3.555c0.003,-1.185 0.004,-2.422 0.004,-3.712c0,-1.29 -0.11,-2.69 -0.329,-4.201c-0.219,-1.511 -0.574,-3.014 -1.065,-4.507c-0.491,-1.494 -1.024,-2.912 -1.599,-4.253c-0.575,-1.342 -1.137,-2.68 -1.686,-4.014c-0.549,-1.335 -1.058,-2.729 -1.526,-4.184c-0.468,-1.455 -0.954,-2.859 -1.457,-4.212c-0.503,-1.353 -1.052,-2.606 -1.647,-3.757c-0.595,-1.151 -1.172,-2.216 -1.732,-3.194c-0.559,-0.978 -1.108,-1.914 -1.645,-2.809c-0.538,-0.895 -1.069,-1.748 -1.595,-2.56c-0.526,-0.813 -1.11,-1.604 -1.752,-2.373c-0.643,-0.77 -1.323,-1.526 -2.04,-2.268c-0.718,-0.742 -1.475,-1.487 -2.27,-2.233c-0.796,-0.747 -1.633,-1.496 -2.513,-2.248c-0.88,-0.752 -1.77,-1.416 -2.67,-1.991c-0.9,-0.575 -1.915,-0.99 -3.046,-1.247c-1.674,-0.38 -3.584,-0.525 -5.731,-0.436" style="fill:none;fill-rule:nonzero;stroke:#000;stroke-width:3.54px;"/><path d="M206.624,142.05c-0.175,-0 -0.55,-0 -1.125,0c-0.348,0 -0.614,-0.005 -0.798,-0.014c-0.185,-0.009 -0.367,-0.053 -0.548,-0.132c-0.18,-0.079 -0.439,-0.135 -0.775,-0.168c-0.337,-0.034 -0.799,-0.037 -1.386,-0.01c-0.587,0.027 -1.331,0.297 -2.231,0.81c-0.9,0.513 -1.814,1.273 -2.741,2.282c-0.928,1.009 -1.639,2.042 -2.135,3.099c-0.496,1.057 -0.71,2.001 -0.642,2.833c0.068,0.831 0.578,1.467 1.529,1.907c0.951,0.44 2.11,0.726 3.477,0.858c1.367,0.132 2.809,0.198 4.325,0.2c1.517,0.002 2.963,-0.031 4.338,-0.099c1.376,-0.068 2.686,-0.207 3.93,-0.418" style="fill:none;fill-rule:nonzero;stroke:#000;stroke-width:3.54px;"/><path d="M413.791,165.93c-0.386,-0.112 -0.839,-0.293 -1.359,-0.543c-0.52,-0.25 -1.022,-0.453 -1.505,-0.609c-0.483,-0.156 -1.025,-0.246 -1.626,-0.27c-0.601,-0.024 -1.376,0.044 -2.323,0.204c-0.948,0.159 -2.055,0.613 -3.323,1.361c-1.268,0.748 -2.383,1.713 -3.348,2.895c-0.964,1.182 -1.471,2.388 -1.521,3.619c-0.05,1.23 0.68,2.216 2.19,2.959c1.51,0.742 3.321,1.178 5.435,1.308c3.189,0.196 6.133,-0.02 8.832,-0.647" style="fill:none;fill-rule:nonzero;stroke:#000;stroke-width:3.54px;"/><path d="M252.378,198.741c0.369,-0.067 0.778,-0.148 1.229,-0.244c0.45,-0.096 0.991,-0.16 1.622,-0.192c0.631,-0.031 1.758,-0.091 3.38,-0.179c1.623,-0.088 4.021,-0.169 7.196,-0.243c3.175,-0.074 6.889,-0.117 11.142,-0.128c4.253,-0.012 8.548,-0.017 12.883,-0.017c4.335,0 8.354,0.038 12.055,0.115c3.702,0.077 7.035,0.152 10,0.226c2.965,0.074 5.573,0.103 7.824,0.085c2.251,-0.017 4.304,-0.1 6.158,-0.248c1.855,-0.148 3.563,-0.26 5.123,-0.335c1.561,-0.075 2.969,-0.114 4.226,-0.115c1.257,-0.001 2.449,0.027 3.575,0.084c1.127,0.058 2.17,0.103 3.131,0.136c0.96,0.034 1.76,0.046 2.4,0.037c0.639,-0.009 1.108,-0.024 1.406,-0.045c0.298,-0.021 0.465,0.01 0.503,0.093c0.038,0.083 -0.26,0.457 -0.893,1.123c-0.633,0.666 -1.614,1.478 -2.945,2.436c-1.331,0.958 -2.717,1.86 -4.156,2.706c-1.44,0.846 -2.676,1.569 -3.71,2.168c-1.033,0.599 -1.72,0.992 -2.059,1.179c-0.339,0.187 -0.463,0.248 -0.373,0.185c0.09,-0.064 0.315,-0.223 0.675,-0.479c0.36,-0.255 1.193,-0.919 2.499,-1.99c1.306,-1.072 2.615,-2.235 3.928,-3.488c1.313,-1.254 2.41,-2.433 3.293,-3.536c0.883,-1.104 1.332,-2.041 1.348,-2.812c0.016,-0.771 -0.686,-1.371 -2.106,-1.801c-2.065,-0.625 -5.182,-0.643 -9.35,-0.055" style="fill:none;fill-rule:nonzero;stroke:#000;stroke-width:3.54px;"/><path d="M267.143,221.527c0,-0.438 0.098,-0.998 0.294,-1.679c0.196,-0.681 0.864,-1.302 2.005,-1.861c1.14,-0.56 2.363,-0.929 3.668,-1.108c1.305,-0.179 2.246,0.041 2.824,0.659c0.578,0.618 0.828,1.675 0.749,3.172c-0.078,1.496 -0.458,3.123 -1.14,4.88c-0.681,1.757 -1.341,3.447 -1.979,5.068c-0.638,1.622 -1.047,2.985 -1.226,4.091c-0.179,1.106 0.016,1.883 0.586,2.331c0.57,0.448 1.587,0.698 3.053,0.749c1.466,0.051 2.718,0.039 3.755,-0.037c1.038,-0.075 1.677,-0.417 1.917,-1.024" style="fill:none;fill-rule:nonzero;stroke:#000;stroke-width:3.54px;"/><path d="M270.059,231.097c0.44,-0.149 0.994,-0.35 1.663,-0.603c0.669,-0.253 1.422,-0.413 2.257,-0.48c1.211,-0.098 3.313,-0.039 6.308,0.177" style="fill:none;fill-rule:nonzero;stroke:#000;stroke-width:3.54px;"/><path d="M294.303,227.816c-0.488,-0.242 -1.107,-0.522 -1.86,-0.84c-0.753,-0.317 -1.561,-0.486 -2.425,-0.506c-0.864,-0.02 -1.699,0.283 -2.505,0.909c-0.806,0.626 -1.402,1.575 -1.788,2.845c-0.385,1.27 -0.312,2.524 0.221,3.759c0.532,1.236 1.703,2.103 3.51,2.6c1.808,0.498 3.615,0.533 5.422,0.104c1.807,-0.429 3.156,-1.237 4.048,-2.423c0.892,-1.186 1.326,-2.367 1.304,-3.543c-0.022,-1.176 -0.283,-1.976 -0.784,-2.4l-0.375,-0.318l1.126,0.955" style="fill:none;fill-rule:nonzero;stroke:#000;stroke-width:3.54px;"/><path d="M312.988,227.36c0,-0.328 -0.018,-0.747 -0.055,-1.257c-0.036,-0.51 -0.369,-0.852 -0.998,-1.026c-0.629,-0.174 -1.587,-0.073 -2.876,0.303c-1.289,0.376 -2.47,1.175 -3.546,2.397c-1.075,1.222 -1.659,2.504 -1.75,3.845c-0.092,1.341 0.53,2.386 1.866,3.134c1.336,0.748 2.78,1.09 4.333,1.029c1.553,-0.062 2.682,-0.606 3.385,-1.634c0.704,-1.027 1.05,-2.339 1.039,-3.936c-0.018,-2.451 -0.336,-4.403 -0.954,-5.854" style="fill:none;fill-rule:nonzero;stroke:#000;stroke-width:3.54px;"/><path d="M317.636,223.987c0.69,0 1.491,0.085 2.401,0.255c0.911,0.17 1.758,0.705 2.54,1.605c0.783,0.9 1.434,2.113 1.952,3.638c0.519,1.525 0.865,2.877 1.04,4.057c0.174,1.18 0.263,1.941 0.265,2.283l0.003,0.183l0.002,-0.593c0,-0.614 0.009,-1.708 0.027,-3.281c0.018,-1.573 0.24,-3.167 0.665,-4.781c0.425,-1.614 1,-2.779 1.725,-3.496c0.725,-0.717 1.414,-0.841 2.066,-0.375c0.653,0.466 1.235,1.45 1.747,2.949c0.512,1.5 0.958,2.755 1.337,3.765c0.379,1.011 0.769,1.602 1.169,1.775c0.4,0.172 0.958,-0.143 1.674,-0.945c0.716,-0.803 1.533,-1.797 2.452,-2.983c0.919,-1.186 1.771,-2.062 2.558,-2.628c0.786,-0.566 1.578,-0.561 2.375,0.014c0.797,0.575 1.577,1.735 2.341,3.481c0.764,1.745 1.347,3.445 1.749,5.098c0.403,1.653 0.623,2.712 0.66,3.175c0.054,0.655 -1.024,1.082 -3.232,1.28" style="fill:none;fill-rule:nonzero;stroke:#000;stroke-width:3.54px;"/><path d="M284.46,262.359c-0.008,-0.309 -0.068,-0.67 -0.18,-1.082c-0.112,-0.413 -0.33,-0.746 -0.653,-1c-0.323,-0.254 -0.842,-0.426 -1.555,-0.516c-0.713,-0.09 -1.578,0.089 -2.595,0.536c-1.016,0.447 -1.898,1.306 -2.646,2.578c-0.748,1.272 -1.175,2.585 -1.283,3.94c-0.108,1.355 0.472,2.373 1.737,3.054c1.266,0.681 2.986,0.897 5.162,0.649c2.176,-0.249 3.978,-0.981 5.407,-2.196c1.429,-1.216 2.308,-2.595 2.637,-4.138c0.329,-1.543 0.255,-2.905 -0.222,-4.085c-0.477,-1.18 -0.988,-1.929 -1.531,-2.247l-0.408,-0.239l1.223,0.715" style="fill:none;fill-rule:nonzero;stroke:#000;stroke-width:3.54px;"/><path d="M298.587,261.265c-0.342,0.188 -0.595,0.853 -0.758,1.997c-0.163,1.144 0.004,2.395 0.5,3.754c0.496,1.359 1.294,2.369 2.394,3.031c1.1,0.662 2.229,0.884 3.388,0.665c1.159,-0.219 2.118,-1.003 2.876,-2.354c0.758,-1.35 1.252,-2.703 1.482,-4.058c0.23,-1.355 0.357,-2.267 0.381,-2.737l0.028,-0.38l0.008,0.276c0,0.4 0.119,1.213 0.356,2.439c0.237,1.226 0.775,2.417 1.615,3.571c0.839,1.155 1.682,1.965 2.527,2.43c1.204,0.662 2.24,0.39 3.108,-0.816" style="fill:none;fill-rule:nonzero;stroke:#000;stroke-width:3.54px;"/><path d="M318.912,249.599c-0.401,-0.119 -0.694,0.183 -0.879,0.905c-0.185,0.722 0.028,2.153 0.641,4.293c0.612,2.14 1.574,4.531 2.886,7.176c1.312,2.644 2.633,4.758 3.964,6.342c1.331,1.584 2.209,2.496 2.634,2.735c0.598,0.336 1.088,-0.761 1.47,-3.291" style="fill:none;fill-rule:nonzero;stroke:#000;stroke-width:3.54px;"/><path d="M318.365,259.351c0.111,-0.36 0.645,-0.714 1.603,-1.063c1.383,-0.503 4.071,-0.618 8.065,-0.344" style="fill:none;fill-rule:nonzero;stroke:#000;stroke-width:3.54px;"/><path d="M193.955,169.12c-0.345,-0.174 -0.912,-0.309 -1.701,-0.404c-0.789,-0.095 -1.681,-0.143 -2.676,-0.143c-1.492,-0 -2.978,-0.093 -4.459,-0.277" style="fill:none;fill-rule:nonzero;stroke:#000;stroke-width:3.54px;"/><path d="M586.872,59.839l0,1.883c0,0.117 0,0.128 0,0.034l0,-0.709c0,-0.378 0.113,-1.675 0.341,-3.892c0.227,-2.216 0.851,-5.134 1.872,-8.753c1.021,-3.619 2.244,-7.267 3.669,-10.943c1.425,-3.676 2.783,-6.783 4.074,-9.321c1.291,-2.538 2.493,-4.715 3.605,-6.53c1.113,-1.815 1.989,-3.256 2.629,-4.322c0.64,-1.066 1.003,-1.727 1.089,-1.984c0.086,-0.257 0.13,-0.387 0.13,-0.391c0,-0.004 0.048,0.05 0.143,0.161c0.095,0.111 0.291,0.598 0.588,1.459c0.297,0.862 0.666,1.945 1.108,3.248c0.442,1.304 0.882,2.903 1.319,4.796c0.438,1.894 0.782,4.402 1.034,7.526c0.252,3.123 0.391,6.341 0.417,9.653c0.026,3.312 0.039,5.76 0.04,7.344c0,1.585 0.041,2.462 0.123,2.633c0.113,0.236 0.231,0.089 0.352,-0.442" style="fill:none;fill-rule:nonzero;stroke:#000;stroke-width:3.54px;"/><path d="M590.608,39.423c-0.059,-0.352 0.042,-0.685 0.302,-1c0.26,-0.315 1.06,-0.523 2.398,-0.627c1.945,-0.151 5.039,-0.295 9.282,-0.434" style="fill:none;fill-rule:nonzero;stroke:#000;stroke-width:3.54px;"/><path d="M615.035,39.788c0,0.035 0.115,0.79 0.343,2.267c0.229,1.476 0.556,2.984 0.98,4.523c0.425,1.539 0.758,2.915 0.999,4.13c0.242,1.214 0.386,2.083 0.432,2.605l0.069,0.728l0,-0.004c0,-0.04 0.009,-0.566 0.028,-1.58c0.018,-1.014 0.139,-2.339 0.362,-3.977c0.223,-1.637 0.611,-3.163 1.165,-4.578c0.554,-1.415 1.367,-2.477 2.439,-3.186c1.073,-0.71 2.257,-1.009 3.553,-0.898c1.296,0.111 2.42,0.812 3.37,2.105c0.95,1.293 1.583,2.9 1.9,4.822c0.316,1.922 0.492,3.709 0.528,5.36c0.035,1.652 0.12,2.836 0.253,3.552c0.133,0.717 0.249,1.105 0.345,1.165c0.137,0.085 0.598,-0.787 1.384,-2.617" style="fill:none;fill-rule:nonzero;stroke:#000;stroke-width:3.54px;"/><path d="M644.565,43.616c-0.804,-0.256 -1.722,-0.516 -2.755,-0.78c-1.033,-0.264 -2.02,-0.103 -2.961,0.482c-0.942,0.585 -1.683,1.72 -2.223,3.402c-0.54,1.683 -0.651,3.309 -0.334,4.879c0.318,1.57 1.17,2.589 2.558,3.058c1.387,0.468 2.732,0.394 4.033,-0.222c1.302,-0.616 2.298,-1.666 2.989,-3.15c0.691,-1.484 1.16,-2.983 1.407,-4.497c0.247,-1.514 0.425,-2.478 0.535,-2.892c0.11,-0.414 0.428,-0.014 0.955,1.201c0.527,1.215 1.332,2.676 2.416,4.383c1.084,1.707 2.307,3.017 3.67,3.93l1.022,0.685l-3.067,-2.055" style="fill:none;fill-rule:nonzero;stroke:#000;stroke-width:3.54px;"/><path d="M663.523,17.549c-0.445,0.433 -0.809,1.95 -1.092,4.55c-0.283,2.6 -0.228,5.981 0.165,10.142c0.393,4.161 0.879,7.732 1.458,10.713c0.58,2.981 1.07,5.046 1.47,6.194c0.401,1.148 0.709,1.789 0.925,1.921c0.299,0.184 0.421,-0.021 0.368,-0.615" style="fill:none;fill-rule:nonzero;stroke:#000;stroke-width:3.54px;"/><path d="M680.931,43.434c-0.471,-0.372 -1.116,-0.784 -1.935,-1.235c-0.819,-0.451 -1.739,-0.539 -2.76,-0.263c-1.021,0.276 -1.942,1.286 -2.763,3.029c-0.821,1.743 -1.166,3.64 -1.036,5.692c0.13,2.052 1.029,3.613 2.695,4.686c1.667,1.072 3.517,1.441 5.551,1.107c2.034,-0.334 3.56,-1.32 4.578,-2.959c1.018,-1.638 1.547,-3.424 1.587,-5.356c0.04,-1.932 -0.231,-3.332 -0.814,-4.2c-0.583,-0.868 -1.012,-1.336 -1.287,-1.402c-0.382,-0.093 -0.201,0.248 0.544,1.021" style="fill:none;fill-rule:nonzero;stroke:#000;stroke-width:3.54px;"/><path d="M702.805,44.983c0,-0.441 -0.023,-0.909 -0.068,-1.405c-0.046,-0.496 -0.417,-0.825 -1.114,-0.987c-0.697,-0.162 -1.712,0.118 -3.046,0.839c-1.333,0.721 -2.398,1.995 -3.193,3.823c-0.795,1.828 -1.003,3.434 -0.625,4.819c0.379,1.385 1.286,2.029 2.723,1.933c1.437,-0.096 2.678,-0.782 3.723,-2.056c1.045,-1.275 1.805,-2.538 2.28,-3.79c0.475,-1.252 0.802,-2.053 0.98,-2.404c0.178,-0.351 0.353,0.067 0.524,1.255c0.171,1.187 0.291,3.255 0.36,6.203c0.069,2.948 -0.114,6.184 -0.549,9.707c-0.435,3.523 -1.005,6.209 -1.708,8.057c-0.703,1.849 -1.553,2.84 -2.551,2.974c-1.427,0.191 -3.265,-1.175 -5.512,-4.098" style="fill:none;fill-rule:nonzero;stroke:#000;stroke-width:3.54px;"/><path d="M715.018,44.801c-0.169,-0.024 -0.343,0.805 -0.523,2.49c-0.18,1.684 0.047,3.346 0.679,4.987c0.633,1.64 1.552,2.702 2.758,3.185c1.206,0.483 2.355,0.232 3.449,-0.753c1.093,-0.984 1.982,-2.43 2.667,-4.337c0.685,-1.907 1.143,-3.524 1.372,-4.851c0.23,-1.327 0.341,-2.089 0.335,-2.287l-0.005,-0.052l-0.08,1.159c-0.05,0.936 -0.02,2.298 0.091,4.087c0.111,1.789 0.386,3.744 0.825,5.865c0.439,2.12 0.795,4.145 1.068,6.075c0.273,1.93 0.349,3.529 0.228,4.799c-0.173,1.811 -2.128,3.094 -5.863,3.85" style="fill:none;fill-rule:nonzero;stroke:#000;stroke-width:3.54px;"/><path d="M572.106,70.321c0.254,-0.157 1.008,-0.312 2.261,-0.464c1.253,-0.152 3.859,-0.262 7.818,-0.33c3.959,-0.068 9.398,-0.289 16.315,-0.662c6.918,-0.373 14.463,-0.722 22.636,-1.045c8.173,-0.323 16.629,-0.537 25.369,-0.64c8.74,-0.103 17.448,-0.39 26.126,-0.859c8.678,-0.469 16.632,-0.918 23.862,-1.345c7.23,-0.428 13.222,-0.661 17.975,-0.701c7.844,-0.066 12.982,0.038 15.414,0.312" style="fill:none;fill-rule:nonzero;stroke:#000;stroke-width:3.54px;"/><path d="M725.956,195.442c0.278,-0.131 0.435,-0.373 0.471,-0.727c0.037,-0.353 -0.03,-0.616 -0.198,-0.789c-0.168,-0.173 -0.358,-0.336 -0.568,-0.488c-0.211,-0.152 -0.466,-0.304 -0.767,-0.456c-0.3,-0.152 -0.661,-0.275 -1.082,-0.369c-0.421,-0.094 -0.888,-0.163 -1.401,-0.204c-0.513,-0.042 -1.038,-0.059 -1.576,-0.051c-0.538,0.008 -1.045,0.085 -1.524,0.23c-0.478,0.145 -0.911,0.358 -1.3,0.638c-0.388,0.28 -0.75,0.591 -1.087,0.933c-0.337,0.342 -0.628,0.724 -0.874,1.146c-0.246,0.422 -0.457,0.904 -0.631,1.447c-0.174,0.542 -0.313,1.102 -0.417,1.679c-0.104,0.577 -0.192,1.15 -0.264,1.718c-0.072,0.568 -0.119,1.088 -0.142,1.558c-0.023,0.47 -0.034,0.884 -0.034,1.242c0,0.358 -0,0.699 -0,1.023c0,0.325 0.028,0.649 0.085,0.974c0.057,0.325 0.203,0.649 0.441,0.972c0.237,0.323 0.521,0.628 0.852,0.913c0.331,0.286 0.683,0.551 1.057,0.796c0.374,0.245 0.753,0.455 1.139,0.63c0.386,0.175 0.756,0.328 1.112,0.461c0.355,0.133 0.705,0.231 1.048,0.295c0.343,0.064 0.731,0.111 1.162,0.142c0.431,0.03 0.914,0.046 1.448,0.047c0.534,0.001 1.08,-0.017 1.637,-0.054c0.557,-0.037 1.099,-0.16 1.627,-0.366c0.528,-0.207 1.04,-0.461 1.538,-0.761c0.498,-0.3 0.97,-0.613 1.418,-0.937c0.448,-0.324 0.856,-0.682 1.224,-1.073c0.368,-0.392 0.7,-0.819 0.996,-1.283c0.296,-0.464 0.533,-0.944 0.71,-1.44c0.178,-0.496 0.284,-0.978 0.319,-1.445c0.035,-0.467 0.053,-0.948 0.053,-1.442c0,-0.494 -0.047,-0.999 -0.142,-1.516c-0.095,-0.516 -0.272,-1.024 -0.532,-1.522c-0.26,-0.498 -0.531,-0.928 -0.813,-1.288c-0.283,-0.36 -0.614,-0.659 -0.993,-0.896c-0.38,-0.237 -0.725,-0.282 -1.037,-0.135" style="fill:none;fill-rule:nonzero;stroke:#000;stroke-width:3.54px;"/><path d="M684.668,153.243l-0.992,0c-0.376,0 -0.705,-0 -0.985,-0l-0.977,0c-0.371,0 -0.773,0.005 -1.205,0.014c-0.432,0.009 -0.882,0.22 -1.35,0.633c-0.468,0.413 -0.819,1.088 -1.054,2.024c-0.235,0.937 -0.203,1.9 0.095,2.889c0.298,0.989 1.035,1.699 2.213,2.128c1.178,0.43 2.422,0.502 3.734,0.218c1.312,-0.284 2.374,-1.005 3.188,-2.163c0.813,-1.158 1.315,-2.383 1.506,-3.675c0.191,-1.291 0.059,-2.319 -0.396,-3.081c-0.455,-0.763 -1.208,-1.224 -2.26,-1.385c-1.052,-0.16 -2.092,-0.06 -3.12,0.301c-1.028,0.361 -1.879,0.985 -2.554,1.872c-0.675,0.887 -1.121,1.842 -1.338,2.865c-0.218,1.023 -0.085,1.912 0.396,2.665c0.482,0.753 1.337,1.222 2.565,1.405c1.228,0.184 2.368,0.032 3.418,-0.455c1.05,-0.487 1.74,-1.261 2.071,-2.323c0.331,-1.062 0.011,-2.002 -0.96,-2.819c-0.971,-0.817 -2.125,-0.946 -3.464,-0.386c-1.338,0.56 -2.106,1.336 -2.304,2.329c-0.198,0.993 0.034,1.745 0.694,2.255c0.66,0.51 1.523,0.72 2.588,0.63c1.065,-0.09 1.921,-0.52 2.569,-1.288c0.648,-0.769 1.04,-1.489 1.177,-2.16c0.137,-0.671 0.125,-1.116 -0.035,-1.336c-0.16,-0.22 -0.393,-0.265 -0.698,-0.137c-0.435,0.183 -0.587,0.751 -0.456,1.705" style="fill:none;fill-rule:nonzero;stroke:#000;stroke-width:3.54px;"/><path d="M683.489,155.887c0.016,-0.238 0.055,-0.523 0.116,-0.856c0.04,-0.217 0.06,-0.07 0.06,0.442l-0,0.384l0,-1.151" style="fill:none;fill-rule:nonzero;stroke:#000;stroke-width:3.54px;"/><path d="M740.538,183.685c-0.297,0.068 -0.553,0.315 -0.768,0.739c-0.215,0.424 -0.323,1.009 -0.324,1.754c-0.001,0.745 0.007,1.625 0.025,2.641c0.018,1.016 0.13,1.979 0.336,2.89c0.206,0.911 0.401,1.627 0.587,2.149c0.185,0.522 0.316,0.87 0.391,1.043c0.075,0.173 0.114,0.239 0.115,0.196c0.001,-0.043 0.002,-0.385 0.002,-1.025c0,-0.64 -0.095,-1.638 -0.284,-2.992c-0.189,-1.354 -0.45,-2.837 -0.784,-4.45c-0.333,-1.612 -0.601,-3.086 -0.803,-4.422c-0.202,-1.336 -0.255,-2.448 -0.16,-3.336c0.095,-0.888 0.58,-1.572 1.453,-2.053c0.873,-0.48 1.904,-0.807 3.094,-0.979c1.19,-0.173 2.335,-0.228 3.437,-0.166c1.101,0.062 2.029,0.333 2.782,0.814c0.754,0.48 1.324,1.063 1.711,1.746c0.387,0.684 0.641,1.4 0.762,2.15c0.12,0.749 0.159,1.45 0.115,2.103c-0.044,0.653 -0.358,1.216 -0.941,1.691c-0.583,0.475 -1.348,0.818 -2.293,1.029c-1.404,0.315 -2.79,0.212 -4.157,-0.308" style="fill:none;fill-rule:nonzero;stroke:#000;stroke-width:3.54px;"/><path d="M681.205,134.93c-0.361,0.016 -0.377,0.034 -0.046,0.055c0.247,0.015 0.863,0.054 1.849,0.116c0.986,0.062 1.903,0.093 2.752,0.094c0.848,0.001 1.723,-0.146 2.624,-0.442c0.901,-0.296 1.683,-0.816 2.345,-1.562c0.662,-0.745 1.093,-1.617 1.291,-2.615c0.198,-0.998 0.266,-1.897 0.204,-2.699c-0.062,-0.802 -0.319,-1.413 -0.771,-1.832c-0.452,-0.42 -0.961,-0.694 -1.527,-0.824c-0.566,-0.13 -1.166,-0.196 -1.801,-0.2c-0.635,-0.003 -1.349,0.168 -2.142,0.514c-0.793,0.346 -1.625,0.874 -2.496,1.583c-0.87,0.71 -1.645,1.488 -2.323,2.335c-0.678,0.847 -1.187,1.735 -1.525,2.665c-0.339,0.929 -0.513,1.88 -0.523,2.85c-0.01,0.971 0.179,1.88 0.567,2.729c0.388,0.848 0.918,1.556 1.588,2.124c0.67,0.568 1.462,1.004 2.374,1.307c0.913,0.303 1.961,0.483 3.146,0.542c1.185,0.059 2.473,-0.002 3.865,-0.183c2.023,-0.263 3.794,-1.593 5.312,-3.991" style="fill:none;fill-rule:nonzero;stroke:#000;stroke-width:3.54px;"/><path d="M701.559,145.537c0.146,0.087 0.525,0.06 1.137,-0.079c0.377,-0.086 0.774,-0.267 1.191,-0.542c0.417,-0.276 0.965,-0.668 1.644,-1.177c0.68,-0.508 1.461,-1.056 2.344,-1.643c0.883,-0.587 1.874,-1.155 2.972,-1.704c1.098,-0.549 2.209,-1.034 3.333,-1.455c1.124,-0.421 2.215,-0.804 3.272,-1.15c1.058,-0.346 2.059,-0.642 3.004,-0.89c0.945,-0.247 1.878,-0.454 2.799,-0.619c0.921,-0.165 1.861,-0.294 2.822,-0.387c0.961,-0.092 1.937,-0.189 2.928,-0.289c0.992,-0.1 1.965,-0.216 2.92,-0.348c0.955,-0.132 1.864,-0.248 2.728,-0.351c0.863,-0.103 1.696,-0.171 2.498,-0.204c0.802,-0.034 1.598,-0.05 2.388,-0.051c0.79,-0 1.604,-0 2.442,-0c0.838,0 1.669,0.005 2.491,0.014c0.823,0.009 1.586,0.063 2.29,0.16c0.704,0.098 1.346,0.227 1.926,0.387c0.58,0.16 1.168,0.312 1.764,0.455c0.596,0.144 1.203,0.267 1.821,0.369c0.618,0.103 1.202,0.213 1.752,0.333c0.55,0.119 1.079,0.298 1.585,0.537c0.507,0.239 1.023,0.499 1.548,0.782c0.525,0.282 1.095,0.6 1.71,0.952c0.614,0.352 1.212,0.725 1.792,1.119c0.58,0.394 1.144,0.783 1.691,1.168c0.547,0.385 1.094,0.77 1.641,1.156c0.547,0.386 1.098,0.756 1.654,1.111c0.556,0.355 1.132,0.7 1.728,1.035c0.596,0.335 1.198,0.665 1.806,0.99c0.608,0.325 1.196,0.64 1.767,0.943c0.57,0.304 1.114,0.627 1.63,0.969c0.517,0.342 0.999,0.705 1.448,1.089c0.449,0.384 0.891,0.811 1.327,1.283c0.436,0.472 0.847,0.975 1.234,1.51c0.387,0.535 0.758,1.091 1.112,1.667c0.355,0.576 0.695,1.143 1.021,1.7c0.326,0.557 0.656,1.12 0.989,1.688c0.333,0.568 0.671,1.154 1.015,1.759c0.343,0.604 0.697,1.231 1.062,1.878c0.365,0.648 0.71,1.281 1.036,1.9c0.326,0.619 0.627,1.228 0.903,1.825c0.276,0.598 0.525,1.215 0.75,1.852c0.224,0.637 0.447,1.279 0.669,1.926c0.222,0.647 0.454,1.295 0.697,1.944c0.243,0.649 0.495,1.292 0.758,1.929c0.263,0.637 0.511,1.295 0.746,1.975c0.235,0.679 0.464,1.362 0.687,2.047c0.223,0.686 0.436,1.393 0.638,2.122c0.203,0.729 0.401,1.468 0.594,2.216c0.193,0.748 0.353,1.502 0.477,2.262c0.125,0.76 0.214,1.529 0.267,2.309c0.053,0.78 0.085,1.553 0.096,2.321c0.011,0.768 0.017,1.552 0.017,2.353l0,9.41c0,0.616 -0.005,1.252 -0.014,1.909c-0.009,0.657 -0.063,1.291 -0.16,1.902c-0.098,0.611 -0.213,1.176 -0.344,1.696c-0.132,0.52 -0.272,1.027 -0.422,1.523c-0.15,0.495 -0.316,1.04 -0.498,1.634c-0.182,0.594 -0.369,1.209 -0.56,1.845c-0.191,0.636 -0.393,1.293 -0.606,1.971c-0.213,0.678 -0.42,1.337 -0.624,1.976c-0.204,0.639 -0.416,1.302 -0.637,1.988c-0.221,0.686 -0.458,1.355 -0.71,2.005c-0.253,0.65 -0.515,1.294 -0.787,1.933c-0.271,0.638 -0.573,1.315 -0.905,2.029c-0.332,0.715 -0.705,1.438 -1.118,2.169c-0.413,0.731 -0.817,1.432 -1.213,2.101c-0.396,0.67 -0.797,1.324 -1.202,1.965c-0.405,0.64 -0.805,1.255 -1.2,1.843c-0.395,0.589 -0.79,1.167 -1.185,1.734c-0.395,0.567 -0.776,1.125 -1.143,1.674c-0.367,0.549 -0.688,1.034 -0.965,1.455c-0.277,0.421 -0.527,0.78 -0.75,1.077c-0.223,0.297 -0.509,0.611 -0.858,0.942c-0.349,0.331 -0.725,0.693 -1.129,1.085c-0.404,0.393 -0.862,0.826 -1.374,1.3c-0.512,0.474 -1.022,0.944 -1.53,1.411c-0.508,0.467 -0.992,0.909 -1.45,1.327c-0.458,0.418 -0.885,0.8 -1.281,1.146c-0.396,0.347 -0.796,0.683 -1.2,1.008c-0.404,0.325 -0.843,0.654 -1.317,0.987c-0.474,0.333 -0.982,0.667 -1.526,1.001c-0.544,0.334 -1.133,0.668 -1.767,1.003c-0.635,0.334 -1.315,0.654 -2.04,0.959c-0.726,0.305 -1.473,0.624 -2.243,0.957c-0.77,0.333 -1.486,0.657 -2.15,0.972c-0.664,0.315 -1.251,0.591 -1.763,0.827c-0.512,0.236 -0.967,0.447 -1.366,0.631c-0.398,0.185 -0.76,0.338 -1.086,0.461c-0.325,0.123 -0.651,0.245 -0.976,0.366c-0.325,0.122 -0.654,0.248 -0.987,0.378c-0.333,0.131 -0.662,0.268 -0.986,0.41c-0.324,0.143 -0.644,0.29 -0.959,0.441c-0.315,0.151 -0.643,0.297 -0.986,0.439c-0.342,0.142 -0.696,0.289 -1.06,0.441c-0.365,0.152 -0.753,0.313 -1.166,0.484c-0.413,0.171 -0.846,0.352 -1.3,0.543c-0.454,0.192 -0.947,0.403 -1.481,0.635c-0.533,0.232 -1.127,0.484 -1.781,0.756c-0.654,0.272 -1.354,0.555 -2.101,0.847c-0.747,0.293 -1.515,0.591 -2.304,0.894c-0.789,0.304 -1.559,0.579 -2.31,0.825c-0.752,0.246 -1.468,0.466 -2.149,0.66c-0.681,0.194 -1.327,0.362 -1.938,0.506c-0.611,0.144 -1.21,0.272 -1.796,0.383c-0.586,0.112 -1.222,0.233 -1.906,0.365c-0.684,0.132 -1.405,0.273 -2.164,0.424c-0.758,0.151 -1.508,0.278 -2.248,0.382c-0.74,0.103 -1.485,0.201 -2.233,0.292c-0.748,0.091 -1.502,0.168 -2.262,0.23c-0.759,0.062 -1.519,0.128 -2.278,0.199c-0.76,0.071 -1.509,0.118 -2.248,0.14c-0.739,0.023 -1.537,0.034 -2.392,0.034c-0.855,0 -1.787,0 -2.795,0c-1.008,0 -2.019,-0.043 -3.033,-0.129c-1.014,-0.086 -2.013,-0.224 -2.996,-0.414c-0.983,-0.19 -1.952,-0.425 -2.905,-0.705c-0.953,-0.28 -1.868,-0.587 -2.743,-0.92c-0.875,-0.333 -1.694,-0.681 -2.457,-1.044c-0.763,-0.362 -1.471,-0.731 -2.123,-1.107c-0.653,-0.376 -1.268,-0.755 -1.847,-1.139c-0.578,-0.384 -1.142,-0.768 -1.691,-1.153c-0.549,-0.385 -1.086,-0.804 -1.612,-1.256c-0.526,-0.452 -1.053,-0.955 -1.58,-1.509c-0.528,-0.554 -1.059,-1.129 -1.595,-1.725c-0.536,-0.597 -1.058,-1.189 -1.566,-1.777c-0.508,-0.588 -0.996,-1.2 -1.463,-1.835c-0.467,-0.635 -0.923,-1.32 -1.369,-2.054c-0.446,-0.735 -0.93,-1.507 -1.453,-2.315c-0.523,-0.809 -1.082,-1.643 -1.676,-2.501c-0.594,-0.859 -1.23,-1.781 -1.907,-2.768c-0.677,-0.987 -1.293,-2.03 -1.846,-3.129c-0.553,-1.1 -1.011,-2.284 -1.372,-3.552c-0.361,-1.268 -0.684,-2.615 -0.969,-4.042c-0.285,-1.426 -0.579,-2.8 -0.881,-4.122c-0.303,-1.322 -0.558,-2.567 -0.766,-3.734c-0.208,-1.167 -0.335,-2.41 -0.381,-3.729c-0.046,-1.319 -0.07,-2.706 -0.07,-4.162c0,-1.456 -0,-2.893 -0,-4.313c0,-1.42 0.005,-2.805 0.014,-4.154c0.009,-1.349 0.029,-2.635 0.059,-3.857c0.03,-1.222 0.07,-2.439 0.12,-3.653c0.05,-1.213 0.171,-2.441 0.365,-3.683c0.194,-1.243 0.52,-2.594 0.977,-4.053c0.458,-1.46 0.95,-2.955 1.478,-4.487c0.528,-1.532 0.967,-2.865 1.319,-3.998c0.352,-1.134 0.65,-2.012 0.892,-2.635c0.349,-0.896 1.498,-2.691 3.447,-5.385" style="fill:none;fill-rule:nonzero;stroke:#000;stroke-width:3.54px;"/><path d="M819.925,107.837c-0.156,-0.013 -0.466,-0.106 -0.93,-0.278c-0.283,-0.105 -0.441,-0.092 -0.476,0.037c-0.035,0.129 0.023,0.658 0.176,1.586c0.152,0.928 0.375,2.274 0.668,4.036c0.293,1.762 0.505,3.783 0.635,6.061c0.13,2.278 0.196,4.377 0.198,6.295c0.002,1.918 0.002,3.372 0.002,4.36c0,0.988 0.028,1.607 0.082,1.857l0.041,0.188l-0.123,-0.563" style="fill:none;fill-rule:nonzero;stroke:#348ad8;stroke-width:3.54px;"/><path d="M837.698,103.205c0.133,-0.384 0.199,-0.565 0.199,-0.541c0,0.017 -0,0.059 -0.001,0.127c-0,0.068 -0.276,1.053 -0.826,2.957c-0.55,1.904 -1.043,4.327 -1.479,7.268c-0.436,2.942 -0.695,6.021 -0.778,9.238c-0.082,3.217 -0.043,5.933 0.12,8.148c0.162,2.215 0.399,3.732 0.712,4.551c0.313,0.819 0.577,1.235 0.794,1.246c0.217,0.011 0.232,-0.027 0.043,-0.115c-0.265,-0.123 -0.229,-0.464 0.109,-1.022" style="fill:none;fill-rule:nonzero;stroke:#348ad8;stroke-width:3.54px;"/><path d="M819.924,119.338c-0.069,0.161 0.618,0.244 2.063,0.247c2.123,0.005 4.761,-0.351 7.916,-1.068" style="fill:none;fill-rule:nonzero;stroke:#348ad8;stroke-width:3.54px;"/><path d="M801.786,97.19c0.008,-0.393 0.097,-0.84 0.266,-1.34c0.17,-0.5 0.39,-0.917 0.663,-1.251c0.272,-0.334 0.569,-0.664 0.891,-0.989c0.322,-0.325 0.636,-0.611 0.942,-0.857c0.306,-0.246 0.552,-0.418 0.739,-0.516c0.187,-0.098 0.303,-0.124 0.349,-0.08c0.046,0.044 0.069,0.334 0.069,0.871c0,0.536 0,1.188 0,1.954l0,2.19c0,1.041 -0.031,2.08 -0.092,3.116" style="fill:none;fill-rule:nonzero;stroke:#348ad8;stroke-width:3.54px;"/><path d="M800.511,105.029c-0.144,-0 -0.466,-0.001 -0.966,-0.001c-0.3,0 -0.229,-0.033 0.213,-0.098c0.442,-0.065 1.319,-0.223 2.631,-0.473c1.938,-0.368 4.254,-0.64 6.948,-0.816" style="fill:none;fill-rule:nonzero;stroke:#348ad8;stroke-width:3.54px;"/><path d="M877.891,198.814c0.323,0.174 0.716,0.333 1.179,0.477c0.463,0.143 0.891,0.221 1.284,0.234c0.393,0.013 0.864,0.019 1.413,0.019l27.098,0c2.7,0 5.16,0.058 7.382,0.173c2.222,0.115 4.462,0.221 6.721,0.317c2.259,0.096 4.738,0.145 7.438,0.147c2.699,0.001 5.275,0.002 7.726,0.002l6.468,0c1.861,0 3.628,0.053 5.302,0.159c1.674,0.106 3.342,0.206 5.005,0.3c1.663,0.094 3.128,0.162 4.395,0.204c1.267,0.042 2.162,0.073 2.683,0.093c0.521,0.02 0.93,0.036 1.225,0.047c0.295,0.011 0.614,0.017 0.956,0.017c0.342,0 0.696,0.005 1.061,0.014c0.366,0.009 0.673,0.048 0.921,0.116c0.249,0.069 0.421,0.168 0.516,0.297c0.096,0.129 0.113,0.337 0.052,0.622c-0.061,0.285 -0.471,0.735 -1.23,1.351c-0.759,0.615 -1.781,1.322 -3.067,2.119c-1.286,0.797 -2.463,1.548 -3.532,2.252c-1.068,0.704 -1.856,1.241 -2.364,1.611c-0.508,0.37 -0.788,0.566 -0.843,0.589c-0.054,0.022 -0.028,-0.02 0.08,-0.127c0.108,-0.107 0.377,-0.374 0.808,-0.802c0.431,-0.428 1.22,-1.035 2.369,-1.822c1.148,-0.787 2.356,-1.514 3.623,-2.179c1.268,-0.666 2.385,-1.234 3.352,-1.706c0.967,-0.472 1.655,-0.963 2.062,-1.473c0.407,-0.51 0.469,-1.174 0.186,-1.991c-0.283,-0.817 -1.119,-1.794 -2.509,-2.931c-1.389,-1.137 -2.993,-2.231 -4.813,-3.281c-2.989,-1.726 -5.005,-2.668 -6.05,-2.828" style="fill:none;fill-rule:nonzero;stroke:#000;stroke-width:3.54px;"/><path d="M1055.346,198.358c0.405,-0.022 0.883,-0.139 1.434,-0.351c0.552,-0.212 0.988,-0.522 1.308,-0.929c0.32,-0.408 0.535,-0.869 0.644,-1.384c0.109,-0.515 0.095,-0.974 -0.044,-1.376c-0.139,-0.403 -0.573,-0.65 -1.302,-0.743c-0.729,-0.093 -1.596,0.046 -2.602,0.417c-1.005,0.37 -1.988,1.111 -2.948,2.223c-0.96,1.112 -1.607,2.34 -1.939,3.684c-0.333,1.344 0.021,2.508 1.061,3.493c1.04,0.985 2.61,1.549 4.709,1.693c2.099,0.144 3.916,-0.144 5.45,-0.862c1.535,-0.719 2.504,-1.67 2.908,-2.854c0.405,-1.185 0.371,-2.435 -0.101,-3.75c-0.472,-1.316 -1.446,-2.369 -2.922,-3.159c-1.476,-0.79 -3.172,-1.103 -5.09,-0.939c-1.917,0.164 -3.557,0.965 -4.919,2.403c-1.362,1.438 -2.074,2.894 -2.135,4.368c-0.061,1.473 0.603,2.522 1.994,3.145c1.391,0.623 2.828,0.919 4.313,0.888c1.485,-0.031 2.568,-0.408 3.249,-1.132c0.682,-0.723 0.975,-1.5 0.88,-2.329c-0.094,-0.829 -0.672,-1.349 -1.732,-1.561c-1.06,-0.212 -1.755,-0.05 -2.086,0.483c-0.331,0.534 -0.25,0.846 0.243,0.938" style="fill:none;fill-rule:nonzero;stroke:#348ad8;stroke-width:7.09px;"/><path d="M1077.073,154.879c-0.053,-0.462 0.024,-0.635 0.23,-0.517c0.149,0.085 0.258,0.827 0.326,2.226c0.069,1.4 0.109,3.091 0.12,5.074c0.011,1.984 -0.026,4.2 -0.112,6.649c-0.086,2.449 -0.162,4.729 -0.227,6.841c-0.066,2.112 0.039,3.651 0.315,4.619c0.276,0.968 0.508,1.495 0.694,1.581c0.264,0.123 0.881,-1.148 1.851,-3.813" style="fill:none;fill-rule:nonzero;stroke:#348ad8;stroke-width:3.54px;"/><path d="M1096.36,149.962c-0.302,0.043 -0.56,0.506 -0.772,1.389c-0.212,0.883 -0.319,2.429 -0.32,4.638c-0.001,2.209 0.012,4.725 0.04,7.546c0.028,2.821 0.097,5.315 0.208,7.483c0.11,2.168 0.172,4.001 0.185,5.499c0.014,1.498 -0.007,2.61 -0.062,3.334l-0.041,0.543l0.123,-1.629" style="fill:none;fill-rule:nonzero;stroke:#348ad8;stroke-width:3.54px;"/><path d="M1077.858,168.828c0.255,-0.127 0.834,-0.336 1.737,-0.627c0.904,-0.291 2.259,-0.563 4.068,-0.818c2.69,-0.378 5.622,-0.636 8.796,-0.774" style="fill:none;fill-rule:nonzero;stroke:#348ad8;stroke-width:3.54px;"/><path d="M1059.903,145.313c0.143,-0.04 0.527,-0.302 1.152,-0.785c0.625,-0.483 1.081,-0.892 1.368,-1.229c0.287,-0.336 0.528,-0.628 0.723,-0.874c0.195,-0.246 0.369,-0.404 0.523,-0.473c0.154,-0.068 0.249,-0.023 0.283,0.136c0.035,0.159 0.043,0.585 0.025,1.278c-0.018,0.693 -0.106,1.477 -0.263,2.353c-0.158,0.876 -0.313,1.751 -0.467,2.624c-0.154,0.873 -0.263,1.683 -0.327,2.428c-0.064,0.746 -0.097,1.348 -0.098,1.805c-0.001,0.458 -0.002,0.791 -0.002,1.001l0,0.389c0,0.05 -0.019,0.02 -0.058,-0.09c-0.055,-0.158 -0.23,-0.452 -0.523,-0.88" style="fill:none;fill-rule:nonzero;stroke:#348ad8;stroke-width:3.54px;"/><path d="M1058.9,155.43c0.231,-0.243 0.673,-0.475 1.325,-0.694c0.652,-0.219 1.349,-0.341 2.091,-0.364c1.093,-0.035 2.4,0.104 3.921,0.417" style="fill:none;fill-rule:nonzero;stroke:#348ad8;stroke-width:3.54px;"/><path d="M884.362,218.683c0,-0.56 0.132,-1.129 0.395,-1.705c0.264,-0.577 0.997,-0.923 2.199,-1.038c1.202,-0.115 2.553,0.028 4.052,0.428c1.499,0.4 2.733,1.088 3.702,2.064c0.969,0.976 1.531,2.174 1.685,3.593c0.154,1.419 -0.226,3.117 -1.14,5.094c-0.914,1.977 -1.847,4.001 -2.798,6.072c-0.951,2.072 -1.421,3.765 -1.41,5.079c0.011,1.314 0.676,2.11 1.997,2.386c1.915,0.401 4.057,-0.343 6.427,-2.23" style="fill:none;fill-rule:nonzero;stroke:#000;stroke-width:3.54px;"/><path d="M887.916,231.899c0.252,0 3.324,-0.23 9.218,-0.69" style="fill:none;fill-rule:nonzero;stroke:#000;stroke-width:3.54px;"/><path d="M910.52,229.894c-0.07,-0.3 -0.3,-0.61 -0.691,-0.931c-0.391,-0.321 -0.932,-0.414 -1.624,-0.28c-0.692,0.134 -1.341,0.658 -1.948,1.57c-0.607,0.913 -0.952,1.98 -1.035,3.203c-0.083,1.223 0.329,2.26 1.235,3.111c0.907,0.851 2.29,1.314 4.15,1.387c1.86,0.074 3.584,-0.415 5.171,-1.467c1.588,-1.052 2.538,-2.384 2.851,-3.998c0.313,-1.613 0.006,-2.896 -0.92,-3.847c-0.926,-0.952 -1.501,-1.278 -1.725,-0.978" style="fill:none;fill-rule:nonzero;stroke:#000;stroke-width:3.54px;"/><path d="M929.113,230.441c-0.276,-0.325 -0.671,-0.651 -1.185,-0.979c-0.513,-0.328 -1.017,-0.52 -1.51,-0.575c-0.493,-0.055 -1.114,0.111 -1.862,0.5c-0.748,0.388 -1.478,1.164 -2.188,2.326c-0.71,1.163 -1.014,2.341 -0.913,3.535c0.102,1.194 0.895,2.049 2.38,2.565c1.485,0.516 2.971,0.643 4.458,0.379c1.487,-0.264 2.551,-0.969 3.192,-2.115c0.641,-1.146 0.97,-2.504 0.985,-4.074c0.015,-1.57 -0.086,-2.933 -0.303,-4.088c-0.218,-1.155 -0.291,-1.8 -0.22,-1.934c0.071,-0.134 0.616,0.134 1.635,0.805c1.019,0.671 2.163,1.524 3.432,2.558c1.269,1.034 2.289,2.123 3.061,3.267c0.772,1.144 1.278,2.164 1.518,3.062c0.24,0.897 0.362,1.478 0.366,1.743l0.007,0.278l0.002,-0.051c0.002,-0.114 0.006,-0.398 0.014,-0.852c0.007,-0.455 0.102,-1.36 0.285,-2.718c0.183,-1.357 0.541,-2.759 1.075,-4.205c0.534,-1.447 1.126,-2.477 1.775,-3.091c0.649,-0.614 1.186,-0.583 1.611,0.093c0.425,0.676 0.852,1.695 1.282,3.059c0.43,1.364 0.946,2.405 1.549,3.125c0.603,0.72 1.285,1.058 2.047,1.015c0.762,-0.043 1.635,-0.546 2.62,-1.509c0.984,-0.963 1.971,-1.855 2.959,-2.675c0.988,-0.82 1.78,-1.185 2.375,-1.094c0.595,0.091 0.983,0.91 1.165,2.458c0.182,1.548 0.44,3.406 0.773,5.576c0.533,3.47 0.739,5.938 0.617,7.405" style="fill:none;fill-rule:nonzero;stroke:#000;stroke-width:3.54px;"/><path d="M906.443,262.305c0.088,-0.166 -0.007,-0.52 -0.287,-1.064c-0.178,-0.347 -0.42,-0.592 -0.724,-0.736c-0.304,-0.144 -0.851,-0.253 -1.639,-0.327c-0.788,-0.074 -1.896,0.207 -3.323,0.843c-1.427,0.636 -2.688,1.797 -3.783,3.481c-1.095,1.684 -1.506,3.31 -1.232,4.88c0.273,1.569 1.323,2.561 3.147,2.974c1.825,0.414 3.477,0.212 4.956,-0.605c1.479,-0.817 2.415,-2.001 2.808,-3.554c0.393,-1.553 0.39,-3.041 -0.008,-4.466c-0.398,-1.424 -0.825,-2.384 -1.28,-2.879c-0.455,-0.495 -0.885,-0.599 -1.29,-0.313" style="fill:none;fill-rule:nonzero;stroke:#000;stroke-width:3.54px;"/><path d="M911.249,264.528c0,0.405 0.066,0.968 0.199,1.691c0.132,0.723 0.493,1.488 1.083,2.296c0.59,0.807 1.417,1.448 2.483,1.924c1.066,0.475 2.228,0.583 3.485,0.322c1.258,-0.261 2.283,-1.01 3.073,-2.249c0.791,-1.239 1.351,-2.399 1.679,-3.481c0.329,-1.082 0.507,-1.723 0.535,-1.922c0.028,-0.199 0.064,0.192 0.11,1.171c0.046,0.98 0.436,2.11 1.172,3.39c0.736,1.28 1.847,2.308 3.335,3.082c2.197,1.144 4.303,1.291 6.317,0.441" style="fill:none;fill-rule:nonzero;stroke:#000;stroke-width:3.54px;"/><path d="M939.321,249.398c0,0.53 0.108,2.29 0.324,5.28c0.216,2.991 0.746,6.308 1.59,9.954c0.844,3.645 1.588,6.251 2.233,7.818c0.645,1.568 1.026,2.415 1.143,2.545c0.163,0.18 -0.095,-0.286 -0.774,-1.4" style="fill:none;fill-rule:nonzero;stroke:#000;stroke-width:3.54px;"/><path d="M938.501,263.89c0.485,-0.056 1.468,-0.155 2.949,-0.295c2.158,-0.205 5.399,-0.202 9.722,0.007" style="fill:none;fill-rule:nonzero;stroke:#000;stroke-width:3.54px;"/><path d="M969.945,274.373c-0,-0.482 -0,-0.897 -0,-1.245c0,-0.331 0.403,-0.308 1.207,0.068" style="fill:none;fill-rule:nonzero;stroke:#000;stroke-width:3.54px;"/><path d="M736.255,92.815c-0.272,-0.312 -0.607,-0.605 -1.005,-0.88c-0.399,-0.275 -0.808,-0.434 -1.228,-0.478c-0.42,-0.044 -0.916,-0.072 -1.489,-0.083c-0.573,-0.011 -1.206,-0.017 -1.899,-0.017c-0.693,0 -1.473,0.029 -2.338,0.086c-0.865,0.058 -1.797,0.132 -2.795,0.223c-0.998,0.091 -1.999,0.178 -3.004,0.26c-1.005,0.082 -1.978,0.139 -2.922,0.171c-0.943,0.031 -1.885,0.072 -2.826,0.122c-0.941,0.05 -1.95,0.1 -3.028,0.15c-1.078,0.05 -2.198,0.121 -3.362,0.211c-1.163,0.09 -2.308,0.185 -3.433,0.285c-1.125,0.1 -2.202,0.235 -3.23,0.405c-1.028,0.17 -2.019,0.36 -2.972,0.57c-0.953,0.21 -1.915,0.447 -2.887,0.71c-0.971,0.263 -1.943,0.521 -2.915,0.773c-0.972,0.252 -1.944,0.496 -2.917,0.731c-0.972,0.235 -1.949,0.464 -2.93,0.687c-0.981,0.223 -1.983,0.455 -3.004,0.696c-1.022,0.241 -2.006,0.513 -2.953,0.815c-0.947,0.303 -1.813,0.606 -2.599,0.91c-0.785,0.304 -1.567,0.607 -2.343,0.91c-0.777,0.303 -1.58,0.621 -2.41,0.955c-0.83,0.334 -1.664,0.654 -2.503,0.96c-0.839,0.306 -1.703,0.605 -2.594,0.898c-0.891,0.293 -1.786,0.605 -2.687,0.939c-0.9,0.333 -1.783,0.681 -2.646,1.043c-0.864,0.362 -1.682,0.75 -2.454,1.163c-0.772,0.413 -1.547,0.919 -2.325,1.518c-0.778,0.599 -1.611,1.31 -2.5,2.135c-0.889,0.824 -1.74,1.624 -2.555,2.399c-0.815,0.775 -1.539,1.449 -2.173,2.023c-0.634,0.574 -1.254,1.11 -1.862,1.606c-0.608,0.497 -1.201,1.032 -1.78,1.606c-0.579,0.574 -1.128,1.208 -1.646,1.902c-0.518,0.694 -1.035,1.411 -1.553,2.15c-0.518,0.739 -1.005,1.43 -1.462,2.074c-0.457,0.643 -0.894,1.215 -1.312,1.715c-0.417,0.5 -0.843,0.974 -1.276,1.421c-0.433,0.448 -0.863,0.879 -1.29,1.295c-0.426,0.415 -0.852,0.845 -1.277,1.29c-0.425,0.444 -0.837,0.914 -1.234,1.408c-0.397,0.494 -0.788,1.023 -1.172,1.588c-0.384,0.565 -0.792,1.155 -1.226,1.771c-0.433,0.615 -0.858,1.242 -1.276,1.88c-0.417,0.638 -0.828,1.285 -1.234,1.943c-0.405,0.657 -0.791,1.334 -1.156,2.032c-0.366,0.698 -0.75,1.41 -1.153,2.137c-0.403,0.727 -0.836,1.485 -1.3,2.274c-0.463,0.789 -0.938,1.582 -1.424,2.381c-0.486,0.799 -0.953,1.595 -1.401,2.386c-0.448,0.792 -0.87,1.548 -1.266,2.268c-0.396,0.72 -0.797,1.431 -1.202,2.132c-0.405,0.701 -0.805,1.361 -1.2,1.982c-0.395,0.62 -0.79,1.277 -1.185,1.972c-0.395,0.695 -0.752,1.392 -1.07,2.091c-0.318,0.7 -0.61,1.428 -0.874,2.184c-0.265,0.756 -0.513,1.582 -0.746,2.476c-0.233,0.895 -0.495,1.881 -0.787,2.959c-0.292,1.078 -0.599,2.241 -0.922,3.49c-0.323,1.249 -0.627,2.502 -0.913,3.76c-0.286,1.258 -0.561,2.52 -0.825,3.785c-0.264,1.266 -0.461,2.483 -0.589,3.652c-0.128,1.169 -0.213,2.296 -0.255,3.382c-0.042,1.086 -0.063,2.189 -0.065,3.309c-0.001,1.12 -0.002,2.277 -0.002,3.47l0,7.216c0,1.165 0.043,2.307 0.129,3.425c0.086,1.118 0.215,2.213 0.386,3.286c0.172,1.073 0.329,2.195 0.471,3.366c0.142,1.171 0.294,2.354 0.456,3.548c0.162,1.194 0.333,2.375 0.513,3.542c0.18,1.168 0.377,2.265 0.589,3.293c0.213,1.028 0.416,2.034 0.609,3.018c0.194,0.984 0.386,1.966 0.578,2.945c0.191,0.98 0.398,2.038 0.621,3.176c0.223,1.138 0.44,2.334 0.653,3.589c0.213,1.255 0.445,2.466 0.696,3.633c0.251,1.167 0.518,2.251 0.8,3.252c0.282,1.001 0.604,1.948 0.965,2.841c0.361,0.893 0.773,1.779 1.235,2.659c0.462,0.88 0.97,1.776 1.524,2.689c0.554,0.912 1.114,1.832 1.681,2.76c0.567,0.928 1.13,1.941 1.688,3.04c0.558,1.099 1.101,2.221 1.629,3.365c0.528,1.144 1.055,2.216 1.582,3.215c0.527,0.999 1.029,1.931 1.507,2.797c0.478,0.865 0.94,1.683 1.386,2.454c0.446,0.771 0.891,1.566 1.337,2.385c0.445,0.819 0.911,1.639 1.396,2.46c0.485,0.821 0.965,1.603 1.442,2.344c0.476,0.742 0.962,1.473 1.458,2.193c0.496,0.72 1.016,1.443 1.56,2.168c0.544,0.727 1.104,1.505 1.681,2.334c0.577,0.827 1.135,1.652 1.674,2.473c0.539,0.82 1.09,1.589 1.654,2.305c0.564,0.714 1.179,1.382 1.843,2.002c0.665,0.618 1.352,1.207 2.06,1.766c0.709,0.559 1.413,1.141 2.113,1.745c0.7,0.605 1.364,1.198 1.994,1.777c0.629,0.582 1.262,1.136 1.899,1.664c0.637,0.53 1.333,0.993 2.088,1.393c0.755,0.4 1.523,0.766 2.303,1.1c0.781,0.336 1.532,0.718 2.255,1.152c0.722,0.432 1.408,0.857 2.056,1.273c0.648,0.414 1.321,0.841 2.019,1.275c0.698,0.436 1.396,0.839 2.095,1.205c0.699,0.368 1.388,0.709 2.066,1.023c0.679,0.316 1.377,0.65 2.095,1.005c0.718,0.352 1.47,0.659 2.257,0.916c0.787,0.259 1.623,0.48 2.51,0.664c0.887,0.182 1.821,0.35 2.801,0.505c0.981,0.152 1.943,0.305 2.887,0.457c0.944,0.152 1.852,0.305 2.725,0.457c0.872,0.15 1.773,0.284 2.701,0.398c0.928,0.116 1.932,0.184 3.01,0.205c1.078,0.023 2.184,0.073 3.318,0.152c1.134,0.077 2.288,0.173 3.46,0.282c1.173,0.111 2.351,0.218 3.536,0.32c1.185,0.102 2.36,0.18 3.524,0.232c1.165,0.052 2.383,0.084 3.655,0.095c1.271,0.011 2.537,0.018 3.795,0.018l3.711,0c1.215,0 2.431,-0.073 3.646,-0.216c1.215,-0.143 2.45,-0.393 3.703,-0.75c1.254,-0.359 2.504,-0.759 3.752,-1.205c1.248,-0.445 2.408,-0.823 3.48,-1.134c1.072,-0.311 1.998,-0.564 2.778,-0.757c0.78,-0.195 1.562,-0.398 2.345,-0.609c0.784,-0.211 1.693,-0.495 2.727,-0.852c1.034,-0.359 2.119,-0.745 3.253,-1.161c1.135,-0.416 2.197,-0.807 3.186,-1.175c0.989,-0.366 1.948,-0.72 2.878,-1.064c0.93,-0.345 1.871,-0.698 2.824,-1.064c0.953,-0.364 1.876,-0.709 2.77,-1.034c0.893,-0.327 1.805,-0.648 2.734,-0.959c0.93,-0.314 1.894,-0.652 2.893,-1.016c0.999,-0.364 2.015,-0.75 3.048,-1.164c1.033,-0.414 2.033,-0.818 2.999,-1.214c0.966,-0.395 1.885,-0.782 2.758,-1.159c0.872,-0.375 1.773,-0.764 2.703,-1.168c0.93,-0.402 1.875,-0.807 2.837,-1.211c0.962,-0.407 1.861,-0.798 2.697,-1.175c0.836,-0.375 1.62,-0.759 2.351,-1.152c0.732,-0.393 1.476,-0.825 2.235,-1.3c0.759,-0.473 1.532,-0.961 2.321,-1.468c0.789,-0.505 1.564,-1.011 2.324,-1.516c0.761,-0.507 1.521,-1.023 2.28,-1.55c0.76,-0.527 1.5,-1.068 2.221,-1.623c0.721,-0.555 1.422,-1.111 2.101,-1.668c0.68,-0.559 1.325,-1.107 1.936,-1.645c0.611,-0.536 1.205,-1.068 1.782,-1.594c0.577,-0.526 1.183,-1.076 1.818,-1.651c0.635,-0.575 1.281,-1.19 1.94,-1.846c0.658,-0.656 1.327,-1.347 2.005,-2.073c0.678,-0.726 1.366,-1.488 2.064,-2.285c0.698,-0.798 1.371,-1.589 2.019,-2.372c0.649,-0.784 1.245,-1.531 1.789,-2.241c0.544,-0.71 1.064,-1.424 1.559,-2.139c0.495,-0.716 1.03,-1.497 1.605,-2.343c0.575,-0.846 1.113,-1.69 1.613,-2.533c0.5,-0.843 0.949,-1.669 1.347,-2.479c0.398,-0.811 0.817,-1.654 1.26,-2.531c0.442,-0.877 0.931,-1.81 1.467,-2.8c0.535,-0.99 1.033,-1.982 1.492,-2.975c0.459,-0.993 0.887,-1.962 1.283,-2.906c0.396,-0.944 0.778,-1.848 1.144,-2.711c0.367,-0.863 0.708,-1.687 1.023,-2.471c0.315,-0.784 0.595,-1.522 0.841,-2.213c0.245,-0.691 0.48,-1.361 0.704,-2.009c0.224,-0.648 0.447,-1.312 0.67,-1.99c0.223,-0.678 0.426,-1.337 0.611,-1.976c0.184,-0.639 0.338,-1.297 0.461,-1.973c0.123,-0.676 0.245,-1.407 0.367,-2.193c0.122,-0.785 0.258,-1.612 0.409,-2.479c0.151,-0.868 0.293,-1.757 0.425,-2.668c0.133,-0.911 0.245,-1.837 0.338,-2.778c0.092,-0.941 0.199,-1.906 0.319,-2.896c0.12,-0.99 0.227,-1.977 0.319,-2.96c0.092,-0.983 0.175,-1.961 0.247,-2.933c0.072,-0.972 0.129,-1.94 0.17,-2.902c0.042,-0.962 0.068,-1.934 0.079,-2.917c0.011,-0.982 0.017,-1.94 0.017,-2.874c0,-0.934 -0.019,-1.846 -0.058,-2.738c-0.038,-0.891 -0.097,-1.812 -0.177,-2.762c-0.08,-0.95 -0.17,-1.921 -0.27,-2.913c-0.1,-0.992 -0.245,-1.96 -0.434,-2.904c-0.189,-0.944 -0.404,-1.838 -0.646,-2.682c-0.242,-0.844 -0.489,-1.68 -0.741,-2.51c-0.252,-0.83 -0.525,-1.684 -0.817,-2.563c-0.293,-0.879 -0.591,-1.798 -0.894,-2.758c-0.304,-0.96 -0.627,-1.921 -0.969,-2.883c-0.342,-0.962 -0.676,-1.939 -1.003,-2.93c-0.326,-0.991 -0.665,-1.993 -1.016,-3.006c-0.351,-1.013 -0.758,-2.025 -1.22,-3.038c-0.462,-1.013 -0.965,-2.02 -1.509,-3.023c-0.544,-1.003 -1.08,-1.996 -1.608,-2.979c-0.529,-0.983 -1.099,-1.942 -1.711,-2.876c-0.613,-0.934 -1.253,-1.799 -1.922,-2.595c-0.669,-0.797 -1.261,-1.531 -1.775,-2.203c-0.514,-0.672 -0.931,-1.341 -1.251,-2.008c-0.32,-0.666 -0.63,-1.397 -0.931,-2.191c-0.301,-0.795 -0.696,-1.627 -1.185,-2.496c-0.489,-0.87 -1.013,-1.731 -1.569,-2.584c-0.557,-0.853 -1.109,-1.694 -1.655,-2.523c-0.547,-0.83 -1.108,-1.67 -1.685,-2.52c-0.576,-0.85 -1.148,-1.677 -1.715,-2.479c-0.567,-0.802 -1.154,-1.627 -1.76,-2.475c-0.606,-0.848 -1.232,-1.736 -1.877,-2.665c-0.645,-0.929 -1.356,-1.846 -2.132,-2.751c-0.776,-0.904 -1.559,-1.758 -2.349,-2.56c-0.79,-0.803 -1.565,-1.574 -2.326,-2.316c-0.761,-0.741 -1.511,-1.482 -2.252,-2.221c-0.74,-0.739 -1.456,-1.459 -2.147,-2.159c-0.691,-0.7 -1.356,-1.371 -1.997,-2.012c-0.64,-0.641 -1.235,-1.233 -1.786,-1.774c-0.55,-0.541 -1.088,-1.007 -1.614,-1.398c-0.526,-0.39 -1.067,-0.748 -1.624,-1.072c-0.557,-0.324 -1.099,-0.663 -1.627,-1.016c-0.528,-0.353 -1.035,-0.727 -1.523,-1.119c-0.487,-0.393 -0.984,-0.816 -1.489,-1.271c-0.505,-0.454 -1.045,-0.91 -1.617,-1.365c-0.573,-0.455 -1.241,-0.892 -2.004,-1.309c-0.763,-0.418 -1.583,-0.81 -2.462,-1.176c-0.879,-0.367 -1.725,-0.674 -2.54,-0.922c-0.814,-0.248 -1.548,-0.497 -2.202,-0.748c-0.654,-0.251 -1.27,-0.513 -1.849,-0.787c-0.578,-0.273 -1.175,-0.561 -1.791,-0.864c-0.615,-0.303 -1.238,-0.601 -1.866,-0.896c-0.629,-0.295 -1.247,-0.564 -1.855,-0.809c-0.608,-0.244 -1.182,-0.464 -1.722,-0.658c-0.54,-0.195 -1.078,-0.383 -1.614,-0.565c-0.536,-0.182 -1.077,-0.374 -1.624,-0.576c-0.547,-0.201 -1.103,-0.423 -1.669,-0.665c-0.566,-0.242 -1.157,-0.475 -1.772,-0.699c-0.616,-0.224 -1.252,-0.428 -1.909,-0.611c-0.657,-0.183 -1.315,-0.338 -1.975,-0.462c-0.659,-0.125 -1.293,-0.204 -1.902,-0.238c-0.609,-0.034 -1.226,-0.051 -1.852,-0.051c-0.626,-0 -1.302,-0 -2.03,-0c-0.728,0 -1.462,0.015 -2.203,0.045l-0.556,0.023l1.667,-0.068" style="fill:none;fill-rule:nonzero;stroke:#348ad8;stroke-width:3.54px;"/><g transform="matrix(1,0,0,0.151267,0,-299.219689)"><g transform="matrix(24.192191,0,0,24.192191,191.40323,3101.991578)"></g><text x="183.347px" y="3101.992px" style="font-family:'Helvetica';font-size:24.192px;fill:none;">-</text></g><g transform="matrix(1,0,0,1,267.3544,-425.598942)"><g transform="matrix(1.954207,0,0,1,-123.65144,0)"><text x="129.586px" y="601.239px" style="font-family:'Helvetica';font-size:13.591px;fill:none;">C</text></g><g transform="matrix(3.527679,0,0,1,-375.222321,0)"><g transform="matrix(247.506616,0,0,247.506616,329.90312,674.396314)"></g><text x="192.252px" y="674.396px" style="font-family:'Helvetica';font-size:247.507px;fill:none;"><tspan x="192.252px " y="674.396px ">#</tspan></text></g></g><g transform="matrix(1,0,0,1,-23.195817,-331.952748)"><g transform="matrix(1.263188,0,0,1,-18.560541,0)"><text x="70.522px" y="538.999px" style="font-family:'AppleSDGothicNeo-Regular', 'Apple SD Gothic Neo';font-size:16.573px;fill:none;"></text></g><g transform="matrix(2.429663,0,0,1,-54.088307,0)"><text x="37.833px" y="577.109px" style="font-family:'AppleSDGothicNeo-Regular', 'Apple SD Gothic Neo';font-size:93.929px;fill:none;"></text></g><g transform="matrix(12.329536,0,0,1,-4819.993527,0)"><text x="425.436px" y="538.288px" style="font-family:'Helvetica';font-size:15.655px;fill:none;">-</text></g><g transform="matrix(3.921012,0,0,1,-1900.352006,0)"><g transform="matrix(15.817961,0,0,15.817961,654.974756,539.176948)"></g><text x="650.58px" y="539.177px" style="font-family:'Helvetica';font-size:15.818px;fill:none;">.</text></g></g><g transform="matrix(1,0,0,1,0.608587,-308.643615)"><g transform="matrix(2.528113,0,0,1,-69.300058,0)"><text x="45.35px" y="543.798px" style="font-family:'Helvetica';font-size:13.943px;fill:none;">a</text></g><g transform="matrix(0.778044,0,0,1,39.536474,0)"><g transform="matrix(111.794326,0,0,111.794326,400.96846,555.002358)"></g><text x="178.127px" y="555.002px" style="font-family:'Helvetica';font-size:111.794px;fill:none;">Z<tspan x="246.042px 307.843px " y="555.002px 555.002px ">om</tspan></text></g></g></svg>