<?xml version="1.0" encoding="UTF-8" standalone="no"?><!DOCTYPE svg PUBLIC "-//W3C//DTD SVG 1.1//EN" "http://www.w3.org/Graphics/SVG/1.1/DTD/svg11.dtd"><svg width="100%" height="100%" viewBox="0 0 906 297" version="1.1" xmlns="http://www.w3.org/2000/svg" xmlns:xlink="http://www.w3.org/1999/xlink" xml:space="preserve" xmlns:serif="http://www.serif.com/" style="fill-rule:evenodd;clip-rule:evenodd;stroke-linecap:round;stroke-linejoin:round;stroke-miterlimit:10;"><rect id="Artboard6" x="0" y="0" width="906" height="297" style="fill:none;"/><g id="Artboard61" serif:id="Artboard6"><rect x="0" y="0" width="906" height="297" style="fill:#fff;"/><path d="M76.618,115.854c-0.051,-0.379 -0.29,-0.671 -0.715,-0.875c-0.426,-0.204 -0.895,-0.322 -1.408,-0.353c-0.513,-0.031 -1.051,-0.046 -1.614,-0.047c-0.563,-0.001 -1.177,0.136 -1.843,0.412c-0.666,0.275 -1.281,0.915 -1.845,1.92c-0.564,1.005 -0.921,2.257 -1.069,3.756c-0.149,1.499 0.054,2.822 0.609,3.97c0.554,1.148 1.422,1.874 2.602,2.178c1.18,0.304 2.357,0.14 3.53,-0.49c1.173,-0.63 2.075,-1.538 2.706,-2.723c0.631,-1.185 0.967,-2.429 1.009,-3.733c0.042,-1.304 -0.336,-2.581 -1.133,-3.832c-0.797,-1.251 -1.752,-2.253 -2.866,-3.006c-1.114,-0.753 -2.169,-1.148 -3.166,-1.185c-0.997,-0.037 -1.895,0.483 -2.694,1.559c-0.799,1.076 -1.399,2.501 -1.802,4.275c-0.402,1.774 -0.511,3.327 -0.326,4.659c0.185,1.332 0.922,2.145 2.211,2.437c1.289,0.293 2.661,0.073 4.118,-0.658c1.457,-0.731 2.541,-1.731 3.253,-2.999c0.712,-1.268 0.958,-2.482 0.74,-3.643c-0.219,-1.16 -0.996,-1.842 -2.331,-2.045c-1.336,-0.203 -2.618,0.279 -3.846,1.444c-1.228,1.166 -2,2.69 -2.314,4.575c-0.314,1.884 0.112,3.381 1.277,4.49c1.166,1.11 2.569,1.485 4.209,1.125c1.64,-0.36 2.799,-1.32 3.479,-2.879c0.679,-1.559 0.803,-3.144 0.372,-4.755c-0.431,-1.612 -1.145,-2.58 -2.14,-2.904c-1.388,-0.453 -2.07,0.313 -2.045,2.297" style="fill:none;fill-rule:nonzero;stroke:#000;stroke-width:7.09px;"/><path d="M70.147,250.381l0,-1.426c0,-0.535 0.039,-0.996 0.116,-1.385c0.078,-0.389 0.123,-0.722 0.137,-0.999c0.013,-0.277 -0.194,-0.442 -0.623,-0.494c-0.429,-0.052 -1.182,0.315 -2.259,1.103c-1.077,0.788 -2.114,2.075 -3.11,3.861c-0.997,1.786 -1.565,3.529 -1.703,5.226c-0.139,1.698 0.399,2.888 1.614,3.57c1.215,0.683 2.63,0.772 4.245,0.269c1.615,-0.503 2.86,-1.399 3.735,-2.687c0.875,-1.288 1.368,-2.584 1.481,-3.888c0.112,-1.304 -0.024,-2.285 -0.408,-2.942c-0.384,-0.657 -0.974,-0.935 -1.77,-0.835c-0.796,0.1 -1.562,0.695 -2.298,1.783c-0.737,1.088 -1.2,2.173 -1.389,3.253c-0.189,1.08 0.064,1.852 0.76,2.315c0.696,0.463 1.734,0.446 3.114,-0.051c1.381,-0.497 2.423,-1.341 3.128,-2.532c0.704,-1.191 0.895,-2.249 0.57,-3.173c-0.324,-0.925 -1.21,-1.294 -2.658,-1.108c-1.448,0.186 -2.724,0.981 -3.828,2.385c-1.104,1.404 -1.648,2.764 -1.631,4.08c0.017,1.316 0.664,2.046 1.94,2.189c1.276,0.143 2.503,-0.408 3.683,-1.651c1.179,-1.244 1.925,-2.56 2.236,-3.948c0.46,-2.051 0.238,-3.4 -0.665,-4.045" style="fill:none;fill-rule:nonzero;stroke:#000;stroke-width:7.09px;"/><path d="M206.405,183.665c0.159,-0.46 0.289,-0.972 0.391,-1.535c0.102,-0.563 -0.004,-1.02 -0.316,-1.37c-0.313,-0.35 -0.854,-0.615 -1.624,-0.795c-0.77,-0.18 -1.58,-0.249 -2.429,-0.208c-0.849,0.041 -1.7,0.468 -2.551,1.282c-0.852,0.814 -1.54,1.954 -2.066,3.419c-0.526,1.465 -0.688,2.853 -0.486,4.165c0.202,1.312 0.948,2.202 2.239,2.67c1.291,0.468 2.673,0.507 4.147,0.116c1.474,-0.391 2.66,-1.163 3.557,-2.317c0.898,-1.154 1.42,-2.471 1.566,-3.951c0.147,-1.48 -0.135,-2.819 -0.846,-4.016c-0.711,-1.197 -1.764,-1.859 -3.159,-1.985c-1.395,-0.127 -2.659,0.535 -3.792,1.984c-1.133,1.449 -1.871,3.197 -2.215,5.243c-0.343,2.047 -0.203,3.688 0.422,4.923c0.625,1.236 1.635,1.859 3.031,1.871c1.396,0.012 2.588,-0.472 3.574,-1.452c0.986,-0.98 1.597,-2.127 1.834,-3.442c0.237,-1.315 -0.001,-2.378 -0.713,-3.188c-0.712,-0.81 -1.816,-1.025 -3.313,-0.646c-1.497,0.379 -2.62,1.111 -3.37,2.196c-0.75,1.085 -1.079,1.92 -0.989,2.504c0.09,0.584 0.71,0.78 1.86,0.586c1.653,-0.278 3.173,-1.972 4.558,-5.082" style="fill:none;fill-rule:nonzero;stroke:#000;stroke-width:7.09px;"/><path d="M20.657,249.196c0.13,-0.128 0.276,0.999 0.439,3.379c0.162,2.38 0.295,4.65 0.399,6.808c0.104,2.158 0.172,3.798 0.206,4.918c0.034,1.12 0.055,1.713 0.064,1.777c0.009,0.065 0.033,-0.009 0.071,-0.222c0.038,-0.212 0.134,-0.743 0.288,-1.591c0.153,-0.849 0.584,-1.988 1.292,-3.419c0.708,-1.431 1.628,-2.541 2.759,-3.332c1.132,-0.79 2.388,-1.128 3.77,-1.013c1.381,0.115 2.633,0.898 3.754,2.349c1.121,1.451 1.878,3.16 2.272,5.128c0.394,1.968 0.37,3.758 -0.072,5.371c-0.442,1.613 -1.245,2.834 -2.411,3.663c-1.166,0.829 -2.45,1.349 -3.853,1.56c-1.403,0.211 -2.785,0.163 -4.148,-0.143l-1.022,-0.23l3.065,0.689" style="fill:none;fill-rule:nonzero;stroke:#000;stroke-width:3.54px;"/><path d="M209.96,139.551c-0.28,-0.327 -0.598,-0.611 -0.955,-0.854c-0.357,-0.242 -0.874,-0.388 -1.552,-0.438c-0.678,-0.05 -1.489,0.097 -2.433,0.441c-0.944,0.344 -1.931,0.888 -2.962,1.632c-1.031,0.743 -2.137,1.927 -3.319,3.551c-1.182,1.624 -1.903,3.289 -2.164,4.994c-0.261,1.706 0.37,3.053 1.892,4.04c1.522,0.988 3.676,1.54 6.461,1.654c2.785,0.115 4.855,0.148 6.209,0.1c1.355,-0.048 1.906,-0.415 1.655,-1.102" style="fill:none;fill-rule:nonzero;stroke:#000;stroke-width:3.54px;"/><path d="M96.848,132.992c-0.1,-0.132 -0.306,-0.37 -0.617,-0.713c-0.191,-0.211 -0.163,-0.246 0.084,-0.106c0.247,0.14 1.048,0.634 2.403,1.481c1.355,0.847 3.148,1.764 5.377,2.752c2.23,0.988 4.925,2.075 8.087,3.261c3.162,1.186 6.392,2.423 9.69,3.709c3.298,1.287 6.364,2.486 9.198,3.598c2.834,1.112 5.415,2.15 7.743,3.116c2.328,0.965 4.368,1.92 6.12,2.863c1.752,0.943 3.408,1.875 4.969,2.795c1.56,0.921 3.183,1.804 4.867,2.65c1.685,0.846 3.385,1.645 5.102,2.396c1.716,0.752 3.24,1.454 4.573,2.107c1.332,0.653 2.585,1.292 3.76,1.918c1.174,0.626 2.346,1.264 3.514,1.914c1.169,0.65 2.147,1.221 2.934,1.714c0.788,0.493 1.356,0.88 1.705,1.163c0.349,0.282 0.577,0.447 0.684,0.495c0.107,0.048 0.182,-0.004 0.224,-0.155c0.042,-0.151 0.063,-0.48 0.064,-0.986c0.001,-0.506 0.002,-1.115 0.002,-1.826c0,-0.711 -0.067,-1.543 -0.2,-2.495c-0.133,-0.952 -0.369,-2.013 -0.709,-3.183c-0.34,-1.17 -0.683,-2.228 -1.029,-3.175c-0.346,-0.947 -0.619,-1.632 -0.817,-2.057c-0.198,-0.425 -0.33,-0.648 -0.395,-0.672c-0.065,-0.024 -0.095,0.256 -0.088,0.838c0.007,0.582 0.132,1.322 0.375,2.219c0.243,0.897 0.575,1.782 0.996,2.655c0.421,0.873 0.883,1.716 1.387,2.528c0.504,0.812 0.971,1.599 1.402,2.361c0.431,0.762 0.733,1.498 0.906,2.208c0.173,0.71 0.091,1.386 -0.248,2.027c-0.338,0.641 -1.03,1.213 -2.074,1.715c-1.537,0.739 -3.523,1.456 -5.959,2.152" style="fill:none;fill-rule:nonzero;stroke:#000;stroke-width:3.54px;"/><path d="M93.206,246.28c0.009,0.018 0.639,-0.363 1.892,-1.143c1.252,-0.78 2.863,-1.685 4.831,-2.714c1.968,-1.029 4.402,-2.213 7.301,-3.552c2.899,-1.34 5.912,-2.654 9.039,-3.944c3.128,-1.29 6.194,-2.553 9.199,-3.792c3.005,-1.239 5.838,-2.417 8.497,-3.536c2.66,-1.118 5.023,-2.161 7.09,-3.128c2.067,-0.967 3.989,-1.897 5.767,-2.79c1.777,-0.893 3.543,-1.786 5.295,-2.677c1.753,-0.891 3.453,-1.749 5.1,-2.574c1.647,-0.824 3.14,-1.549 4.478,-2.174c1.338,-0.625 2.587,-1.221 3.747,-1.789c1.16,-0.568 2.22,-1.107 3.18,-1.615c0.96,-0.509 1.837,-0.982 2.631,-1.421c0.795,-0.439 1.548,-0.837 2.26,-1.193c0.712,-0.357 1.345,-0.664 1.9,-0.922c0.555,-0.258 0.983,-0.469 1.285,-0.633c0.302,-0.165 0.569,-0.303 0.802,-0.417c0.233,-0.114 0.486,-0.216 0.758,-0.307c0.272,-0.091 0.516,-0.154 0.732,-0.188c0.216,-0.034 0.367,-0.051 0.454,-0.051c0.087,-0 0.135,0.075 0.147,0.224c0.011,0.15 -0.102,0.594 -0.34,1.334c-0.238,0.74 -0.623,1.632 -1.155,2.677c-0.532,1.045 -1.037,2.058 -1.518,3.037c-0.48,0.98 -0.88,1.776 -1.2,2.389c-0.32,0.613 -0.573,1.023 -0.761,1.23c-0.188,0.207 -0.299,0.127 -0.334,-0.239c-0.035,-0.367 0.172,-1.146 0.621,-2.338c0.449,-1.192 1.144,-2.437 2.086,-3.736c0.942,-1.299 1.853,-2.438 2.732,-3.416c0.879,-0.978 1.54,-1.7 1.984,-2.165c0.443,-0.465 0.692,-0.733 0.746,-0.804c0.054,-0.071 -0.199,-0.107 -0.758,-0.107c-0.56,-0 -1.432,-0.014 -2.618,-0.041c-1.186,-0.027 -2.586,-0.121 -4.202,-0.281c-2.398,-0.238 -4.985,-0.071 -7.761,0.501" style="fill:none;fill-rule:nonzero;stroke:#000;stroke-width:3.54px;"/><path d="M227.368,187.492l-1.676,0c-0.468,0 -0.447,-0.043 0.064,-0.13c0.51,-0.086 1.581,-0.192 3.213,-0.317c1.632,-0.125 3.28,-0.188 4.944,-0.19c1.664,-0.001 3.597,-0.002 5.797,-0.002c2.2,0 4.759,0.005 7.675,0.014c2.916,0.009 5.822,0.072 8.72,0.189c2.898,0.117 5.575,0.223 8.033,0.317c2.457,0.094 4.677,0.167 6.658,0.218c1.982,0.051 3.807,0.15 5.475,0.297c1.668,0.148 3.414,0.264 5.237,0.351c1.823,0.086 3.697,0.135 5.62,0.147c1.924,0.011 3.781,0.017 5.571,0.017c1.79,0 3.425,-0.019 4.906,-0.058c1.481,-0.038 2.853,-0.102 4.115,-0.191c1.263,-0.089 2.467,-0.194 3.613,-0.315c1.146,-0.121 2.272,-0.234 3.379,-0.337c1.107,-0.103 2.149,-0.176 3.127,-0.218c0.978,-0.042 1.879,-0.063 2.704,-0.065c0.825,-0.001 1.623,-0.002 2.394,-0.002l12.54,0c0.253,0 0.394,0.028 0.422,0.085c0.028,0.057 -0.246,0.26 -0.823,0.612c-0.577,0.351 -1.36,0.804 -2.349,1.357c-0.989,0.553 -1.926,1.095 -2.811,1.624c-0.886,0.53 -1.716,0.985 -2.491,1.367c-0.775,0.381 -1.431,0.662 -1.968,0.842c-0.537,0.18 -0.907,0.277 -1.112,0.29c-0.205,0.014 -0.315,-0.012 -0.33,-0.078c-0.015,-0.066 0.184,-0.27 0.595,-0.615c0.412,-0.344 1.11,-0.748 2.097,-1.211c0.986,-0.464 2.08,-0.948 3.281,-1.455c1.201,-0.506 2.338,-0.954 3.411,-1.345c1.073,-0.39 1.932,-0.724 2.578,-1.001c0.646,-0.277 1.053,-0.56 1.22,-0.85c0.168,-0.29 0.01,-0.722 -0.473,-1.296c-0.483,-0.574 -1.444,-1.336 -2.883,-2.287c-1.439,-0.95 -3.038,-1.966 -4.796,-3.047c-2.642,-1.625 -5.297,-3.118 -7.967,-4.48" style="fill:none;fill-rule:nonzero;stroke:#000;stroke-width:3.54px;"/><path d="M30.773,99.631c0.088,-0.311 0.123,-0.628 0.106,-0.952c-0.017,-0.324 -0.252,-0.591 -0.704,-0.801c-0.452,-0.211 -0.981,-0.495 -1.586,-0.853c-0.605,-0.358 -1.216,-0.726 -1.833,-1.105c-0.617,-0.379 -1.263,-0.643 -1.938,-0.794c-0.675,-0.151 -1.435,-0.038 -2.28,0.338c-0.845,0.376 -1.637,1.228 -2.375,2.554c-0.739,1.327 -1.244,2.847 -1.516,4.56c-0.272,1.713 -0.254,3.318 0.055,4.814c0.309,1.496 0.969,2.6 1.98,3.31c1.011,0.71 2.162,1.057 3.452,1.041c1.29,-0.016 2.58,-0.406 3.87,-1.17c1.29,-0.765 2.405,-1.623 3.344,-2.574c0.939,-0.951 1.605,-1.869 1.998,-2.752c0.393,-0.883 0.649,-1.776 0.767,-2.677c0.119,-0.901 0.184,-1.701 0.197,-2.401c0.013,-0.7 0.019,-1.256 0.019,-1.671c0,-0.414 0,-0.745 0,-0.993l0,-0.846l-0,-0.015c0,0 0,0.157 0,0.299l0,1.546c0,0.888 0.009,1.902 0.027,3.04c0.018,1.138 0.135,2.32 0.35,3.543c0.215,1.224 0.468,2.343 0.761,3.358c0.292,1.015 0.694,1.814 1.206,2.397l0.384,0.438l-1.151,-1.313" style="fill:none;fill-rule:nonzero;stroke:#000;stroke-width:3.54px;"/><path d="M516.565,62.535l4.018,0c2.498,0 6.683,-0.033 12.555,-0.098c5.872,-0.066 12.819,-0.265 20.839,-0.6c8.021,-0.334 16.113,-0.725 24.275,-1.172c8.163,-0.447 15.476,-0.709 21.941,-0.785c6.465,-0.077 11.885,0.022 16.26,0.295c4.375,0.273 7.53,0.461 9.463,0.564c1.933,0.103 3.032,0.155 3.295,0.155c0.364,0 0.103,-0.13 -0.78,-0.391" style="fill:none;fill-rule:nonzero;stroke:#000;stroke-width:3.54px;"/><path d="M605.156,116.674c-0.395,-0.103 -0.793,-0.238 -1.192,-0.405c-0.4,-0.167 -0.723,-0.285 -0.969,-0.354c-0.246,-0.069 -0.519,-0.127 -0.82,-0.172c-0.301,-0.045 -0.589,-0.069 -0.862,-0.07c-0.273,-0.001 -0.532,0.036 -0.776,0.11c-0.244,0.075 -0.493,0.295 -0.746,0.66c-0.253,0.365 -0.463,0.838 -0.631,1.416c-0.168,0.579 -0.258,1.236 -0.272,1.971c-0.014,0.736 0.123,1.455 0.409,2.158c0.287,0.703 0.744,1.263 1.373,1.68c0.629,0.417 1.399,0.677 2.31,0.779c0.911,0.103 1.893,0.05 2.944,-0.159c1.052,-0.209 1.989,-0.573 2.812,-1.093c0.823,-0.52 1.411,-1.092 1.763,-1.716c0.352,-0.624 0.538,-1.284 0.559,-1.981c0.02,-0.698 -0.217,-1.362 -0.711,-1.994c-0.494,-0.632 -1.152,-1.151 -1.975,-1.555c-0.822,-0.405 -1.713,-0.659 -2.673,-0.761c-0.96,-0.103 -1.902,-0.045 -2.826,0.171c-0.925,0.217 -1.757,0.74 -2.495,1.57c-0.739,0.83 -1.259,1.819 -1.561,2.967c-0.301,1.148 -0.304,2.195 -0.009,3.141c0.296,0.945 1.024,1.563 2.185,1.852c1.161,0.289 2.284,0.289 3.369,-0.002c1.085,-0.291 1.898,-0.898 2.439,-1.822c0.541,-0.924 0.828,-1.817 0.863,-2.679c0.034,-0.862 -0.182,-1.48 -0.648,-1.853c-0.466,-0.374 -0.951,-0.533 -1.455,-0.478c-0.504,0.055 -0.814,0.149 -0.93,0.28c-0.163,0.185 0.106,0.529 0.808,1.032" style="fill:none;fill-rule:nonzero;stroke:#000;stroke-width:7.09px;"/><path d="M605.793,247.373l0,-2.305c0,-0.286 -0.081,-0.513 -0.242,-0.681c-0.162,-0.168 -0.49,-0.232 -0.985,-0.191c-0.495,0.041 -1.152,0.464 -1.971,1.269c-0.819,0.805 -1.609,1.906 -2.37,3.302c-0.761,1.396 -1.248,2.728 -1.46,3.994c-0.213,1.266 -0.033,2.232 0.538,2.898c0.571,0.665 1.478,1.026 2.722,1.082c1.243,0.056 2.407,-0.113 3.492,-0.507c1.085,-0.394 1.965,-0.928 2.639,-1.602c0.674,-0.674 1.116,-1.428 1.325,-2.263c0.209,-0.835 0.217,-1.67 0.023,-2.505c-0.194,-0.835 -0.787,-1.435 -1.779,-1.797c-0.992,-0.363 -2.012,-0.238 -3.061,0.375c-1.049,0.613 -1.807,1.532 -2.274,2.758c-0.466,1.226 -0.641,2.295 -0.525,3.208c0.117,0.913 0.726,1.439 1.827,1.578c1.102,0.14 2.197,-0.11 3.285,-0.749c1.088,-0.639 1.847,-1.453 2.278,-2.442c0.431,-0.989 0.558,-1.798 0.379,-2.427c-0.178,-0.629 -0.661,-0.963 -1.45,-1.002c-0.788,-0.039 -1.382,0.185 -1.78,0.672c-0.541,0.66 -0.309,0.806 0.696,0.436" style="fill:none;fill-rule:nonzero;stroke:#000;stroke-width:7.09px;"/><path d="M738.025,163.695c0.354,0.071 0.574,0.358 0.658,0.859c0.058,0.344 0.083,0.739 0.073,1.186c-0.009,0.447 -0.024,0.968 -0.045,1.563c-0.031,0.884 -0.221,1.801 -0.568,2.751" style="fill:none;fill-rule:nonzero;stroke:#000;stroke-width:3.54px;"/><path d="M714.618,187.584c0.183,-0.243 0.47,-0.47 0.863,-0.68c0.393,-0.21 0.78,-0.317 1.161,-0.319c0.548,-0.004 1.842,0.061 3.883,0.195" style="fill:none;fill-rule:nonzero;stroke:#000;stroke-width:3.54px;"/><path d="M747.247,185.67c0.041,0.085 0.649,0.137 1.824,0.155c1.175,0.018 2.396,0.028 3.664,0.028c1.915,0 3.71,-0.094 5.385,-0.281" style="fill:none;fill-rule:nonzero;stroke:#000;stroke-width:3.54px;"/><path d="M736.857,199.979c0.243,0.081 0.441,0.524 0.593,1.328c0.152,0.805 0.228,1.319 0.228,1.544l0,0.168l0,-0.505" style="fill:none;fill-rule:nonzero;stroke:#000;stroke-width:3.54px;"/><path d="M750.619,170.722c-0.309,0.095 -0.635,0.266 -0.98,0.514c-0.344,0.248 -0.679,0.593 -1.006,1.036c-0.472,0.639 -1.376,1.88 -2.713,3.722" style="fill:none;fill-rule:nonzero;stroke:#000;stroke-width:3.54px;"/><path d="M718.858,172.803c-0.072,-0.224 -0.007,-0.521 0.194,-0.891c0.132,-0.244 0.388,-0.248 0.768,-0.013c0.38,0.235 1.007,0.778 1.881,1.631c1.287,1.255 3.013,2.637 5.18,4.147" style="fill:none;fill-rule:nonzero;stroke:#000;stroke-width:3.54px;"/><path d="M725.464,197.062c-0.331,0.154 -0.687,0.4 -1.067,0.736c-0.38,0.336 -0.737,0.743 -1.068,1.222c-0.485,0.7 -1.126,1.69 -1.921,2.971" style="fill:none;fill-rule:nonzero;stroke:#000;stroke-width:3.54px;"/><path d="M743.601,196.971c0.03,0.268 0.395,0.721 1.096,1.359c1.015,0.924 3.047,1.855 6.098,2.792" style="fill:none;fill-rule:nonzero;stroke:#000;stroke-width:3.54px;"/><path d="M627.025,130.533c-0.285,-0.266 -0.435,-0.382 -0.45,-0.349c-0.01,0.023 0.579,0.558 1.769,1.605c1.19,1.047 2.793,2.154 4.811,3.323c2.018,1.169 4.473,2.438 7.366,3.807c2.893,1.37 5.864,2.74 8.914,4.111c3.05,1.371 5.833,2.61 8.351,3.715c2.518,1.106 4.805,2.092 6.861,2.959c2.056,0.867 4.015,1.705 5.875,2.516c1.86,0.81 3.581,1.587 5.164,2.331c1.583,0.744 2.939,1.436 4.069,2.078c1.13,0.641 2.2,1.218 3.212,1.73c1.011,0.512 2.063,0.938 3.157,1.279c1.093,0.341 2.095,0.624 3.007,0.85c0.911,0.225 1.661,0.435 2.249,0.628c0.589,0.193 1.093,0.381 1.511,0.564c0.419,0.183 0.792,0.365 1.12,0.547c0.327,0.182 0.605,0.331 0.832,0.447c0.227,0.116 0.422,0.195 0.584,0.236c0.162,0.042 0.354,0.063 0.576,0.064c0.221,0.001 0.439,0.002 0.651,0.002c0.213,0 0.407,-0.005 0.582,-0.013c0.175,-0.009 0.275,-0.153 0.3,-0.433c0.025,-0.279 0.01,-0.675 -0.046,-1.187c-0.055,-0.512 -0.242,-1.027 -0.558,-1.545c-0.317,-0.518 -0.614,-0.954 -0.89,-1.306c-0.277,-0.352 -0.508,-0.627 -0.694,-0.824c-0.186,-0.197 -0.302,-0.319 -0.348,-0.365c-0.046,-0.046 -0.037,0.001 0.028,0.141c0.065,0.14 0.347,0.513 0.846,1.117c0.5,0.605 1.131,1.261 1.895,1.968c0.764,0.708 1.498,1.392 2.202,2.052c0.704,0.66 1.27,1.257 1.697,1.789c0.428,0.532 0.712,1.008 0.853,1.428c0.141,0.42 0.081,0.802 -0.18,1.148c-0.261,0.346 -0.92,0.657 -1.979,0.934c-1.058,0.277 -2.306,0.494 -3.744,0.651c-1.438,0.157 -2.855,0.243 -4.253,0.257c-1.398,0.014 -2.399,0.021 -3.005,0.021l-0.454,0l1.362,0" style="fill:none;fill-rule:nonzero;stroke:#000;stroke-width:3.54px;"/><path d="M622.473,245.368c-0.193,-0.102 0.606,-0.618 2.397,-1.549c1.791,-0.931 3.9,-1.922 6.326,-2.973c2.426,-1.051 5.186,-2.26 8.281,-3.627c3.094,-1.367 6.231,-2.861 9.411,-4.483c3.18,-1.621 6.207,-3.216 9.082,-4.785c2.875,-1.569 5.342,-2.89 7.4,-3.965c2.058,-1.074 3.832,-1.921 5.322,-2.541c1.49,-0.62 3.007,-1.227 4.553,-1.821c1.545,-0.594 3.05,-1.206 4.514,-1.835c1.465,-0.629 2.853,-1.233 4.165,-1.813c1.312,-0.579 2.538,-1.109 3.678,-1.588c1.14,-0.479 2.219,-0.918 3.236,-1.316c1.017,-0.398 1.95,-0.756 2.798,-1.073c0.848,-0.317 1.604,-0.574 2.267,-0.77c0.663,-0.196 1.323,-0.39 1.98,-0.581c0.657,-0.191 1.31,-0.403 1.959,-0.635c0.649,-0.232 1.25,-0.484 1.802,-0.756c0.552,-0.272 1.005,-0.526 1.357,-0.763c0.352,-0.236 0.584,-0.392 0.694,-0.469c0.11,-0.077 0.166,-0.115 0.168,-0.117c0.001,-0.001 0.002,0.007 0.002,0.026c0,0.018 -0.038,0.178 -0.112,0.478c-0.075,0.3 -0.285,0.754 -0.632,1.361c-0.346,0.606 -0.774,1.327 -1.284,2.162c-0.51,0.835 -1.059,1.679 -1.647,2.533c-0.588,0.854 -1.089,1.575 -1.502,2.165c-0.413,0.589 -0.739,1.016 -0.977,1.281c-0.238,0.265 -0.381,0.41 -0.429,0.436c-0.047,0.026 -0.071,0.002 -0.071,-0.073c-0,-0.075 0.075,-0.357 0.225,-0.846c0.15,-0.49 0.547,-1.149 1.19,-1.98c0.643,-0.83 1.344,-1.711 2.102,-2.642c0.758,-0.931 1.422,-1.767 1.99,-2.507c0.569,-0.74 0.946,-1.308 1.132,-1.705c0.186,-0.396 0.196,-0.698 0.031,-0.905c-0.165,-0.207 -0.744,-0.402 -1.737,-0.584c-0.993,-0.182 -2.203,-0.322 -3.631,-0.418c-1.427,-0.097 -2.786,-0.145 -4.076,-0.147l-0.967,-0.001l2.902,0.003" style="fill:none;fill-rule:nonzero;stroke:#000;stroke-width:3.54px;"/><path d="M771.673,186.946c-0.166,0.234 0.471,0.408 1.912,0.523c1.441,0.115 3.093,0.178 4.956,0.189c1.863,0.011 4.2,-0.016 7.012,-0.082c2.812,-0.066 5.888,-0.223 9.229,-0.473c3.341,-0.249 6.642,-0.453 9.902,-0.61c3.26,-0.158 6.279,-0.258 9.055,-0.3c2.777,-0.043 5.167,-0.065 7.171,-0.066c2.004,-0.001 3.824,-0.002 5.458,-0.002c1.635,0 3.268,-0.005 4.901,-0.013c1.632,-0.009 3.062,-0.049 4.29,-0.118c1.228,-0.07 2.111,-0.11 2.65,-0.123c0.538,-0.012 0.928,-0.01 1.168,0.009c0.24,0.018 0.427,0.106 0.561,0.263c0.134,0.157 0.243,0.332 0.326,0.523c0.083,0.192 0.155,0.403 0.216,0.635c0.061,0.232 0.179,0.483 0.355,0.756c0.176,0.272 0.443,0.531 0.8,0.776c0.358,0.245 0.768,0.446 1.232,0.601c0.463,0.155 0.967,0.25 1.51,0.285c0.543,0.035 1.1,0.053 1.669,0.053c0.569,0 1.017,0 1.343,0c0.326,0 0.353,0.071 0.08,0.213c-0.272,0.142 -1.143,0.47 -2.613,0.983c-1.47,0.513 -3.01,1.07 -4.619,1.67c-1.61,0.6 -2.889,1.102 -3.839,1.506c-0.949,0.404 -1.552,0.686 -1.808,0.847c-0.256,0.161 -0.368,0.242 -0.337,0.242c0.031,0 0.109,0.002 0.233,0.004c0.125,0.002 0.677,-0.115 1.657,-0.353c0.98,-0.237 2.315,-0.718 4.003,-1.442c1.689,-0.724 3.476,-1.527 5.362,-2.407c1.886,-0.88 3.448,-1.689 4.687,-2.426c1.239,-0.737 2.025,-1.319 2.357,-1.745c0.333,-0.427 0.296,-0.807 -0.109,-1.142c-0.405,-0.334 -1.045,-0.702 -1.918,-1.103c-0.873,-0.401 -1.842,-0.929 -2.905,-1.585c-1.064,-0.656 -2.251,-1.394 -3.561,-2.214c-1.963,-1.228 -3.999,-2.372 -6.107,-3.432" style="fill:none;fill-rule:nonzero;stroke:#000;stroke-width:3.54px;"/><path d="M549.011,114.761c0.007,-0.346 0.067,-0.702 0.179,-1.067c0.113,-0.365 0.302,-0.693 0.569,-0.984c0.267,-0.291 0.625,-0.603 1.075,-0.937c0.45,-0.333 0.899,-0.619 1.346,-0.858c0.448,-0.239 0.855,-0.34 1.223,-0.302c0.368,0.038 0.694,0.445 0.979,1.224c0.285,0.778 0.67,1.791 1.155,3.038c0.485,1.247 1.171,2.418 2.056,3.514c0.885,1.095 1.964,1.899 3.236,2.41c1.272,0.512 2.765,0.689 4.481,0.533c1.716,-0.157 3.487,-0.699 5.315,-1.628c1.828,-0.929 3.316,-1.905 4.465,-2.93l0.862,-0.769l-2.585,2.306" style="fill:none;fill-rule:nonzero;stroke:#000;stroke-width:3.54px;"/><path d="M565.873,107.925c-0.06,-0.208 -0.093,-0.144 -0.101,0.192c-0.008,0.336 -0.028,1.176 -0.06,2.52c-0.032,1.344 -0.13,3.232 -0.295,5.664c-0.164,2.432 -0.325,4.738 -0.484,6.916c-0.158,2.178 -0.158,4.268 0.001,6.27" style="fill:none;fill-rule:nonzero;stroke:#000;stroke-width:3.54px;"/><path d="M552.475,249.287c0.038,-0.338 0.207,-0.775 0.51,-1.31c0.302,-0.535 0.631,-0.995 0.986,-1.38c0.355,-0.385 0.695,-0.784 1.019,-1.198c0.324,-0.414 0.673,-0.825 1.045,-1.233c0.373,-0.408 0.775,-0.674 1.209,-0.796c0.433,-0.123 0.878,0.068 1.333,0.571c0.456,0.503 0.925,1.36 1.409,2.572c0.484,1.211 1.027,2.359 1.629,3.442c0.602,1.083 1.357,1.949 2.264,2.596c0.907,0.648 2.045,0.998 3.415,1.051c1.369,0.053 2.873,-0.286 4.512,-1.016c1.638,-0.73 3.076,-1.609 4.312,-2.637l0.927,-0.771l-2.781,2.313" style="fill:none;fill-rule:nonzero;stroke:#000;stroke-width:3.54px;"/><path d="M569.883,243.545c-0.083,0.064 -0.31,0.833 -0.682,2.307c-0.372,1.474 -0.72,3.341 -1.045,5.602c-0.325,2.261 -0.582,4.543 -0.772,6.846c-0.19,2.303 -0.292,4.152 -0.306,5.549c-0.014,1.397 -0.021,2.225 -0.021,2.483c0,0.353 -0.051,0.228 -0.153,-0.375" style="fill:none;fill-rule:nonzero;stroke:#000;stroke-width:3.54px;"/><path d="M553.386,234.887c0.128,0 1.013,-0.018 2.657,-0.056c1.644,-0.038 4.166,-0.165 7.567,-0.382c5.258,-0.335 9.535,-0.376 12.829,-0.121" style="fill:none;fill-rule:nonzero;stroke:#000;stroke-width:3.54px;"/><path d="M509.911,46.859c-0.075,-0.258 -0.14,-0.6 -0.193,-1.027c-0.054,-0.427 -0.08,-0.845 -0.08,-1.253c0,-0.409 0.095,-1.027 0.285,-1.855c0.19,-0.828 0.672,-2.261 1.446,-4.3c0.775,-2.039 1.982,-4.851 3.621,-8.436c1.639,-3.585 3.337,-6.592 5.092,-9.022c1.755,-2.43 3.061,-3.798 3.916,-4.103c0.855,-0.305 1.493,-0.07 1.914,0.703c0.421,0.774 0.897,1.971 1.428,3.593c0.531,1.621 1.032,3.644 1.503,6.067c0.471,2.423 0.929,4.896 1.374,7.418c0.445,2.522 0.848,4.574 1.21,6.155c0.362,1.582 0.573,2.627 0.632,3.136c0.082,0.7 -0.293,0.708 -1.124,0.025" style="fill:none;fill-rule:nonzero;stroke:#000;stroke-width:3.54px;"/><path d="M514.377,36.834c0.022,-0.455 0.357,-0.796 1.006,-1.023c0.931,-0.325 3.34,-0.313 7.227,0.035" style="fill:none;fill-rule:nonzero;stroke:#000;stroke-width:3.54px;"/><path d="M539.533,34.373c0,0.286 0.062,1.01 0.186,2.17c0.124,1.161 0.331,2.363 0.621,3.608c0.29,1.245 0.558,2.268 0.804,3.071c0.246,0.803 0.437,1.31 0.572,1.522c0.135,0.212 0.325,-0.064 0.57,-0.827c0.245,-0.763 0.698,-1.995 1.361,-3.697c0.663,-1.702 1.461,-3.247 2.395,-4.637c0.934,-1.39 1.922,-2.34 2.963,-2.851c1.042,-0.511 2.036,-0.533 2.983,-0.068c0.947,0.465 1.766,1.411 2.455,2.836c0.69,1.425 1.26,2.793 1.712,4.103c0.452,1.31 0.824,2.27 1.116,2.878l0.219,0.457l-0.658,-1.37" style="fill:none;fill-rule:nonzero;stroke:#000;stroke-width:3.54px;"/><path d="M568.698,34.555c-0.543,0 -1.299,0.005 -2.268,0.014c-0.969,0.009 -1.94,0.32 -2.915,0.932c-0.975,0.613 -1.654,1.58 -2.037,2.903c-0.383,1.323 -0.185,2.483 0.595,3.479c0.78,0.997 1.853,1.561 3.22,1.693c1.367,0.132 2.525,-0.156 3.475,-0.865c0.95,-0.709 1.689,-1.608 2.22,-2.697c0.53,-1.09 0.897,-1.961 1.1,-2.613c0.203,-0.653 0.359,-0.933 0.469,-0.841c0.11,0.093 0.403,0.593 0.881,1.501c0.69,1.31 2.566,2.525 5.63,3.644" style="fill:none;fill-rule:nonzero;stroke:#000;stroke-width:3.54px;"/><path d="M585.425,16.255c-0.17,-0.374 -0.351,-0.458 -0.543,-0.254c-0.138,0.147 -0.066,1.227 0.214,3.241c0.28,2.015 0.56,4.548 0.838,7.599c0.278,3.052 0.558,5.773 0.84,8.165c0.282,2.391 0.626,4.04 1.034,4.946c0.571,1.269 1.985,0.689 4.242,-1.741" style="fill:none;fill-rule:nonzero;stroke:#000;stroke-width:3.54px;"/><path d="M603.515,33.644c-0.895,-0.058 -1.802,-0.07 -2.723,-0.039c-0.921,0.032 -1.735,0.509 -2.441,1.432c-0.706,0.923 -1.147,2.1 -1.322,3.53c-0.175,1.43 0.112,2.651 0.862,3.662c0.75,1.011 1.794,1.581 3.133,1.71c1.339,0.129 2.547,-0.134 3.624,-0.79c1.078,-0.655 1.911,-1.639 2.5,-2.95c0.589,-1.311 0.92,-2.484 0.995,-3.519c0.074,-1.035 0.111,-1.654 0.111,-1.858c0,-0.28 0.052,-0.097 0.156,0.549" style="fill:none;fill-rule:nonzero;stroke:#000;stroke-width:3.54px;"/><path d="M625.389,36.013c-0.127,-0.633 -0.374,-1.297 -0.739,-1.995c-0.366,-0.697 -0.948,-1.17 -1.748,-1.419c-0.799,-0.248 -1.856,-0.027 -3.171,0.664c-1.314,0.691 -2.401,1.796 -3.261,3.314c-0.86,1.518 -1.295,2.792 -1.306,3.823c-0.011,1.031 0.497,1.632 1.523,1.804c1.027,0.172 2.194,-0.028 3.503,-0.6c1.309,-0.572 2.431,-1.181 3.369,-1.829c0.937,-0.648 1.667,-1.025 2.189,-1.13c0.522,-0.105 0.817,0.497 0.886,1.807c0.068,1.31 -0.184,3.292 -0.756,5.946c-0.573,2.654 -1.273,5.016 -2.1,7.085c-0.828,2.07 -1.748,3.412 -2.761,4.029c-1.013,0.616 -2.202,0.639 -3.567,0.068c-1.944,-0.813 -2.841,-4.562 -2.693,-11.246" style="fill:none;fill-rule:nonzero;stroke:#000;stroke-width:3.54px;"/><path d="M636.417,35.193c-0.16,-0.127 -0.137,0.585 0.069,2.136c0.206,1.551 0.684,2.955 1.436,4.211c0.752,1.256 1.852,2.173 3.302,2.751c1.45,0.578 3.09,0.592 4.921,0.042c1.831,-0.55 3.345,-1.508 4.542,-2.874c1.197,-1.366 1.975,-2.439 2.334,-3.22c0.36,-0.781 0.63,-1.146 0.812,-1.094c0.182,0.052 0.432,0.592 0.75,1.62c0.318,1.028 0.674,2.353 1.068,3.974c0.394,1.621 0.697,3.493 0.91,5.615c0.213,2.122 0.29,4.202 0.23,6.241c-0.06,2.039 -0.422,3.664 -1.085,4.875c-0.664,1.211 -1.604,1.943 -2.819,2.196c-1.76,0.366 -3.957,-0.339 -6.59,-2.116" style="fill:none;fill-rule:nonzero;stroke:#000;stroke-width:3.54px;"/><g transform="matrix(1,0,0,1,355.018033,-385.130468)"><g transform="matrix(0.991961,0,0,1,1.228722,0)"><text x="152.848px" y="438.997px" style="font-family:'Helvetica';font-size:41.951px;fill:none;">An<tspan x="204.055px 227.334px 236.602px 259.88px 283.159px " y="438.997px 438.997px 438.997px 438.997px 438.997px ">alogy</tspan></text></g><g transform="matrix(43.118969,0,0,1,-6729.553362,0)"><g transform="matrix(5.290555,0,0,5.290555,161.53668,448.162687)"></g><text x="159.775px" y="448.163px" style="font-family:'Helvetica';font-size:5.291px;fill:none;">-</text></g></g><g transform="matrix(1,0,0,1,-18.445555,-329.331969)"><g transform="matrix(2.292053,0,0,1,-45.108073,0)"><text x="34.912px" y="438.949px" style="font-family:'Helvetica';font-size:17.318px;fill:none;">a</text></g><g transform="matrix(1.067322,0,0,1,-5.467673,0)"><g transform="matrix(19.191018,0,0,19.191018,97.816952,455.850916)"></g><text x="81.217px" y="455.851px" style="font-family:'AppleSDGothicNeo-Regular', 'Apple SD Gothic Neo';font-size:19.191px;fill:none;">⑧</text></g></g><g transform="matrix(1,0,0,1,40.611417,-313.077144)"><g transform="matrix(1.739335,0,0,1,-374.56805,0)"><text x="506.628px" y="470.572px" style="font-family:'Helvetica';font-size:54.249px;fill:none;">4<tspan x="542.238px 577.848px " y="470.572px 470.572px ">0-</tspan></text></g><g transform="matrix(5.065173,0,0,1,-217.736772,0)"><text x="53.562px" y="479.841px" style="font-family:'Helvetica';font-size:38.411px;fill:none;">-</text></g><g transform="matrix(1.63439,0,0,1,-97.568986,0)"><g transform="matrix(16.845872,0,0,16.845872,165.965216,465.529228)"></g><text x="153.8px" y="465.529px" style="font-family:'Helvetica';font-size:16.846px;fill:none;">C</text></g></g><g transform="matrix(1,0,0,0.067448,-0,-249.537255)"><g transform="matrix(282.799655,0,0,282.799655,287.651911,6548.130787)"></g><text x="193.477px" y="6548.131px" style="font-family:'Helvetica';font-size:282.8px;fill:none;">-</text></g><g transform="matrix(1,0,0,0.128782,0,-230.1565)"><g transform="matrix(694.35621,0,0,694.35621,781.928959,3705.656639)"></g><text x="550.703px" y="3705.657px" style="font-family:'Helvetica';font-size:694.356px;fill:none;">-</text></g><g transform="matrix(1,0,0,0.288792,-0,-152.069202)"><g transform="matrix(99.257983,0,0,99.257983,74.087435,1460.623221)"></g><text x="18.885px" y="1460.623px" style="font-family:'Helvetica';font-size:99.258px;fill:none;">b</text></g><g transform="matrix(1,0,0,0.188162,0,-197.423444)"><g transform="matrix(208.076306,0,0,208.076306,160.725535,2317.464613)"></g><text x="91.434px" y="2317.465px" style="font-family:'Helvetica';font-size:208.076px;fill:none;">-</text></g></g></svg>