<?xml version="1.0" encoding="UTF-8" standalone="no"?><!DOCTYPE svg PUBLIC "-//W3C//DTD SVG 1.1//EN" "http://www.w3.org/Graphics/SVG/1.1/DTD/svg11.dtd"><svg width="100%" height="100%" viewBox="0 0 183 57" version="1.1" xmlns="http://www.w3.org/2000/svg" xmlns:xlink="http://www.w3.org/1999/xlink" xml:space="preserve" xmlns:serif="http://www.serif.com/" style="fill-rule:evenodd;clip-rule:evenodd;stroke-linecap:round;stroke-linejoin:round;stroke-miterlimit:10;"><rect id="Artboard1" x="-0" y="0" width="182.64" height="56.88" style="fill:#fff;"/><path d="M107.938,8.196c0.136,0.094 0.27,0.189 0.404,0.285c0.115,-0.264 0.257,-0.513 0.422,-0.744c-0.114,-0.081 -0.228,-0.161 -0.342,-0.24c-0.193,-0.134 -0.458,-0.085 -0.592,0.108c-0.134,0.193 -0.085,0.458 0.108,0.591Zm-0.925,-0.608c0.314,0.195 0.621,0.398 0.925,0.608c0.193,0.134 0.458,0.086 0.591,-0.107c0.134,-0.193 0.086,-0.458 -0.107,-0.592c-0.315,-0.218 -0.635,-0.43 -0.961,-0.632c-0.199,-0.124 -0.462,-0.062 -0.585,0.137c-0.124,0.199 -0.062,0.462 0.137,0.585Zm11.794,10.919c0.114,0.179 0.223,0.36 0.328,0.543c0.117,0.204 0.377,0.274 0.581,0.157c0.203,-0.117 0.274,-0.377 0.156,-0.58c-0.111,-0.195 -0.227,-0.387 -0.347,-0.576c-0.126,-0.198 -0.388,-0.257 -0.587,-0.131c-0.198,0.126 -0.257,0.389 -0.131,0.587Zm-0.362,-0.548c0.124,0.181 0.245,0.363 0.362,0.548c0.126,0.199 0.389,0.257 0.587,0.131c0.198,-0.125 0.257,-0.388 0.131,-0.587c-0.123,-0.193 -0.249,-0.383 -0.378,-0.573c-0.106,-0.154 -0.296,-0.217 -0.466,-0.169c-0.079,0.063 -0.16,0.123 -0.242,0.179c-0.09,0.139 -0.093,0.325 0.007,0.47Zm-0.234,-0.326c0.081,0.107 0.159,0.215 0.234,0.326c0.132,0.194 0.397,0.243 0.591,0.111c0.194,-0.133 0.244,-0.397 0.111,-0.591c-0.082,-0.119 -0.166,-0.236 -0.253,-0.351c-0.211,0.192 -0.44,0.362 -0.684,0.506Zm0.115,-0.071c0.106,0.01 0.216,-0.02 0.305,-0.092c0.079,-0.064 0.129,-0.15 0.149,-0.242c-0.144,0.122 -0.296,0.233 -0.454,0.334Z" style="fill:#c2361a;fill-rule:nonzero;"/><path d="M107.237,7.227c-0.3,-0.186 -0.595,-0.364 -0.884,-0.535c-0.289,-0.17 -0.594,-0.336 -0.913,-0.497c-0.319,-0.161 -0.66,-0.322 -1.023,-0.485c-0.363,-0.163 -0.747,-0.329 -1.152,-0.499c-0.405,-0.17 -0.807,-0.31 -1.206,-0.42c-0.399,-0.11 -0.791,-0.189 -1.176,-0.237c-0.385,-0.048 -0.747,-0.081 -1.086,-0.099c-0.339,-0.018 -0.678,-0.029 -1.015,-0.034c-0.337,-0.005 -0.688,-0.008 -1.052,-0.008c-0.364,-0 -0.72,-0 -1.069,-0l-1.002,0c-0.319,0 -0.627,0.006 -0.921,0.017c-0.295,0.011 -0.584,0.041 -0.869,0.088c-0.285,0.048 -0.568,0.099 -0.85,0.155c-0.282,0.056 -0.558,0.112 -0.829,0.168c-0.27,0.056 -0.527,0.104 -0.771,0.144c-0.244,0.04 -0.488,0.067 -0.734,0.083c-0.245,0.015 -0.489,0.028 -0.733,0.037c-0.243,0.01 -0.491,0.021 -0.743,0.036c-0.252,0.014 -0.511,0.049 -0.775,0.103c-0.264,0.054 -0.525,0.125 -0.781,0.211c-0.256,0.086 -0.508,0.193 -0.756,0.32c-0.248,0.127 -0.498,0.275 -0.751,0.444c-0.252,0.169 -0.511,0.349 -0.775,0.54c-0.264,0.191 -0.531,0.388 -0.801,0.59c-0.27,0.202 -0.538,0.394 -0.806,0.577c-0.268,0.183 -0.53,0.363 -0.788,0.54c-0.258,0.177 -0.521,0.364 -0.791,0.56c-0.269,0.196 -0.536,0.4 -0.798,0.61c-0.263,0.211 -0.524,0.429 -0.785,0.655c-0.261,0.226 -0.499,0.445 -0.714,0.657c-0.216,0.212 -0.428,0.433 -0.636,0.662c-0.209,0.229 -0.409,0.469 -0.599,0.719c-0.191,0.25 -0.368,0.499 -0.531,0.747c-0.163,0.248 -0.324,0.491 -0.483,0.73c-0.158,0.239 -0.307,0.469 -0.446,0.691c-0.139,0.222 -0.278,0.45 -0.416,0.685c-0.138,0.235 -0.281,0.493 -0.429,0.776c-0.148,0.282 -0.287,0.571 -0.417,0.865c-0.13,0.295 -0.246,0.576 -0.349,0.844c-0.103,0.268 -0.187,0.535 -0.252,0.799c-0.065,0.264 -0.126,0.554 -0.184,0.868c-0.058,0.314 -0.115,0.638 -0.171,0.97c-0.056,0.333 -0.111,0.652 -0.164,0.957c-0.054,0.305 -0.107,0.591 -0.161,0.857c-0.054,0.266 -0.094,0.526 -0.122,0.779c-0.028,0.253 -0.047,0.515 -0.057,0.786c-0.01,0.271 -0.022,0.55 -0.036,0.836c-0.014,0.286 -0.036,0.568 -0.064,0.846c-0.029,0.278 -0.052,0.546 -0.07,0.804c-0.018,0.258 -0.031,0.51 -0.041,0.756c-0.01,0.246 -0.021,0.495 -0.033,0.747c-0.012,0.252 -0.025,0.506 -0.04,0.761c-0.015,0.255 -0.03,0.511 -0.047,0.769c-0.017,0.257 -0.027,0.529 -0.03,0.814c-0.003,0.285 -0.004,0.572 -0.004,0.859c0,0.287 0.009,0.572 0.027,0.854c0.018,0.282 0.062,0.562 0.131,0.842c0.069,0.28 0.146,0.556 0.231,0.828c0.085,0.273 0.174,0.544 0.268,0.813c0.094,0.27 0.194,0.544 0.298,0.823c0.104,0.279 0.224,0.574 0.359,0.886c0.135,0.312 0.28,0.639 0.435,0.981c0.155,0.342 0.307,0.697 0.456,1.065c0.149,0.368 0.289,0.743 0.421,1.125c0.132,0.382 0.27,0.752 0.415,1.11c0.145,0.358 0.312,0.685 0.503,0.979c0.19,0.294 0.399,0.557 0.627,0.788c0.227,0.231 0.451,0.435 0.67,0.611c0.219,0.177 0.428,0.336 0.625,0.478c0.197,0.142 0.407,0.295 0.629,0.459c0.222,0.164 0.463,0.322 0.721,0.474c0.259,0.152 0.523,0.298 0.793,0.439c0.27,0.141 0.526,0.281 0.768,0.42c0.242,0.139 0.474,0.271 0.695,0.395c0.222,0.124 0.432,0.247 0.633,0.369c0.2,0.122 0.393,0.24 0.578,0.354c0.185,0.114 0.378,0.23 0.579,0.346c0.201,0.117 0.399,0.232 0.594,0.347c0.195,0.114 0.383,0.219 0.563,0.315c0.18,0.096 0.355,0.178 0.523,0.247c0.168,0.069 0.343,0.125 0.524,0.167c0.181,0.042 0.369,0.079 0.563,0.111c0.194,0.031 0.391,0.068 0.59,0.109c0.199,0.041 0.402,0.083 0.608,0.127c0.206,0.044 0.411,0.087 0.616,0.131c0.205,0.044 0.393,0.084 0.564,0.121c0.171,0.037 0.332,0.075 0.48,0.113c0.149,0.039 0.301,0.079 0.456,0.12c0.155,0.041 0.316,0.088 0.484,0.141c0.167,0.053 0.337,0.111 0.51,0.174c0.172,0.063 0.349,0.121 0.531,0.175c0.182,0.054 0.377,0.105 0.585,0.154c0.208,0.049 0.429,0.095 0.664,0.139c0.235,0.044 0.468,0.092 0.699,0.145c0.231,0.053 0.462,0.104 0.693,0.153c0.231,0.049 0.474,0.09 0.731,0.122c0.256,0.032 0.522,0.062 0.796,0.089c0.274,0.027 0.551,0.045 0.83,0.053c0.279,0.008 0.564,0.012 0.853,0.012l2.78,0c0.196,0 0.399,-0.002 0.608,-0.007c0.209,-0.004 0.423,-0.023 0.644,-0.056c0.221,-0.033 0.441,-0.069 0.66,-0.108c0.219,-0.039 0.434,-0.068 0.646,-0.089c0.211,-0.02 0.429,-0.04 0.652,-0.059c0.223,-0.019 0.45,-0.043 0.681,-0.072c0.231,-0.029 0.462,-0.066 0.693,-0.111c0.231,-0.046 0.455,-0.095 0.672,-0.149c0.217,-0.053 0.418,-0.102 0.604,-0.147c0.186,-0.044 0.364,-0.08 0.534,-0.107c0.171,-0.027 0.347,-0.063 0.528,-0.108c0.181,-0.045 0.377,-0.116 0.587,-0.214c0.21,-0.097 0.438,-0.217 0.682,-0.359c0.245,-0.142 0.487,-0.293 0.729,-0.453c0.241,-0.16 0.475,-0.321 0.701,-0.484c0.226,-0.163 0.453,-0.332 0.679,-0.509c0.226,-0.177 0.449,-0.36 0.668,-0.549c0.219,-0.189 0.424,-0.378 0.615,-0.565c0.191,-0.187 0.375,-0.368 0.553,-0.541c0.178,-0.173 0.353,-0.35 0.525,-0.532c0.173,-0.182 0.36,-0.38 0.563,-0.594c0.203,-0.215 0.418,-0.443 0.646,-0.686c0.228,-0.243 0.444,-0.476 0.647,-0.701c0.203,-0.225 0.394,-0.436 0.572,-0.633c0.178,-0.197 0.352,-0.397 0.523,-0.598c0.17,-0.201 0.338,-0.415 0.504,-0.639c0.165,-0.225 0.331,-0.46 0.496,-0.705c0.165,-0.245 0.317,-0.469 0.454,-0.67c0.137,-0.201 0.265,-0.393 0.382,-0.576c0.117,-0.182 0.228,-0.373 0.333,-0.571c0.105,-0.198 0.207,-0.41 0.307,-0.635c0.1,-0.225 0.193,-0.453 0.278,-0.684c0.086,-0.231 0.163,-0.453 0.231,-0.665c0.069,-0.212 0.135,-0.42 0.198,-0.625c0.063,-0.204 0.12,-0.413 0.169,-0.626c0.049,-0.213 0.101,-0.441 0.157,-0.683c0.056,-0.242 0.111,-0.499 0.168,-0.77c0.056,-0.271 0.106,-0.552 0.151,-0.843c0.044,-0.291 0.078,-0.578 0.1,-0.861c0.023,-0.282 0.042,-0.56 0.059,-0.832c0.017,-0.273 0.033,-0.539 0.047,-0.8c0.015,-0.261 0.026,-0.517 0.034,-0.77c0.008,-0.253 0.014,-0.501 0.019,-0.745c0.005,-0.243 0.008,-0.481 0.011,-0.712c0.003,-0.231 0.004,-0.473 0.004,-0.724l0,-0.782c0,-0.269 -0.003,-0.532 -0.01,-0.788c-0.007,-0.256 -0.028,-0.509 -0.063,-0.759c-0.035,-0.25 -0.075,-0.515 -0.119,-0.796c-0.044,-0.28 -0.091,-0.58 -0.141,-0.9c-0.051,-0.32 -0.108,-0.644 -0.174,-0.972c-0.065,-0.328 -0.131,-0.643 -0.196,-0.943c-0.066,-0.3 -0.131,-0.586 -0.197,-0.857c-0.066,-0.271 -0.139,-0.52 -0.221,-0.748c-0.082,-0.228 -0.178,-0.438 -0.289,-0.631" style="fill:none;fill-rule:nonzero;stroke:#c2361a;stroke-width:0.85px;"/><path d="M110.655,42.035c-0.062,0.03 -0.129,0.058 -0.203,0.084c-0.049,0.017 -0.077,0.024 -0.084,0.02c-0.007,-0.004 -0.02,-0.032 -0.039,-0.084c-0.019,-0.052 -0.045,-0.115 -0.079,-0.189c-0.034,-0.075 -0.072,-0.169 -0.116,-0.284c-0.043,-0.115 -0.087,-0.254 -0.131,-0.418c-0.044,-0.164 -0.089,-0.326 -0.135,-0.487c-0.046,-0.161 -0.099,-0.318 -0.159,-0.471c-0.06,-0.153 -0.131,-0.314 -0.213,-0.483c-0.082,-0.169 -0.171,-0.344 -0.268,-0.524c-0.097,-0.18 -0.194,-0.357 -0.291,-0.529c-0.097,-0.173 -0.194,-0.339 -0.289,-0.497c-0.095,-0.159 -0.182,-0.312 -0.26,-0.461c-0.078,-0.149 -0.155,-0.292 -0.231,-0.431c-0.076,-0.139 -0.153,-0.289 -0.233,-0.45c-0.08,-0.162 -0.158,-0.331 -0.233,-0.508c-0.076,-0.177 -0.145,-0.351 -0.209,-0.522c-0.064,-0.17 -0.119,-0.326 -0.166,-0.466c-0.047,-0.14 -0.089,-0.272 -0.125,-0.396c-0.037,-0.124 -0.076,-0.252 -0.117,-0.385c-0.041,-0.133 -0.08,-0.275 -0.117,-0.425c-0.036,-0.15 -0.066,-0.306 -0.089,-0.466c-0.023,-0.16 -0.038,-0.314 -0.045,-0.46c-0.008,-0.147 -0.013,-0.29 -0.015,-0.431c-0.003,-0.141 -0.004,-0.291 -0.004,-0.451l0,-1.033c0,-0.18 0.005,-0.362 0.013,-0.546c0.009,-0.184 0.03,-0.38 0.064,-0.585c0.033,-0.206 0.068,-0.419 0.105,-0.64c0.036,-0.221 0.073,-0.439 0.109,-0.656c0.036,-0.217 0.076,-0.433 0.12,-0.649c0.043,-0.216 0.087,-0.437 0.131,-0.662c0.044,-0.226 0.087,-0.461 0.131,-0.706c0.044,-0.245 0.089,-0.494 0.135,-0.746c0.046,-0.253 0.093,-0.497 0.142,-0.734c0.049,-0.236 0.1,-0.469 0.153,-0.698c0.053,-0.229 0.104,-0.458 0.153,-0.689c0.049,-0.231 0.099,-0.451 0.15,-0.661c0.051,-0.21 0.105,-0.413 0.163,-0.607c0.058,-0.195 0.124,-0.39 0.199,-0.587c0.075,-0.197 0.15,-0.389 0.226,-0.577c0.076,-0.188 0.15,-0.375 0.223,-0.562c0.073,-0.187 0.147,-0.387 0.222,-0.599c0.075,-0.213 0.156,-0.434 0.243,-0.665c0.087,-0.231 0.17,-0.445 0.248,-0.644c0.078,-0.198 0.152,-0.374 0.22,-0.526c0.068,-0.152 0.135,-0.295 0.201,-0.429c0.066,-0.134 0.137,-0.28 0.214,-0.44c0.077,-0.159 0.157,-0.326 0.239,-0.501c0.082,-0.175 0.163,-0.341 0.241,-0.5c0.078,-0.159 0.153,-0.314 0.223,-0.465c0.071,-0.151 0.143,-0.296 0.219,-0.435c0.075,-0.139 0.153,-0.275 0.233,-0.409c0.08,-0.134 0.16,-0.263 0.24,-0.387c0.08,-0.124 0.162,-0.248 0.244,-0.372c0.082,-0.124 0.167,-0.247 0.255,-0.369c0.087,-0.122 0.177,-0.235 0.269,-0.34c0.092,-0.105 0.19,-0.216 0.294,-0.331c0.104,-0.116 0.216,-0.246 0.337,-0.391c0.121,-0.145 0.248,-0.294 0.382,-0.447c0.134,-0.153 0.266,-0.302 0.397,-0.445c0.131,-0.144 0.259,-0.278 0.383,-0.403c0.124,-0.125 0.248,-0.247 0.372,-0.366c0.124,-0.119 0.25,-0.236 0.379,-0.35c0.129,-0.114 0.259,-0.227 0.389,-0.339c0.131,-0.112 0.267,-0.226 0.407,-0.343c0.141,-0.116 0.289,-0.228 0.444,-0.336c0.155,-0.107 0.32,-0.213 0.494,-0.318c0.174,-0.104 0.365,-0.219 0.572,-0.344c0.207,-0.125 0.429,-0.262 0.664,-0.41c0.235,-0.148 0.466,-0.287 0.693,-0.417c0.227,-0.13 0.443,-0.247 0.651,-0.352c0.207,-0.105 0.414,-0.206 0.62,-0.304c0.206,-0.097 0.421,-0.203 0.644,-0.316c0.223,-0.114 0.451,-0.225 0.684,-0.335c0.233,-0.11 0.462,-0.214 0.686,-0.311c0.224,-0.098 0.447,-0.189 0.668,-0.275c0.221,-0.086 0.438,-0.163 0.65,-0.231c0.212,-0.069 0.416,-0.136 0.611,-0.201c0.195,-0.066 0.38,-0.13 0.556,-0.194c0.176,-0.063 0.345,-0.122 0.508,-0.176c0.163,-0.054 0.318,-0.095 0.465,-0.123c0.147,-0.028 0.285,-0.048 0.414,-0.06c0.129,-0.012 0.261,-0.026 0.394,-0.04c0.133,-0.015 0.268,-0.029 0.404,-0.044c0.136,-0.015 0.275,-0.034 0.416,-0.058c0.141,-0.024 0.279,-0.053 0.416,-0.086c0.136,-0.034 0.278,-0.067 0.426,-0.098c0.148,-0.032 0.299,-0.064 0.455,-0.095c0.156,-0.032 0.312,-0.061 0.47,-0.088c0.158,-0.027 0.314,-0.052 0.47,-0.077c0.156,-0.025 0.306,-0.044 0.45,-0.059c0.144,-0.015 0.284,-0.026 0.42,-0.034c0.136,-0.008 0.269,-0.012 0.398,-0.012c0.129,-0 0.258,-0.001 0.386,-0.003c0.129,-0.002 0.26,-0.006 0.394,-0.011c0.134,-0.005 0.27,-0.008 0.408,-0.008c0.138,-0 0.273,-0 0.405,-0l0.408,0c0.14,0 0.289,0.002 0.447,0.007c0.157,0.005 0.315,0.009 0.473,0.014c0.158,0.005 0.314,0.013 0.467,0.025c0.154,0.012 0.303,0.032 0.449,0.06c0.146,0.028 0.288,0.064 0.427,0.108c0.139,0.043 0.276,0.08 0.413,0.11c0.136,0.03 0.268,0.059 0.395,0.088c0.127,0.029 0.244,0.059 0.352,0.09c0.108,0.031 0.211,0.066 0.311,0.105c0.1,0.039 0.203,0.078 0.31,0.116c0.107,0.039 0.215,0.076 0.324,0.113c0.109,0.037 0.22,0.073 0.332,0.11c0.112,0.036 0.221,0.073 0.329,0.109c0.107,0.036 0.215,0.078 0.324,0.123c0.109,0.046 0.222,0.1 0.338,0.162c0.117,0.063 0.237,0.127 0.36,0.192c0.124,0.066 0.242,0.129 0.354,0.19c0.112,0.061 0.22,0.119 0.322,0.175c0.102,0.056 0.208,0.122 0.317,0.199c0.109,0.077 0.225,0.157 0.348,0.239c0.123,0.082 0.249,0.166 0.378,0.252c0.129,0.085 0.252,0.165 0.369,0.238c0.117,0.073 0.238,0.144 0.364,0.212c0.126,0.068 0.251,0.132 0.375,0.19c0.124,0.059 0.252,0.118 0.383,0.179c0.131,0.061 0.261,0.125 0.39,0.192c0.129,0.068 0.252,0.135 0.369,0.204c0.117,0.068 0.227,0.131 0.33,0.187c0.103,0.056 0.198,0.11 0.286,0.161c0.088,0.051 0.169,0.107 0.242,0.167c0.073,0.06 0.151,0.131 0.233,0.213c0.082,0.082 0.167,0.172 0.254,0.271c0.087,0.099 0.177,0.21 0.269,0.333c0.092,0.123 0.189,0.251 0.291,0.384c0.102,0.133 0.205,0.268 0.309,0.405c0.104,0.136 0.212,0.27 0.324,0.401c0.112,0.131 0.218,0.265 0.318,0.401c0.1,0.136 0.194,0.277 0.282,0.422c0.088,0.146 0.173,0.29 0.256,0.434c0.083,0.144 0.163,0.281 0.241,0.413c0.078,0.132 0.157,0.262 0.237,0.391c0.08,0.129 0.159,0.255 0.237,0.38c0.078,0.124 0.153,0.249 0.226,0.376c0.073,0.126 0.146,0.256 0.219,0.389c0.073,0.133 0.146,0.269 0.219,0.408c0.073,0.139 0.144,0.274 0.212,0.405c0.068,0.132 0.131,0.26 0.187,0.384c0.056,0.124 0.111,0.244 0.165,0.361c0.053,0.117 0.102,0.238 0.146,0.364c0.044,0.126 0.09,0.256 0.139,0.389c0.048,0.134 0.096,0.266 0.142,0.397c0.046,0.131 0.09,0.26 0.132,0.387c0.042,0.127 0.082,0.251 0.12,0.372c0.039,0.122 0.079,0.243 0.12,0.365c0.042,0.122 0.082,0.251 0.12,0.389c0.039,0.138 0.083,0.291 0.134,0.46c0.051,0.169 0.104,0.339 0.16,0.509c0.056,0.17 0.11,0.332 0.161,0.486c0.051,0.154 0.102,0.305 0.153,0.453c0.051,0.149 0.096,0.293 0.136,0.435c0.04,0.141 0.069,0.293 0.089,0.454c0.02,0.162 0.031,0.331 0.034,0.508c0.003,0.177 0.008,0.342 0.015,0.494c0.007,0.152 0.013,0.291 0.018,0.418c0.005,0.127 0.011,0.252 0.018,0.376c0.007,0.124 0.015,0.253 0.022,0.386c0.007,0.133 0.015,0.27 0.022,0.411c0.007,0.141 0.015,0.28 0.022,0.416c0.007,0.136 0.015,0.264 0.022,0.384c0.007,0.12 0.013,0.239 0.018,0.358c0.005,0.119 0.011,0.247 0.018,0.385c0.007,0.138 0.015,0.283 0.022,0.436c0.007,0.153 0.015,0.306 0.022,0.459c0.007,0.153 0.015,0.306 0.022,0.459c0.007,0.153 0.016,0.306 0.025,0.459c0.01,0.153 0.017,0.304 0.022,0.452c0.005,0.149 0.01,0.298 0.015,0.448c0.005,0.15 0.008,0.302 0.008,0.455l0,1.478c0,0.173 -0.012,0.341 -0.034,0.504c-0.023,0.164 -0.05,0.316 -0.082,0.458c-0.032,0.142 -0.066,0.276 -0.102,0.403c-0.036,0.127 -0.071,0.249 -0.105,0.366c-0.034,0.117 -0.068,0.23 -0.102,0.34c-0.034,0.109 -0.069,0.221 -0.106,0.335c-0.036,0.114 -0.073,0.236 -0.109,0.367c-0.036,0.13 -0.072,0.272 -0.106,0.424c-0.034,0.152 -0.068,0.309 -0.102,0.469c-0.034,0.16 -0.065,0.314 -0.095,0.46c-0.029,0.147 -0.059,0.286 -0.088,0.418c-0.029,0.132 -0.06,0.256 -0.091,0.373c-0.032,0.117 -0.065,0.231 -0.102,0.344c-0.036,0.112 -0.073,0.224 -0.109,0.336c-0.036,0.112 -0.074,0.223 -0.113,0.335c-0.039,0.112 -0.079,0.228 -0.12,0.349c-0.041,0.121 -0.087,0.251 -0.138,0.388c-0.051,0.138 -0.102,0.277 -0.153,0.418c-0.051,0.141 -0.102,0.279 -0.153,0.413c-0.051,0.134 -0.1,0.269 -0.146,0.405c-0.046,0.136 -0.092,0.273 -0.135,0.412c-0.044,0.139 -0.087,0.27 -0.131,0.395c-0.044,0.125 -0.087,0.243 -0.131,0.355c-0.044,0.112 -0.086,0.219 -0.128,0.322c-0.042,0.102 -0.082,0.205 -0.12,0.307c-0.039,0.102 -0.082,0.21 -0.131,0.324c-0.048,0.114 -0.103,0.233 -0.163,0.359c-0.06,0.126 -0.123,0.251 -0.189,0.375c-0.066,0.124 -0.128,0.24 -0.186,0.348c-0.059,0.108 -0.117,0.211 -0.175,0.311c-0.058,0.1 -0.116,0.196 -0.172,0.289c-0.056,0.093 -0.113,0.183 -0.171,0.271c-0.058,0.088 -0.12,0.175 -0.185,0.263c-0.065,0.087 -0.139,0.18 -0.221,0.276c-0.082,0.097 -0.169,0.194 -0.261,0.291c-0.092,0.097 -0.195,0.198 -0.308,0.302c-0.113,0.104 -0.234,0.211 -0.363,0.32c-0.129,0.109 -0.254,0.215 -0.376,0.318c-0.122,0.103 -0.238,0.197 -0.348,0.282c-0.11,0.086 -0.217,0.165 -0.321,0.238c-0.104,0.073 -0.211,0.15 -0.32,0.23c-0.109,0.08 -0.219,0.162 -0.328,0.247c-0.109,0.085 -0.221,0.17 -0.335,0.255c-0.114,0.085 -0.227,0.167 -0.339,0.245c-0.112,0.078 -0.222,0.147 -0.329,0.206c-0.107,0.059 -0.212,0.112 -0.314,0.158c-0.102,0.046 -0.205,0.088 -0.31,0.125c-0.104,0.037 -0.209,0.073 -0.313,0.11c-0.105,0.036 -0.21,0.071 -0.317,0.102c-0.107,0.032 -0.215,0.061 -0.324,0.088c-0.109,0.027 -0.225,0.057 -0.346,0.091c-0.121,0.034 -0.245,0.07 -0.371,0.108c-0.126,0.039 -0.257,0.086 -0.393,0.141c-0.136,0.055 -0.273,0.113 -0.412,0.174c-0.139,0.06 -0.275,0.12 -0.409,0.179c-0.134,0.059 -0.268,0.116 -0.401,0.172c-0.134,0.056 -0.265,0.113 -0.394,0.171c-0.129,0.058 -0.261,0.117 -0.397,0.178c-0.136,0.06 -0.275,0.126 -0.418,0.196c-0.143,0.07 -0.283,0.137 -0.42,0.201c-0.137,0.064 -0.276,0.124 -0.419,0.18c-0.143,0.056 -0.288,0.106 -0.436,0.15c-0.148,0.044 -0.299,0.083 -0.452,0.118c-0.153,0.035 -0.309,0.061 -0.466,0.078c-0.158,0.018 -0.316,0.031 -0.474,0.041c-0.158,0.01 -0.319,0.018 -0.484,0.023c-0.165,0.005 -0.331,0.01 -0.499,0.015c-0.168,0.005 -0.335,0.008 -0.503,0.011c-0.168,0.003 -0.338,0.006 -0.51,0.011c-0.172,0.005 -0.354,0.015 -0.545,0.032c-0.191,0.016 -0.382,0.036 -0.572,0.057c-0.19,0.022 -0.378,0.044 -0.566,0.066c-0.187,0.022 -0.372,0.046 -0.555,0.073c-0.182,0.026 -0.365,0.052 -0.547,0.077c-0.182,0.025 -0.365,0.05 -0.547,0.077c-0.182,0.026 -0.365,0.053 -0.547,0.08c-0.182,0.027 -0.362,0.048 -0.54,0.063c-0.178,0.015 -0.353,0.026 -0.526,0.034c-0.173,0.008 -0.344,0.016 -0.514,0.026c-0.17,0.01 -0.338,0.022 -0.504,0.036c-0.166,0.014 -0.329,0.025 -0.489,0.033c-0.16,0.008 -0.321,0.013 -0.481,0.015c-0.16,0.003 -0.333,0.004 -0.519,0.004l-0.595,0c-0.211,0 -0.419,-0.001 -0.624,-0.003c-0.205,-0.002 -0.396,-0.013 -0.575,-0.032c-0.179,-0.019 -0.35,-0.039 -0.515,-0.061c-0.165,-0.022 -0.343,-0.041 -0.534,-0.059c-0.191,-0.017 -0.385,-0.031 -0.582,-0.041c-0.197,-0.01 -0.376,-0.023 -0.535,-0.04c-0.16,-0.017 -0.301,-0.039 -0.423,-0.068c-0.122,-0.029 -0.235,-0.066 -0.338,-0.111c-0.103,-0.046 -0.204,-0.096 -0.304,-0.152c-0.1,-0.056 -0.197,-0.117 -0.292,-0.185c-0.095,-0.068 -0.194,-0.145 -0.298,-0.231c-0.104,-0.087 -0.218,-0.183 -0.341,-0.29c-0.123,-0.106 -0.25,-0.21 -0.382,-0.31c-0.131,-0.1 -0.265,-0.194 -0.401,-0.282c-0.136,-0.088 -0.263,-0.165 -0.381,-0.232c-0.118,-0.066 -0.214,-0.115 -0.289,-0.146c-0.11,-0.045 -0.249,-0.075 -0.417,-0.088" style="fill:none;fill-rule:nonzero;stroke:#348ad8;stroke-width:0.85px;"/><path d="M104.028,29.087c-0.019,-0.037 0.074,-0.16 0.28,-0.368c0.206,-0.208 0.432,-0.414 0.678,-0.617c0.246,-0.203 0.491,-0.389 0.732,-0.556c0.242,-0.167 0.454,-0.308 0.636,-0.422c0.183,-0.114 0.327,-0.203 0.435,-0.268c0.107,-0.065 0.185,-0.112 0.233,-0.143c0.048,-0.031 0.089,-0.047 0.123,-0.05c0.034,-0.003 0.074,-0.002 0.12,0.002c0.046,0.004 0.107,0.031 0.183,0.08c0.076,0.049 0.169,0.113 0.277,0.193c0.108,0.079 0.229,0.167 0.362,0.264c0.133,0.097 0.269,0.204 0.407,0.322c0.138,0.118 0.284,0.256 0.436,0.415c0.152,0.159 0.311,0.328 0.476,0.508c0.165,0.18 0.331,0.342 0.499,0.487c0.168,0.145 0.316,0.267 0.445,0.366c0.128,0.099 0.207,0.163 0.235,0.192c0.028,0.029 0.004,0.026 -0.072,-0.01c-0.109,-0.052 -0.338,-0.094 -0.687,-0.127" style="fill:none;fill-rule:nonzero;stroke:#348ad8;stroke-width:0.85px;"/><path d="M95.453,23.596l0,-0.233c0,-0.062 0.013,-0.019 0.04,0.129c0.027,0.148 0.116,0.428 0.267,0.841c0.151,0.413 0.324,0.878 0.517,1.395c0.194,0.518 0.366,1.017 0.518,1.497c0.151,0.48 0.242,0.851 0.273,1.11c0.031,0.26 0.04,0.417 0.026,0.472c-0.013,0.054 -0.031,0.072 -0.054,0.052c-0.023,-0.02 -0.033,-0.098 -0.031,-0.234c0.002,-0.136 0.042,-0.3 0.12,-0.492c0.078,-0.191 0.208,-0.369 0.39,-0.534c0.182,-0.164 0.378,-0.291 0.589,-0.379c0.211,-0.089 0.421,-0.138 0.63,-0.147c0.209,-0.01 0.417,0.03 0.624,0.117c0.207,0.088 0.399,0.219 0.575,0.394c0.176,0.175 0.324,0.372 0.443,0.589c0.119,0.218 0.207,0.443 0.262,0.676c0.056,0.233 0.086,0.454 0.09,0.662c0.004,0.208 -0.037,0.385 -0.122,0.531c-0.085,0.146 -0.216,0.265 -0.391,0.356c-0.175,0.092 -0.366,0.163 -0.571,0.213c-0.206,0.05 -0.438,0.076 -0.698,0.078c-0.26,0.002 -0.536,-0.042 -0.827,-0.13c-0.292,-0.088 -0.551,-0.193 -0.778,-0.316c-0.227,-0.122 -0.37,-0.198 -0.429,-0.228c-0.083,-0.042 -0.068,-0.135 0.045,-0.279" style="fill:none;fill-rule:nonzero;stroke:#348ad8;stroke-width:0.85px;"/><path d="M117.853,29.612c-0.012,-0.03 0.067,-0.124 0.237,-0.281c0.17,-0.157 0.353,-0.337 0.552,-0.541c0.198,-0.203 0.404,-0.428 0.618,-0.673c0.214,-0.245 0.411,-0.463 0.593,-0.653c0.182,-0.19 0.329,-0.325 0.441,-0.405c0.112,-0.08 0.211,-0.122 0.296,-0.126c0.085,-0.004 0.178,0.021 0.279,0.077c0.101,0.055 0.217,0.143 0.347,0.263c0.13,0.12 0.27,0.25 0.417,0.39c0.148,0.14 0.29,0.284 0.427,0.429c0.137,0.146 0.268,0.286 0.395,0.42c0.127,0.134 0.248,0.248 0.365,0.339c0.117,0.092 0.23,0.16 0.34,0.206c0.11,0.045 0.181,0.072 0.213,0.079c0.045,0.011 0.003,-0.155 -0.127,-0.496" style="fill:none;fill-rule:nonzero;stroke:#c2361a;stroke-width:0.85px;"/><path d="M130.015,27.38c-0.024,-0.076 -0.066,-0.171 -0.125,-0.286c-0.059,-0.115 -0.121,-0.211 -0.185,-0.289c-0.064,-0.078 -0.145,-0.144 -0.241,-0.199c-0.096,-0.055 -0.226,-0.081 -0.391,-0.078c-0.165,0.002 -0.373,0.093 -0.625,0.271c-0.252,0.178 -0.503,0.434 -0.753,0.766c-0.25,0.332 -0.421,0.665 -0.513,1c-0.092,0.334 -0.082,0.638 0.028,0.91c0.111,0.272 0.309,0.488 0.594,0.646c0.285,0.158 0.566,0.255 0.843,0.29c0.277,0.035 0.517,-0.004 0.722,-0.118c0.204,-0.114 0.368,-0.305 0.49,-0.574c0.122,-0.268 0.22,-0.55 0.294,-0.844c0.074,-0.295 0.128,-0.56 0.161,-0.796c0.033,-0.236 0.05,-0.422 0.051,-0.557c0.001,-0.135 0.001,-0.225 0.001,-0.269c0,-0.044 -0.006,-0.064 -0.017,-0.061c-0.012,0.004 -0.019,0.072 -0.022,0.206c-0.003,0.134 0.022,0.34 0.074,0.618c0.052,0.278 0.186,0.595 0.401,0.95c0.215,0.355 0.494,0.706 0.835,1.054c0.342,0.347 0.672,0.617 0.99,0.808c0.319,0.191 0.557,0.313 0.715,0.364c0.158,0.051 0.231,0.025 0.219,-0.078" style="fill:none;fill-rule:nonzero;stroke:#c2361a;stroke-width:0.85px;"/><path d="M57.217,11.653l0,-0.228c0,-0.075 0,-0.043 0,0.095l0,0.857c0,0.433 0.013,0.895 0.038,1.385c0.025,0.49 0.054,0.986 0.086,1.486c0.032,0.5 0.058,0.895 0.078,1.185c0.02,0.29 0.038,0.465 0.055,0.528l0.015,0.061l-0.022,-0.067" style="fill:none;fill-rule:nonzero;stroke:#000;stroke-width:0.85px;"/><path d="M51.202,25.827l0.625,0c0.387,0 0.975,-0.018 1.764,-0.054c0.789,-0.036 1.672,-0.104 2.65,-0.202c0.978,-0.099 1.886,-0.197 2.724,-0.294c0.838,-0.097 1.547,-0.181 2.127,-0.251c0.58,-0.07 1.034,-0.111 1.362,-0.122c0.328,-0.011 0.538,-0.017 0.63,-0.017c0.133,-0 0.228,0.068 0.284,0.205" style="fill:none;fill-rule:nonzero;stroke:#000;stroke-width:0.85px;"/><path d="M53.236,32.98c0,-0.074 0.002,-0.166 0.007,-0.277c0.004,-0.11 0.061,-0.223 0.169,-0.338c0.108,-0.115 0.335,-0.27 0.681,-0.467c0.345,-0.196 0.778,-0.402 1.296,-0.616c0.519,-0.215 1.022,-0.389 1.511,-0.524c0.488,-0.135 0.956,-0.221 1.401,-0.258c0.446,-0.037 0.873,-0.034 1.281,0.008c0.408,0.043 0.773,0.132 1.095,0.268c0.322,0.136 0.589,0.3 0.802,0.492c0.213,0.192 0.389,0.423 0.527,0.692c0.138,0.269 0.275,0.576 0.41,0.922c0.135,0.346 0.292,0.7 0.471,1.064c0.179,0.364 0.32,0.743 0.424,1.138c0.104,0.395 0.143,0.811 0.117,1.249c-0.026,0.438 -0.149,0.893 -0.369,1.364c-0.22,0.472 -0.481,0.901 -0.785,1.289c-0.304,0.388 -0.641,0.713 -1.01,0.976c-0.37,0.263 -0.763,0.456 -1.179,0.58c-0.416,0.124 -0.866,0.2 -1.349,0.227c-0.483,0.027 -0.974,0.005 -1.471,-0.065c-0.497,-0.071 -0.933,-0.185 -1.307,-0.344c-0.374,-0.159 -0.709,-0.314 -1.006,-0.465c-0.296,-0.152 -0.557,-0.284 -0.781,-0.398c-0.225,-0.113 -0.39,-0.2 -0.496,-0.261c-0.106,-0.06 -0.18,-0.097 -0.22,-0.111c-0.041,-0.013 -0.079,-0.013 -0.115,-0c-0.036,0.013 -0.079,0.06 -0.13,0.14c-0.051,0.08 -0.102,0.171 -0.153,0.273c-0.051,0.102 -0.101,0.206 -0.149,0.313c-0.049,0.107 -0.095,0.218 -0.139,0.335c-0.044,0.116 -0.075,0.234 -0.094,0.353c-0.018,0.119 -0.027,0.236 -0.028,0.35c-0,0.115 0.022,0.227 0.068,0.337c0.045,0.11 0.136,0.201 0.272,0.273c0.136,0.072 0.297,0.121 0.483,0.147c0.186,0.026 0.378,0.035 0.577,0.027c0.199,-0.008 0.408,-0.068 0.629,-0.177c0.22,-0.11 0.426,-0.25 0.618,-0.422c0.192,-0.171 0.355,-0.364 0.491,-0.578c0.136,-0.214 0.255,-0.49 0.357,-0.826c0.103,-0.337 0.215,-0.774 0.338,-1.311c0.123,-0.537 0.259,-1.105 0.409,-1.704c0.15,-0.599 0.286,-1.116 0.406,-1.551c0.121,-0.435 0.212,-0.778 0.275,-1.03c0.063,-0.251 0.104,-0.438 0.122,-0.56c0.018,-0.122 0.028,-0.186 0.028,-0.194c0,-0.011 -0.209,0.052 -0.629,0.187" style="fill:none;fill-rule:nonzero;stroke:#000;stroke-width:0.85px;"/><path d="M36.371,24.493c-0.06,-0.03 -0.053,-0.046 0.022,-0.047c0.075,-0.001 0.263,-0.005 0.564,-0.01c0.301,-0.005 0.68,-0.008 1.137,-0.008l1.531,0c0.891,0 1.541,0.049 1.949,0.148" style="fill:none;fill-rule:nonzero;stroke:#000;stroke-width:0.85px;"/><path d="M35.736,27.818c0.019,-0.097 0.145,-0.178 0.377,-0.243c0.232,-0.065 0.57,-0.097 1.014,-0.096c0.648,0.002 1.563,0.11 2.748,0.325" style="fill:none;fill-rule:nonzero;stroke:#000;stroke-width:0.85px;"/><path d="M16.159,18.74c0,-0.083 -0.016,-0.178 -0.048,-0.284c-0.032,-0.106 -0.146,-0.182 -0.342,-0.228c-0.196,-0.046 -0.53,-0.041 -1.003,0.014c-0.473,0.055 -1.071,0.242 -1.793,0.56c-0.723,0.319 -1.382,0.684 -1.977,1.097c-0.596,0.413 -1.004,0.78 -1.225,1.104c-0.221,0.323 -0.309,0.594 -0.263,0.813c0.045,0.219 0.177,0.418 0.396,0.596c0.219,0.178 0.504,0.354 0.855,0.526c0.351,0.173 0.779,0.359 1.281,0.559c0.503,0.2 1.058,0.437 1.665,0.711c0.607,0.274 1.196,0.603 1.766,0.988c0.57,0.385 1.025,0.826 1.367,1.322c0.341,0.497 0.543,1.014 0.605,1.551c0.062,0.537 0.067,1.044 0.015,1.521c-0.052,0.477 -0.202,0.916 -0.452,1.317c-0.25,0.402 -0.596,0.764 -1.039,1.088c-0.443,0.324 -0.978,0.577 -1.604,0.758c-0.627,0.181 -1.392,0.276 -2.297,0.285c-0.905,0.009 -1.78,-0.108 -2.626,-0.352c-0.846,-0.243 -1.522,-0.471 -2.03,-0.681c-0.507,-0.211 -0.809,-0.33 -0.905,-0.357c-0.132,-0.038 -0.037,-0.057 0.287,-0.059" style="fill:none;fill-rule:nonzero;stroke:#000;stroke-width:0.85px;"/><path d="M22.103,30.315c0.056,-0.018 0.109,-0.099 0.161,-0.243c0.033,-0.093 -0.018,-0.167 -0.154,-0.221c-0.136,-0.054 -0.353,-0.099 -0.653,-0.134c-0.3,-0.035 -0.611,-0.048 -0.935,-0.038c-0.324,0.01 -0.61,0.102 -0.86,0.277c-0.249,0.175 -0.423,0.429 -0.521,0.762c-0.098,0.333 -0.096,0.686 0.007,1.058c0.103,0.372 0.314,0.678 0.634,0.916c0.32,0.238 0.66,0.366 1.02,0.384c0.36,0.018 0.677,-0.096 0.951,-0.341c0.274,-0.245 0.483,-0.569 0.626,-0.972c0.143,-0.403 0.236,-0.753 0.278,-1.049c0.042,-0.296 0.064,-0.48 0.064,-0.55l0.002,-0.037l0.009,0.127c0.007,0.13 0.06,0.341 0.16,0.634c0.1,0.293 0.255,0.594 0.465,0.903c0.308,0.454 0.798,0.784 1.469,0.988" style="fill:none;fill-rule:nonzero;stroke:#000;stroke-width:0.85px;"/><path d="M25.477,25.477l0,-0.324c0,-0.106 0.024,-0.075 0.072,0.091c0.048,0.166 0.162,0.606 0.344,1.319c0.181,0.713 0.354,1.447 0.518,2.201c0.164,0.754 0.305,1.413 0.424,1.977c0.118,0.564 0.211,0.954 0.279,1.169c0.068,0.215 0.107,0.324 0.119,0.326c0.011,0.002 0.018,-0.068 0.02,-0.213c0.002,-0.144 0.047,-0.362 0.134,-0.652c0.087,-0.29 0.232,-0.555 0.433,-0.795c0.201,-0.24 0.43,-0.397 0.686,-0.472c0.256,-0.075 0.518,-0.013 0.785,0.186c0.268,0.199 0.531,0.499 0.792,0.899c0.26,0.4 0.49,0.778 0.688,1.134c0.198,0.356 0.321,0.666 0.368,0.932c0.047,0.266 -0.038,0.484 -0.257,0.655c-0.219,0.171 -0.518,0.309 -0.898,0.413c-0.38,0.104 -0.742,0.176 -1.087,0.215l-0.258,0.03l0.775,-0.089" style="fill:none;fill-rule:nonzero;stroke:#000;stroke-width:0.85px;"/><path d="M128.909,12.548c0.016,-0.076 0.139,-0.153 0.367,-0.231c0.229,-0.077 0.628,-0.131 1.197,-0.159c0.569,-0.029 1.274,-0.043 2.116,-0.041c0.842,0.002 1.71,0.008 2.604,0.019c0.894,0.011 1.737,0.017 2.529,0.018c0.792,0 1.531,0 2.219,0c0.688,0 1.327,0.004 1.917,0.013c0.59,0.008 1.171,0.028 1.741,0.057c0.571,0.03 1.125,0.057 1.662,0.082c0.537,0.025 1.017,0.051 1.44,0.076c0.423,0.026 0.856,0.042 1.3,0.05c0.444,0.008 0.903,0.012 1.378,0.012c0.475,0 0.922,0 1.341,0c0.42,0 0.805,0.004 1.157,0.013c0.352,0.008 0.708,0.022 1.068,0.041c0.36,0.019 0.751,0.025 1.172,0.019c0.421,-0.006 0.855,-0.04 1.302,-0.103c0.447,-0.063 0.876,-0.118 1.287,-0.165c0.411,-0.047 0.826,-0.079 1.244,-0.096c0.418,-0.017 0.87,-0.042 1.358,-0.075c0.487,-0.033 1.027,-0.079 1.62,-0.136c0.593,-0.057 1.193,-0.105 1.8,-0.144l0.456,-0.029l-1.367,0.087" style="fill:none;fill-rule:nonzero;stroke:#983da2;stroke-width:0.85px;stroke-dasharray:0,1.701;"/><path d="M139.581,28.546c0.033,-0.015 0.232,-0.044 0.598,-0.088c0.366,-0.043 0.947,-0.097 1.745,-0.162c0.797,-0.064 1.695,-0.108 2.693,-0.13c0.998,-0.023 1.977,-0.034 2.936,-0.034c0.959,-0 1.859,0.004 2.702,0.012c0.843,0.008 1.631,0.032 2.364,0.07c0.734,0.038 1.443,0.068 2.128,0.09c0.685,0.022 1.348,0.033 1.987,0.033c0.64,0 1.233,0 1.781,0c0.547,0 1.047,0 1.499,0c0.452,0 0.918,-0.016 1.399,-0.049c0.481,-0.033 0.962,-0.074 1.443,-0.126c0.481,-0.051 0.858,-0.08 1.128,-0.086l0.266,-0.013l-0.074,-0.008" style="fill:none;fill-rule:nonzero;stroke:#983da2;stroke-width:0.85px;stroke-dasharray:0,1.701;"/><path d="M138.483,43.942l1.401,0c0.386,0 0.899,-0.002 1.541,-0.006c0.641,-0.004 1.432,-0.026 2.373,-0.066c0.941,-0.04 1.912,-0.075 2.913,-0.103c1.001,-0.029 1.926,-0.044 2.775,-0.044c0.848,-0.001 1.65,0.013 2.406,0.042c0.755,0.029 1.492,0.042 2.21,0.039c0.718,-0.003 1.367,-0.023 1.946,-0.059c0.58,-0.036 1.096,-0.057 1.548,-0.063c0.453,-0.006 0.874,-0.015 1.262,-0.028c0.389,-0.013 0.737,-0.042 1.044,-0.087c0.476,-0.07 0.804,-0.189 0.984,-0.357" style="fill:none;fill-rule:nonzero;stroke:#983da2;stroke-width:0.85px;stroke-dasharray:0,1.701;"/><path d="M67.653,12.444c-0.088,-0.006 -0.193,-0.031 -0.316,-0.074c-0.123,-0.043 -0.207,-0.088 -0.251,-0.135c-0.044,-0.047 -0.068,-0.079 -0.071,-0.096c-0.003,-0.017 0.055,-0.026 0.174,-0.026c0.119,-0 0.374,-0 0.765,-0l1.553,0c0.644,0 1.383,0.007 2.217,0.022c0.833,0.015 1.649,0.044 2.448,0.088c0.798,0.044 1.532,0.074 2.202,0.091c0.67,0.017 1.31,0.026 1.921,0.026c0.611,0 1.224,-0.017 1.84,-0.052c0.616,-0.035 1.155,-0.069 1.619,-0.103c0.463,-0.034 0.863,-0.051 1.199,-0.051c0.336,-0.001 0.688,-0.005 1.057,-0.014c0.368,-0.008 0.764,-0.022 1.186,-0.041c0.423,-0.019 0.845,-0.028 1.266,-0.029c0.421,-0 0.856,-0 1.304,-0c0.448,0 0.897,-0.017 1.346,-0.052c0.45,-0.035 0.862,-0.079 1.238,-0.133l0.463,-0.061l-0.022,0.006" style="fill:none;fill-rule:nonzero;stroke:#983da2;stroke-width:0.85px;stroke-dasharray:0,1.701;"/><path d="M67.011,28.235l-0.248,0l4.709,0c0.835,0 1.69,-0.002 2.565,-0.007c0.876,-0.004 1.712,-0.011 2.51,-0.02c0.798,-0.009 1.534,-0.02 2.209,-0.034c0.675,-0.014 1.313,-0.022 1.916,-0.025c0.603,-0.002 1.216,-0.019 1.84,-0.05c0.624,-0.031 1.268,-0.067 1.931,-0.109c0.663,-0.041 1.31,-0.083 1.942,-0.124c0.632,-0.041 1.23,-0.077 1.796,-0.108c0.566,-0.031 1.048,-0.042 1.447,-0.035l0.299,0.005l-0.898,-0.016" style="fill:none;fill-rule:nonzero;stroke:#983da2;stroke-width:0.85px;stroke-dasharray:0,1.701;"/><path d="M65.684,44.295c0.042,-0.001 0.147,-0.008 0.314,-0.021c0.167,-0.013 0.351,-0.02 0.553,-0.02c0.201,-0 0.468,-0 0.798,-0l1.278,0c0.521,0 1.145,-0.003 1.871,-0.01c0.726,-0.007 1.471,-0.01 2.233,-0.01c0.762,-0 1.489,-0 2.179,-0c0.69,0 1.343,0.005 1.959,0.016c0.616,0.011 1.211,0.028 1.785,0.051c0.573,0.023 1.096,0.038 1.568,0.046c0.472,0.008 0.879,0.012 1.222,0.012l1.988,0c0.321,0 0.627,0.004 0.918,0.013c0.291,0.009 0.592,0.016 0.904,0.021c0.312,0.005 0.64,0.006 0.985,0.001c0.345,-0.004 0.695,-0.027 1.052,-0.07c0.356,-0.042 0.702,-0.075 1.037,-0.097c0.335,-0.022 0.66,-0.033 0.974,-0.034c0.314,-0 0.597,-0 0.849,-0l0.901,0c0.07,0 0.054,0.026 -0.045,0.079" style="fill:none;fill-rule:nonzero;stroke:#983da2;stroke-width:0.85px;stroke-dasharray:0,1.701;"/><path d="M167.764,42.43c-0.008,-0.054 0.092,-0.199 0.299,-0.436c0.208,-0.237 0.42,-0.467 0.637,-0.691c0.217,-0.224 0.39,-0.407 0.518,-0.549c0.128,-0.142 0.218,-0.23 0.269,-0.263c0.051,-0.033 0.08,-0.017 0.088,0.049c0.008,0.066 0.012,0.241 0.012,0.526c0,0.285 -0.006,0.634 -0.02,1.047c-0.013,0.413 -0.023,0.859 -0.031,1.339c-0.008,0.48 -0.011,0.955 -0.011,1.426c0,0.471 -0,0.873 -0,1.205c0,0.332 0.01,0.547 0.029,0.645c0.019,0.098 0.059,0.142 0.119,0.133c0.06,-0.009 0.065,-0.023 0.014,-0.043c-0.072,-0.028 -0.056,-0.15 0.047,-0.367" style="fill:none;fill-rule:nonzero;stroke:#983da2;stroke-width:0.85px;"/><path d="M167.412,47.175c0.033,-0.023 0.182,-0.051 0.448,-0.085c0.266,-0.034 0.647,-0.053 1.143,-0.056c0.733,-0.004 1.581,-0.06 2.545,-0.167" style="fill:none;fill-rule:nonzero;stroke:#983da2;stroke-width:0.85px;"/><path d="M168.718,26.183c0.009,-0.196 0.075,-0.396 0.197,-0.598c0.122,-0.202 0.312,-0.356 0.568,-0.46c0.256,-0.104 0.525,-0.162 0.807,-0.172c0.281,-0.01 0.531,0.049 0.748,0.179c0.217,0.129 0.375,0.333 0.471,0.612c0.097,0.279 0.109,0.625 0.037,1.039c-0.072,0.414 -0.276,0.864 -0.612,1.349c-0.336,0.485 -0.65,0.917 -0.943,1.296c-0.293,0.379 -0.487,0.672 -0.582,0.881c-0.095,0.209 -0.073,0.36 0.067,0.453c0.139,0.093 0.387,0.163 0.743,0.211c0.356,0.047 0.747,0.076 1.174,0.087c0.427,0.011 0.833,0.007 1.218,-0.01c0.386,-0.017 0.629,-0.034 0.731,-0.049c0.142,-0.022 0.084,-0.188 -0.173,-0.498" style="fill:none;fill-rule:nonzero;stroke:#983da2;stroke-width:0.85px;"/><path d="M168.179,7.035c0,-0.085 0.078,-0.185 0.234,-0.3c0.156,-0.115 0.431,-0.212 0.825,-0.289c0.394,-0.077 0.808,-0.122 1.242,-0.133c0.434,-0.012 0.815,0.032 1.142,0.13c0.327,0.098 0.554,0.254 0.679,0.467c0.126,0.213 0.092,0.452 -0.1,0.715c-0.192,0.263 -0.525,0.538 -0.996,0.826c-0.472,0.288 -0.877,0.548 -1.217,0.782c-0.34,0.233 -0.545,0.416 -0.614,0.548c-0.07,0.132 0.006,0.261 0.227,0.387c0.221,0.126 0.527,0.265 0.918,0.418c0.391,0.153 0.77,0.329 1.139,0.527c0.368,0.198 0.666,0.431 0.894,0.698c0.228,0.267 0.35,0.555 0.368,0.865c0.017,0.31 -0.087,0.601 -0.313,0.873c-0.226,0.272 -0.525,0.497 -0.896,0.676c-0.371,0.179 -0.745,0.298 -1.122,0.358c-0.377,0.06 -0.712,0.072 -1.005,0.038l-0.22,-0.026l0.66,0.077" style="fill:none;fill-rule:nonzero;stroke:#983da2;stroke-width:0.85px;"/><g transform="matrix(1,0,0,0.383077,0,-12.289111)"><text x="5.882px" y="138.697px" style="font-family:'Helvetica';font-size:101.673px;fill:none;">S<tspan x="57.143px 97.134px " y="138.697px 138.697px ">ab</tspan></text></g></svg>