<?xml version="1.0" encoding="UTF-8" standalone="no"?><!DOCTYPE svg PUBLIC "-//W3C//DTD SVG 1.1//EN" "http://www.w3.org/Graphics/SVG/1.1/DTD/svg11.dtd"><svg width="100%" height="100%" viewBox="0 0 157 76" version="1.1" xmlns="http://www.w3.org/2000/svg" xmlns:xlink="http://www.w3.org/1999/xlink" xml:space="preserve" xmlns:serif="http://www.serif.com/" style="fill-rule:evenodd;clip-rule:evenodd;stroke-linecap:round;stroke-linejoin:round;stroke-miterlimit:10;"><rect id="Artboard2" x="0" y="0" width="156.24" height="75.12" style="fill:none;"/><rect x="0" y="0" width="156.24" height="75.12" style="fill:#fff;"/><path d="M44.369,6.259c0.058,0.02 0.147,0.012 0.269,-0.024c0.078,-0.023 0.116,-0.045 0.114,-0.065c-0.002,-0.02 -0.082,-0.026 -0.24,-0.016c-0.157,0.01 -0.358,0.065 -0.602,0.164c-0.244,0.1 -0.481,0.216 -0.711,0.349c-0.23,0.133 -0.491,0.285 -0.782,0.456c-0.291,0.171 -0.597,0.348 -0.918,0.531c-0.321,0.183 -0.623,0.35 -0.906,0.501c-0.283,0.152 -0.561,0.31 -0.833,0.474c-0.273,0.164 -0.549,0.351 -0.83,0.561c-0.281,0.21 -0.564,0.419 -0.849,0.626c-0.285,0.207 -0.562,0.397 -0.833,0.568c-0.27,0.172 -0.539,0.338 -0.806,0.498c-0.267,0.16 -0.533,0.321 -0.798,0.481c-0.265,0.16 -0.526,0.32 -0.781,0.478c-0.255,0.158 -0.511,0.318 -0.766,0.481c-0.255,0.162 -0.513,0.341 -0.772,0.537c-0.26,0.196 -0.515,0.391 -0.766,0.586c-0.251,0.195 -0.49,0.37 -0.717,0.525c-0.227,0.155 -0.45,0.292 -0.668,0.412c-0.219,0.12 -0.438,0.243 -0.656,0.368c-0.219,0.126 -0.435,0.269 -0.649,0.431c-0.214,0.162 -0.421,0.322 -0.621,0.48c-0.2,0.158 -0.397,0.318 -0.591,0.478c-0.194,0.16 -0.391,0.331 -0.591,0.512c-0.199,0.181 -0.403,0.379 -0.612,0.591c-0.208,0.213 -0.414,0.419 -0.616,0.62c-0.202,0.2 -0.393,0.377 -0.571,0.53c-0.179,0.153 -0.351,0.298 -0.519,0.436c-0.168,0.138 -0.347,0.299 -0.538,0.485c-0.191,0.185 -0.381,0.389 -0.568,0.612c-0.188,0.223 -0.363,0.438 -0.527,0.646c-0.164,0.208 -0.313,0.405 -0.448,0.593c-0.135,0.188 -0.265,0.375 -0.392,0.562c-0.126,0.187 -0.25,0.382 -0.372,0.585c-0.122,0.203 -0.239,0.412 -0.351,0.626c-0.113,0.214 -0.214,0.423 -0.305,0.627c-0.09,0.204 -0.178,0.41 -0.264,0.616c-0.085,0.206 -0.168,0.418 -0.248,0.634c-0.08,0.216 -0.16,0.432 -0.241,0.649c-0.08,0.217 -0.148,0.42 -0.203,0.611c-0.055,0.191 -0.093,0.375 -0.113,0.552c-0.021,0.177 -0.037,0.372 -0.049,0.584c-0.012,0.212 -0.023,0.439 -0.033,0.682c-0.01,0.243 -0.02,0.478 -0.03,0.708c-0.01,0.229 -0.017,0.451 -0.022,0.665c-0.005,0.214 -0.01,0.429 -0.015,0.642c-0.005,0.214 -0.012,0.424 -0.022,0.631c-0.01,0.207 -0.016,0.402 -0.019,0.586c-0.003,0.184 -0.004,0.352 -0.004,0.506l0,0.429c0,0.132 0.012,0.269 0.034,0.412c0.023,0.143 0.055,0.292 0.096,0.447c0.041,0.155 0.091,0.316 0.151,0.484c0.06,0.167 0.135,0.337 0.227,0.51c0.091,0.172 0.195,0.347 0.311,0.524c0.116,0.177 0.237,0.354 0.363,0.529c0.126,0.175 0.253,0.334 0.379,0.477c0.126,0.142 0.255,0.272 0.386,0.39c0.131,0.117 0.276,0.233 0.435,0.347c0.159,0.114 0.33,0.232 0.512,0.353c0.182,0.121 0.369,0.239 0.56,0.354c0.191,0.115 0.393,0.219 0.603,0.312c0.211,0.093 0.424,0.174 0.641,0.243c0.216,0.068 0.423,0.146 0.618,0.233c0.195,0.087 0.374,0.175 0.536,0.265c0.162,0.09 0.313,0.169 0.455,0.239c0.142,0.069 0.28,0.127 0.417,0.174c0.136,0.047 0.263,0.085 0.381,0.115c0.117,0.03 0.215,0.049 0.292,0.057c0.077,0.008 0.132,0.012 0.165,0.012c0.033,0 0.062,0.001 0.086,0.003c0.035,0.003 0.098,0.04 0.19,0.11" style="fill:none;fill-rule:nonzero;stroke:#000;stroke-width:0.85px;"/><path d="M29.316,38.688c0.049,-0.056 0.101,-0.112 0.156,-0.169c0.055,-0.057 0.101,-0.093 0.139,-0.11c0.038,-0.017 0.09,-0.039 0.157,-0.068c0.067,-0.029 0.154,-0.074 0.262,-0.135c0.108,-0.062 0.245,-0.149 0.413,-0.261c0.168,-0.112 0.372,-0.257 0.612,-0.434c0.241,-0.177 0.491,-0.379 0.752,-0.607c0.26,-0.227 0.49,-0.444 0.69,-0.649c0.2,-0.205 0.373,-0.407 0.521,-0.604c0.147,-0.197 0.283,-0.397 0.408,-0.601c0.125,-0.204 0.24,-0.406 0.348,-0.605c0.107,-0.2 0.213,-0.4 0.318,-0.602c0.105,-0.201 0.212,-0.413 0.321,-0.636c0.109,-0.223 0.204,-0.448 0.283,-0.677c0.08,-0.229 0.139,-0.447 0.179,-0.654c0.04,-0.208 0.075,-0.408 0.103,-0.6c0.029,-0.192 0.067,-0.378 0.115,-0.556c0.048,-0.178 0.099,-0.349 0.152,-0.512c0.053,-0.163 0.101,-0.332 0.143,-0.506c0.042,-0.175 0.075,-0.352 0.1,-0.531c0.025,-0.18 0.045,-0.36 0.06,-0.543c0.015,-0.182 0.023,-0.368 0.023,-0.557c0,-0.189 0,-0.382 0,-0.579l0,-0.591c0,-0.197 -0.014,-0.391 -0.041,-0.584c-0.028,-0.192 -0.064,-0.385 -0.11,-0.58c-0.046,-0.194 -0.093,-0.385 -0.142,-0.573c-0.049,-0.188 -0.102,-0.361 -0.16,-0.52c-0.058,-0.159 -0.12,-0.311 -0.188,-0.457c-0.068,-0.146 -0.134,-0.3 -0.197,-0.462c-0.064,-0.162 -0.124,-0.318 -0.18,-0.467c-0.056,-0.149 -0.112,-0.283 -0.168,-0.401c-0.056,-0.118 -0.116,-0.22 -0.181,-0.306c-0.065,-0.086 -0.137,-0.178 -0.217,-0.277c-0.08,-0.099 -0.168,-0.2 -0.265,-0.305c-0.097,-0.105 -0.193,-0.209 -0.288,-0.314c-0.095,-0.105 -0.186,-0.205 -0.274,-0.303c-0.088,-0.097 -0.173,-0.198 -0.256,-0.303c-0.083,-0.104 -0.166,-0.208 -0.248,-0.31c-0.083,-0.102 -0.161,-0.201 -0.234,-0.296c-0.073,-0.095 -0.134,-0.179 -0.181,-0.25c-0.047,-0.072 -0.076,-0.131 -0.088,-0.177l-0.008,-0.035l0.025,0.105" style="fill:none;fill-rule:nonzero;stroke:#000;stroke-width:0.85px;"/><path d="M24.285,14.013c0.025,-0.034 -0.073,-0.104 -0.293,-0.211c-0.22,-0.107 -0.443,-0.207 -0.668,-0.301c-0.226,-0.094 -0.481,-0.198 -0.766,-0.314c-0.285,-0.116 -0.574,-0.241 -0.865,-0.377c-0.292,-0.135 -0.588,-0.28 -0.889,-0.435c-0.301,-0.155 -0.61,-0.312 -0.928,-0.47c-0.318,-0.158 -0.623,-0.318 -0.917,-0.481c-0.293,-0.162 -0.568,-0.346 -0.824,-0.55c-0.256,-0.204 -0.512,-0.431 -0.767,-0.681c-0.255,-0.25 -0.524,-0.487 -0.807,-0.712c-0.283,-0.225 -0.571,-0.424 -0.863,-0.596c-0.292,-0.172 -0.541,-0.313 -0.747,-0.422c-0.206,-0.109 -0.368,-0.211 -0.483,-0.305c-0.116,-0.094 -0.245,-0.217 -0.387,-0.368c-0.142,-0.152 -0.289,-0.286 -0.44,-0.402c-0.151,-0.116 -0.267,-0.206 -0.349,-0.268c-0.081,-0.063 -0.104,-0.092 -0.068,-0.088c0.051,0.005 0.211,0.022 0.48,0.049" style="fill:none;fill-rule:nonzero;stroke:#000;stroke-width:0.85px;"/><path d="M29.141,38.797l0.175,-0.009l-0.004,-0c-0.015,-0 -0.051,0.127 -0.109,0.383c-0.058,0.255 -0.093,0.561 -0.107,0.917c-0.013,0.356 -0.02,0.742 -0.02,1.158c-0,0.416 0.01,0.846 0.031,1.291c0.021,0.444 0.051,0.89 0.093,1.337c0.041,0.447 0.067,0.894 0.078,1.342c0.011,0.447 0.017,0.879 0.017,1.297c0,0.417 0,0.799 0,1.144l0,0.948c0,0.286 -0.007,0.562 -0.02,0.827c-0.014,0.265 -0.041,0.537 -0.082,0.815c-0.041,0.278 -0.076,0.594 -0.106,0.948c-0.03,0.354 -0.05,0.74 -0.06,1.159c-0.01,0.419 -0.016,0.828 -0.016,1.229c-0,0.4 -0.011,0.769 -0.031,1.107c-0.021,0.338 -0.053,0.662 -0.096,0.973c-0.043,0.311 -0.084,0.637 -0.121,0.979c-0.037,0.342 -0.063,0.697 -0.079,1.065c-0.015,0.369 -0.023,0.733 -0.024,1.094c-0,0.36 -0,0.7 -0,1.017c0,0.318 -0.007,0.634 -0.021,0.95c-0.014,0.315 -0.035,0.654 -0.064,1.016c-0.029,0.362 -0.051,0.735 -0.066,1.12c-0.015,0.385 -0.023,0.75 -0.024,1.097c-0,0.347 -0,0.668 -0,0.964c0,0.296 -0.002,0.574 -0.007,0.835c-0.005,0.261 -0.014,0.533 -0.028,0.816c-0.014,0.283 -0.023,0.567 -0.026,0.852c-0.003,0.285 -0.004,0.565 -0.004,0.84l0,1.182c0,0.087 0.004,0.134 0.011,0.141c0.007,0.006 -0.002,-0.013 -0.027,-0.057c-0.036,-0.064 -0.148,-0.265 -0.336,-0.602" style="fill:none;fill-rule:nonzero;stroke:#000;stroke-width:0.85px;"/><path d="M19.208,28.832c-0.057,-0.013 -0.187,-0.003 -0.389,0.031c-0.122,0.02 -0.197,0.033 -0.224,0.039c-0.027,0.005 -0.04,0.008 -0.041,0.008c-0,0 0.018,-0.008 0.054,-0.023c0.036,-0.016 0.119,-0.079 0.247,-0.189c0.128,-0.111 0.284,-0.246 0.467,-0.405c0.183,-0.159 0.371,-0.318 0.563,-0.477c0.192,-0.159 0.376,-0.287 0.552,-0.385c0.176,-0.098 0.337,-0.16 0.484,-0.186c0.147,-0.027 0.284,-0.011 0.41,0.045c0.127,0.057 0.258,0.16 0.393,0.311c0.135,0.151 0.291,0.302 0.467,0.454c0.176,0.151 0.359,0.29 0.548,0.414c0.189,0.125 0.373,0.233 0.551,0.324c0.178,0.091 0.323,0.165 0.436,0.22c0.112,0.056 0.122,0.082 0.029,0.078" style="fill:none;fill-rule:nonzero;stroke:#000;stroke-width:0.85px;"/><path d="M13.195,26.832c-0.052,-0.05 -0.109,-0.125 -0.171,-0.227c-0.062,-0.101 -0.14,-0.185 -0.235,-0.251c-0.095,-0.066 -0.223,-0.112 -0.386,-0.138c-0.163,-0.026 -0.359,0.009 -0.588,0.107c-0.229,0.098 -0.439,0.302 -0.629,0.614c-0.191,0.312 -0.306,0.635 -0.345,0.971c-0.04,0.335 0.008,0.588 0.141,0.757c0.134,0.17 0.315,0.268 0.545,0.293c0.23,0.026 0.455,0.014 0.677,-0.036c0.222,-0.05 0.427,-0.163 0.616,-0.339c0.189,-0.176 0.352,-0.396 0.49,-0.66c0.138,-0.264 0.242,-0.556 0.313,-0.876c0.071,-0.32 0.115,-0.588 0.134,-0.803c0.018,-0.215 0.028,-0.349 0.028,-0.403c0,-0.054 -0.001,-0.08 -0.003,-0.078c-0.002,0.002 -0.006,0.04 -0.011,0.116c-0.005,0.076 -0.008,0.205 -0.008,0.386c-0,0.181 0.01,0.403 0.03,0.665c0.02,0.262 0.069,0.549 0.145,0.862c0.076,0.313 0.153,0.598 0.231,0.857c0.119,0.395 0.273,0.643 0.463,0.743" style="fill:none;fill-rule:nonzero;stroke:#000;stroke-width:0.85px;"/><path d="M33.144,28.953c-0.037,0.006 -0.11,0.017 -0.219,0.031c-0.066,0.009 -0.073,-0.006 -0.019,-0.044c0.054,-0.038 0.167,-0.138 0.342,-0.299c0.174,-0.161 0.321,-0.304 0.441,-0.429c0.119,-0.124 0.233,-0.237 0.34,-0.338c0.108,-0.101 0.21,-0.177 0.308,-0.23c0.097,-0.053 0.195,-0.085 0.292,-0.096c0.097,-0.011 0.213,-0.001 0.347,0.031c0.134,0.032 0.286,0.099 0.455,0.201c0.169,0.102 0.345,0.217 0.527,0.343c0.182,0.126 0.356,0.251 0.522,0.375c0.166,0.124 0.326,0.235 0.479,0.334c0.228,0.146 0.494,0.247 0.8,0.304" style="fill:none;fill-rule:nonzero;stroke:#000;stroke-width:0.85px;"/><path d="M40.953,24.493c-0.039,-0.002 -0.126,-0.002 -0.261,0.002c-0.081,0.002 -0.122,0.058 -0.124,0.169c-0.001,0.11 0.024,0.332 0.078,0.666c0.053,0.334 0.123,0.774 0.211,1.319c0.087,0.545 0.17,1.08 0.249,1.606c0.079,0.525 0.131,0.916 0.157,1.172c0.026,0.257 0.04,0.397 0.04,0.423c0,0.025 -0.016,-0.01 -0.048,-0.107c-0.032,-0.097 -0.055,-0.257 -0.07,-0.482c-0.014,-0.225 0.045,-0.455 0.18,-0.689c0.134,-0.234 0.327,-0.436 0.58,-0.604c0.252,-0.168 0.532,-0.279 0.839,-0.332c0.307,-0.053 0.611,-0.024 0.911,0.088c0.301,0.112 0.542,0.289 0.725,0.531c0.183,0.243 0.299,0.495 0.35,0.758c0.051,0.263 0.04,0.504 -0.033,0.725c-0.072,0.221 -0.216,0.408 -0.43,0.561c-0.215,0.153 -0.465,0.261 -0.753,0.323c-0.287,0.062 -0.586,0.084 -0.897,0.068c-0.472,-0.025 -0.81,-0.14 -1.014,-0.344" style="fill:none;fill-rule:nonzero;stroke:#000;stroke-width:0.85px;"/><path d="M26.832,55.286c-0.014,0.037 -0.107,0.111 -0.279,0.223c-0.102,0.066 -0.166,0.104 -0.192,0.115c-0.026,0.011 -0.038,0.013 -0.033,0.006c0.004,-0.007 0.015,-0.025 0.033,-0.054c0.018,-0.029 0.099,-0.108 0.245,-0.236c0.146,-0.128 0.319,-0.29 0.52,-0.484c0.201,-0.194 0.393,-0.411 0.577,-0.651c0.184,-0.239 0.34,-0.464 0.469,-0.673c0.129,-0.209 0.227,-0.363 0.294,-0.463c0.068,-0.099 0.124,-0.149 0.171,-0.15c0.046,-0.001 0.113,0.076 0.201,0.23c0.088,0.154 0.213,0.348 0.375,0.583c0.163,0.234 0.351,0.471 0.566,0.709c0.215,0.238 0.432,0.448 0.652,0.629c0.219,0.181 0.415,0.306 0.587,0.376c0.172,0.07 0.285,0.109 0.341,0.116c0.078,0.011 0.14,-0.208 0.185,-0.657" style="fill:none;fill-rule:nonzero;stroke:#000;stroke-width:0.85px;"/><path d="M38.413,52.344c0.059,-0.008 0.115,-0.063 0.168,-0.164c0.035,-0.067 0.013,-0.112 -0.068,-0.135c-0.08,-0.023 -0.217,-0.028 -0.41,-0.015c-0.193,0.013 -0.426,0.087 -0.699,0.223c-0.272,0.135 -0.546,0.333 -0.822,0.594c-0.276,0.261 -0.484,0.581 -0.625,0.961c-0.141,0.38 -0.183,0.765 -0.128,1.156c0.056,0.391 0.233,0.701 0.531,0.93c0.298,0.229 0.675,0.358 1.132,0.386c0.456,0.028 0.93,-0.007 1.421,-0.106c0.491,-0.098 0.804,-0.163 0.939,-0.194c0.196,-0.045 0.298,-0.142 0.307,-0.292" style="fill:none;fill-rule:nonzero;stroke:#000;stroke-width:0.85px;"/><path d="M56.506,35.997c-0.028,0.049 0.166,0.091 0.582,0.125c0.416,0.034 0.903,0.049 1.461,0.047c0.558,-0.002 1.115,-0.015 1.67,-0.039c0.555,-0.024 0.903,-0.037 1.044,-0.04l0.105,-0.002l-0.316,0.007" style="fill:none;fill-rule:nonzero;stroke:#000;stroke-width:0.85px;"/><path d="M55.796,39.506c-0.061,0.086 -0.061,0.161 -0.002,0.224c0.041,0.044 0.219,0.029 0.534,-0.045c0.314,-0.074 0.707,-0.157 1.179,-0.248c0.471,-0.091 0.967,-0.142 1.487,-0.152c0.777,-0.015 1.57,0.042 2.381,0.172" style="fill:none;fill-rule:nonzero;stroke:#000;stroke-width:0.85px;"/><path d="M75.121,31.972c-0.067,0.036 -0.129,0.128 -0.187,0.278c-0.058,0.15 -0.079,0.423 -0.062,0.82c0.017,0.397 0.08,0.952 0.189,1.666c0.109,0.713 0.192,1.505 0.249,2.375c0.057,0.87 0.087,1.66 0.09,2.37c0.003,0.71 0.002,1.211 -0.006,1.505c-0.007,0.293 -0.011,0.454 -0.011,0.481l-0,0.022l-0,-0.016l0,-0.319" style="fill:none;fill-rule:nonzero;stroke:#000;stroke-width:0.85px;"/><path d="M75.864,31.382c-0.058,-0.077 -0.105,-0.201 -0.139,-0.373c-0.034,-0.172 0.029,-0.338 0.189,-0.499c0.161,-0.161 0.447,-0.283 0.861,-0.368c0.413,-0.084 0.876,-0.085 1.389,-0.003c0.513,0.083 1.03,0.23 1.551,0.442c0.522,0.212 0.935,0.419 1.24,0.621c0.305,0.202 0.418,0.452 0.339,0.75c-0.079,0.299 -0.374,0.664 -0.884,1.095c-0.51,0.431 -1.026,0.854 -1.548,1.267c-0.522,0.414 -0.935,0.745 -1.241,0.996c-0.306,0.25 -0.485,0.402 -0.536,0.454c-0.052,0.052 -0.042,0.078 0.03,0.079c0.071,0.001 0.168,0.024 0.291,0.069c0.123,0.045 0.266,0.15 0.429,0.314c0.163,0.164 0.369,0.36 0.619,0.589c0.25,0.229 0.527,0.473 0.832,0.732c0.305,0.259 0.617,0.528 0.938,0.807c0.32,0.278 0.657,0.561 1.011,0.849c0.354,0.288 0.689,0.535 1.005,0.743c0.316,0.208 0.58,0.362 0.792,0.463l0.159,0.076l-0.477,-0.227" style="fill:none;fill-rule:nonzero;stroke:#000;stroke-width:0.85px;"/><path d="M86.845,29.675c0.017,-0.063 0.032,-0.159 0.045,-0.285c0.014,-0.127 0.02,-0.249 0.02,-0.365c0,-0.117 -0.012,-0.225 -0.037,-0.326c-0.025,-0.101 -0.093,-0.177 -0.204,-0.227c-0.111,-0.051 -0.271,-0.061 -0.481,-0.031c-0.21,0.03 -0.456,0.173 -0.739,0.428c-0.283,0.255 -0.523,0.581 -0.721,0.977c-0.198,0.396 -0.286,0.755 -0.263,1.076c0.023,0.321 0.169,0.54 0.439,0.657c0.27,0.117 0.55,0.168 0.841,0.153c0.291,-0.015 0.552,-0.131 0.786,-0.346c0.233,-0.215 0.431,-0.492 0.595,-0.83c0.163,-0.338 0.276,-0.633 0.339,-0.884c0.062,-0.251 0.095,-0.411 0.099,-0.481l0.005,-0.073l0,0.013l0,0.222c0,0.118 0.036,0.347 0.106,0.686c0.071,0.339 0.189,0.665 0.354,0.979c0.165,0.314 0.322,0.544 0.471,0.691l0.112,0.11l-0.335,-0.331" style="fill:none;fill-rule:nonzero;stroke:#000;stroke-width:0.85px;"/><path d="M90.717,24.754c-0.097,0.058 -0.187,0.191 -0.271,0.399c-0.084,0.209 -0.129,0.568 -0.135,1.077c-0.006,0.51 0.01,1.138 0.049,1.884c0.039,0.746 0.076,1.381 0.112,1.904c0.035,0.523 0.056,0.833 0.061,0.931c0.006,0.098 0.013,0.096 0.022,-0.004c0.009,-0.1 0.055,-0.272 0.139,-0.516c0.084,-0.244 0.23,-0.509 0.44,-0.797c0.21,-0.287 0.433,-0.512 0.669,-0.673c0.237,-0.162 0.44,-0.223 0.611,-0.183c0.171,0.04 0.307,0.226 0.408,0.56c0.102,0.333 0.189,0.682 0.263,1.047c0.074,0.364 0.112,0.648 0.113,0.852c0.002,0.203 -0.127,0.339 -0.385,0.407c-0.258,0.068 -0.591,0.103 -0.998,0.107c-0.407,0.003 -0.674,0.005 -0.801,0.005c-0.178,0 -0.192,-0.167 -0.043,-0.5" style="fill:none;fill-rule:nonzero;stroke:#000;stroke-width:0.85px;"/><path d="M91.286,41.619c-0.078,-0.004 -0.165,-0.023 -0.26,-0.059c-0.095,-0.036 -0.174,-0.074 -0.236,-0.115c-0.063,-0.041 -0.149,-0.075 -0.258,-0.103c-0.109,-0.028 -0.269,-0.037 -0.479,-0.027c-0.21,0.01 -0.452,0.107 -0.725,0.291c-0.274,0.184 -0.493,0.439 -0.657,0.764c-0.164,0.325 -0.228,0.625 -0.189,0.899c0.038,0.274 0.208,0.468 0.51,0.584c0.302,0.115 0.663,0.176 1.084,0.181c0.632,0.008 1.253,-0.002 1.862,-0.029" style="fill:none;fill-rule:nonzero;stroke:#000;stroke-width:0.85px;"/><path d="M108.678,5.679c-0.003,0.084 -0.002,0.176 0.005,0.275c0.004,0.066 0.027,0.144 0.066,0.236c0.04,0.092 0.104,0.229 0.192,0.41c0.088,0.181 0.207,0.393 0.358,0.634c0.151,0.241 0.32,0.503 0.509,0.786c0.189,0.283 0.385,0.595 0.589,0.938c0.204,0.342 0.408,0.714 0.612,1.114c0.204,0.4 0.405,0.772 0.602,1.115c0.197,0.343 0.398,0.667 0.601,0.971c0.203,0.304 0.426,0.626 0.668,0.967c0.242,0.341 0.457,0.71 0.645,1.107c0.188,0.397 0.349,0.793 0.484,1.188c0.135,0.395 0.266,0.772 0.392,1.133c0.126,0.361 0.261,0.715 0.403,1.063c0.143,0.348 0.301,0.69 0.475,1.026c0.174,0.336 0.341,0.668 0.5,0.997c0.159,0.329 0.311,0.658 0.453,0.988c0.143,0.33 0.314,0.671 0.513,1.023c0.2,0.352 0.411,0.71 0.635,1.074c0.224,0.364 0.442,0.726 0.657,1.086c0.214,0.36 0.423,0.718 0.628,1.073c0.204,0.355 0.415,0.725 0.63,1.11c0.216,0.385 0.434,0.762 0.655,1.131c0.221,0.369 0.433,0.721 0.636,1.057c0.203,0.336 0.381,0.665 0.533,0.986c0.152,0.321 0.291,0.641 0.415,0.959c0.125,0.318 0.257,0.654 0.397,1.007c0.14,0.353 0.287,0.705 0.44,1.057c0.153,0.351 0.293,0.674 0.421,0.968c0.128,0.294 0.243,0.554 0.346,0.78c0.103,0.226 0.21,0.462 0.321,0.708c0.111,0.246 0.236,0.511 0.376,0.794c0.14,0.283 0.284,0.568 0.433,0.856c0.148,0.288 0.282,0.549 0.4,0.786c0.118,0.236 0.215,0.41 0.289,0.522c0.075,0.112 0.134,0.189 0.179,0.232c0.045,0.043 0.076,0.082 0.093,0.117c0.024,0.049 0,0.078 -0.072,0.086" style="fill:none;fill-rule:nonzero;stroke:#000;stroke-width:0.85px;"/><path d="M125.257,38.009l-0.006,0.012l0.031,-0.082c0.029,-0.076 0.102,-0.264 0.219,-0.567c0.117,-0.302 0.282,-0.698 0.495,-1.186c0.213,-0.489 0.474,-1.073 0.782,-1.753c0.308,-0.68 0.626,-1.356 0.955,-2.03c0.329,-0.673 0.651,-1.306 0.967,-1.897c0.316,-0.591 0.616,-1.141 0.9,-1.65c0.284,-0.509 0.553,-0.994 0.809,-1.457c0.256,-0.463 0.514,-0.931 0.777,-1.404c0.262,-0.473 0.513,-0.937 0.753,-1.391c0.24,-0.454 0.458,-0.89 0.656,-1.308c0.198,-0.418 0.397,-0.852 0.599,-1.3c0.201,-0.448 0.396,-0.891 0.584,-1.327c0.188,-0.437 0.367,-0.845 0.538,-1.226c0.17,-0.381 0.35,-0.75 0.538,-1.108c0.188,-0.357 0.388,-0.75 0.599,-1.177c0.211,-0.427 0.397,-0.853 0.558,-1.277c0.16,-0.425 0.298,-0.813 0.413,-1.166c0.115,-0.352 0.255,-0.704 0.42,-1.056c0.165,-0.351 0.355,-0.706 0.571,-1.064c0.216,-0.358 0.417,-0.716 0.603,-1.075c0.186,-0.358 0.355,-0.73 0.507,-1.113c0.152,-0.384 0.303,-0.751 0.453,-1.101c0.15,-0.35 0.289,-0.655 0.417,-0.916c0.128,-0.26 0.257,-0.522 0.387,-0.786c0.13,-0.264 0.253,-0.533 0.369,-0.807c0.116,-0.275 0.218,-0.535 0.306,-0.78c0.089,-0.246 0.156,-0.431 0.201,-0.558c0.045,-0.126 0.071,-0.198 0.077,-0.214l0.003,-0.007l-0.015,0.042c-0.02,0.057 -0.059,0.167 -0.117,0.332" style="fill:none;fill-rule:nonzero;stroke:#000;stroke-width:0.85px;"/><path d="M124.819,38.053c0.019,-0.094 0.047,-0.205 0.082,-0.332c0.036,-0.127 0.059,-0.209 0.069,-0.246c0.01,-0.036 0.016,-0.039 0.016,-0.009c0.001,0.03 0.002,0.107 0.004,0.228c0.002,0.122 0.002,0.404 0,0.846c-0.002,0.442 -0.009,0.873 -0.021,1.293c-0.012,0.42 -0.018,0.839 -0.019,1.26c-0,0.42 -0,0.871 -0,1.351l0,4.575c0,0.383 -0.008,0.759 -0.024,1.128c-0.016,0.369 -0.039,0.741 -0.068,1.117c-0.029,0.376 -0.047,0.769 -0.053,1.179c-0.006,0.41 -0.009,0.829 -0.009,1.255c-0,0.427 -0,0.839 -0,1.238c0,0.398 0.003,0.787 0.01,1.165c0.007,0.378 0.022,0.766 0.046,1.162c0.024,0.396 0.045,0.792 0.062,1.189c0.018,0.396 0.028,0.774 0.031,1.132c0.003,0.358 0.002,0.73 -0.002,1.115c-0.004,0.385 -0.023,0.77 -0.056,1.154c-0.033,0.385 -0.07,0.773 -0.111,1.166c-0.041,0.393 -0.081,0.776 -0.12,1.15c-0.039,0.374 -0.065,0.709 -0.079,1.006c-0.013,0.297 -0.02,0.569 -0.02,0.816c-0,0.247 0.002,0.483 0.007,0.71c0.005,0.226 0.008,0.462 0.011,0.706c0.003,0.244 0.004,0.504 0.004,0.777l0,3.001c0,0.159 -0.001,0.31 -0.003,0.454c-0.002,0.144 -0.006,0.271 -0.011,0.382c-0.005,0.111 -0.008,0.21 -0.008,0.298c-0,0.123 -0.042,0.179 -0.125,0.167" style="fill:none;fill-rule:nonzero;stroke:#000;stroke-width:0.85px;"/><path d="M114.502,22.114c0.039,0.02 0.129,0.002 0.27,-0.053c0.088,-0.035 0.144,-0.069 0.168,-0.103c0.024,-0.034 0.037,-0.081 0.039,-0.14c0.003,-0.059 0.025,-0.163 0.066,-0.313c0.042,-0.15 0.101,-0.334 0.179,-0.553c0.077,-0.219 0.139,-0.441 0.184,-0.665c0.045,-0.224 0.072,-0.418 0.081,-0.582c0.008,-0.163 0.014,-0.281 0.016,-0.352c0.002,-0.071 0.023,-0.115 0.063,-0.131c0.039,-0.016 0.106,-0.01 0.198,0.019c0.093,0.029 0.208,0.1 0.345,0.212c0.137,0.112 0.28,0.227 0.428,0.344c0.148,0.117 0.296,0.222 0.444,0.316c0.215,0.136 0.542,0.199 0.981,0.189" style="fill:none;fill-rule:nonzero;stroke:#000;stroke-width:0.85px;"/><path d="M131.985,19.087c-0.009,0.067 -0.047,0.145 -0.113,0.233c-0.043,0.057 -0.064,0.088 -0.06,0.091c0.003,0.003 0.061,0.003 0.172,-0.002c0.112,-0.004 0.256,-0.027 0.432,-0.066c0.176,-0.04 0.365,-0.099 0.566,-0.178c0.201,-0.079 0.4,-0.17 0.597,-0.274c0.197,-0.104 0.384,-0.197 0.559,-0.278c0.176,-0.081 0.345,-0.153 0.509,-0.214c0.164,-0.062 0.297,-0.101 0.399,-0.117c0.102,-0.016 0.182,0.011 0.239,0.081c0.057,0.07 0.1,0.225 0.127,0.462c0.027,0.238 0.068,0.51 0.123,0.817c0.054,0.307 0.132,0.604 0.233,0.89c0.101,0.286 0.205,0.525 0.312,0.716c0.107,0.191 0.195,0.325 0.263,0.402c0.091,0.103 0.072,0.133 -0.056,0.089" style="fill:none;fill-rule:nonzero;stroke:#000;stroke-width:0.85px;"/><path d="M122.653,55.465c0.106,0.08 0.2,0.051 0.283,-0.086c0.083,-0.137 0.173,-0.287 0.268,-0.447c0.095,-0.161 0.208,-0.338 0.339,-0.532c0.13,-0.194 0.27,-0.38 0.417,-0.559c0.148,-0.179 0.288,-0.322 0.42,-0.43c0.132,-0.108 0.261,-0.171 0.387,-0.191c0.126,-0.02 0.27,-0.002 0.431,0.052c0.161,0.055 0.34,0.153 0.536,0.294c0.196,0.141 0.385,0.294 0.565,0.459c0.181,0.165 0.354,0.33 0.52,0.495c0.166,0.166 0.32,0.318 0.461,0.458c0.141,0.14 0.237,0.228 0.288,0.265c0.072,0.052 0.196,-0.105 0.372,-0.472" style="fill:none;fill-rule:nonzero;stroke:#000;stroke-width:0.85px;"/><path d="M108.654,18.425c0.086,0.006 0.159,-0.008 0.22,-0.044c0.041,-0.024 0.076,-0.015 0.105,0.027c0.028,0.042 0.06,0.224 0.094,0.544c0.034,0.321 0.058,0.768 0.07,1.342c0.012,0.574 0.026,1.136 0.04,1.685c0.014,0.549 0.043,0.963 0.085,1.242c0.043,0.279 0.085,0.44 0.127,0.482c0.042,0.043 0.08,0.028 0.113,-0.045c0.033,-0.073 0.111,-0.225 0.233,-0.455c0.122,-0.231 0.284,-0.469 0.487,-0.714c0.202,-0.245 0.414,-0.418 0.635,-0.519c0.221,-0.101 0.443,-0.122 0.667,-0.063c0.224,0.059 0.418,0.21 0.581,0.452c0.164,0.243 0.281,0.516 0.353,0.821c0.071,0.305 0.096,0.592 0.073,0.862c-0.023,0.27 -0.152,0.498 -0.389,0.683c-0.237,0.186 -0.518,0.315 -0.844,0.387c-0.326,0.072 -0.598,0.102 -0.817,0.087c-0.219,-0.014 -0.349,-0.036 -0.387,-0.064c-0.055,-0.041 0.057,-0.267 0.336,-0.678" style="fill:none;fill-rule:nonzero;stroke:#000;stroke-width:0.85px;"/><path d="M142.036,20.132c0.052,0.012 0.131,0.008 0.237,-0.014c0.068,-0.014 0.103,-0.035 0.106,-0.064c0.003,-0.029 -0.025,-0.061 -0.084,-0.097c-0.059,-0.036 -0.191,-0.066 -0.394,-0.089c-0.203,-0.023 -0.487,0.002 -0.852,0.077c-0.365,0.074 -0.744,0.27 -1.139,0.587c-0.394,0.317 -0.695,0.678 -0.902,1.081c-0.207,0.404 -0.253,0.728 -0.14,0.974c0.114,0.246 0.348,0.39 0.703,0.433c0.355,0.043 0.69,0.001 1.004,-0.125c0.314,-0.126 0.57,-0.348 0.769,-0.665c0.199,-0.317 0.346,-0.644 0.442,-0.98c0.095,-0.336 0.149,-0.574 0.161,-0.715l0.006,-0.081l-0.02,0.215c-0.021,0.231 -0.029,0.506 -0.022,0.825c0.007,0.32 0.056,0.666 0.15,1.04c0.093,0.374 0.216,0.707 0.368,1.002c0.152,0.294 0.256,0.476 0.311,0.546c0.079,0.1 0.229,0.121 0.45,0.065" style="fill:none;fill-rule:nonzero;stroke:#000;stroke-width:0.85px;"/><path d="M135.756,53.365c-0.033,0.031 -0.17,0.081 -0.409,0.153c-0.24,0.071 -0.525,0.209 -0.855,0.414c-0.331,0.205 -0.649,0.497 -0.954,0.875c-0.306,0.379 -0.499,0.767 -0.581,1.165c-0.082,0.398 -0.009,0.723 0.219,0.975c0.228,0.252 0.587,0.411 1.077,0.475c0.723,0.095 1.587,0.081 2.592,-0.04" style="fill:none;fill-rule:nonzero;stroke:#000;stroke-width:0.85px;"/></svg>