<?xml version="1.0" encoding="UTF-8" standalone="no"?><!DOCTYPE svg PUBLIC "-//W3C//DTD SVG 1.1//EN" "http://www.w3.org/Graphics/SVG/1.1/DTD/svg11.dtd"><svg width="100%" height="100%" viewBox="0 0 204 45" version="1.1" xmlns="http://www.w3.org/2000/svg" xmlns:xlink="http://www.w3.org/1999/xlink" xml:space="preserve" xmlns:serif="http://www.serif.com/" style="fill-rule:evenodd;clip-rule:evenodd;stroke-linecap:round;stroke-linejoin:round;stroke-miterlimit:10;"><rect x="0" y="0" width="204" height="45" style="fill:#fff;"/><path d="M4.151,21.347c-0.069,-0.031 -0.141,-0.073 -0.217,-0.127c-0.076,-0.054 -0.108,-0.092 -0.097,-0.115c0.011,-0.023 0.067,-0.036 0.167,-0.039c0.1,-0.003 0.192,-0.005 0.276,-0.005c0.084,0 0.156,0.009 0.217,0.028c0.061,0.018 0.144,0.039 0.249,0.061c0.105,0.022 0.269,0.035 0.495,0.038c0.225,0.003 0.529,0.005 0.91,0.005c0.382,0 0.79,-0.003 1.224,-0.011c0.434,-0.007 0.852,-0.011 1.252,-0.011l1.197,0c0.397,0 0.804,-0.017 1.22,-0.052c0.416,-0.034 0.79,-0.075 1.123,-0.122c0.332,-0.047 0.605,-0.073 0.818,-0.076c0.213,-0.004 0.419,0.019 0.62,0.068c0.2,0.049 0.466,0.091 0.798,0.127c0.332,0.036 0.719,0.048 1.162,0.038c0.443,-0.011 0.867,-0.038 1.273,-0.081c0.406,-0.044 0.773,-0.064 1.101,-0.061c0.328,0.003 0.664,0.031 1.006,0.083c0.343,0.052 0.735,0.084 1.176,0.096c0.441,0.012 0.901,-0.015 1.38,-0.079c0.479,-0.065 0.913,-0.124 1.301,-0.178c0.388,-0.054 0.75,-0.075 1.085,-0.065c0.336,0.01 0.713,0.043 1.132,0.098c0.419,0.055 0.878,0.089 1.376,0.1c0.499,0.011 0.983,0.001 1.452,-0.031c0.47,-0.032 0.887,-0.065 1.252,-0.098c0.365,-0.033 0.717,-0.048 1.055,-0.047c0.338,0.002 0.678,0.016 1.021,0.045c0.342,0.028 0.706,0.045 1.09,0.051c0.385,0.006 0.75,0.007 1.096,0.002c0.346,-0.005 0.628,-0.008 0.847,-0.011c0.219,-0.003 0.386,0.003 0.501,0.016c0.115,0.013 0.186,0.03 0.214,0.05l0.016,0.012l-0.042,-0.027c-0.066,-0.044 -0.16,-0.098 -0.28,-0.162" style="fill:none;fill-rule:nonzero;stroke:#000;stroke-width:0.85px;"/><path d="M19.332,5.182c0,-0.083 0.001,-0.18 0.003,-0.292c0.002,-0.111 0.014,-0.187 0.035,-0.228c0.021,-0.041 0.062,-0.048 0.124,-0.023c0.061,0.026 0.133,0.158 0.216,0.397c0.083,0.239 0.155,0.59 0.217,1.054c0.062,0.464 0.102,0.994 0.121,1.591c0.018,0.596 0.028,1.196 0.028,1.798l0,3.058c0,0.423 0.002,0.824 0.007,1.205c0.004,0.381 0.019,0.751 0.043,1.111c0.024,0.36 0.04,0.723 0.048,1.09c0.008,0.367 0.012,0.701 0.012,1c0,0.3 0.003,0.58 0.01,0.84c0.007,0.26 0.027,0.542 0.06,0.847c0.033,0.304 0.059,0.624 0.077,0.958c0.018,0.334 0.027,0.674 0.028,1.019c0,0.345 -0.004,0.686 -0.013,1.022c-0.009,0.336 -0.026,0.658 -0.05,0.965c-0.024,0.307 -0.042,0.59 -0.052,0.85c-0.01,0.26 -0.022,0.51 -0.036,0.75c-0.014,0.241 -0.037,0.497 -0.068,0.77c-0.031,0.273 -0.065,0.57 -0.101,0.892c-0.036,0.322 -0.061,0.646 -0.075,0.972c-0.013,0.326 -0.02,0.619 -0.02,0.877l0,3.044c0,0.309 -0.001,0.607 -0.003,0.895c-0.002,0.288 -0.01,0.54 -0.025,0.757c-0.014,0.217 -0.024,0.415 -0.029,0.596c-0.005,0.18 -0.01,0.382 -0.015,0.606c-0.005,0.223 -0.019,0.487 -0.042,0.79c-0.024,0.303 -0.043,0.607 -0.058,0.91c-0.015,0.303 -0.023,0.54 -0.023,0.712c0,0.171 0.006,0.273 0.019,0.307c0.013,0.033 0.015,0.028 0.005,-0.016c-0.015,-0.065 -0.005,-0.127 0.03,-0.187" style="fill:none;fill-rule:nonzero;stroke:#000;stroke-width:0.85px;"/><path d="M40.178,33.29c-0.128,0.037 -0.292,0.193 -0.492,0.468c-0.201,0.275 -0.429,0.735 -0.685,1.38c-0.256,0.644 -0.482,1.288 -0.678,1.932c-0.196,0.644 -0.322,1.087 -0.376,1.332l-0.04,0.183l0.121,-0.549" style="fill:none;fill-rule:nonzero;stroke:#000;stroke-width:0.85px;"/><path d="M53.103,20.519c-0.03,-0.03 -0.097,-0.077 -0.203,-0.14c-0.065,-0.039 -0.101,-0.058 -0.11,-0.059l-0.011,-0.001l0.664,0c0.231,0 0.54,0.006 0.924,0.018c0.385,0.012 0.86,0.02 1.425,0.025c0.565,0.005 1.16,0.011 1.784,0.019c0.624,0.007 1.217,0.023 1.78,0.046c0.562,0.023 1.082,0.041 1.558,0.051c0.476,0.011 0.949,-0.009 1.417,-0.059c0.468,-0.05 0.952,-0.128 1.452,-0.235c0.5,-0.107 1.001,-0.183 1.505,-0.23c0.504,-0.047 0.983,-0.064 1.436,-0.051c0.453,0.013 0.911,0.043 1.372,0.092c0.461,0.049 0.932,0.069 1.413,0.062c0.48,-0.007 0.978,-0.058 1.492,-0.152c0.514,-0.095 1.003,-0.178 1.465,-0.251c0.463,-0.073 0.874,-0.115 1.235,-0.126c0.361,-0.011 0.71,-0.017 1.048,-0.017c0.338,0 0.643,-0.006 0.913,-0.017c0.271,-0.012 0.5,-0.019 0.687,-0.022c0.187,-0.003 0.359,0.003 0.515,0.019c0.156,0.016 0.338,0.044 0.547,0.086c0.208,0.041 0.457,0.07 0.746,0.085c0.289,0.015 0.588,0.023 0.897,0.023c0.309,0 0.597,0.009 0.863,0.024c0.266,0.016 0.516,0.041 0.747,0.075c0.232,0.034 0.461,0.055 0.687,0.063c0.226,0.008 0.451,0.013 0.675,0.013c0.224,0 0.405,-0.003 0.543,-0.01c0.191,-0.009 0.125,-0.114 -0.198,-0.315" style="fill:none;fill-rule:nonzero;stroke:#000;stroke-width:0.85px;"/><path d="M66.581,5.248c0.031,-0.082 0.092,-0.076 0.184,0.017c0.091,0.094 0.172,0.339 0.243,0.736c0.07,0.397 0.139,0.866 0.208,1.406c0.068,0.54 0.133,1.095 0.194,1.664c0.061,0.569 0.112,1.127 0.152,1.672c0.04,0.545 0.066,1.068 0.079,1.568c0.012,0.5 0.046,0.977 0.1,1.431c0.054,0.454 0.103,0.88 0.146,1.278c0.043,0.398 0.064,0.782 0.063,1.152c-0.001,0.37 -0.031,0.745 -0.089,1.126c-0.059,0.381 -0.113,0.781 -0.163,1.203c-0.05,0.421 -0.096,0.877 -0.139,1.367c-0.043,0.49 -0.112,0.991 -0.207,1.503c-0.095,0.512 -0.178,0.979 -0.249,1.404c-0.071,0.424 -0.109,0.812 -0.115,1.164c-0.006,0.352 0.005,0.701 0.035,1.048c0.03,0.347 0.079,0.725 0.149,1.136c0.07,0.411 0.124,0.819 0.163,1.224c0.038,0.405 0.058,0.772 0.058,1.1c0.001,0.328 0.005,0.643 0.014,0.944c0.009,0.301 0.033,0.618 0.071,0.95c0.038,0.332 0.063,0.661 0.074,0.988c0.011,0.327 0.017,0.621 0.017,0.885l0,1.308c0,0.217 -0.001,0.454 -0.003,0.711c-0.002,0.257 -0.013,0.506 -0.032,0.748c-0.019,0.242 -0.039,0.458 -0.061,0.65c-0.022,0.191 -0.051,0.365 -0.086,0.522c-0.036,0.156 -0.071,0.288 -0.107,0.395l-0.027,0.08l0.08,-0.24" style="fill:none;fill-rule:nonzero;stroke:#000;stroke-width:0.85px;"/><path d="M83.664,36.528c-0.007,0.06 -0.029,0.195 -0.068,0.406c-0.038,0.211 -0.126,0.531 -0.262,0.959c-0.136,0.428 -0.308,0.887 -0.513,1.375c-0.336,0.797 -0.609,1.267 -0.82,1.41" style="fill:none;fill-rule:nonzero;stroke:#000;stroke-width:0.85px;"/><path d="M115.12,5.729c-0.034,0.041 -0.026,0.22 0.023,0.537c0.05,0.317 0.091,0.682 0.125,1.093c0.034,0.411 0.084,0.85 0.151,1.316c0.067,0.466 0.14,0.917 0.217,1.354c0.078,0.437 0.144,0.839 0.199,1.206c0.054,0.367 0.091,0.716 0.109,1.047c0.019,0.331 0.028,0.669 0.028,1.014c0,0.344 0.001,0.688 0.001,1.031l0,2.07c0,0.36 -0.021,0.741 -0.062,1.141c-0.042,0.4 -0.092,0.804 -0.15,1.212c-0.059,0.408 -0.114,0.811 -0.165,1.208c-0.052,0.397 -0.093,0.771 -0.123,1.122c-0.03,0.351 -0.056,0.711 -0.078,1.079c-0.021,0.368 -0.039,0.742 -0.051,1.122c-0.013,0.379 -0.021,0.754 -0.023,1.123c-0.003,0.369 -0.015,0.744 -0.035,1.123c-0.021,0.38 -0.05,0.734 -0.086,1.064c-0.037,0.33 -0.063,0.66 -0.078,0.989c-0.016,0.329 -0.033,0.709 -0.051,1.14c-0.019,0.431 -0.04,0.865 -0.062,1.302c-0.022,0.436 -0.035,0.83 -0.038,1.182c-0.003,0.351 -0.004,0.649 -0.004,0.893l0,1.396c0,0.244 -0.004,0.486 -0.011,0.725c-0.007,0.239 -0.025,0.471 -0.056,0.694c-0.031,0.224 -0.071,0.455 -0.121,0.695c-0.05,0.24 -0.107,0.48 -0.171,0.721c-0.063,0.241 -0.113,0.461 -0.148,0.66c-0.035,0.199 -0.054,0.353 -0.057,0.461l-0.003,0.081l0.008,-0.244" style="fill:none;fill-rule:nonzero;stroke:#000;stroke-width:0.85px;"/><path d="M99.414,21.347c0.011,-0.097 0.044,-0.208 0.099,-0.334c0.055,-0.126 0.134,-0.215 0.237,-0.268c0.103,-0.053 0.241,-0.083 0.415,-0.089c0.174,-0.006 0.426,0.008 0.757,0.043c0.33,0.034 0.775,0.084 1.333,0.149c0.558,0.065 1.185,0.13 1.882,0.193c0.697,0.063 1.373,0.119 2.028,0.165c0.654,0.047 1.284,0.082 1.89,0.105c0.605,0.023 1.247,0.019 1.927,-0.012c0.68,-0.031 1.385,-0.103 2.115,-0.216c0.731,-0.113 1.445,-0.211 2.143,-0.295c0.697,-0.084 1.341,-0.14 1.931,-0.166c0.59,-0.026 1.14,-0.04 1.65,-0.04l3.169,0c0.564,0 1.115,-0.016 1.653,-0.048c0.537,-0.032 1.017,-0.077 1.439,-0.136c0.423,-0.059 0.811,-0.097 1.165,-0.116c0.353,-0.018 0.709,-0.028 1.066,-0.028l1.033,0c0.332,0 0.638,0.002 0.917,0.007c0.279,0.005 0.536,0.008 0.771,0.011c0.235,0.003 0.444,0.006 0.629,0.011c0.184,0.005 0.335,0.014 0.452,0.028c0.117,0.014 0.203,0.025 0.258,0.033c0.056,0.008 0.09,0.013 0.104,0.015l0.01,0.002l-0.031,-0.006" style="fill:none;fill-rule:nonzero;stroke:#000;stroke-width:0.85px;"/><path d="M136.841,20.625c0.063,-0.026 0.29,-0.053 0.681,-0.081c0.391,-0.028 0.832,-0.043 1.323,-0.046c0.491,-0.003 0.985,-0.003 1.482,-0.001c0.496,0.002 0.809,0.005 0.94,0.01l0.097,0.003l-0.293,-0.01" style="fill:none;fill-rule:nonzero;stroke:#000;stroke-width:0.85px;"/><path d="M138.941,19.094c0.047,0.044 0.182,0.252 0.404,0.625c0.222,0.373 0.396,0.831 0.521,1.377c0.126,0.545 0.196,0.904 0.21,1.076c0.02,0.247 -0.062,0.402 -0.246,0.464" style="fill:none;fill-rule:nonzero;stroke:#000;stroke-width:0.85px;"/><path d="M151.648,22.647c-0.092,-0.02 -0.195,-0.014 -0.311,0.017c-0.077,0.021 -0.113,0.173 -0.11,0.455c0.003,0.283 0.057,0.691 0.162,1.226c0.105,0.535 0.225,1.065 0.359,1.592c0.135,0.527 0.241,0.924 0.319,1.193c0.077,0.269 0.121,0.406 0.13,0.413c0.01,0.006 -0.044,-0.155 -0.161,-0.483c-0.118,-0.328 -0.289,-0.845 -0.514,-1.549c-0.224,-0.704 -0.401,-1.512 -0.531,-2.425c-0.129,-0.912 -0.182,-1.729 -0.158,-2.451c0.024,-0.722 0.097,-1.234 0.219,-1.536c0.122,-0.302 0.254,-0.484 0.396,-0.545c0.142,-0.061 0.31,-0.098 0.502,-0.111c0.193,-0.013 0.388,-0.021 0.586,-0.024c0.197,-0.003 0.385,0.04 0.563,0.129c0.178,0.089 0.327,0.279 0.447,0.572c0.119,0.292 0.203,0.623 0.251,0.991c0.049,0.368 0.055,0.711 0.018,1.027c-0.037,0.316 -0.188,0.578 -0.454,0.784c-0.266,0.206 -0.63,0.348 -1.092,0.424l-0.346,0.057l1.039,-0.172" style="fill:none;fill-rule:nonzero;stroke:#000;stroke-width:0.85px;"/><path d="M155.631,20.756c0.065,-0.028 0.216,-0.056 0.455,-0.082c0.238,-0.026 0.499,-0.078 0.78,-0.155c0.282,-0.076 0.555,-0.242 0.818,-0.497c0.263,-0.255 0.417,-0.554 0.464,-0.897c0.046,-0.344 -0.061,-0.572 -0.322,-0.685c-0.261,-0.113 -0.571,-0.034 -0.929,0.237c-0.358,0.271 -0.621,0.685 -0.788,1.242c-0.167,0.557 -0.186,1.091 -0.058,1.603c0.129,0.512 0.406,0.864 0.832,1.058c0.426,0.194 0.721,0.18 0.884,-0.041" style="fill:none;fill-rule:nonzero;stroke:#000;stroke-width:0.85px;"/><path d="M160.356,19.685c0,0.041 0.002,0.193 0.006,0.458c0.005,0.265 0.025,0.575 0.06,0.931c0.036,0.356 0.067,0.66 0.094,0.914c0.028,0.254 0.044,0.424 0.05,0.51l0.007,0.089l0.001,-0.018l0,-0.289c0,-0.154 0.002,-0.47 0.007,-0.948c0.004,-0.478 0.058,-0.934 0.162,-1.368c0.104,-0.435 0.276,-0.762 0.515,-0.983c0.239,-0.221 0.406,-0.344 0.5,-0.369c0.134,-0.035 0.268,0.092 0.403,0.382" style="fill:none;fill-rule:nonzero;stroke:#000;stroke-width:0.85px;"/><path d="M163.33,19.575c0,0.066 0.019,0.28 0.055,0.641c0.037,0.361 0.082,0.728 0.137,1.102c0.054,0.374 0.09,0.654 0.108,0.839c0.019,0.186 0.028,0.262 0.028,0.23c0,-0.032 0.025,-0.262 0.075,-0.689c0.05,-0.427 0.187,-0.948 0.412,-1.564c0.225,-0.616 0.466,-1.1 0.722,-1.452c0.257,-0.352 0.441,-0.495 0.551,-0.428c0.111,0.067 0.168,0.332 0.17,0.795c0.003,0.463 -0.004,0.919 -0.022,1.369c-0.017,0.449 -0.02,0.788 -0.009,1.016c0.01,0.228 0.083,0.319 0.219,0.271c0.135,-0.047 0.321,-0.253 0.556,-0.618c0.235,-0.365 0.479,-0.705 0.73,-1.021c0.252,-0.315 0.436,-0.485 0.554,-0.51c0.119,-0.024 0.181,0.155 0.188,0.537c0.007,0.382 0.027,0.809 0.06,1.282c0.033,0.472 0.07,0.688 0.111,0.649" style="fill:none;fill-rule:nonzero;stroke:#000;stroke-width:0.85px;"/><path d="M169.302,19.313c-0.034,0.068 -0.088,0.211 -0.164,0.43c-0.076,0.219 -0.12,0.508 -0.132,0.868c-0.012,0.36 0.047,0.709 0.179,1.049c0.131,0.339 0.332,0.57 0.6,0.693c0.269,0.123 0.552,0.08 0.849,-0.128c0.297,-0.208 0.555,-0.585 0.775,-1.132c0.22,-0.547 0.384,-1.024 0.493,-1.433c0.109,-0.409 0.169,-0.645 0.182,-0.709c0.012,-0.064 0.018,-0.066 0.018,-0.007l0,0.443c0,0.236 0.017,0.583 0.052,1.041c0.034,0.457 0.084,0.872 0.149,1.245c0.065,0.373 0.146,0.495 0.242,0.366" style="fill:none;fill-rule:nonzero;stroke:#000;stroke-width:0.85px;"/><path d="M174.815,12.751l0,-0.153l0.001,0.002c0.001,0.01 0.003,0.036 0.006,0.076c0.004,0.041 0.026,0.486 0.066,1.337c0.041,0.85 0.062,1.928 0.064,3.232c0.003,2.178 -0.109,3.522 -0.335,4.032" style="fill:none;fill-rule:nonzero;stroke:#000;stroke-width:0.85px;"/><path d="M174.661,18.394c0.033,-0.191 0.165,-0.339 0.395,-0.444c0.332,-0.152 0.777,-0.048 1.335,0.31" style="fill:none;fill-rule:nonzero;stroke:#000;stroke-width:0.85px;"/><path d="M179.172,19.423c0.013,-0.077 0.059,-0.249 0.14,-0.515c0.048,-0.16 0.025,-0.257 -0.07,-0.293c-0.095,-0.036 -0.297,0.048 -0.607,0.25c-0.311,0.202 -0.586,0.52 -0.825,0.952c-0.239,0.433 -0.364,0.829 -0.373,1.19c-0.01,0.361 0.135,0.588 0.432,0.681c0.298,0.094 0.642,0.035 1.031,-0.176c0.389,-0.211 0.735,-0.544 1.038,-0.999c0.303,-0.455 0.517,-0.808 0.641,-1.058c0.124,-0.25 0.151,-0.281 0.079,-0.092c-0.071,0.189 -0.136,0.501 -0.196,0.935c-0.06,0.435 -0.09,0.718 -0.09,0.851c-0.001,0.19 0.165,0.33 0.499,0.422" style="fill:none;fill-rule:nonzero;stroke:#000;stroke-width:0.85px;"/><path d="M183.739,12.772c-0.03,0.019 -0.082,0.454 -0.157,1.307c-0.074,0.852 -0.135,1.878 -0.183,3.077c-0.048,1.199 -0.099,2.3 -0.153,3.304c-0.054,1.003 -0.15,1.698 -0.288,2.086l-0.104,0.291l0.311,-0.872" style="fill:none;fill-rule:nonzero;stroke:#000;stroke-width:0.85px;"/><path d="M182.274,17.869c0.018,0.02 0.204,0.172 0.557,0.457c0.523,0.421 1.192,0.751 2.005,0.99" style="fill:none;fill-rule:nonzero;stroke:#000;stroke-width:0.85px;"/><path d="M186.058,19.269c0.067,0.02 0.135,0.196 0.203,0.529c0.067,0.333 0.082,0.784 0.044,1.354c-0.038,0.57 -0.088,1.047 -0.151,1.432l-0.045,0.302l0.052,-0.25" style="fill:none;fill-rule:nonzero;stroke:#000;stroke-width:0.85px;"/><path d="M186.714,17.06c0.06,-0.04 0.338,0.373 0.834,1.239" style="fill:none;fill-rule:nonzero;stroke:#000;stroke-width:0.85px;"/><path d="M190.083,20.32c-0.111,-0.045 -0.247,-0.098 -0.407,-0.159c-0.104,-0.04 -0.192,-0.001 -0.263,0.115c-0.072,0.116 -0.149,0.331 -0.233,0.644c-0.084,0.313 -0.121,0.624 -0.111,0.933c0.01,0.309 0.117,0.525 0.322,0.647c0.204,0.122 0.442,0.132 0.714,0.03c0.272,-0.102 0.501,-0.36 0.688,-0.772c0.187,-0.412 0.308,-0.875 0.364,-1.389c0.055,-0.514 0.083,-0.906 0.084,-1.178c0.001,-0.271 0.005,-0.425 0.014,-0.46c0.009,-0.035 0.072,-0.028 0.189,0.022c0.117,0.05 0.251,0.139 0.401,0.266c0.151,0.127 0.298,0.265 0.442,0.415c0.144,0.149 0.275,0.356 0.393,0.62c0.118,0.265 0.201,0.584 0.25,0.958c0.049,0.374 0.076,0.71 0.079,1.007c0.003,0.297 0.009,0.491 0.018,0.581c0.009,0.09 0.035,0.067 0.078,-0.068c0.042,-0.135 0.113,-0.423 0.212,-0.863c0.099,-0.44 0.258,-0.919 0.477,-1.438c0.22,-0.519 0.441,-0.891 0.665,-1.117c0.223,-0.225 0.373,-0.21 0.45,0.047c0.076,0.257 0.106,0.668 0.089,1.232c-0.018,0.564 -0.046,1.062 -0.085,1.492l-0.03,0.323l0.089,-0.969" style="fill:none;fill-rule:nonzero;stroke:#000;stroke-width:0.85px;"/><path d="M198.723,18c-0.022,-0.064 -0.157,-0.086 -0.403,-0.067c-0.246,0.019 -0.492,0.12 -0.737,0.302c-0.245,0.182 -0.429,0.393 -0.554,0.633c-0.124,0.24 -0.164,0.466 -0.121,0.679c0.044,0.213 0.207,0.4 0.489,0.559c0.282,0.159 0.566,0.322 0.852,0.489c0.287,0.167 0.538,0.354 0.755,0.562c0.217,0.208 0.38,0.424 0.489,0.65c0.108,0.226 0.157,0.448 0.145,0.667c-0.012,0.219 -0.106,0.412 -0.283,0.577c-0.177,0.166 -0.385,0.285 -0.625,0.359c-0.352,0.108 -0.773,0.103 -1.263,-0.017" style="fill:none;fill-rule:nonzero;stroke:#000;stroke-width:0.85px;"/><path d="M52.165,20.844c0.058,-0.082 0.146,-0.19 0.264,-0.325c0.118,-0.135 0.205,-0.231 0.261,-0.29c0.056,-0.059 0.088,-0.09 0.097,-0.094c0.009,-0.004 0.016,0.02 0.023,0.071c0.007,0.051 0.092,0.097 0.256,0.138c0.164,0.041 0.45,0.059 0.858,0.056c0.408,-0.004 0.859,-0.021 1.353,-0.052c0.494,-0.031 0.994,-0.051 1.5,-0.059c0.506,-0.008 1.015,-0.013 1.527,-0.013c0.512,0 1.02,-0.011 1.522,-0.034c0.502,-0.023 0.947,-0.068 1.333,-0.135c0.386,-0.068 0.73,-0.114 1.032,-0.141c0.301,-0.026 0.571,-0.035 0.809,-0.026c0.238,0.009 0.487,0.026 0.747,0.053c0.26,0.027 0.539,0.041 0.835,0.041c0.296,0.001 0.57,-0.013 0.82,-0.04c0.251,-0.028 0.439,-0.052 0.566,-0.072c0.126,-0.021 0.215,-0.032 0.265,-0.035c0.05,-0.003 0.111,0.007 0.182,0.031c0.071,0.023 0.17,0.038 0.297,0.044c0.127,0.006 0.253,0.009 0.378,0.009l0.433,0c0,0 0.002,0.001 0.007,0.003c0.004,0.002 0.016,0.013 0.036,0.032c0.019,0.019 0.035,0.046 0.048,0.081c0.012,0.035 0.019,0.098 0.019,0.188c0,0.09 0.006,0.212 0.017,0.365c0.011,0.153 0.046,0.335 0.106,0.544c0.059,0.21 0.113,0.438 0.16,0.684c0.047,0.247 0.074,0.514 0.08,0.802c0.006,0.288 0.001,0.587 -0.015,0.898c-0.016,0.311 -0.034,0.616 -0.054,0.915c-0.02,0.3 -0.03,0.586 -0.031,0.86c0,0.273 0.012,0.534 0.037,0.783c0.025,0.249 0.055,0.501 0.09,0.758c0.035,0.256 0.055,0.544 0.061,0.862c0.006,0.318 0.008,0.649 0.008,0.992l0,0.955c0,0.294 0.001,0.559 0.003,0.797c0.002,0.237 0.006,0.474 0.011,0.709c0.005,0.235 0.005,0.495 0.001,0.78c-0.004,0.285 -0.016,0.578 -0.036,0.88c-0.019,0.302 -0.032,0.586 -0.037,0.852c-0.005,0.267 -0.008,0.502 -0.008,0.706l0,2.097l-0.001,0.072l-0.001,-0.007c-0.001,-0.027 -0.005,-0.113 -0.011,-0.257" style="fill:none;fill-rule:nonzero;stroke:#c2361a;stroke-width:1.7px;"/><path d="M99.239,21.194c0.09,-0.004 0.217,-0.025 0.381,-0.063c0.164,-0.038 0.338,-0.071 0.522,-0.098c0.183,-0.027 0.453,-0.044 0.807,-0.049c0.354,-0.006 0.826,-0.008 1.416,-0.008l4.083,0c0.708,0 1.403,0.001 2.084,0.003c0.681,0.002 1.357,0.006 2.029,0.011c0.671,0.005 1.296,0.006 1.875,0.004c0.578,-0.002 1.107,-0.006 1.586,-0.011c0.479,-0.005 0.955,-0.008 1.428,-0.008c0.473,0 0.966,-0.001 1.48,-0.003c0.514,-0.002 1.055,-0.031 1.624,-0.086c0.569,-0.056 1.138,-0.126 1.708,-0.211c0.571,-0.086 1.091,-0.148 1.562,-0.186c0.472,-0.039 0.911,-0.058 1.32,-0.059c0.409,-0.001 0.856,-0.003 1.343,-0.008c0.487,-0.004 1.003,-0.037 1.548,-0.098c0.544,-0.061 1.029,-0.122 1.456,-0.184c0.426,-0.062 0.769,-0.099 1.027,-0.11c0.258,-0.011 0.499,-0.01 0.722,0.003c0.223,0.014 0.47,0.032 0.744,0.054c0.273,0.022 0.502,0.034 0.686,0.034l0.158,0.005l-0.089,0.009" style="fill:none;fill-rule:nonzero;stroke:#c2361a;stroke-width:1.7px;"/><path d="M114.288,5.858c0.12,-0.043 0.284,-0.109 0.492,-0.197c0.134,-0.056 0.209,-0.055 0.226,0.003c0.017,0.058 0.026,0.196 0.026,0.412l0,0.762c0,0.291 0.005,0.624 0.014,0.997c0.009,0.373 0.027,0.792 0.056,1.255c0.029,0.463 0.055,0.952 0.077,1.467c0.022,0.514 0.042,1.015 0.059,1.503c0.017,0.488 0.04,0.945 0.068,1.37c0.028,0.426 0.065,0.809 0.111,1.149c0.046,0.341 0.085,0.679 0.114,1.016c0.03,0.337 0.053,0.703 0.068,1.1c0.015,0.396 0.02,0.804 0.013,1.222c-0.006,0.418 -0.04,0.806 -0.101,1.164c-0.061,0.358 -0.12,0.683 -0.177,0.977c-0.058,0.294 -0.089,0.581 -0.096,0.863c-0.006,0.282 -0.005,0.573 0.004,0.874c0.009,0.3 0.026,0.611 0.051,0.93c0.024,0.32 0.038,0.664 0.041,1.031c0.003,0.368 0.004,0.728 0.004,1.082c0,0.354 -0.01,0.692 -0.031,1.014c-0.021,0.322 -0.038,0.642 -0.051,0.96c-0.012,0.318 -0.02,0.631 -0.023,0.941c-0.003,0.309 -0.004,0.605 -0.004,0.889c0,0.283 -0.005,0.557 -0.014,0.822c-0.009,0.265 -0.021,0.545 -0.036,0.84c-0.014,0.295 -0.028,0.6 -0.04,0.916c-0.012,0.315 -0.019,0.632 -0.019,0.951l0,1.947c0,0.315 0.001,0.601 0.003,0.858c0.002,0.257 0.017,0.488 0.045,0.691c0.028,0.204 0.055,0.384 0.08,0.541c0.025,0.157 0.043,0.298 0.053,0.423c0.01,0.125 0.015,0.228 0.015,0.307l0,0.169c0,0.047 -0.169,-0.042 -0.508,-0.267" style="fill:none;fill-rule:nonzero;stroke:#c2361a;stroke-width:1.7px;"/></svg>