<?xml version="1.0" encoding="UTF-8" standalone="no"?><!DOCTYPE svg PUBLIC "-//W3C//DTD SVG 1.1//EN" "http://www.w3.org/Graphics/SVG/1.1/DTD/svg11.dtd"><svg width="100%" height="100%" viewBox="0 0 233 61" version="1.1" xmlns="http://www.w3.org/2000/svg" xmlns:xlink="http://www.w3.org/1999/xlink" xml:space="preserve" xmlns:serif="http://www.serif.com/" style="fill-rule:evenodd;clip-rule:evenodd;stroke-linecap:round;stroke-linejoin:round;stroke-miterlimit:10;"><rect id="Artboard4" x="0" y="0" width="232.08" height="60.96" style="fill:#fff;"/><g id="Artboard41" serif:id="Artboard4"><path d="M9.758,10.206c-0.065,0.019 -0.104,0.137 -0.119,0.354c-0.014,0.217 -0.003,0.516 0.035,0.898c0.038,0.382 0.075,0.822 0.112,1.32c0.037,0.498 0.06,0.986 0.068,1.462c0.008,0.476 0.013,0.909 0.013,1.299c0,0.39 0,0.75 0,1.08c0,0.33 -0.001,0.644 -0.003,0.941c-0.002,0.298 -0.017,0.579 -0.045,0.846c-0.028,0.266 -0.059,0.52 -0.093,0.761c-0.034,0.241 -0.066,0.503 -0.096,0.785c-0.03,0.282 -0.053,0.58 -0.07,0.893c-0.017,0.313 -0.031,0.607 -0.041,0.881c-0.01,0.274 -0.02,0.523 -0.03,0.746c-0.01,0.223 -0.015,0.407 -0.015,0.551c-0,0.144 -0,0.249 -0,0.315l0,0.142c0,0.04 0.009,0.013 0.028,-0.082" style="fill:none;fill-rule:nonzero;stroke:#000;stroke-width:0.85px;"/><path d="M90.001,9.769c-0.06,-0.065 -0.126,-0.065 -0.196,-0.001c-0.07,0.064 -0.117,0.293 -0.14,0.686c-0.023,0.393 -0.035,0.859 -0.035,1.397c-0,0.538 0.011,1.107 0.034,1.706c0.023,0.599 0.038,1.205 0.044,1.818c0.006,0.613 0.016,1.173 0.03,1.681c0.014,0.508 0.025,0.977 0.033,1.407c0.008,0.43 0.012,0.818 0.012,1.164c0,0.346 0,0.659 0,0.941c0,0.282 0.004,0.558 0.013,0.831c0.009,0.272 0.029,0.547 0.06,0.824c0.031,0.277 0.056,0.539 0.073,0.786c0.018,0.247 0.041,0.463 0.069,0.647c0.028,0.184 0.064,0.373 0.108,0.567c0.043,0.194 0.086,0.363 0.128,0.507c0.042,0.144 0.071,0.242 0.089,0.294c0.024,0.072 0.045,0.021 0.061,-0.153" style="fill:none;fill-rule:nonzero;stroke:#000;stroke-width:0.85px;"/><path d="M17.284,32.214c-0.02,-0.011 0.092,-0.11 0.337,-0.297c0.245,-0.187 0.519,-0.41 0.824,-0.668c0.305,-0.258 0.646,-0.555 1.023,-0.891c0.377,-0.336 0.735,-0.655 1.074,-0.956c0.338,-0.302 0.635,-0.564 0.89,-0.788c0.255,-0.223 0.504,-0.454 0.747,-0.691c0.243,-0.237 0.492,-0.47 0.747,-0.7c0.255,-0.23 0.498,-0.434 0.731,-0.614c0.232,-0.179 0.447,-0.341 0.646,-0.485c0.198,-0.144 0.369,-0.292 0.512,-0.445c0.143,-0.153 0.269,-0.3 0.377,-0.443c0.108,-0.142 0.176,-0.231 0.204,-0.266l0.021,-0.026l-0.062,0.079" style="fill:none;fill-rule:nonzero;stroke:#000;stroke-width:0.85px;"/><path d="M9.649,24.666c0.03,0.001 0.174,0.114 0.429,0.338c0.256,0.224 0.536,0.47 0.84,0.738c0.304,0.268 0.654,0.539 1.048,0.814c0.394,0.275 0.767,0.551 1.118,0.828c0.351,0.277 0.641,0.569 0.872,0.876c0.23,0.308 0.446,0.59 0.647,0.846c0.201,0.256 0.431,0.462 0.69,0.615c0.259,0.154 0.492,0.298 0.699,0.434c0.207,0.136 0.376,0.28 0.507,0.433c0.131,0.153 0.253,0.291 0.364,0.414c0.112,0.123 0.239,0.226 0.381,0.307c0.142,0.081 0.283,0.155 0.422,0.221c0.14,0.066 0.244,0.115 0.313,0.147c0.098,0.045 0.161,0.037 0.189,-0.026" style="fill:none;fill-rule:nonzero;stroke:#000;stroke-width:0.85px;"/><path d="M41.259,25.138c-0.06,0.012 -0.152,-0.001 -0.277,-0.04c-0.079,-0.024 -0.121,-0.04 -0.125,-0.049c-0.004,-0.008 0.062,0.007 0.197,0.046c0.135,0.039 0.356,0.172 0.662,0.398c0.306,0.226 0.634,0.497 0.984,0.812c0.35,0.315 0.715,0.655 1.097,1.019c0.382,0.364 0.738,0.716 1.068,1.058c0.331,0.342 0.64,0.658 0.928,0.95c0.288,0.292 0.567,0.541 0.837,0.749c0.27,0.207 0.557,0.381 0.862,0.521c0.305,0.14 0.584,0.268 0.839,0.383c0.254,0.115 0.451,0.224 0.591,0.326c0.14,0.102 0.246,0.193 0.319,0.272c0.073,0.079 0.124,0.145 0.154,0.196l0.023,0.039l-0.068,-0.117" style="fill:none;fill-rule:nonzero;stroke:#000;stroke-width:0.85px;"/><path d="M50.448,31.404c0.026,-0.06 0.111,-0.151 0.257,-0.271c0.146,-0.121 0.369,-0.288 0.668,-0.502c0.3,-0.214 0.683,-0.503 1.148,-0.867c0.466,-0.364 0.97,-0.769 1.514,-1.215c0.543,-0.446 1.05,-0.844 1.518,-1.195c0.469,-0.35 0.863,-0.637 1.182,-0.86c0.319,-0.223 0.567,-0.423 0.744,-0.601c0.177,-0.178 0.327,-0.354 0.451,-0.527c0.123,-0.174 0.205,-0.297 0.244,-0.37c0.053,-0.099 0.016,-0.108 -0.113,-0.027" style="fill:none;fill-rule:nonzero;stroke:#000;stroke-width:0.85px;"/><path d="M74.492,24.556c-0.03,-0.055 -0.063,-0.123 -0.098,-0.204c-0.023,-0.053 -0.026,-0.029 -0.009,0.071c0.017,0.1 0.068,0.258 0.155,0.475c0.087,0.217 0.207,0.416 0.362,0.597c0.155,0.182 0.369,0.381 0.644,0.598c0.274,0.217 0.602,0.471 0.984,0.762c0.381,0.291 0.758,0.605 1.129,0.942c0.371,0.337 0.706,0.648 1.006,0.933c0.299,0.285 0.554,0.527 0.764,0.727c0.21,0.199 0.385,0.399 0.526,0.6c0.14,0.201 0.278,0.408 0.414,0.623c0.136,0.215 0.273,0.381 0.412,0.5c0.139,0.118 0.276,0.189 0.412,0.211c0.136,0.022 0.265,0.034 0.387,0.034l0.091,0l-0.274,-0" style="fill:none;fill-rule:nonzero;stroke:#000;stroke-width:0.85px;"/><path d="M82.588,31.805c-0.048,0.023 -0.098,0.074 -0.15,0.154c-0.033,0.052 0.001,0.055 0.104,0.008c0.103,-0.046 0.326,-0.22 0.669,-0.521c0.343,-0.301 0.807,-0.732 1.392,-1.294c0.585,-0.562 1.217,-1.169 1.897,-1.821c0.68,-0.652 1.276,-1.22 1.786,-1.705c0.51,-0.485 0.891,-0.86 1.143,-1.123" style="fill:none;fill-rule:nonzero;stroke:#000;stroke-width:0.85px;"/><path d="M33.538,41.489c0.048,-0.034 0.138,-0.072 0.27,-0.114c0.132,-0.042 0.332,-0.127 0.6,-0.252c0.268,-0.126 0.709,-0.37 1.323,-0.733c0.614,-0.363 1.31,-0.781 2.09,-1.254c0.779,-0.473 1.485,-0.903 2.116,-1.288c0.632,-0.386 1.189,-0.727 1.672,-1.024c0.483,-0.297 0.937,-0.569 1.361,-0.816c0.425,-0.247 0.825,-0.473 1.201,-0.675c0.376,-0.203 0.741,-0.404 1.094,-0.603c0.353,-0.199 0.689,-0.409 1.006,-0.629c0.318,-0.22 0.609,-0.449 0.873,-0.687c0.264,-0.238 0.511,-0.459 0.741,-0.663c0.23,-0.204 0.43,-0.355 0.601,-0.454c0.171,-0.099 0.285,-0.159 0.344,-0.181l0.044,-0.016l-0.131,0.049" style="fill:none;fill-rule:nonzero;stroke:#000;stroke-width:0.85px;"/><path d="M18.093,32.214c-0,-0.043 -0,-0.142 -0,-0.299c0,-0.094 0.001,-0.146 0.003,-0.158c0.002,-0.012 0.064,0.031 0.186,0.127c0.122,0.097 0.364,0.261 0.727,0.492c0.363,0.232 0.801,0.507 1.313,0.825c0.512,0.318 1.044,0.673 1.597,1.064c0.553,0.391 1.127,0.792 1.724,1.203c0.596,0.411 1.202,0.79 1.817,1.136c0.615,0.346 1.182,0.649 1.7,0.909c0.518,0.26 0.951,0.515 1.297,0.765c0.346,0.25 0.663,0.488 0.95,0.713c0.287,0.225 0.604,0.424 0.952,0.596c0.347,0.172 0.681,0.33 1.003,0.474c0.322,0.144 0.59,0.287 0.805,0.428c0.215,0.141 0.404,0.27 0.569,0.388c0.164,0.118 0.303,0.214 0.417,0.289c0.113,0.075 0.211,0.138 0.292,0.189c0.081,0.052 0.164,0.087 0.248,0.105c0.12,0.026 0.285,-0.158 0.495,-0.553" style="fill:none;fill-rule:nonzero;stroke:#000;stroke-width:0.85px;"/><path d="M57.974,49.736c0.015,0.018 0.214,-0.089 0.6,-0.322c0.385,-0.233 0.871,-0.524 1.459,-0.874c0.587,-0.351 1.225,-0.732 1.914,-1.143c0.689,-0.412 1.357,-0.832 2.004,-1.259c0.647,-0.428 1.245,-0.839 1.796,-1.235c0.551,-0.396 1.07,-0.785 1.557,-1.168c0.487,-0.383 0.968,-0.791 1.443,-1.225c0.475,-0.434 0.941,-0.858 1.398,-1.273c0.458,-0.415 0.896,-0.796 1.316,-1.144c0.42,-0.348 0.835,-0.695 1.245,-1.041c0.41,-0.346 0.842,-0.705 1.295,-1.077c0.453,-0.372 0.905,-0.724 1.356,-1.057c0.451,-0.333 0.846,-0.624 1.184,-0.875c0.339,-0.251 0.637,-0.497 0.895,-0.739c0.258,-0.242 0.548,-0.511 0.869,-0.809c0.321,-0.298 0.636,-0.58 0.944,-0.847c0.308,-0.267 0.588,-0.494 0.84,-0.682c0.252,-0.188 0.503,-0.356 0.753,-0.505c0.25,-0.149 0.474,-0.278 0.672,-0.387c0.198,-0.109 0.33,-0.184 0.396,-0.227c0.092,-0.058 0.041,-0.083 -0.152,-0.076" style="fill:none;fill-rule:nonzero;stroke:#000;stroke-width:0.85px;"/><path d="M34.041,42.123c-0.029,-0.105 0.08,-0.154 0.328,-0.145c0.248,0.009 0.565,0.099 0.952,0.271c0.387,0.172 0.9,0.393 1.542,0.663c0.641,0.269 1.368,0.543 2.179,0.822c0.811,0.278 1.578,0.525 2.3,0.739c0.722,0.214 1.406,0.384 2.051,0.508c0.645,0.125 1.272,0.246 1.88,0.363c0.608,0.118 1.157,0.272 1.647,0.462c0.49,0.19 0.979,0.374 1.466,0.553c0.487,0.178 1.003,0.334 1.548,0.467c0.545,0.133 1.086,0.258 1.626,0.375c0.539,0.117 1.039,0.239 1.498,0.368c0.459,0.128 0.896,0.257 1.311,0.386c0.415,0.129 0.791,0.272 1.127,0.428c0.336,0.157 0.642,0.305 0.915,0.445c0.274,0.14 0.53,0.257 0.77,0.351c0.24,0.094 0.457,0.162 0.654,0.202c0.196,0.041 0.361,0.063 0.495,0.066c0.133,0.003 0.219,0.005 0.255,0.005c0.052,0 -0.001,-0.288 -0.159,-0.864" style="fill:none;fill-rule:nonzero;stroke:#000;stroke-width:0.85px;"/><path d="M19.668,39.673c0,-0.086 -0.006,-0.19 -0.017,-0.314c-0.011,-0.124 -0.034,-0.229 -0.069,-0.317c-0.035,-0.088 -0.087,-0.184 -0.158,-0.289c-0.07,-0.105 -0.156,-0.186 -0.256,-0.244c-0.1,-0.057 -0.237,-0.076 -0.409,-0.056c-0.172,0.02 -0.363,0.141 -0.571,0.361c-0.209,0.22 -0.381,0.52 -0.516,0.9c-0.136,0.38 -0.193,0.747 -0.173,1.1c0.02,0.354 0.176,0.6 0.467,0.738c0.291,0.138 0.639,0.142 1.044,0.011c0.405,-0.131 0.739,-0.348 1.002,-0.654c0.263,-0.305 0.421,-0.596 0.474,-0.871c0.052,-0.275 0.047,-0.48 -0.017,-0.615c-0.064,-0.135 -0.138,-0.214 -0.222,-0.239c-0.084,-0.025 -0.139,0.005 -0.165,0.09c-0.026,0.085 -0.005,0.234 0.063,0.449c0.068,0.215 0.177,0.469 0.326,0.764c0.149,0.295 0.331,0.584 0.546,0.867c0.316,0.415 0.711,0.603 1.185,0.564" style="fill:none;fill-rule:nonzero;stroke:#000;stroke-width:0.85px;"/><path d="M46.423,36.458c-0.008,-0.016 -0.007,0.01 0.002,0.079c0.009,0.069 0.032,0.241 0.068,0.517c0.036,0.276 0.091,0.583 0.163,0.921c0.072,0.338 0.138,0.683 0.197,1.037c0.059,0.354 0.11,0.63 0.151,0.829c0.042,0.199 0.073,0.315 0.093,0.346c0.02,0.032 0.033,-0.011 0.039,-0.128c0.005,-0.117 0.02,-0.299 0.045,-0.546c0.025,-0.247 0.111,-0.493 0.259,-0.738c0.148,-0.245 0.363,-0.443 0.645,-0.596c0.282,-0.152 0.575,-0.246 0.878,-0.282c0.303,-0.036 0.547,0.001 0.732,0.111c0.185,0.11 0.305,0.278 0.36,0.505c0.055,0.226 0.043,0.449 -0.036,0.669c-0.079,0.22 -0.209,0.41 -0.39,0.57c-0.181,0.16 -0.358,0.292 -0.531,0.393c-0.173,0.102 -0.353,0.174 -0.539,0.218c-0.186,0.043 -0.401,0.06 -0.645,0.05c-0.244,-0.01 -0.437,-0.043 -0.58,-0.099c-0.199,-0.078 -0.164,-0.26 0.108,-0.546" style="fill:none;fill-rule:nonzero;stroke:#000;stroke-width:0.85px;"/><path d="M78.601,39.957c0.015,-0.059 0.032,-0.15 0.05,-0.272c0.012,-0.077 0.004,-0.128 -0.023,-0.151c-0.027,-0.023 -0.119,-0.033 -0.277,-0.029c-0.158,0.004 -0.373,0.047 -0.646,0.128c-0.273,0.081 -0.585,0.217 -0.935,0.407c-0.35,0.19 -0.675,0.431 -0.973,0.722c-0.299,0.291 -0.492,0.598 -0.581,0.921c-0.089,0.323 -0.034,0.608 0.163,0.856c0.197,0.247 0.495,0.426 0.894,0.535c0.399,0.11 0.847,0.164 1.343,0.162c0.734,-0.002 1.448,-0.233 2.141,-0.691" style="fill:none;fill-rule:nonzero;stroke:#000;stroke-width:0.85px;"/><path d="M58.679,24.725l0,0.014l0,-0.059l0,-0.44c0,-0.235 0.022,-0.521 0.065,-0.858c0.043,-0.337 0.122,-0.677 0.237,-1.018c0.115,-0.341 0.248,-0.655 0.4,-0.942c0.152,-0.287 0.307,-0.531 0.465,-0.731c0.158,-0.2 0.309,-0.368 0.453,-0.503c0.144,-0.135 0.306,-0.264 0.486,-0.385c0.18,-0.122 0.391,-0.252 0.632,-0.393c0.241,-0.14 0.489,-0.279 0.744,-0.415c0.255,-0.137 0.512,-0.27 0.769,-0.402c0.258,-0.131 0.509,-0.257 0.755,-0.377c0.246,-0.12 0.477,-0.215 0.692,-0.285c0.215,-0.07 0.423,-0.129 0.622,-0.175c0.199,-0.047 0.423,-0.108 0.671,-0.183c0.248,-0.076 0.53,-0.177 0.846,-0.305c0.316,-0.127 0.624,-0.252 0.922,-0.375c0.298,-0.123 0.568,-0.234 0.808,-0.334c0.24,-0.1 0.468,-0.203 0.682,-0.31c0.214,-0.106 0.44,-0.223 0.677,-0.352c0.237,-0.128 0.465,-0.256 0.683,-0.382c0.218,-0.127 0.409,-0.245 0.574,-0.355c0.165,-0.11 0.326,-0.224 0.483,-0.343c0.158,-0.119 0.327,-0.257 0.508,-0.415c0.181,-0.158 0.368,-0.347 0.56,-0.566c0.192,-0.219 0.355,-0.44 0.489,-0.662c0.134,-0.222 0.233,-0.426 0.295,-0.612c0.063,-0.186 0.13,-0.378 0.202,-0.576c0.072,-0.198 0.162,-0.414 0.27,-0.649c0.108,-0.234 0.222,-0.47 0.341,-0.706c0.119,-0.236 0.22,-0.453 0.302,-0.649c0.082,-0.196 0.137,-0.357 0.163,-0.481c0.026,-0.124 0.039,-0.201 0.04,-0.231c0,-0.042 -0.136,0.015 -0.41,0.169" style="fill:none;fill-rule:nonzero;stroke:#000;stroke-width:0.85px;"/><path d="M59.073,9.675c-0.068,-0.065 -0.105,0.04 -0.11,0.313c-0.005,0.273 0.02,0.548 0.076,0.824c0.056,0.276 0.139,0.542 0.249,0.799c0.11,0.256 0.232,0.497 0.365,0.722c0.133,0.225 0.273,0.422 0.421,0.589c0.147,0.168 0.321,0.292 0.52,0.373c0.291,0.118 0.697,0.133 1.218,0.043" style="fill:none;fill-rule:nonzero;stroke:#000;stroke-width:0.85px;"/><path d="M69.595,18.797l-0.008,0l0.063,0.007c0.057,0.005 0.2,0.017 0.429,0.037c0.229,0.02 0.476,0.098 0.742,0.235c0.265,0.137 0.547,0.291 0.846,0.464c0.298,0.172 0.581,0.338 0.848,0.496c0.267,0.158 0.499,0.337 0.696,0.537c0.197,0.199 0.352,0.424 0.464,0.673c0.112,0.249 0.202,0.499 0.269,0.75c0.067,0.251 0.123,0.5 0.17,0.748c0.047,0.248 0.089,0.473 0.125,0.675c0.037,0.202 0.077,0.367 0.12,0.496c0.043,0.129 0.087,0.224 0.131,0.284c0.044,0.061 0.073,0.097 0.087,0.11c0.015,0.013 0.012,-0.005 -0.007,-0.055c-0.028,-0.071 -0.055,-0.243 -0.081,-0.514" style="fill:none;fill-rule:nonzero;stroke:#000;stroke-width:0.85px;"/><path d="M41.289,24.944c-0.065,-0.064 -0.119,-0.147 -0.164,-0.248c-0.045,-0.101 -0.073,-0.208 -0.086,-0.32c-0.012,-0.113 -0.027,-0.263 -0.044,-0.451c-0.017,-0.188 -0.033,-0.442 -0.047,-0.76c-0.015,-0.319 -0.023,-0.676 -0.026,-1.072c-0.003,-0.396 -0.004,-0.795 -0.004,-1.194c0,-0.4 0.006,-0.765 0.017,-1.096c0.011,-0.331 0.042,-0.649 0.092,-0.956c0.05,-0.306 0.093,-0.617 0.128,-0.932c0.035,-0.315 0.055,-0.651 0.061,-1.006c0.006,-0.356 0.009,-0.724 0.009,-1.105c0,-0.381 -0.001,-0.75 -0.003,-1.106c-0.002,-0.356 -0.017,-0.685 -0.045,-0.986c-0.028,-0.301 -0.056,-0.606 -0.083,-0.916c-0.027,-0.31 -0.047,-0.613 -0.06,-0.909c-0.013,-0.296 -0.02,-0.524 -0.023,-0.683c-0.003,-0.159 -0.004,-0.263 -0.004,-0.312c0,-0.049 0.009,-0.061 0.026,-0.034" style="fill:none;fill-rule:nonzero;stroke:#000;stroke-width:0.85px;"/><path d="M25.19,25.556c0,-0.107 0.001,-0.222 0.003,-0.344c0.002,-0.122 0.03,-0.261 0.083,-0.417c0.053,-0.156 0.135,-0.351 0.245,-0.585c0.11,-0.235 0.235,-0.512 0.376,-0.833c0.141,-0.321 0.271,-0.65 0.391,-0.988c0.12,-0.338 0.225,-0.682 0.313,-1.034c0.089,-0.352 0.158,-0.725 0.208,-1.12c0.05,-0.395 0.08,-0.778 0.092,-1.149c0.011,-0.372 0.017,-0.692 0.017,-0.961c0,-0.269 0,-0.525 0,-0.767l0,-0.819c0,-0.304 -0.012,-0.634 -0.037,-0.99c-0.025,-0.356 -0.078,-0.697 -0.159,-1.022c-0.081,-0.325 -0.154,-0.619 -0.219,-0.881c-0.065,-0.262 -0.103,-0.535 -0.114,-0.82c-0.011,-0.285 0.013,-0.594 0.073,-0.926c0.06,-0.333 0.121,-0.6 0.183,-0.801c0.062,-0.201 0.101,-0.319 0.116,-0.355c0.021,-0.05 -0.147,0.023 -0.502,0.218" style="fill:none;fill-rule:nonzero;stroke:#000;stroke-width:0.85px;"/><path d="M111.747,24.207c-0.119,0.019 -0.137,0.041 -0.055,0.066c0.06,0.018 0.21,0.064 0.451,0.136c0.24,0.073 0.651,0.111 1.233,0.114c0.581,0.003 1.193,0.008 1.835,0.015c0.642,0.007 1.114,0.031 1.417,0.072l0.227,0.031l-0.682,-0.093" style="fill:none;fill-rule:nonzero;stroke:#000;stroke-width:0.85px;"/><path d="M111.462,27.7c0.021,-0 0.315,-0.016 0.885,-0.048c0.569,-0.032 1.279,-0.091 2.129,-0.178c0.85,-0.087 1.671,-0.14 2.464,-0.16c0.793,-0.02 1.15,0.001 1.071,0.062" style="fill:none;fill-rule:nonzero;stroke:#000;stroke-width:0.85px;"/><path d="M137.645,10.769c-0.075,0.053 -0.127,0.153 -0.155,0.301c-0.028,0.148 -0.011,0.345 0.051,0.592c0.062,0.247 0.153,0.567 0.274,0.958c0.121,0.391 0.238,0.843 0.353,1.354c0.115,0.511 0.211,1.046 0.288,1.604c0.077,0.558 0.129,1.109 0.155,1.652c0.026,0.543 0.039,1.029 0.04,1.457c0,0.428 0,0.813 0,1.155l0,3.335c0,0.19 -0.002,0.392 -0.007,0.604c-0.005,0.213 -0.012,0.425 -0.021,0.637c-0.01,0.212 -0.015,0.399 -0.015,0.562c-0,0.163 -0,0.305 -0,0.427c0,0.122 0.003,0.237 0.01,0.345c0.007,0.108 0.02,0.193 0.039,0.256c0.019,0.063 0.034,0.065 0.044,0.008c0.014,-0.083 0.059,-0.343 0.134,-0.78" style="fill:none;fill-rule:nonzero;stroke:#000;stroke-width:0.85px;"/><path d="M154.16,11.403c-0.114,-0.006 -0.155,0.141 -0.122,0.438c0.033,0.297 0.081,0.703 0.144,1.217c0.063,0.514 0.122,1.084 0.176,1.71c0.054,0.626 0.098,1.189 0.13,1.689c0.032,0.5 0.055,0.941 0.068,1.325c0.013,0.384 0.026,0.732 0.04,1.044c0.014,0.313 0.034,0.622 0.061,0.928c0.027,0.306 0.045,0.6 0.055,0.881c0.01,0.281 0.016,0.552 0.016,0.812c0,0.26 0,0.52 0,0.781l0,0.766c0,0.251 0.003,0.491 0.01,0.72c0.007,0.23 0.014,0.454 0.022,0.672c0.008,0.219 0.012,0.43 0.012,0.633c0,0.203 0,0.357 0,0.461c0,0.142 0.028,0.127 0.084,-0.045" style="fill:none;fill-rule:nonzero;stroke:#000;stroke-width:0.85px;"/><path d="M170.194,10.047c0.003,-0.043 0.007,-0.024 0.012,0.059c0.005,0.082 0.017,0.289 0.037,0.618c0.02,0.33 0.035,0.693 0.045,1.089c0.01,0.396 0.015,0.812 0.015,1.249c0,0.437 0,0.856 0,1.256l0,3.736c0,0.276 -0.004,0.537 -0.013,0.784c-0.009,0.247 -0.03,0.481 -0.064,0.702c-0.034,0.222 -0.055,0.433 -0.063,0.633c-0.008,0.2 -0.013,0.385 -0.013,0.554c-0,0.169 -0,0.334 -0,0.497c0,0.163 -0.01,0.337 -0.031,0.523c-0.021,0.186 -0.046,0.383 -0.075,0.592c-0.029,0.208 -0.048,0.415 -0.056,0.62c-0.008,0.205 -0.013,0.401 -0.013,0.589c-0,0.188 -0,0.366 -0,0.534c0,0.168 0.002,0.347 0.007,0.535c0.005,0.189 0.008,0.382 0.011,0.582c0.003,0.199 0.004,0.382 0.004,0.549l0,0.363c0,0.103 0,0.065 0,-0.113" style="fill:none;fill-rule:nonzero;stroke:#000;stroke-width:0.85px;"/><path d="M186.709,25.819c-0.006,-0.063 -0.011,-0.16 -0.015,-0.29c-0.004,-0.13 -0.007,-0.271 -0.007,-0.423c0,-0.152 0.018,-0.345 0.055,-0.578c0.037,-0.233 0.1,-0.471 0.191,-0.712c0.091,-0.241 0.195,-0.468 0.313,-0.68c0.118,-0.213 0.254,-0.417 0.409,-0.615c0.154,-0.197 0.316,-0.379 0.486,-0.546c0.17,-0.167 0.336,-0.313 0.499,-0.438c0.163,-0.126 0.327,-0.245 0.493,-0.359c0.165,-0.114 0.329,-0.234 0.492,-0.36c0.163,-0.126 0.315,-0.241 0.454,-0.345c0.14,-0.103 0.261,-0.188 0.365,-0.255c0.103,-0.067 0.212,-0.135 0.328,-0.205c0.115,-0.07 0.249,-0.15 0.401,-0.242c0.152,-0.092 0.307,-0.179 0.465,-0.263c0.158,-0.083 0.313,-0.16 0.463,-0.231c0.151,-0.071 0.302,-0.142 0.452,-0.215c0.151,-0.073 0.295,-0.148 0.431,-0.226c0.137,-0.078 0.279,-0.157 0.426,-0.24c0.147,-0.082 0.304,-0.167 0.472,-0.255c0.167,-0.087 0.345,-0.175 0.534,-0.262c0.189,-0.088 0.371,-0.173 0.547,-0.256c0.176,-0.083 0.342,-0.166 0.498,-0.248c0.156,-0.082 0.313,-0.172 0.471,-0.268c0.158,-0.097 0.321,-0.198 0.491,-0.305c0.17,-0.107 0.335,-0.208 0.496,-0.303c0.161,-0.096 0.317,-0.191 0.468,-0.285c0.151,-0.094 0.307,-0.199 0.47,-0.315c0.162,-0.116 0.329,-0.237 0.499,-0.363c0.17,-0.126 0.331,-0.24 0.483,-0.341c0.152,-0.101 0.281,-0.188 0.387,-0.262c0.106,-0.074 0.2,-0.146 0.283,-0.216c0.083,-0.07 0.171,-0.154 0.263,-0.253c0.092,-0.099 0.179,-0.211 0.26,-0.336c0.081,-0.126 0.147,-0.249 0.199,-0.371c0.052,-0.122 0.098,-0.241 0.137,-0.358c0.039,-0.117 0.076,-0.24 0.11,-0.368c0.034,-0.128 0.073,-0.263 0.116,-0.403c0.044,-0.14 0.087,-0.285 0.131,-0.433c0.044,-0.148 0.085,-0.294 0.124,-0.438c0.039,-0.144 0.075,-0.29 0.106,-0.438c0.032,-0.148 0.064,-0.289 0.095,-0.423c0.032,-0.134 0.056,-0.264 0.074,-0.388c0.018,-0.124 0.031,-0.235 0.041,-0.33c0.01,-0.096 0.016,-0.178 0.019,-0.247c0.003,-0.069 0.004,-0.132 0.004,-0.188l0,-0.119c0,-0.032 -0.088,-0.032 -0.265,-0" style="fill:none;fill-rule:nonzero;stroke:#000;stroke-width:0.85px;"/><path d="M186.403,10.069c-0.081,0.02 -0.133,0.101 -0.157,0.244c-0.024,0.143 0.014,0.308 0.112,0.495c0.098,0.187 0.218,0.401 0.358,0.643c0.141,0.241 0.272,0.486 0.394,0.735c0.122,0.248 0.244,0.479 0.365,0.692c0.121,0.213 0.252,0.409 0.392,0.587c0.14,0.179 0.285,0.345 0.436,0.499c0.15,0.154 0.293,0.303 0.428,0.446c0.135,0.143 0.246,0.28 0.333,0.41c0.087,0.13 0.16,0.23 0.218,0.301l0.044,0.053l-0.132,-0.159" style="fill:none;fill-rule:nonzero;stroke:#000;stroke-width:0.85px;"/><path d="M196.771,19.256c0.012,-0.047 0.125,0.009 0.339,0.169c0.214,0.16 0.416,0.304 0.607,0.433c0.191,0.129 0.389,0.25 0.595,0.366c0.206,0.115 0.417,0.218 0.633,0.309c0.216,0.09 0.427,0.177 0.632,0.26c0.205,0.083 0.384,0.184 0.537,0.304c0.153,0.12 0.274,0.256 0.364,0.408c0.09,0.152 0.159,0.308 0.206,0.469c0.047,0.161 0.093,0.305 0.136,0.433c0.043,0.128 0.099,0.245 0.166,0.353c0.067,0.108 0.135,0.213 0.203,0.318c0.068,0.104 0.128,0.217 0.18,0.338c0.052,0.121 0.101,0.248 0.147,0.381c0.046,0.133 0.094,0.269 0.145,0.407c0.051,0.138 0.101,0.277 0.15,0.416c0.049,0.139 0.093,0.277 0.132,0.416c0.039,0.138 0.075,0.277 0.107,0.416c0.032,0.139 0.054,0.277 0.067,0.416c0.013,0.138 0.022,0.261 0.027,0.368c0.005,0.107 0.008,0.181 0.008,0.223l0,0.029l0.002,-0.041c0.002,-0.079 0.009,-0.135 0.021,-0.168" style="fill:none;fill-rule:nonzero;stroke:#000;stroke-width:0.85px;"/><path d="M218.078,10.2c-0.016,-0.052 -0.032,-0.119 -0.05,-0.202c-0.011,-0.054 -0.017,-0.032 -0.017,0.066c0,0.098 0.002,0.316 0.007,0.655c0.005,0.339 0.012,0.765 0.021,1.277c0.01,0.512 0.015,1.046 0.015,1.6c0,0.555 0,1.065 0,1.531l0,3.996c0,0.306 -0.002,0.581 -0.007,0.826c-0.005,0.245 -0.015,0.477 -0.032,0.696c-0.016,0.219 -0.031,0.445 -0.044,0.678c-0.013,0.233 -0.02,0.469 -0.023,0.709c-0.003,0.24 -0.004,0.473 -0.004,0.698l0,1.48c0,0.169 -0.001,0.337 -0.003,0.503c-0.002,0.166 -0.006,0.308 -0.011,0.427c-0.005,0.119 -0.008,0.222 -0.008,0.31l0,0.409c0,0.051 0.003,0.093 0.01,0.126c0.007,0.033 0.024,0.055 0.053,0.068c0.04,0.018 0.14,-0.119 0.299,-0.41" style="fill:none;fill-rule:nonzero;stroke:#000;stroke-width:0.85px;"/><path d="M194.256,42.618c0.061,0.052 0.052,0.125 -0.025,0.22c-0.078,0.094 -0.129,0.157 -0.154,0.189c-0.025,0.032 -0.044,0.056 -0.056,0.074c-0.013,0.018 -0.02,0.029 -0.023,0.034c-0.003,0.005 -0.002,0.008 0.002,0.008c0.004,0 0.063,-0.024 0.176,-0.071c0.113,-0.047 0.333,-0.176 0.66,-0.387c0.327,-0.21 0.745,-0.479 1.252,-0.806c0.508,-0.327 1.028,-0.651 1.561,-0.971c0.533,-0.32 1.011,-0.608 1.431,-0.863c0.421,-0.255 0.772,-0.485 1.054,-0.688c0.282,-0.203 0.532,-0.399 0.752,-0.586c0.22,-0.187 0.461,-0.376 0.723,-0.566c0.263,-0.19 0.516,-0.356 0.762,-0.5c0.245,-0.143 0.465,-0.264 0.658,-0.362c0.193,-0.098 0.38,-0.197 0.56,-0.296c0.18,-0.099 0.357,-0.209 0.529,-0.329c0.173,-0.12 0.356,-0.262 0.549,-0.426c0.193,-0.164 0.39,-0.333 0.589,-0.509c0.2,-0.175 0.394,-0.336 0.584,-0.483c0.19,-0.147 0.384,-0.287 0.583,-0.421c0.199,-0.134 0.396,-0.264 0.59,-0.391c0.195,-0.127 0.388,-0.261 0.58,-0.404c0.192,-0.142 0.391,-0.288 0.597,-0.436c0.206,-0.148 0.405,-0.291 0.598,-0.428c0.193,-0.137 0.359,-0.255 0.498,-0.353c0.139,-0.099 0.249,-0.188 0.331,-0.269c0.082,-0.081 0.14,-0.147 0.175,-0.198l0.026,-0.039l-0.078,0.116" style="fill:none;fill-rule:nonzero;stroke:#000;stroke-width:0.85px;"/><path d="M180.213,32.6c-0.03,0.021 -0.021,0.146 0.027,0.377c0.048,0.23 0.141,0.431 0.28,0.603c0.138,0.172 0.311,0.322 0.518,0.452c0.207,0.13 0.429,0.264 0.667,0.402c0.238,0.138 0.468,0.289 0.689,0.453c0.222,0.164 0.455,0.334 0.699,0.509c0.244,0.175 0.497,0.342 0.76,0.5c0.263,0.158 0.514,0.329 0.753,0.513c0.239,0.183 0.467,0.384 0.684,0.601c0.217,0.218 0.422,0.432 0.615,0.642c0.193,0.21 0.369,0.402 0.528,0.576c0.159,0.174 0.324,0.325 0.496,0.453c0.172,0.128 0.354,0.248 0.548,0.36c0.194,0.112 0.38,0.231 0.558,0.36c0.178,0.128 0.345,0.262 0.499,0.403c0.154,0.141 0.298,0.274 0.432,0.399c0.134,0.125 0.267,0.239 0.398,0.341c0.131,0.103 0.259,0.203 0.383,0.3c0.124,0.097 0.252,0.214 0.383,0.351c0.131,0.137 0.262,0.28 0.393,0.431c0.131,0.151 0.267,0.291 0.408,0.421c0.14,0.13 0.284,0.251 0.429,0.363c0.146,0.112 0.288,0.224 0.427,0.336c0.139,0.112 0.275,0.217 0.409,0.315c0.133,0.098 0.281,0.182 0.442,0.251c0.162,0.069 0.328,0.126 0.498,0.171c0.171,0.045 0.313,0.086 0.428,0.125c0.114,0.039 0.201,0.076 0.258,0.113c0.058,0.037 0.093,0.062 0.106,0.077c0.013,0.014 -0.003,0.005 -0.047,-0.027c-0.064,-0.046 -0.212,-0.133 -0.444,-0.261" style="fill:none;fill-rule:nonzero;stroke:#000;stroke-width:0.85px;"/><path d="M170.58,50.334c-0.027,-0.07 -0.01,-0.152 0.051,-0.247c0.041,-0.064 0.101,-0.113 0.181,-0.149c0.08,-0.036 0.212,-0.085 0.394,-0.146c0.183,-0.062 0.44,-0.154 0.772,-0.275c0.332,-0.122 0.722,-0.264 1.168,-0.429c0.447,-0.164 0.899,-0.329 1.356,-0.495c0.458,-0.165 0.897,-0.325 1.319,-0.478c0.422,-0.153 0.835,-0.3 1.239,-0.439c0.405,-0.14 0.772,-0.256 1.104,-0.35c0.331,-0.094 0.633,-0.175 0.904,-0.244c0.271,-0.069 0.54,-0.136 0.807,-0.201c0.267,-0.066 0.534,-0.135 0.802,-0.207c0.268,-0.073 0.518,-0.144 0.751,-0.215c0.232,-0.07 0.438,-0.139 0.617,-0.205c0.179,-0.066 0.349,-0.128 0.51,-0.187c0.161,-0.058 0.319,-0.114 0.474,-0.168c0.156,-0.054 0.327,-0.111 0.515,-0.171c0.188,-0.06 0.393,-0.13 0.616,-0.21c0.223,-0.08 0.439,-0.155 0.649,-0.227c0.21,-0.071 0.411,-0.131 0.604,-0.181c0.192,-0.049 0.387,-0.089 0.583,-0.118c0.196,-0.03 0.414,-0.064 0.653,-0.102c0.239,-0.038 0.483,-0.087 0.731,-0.147c0.248,-0.06 0.495,-0.127 0.74,-0.202c0.246,-0.075 0.486,-0.148 0.719,-0.219c0.234,-0.071 0.452,-0.132 0.655,-0.183c0.203,-0.052 0.404,-0.106 0.603,-0.164c0.199,-0.058 0.412,-0.129 0.639,-0.213c0.227,-0.084 0.458,-0.172 0.692,-0.265c0.234,-0.092 0.44,-0.173 0.617,-0.242c0.177,-0.069 0.323,-0.125 0.437,-0.167c0.114,-0.042 0.182,-0.065 0.203,-0.069c0.021,-0.003 -0.007,-0.006 -0.084,-0.007c-0.11,-0.002 -0.372,-0.021 -0.785,-0.059" style="fill:none;fill-rule:nonzero;stroke:#000;stroke-width:0.85px;"/><path d="M148.014,32.49c-0.08,0.049 -0.091,0.136 -0.031,0.262c0.06,0.125 0.181,0.24 0.362,0.343c0.182,0.103 0.394,0.23 0.638,0.378c0.244,0.149 0.514,0.317 0.811,0.506c0.297,0.189 0.6,0.384 0.909,0.585c0.309,0.202 0.612,0.392 0.909,0.57c0.297,0.179 0.584,0.347 0.862,0.505c0.278,0.158 0.54,0.327 0.787,0.506c0.247,0.179 0.473,0.356 0.679,0.532c0.206,0.176 0.396,0.318 0.572,0.425c0.176,0.107 0.359,0.21 0.55,0.309c0.191,0.099 0.392,0.22 0.603,0.364c0.211,0.144 0.425,0.309 0.641,0.495c0.216,0.186 0.436,0.371 0.659,0.556c0.223,0.185 0.45,0.378 0.681,0.579c0.231,0.201 0.464,0.403 0.7,0.605c0.236,0.202 0.465,0.392 0.687,0.571c0.222,0.179 0.434,0.348 0.636,0.509c0.202,0.161 0.413,0.332 0.633,0.513c0.22,0.181 0.456,0.377 0.708,0.588c0.252,0.211 0.5,0.413 0.744,0.606c0.244,0.193 0.477,0.373 0.698,0.539c0.222,0.166 0.44,0.33 0.654,0.493c0.214,0.163 0.425,0.331 0.632,0.506c0.207,0.175 0.395,0.339 0.564,0.493c0.169,0.154 0.335,0.306 0.498,0.457c0.163,0.15 0.34,0.31 0.533,0.479c0.193,0.169 0.402,0.347 0.627,0.534c0.225,0.187 0.44,0.357 0.643,0.509c0.203,0.153 0.384,0.285 0.544,0.398c0.159,0.113 0.328,0.227 0.505,0.342c0.178,0.115 0.401,0.273 0.671,0.475c0.269,0.201 0.547,0.426 0.835,0.676c0.287,0.25 0.523,0.456 0.706,0.619c0.183,0.163 0.298,0.257 0.346,0.284c0.067,0.037 0.016,-0.219 -0.152,-0.769" style="fill:none;fill-rule:nonzero;stroke:#000;stroke-width:0.85px;"/><path d="M179.841,32.031c-0.075,0.039 -0.141,0.097 -0.197,0.172c-0.057,0.075 -0.089,0.141 -0.097,0.197c-0.008,0.056 -0.012,0.105 -0.012,0.147c-0,0.042 -0,0.079 -0,0.11l0,0.258c0,0.049 0.002,0.087 0.007,0.115c0.004,0.028 0.025,0.043 0.063,0.046c0.038,0.003 0.091,0.001 0.16,-0.005c0.069,-0.007 0.192,-0.078 0.369,-0.215c0.177,-0.137 0.433,-0.363 0.768,-0.681c0.335,-0.317 0.718,-0.686 1.151,-1.107c0.433,-0.421 0.849,-0.837 1.247,-1.249c0.398,-0.412 0.762,-0.793 1.09,-1.144c0.329,-0.351 0.618,-0.632 0.869,-0.844c0.251,-0.212 0.484,-0.421 0.701,-0.628c0.217,-0.207 0.401,-0.416 0.554,-0.627c0.152,-0.211 0.247,-0.372 0.284,-0.483c0.037,-0.111 0.058,-0.174 0.061,-0.189c0.004,-0.021 -0.122,0.061 -0.378,0.246" style="fill:none;fill-rule:nonzero;stroke:#000;stroke-width:0.85px;"/><path d="M170.195,26.307c-0.042,0.003 -0.128,0.038 -0.258,0.105c-0.079,0.04 -0.12,0.073 -0.124,0.097c-0.004,0.024 0.04,0.066 0.132,0.124c0.092,0.059 0.241,0.158 0.447,0.299c0.206,0.14 0.442,0.307 0.707,0.5c0.266,0.193 0.554,0.394 0.866,0.603c0.312,0.209 0.637,0.413 0.977,0.613c0.34,0.2 0.669,0.405 0.989,0.615c0.32,0.211 0.612,0.416 0.877,0.617c0.264,0.201 0.523,0.37 0.775,0.509c0.252,0.139 0.497,0.272 0.734,0.399c0.237,0.128 0.455,0.291 0.653,0.491c0.198,0.199 0.383,0.391 0.553,0.575c0.171,0.184 0.338,0.339 0.501,0.465c0.163,0.126 0.321,0.24 0.474,0.342c0.153,0.102 0.311,0.21 0.474,0.324c0.163,0.114 0.311,0.216 0.443,0.305c0.133,0.089 0.238,0.158 0.315,0.208c0.078,0.05 0.143,0.081 0.196,0.092c0.074,0.015 0.061,-0.036 -0.038,-0.155" style="fill:none;fill-rule:nonzero;stroke:#000;stroke-width:0.85px;"/><path d="M210.093,32.621c-0.037,-0.028 0.028,-0.152 0.195,-0.371c0.167,-0.219 0.374,-0.443 0.621,-0.672c0.247,-0.229 0.518,-0.472 0.814,-0.729c0.295,-0.257 0.596,-0.508 0.903,-0.752c0.306,-0.244 0.606,-0.478 0.898,-0.702c0.292,-0.224 0.571,-0.427 0.838,-0.609c0.267,-0.182 0.499,-0.336 0.698,-0.461c0.199,-0.125 0.399,-0.273 0.6,-0.442c0.201,-0.17 0.42,-0.375 0.657,-0.617c0.237,-0.241 0.45,-0.454 0.638,-0.638c0.188,-0.184 0.319,-0.309 0.394,-0.376c0.074,-0.067 0.133,-0.111 0.177,-0.133l0.033,-0.016l-0.099,0.049" style="fill:none;fill-rule:nonzero;stroke:#000;stroke-width:0.85px;"/><path d="M202.624,27.005c-0.022,-0.046 -0.082,-0.091 -0.182,-0.136c-0.064,-0.029 -0.106,-0.044 -0.127,-0.044c-0.02,0 -0.03,0.019 -0.028,0.058c0.002,0.039 0.044,0.108 0.127,0.209c0.083,0.101 0.205,0.221 0.366,0.36c0.161,0.139 0.348,0.292 0.563,0.459c0.214,0.167 0.451,0.331 0.71,0.492c0.259,0.161 0.528,0.315 0.807,0.461c0.279,0.146 0.532,0.308 0.759,0.486c0.227,0.178 0.413,0.359 0.559,0.542c0.146,0.183 0.278,0.331 0.398,0.444c0.119,0.113 0.245,0.197 0.378,0.254c0.133,0.057 0.266,0.127 0.397,0.211c0.132,0.083 0.26,0.179 0.384,0.288c0.124,0.109 0.251,0.208 0.382,0.297c0.131,0.089 0.258,0.163 0.383,0.222c0.125,0.059 0.245,0.107 0.362,0.145c0.117,0.037 0.23,0.062 0.34,0.075c0.11,0.013 0.21,0.027 0.301,0.041c0.091,0.014 0.167,0.028 0.229,0.04c0.062,0.012 0.108,0.021 0.137,0.026l0.016,0.002l-0.049,-0.012c-0.075,-0.017 -0.19,-0.047 -0.343,-0.092" style="fill:none;fill-rule:nonzero;stroke:#000;stroke-width:0.85px;"/><path d="M148.164,32.245c-0.03,0.018 -0.11,0.04 -0.241,0.067c-0.078,0.016 -0.126,0.024 -0.144,0.024l-0.028,0l0,0.003c0,0.002 0.002,0.006 0.007,0.011c0.005,0.005 0.019,0.008 0.042,0.008c0.023,0 0.087,-0.021 0.192,-0.064c0.105,-0.043 0.294,-0.196 0.567,-0.459c0.273,-0.263 0.613,-0.6 1.02,-1.01c0.407,-0.41 0.811,-0.818 1.211,-1.226c0.4,-0.408 0.775,-0.754 1.125,-1.039c0.35,-0.285 0.665,-0.517 0.944,-0.698c0.28,-0.18 0.534,-0.347 0.764,-0.501c0.23,-0.153 0.424,-0.31 0.583,-0.47c0.158,-0.16 0.285,-0.31 0.38,-0.45c0.095,-0.14 0.166,-0.248 0.213,-0.324c0.048,-0.076 0.08,-0.12 0.098,-0.131c0.025,-0.016 0.024,0.017 -0.002,0.1" style="fill:none;fill-rule:nonzero;stroke:#000;stroke-width:0.85px;"/><path d="M139.198,26.169c-0.097,-0 -0.194,-0 -0.292,0l-0.2,0c-0.036,0 -0.045,0.023 -0.028,0.068c0.017,0.045 0.104,0.149 0.261,0.31c0.157,0.162 0.374,0.347 0.653,0.555c0.278,0.208 0.582,0.409 0.912,0.602c0.33,0.193 0.646,0.374 0.949,0.542c0.303,0.169 0.6,0.328 0.892,0.48c0.292,0.151 0.58,0.303 0.865,0.456c0.285,0.153 0.545,0.324 0.781,0.515c0.236,0.19 0.446,0.383 0.629,0.578c0.184,0.195 0.349,0.361 0.496,0.497c0.147,0.136 0.293,0.248 0.439,0.334c0.146,0.086 0.291,0.175 0.437,0.267c0.146,0.092 0.297,0.184 0.455,0.277c0.158,0.093 0.307,0.172 0.446,0.239c0.139,0.067 0.263,0.126 0.372,0.177c0.108,0.051 0.194,0.1 0.256,0.147c0.062,0.047 0.112,0.076 0.149,0.087c0.053,0.016 0.178,-0.033 0.375,-0.147" style="fill:none;fill-rule:nonzero;stroke:#000;stroke-width:0.85px;"/><path d="M151.535,41.699l0,-0.44c0,-0.048 -0.011,-0.097 -0.034,-0.145c-0.023,-0.049 -0.096,-0.103 -0.221,-0.164c-0.125,-0.06 -0.304,-0.103 -0.538,-0.127c-0.234,-0.024 -0.514,0.056 -0.84,0.239c-0.326,0.183 -0.6,0.477 -0.821,0.881c-0.221,0.404 -0.315,0.776 -0.281,1.117c0.033,0.341 0.233,0.551 0.599,0.629c0.366,0.078 0.744,0.041 1.133,-0.111c0.39,-0.152 0.699,-0.368 0.927,-0.648c0.228,-0.28 0.363,-0.547 0.405,-0.802c0.042,-0.255 0.042,-0.45 0.001,-0.587c-0.041,-0.136 -0.086,-0.223 -0.137,-0.26c-0.05,-0.037 -0.068,0.003 -0.054,0.12c0.014,0.117 0.076,0.4 0.186,0.848c0.109,0.448 0.236,0.853 0.38,1.213c0.144,0.36 0.337,0.642 0.58,0.846l0.182,0.153l-0.547,-0.458" style="fill:none;fill-rule:nonzero;stroke:#000;stroke-width:0.85px;"/><path d="M179.535,36.537c-0.039,-0.009 -0.025,0.174 0.042,0.55c0.067,0.375 0.153,0.75 0.26,1.124c0.107,0.374 0.196,0.712 0.265,1.015c0.07,0.303 0.119,0.524 0.147,0.661c0.028,0.138 0.044,0.217 0.047,0.237c0.003,0.021 0.006,-0.031 0.008,-0.156c0.002,-0.125 0.055,-0.306 0.158,-0.545c0.103,-0.238 0.298,-0.463 0.584,-0.675c0.286,-0.212 0.59,-0.355 0.911,-0.432c0.321,-0.076 0.616,-0.061 0.883,0.045c0.267,0.106 0.47,0.296 0.607,0.569c0.137,0.273 0.212,0.557 0.223,0.851c0.011,0.294 -0.045,0.552 -0.168,0.772c-0.123,0.22 -0.285,0.386 -0.486,0.497c-0.2,0.111 -0.415,0.177 -0.645,0.199c-0.23,0.022 -0.479,-0.01 -0.747,-0.097c-0.268,-0.087 -0.537,-0.223 -0.805,-0.41c-0.433,-0.301 -0.683,-0.532 -0.751,-0.694" style="fill:none;fill-rule:nonzero;stroke:#000;stroke-width:0.85px;"/><path d="M208.269,38.372c0.012,-0.037 0.006,-0.136 -0.019,-0.297c-0.015,-0.096 -0.028,-0.177 -0.04,-0.243c-0.012,-0.066 -0.04,-0.122 -0.085,-0.166c-0.044,-0.045 -0.142,-0.071 -0.292,-0.08c-0.15,-0.009 -0.374,0.05 -0.67,0.176c-0.297,0.126 -0.617,0.341 -0.96,0.645c-0.343,0.304 -0.618,0.629 -0.824,0.977c-0.206,0.348 -0.287,0.65 -0.242,0.908c0.045,0.258 0.279,0.432 0.701,0.523c0.422,0.091 0.914,0.139 1.475,0.143c0.561,0.005 1.118,-0.024 1.669,-0.084c0.899,-0.099 1.47,-0.225 1.715,-0.378" style="fill:none;fill-rule:nonzero;stroke:#000;stroke-width:0.85px;"/><g transform="matrix(1,0,0,1,-21.84,-406.08)"><g transform="matrix(5.191614,0,0,1,-129.474444,0)"><text x="30.889px" y="447.899px" style="font-family:'Helvetica';font-size:34.697px;fill:none;">=</text></g><g transform="matrix(2.972851,0,0,1,-253.92039,0)"><text x="138.851px" y="429.467px" style="font-family:'Helvetica';font-size:14.744px;fill:none;"><tspan x="138.851px 145.361px 151.87px 159.466px " y="429.467px 429.467px 429.467px 429.467px ">111k</tspan></text></g></g><g transform="matrix(1,0,0,0.10886,0,-361.874146)"><text x="138.228px" y="3743.505px" style="font-family:'Helvetica';font-size:194.821px;fill:none;">*</text></g></g></svg>