<?xml version="1.0" encoding="UTF-8" standalone="no"?><!DOCTYPE svg PUBLIC "-//W3C//DTD SVG 1.1//EN" "http://www.w3.org/Graphics/SVG/1.1/DTD/svg11.dtd"><svg width="100%" height="100%" viewBox="0 0 173 139" version="1.1" xmlns="http://www.w3.org/2000/svg" xmlns:xlink="http://www.w3.org/1999/xlink" xml:space="preserve" xmlns:serif="http://www.serif.com/" style="fill-rule:evenodd;clip-rule:evenodd;stroke-linecap:round;stroke-linejoin:round;stroke-miterlimit:10;"><rect x="0" y="0" width="173" height="139" style="fill:#fff;"/><path d="M21.723,5.423c0.006,0.011 0.025,0.139 0.055,0.385c0.031,0.246 0.052,0.512 0.064,0.799c0.012,0.288 0.021,0.583 0.026,0.887c0.005,0.304 0.008,0.597 0.008,0.88l0,1.455c0,0.208 0.007,0.401 0.02,0.58c0.013,0.178 0.045,0.337 0.096,0.477c0.05,0.14 0.087,0.276 0.11,0.407c0.023,0.131 0.035,0.269 0.036,0.415c0,0.145 -0.001,0.306 -0.003,0.485c-0.002,0.178 -0.016,0.366 -0.042,0.562c-0.026,0.197 -0.049,0.385 -0.069,0.563c-0.02,0.178 -0.034,0.353 -0.041,0.523c-0.008,0.17 -0.021,0.343 -0.039,0.52c-0.019,0.177 -0.048,0.361 -0.089,0.55c-0.041,0.189 -0.08,0.38 -0.117,0.572c-0.037,0.192 -0.063,0.383 -0.078,0.572c-0.015,0.19 -0.023,0.374 -0.024,0.551l0,0.54c0,0.182 -0.006,0.366 -0.017,0.554c-0.012,0.187 -0.024,0.363 -0.036,0.527c-0.012,0.164 -0.021,0.313 -0.026,0.448c-0.005,0.134 -0.008,0.259 -0.008,0.374l0,1.851c0,0.129 0.001,0.251 0.003,0.366c0.002,0.114 0.007,0.225 0.014,0.332c0.007,0.107 0.017,0.217 0.029,0.328c0.012,0.112 0.024,0.228 0.036,0.349c0.012,0.121 0.023,0.244 0.033,0.368c0.01,0.124 0.019,0.247 0.029,0.369c0.009,0.121 0.019,0.237 0.029,0.347c0.01,0.109 0.016,0.221 0.019,0.336c0.003,0.114 0.006,0.222 0.011,0.324c0.005,0.103 0.01,0.203 0.018,0.3c0.007,0.098 0.017,0.201 0.029,0.309c0.012,0.108 0.021,0.236 0.026,0.383c0.005,0.147 0.008,0.31 0.008,0.489l0,7.65c0,0.26 -0.002,0.499 -0.007,0.714c-0.005,0.216 -0.012,0.41 -0.021,0.581c-0.01,0.171 -0.025,0.349 -0.047,0.533c-0.022,0.184 -0.049,0.382 -0.083,0.594c-0.034,0.213 -0.066,0.437 -0.098,0.672c-0.032,0.235 -0.054,0.471 -0.067,0.707c-0.013,0.236 -0.021,0.45 -0.024,0.642c-0.003,0.191 -0.004,0.366 -0.004,0.525c0,0.158 -0.003,0.324 -0.01,0.496c-0.007,0.172 -0.017,0.36 -0.032,0.565c-0.014,0.205 -0.033,0.424 -0.054,0.656c-0.022,0.233 -0.039,0.474 -0.051,0.723c-0.013,0.25 -0.02,0.5 -0.023,0.751c-0.003,0.251 -0.004,0.494 -0.004,0.73c0,0.236 0.001,0.473 0.003,0.711c0.002,0.238 0.01,0.48 0.025,0.725c0.014,0.245 0.029,0.482 0.043,0.708c0.015,0.227 0.029,0.45 0.044,0.668c0.015,0.219 0.032,0.435 0.051,0.649c0.019,0.214 0.036,0.424 0.051,0.628c0.015,0.204 0.038,0.412 0.069,0.623c0.031,0.211 0.06,0.412 0.087,0.603c0.027,0.191 0.052,0.359 0.074,0.504c0.022,0.145 0.041,0.282 0.059,0.411c0.017,0.129 0.035,0.254 0.055,0.376c0.019,0.122 0.035,0.247 0.048,0.375c0.013,0.128 0.024,0.265 0.034,0.41c0.01,0.145 0.015,0.293 0.015,0.444l0,0.452c0,0.151 0.003,0.298 0.01,0.442c0.007,0.143 0.016,0.296 0.029,0.458c0.012,0.162 0.023,0.326 0.033,0.491c0.01,0.166 0.016,0.319 0.018,0.461c0.003,0.142 0.008,0.277 0.018,0.407c0.01,0.129 0.018,0.249 0.026,0.359c0.007,0.11 0.012,0.216 0.015,0.318c0.003,0.102 0.004,0.205 0.004,0.31l0,4.323c0,0.15 -0.002,0.307 -0.007,0.469c-0.005,0.162 -0.013,0.333 -0.025,0.512c-0.012,0.179 -0.027,0.368 -0.047,0.566c-0.019,0.198 -0.036,0.406 -0.051,0.622c-0.015,0.216 -0.03,0.425 -0.044,0.628c-0.015,0.202 -0.03,0.392 -0.047,0.567c-0.017,0.176 -0.033,0.346 -0.047,0.509c-0.015,0.163 -0.029,0.329 -0.044,0.499c-0.015,0.169 -0.027,0.359 -0.037,0.569c-0.01,0.21 -0.021,0.428 -0.033,0.653c-0.012,0.225 -0.023,0.452 -0.033,0.678c-0.01,0.227 -0.022,0.442 -0.036,0.647c-0.014,0.205 -0.029,0.406 -0.043,0.603c-0.015,0.197 -0.023,0.407 -0.026,0.632c-0.003,0.225 -0.004,0.465 -0.004,0.719l0,3.072c0,0.262 0.003,0.536 0.01,0.821c0.007,0.285 0.016,0.595 0.029,0.929c0.012,0.334 0.026,0.67 0.04,1.008c0.014,0.338 0.029,0.674 0.043,1.01c0.015,0.336 0.027,0.652 0.037,0.948c0.01,0.296 0.019,0.567 0.026,0.815c0.007,0.247 0.011,0.484 0.011,0.71c0,0.226 0.004,0.456 0.011,0.689c0.007,0.233 0.021,0.478 0.043,0.734c0.022,0.257 0.036,0.504 0.044,0.741c0.008,0.237 0.012,0.451 0.012,0.643l0,1.667c0,0.202 -0.005,0.394 -0.014,0.577c-0.009,0.183 -0.023,0.364 -0.043,0.544c-0.019,0.179 -0.04,0.379 -0.062,0.598c-0.022,0.22 -0.044,0.451 -0.066,0.693c-0.022,0.243 -0.042,0.487 -0.059,0.732c-0.017,0.246 -0.029,0.476 -0.034,0.692c-0.005,0.216 -0.008,0.407 -0.008,0.574l0,7.118c0,0.202 0.002,0.4 0.007,0.595c0.005,0.195 0.014,0.394 0.028,0.597c0.014,0.204 0.028,0.422 0.04,0.654c0.012,0.232 0.021,0.471 0.026,0.716c0.005,0.245 0.008,0.497 0.008,0.757l0,1.695c0,0.299 0.002,0.586 0.007,0.862c0.005,0.276 0.012,0.523 0.022,0.742c0.01,0.218 0.018,0.409 0.025,0.571c0.007,0.162 0.011,0.32 0.011,0.473l0,1.148c0,0.237 0.001,0.481 0.003,0.734c0.002,0.253 0.012,0.497 0.028,0.734c0.017,0.236 0.03,0.468 0.04,0.694c0.01,0.226 0.015,0.46 0.015,0.703l0,3.168c0,0.241 -0.007,0.48 -0.021,0.715c-0.014,0.236 -0.031,0.478 -0.05,0.728c-0.02,0.25 -0.031,0.506 -0.034,0.768c-0.003,0.262 -0.004,0.511 -0.004,0.746l0,2.502c0,0.202 0.005,0.379 0.014,0.529c0.009,0.15 0.02,0.289 0.032,0.415c0.012,0.126 0.022,0.269 0.03,0.428c0.007,0.159 0.011,0.329 0.011,0.508c0,0.179 0.001,0.353 0.004,0.522c0.002,0.168 0.007,0.333 0.014,0.493c0.007,0.16 0.016,0.316 0.026,0.467c0.01,0.151 0.016,0.3 0.019,0.446c0.003,0.146 0.004,0.297 0.004,0.455c0,0.157 0.005,0.332 0.014,0.525c0.009,0.193 0.022,0.408 0.039,0.645c0.017,0.237 0.032,0.466 0.044,0.685c0.012,0.22 0.022,0.412 0.03,0.574c0.008,0.163 0.015,0.301 0.022,0.414c0.007,0.113 0.015,0.243 0.022,0.389c0.007,0.146 0.017,0.311 0.029,0.495c0.012,0.184 0.023,0.367 0.033,0.55c0.01,0.183 0.018,0.354 0.023,0.512c0.005,0.159 0.008,0.314 0.008,0.464l0,4.153c0,0.184 0.001,0.37 0.003,0.558c0.002,0.187 0.009,0.373 0.021,0.558c0.012,0.184 0.021,0.374 0.026,0.568c0.005,0.194 0.009,0.382 0.011,0.562c0.003,0.18 0.004,0.349 0.004,0.506l0,3.417c0,0.055 0.058,0.057 0.173,0.003" style="fill:none;fill-rule:nonzero;stroke:#000;stroke-width:0.85px;"/><path d="M5.69,21.151l-0.373,0c-0.013,0 -0.019,0 -0.018,0l0.009,0c0.005,0 0.087,0.003 0.246,0.008c0.159,0.005 0.422,0.009 0.789,0.011c0.367,0.002 0.762,-0.004 1.186,-0.018c0.424,-0.014 0.833,-0.024 1.229,-0.033c0.396,-0.008 0.776,-0.012 1.141,-0.012l4.155,0c0.26,0 0.549,-0.005 0.865,-0.017c0.317,-0.011 0.629,-0.026 0.937,-0.043c0.308,-0.018 0.573,-0.026 0.795,-0.027l2.956,0c0.179,0 0.354,-0.001 0.526,-0.003c0.172,-0.003 0.348,-0.009 0.528,-0.018c0.179,-0.01 0.358,-0.02 0.536,-0.029c0.178,-0.01 0.344,-0.015 0.498,-0.015c0.154,-0.001 0.298,-0.001 0.432,-0.001l0.862,0c0.155,0 0.312,-0.007 0.47,-0.02c0.158,-0.014 0.318,-0.025 0.481,-0.033c0.162,-0.008 0.324,-0.012 0.485,-0.012l1.819,0c0.275,0 0.56,0.003 0.854,0.01c0.294,0.007 0.574,0.021 0.84,0.042c0.266,0.022 0.53,0.044 0.792,0.065c0.262,0.022 0.537,0.038 0.826,0.049c0.288,0.01 0.574,0.018 0.856,0.023c0.283,0.005 0.553,0.007 0.812,0.007l0.76,0c0.248,0 0.498,-0.003 0.751,-0.01c0.252,-0.007 0.513,-0.011 0.782,-0.011c0.269,0 0.561,-0.003 0.878,-0.007c0.316,-0.004 0.654,-0.024 1.013,-0.06c0.359,-0.035 0.707,-0.059 1.047,-0.07c0.339,-0.011 0.65,-0.015 0.932,-0.013c0.282,0.002 0.554,0.016 0.816,0.042c0.262,0.026 0.549,0.043 0.86,0.051c0.311,0.009 0.64,0.013 0.987,0.013l9.504,0c0.173,0 0.348,0.002 0.525,0.007c0.177,0.004 0.36,0.008 0.549,0.011c0.189,0.002 0.395,0.004 0.617,0.004l4.547,0c0.039,0 0.075,0.002 0.107,0.007c0.032,0.004 0.074,0.012 0.126,0.024c0.052,0.012 0.117,0.023 0.194,0.033c0.077,0.01 0.161,0.016 0.253,0.019c0.092,0.003 0.187,0.004 0.284,0.004l4.647,0c0.346,0 0.73,-0.004 1.151,-0.013c0.421,-0.009 0.821,-0.02 1.198,-0.033c0.378,-0.013 0.702,-0.019 0.973,-0.019l2.565,0c0.207,0 0.42,-0.001 0.641,-0.004c0.22,-0.002 0.456,-0.006 0.708,-0.011c0.252,-0.005 0.52,-0.007 0.806,-0.007l4.273,0c0.373,0 0.728,-0.004 1.065,-0.011c0.337,-0.007 0.652,-0.013 0.945,-0.018c0.293,-0.005 0.565,-0.008 0.814,-0.011c0.249,-0.003 0.473,-0.004 0.669,-0.004l0.969,0c0.141,0 0.293,-0.002 0.458,-0.007c0.165,-0.005 0.322,-0.008 0.471,-0.011c0.149,-0.003 0.289,-0.004 0.418,-0.004l0.418,0c0.149,0 0.319,-0.005 0.51,-0.014c0.191,-0.009 0.386,-0.016 0.585,-0.022c0.199,-0.005 0.397,-0.008 0.594,-0.008l1.333,0c0.252,0 0.507,-0.002 0.765,-0.007c0.258,-0.004 0.488,-0.009 0.69,-0.014c0.202,-0.005 0.366,-0.01 0.493,-0.015c0.127,-0.005 0.22,-0.011 0.281,-0.018c0.06,-0.007 0.103,-0.013 0.128,-0.018c0.025,-0.005 0.049,-0.008 0.07,-0.011c0.021,-0.003 0.054,-0.004 0.097,-0.004l0.764,0c0.121,0 0.248,0.006 0.382,0.017c0.133,0.012 0.269,0.025 0.408,0.04c0.138,0.014 0.277,0.029 0.415,0.043c0.139,0.015 0.275,0.028 0.409,0.04c0.134,0.013 0.265,0.028 0.394,0.047c0.129,0.02 0.267,0.037 0.414,0.051c0.147,0.015 0.323,0.03 0.527,0.045c0.204,0.015 0.451,0.022 0.742,0.023l7.112,0c0.505,0 0.999,0.001 1.483,0.003c0.484,0.003 0.952,0.013 1.403,0.032c0.451,0.019 0.903,0.032 1.354,0.04c0.451,0.008 0.902,0.013 1.352,0.013c0.451,0 0.873,0.001 1.267,0.003c0.394,0.002 0.751,0.013 1.072,0.031c0.322,0.019 0.607,0.042 0.857,0.068c0.25,0.027 0.499,0.058 0.746,0.094c0.247,0.037 0.506,0.067 0.778,0.092c0.272,0.025 0.531,0.045 0.778,0.06c0.248,0.015 0.47,0.023 0.668,0.023l0.589,0c0.194,0 0.418,0.005 0.673,0.014c0.255,0.009 0.535,0.023 0.84,0.04c0.305,0.016 0.602,0.03 0.89,0.04c0.287,0.01 0.554,0.015 0.799,0.015c0.245,0.001 0.467,0.004 0.668,0.011c0.201,0.007 0.393,0.02 0.575,0.039c0.183,0.02 0.356,0.031 0.52,0.034c0.163,0.003 0.311,0.004 0.444,0.004l0.954,0c0.087,0 0.17,-0.003 0.248,-0.01c0.079,-0.007 0.153,-0.012 0.224,-0.014c0.071,-0.003 0.138,-0.007 0.201,-0.012c0.063,-0.005 0.128,-0.007 0.193,-0.007l0.472,0c0.09,0 0.179,-0.003 0.269,-0.007c0.09,-0.005 0.189,-0.009 0.298,-0.011c0.108,-0.003 0.24,-0.005 0.395,-0.008c0.156,-0.002 0.358,-0.006 0.607,-0.014c0.25,-0.007 0.534,-0.02 0.853,-0.039c0.318,-0.019 0.659,-0.036 1.022,-0.051c0.363,-0.015 0.74,-0.026 1.131,-0.034c0.391,-0.007 0.779,-0.011 1.166,-0.011l2.798,0c0.235,0 0.459,0.001 0.673,0.003c0.214,0.002 0.437,0.008 0.667,0.018c0.23,0.009 0.462,0.017 0.695,0.022c0.234,0.004 0.465,0.009 0.693,0.014c0.229,0.006 0.461,0.012 0.696,0.019c0.235,0.007 0.487,0.01 0.756,0.011l2.546,0c0.277,0 0.557,0.007 0.838,0.021c0.282,0.014 0.562,0.031 0.839,0.053c0.278,0.022 0.545,0.047 0.801,0.076c0.256,0.029 0.494,0.05 0.714,0.063c0.22,0.013 0.425,0.021 0.613,0.024c0.188,0.002 0.366,0.004 0.535,0.004l1.952,0c0.078,0 0.162,-0.004 0.251,-0.01c0.09,-0.007 0.193,-0.021 0.311,-0.043c0.118,-0.022 0.254,-0.043 0.408,-0.065c0.154,-0.022 0.331,-0.045 0.531,-0.069c0.2,-0.024 0.414,-0.05 0.642,-0.077c0.228,-0.027 0.466,-0.051 0.716,-0.073c0.249,-0.022 0.519,-0.039 0.809,-0.052c0.29,-0.012 0.596,-0.02 0.918,-0.023c0.323,-0.003 0.641,-0.004 0.956,-0.004c0.314,0 0.597,-0.002 0.848,-0.007c0.251,-0.004 0.467,-0.008 0.649,-0.011c0.182,-0.002 0.335,-0.004 0.459,-0.004l0.314,0c0.086,0 0.168,0.004 0.246,0.011c0.078,0.007 0.153,0.01 0.226,0.011l1.093,0c0.083,0 0.158,-0.003 0.224,-0.01c0.066,-0.007 0.123,-0.011 0.17,-0.011c0.046,-0.001 0.096,-0.001 0.149,-0.001l0.219,0c0.093,0 0.2,-0.002 0.321,-0.007c0.121,-0.004 0.235,-0.011 0.34,-0.021c0.105,-0.01 0.207,-0.018 0.307,-0.026c0.099,-0.007 0.206,-0.011 0.32,-0.011l0.352,0c0.121,0 0.237,-0.002 0.347,-0.004c0.11,-0.002 0.225,-0.006 0.346,-0.011c0.121,-0.005 0.251,-0.007 0.388,-0.007l3.232,0c0.369,0 0.799,0.001 1.288,0.003c0.49,0.002 1,0.014 1.529,0.035c0.53,0.021 1.034,0.045 1.51,0.072c0.476,0.027 0.9,0.047 1.272,0.059c0.372,0.013 0.677,0.022 0.915,0.027c0.237,0.005 0.443,0.012 0.617,0.022c0.174,0.009 0.34,0.022 0.496,0.039c0.156,0.016 0.292,0.033 0.408,0.051c0.116,0.017 0.22,0.028 0.312,0.034c0.093,0.005 0.198,0.009 0.316,0.011c0.118,0.002 0.253,0.008 0.405,0.018c0.152,0.009 0.299,0.017 0.441,0.022c0.142,0.005 0.266,0.01 0.372,0.015c0.106,0.005 0.203,0.007 0.293,0.007l1.498,0c0.065,0 0.052,-0.009 -0.041,-0.026c-0.137,-0.026 -0.29,-0.109 -0.46,-0.248" style="fill:none;fill-rule:nonzero;stroke:#000;stroke-width:0.85px;"/><path d="M53.266,6.32c0.069,0.022 0.144,0.06 0.225,0.116c0.081,0.055 0.126,0.14 0.134,0.255c0.008,0.115 0.009,0.311 0.002,0.587c-0.007,0.276 -0.014,0.587 -0.022,0.934c-0.008,0.347 -0.012,0.689 -0.012,1.027c0,0.338 -0.002,0.692 -0.007,1.062c-0.004,0.37 -0.038,0.768 -0.101,1.194c-0.063,0.426 -0.118,0.861 -0.163,1.306c-0.046,0.445 -0.075,0.88 -0.087,1.306c-0.012,0.426 -0.032,0.849 -0.058,1.27c-0.026,0.421 -0.064,0.835 -0.114,1.244c-0.05,0.409 -0.099,0.813 -0.146,1.212c-0.047,0.399 -0.077,0.781 -0.09,1.148c-0.013,0.366 -0.015,0.702 -0.007,1.008c0.009,0.305 0.023,0.624 0.043,0.955c0.02,0.331 0.03,0.69 0.03,1.077c0,0.386 0.002,0.777 0.004,1.172c0.002,0.396 0.007,0.74 0.014,1.033c0.007,0.293 0.017,0.552 0.029,0.777c0.012,0.225 0.029,0.462 0.05,0.711c0.022,0.249 0.047,0.53 0.076,0.843c0.029,0.313 0.047,0.647 0.056,1.001c0.008,0.354 0.012,0.696 0.012,1.026c0,0.33 0.005,0.623 0.014,0.879c0.009,0.255 0.027,0.507 0.053,0.756c0.027,0.249 0.044,0.535 0.052,0.858c0.008,0.323 0.012,0.649 0.012,0.978l0,3.647c0,0.367 -0.02,0.744 -0.059,1.131c-0.039,0.387 -0.078,0.736 -0.115,1.049c-0.038,0.312 -0.056,0.583 -0.055,0.814c0.001,0.23 0.02,0.476 0.058,0.739c0.038,0.263 0.07,0.56 0.098,0.893c0.028,0.333 0.043,0.694 0.046,1.084c0.003,0.39 0.004,0.779 0.004,1.169l0,1.161c0,0.384 0.014,0.737 0.041,1.059c0.027,0.322 0.07,0.604 0.128,0.846c0.058,0.243 0.106,0.502 0.143,0.779c0.037,0.277 0.06,0.611 0.068,1.002c0.008,0.392 0.013,0.818 0.013,1.279l0,2.426c0,0.348 0.002,0.71 0.007,1.085c0.005,0.375 0.015,0.784 0.032,1.226c0.017,0.442 0.032,0.892 0.047,1.35c0.015,0.458 0.026,0.881 0.034,1.271c0.008,0.39 0.012,0.733 0.012,1.03l0,2.919c0,0.361 -0.008,0.73 -0.024,1.106c-0.016,0.377 -0.04,0.752 -0.072,1.127c-0.032,0.374 -0.053,0.745 -0.063,1.113c-0.01,0.367 -0.016,0.724 -0.016,1.07l0,2.065c0,0.341 -0.007,0.68 -0.021,1.017c-0.014,0.337 -0.033,0.692 -0.057,1.065c-0.024,0.373 -0.048,0.78 -0.073,1.222c-0.025,0.442 -0.041,0.924 -0.049,1.447c-0.008,0.523 -0.013,1.015 -0.015,1.476c-0.003,0.461 -0.006,0.863 -0.011,1.207c-0.005,0.344 -0.012,0.671 -0.022,0.979c-0.01,0.309 -0.015,0.634 -0.015,0.975c0,0.341 0.009,0.692 0.027,1.052c0.019,0.359 0.033,0.704 0.043,1.034c0.01,0.33 0.016,0.631 0.016,0.902c0,0.271 0.001,0.537 0.001,0.797l0,2.932c0,0.356 -0.001,0.7 -0.003,1.034c-0.002,0.334 -0.008,0.665 -0.018,0.993c-0.01,0.328 -0.022,0.651 -0.036,0.97c-0.014,0.319 -0.027,0.637 -0.036,0.956c-0.01,0.319 -0.015,0.638 -0.015,0.959c0,0.32 -0.001,0.657 -0.001,1.011l0,3.143c0,0.335 0.005,0.688 0.014,1.058c0.009,0.37 0.03,0.75 0.064,1.139c0.034,0.389 0.055,0.763 0.063,1.121c0.008,0.359 0.013,0.692 0.013,1l0,3.347c0,0.451 0.001,0.908 0.003,1.37c0.002,0.462 0.01,0.906 0.025,1.333c0.014,0.427 0.034,0.842 0.06,1.246c0.026,0.404 0.062,0.812 0.107,1.225c0.046,0.412 0.095,0.842 0.149,1.287c0.053,0.446 0.093,0.888 0.119,1.328c0.026,0.439 0.039,0.819 0.039,1.14c0,0.321 -0.002,0.596 -0.006,0.823c-0.005,0.228 -0.008,0.477 -0.011,0.746c-0.003,0.269 -0.004,0.575 -0.004,0.915l0,13.207c0,0.249 -0.005,0.495 -0.014,0.736c-0.009,0.241 -0.021,0.472 -0.036,0.691c-0.015,0.22 -0.027,0.431 -0.037,0.636c-0.01,0.204 -0.019,0.404 -0.026,0.599c-0.007,0.195 -0.012,0.375 -0.015,0.538c-0.003,0.164 -0.004,0.334 -0.004,0.51l0,1.213c0,0.221 0.001,0.451 0.003,0.691c0.002,0.24 0.017,0.492 0.045,0.755c0.028,0.264 0.056,0.536 0.083,0.815c0.027,0.279 0.048,0.545 0.064,0.797c0.015,0.252 0.023,0.444 0.023,0.575l-0.004,0.084l-0.019,-0.152c-0.023,-0.262 -0.096,-0.53 -0.22,-0.803" style="fill:none;fill-rule:nonzero;stroke:#000;stroke-width:0.85px;"/><path d="M85.465,5.27c-0.085,0.002 -0.157,0.037 -0.216,0.105c-0.06,0.068 -0.089,0.208 -0.09,0.421c0,0.213 0.001,0.501 0.003,0.863c0.002,0.362 0.016,0.779 0.042,1.252c0.026,0.472 0.058,0.972 0.097,1.499c0.039,0.526 0.078,1.034 0.117,1.522c0.039,0.488 0.064,0.938 0.075,1.349c0.011,0.411 0.012,0.797 0.004,1.158c-0.009,0.362 -0.042,0.71 -0.099,1.046c-0.057,0.336 -0.093,0.672 -0.107,1.007c-0.014,0.336 -0.003,0.658 0.034,0.965c0.037,0.307 0.075,0.614 0.115,0.92c0.04,0.305 0.061,0.622 0.062,0.95c0.001,0.327 -0.014,0.644 -0.044,0.952c-0.031,0.307 -0.055,0.603 -0.073,0.888c-0.018,0.286 -0.027,0.568 -0.028,0.847c0,0.279 -0.001,0.57 -0.001,0.873l0,3.614c0,0.241 0.01,0.507 0.031,0.796c0.021,0.289 0.035,0.609 0.044,0.96c0.008,0.351 0.013,0.698 0.013,1.042c0,0.343 -0.004,0.662 -0.011,0.956c-0.007,0.293 -0.011,0.575 -0.011,0.845l0,2.799c0,0.352 -0.011,0.705 -0.034,1.06c-0.023,0.355 -0.057,0.695 -0.104,1.02c-0.046,0.325 -0.079,0.624 -0.097,0.898c-0.018,0.274 -0.027,0.557 -0.028,0.849c0,0.292 -0.005,0.617 -0.014,0.975c-0.009,0.358 -0.019,0.708 -0.029,1.05c-0.01,0.342 -0.016,0.649 -0.019,0.922c-0.003,0.272 -0.004,0.53 -0.004,0.773c0,0.243 -0.002,0.498 -0.007,0.764c-0.005,0.266 -0.012,0.568 -0.021,0.905c-0.01,0.337 -0.015,0.701 -0.015,1.092l0,1.974c0,0.245 0.004,0.46 0.014,0.645c0.009,0.185 0.016,0.404 0.022,0.655c0.005,0.252 0.007,0.564 0.005,0.936c-0.002,0.372 -0.008,0.758 -0.018,1.157c-0.01,0.399 -0.016,0.789 -0.018,1.168c-0.003,0.38 -0.004,0.745 -0.004,1.096l0,15.987c0,0.346 0.006,0.732 0.017,1.156c0.012,0.425 0.022,0.872 0.032,1.34c0.01,0.469 0.021,0.903 0.033,1.302c0.012,0.399 0.026,0.776 0.043,1.129c0.017,0.353 0.033,0.72 0.047,1.099c0.015,0.379 0.026,0.799 0.034,1.259c0.008,0.459 0.012,0.903 0.012,1.33l0,1.219c0,0.385 0.01,0.772 0.031,1.16c0.02,0.388 0.046,0.788 0.075,1.201c0.03,0.413 0.053,0.814 0.071,1.201c0.017,0.388 0.029,0.762 0.034,1.122c0.005,0.36 0.009,0.726 0.011,1.097c0.002,0.371 0.008,0.755 0.018,1.154c0.01,0.398 0.018,0.78 0.025,1.147c0.007,0.366 0.019,0.733 0.036,1.101c0.016,0.368 0.036,0.791 0.058,1.27c0.022,0.479 0.034,1.011 0.034,1.597c0.001,0.586 0.003,1.137 0.008,1.655c0.005,0.517 0.008,0.972 0.011,1.365c0.003,0.393 0.006,0.757 0.011,1.091c0.005,0.334 0.015,0.663 0.032,0.986c0.017,0.323 0.029,0.65 0.037,0.981c0.008,0.33 0.012,0.654 0.012,0.971l0,1.775c0,0.291 0.003,0.603 0.01,0.937c0.007,0.333 0.021,0.703 0.042,1.109c0.022,0.406 0.04,0.791 0.055,1.153c0.015,0.363 0.023,0.689 0.023,0.977l0,1.833c0,0.348 -0.003,0.712 -0.01,1.093c-0.007,0.381 -0.018,0.772 -0.032,1.175c-0.015,0.403 -0.027,0.8 -0.037,1.193c-0.009,0.393 -0.019,0.758 -0.029,1.095c-0.01,0.337 -0.02,0.648 -0.029,0.932c-0.01,0.284 -0.015,0.556 -0.015,0.817l0,1.532c0,0.25 0.001,0.519 0.003,0.807c0.002,0.287 0.008,0.589 0.018,0.904c0.01,0.316 0.02,0.63 0.029,0.943c0.01,0.313 0.015,0.628 0.015,0.945l0,0.947c0,0.315 0.003,0.644 0.01,0.986c0.007,0.342 0.016,0.663 0.029,0.962c0.012,0.299 0.02,0.572 0.023,0.819c0.003,0.247 0.004,0.502 0.004,0.765l0,3.131c0,0.199 0.002,0.398 0.007,0.595c0.004,0.197 0.015,0.391 0.032,0.581c0.016,0.19 0.033,0.383 0.051,0.579c0.017,0.196 0.033,0.399 0.048,0.608c0.015,0.209 0.025,0.405 0.03,0.589c0.005,0.183 0.008,0.364 0.008,0.541l0,1.16c0,0.204 0.005,0.409 0.014,0.616c0.009,0.206 0.023,0.424 0.042,0.654c0.019,0.23 0.04,0.465 0.061,0.706c0.022,0.241 0.037,0.466 0.045,0.677c0.008,0.21 0.012,0.405 0.012,0.583l0,0.564c0,0.198 -0.007,0.412 -0.021,0.642c-0.014,0.23 -0.035,0.455 -0.064,0.674c-0.029,0.22 -0.06,0.417 -0.094,0.592c-0.034,0.175 -0.06,0.292 -0.078,0.351c-0.018,0.059 -0.02,0.044 -0.006,-0.044c0.021,-0.129 0.009,-0.291 -0.035,-0.484" style="fill:none;fill-rule:nonzero;stroke:#000;stroke-width:0.85px;"/><path d="M117.314,5.052c0.012,-0.066 0.032,-0.144 0.059,-0.233c0.028,-0.089 0.043,-0.081 0.046,0.025c0.003,0.105 -0.001,0.503 -0.013,1.193c-0.012,0.69 -0.019,1.411 -0.022,2.161c-0.003,0.751 -0.004,1.422 -0.004,2.015c0,0.593 -0.004,1.133 -0.011,1.618c-0.006,0.486 -0.014,0.979 -0.021,1.477c-0.008,0.499 -0.012,1.037 -0.012,1.612l0,1.659c0,0.529 0.001,0.943 0.003,1.242c0.002,0.298 0.013,0.517 0.032,0.657c0.019,0.14 0.032,0.295 0.04,0.468c0.008,0.172 0.012,0.392 0.012,0.661l0,5.017c0,0.273 -0.005,0.602 -0.017,0.989c-0.011,0.387 -0.035,0.808 -0.071,1.264c-0.035,0.455 -0.07,0.896 -0.104,1.321c-0.035,0.425 -0.064,0.826 -0.089,1.204c-0.025,0.378 -0.039,0.761 -0.042,1.149c-0.003,0.387 -0.005,0.796 -0.005,1.224l0,1.331c0,0.459 0.001,0.899 0.004,1.319c0.002,0.42 0.012,0.812 0.031,1.176c0.019,0.364 0.032,0.729 0.041,1.095c0.008,0.365 0.012,0.752 0.012,1.159l0,2.208c0,0.302 0.005,0.571 0.017,0.806c0.011,0.235 0.028,0.487 0.05,0.757c0.022,0.269 0.035,0.577 0.038,0.922c0.003,0.346 0.004,0.688 0.004,1.027l0,3.569c0,0.273 -0.01,0.539 -0.031,0.796c-0.02,0.258 -0.048,0.529 -0.082,0.815c-0.035,0.286 -0.054,0.589 -0.057,0.911c-0.003,0.322 -0.005,0.651 -0.005,0.986l0,2.187c0,0.41 -0.007,0.872 -0.021,1.387c-0.013,0.515 -0.028,0.997 -0.043,1.446c-0.015,0.449 -0.023,0.821 -0.023,1.116l0,0.855c0,0.275 0.008,0.611 0.024,1.007c0.016,0.396 0.034,0.855 0.054,1.379c0.02,0.524 0.03,1.042 0.031,1.555c0,0.513 0.002,0.99 0.007,1.432c0.004,0.442 0.015,0.87 0.032,1.284c0.016,0.415 0.035,0.802 0.057,1.164c0.022,0.361 0.039,0.725 0.052,1.091c0.012,0.366 0.02,0.769 0.023,1.211c0.003,0.442 0.004,0.924 0.004,1.446l0,2.721c0,0.331 0.007,0.631 0.021,0.898c0.014,0.267 0.028,0.564 0.043,0.889c0.015,0.326 0.026,0.673 0.034,1.041c0.007,0.368 0.014,0.748 0.021,1.138c0.008,0.39 0.014,0.794 0.019,1.212c0.005,0.418 0.008,0.833 0.011,1.247c0.003,0.413 0.004,0.816 0.004,1.208l0,3.588c0,0.475 0.006,0.969 0.018,1.483c0.011,0.514 0.018,0.952 0.021,1.313c0.003,0.362 0.005,0.672 0.005,0.932c0,0.259 0.007,0.531 0.021,0.813c0.013,0.283 0.031,0.601 0.053,0.956c0.022,0.355 0.041,0.729 0.059,1.122c0.017,0.393 0.031,0.765 0.041,1.115c0.01,0.35 0.016,0.684 0.019,1.003c0.002,0.319 0.004,0.649 0.004,0.99c0,0.341 0.003,0.714 0.01,1.118c0.007,0.404 0.017,0.799 0.032,1.185c0.014,0.386 0.03,0.735 0.047,1.046c0.017,0.311 0.028,0.611 0.034,0.901c0.005,0.289 0.008,0.572 0.008,0.847l0,1.572c0,0.275 -0.001,0.583 -0.003,0.924c-0.002,0.34 -0.011,0.701 -0.025,1.081c-0.014,0.38 -0.024,0.771 -0.03,1.172c-0.005,0.401 -0.006,0.788 -0.004,1.161c0.002,0.374 0.012,0.714 0.031,1.02c0.019,0.306 0.037,0.599 0.054,0.878c0.018,0.279 0.029,0.589 0.034,0.929c0.006,0.34 0.009,0.706 0.009,1.098l0,2.166c0,0.29 -0.001,0.564 -0.004,0.821c-0.002,0.257 -0.01,0.551 -0.024,0.881c-0.015,0.33 -0.027,0.656 -0.037,0.976c-0.01,0.32 -0.022,0.614 -0.036,0.879c-0.015,0.266 -0.027,0.547 -0.037,0.845c-0.01,0.297 -0.015,0.625 -0.015,0.982c0,0.357 -0.001,0.724 -0.001,1.102l0,1.9c0,0.252 -0.001,0.496 -0.003,0.732c-0.002,0.235 -0.006,0.489 -0.011,0.76c-0.005,0.271 -0.01,0.549 -0.014,0.833c-0.005,0.284 -0.013,0.555 -0.025,0.811c-0.012,0.257 -0.021,0.498 -0.026,0.725c-0.005,0.227 -0.008,0.458 -0.008,0.692l0,7.555c0,0.208 0.006,0.418 0.017,0.628c0.011,0.21 0.05,0.437 0.116,0.679c0.066,0.242 0.126,0.466 0.178,0.67c0.052,0.204 0.089,0.357 0.113,0.458c0.023,0.102 0.035,0.158 0.035,0.171c0,0.012 -0.016,-0.027 -0.049,-0.119c-0.047,-0.131 -0.194,-0.543 -0.443,-1.236" style="fill:none;fill-rule:nonzero;stroke:#000;stroke-width:0.85px;"/><path d="M149.119,5.27c-0.071,0.009 -0.174,0.048 -0.309,0.118c-0.136,0.07 -0.235,0.159 -0.299,0.269c-0.063,0.109 -0.095,0.215 -0.094,0.32c0,0.104 0.034,0.255 0.102,0.453c0.069,0.198 0.123,0.567 0.165,1.106c0.041,0.539 0.055,1.237 0.042,2.095c-0.013,0.859 -0.031,1.652 -0.053,2.38c-0.023,0.728 -0.008,1.358 0.045,1.891c0.052,0.533 0.116,1.003 0.193,1.409c0.076,0.405 0.129,0.784 0.16,1.136c0.03,0.352 0.059,0.762 0.085,1.228c0.027,0.467 0.049,0.941 0.067,1.422c0.018,0.481 0.027,0.898 0.027,1.253c0,0.355 -0.006,0.685 -0.02,0.988c-0.014,0.304 -0.027,0.628 -0.04,0.971c-0.013,0.344 -0.02,0.717 -0.023,1.121c-0.003,0.404 -0.004,0.812 -0.004,1.227c0,0.414 0.001,0.784 0.003,1.111c0.002,0.327 0.016,0.628 0.042,0.903c0.026,0.275 0.057,0.594 0.094,0.956c0.036,0.363 0.064,0.78 0.084,1.251c0.02,0.471 0.037,0.92 0.049,1.347c0.012,0.426 0.031,0.807 0.057,1.142c0.026,0.334 0.051,0.692 0.073,1.074c0.022,0.381 0.037,0.793 0.045,1.236c0.008,0.443 0.012,0.891 0.012,1.343l0,1.298c0,0.413 -0.002,0.799 -0.007,1.158c-0.004,0.358 -0.008,0.72 -0.011,1.083c-0.002,0.364 -0.004,0.742 -0.004,1.135l0,2.308c0,0.343 0.004,0.647 0.011,0.912c0.006,0.265 0.019,0.534 0.039,0.806c0.019,0.273 0.03,0.6 0.033,0.983c0.003,0.382 0.005,0.792 0.005,1.229l0,4.349c0,0.322 -0.01,0.735 -0.031,1.239c-0.021,0.504 -0.053,1.061 -0.096,1.671c-0.043,0.61 -0.079,1.186 -0.107,1.727c-0.027,0.541 -0.043,1.021 -0.046,1.439c-0.003,0.418 -0.004,0.801 -0.004,1.149c0,0.348 0.006,0.718 0.02,1.11c0.014,0.392 0.028,0.829 0.043,1.311c0.015,0.482 0.026,0.973 0.034,1.473c0.008,0.5 0.012,0.962 0.012,1.388l0,3.515c0,0.468 -0.009,0.936 -0.028,1.404c-0.019,0.468 -0.035,0.911 -0.05,1.328c-0.015,0.418 -0.024,0.801 -0.027,1.151c-0.003,0.35 -0.004,0.691 -0.004,1.024l0,7.397c0,0.616 -0.008,1.227 -0.024,1.832c-0.016,0.606 -0.039,1.206 -0.068,1.8c-0.03,0.594 -0.047,1.139 -0.053,1.635c-0.006,0.496 -0.006,0.942 -0.002,1.338c0.004,0.396 0.024,0.786 0.06,1.17c0.035,0.383 0.059,0.81 0.07,1.279c0.011,0.469 0.016,1.033 0.017,1.692c0,0.659 -0.003,1.352 -0.007,2.08c-0.005,0.728 -0.009,1.358 -0.011,1.889c-0.003,0.532 0.003,0.965 0.016,1.301c0.014,0.335 0.027,0.666 0.04,0.994c0.013,0.327 0.024,0.667 0.034,1.019c0.009,0.352 0.014,0.701 0.015,1.046l0,1.008c0,0.327 0.001,0.644 0.003,0.95c0.003,0.307 0.012,0.611 0.029,0.912c0.016,0.301 0.026,0.616 0.029,0.946c0.003,0.329 0.005,0.671 0.005,1.025l0,3.291c0,0.358 -0.004,0.714 -0.011,1.069c-0.006,0.355 -0.023,0.714 -0.049,1.078c-0.026,0.364 -0.05,0.738 -0.073,1.121c-0.022,0.383 -0.035,0.786 -0.038,1.207c-0.003,0.422 -0.004,0.834 -0.004,1.236c0,0.403 0.001,0.787 0.003,1.153c0.002,0.366 0.013,0.712 0.032,1.039c0.018,0.327 0.038,0.635 0.057,0.923c0.02,0.288 0.036,0.562 0.048,0.82c0.012,0.259 0.025,0.519 0.037,0.78c0.012,0.261 0.032,0.54 0.061,0.835c0.028,0.295 0.057,0.603 0.087,0.923c0.029,0.32 0.053,0.636 0.073,0.948c0.02,0.312 0.039,0.606 0.055,0.882c0.017,0.276 0.032,0.545 0.045,0.808c0.012,0.263 0.027,0.527 0.043,0.791c0.017,0.265 0.032,0.531 0.047,0.798c0.015,0.267 0.031,0.531 0.048,0.791c0.017,0.261 0.034,0.514 0.051,0.76c0.017,0.246 0.034,0.477 0.051,0.692c0.016,0.215 0.034,0.411 0.051,0.587c0.017,0.176 0.028,0.349 0.034,0.519c0.005,0.17 0.008,0.363 0.008,0.58c0,0.217 0.003,0.449 0.01,0.696c0.007,0.247 0.021,0.498 0.043,0.754c0.021,0.256 0.036,0.489 0.044,0.7c0.008,0.211 0.012,0.411 0.012,0.601l0,2.731c0,0.218 -0.002,0.438 -0.007,0.66c-0.004,0.222 -0.011,0.412 -0.021,0.571l-0.013,0.152l-0.002,-0.05l0,-1.236" style="fill:none;fill-rule:nonzero;stroke:#000;stroke-width:0.85px;"/><path d="M5.208,53.131c-0.08,0 -0.165,-0.001 -0.255,-0.003c-0.09,-0.002 -0.073,-0.029 0.053,-0.081c0.125,-0.052 0.342,-0.111 0.65,-0.177c0.308,-0.066 0.622,-0.107 0.943,-0.126c0.321,-0.018 0.699,-0.035 1.134,-0.049c0.436,-0.015 0.9,-0.023 1.392,-0.023c0.492,0 0.979,0.019 1.458,0.058c0.48,0.039 0.955,0.074 1.426,0.105c0.471,0.031 0.96,0.047 1.466,0.05c0.506,0.003 1.044,-0.011 1.613,-0.044c0.569,-0.032 1.128,-0.068 1.677,-0.108c0.549,-0.04 1.074,-0.064 1.576,-0.072c0.502,-0.008 1,-0.011 1.493,-0.009c0.494,0.002 0.981,0.028 1.462,0.077c0.481,0.049 1.002,0.099 1.561,0.151c0.56,0.052 1.168,0.081 1.823,0.087c0.656,0.006 1.328,0.014 2.015,0.023c0.688,0.009 1.359,0.04 2.014,0.092c0.655,0.052 1.313,0.091 1.973,0.117c0.66,0.026 1.343,0.037 2.049,0.033c0.705,-0.004 1.409,-0.015 2.11,-0.032c0.701,-0.017 1.389,-0.026 2.063,-0.026c0.674,0 1.352,-0.002 2.034,-0.004c0.682,-0.002 1.397,-0.021 2.145,-0.055c0.748,-0.035 1.501,-0.085 2.259,-0.15c0.758,-0.065 1.417,-0.105 1.977,-0.119c0.56,-0.014 1.09,-0.002 1.59,0.037c0.5,0.039 1.037,0.083 1.613,0.133c0.576,0.05 1.169,0.078 1.781,0.084c0.612,0.006 1.198,0.009 1.758,0.009c0.56,0 1.068,0.007 1.523,0.02c0.456,0.013 0.914,0.056 1.376,0.127c0.462,0.071 0.98,0.13 1.555,0.175c0.574,0.045 1.159,0.08 1.753,0.105c0.594,0.024 1.149,0.067 1.665,0.129c0.516,0.061 1.028,0.12 1.538,0.175c0.51,0.055 1.035,0.086 1.576,0.092c0.541,0.006 1.079,0.009 1.615,0.009c0.536,0 1.04,-0.004 1.514,-0.011c0.474,-0.007 0.949,-0.011 1.427,-0.011c0.478,0 0.99,-0.001 1.536,-0.001c0.547,0 1.103,-0.008 1.67,-0.024c0.566,-0.016 1.116,-0.036 1.648,-0.061c0.532,-0.025 1.023,-0.039 1.473,-0.042c0.45,-0.003 0.885,-0.005 1.306,-0.005c0.42,0 0.874,0.006 1.362,0.017c0.488,0.012 0.995,0.019 1.519,0.022c0.524,0.003 1.033,0.008 1.526,0.015c0.493,0.007 0.978,0.023 1.456,0.05c0.478,0.026 0.994,0.041 1.547,0.044c0.553,0.003 1.131,0.005 1.733,0.005c0.602,0 1.196,-0.003 1.783,-0.01c0.587,-0.007 1.16,-0.014 1.72,-0.022c0.56,-0.008 1.112,-0.015 1.657,-0.022c0.545,-0.007 1.105,-0.024 1.679,-0.053c0.574,-0.028 1.175,-0.072 1.803,-0.132c0.628,-0.06 1.245,-0.117 1.853,-0.171c0.608,-0.054 1.165,-0.087 1.672,-0.098c0.507,-0.011 0.969,-0.016 1.385,-0.014c0.416,0.002 0.825,0.02 1.228,0.052c0.403,0.033 0.827,0.057 1.272,0.073c0.446,0.016 0.912,0.024 1.4,0.024l1.447,0c0.476,0 0.944,0.016 1.402,0.048c0.458,0.032 0.896,0.077 1.316,0.135c0.419,0.058 0.841,0.106 1.266,0.144c0.424,0.038 0.861,0.062 1.31,0.072c0.449,0.01 0.903,0.017 1.362,0.019c0.459,0.002 0.909,0.017 1.35,0.042c0.441,0.026 0.864,0.06 1.269,0.104c0.405,0.043 0.806,0.087 1.204,0.131c0.398,0.044 0.824,0.08 1.278,0.107c0.455,0.028 0.951,0.047 1.49,0.057c0.538,0.01 1.11,0.017 1.714,0.022c0.603,0.005 1.191,0.012 1.762,0.022c0.571,0.01 1.098,0.015 1.579,0.015c0.482,0 0.953,0.001 1.412,0.001l1.451,0c0.508,0 1.042,-0.004 1.601,-0.011c0.56,-0.007 1.13,-0.011 1.711,-0.011l12.633,0c0.602,0 1.157,-0.007 1.664,-0.021c0.507,-0.014 0.98,-0.035 1.419,-0.064c0.44,-0.029 0.872,-0.05 1.297,-0.063c0.425,-0.013 0.864,-0.021 1.318,-0.023c0.454,-0.003 0.888,-0.005 1.3,-0.007c0.412,-0.002 0.81,-0.02 1.193,-0.052c0.382,-0.033 0.752,-0.066 1.107,-0.101c0.356,-0.034 0.705,-0.057 1.049,-0.068c0.343,-0.011 0.68,-0.016 1.011,-0.016l6.513,0c0.266,0 0.554,-0.013 0.865,-0.038c0.312,-0.025 0.654,-0.053 1.029,-0.082c0.374,-0.03 0.746,-0.046 1.115,-0.049c0.369,-0.003 0.692,-0.005 0.971,-0.005l0.746,0c0.22,0 0.466,-0.009 0.738,-0.028c0.272,-0.018 0.527,-0.042 0.764,-0.072c0.237,-0.029 0.38,-0.046 0.429,-0.049c0.068,-0.005 -0.037,-0.148 -0.316,-0.431" style="fill:none;fill-rule:nonzero;stroke:#000;stroke-width:0.85px;"/><path d="M5.886,85.265c0.033,-0.032 0.195,-0.035 0.487,-0.009c0.291,0.026 0.729,0.064 1.314,0.113c0.585,0.049 1.292,0.077 2.123,0.083c0.831,0.006 1.585,0.009 2.261,0.009c0.676,0 1.236,0.017 1.679,0.051c0.443,0.034 0.915,0.087 1.416,0.157c0.501,0.07 1.084,0.125 1.751,0.163c0.666,0.038 1.406,0.058 2.219,0.062c0.813,0.003 1.619,-0.009 2.419,-0.036c0.799,-0.027 1.554,-0.078 2.265,-0.152c0.711,-0.074 1.401,-0.141 2.07,-0.201c0.669,-0.06 1.318,-0.093 1.947,-0.099c0.629,-0.006 1.267,-0.01 1.915,-0.01c0.648,0 1.277,0.011 1.887,0.035c0.61,0.023 1.2,0.045 1.769,0.065c0.569,0.02 1.147,0.031 1.734,0.031c0.587,0 1.212,-0.031 1.875,-0.093c0.663,-0.062 1.342,-0.138 2.037,-0.229c0.695,-0.091 1.375,-0.158 2.04,-0.201c0.665,-0.044 1.293,-0.065 1.884,-0.063c0.591,0.002 1.184,0.019 1.781,0.051c0.597,0.033 1.208,0.064 1.834,0.094c0.626,0.03 1.271,0.06 1.935,0.091c0.665,0.031 1.337,0.081 2.018,0.15c0.681,0.069 1.365,0.137 2.055,0.204c0.69,0.067 1.395,0.112 2.115,0.135c0.721,0.023 1.439,0.035 2.154,0.036l7.383,0c0.608,0 1.28,-0.012 2.016,-0.034c0.735,-0.023 1.513,-0.052 2.331,-0.086c0.819,-0.034 1.633,-0.055 2.441,-0.064c0.809,-0.008 1.576,-0.014 2.301,-0.016c0.725,-0.002 1.437,-0.015 2.133,-0.039c0.696,-0.023 1.401,-0.048 2.114,-0.072c0.713,-0.025 1.377,-0.041 1.992,-0.049c0.615,-0.008 1.177,-0.012 1.687,-0.012c0.51,0 1.046,0.003 1.607,0.01c0.561,0.007 1.145,0.011 1.752,0.011l12.035,0c0.562,0 1.139,-0.005 1.732,-0.014c0.593,-0.009 1.157,-0.019 1.692,-0.029c0.535,-0.01 1.04,-0.016 1.516,-0.019c0.475,-0.003 0.953,-0.003 1.433,-0.001c0.481,0.002 0.975,0.014 1.482,0.035c0.507,0.021 1.01,0.049 1.509,0.083c0.498,0.034 0.981,0.062 1.447,0.084c0.466,0.022 0.903,0.048 1.311,0.077c0.408,0.029 0.819,0.059 1.233,0.09c0.414,0.031 0.851,0.061 1.311,0.088c0.46,0.027 0.95,0.045 1.471,0.053c0.52,0.008 1.054,0.012 1.6,0.012c0.547,0 1.097,-0.007 1.65,-0.02c0.554,-0.014 1.121,-0.035 1.701,-0.064c0.58,-0.029 1.144,-0.049 1.693,-0.059c0.549,-0.01 1.055,-0.018 1.518,-0.023c0.463,-0.005 0.903,-0.008 1.319,-0.008l1.248,0c0.415,0 0.823,0.007 1.222,0.021c0.399,0.014 0.792,0.025 1.179,0.033c0.387,0.008 0.779,0.012 1.177,0.012c0.398,0 0.805,-0.013 1.219,-0.038c0.415,-0.025 0.851,-0.05 1.309,-0.075c0.458,-0.025 0.948,-0.041 1.47,-0.049c0.522,-0.008 1.074,-0.012 1.656,-0.012l10.297,0c0.502,0 0.978,-0.014 1.429,-0.041c0.451,-0.028 0.882,-0.053 1.295,-0.076c0.412,-0.023 0.813,-0.035 1.202,-0.035l9.179,0c0.273,0 0.531,-0.001 0.775,-0.003c0.244,-0.002 0.485,-0.007 0.723,-0.014c0.237,-0.007 0.511,-0.013 0.821,-0.018c0.311,-0.005 0.666,-0.008 1.066,-0.008c0.4,0 0.832,-0.004 1.298,-0.01c0.465,-0.007 0.897,-0.021 1.295,-0.042c0.398,-0.022 0.738,-0.036 1.021,-0.044c0.283,-0.008 0.554,-0.01 0.811,-0.006c0.258,0.004 0.519,0.022 0.784,0.053c0.265,0.031 0.494,0.053 0.688,0.066c0.193,0.013 0.323,0.021 0.388,0.024c0.066,0.003 0.08,0.024 0.044,0.065c-0.036,0.041 -0.046,0.044 -0.032,0.01c0.02,-0.048 -0.057,-0.037 -0.233,0.033" style="fill:none;fill-rule:nonzero;stroke:#000;stroke-width:0.85px;"/><path d="M5.818,117.65c-0.086,-0.02 -0.188,-0.006 -0.306,0.044c-0.078,0.033 -0.113,0.066 -0.104,0.101c0.009,0.035 0.127,0.054 0.356,0.057c0.229,0.003 0.562,-0.001 1,-0.012c0.438,-0.011 0.957,-0.029 1.556,-0.053c0.6,-0.024 1.274,-0.048 2.025,-0.072c0.751,-0.024 1.551,-0.053 2.402,-0.087c0.851,-0.034 1.693,-0.071 2.525,-0.112c0.833,-0.041 1.655,-0.071 2.467,-0.089c0.812,-0.018 1.642,-0.027 2.491,-0.028c0.849,0 1.712,-0.002 2.589,-0.004c0.877,-0.002 1.724,-0.01 2.542,-0.025c0.817,-0.014 1.571,-0.024 2.262,-0.029c0.691,-0.005 1.31,-0.008 1.857,-0.008l1.585,0c0.51,0 1.007,0.002 1.49,0.007c0.483,0.004 0.936,0.022 1.358,0.053c0.423,0.031 0.87,0.056 1.342,0.077c0.472,0.02 1.014,0.032 1.624,0.035c0.61,0.003 1.238,0.004 1.882,0.004l16.856,0c0.514,0 1.032,-0.007 1.556,-0.02c0.524,-0.013 1.073,-0.042 1.647,-0.085c0.575,-0.043 1.155,-0.085 1.74,-0.127c0.586,-0.041 1.17,-0.074 1.754,-0.096c0.584,-0.023 1.157,-0.035 1.722,-0.038c0.564,-0.003 1.152,-0.004 1.764,-0.004c0.612,0 1.258,-0.005 1.937,-0.014c0.679,-0.009 1.359,-0.034 2.04,-0.074c0.681,-0.04 1.368,-0.08 2.063,-0.12c0.694,-0.039 1.405,-0.062 2.132,-0.068c0.727,-0.006 1.485,-0.001 2.273,0.015c0.788,0.016 1.574,0.027 2.358,0.033c0.784,0.006 1.532,0.001 2.245,-0.015c0.713,-0.016 1.372,-0.043 1.976,-0.083c0.604,-0.039 1.186,-0.061 1.745,-0.064c0.559,-0.003 1.133,0.018 1.72,0.064c0.588,0.046 1.132,0.102 1.632,0.168c0.5,0.066 0.963,0.112 1.39,0.138c0.427,0.026 0.857,0.04 1.292,0.04c0.435,0 0.884,-0.005 1.349,-0.017c0.465,-0.012 0.956,-0.019 1.475,-0.022c0.518,-0.003 1.054,-0.004 1.607,-0.004c0.553,0 1.131,-0.005 1.734,-0.014c0.604,-0.009 1.217,-0.02 1.841,-0.032c0.624,-0.012 1.27,-0.019 1.94,-0.019l6.303,0c0.513,0 1.04,0.001 1.581,0.003c0.542,0.002 1.075,0.009 1.602,0.021c0.526,0.012 1.036,0.018 1.531,0.019c0.494,0 0.958,0.001 1.391,0.001l1.23,0c0.388,0 0.774,0.011 1.161,0.034c0.386,0.023 0.784,0.047 1.193,0.072c0.409,0.025 0.865,0.039 1.369,0.042c0.504,0.003 1.063,0.004 1.677,0.001c0.613,-0.002 1.246,-0.012 1.898,-0.028c0.652,-0.017 1.265,-0.03 1.839,-0.04c0.574,-0.01 1.105,-0.02 1.592,-0.029c0.487,-0.01 0.926,-0.017 1.316,-0.022c0.39,-0.005 0.738,-0.008 1.044,-0.008l1.605,0c0.245,0 0.542,0.001 0.892,0.003c0.349,0.002 0.785,0.016 1.305,0.042c0.521,0.026 1.109,0.049 1.764,0.069c0.655,0.02 1.322,0.036 2,0.048c0.677,0.012 1.372,0.023 2.083,0.033c0.711,0.01 1.392,0.016 2.042,0.019c0.651,0.003 1.222,0.001 1.714,-0.006c0.492,-0.007 0.956,-0.04 1.39,-0.102c0.435,-0.061 0.913,-0.117 1.435,-0.167c0.521,-0.05 1.049,-0.078 1.582,-0.084c0.533,-0.006 1.075,-0.009 1.628,-0.009c0.553,0 1.128,0.007 1.727,0.021c0.598,0.014 1.228,0.029 1.889,0.047c0.661,0.017 1.345,0.035 2.051,0.055c0.706,0.019 1.385,0.043 2.035,0.072c0.65,0.029 1.247,0.051 1.79,0.066c0.543,0.015 1.033,0.023 1.47,0.024c0.437,0 0.821,-0.012 1.152,-0.037c0.331,-0.025 0.654,-0.06 0.97,-0.104c0.316,-0.044 0.646,-0.075 0.99,-0.093c0.343,-0.018 0.708,-0.027 1.093,-0.028l1.09,0c0.341,0 0.612,-0.006 0.811,-0.017c0.2,-0.012 0.354,-0.022 0.463,-0.032c0.11,-0.01 0.214,-0.015 0.313,-0.015l0.478,0c0.002,0 -0.001,0.002 -0.01,0.007c-0.013,0.006 -0.044,0.026 -0.091,0.059" style="fill:none;fill-rule:nonzero;stroke:#000;stroke-width:0.85px;"/><path d="M5.099,21.678c-0.132,0.019 -0.275,0.044 -0.428,0.076l-0.062,0.011l0.129,-0.034c0.146,-0.036 0.396,-0.073 0.751,-0.109c0.355,-0.037 0.732,-0.055 1.131,-0.055c0.399,0 0.906,-0.008 1.52,-0.025c0.614,-0.016 1.284,-0.03 2.009,-0.043c0.725,-0.013 1.451,-0.019 2.178,-0.019c0.727,-0.001 1.44,-0.001 2.138,-0.001l6.147,0c0.619,0 1.198,0.012 1.736,0.035c0.538,0.023 1.118,0.038 1.741,0.044c0.623,0.006 1.28,-0.001 1.973,-0.019c0.692,-0.019 1.321,-0.03 1.886,-0.033c0.565,-0.003 1.1,-0.005 1.606,-0.005l6.669,0c0.56,0 1.099,0.007 1.616,0.02c0.518,0.014 1.054,0.04 1.609,0.079c0.554,0.039 1.16,0.059 1.817,0.061c0.657,0.001 1.352,-0.029 2.084,-0.09c0.733,-0.061 1.427,-0.109 2.082,-0.145c0.655,-0.036 1.291,-0.055 1.906,-0.055c0.615,-0.001 1.259,0.01 1.931,0.034c0.672,0.023 1.384,0.035 2.136,0.037c0.752,0.001 1.501,-0.028 2.248,-0.089c0.747,-0.061 1.442,-0.11 2.084,-0.146c0.642,-0.035 1.242,-0.062 1.8,-0.079c0.558,-0.018 1.119,-0.036 1.682,-0.055c0.563,-0.019 1.151,-0.039 1.764,-0.058c0.613,-0.02 1.219,-0.037 1.819,-0.052c0.6,-0.014 1.152,-0.027 1.656,-0.037c0.504,-0.01 0.994,-0.015 1.47,-0.015c0.476,0 0.981,0.006 1.516,0.021c0.534,0.014 1.089,0.021 1.665,0.021c0.575,0.001 1.16,0.001 1.755,0.001l7.022,0c0.59,0 1.166,0.004 1.727,0.01c0.561,0.007 1.081,0.028 1.561,0.064c0.479,0.035 0.952,0.071 1.417,0.108c0.465,0.037 0.968,0.062 1.508,0.075c0.54,0.013 1.077,0.028 1.613,0.044c0.536,0.017 1.06,0.035 1.573,0.054c0.513,0.02 1.048,0.031 1.605,0.034c0.557,0.003 1.133,0.005 1.728,0.005l3.63,0c0.63,0 1.315,0.001 2.057,0.003c0.742,0.002 1.51,0.012 2.303,0.029c0.794,0.016 1.601,0.026 2.421,0.029c0.821,0.003 1.617,0.005 2.388,0.005l2.233,0c0.718,0 1.438,0.003 2.16,0.01c0.723,0.007 1.418,0.011 2.086,0.011l1.944,0c0.629,0 1.25,-0.001 1.865,-0.003c0.615,-0.002 1.234,-0.008 1.856,-0.018c0.623,-0.009 1.234,-0.015 1.835,-0.018c0.601,-0.003 1.19,-0.004 1.767,-0.004l14.532,0c0.478,0 0.947,0.001 1.409,0.003c0.462,0.002 0.929,0.013 1.4,0.032c0.472,0.018 0.924,0.038 1.359,0.057c0.434,0.02 0.877,0.034 1.33,0.041c0.453,0.008 0.926,0.013 1.421,0.016c0.494,0.002 1.013,0.004 1.556,0.004c0.543,0 1.098,-0.001 1.666,-0.003c0.568,-0.003 1.128,-0.007 1.682,-0.015c0.553,-0.007 1.078,-0.016 1.576,-0.028c0.498,-0.012 0.982,-0.025 1.451,-0.04c0.47,-0.015 0.934,-0.03 1.39,-0.047c0.457,-0.017 0.917,-0.029 1.379,-0.034c0.462,-0.005 0.912,-0.008 1.351,-0.008l2.471,0c0.376,0 0.734,-0.001 1.076,-0.003c0.341,-0.003 0.681,-0.01 1.021,-0.022c0.34,-0.012 0.677,-0.018 1.011,-0.018c0.334,-0.001 0.645,-0.001 0.933,-0.001l0.842,0c0.272,0 0.536,0.004 0.792,0.011c0.256,0.007 0.509,0.01 0.76,0.011c0.25,0 0.484,-0.001 0.703,-0.003c0.218,-0.003 0.407,-0.012 0.567,-0.029c0.16,-0.016 0.309,-0.026 0.448,-0.029c0.139,-0.003 0.283,-0.005 0.433,-0.005l1.271,0c0.139,0 0.288,0.007 0.446,0.021c0.158,0.014 0.296,0.028 0.415,0.043c0.118,0.015 0.215,0.023 0.289,0.023c0.074,0.001 0.141,0.001 0.202,0.001c0.061,0 0.091,0.024 0.091,0.072" style="fill:none;fill-rule:nonzero;stroke:#c2361a;stroke-width:1.7px;"/><path d="M85.727,4.652c0.015,-0.058 -0.044,-0.187 -0.176,-0.385c-0.081,-0.123 -0.148,-0.167 -0.2,-0.134c-0.052,0.034 -0.095,0.287 -0.13,0.76c-0.035,0.472 -0.057,1.062 -0.068,1.768c-0.011,0.707 -0.009,1.401 0.004,2.084c0.013,0.682 0.031,1.355 0.054,2.018c0.022,0.664 0.034,1.317 0.034,1.96c0,0.644 0.006,1.271 0.017,1.881c0.011,0.61 0.022,1.22 0.033,1.829c0.01,0.609 0.016,1.146 0.016,1.612l0,2.292c0,0.372 -0.01,0.815 -0.031,1.329c-0.021,0.514 -0.056,1.063 -0.107,1.645c-0.05,0.583 -0.091,1.141 -0.121,1.674c-0.031,0.532 -0.046,1.012 -0.047,1.439c-0.001,0.427 -0.001,0.834 -0.001,1.22c0,0.386 -0.004,0.801 -0.013,1.246c-0.009,0.444 -0.034,0.923 -0.074,1.437c-0.041,0.513 -0.077,1.027 -0.109,1.543c-0.032,0.515 -0.056,1.021 -0.071,1.516c-0.015,0.494 -0.029,0.986 -0.041,1.474c-0.012,0.488 -0.019,0.968 -0.019,1.441l0,1.363c0,0.436 0.01,0.858 0.031,1.265c0.021,0.407 0.04,0.82 0.058,1.239c0.017,0.419 0.032,0.871 0.045,1.354c0.012,0.484 0.019,0.971 0.019,1.463c0,0.492 0.011,0.955 0.031,1.39c0.02,0.435 0.045,0.877 0.072,1.328c0.027,0.451 0.043,0.932 0.046,1.444c0.003,0.512 0.005,1.064 0.005,1.654c0,0.591 -0.003,1.189 -0.01,1.795c-0.007,0.606 -0.019,1.173 -0.036,1.701c-0.017,0.528 -0.028,1.027 -0.033,1.495c-0.005,0.468 -0.008,0.927 -0.008,1.377c0,0.45 -0.002,0.951 -0.007,1.503c-0.005,0.553 -0.012,1.163 -0.021,1.831c-0.01,0.668 -0.015,1.271 -0.015,1.809c0,0.538 0.005,1.021 0.017,1.449c0.012,0.427 0.019,0.875 0.022,1.342c0.003,0.467 0.014,0.935 0.032,1.404c0.018,0.469 0.044,0.953 0.078,1.452c0.034,0.499 0.057,1.032 0.071,1.599c0.013,0.566 0.02,1.117 0.02,1.652l0,3.025c0,0.531 -0.004,1.1 -0.011,1.708c-0.007,0.608 -0.011,1.24 -0.011,1.894l0,6.905c0,0.474 0.007,0.979 0.021,1.516c0.014,0.537 0.033,1.151 0.057,1.844c0.024,0.693 0.043,1.44 0.056,2.241c0.013,0.801 0.02,1.537 0.02,2.207c0,0.67 0.007,1.29 0.021,1.861c0.014,0.571 0.031,1.165 0.05,1.784c0.02,0.619 0.045,1.297 0.075,2.034c0.031,0.737 0.063,1.474 0.098,2.21c0.034,0.736 0.064,1.411 0.089,2.024c0.025,0.613 0.047,1.179 0.066,1.698c0.02,0.519 0.034,1.062 0.044,1.628c0.01,0.567 0.03,1.15 0.061,1.75c0.031,0.6 0.067,1.172 0.108,1.717c0.041,0.545 0.078,1.038 0.11,1.48c0.032,0.442 0.051,0.832 0.057,1.171c0.006,0.338 0.009,0.655 0.009,0.95l0,3.2c0,0.456 -0.004,0.941 -0.011,1.455c-0.007,0.514 -0.011,1.063 -0.011,1.649c0,0.586 -0.002,1.144 -0.004,1.676c-0.002,0.532 -0.009,1.007 -0.021,1.426c-0.012,0.419 -0.024,0.836 -0.036,1.249c-0.012,0.414 -0.02,0.878 -0.023,1.392c-0.003,0.514 -0.004,1.054 -0.004,1.619l0,3.046c0,0.462 0.001,0.926 0.003,1.39c0.002,0.464 0.013,0.855 0.032,1.173c0.019,0.317 0.039,0.509 0.06,0.574l0.014,0.037l-0.019,-0.103c-0.036,-0.16 -0.061,-0.39 -0.074,-0.691" style="fill:none;fill-rule:nonzero;stroke:#c2361a;stroke-width:1.7px;"/><path d="M4.99,69.515c0.029,-0.058 0.17,-0.139 0.424,-0.243c0.254,-0.104 0.585,-0.191 0.993,-0.26c0.409,-0.069 0.829,-0.112 1.262,-0.128c0.433,-0.017 0.856,-0.025 1.27,-0.025l2.317,0c0.352,0 0.695,-0.001 1.03,-0.003c0.335,-0.002 0.703,-0.013 1.103,-0.032c0.4,-0.019 0.842,-0.042 1.325,-0.068c0.484,-0.026 0.976,-0.059 1.477,-0.097c0.501,-0.038 0.98,-0.082 1.437,-0.13c0.457,-0.049 0.872,-0.082 1.244,-0.1c0.372,-0.018 0.738,-0.028 1.097,-0.028c0.359,0 0.76,-0.002 1.203,-0.004c0.443,-0.002 0.932,-0.023 1.467,-0.063c0.536,-0.04 1.042,-0.077 1.519,-0.112c0.477,-0.035 0.902,-0.054 1.276,-0.058c0.373,-0.003 0.729,-0.005 1.069,-0.005l3.641,0c0.414,0 0.788,0.001 1.123,0.003c0.335,0.002 0.669,0.006 1.001,0.011c0.332,0.005 0.672,0.008 1.019,0.008c0.347,0 0.705,0.005 1.073,0.014c0.368,0.009 0.746,0.023 1.132,0.042c0.386,0.019 0.776,0.037 1.169,0.055c0.393,0.017 0.781,0.033 1.163,0.048c0.382,0.014 0.773,0.025 1.173,0.03c0.4,0.005 0.822,-0.001 1.268,-0.019c0.445,-0.018 0.896,-0.046 1.35,-0.083c0.455,-0.037 0.902,-0.056 1.343,-0.057c0.441,-0.001 0.88,0.015 1.317,0.047c0.437,0.033 0.888,0.066 1.353,0.101c0.465,0.035 0.935,0.054 1.41,0.057c0.475,0.003 0.915,0.005 1.322,0.005l1.174,0c0.376,0 0.782,-0.002 1.217,-0.007c0.435,-0.005 0.889,-0.015 1.362,-0.032c0.473,-0.016 0.947,-0.031 1.422,-0.044c0.475,-0.013 0.897,-0.02 1.266,-0.023c0.369,-0.003 0.689,-0.004 0.959,-0.004l3.165,0c0.251,0 0.508,0.002 0.771,0.007c0.264,0.005 0.557,0.008 0.881,0.011c0.324,0.003 0.661,0.004 1.013,0.004l4.147,0c0.233,0 0.426,-0.006 0.58,-0.018c0.154,-0.012 0.29,-0.019 0.409,-0.022c0.12,-0.003 0.25,-0.004 0.393,-0.004l0.924,0c0.154,0 0.294,-0.005 0.422,-0.014c0.127,-0.009 0.245,-0.017 0.352,-0.022c0.107,-0.005 0.233,-0.008 0.376,-0.008l0.108,0l-0.323,0" style="fill:none;fill-rule:nonzero;stroke:#63b633;stroke-width:1.7px;stroke-dasharray:5.102,6.803;"/><path d="M69.475,67.94c-0.101,0.04 -0.102,0.184 -0.002,0.432c0.1,0.248 0.158,0.543 0.174,0.885c0.016,0.342 0.025,0.731 0.025,1.167c0,0.436 0.002,0.852 0.007,1.248c0.004,0.396 0.025,0.758 0.063,1.086c0.038,0.328 0.072,0.648 0.102,0.961c0.03,0.313 0.046,0.643 0.046,0.989c0.001,0.346 -0.002,0.691 -0.009,1.035c-0.007,0.344 -0.014,0.644 -0.022,0.901c-0.008,0.257 -0.011,0.476 -0.008,0.657c0.002,0.181 0.006,0.401 0.011,0.659c0.005,0.258 0.007,0.574 0.004,0.947c-0.002,0.373 -0.012,0.751 -0.028,1.134c-0.017,0.383 -0.026,0.73 -0.029,1.042c-0.003,0.311 -0.005,0.601 -0.005,0.868c0,0.268 -0.008,0.567 -0.024,0.898c-0.016,0.331 -0.043,0.661 -0.082,0.99c-0.039,0.329 -0.061,0.627 -0.064,0.895c-0.003,0.267 -0.004,0.5 -0.002,0.697c0.002,0.197 0.015,0.377 0.039,0.54c0.024,0.163 0.037,0.344 0.041,0.541c0.003,0.198 0.005,0.405 0.005,0.621c0,0.216 -0.007,0.429 -0.021,0.638c-0.014,0.209 -0.031,0.419 -0.05,0.628c-0.02,0.209 -0.031,0.409 -0.034,0.599c-0.003,0.19 -0.004,0.367 -0.004,0.531l0,1.526c0,0.14 0.002,0.276 0.007,0.407c0.005,0.131 0.01,0.267 0.018,0.407c0.007,0.141 0.017,0.297 0.029,0.471c0.012,0.173 0.021,0.367 0.026,0.583c0.005,0.215 0.008,0.432 0.008,0.651l0,1.32c0,0.214 -0.003,0.427 -0.01,0.638c-0.007,0.211 -0.021,0.434 -0.042,0.669c-0.022,0.235 -0.042,0.465 -0.062,0.689c-0.02,0.225 -0.031,0.428 -0.034,0.61c-0.003,0.182 -0.004,0.341 -0.004,0.478l0,3.478c0,0.075 0.003,0.122 0.01,0.14c0.007,0.018 0.01,0.008 0.01,-0.03c0,-0.055 0.028,-0.153 0.083,-0.295" style="fill:none;fill-rule:nonzero;stroke:#63b633;stroke-width:1.7px;stroke-dasharray:5.102,6.803;"/><path d="M69.3,100.773c-0.107,0.013 -0.241,0.047 -0.402,0.101c-0.161,0.054 -0.265,0.095 -0.312,0.121c-0.047,0.026 -0.067,0.038 -0.06,0.035c0.008,-0.003 0.027,-0.009 0.057,-0.02c0.03,-0.011 0.144,-0.027 0.341,-0.05c0.197,-0.023 0.442,-0.034 0.733,-0.034c0.292,0 0.607,-0.006 0.945,-0.017c0.338,-0.011 0.732,-0.05 1.181,-0.116c0.449,-0.066 0.898,-0.115 1.347,-0.147c0.449,-0.032 0.867,-0.046 1.255,-0.044c0.388,0.002 0.782,0.005 1.182,0.01c0.399,0.005 0.836,0.008 1.31,0.008c0.474,0 0.947,-0.003 1.42,-0.01c0.473,-0.007 0.903,-0.011 1.29,-0.011l1.148,0c0.378,0 0.754,-0.01 1.127,-0.031c0.373,-0.021 0.725,-0.039 1.057,-0.055c0.332,-0.016 0.664,-0.024 0.997,-0.024c0.333,0 0.674,0.013 1.023,0.038c0.349,0.025 0.71,0.044 1.084,0.055c0.374,0.011 0.741,0.017 1.101,0.017l1.056,0c0.343,0 0.676,0.008 0.997,0.024c0.322,0.016 0.629,0.044 0.922,0.085c0.293,0.041 0.581,0.075 0.866,0.103c0.284,0.028 0.57,0.043 0.857,0.046c0.287,0.003 0.583,0.004 0.888,0.004l3.061,0c0.347,0 0.71,-0.003 1.088,-0.01c0.378,-0.007 0.755,-0.03 1.13,-0.071c0.375,-0.041 0.718,-0.067 1.029,-0.078c0.311,-0.011 0.606,-0.003 0.884,0.025c0.278,0.028 0.551,0.056 0.818,0.087c0.268,0.03 0.52,0.046 0.758,0.046c0.237,0.001 0.449,0.001 0.635,0.001l0.549,0c0.179,0 0.377,0.004 0.595,0.011c0.217,0.007 0.465,0.011 0.744,0.011l0.937,0c0.345,0 0.713,0.004 1.103,0.013c0.391,0.009 0.784,0.034 1.18,0.074c0.396,0.04 0.802,0.072 1.219,0.095c0.417,0.023 0.852,0.033 1.306,0.029c0.453,-0.004 0.897,-0.023 1.331,-0.056c0.434,-0.033 0.846,-0.053 1.236,-0.059c0.39,-0.006 0.785,-0.009 1.186,-0.009l2.486,0c0.39,0 0.735,0.002 1.037,0.007c0.301,0.004 0.592,0.022 0.871,0.053c0.28,0.031 0.582,0.051 0.908,0.059c0.325,0.008 0.68,0.012 1.062,0.009c0.383,-0.002 0.76,-0.006 1.13,-0.011c0.371,-0.005 0.73,-0.008 1.078,-0.008l1.06,0c0.359,0 0.728,-0.009 1.107,-0.028c0.379,-0.019 0.745,-0.029 1.099,-0.033c0.353,-0.003 0.701,-0.006 1.044,-0.008c0.343,-0.002 0.687,-0.031 1.032,-0.087c0.345,-0.055 0.69,-0.137 1.035,-0.245c0.346,-0.108 0.669,-0.205 0.97,-0.289c0.301,-0.085 0.562,-0.137 0.782,-0.156c0.219,-0.019 0.419,-0.024 0.599,-0.015c0.18,0.009 0.367,0.026 0.561,0.05c0.194,0.024 0.376,0.038 0.545,0.041c0.17,0.003 0.314,0.006 0.432,0.008c0.118,0.002 0.224,0.013 0.317,0.032c0.093,0.019 0.174,0.038 0.243,0.058c0.069,0.02 0.121,0.035 0.157,0.045c0.048,0.014 0.034,-0.017 -0.042,-0.094" style="fill:none;fill-rule:nonzero;stroke:#63b633;stroke-width:1.7px;stroke-dasharray:5.102,6.803;"/><path d="M133.173,101.166c-0.05,0.002 -0.128,0.001 -0.233,-0.002c-0.067,-0.002 -0.103,-0.037 -0.109,-0.103c-0.005,-0.066 0.001,-0.256 0.019,-0.568c0.018,-0.312 0.043,-0.777 0.076,-1.394c0.032,-0.617 0.044,-1.273 0.036,-1.969c-0.009,-0.696 -0.026,-1.361 -0.053,-1.997c-0.027,-0.636 -0.038,-1.302 -0.032,-2c0.006,-0.698 0.04,-1.362 0.101,-1.994c0.061,-0.632 0.115,-1.178 0.16,-1.639c0.046,-0.461 0.069,-0.889 0.07,-1.285c0.001,-0.396 -0.01,-0.844 -0.034,-1.345c-0.023,-0.501 -0.035,-1.012 -0.033,-1.534c0.001,-0.522 0.022,-0.979 0.065,-1.37c0.042,-0.391 0.075,-0.755 0.098,-1.091c0.024,-0.336 0.037,-0.71 0.04,-1.122c0.002,-0.412 0.004,-0.828 0.004,-1.248l0,-1.147c0,-0.345 -0.001,-0.677 -0.003,-0.996c-0.003,-0.319 -0.017,-0.643 -0.042,-0.972c-0.026,-0.329 -0.047,-0.712 -0.063,-1.148c-0.015,-0.436 -0.023,-0.857 -0.023,-1.264c0,-0.407 0.009,-0.754 0.027,-1.044c0.019,-0.289 0.048,-0.553 0.089,-0.791c0.04,-0.238 0.096,-0.493 0.168,-0.764c0.072,-0.272 0.136,-0.521 0.19,-0.747c0.055,-0.227 0.091,-0.407 0.11,-0.541c0.018,-0.134 0.027,-0.241 0.028,-0.321l0,-0.217c0,-0.066 -0.002,-0.145 -0.007,-0.238c-0.004,-0.093 -0.013,-0.189 -0.025,-0.287c-0.011,-0.098 -0.022,-0.174 -0.032,-0.226c-0.01,-0.053 -0.017,-0.084 -0.019,-0.094c-0.003,-0.01 -0.008,0.003 -0.015,0.04c-0.01,0.053 -0.053,0.178 -0.129,0.375" style="fill:none;fill-rule:nonzero;stroke:#63b633;stroke-width:1.7px;stroke-dasharray:5.102,6.803;"/><path d="M133.74,69.553c-0.033,0.009 -0.107,0.007 -0.221,-0.008c-0.069,-0.009 -0.056,-0.064 0.04,-0.165c0.096,-0.101 0.227,-0.19 0.395,-0.268c0.167,-0.078 0.327,-0.129 0.481,-0.152c0.153,-0.023 0.336,-0.04 0.549,-0.049c0.213,-0.009 0.489,-0.031 0.829,-0.064c0.34,-0.033 0.736,-0.062 1.187,-0.084c0.452,-0.023 0.929,-0.035 1.433,-0.035c0.504,0 1.041,-0.005 1.612,-0.014c0.571,-0.009 1.127,-0.065 1.667,-0.168c0.54,-0.103 1.021,-0.204 1.441,-0.304c0.421,-0.099 0.776,-0.151 1.064,-0.155c0.288,-0.004 0.575,0.051 0.86,0.164c0.286,0.113 0.616,0.211 0.991,0.294c0.375,0.083 0.795,0.13 1.259,0.142c0.464,0.012 0.932,0.018 1.404,0.018c0.472,0 0.934,0.005 1.384,0.013c0.451,0.009 0.873,0.057 1.267,0.144c0.394,0.087 0.78,0.161 1.158,0.222c0.378,0.061 0.794,0.071 1.248,0.029c0.453,-0.042 0.916,-0.125 1.386,-0.252c0.471,-0.126 0.887,-0.204 1.249,-0.235c0.361,-0.03 0.703,-0.011 1.026,0.059c0.323,0.069 0.682,0.123 1.078,0.16c0.395,0.037 0.814,0.032 1.256,-0.016c0.441,-0.048 0.859,-0.107 1.253,-0.179c0.393,-0.072 0.766,-0.113 1.117,-0.125c0.35,-0.011 0.707,-0.003 1.069,0.024c0.361,0.028 0.703,0.053 1.023,0.076c0.321,0.023 0.58,0.026 0.778,0.008c0.198,-0.018 0.32,-0.042 0.365,-0.074c0.062,-0.043 0.026,-0.066 -0.108,-0.07" style="fill:none;fill-rule:nonzero;stroke:#63b633;stroke-width:1.7px;stroke-dasharray:5.102,6.803;"/><path d="M37.626,4.789c-0.017,0.008 -0.043,0.215 -0.078,0.623c-0.034,0.407 -0.055,0.843 -0.063,1.306c-0.008,0.464 -0.012,0.923 -0.012,1.378l0,3.057c0,0.583 -0.001,1.204 -0.003,1.863c-0.002,0.658 -0.009,1.297 -0.021,1.916c-0.012,0.618 -0.024,1.154 -0.036,1.608c-0.012,0.454 -0.02,0.841 -0.023,1.164c-0.003,0.322 0,0.623 0.009,0.903c0.009,0.281 0.037,0.574 0.084,0.881c0.047,0.307 0.102,0.611 0.166,0.911c0.063,0.3 0.108,0.595 0.134,0.884c0.026,0.29 0.039,0.575 0.04,0.857c0,0.282 0.001,0.573 0.001,0.874c0,0.3 0.001,0.628 0.003,0.983c0.002,0.354 0.012,0.725 0.028,1.111c0.017,0.387 0.026,0.749 0.029,1.087c0.003,0.337 0.005,0.658 0.005,0.962c0,0.304 -0.002,0.639 -0.007,1.005c-0.004,0.367 -0.015,0.775 -0.032,1.225c-0.017,0.449 -0.026,0.885 -0.026,1.308l0,2.305c0,0.357 0.002,0.717 0.007,1.078c0.005,0.362 0.008,0.739 0.011,1.132c0.003,0.392 0.004,0.8 0.004,1.225l0,1.231c0,0.395 -0.004,0.759 -0.011,1.092c-0.007,0.333 -0.015,0.665 -0.025,0.997c-0.009,0.333 -0.017,0.67 -0.022,1.012c-0.005,0.342 -0.008,0.694 -0.008,1.055l0,2.253c0,0.393 0.004,0.776 0.014,1.149c0.009,0.373 0.031,0.74 0.067,1.099c0.036,0.359 0.07,0.719 0.102,1.079c0.032,0.36 0.05,0.728 0.053,1.103c0.003,0.376 0.005,0.764 0.005,1.164l0,2.523c0,0.433 -0.004,0.853 -0.011,1.26c-0.007,0.407 -0.011,0.816 -0.011,1.229c0,0.412 0.01,0.829 0.03,1.25c0.02,0.421 0.046,0.83 0.076,1.227c0.03,0.397 0.045,0.79 0.046,1.179c0.001,0.389 0,0.785 -0.002,1.188c-0.002,0.403 -0.009,0.802 -0.021,1.196c-0.012,0.394 -0.02,0.789 -0.025,1.185c-0.005,0.396 -0.019,0.801 -0.043,1.216c-0.023,0.415 -0.043,0.835 -0.058,1.26c-0.015,0.425 -0.023,0.845 -0.023,1.259c0,0.414 -0.001,0.836 -0.001,1.267l0,1.277c0,0.42 -0.005,0.803 -0.013,1.151c-0.009,0.348 -0.027,0.688 -0.053,1.02c-0.027,0.333 -0.046,0.678 -0.059,1.037c-0.013,0.359 -0.02,0.751 -0.023,1.178c-0.003,0.427 -0.004,0.866 -0.004,1.316l0,2.234c0,0.303 0.001,0.61 0.003,0.923c0.002,0.313 0.008,0.634 0.018,0.964c0.01,0.33 0.02,0.687 0.032,1.071c0.012,0.384 0.021,0.802 0.026,1.254c0.005,0.452 0.017,0.938 0.036,1.459c0.018,0.521 0.042,1.014 0.071,1.479c0.029,0.465 0.055,0.88 0.077,1.243c0.022,0.363 0.036,0.695 0.041,0.996c0.005,0.301 0.011,0.588 0.019,0.861c0.007,0.273 0.02,0.549 0.039,0.827c0.019,0.279 0.035,0.58 0.047,0.904c0.013,0.324 0.021,0.669 0.026,1.034c0.005,0.366 0.015,0.739 0.029,1.12c0.014,0.381 0.026,0.761 0.036,1.141c0.01,0.38 0.02,0.751 0.03,1.113c0.01,0.363 0.015,0.718 0.015,1.066l0,2.322c0,0.441 0.001,0.863 0.003,1.266c0.002,0.403 0.012,0.776 0.028,1.118c0.017,0.342 0.027,0.68 0.03,1.012c0.003,0.332 0.01,0.724 0.022,1.175c0.012,0.451 0.027,0.933 0.046,1.446c0.019,0.512 0.042,1.005 0.069,1.479c0.027,0.474 0.048,0.907 0.063,1.298c0.015,0.392 0.023,0.746 0.023,1.062c0,0.316 0.001,0.609 0.001,0.878l0,3.744c0,0.374 0.007,0.757 0.021,1.15c0.014,0.393 0.031,0.784 0.05,1.174c0.02,0.39 0.031,0.771 0.034,1.143c0.003,0.372 0.004,0.725 0.004,1.057l0,5.709c0,0.43 -0.007,0.915 -0.021,1.454c-0.014,0.539 -0.026,1.017 -0.036,1.433c-0.01,0.417 -0.018,0.764 -0.023,1.043c-0.005,0.279 -0.012,0.544 -0.021,0.796c-0.009,0.252 -0.026,0.537 -0.05,0.855c-0.024,0.319 -0.048,0.644 -0.073,0.978c-0.024,0.333 -0.048,0.663 -0.07,0.988c-0.022,0.326 -0.038,0.671 -0.048,1.036c-0.01,0.365 -0.018,0.745 -0.023,1.141c-0.005,0.396 -0.008,0.777 -0.008,1.143c0,0.366 -0.005,0.691 -0.014,0.974c-0.009,0.283 -0.02,0.524 -0.032,0.724c-0.012,0.2 -0.019,0.34 -0.019,0.421c0,0.081 -0.008,0.072 -0.024,-0.025c-0.023,-0.139 -0.093,-0.578 -0.213,-1.315" style="fill:none;fill-rule:nonzero;stroke:#63b633;stroke-width:1.7px;stroke-dasharray:5.102,6.803;"/><path d="M94.587,6.123c0,-0.143 0.002,-0.326 0.007,-0.549c0.004,-0.223 0.012,-0.397 0.022,-0.522c0.01,-0.125 -0.059,-0.186 -0.207,-0.185c-0.148,0.001 -0.478,0.157 -0.991,0.467c-0.513,0.31 -1.077,0.748 -1.692,1.315c-0.615,0.567 -1.129,1.173 -1.541,1.818c-0.412,0.644 -0.612,1.257 -0.601,1.838c0.012,0.581 0.265,1.051 0.76,1.41c0.495,0.36 1.038,0.591 1.626,0.695c0.589,0.103 1.142,0.103 1.658,-0.001c0.516,-0.104 0.849,-0.19 0.997,-0.257c0.21,-0.095 0.272,-0.248 0.185,-0.459" style="fill:none;fill-rule:nonzero;stroke:#c2361a;stroke-width:0.85px;"/><path d="M96.424,10.17c-0.04,-0.048 -0.092,-0.106 -0.156,-0.173c-0.064,-0.067 -0.069,-0.065 -0.014,0.007c0.055,0.072 0.18,0.26 0.378,0.565c0.197,0.305 0.395,0.62 0.594,0.947c0.199,0.327 0.376,0.644 0.532,0.95c0.156,0.306 0.288,0.54 0.399,0.702c0.111,0.162 0.224,0.225 0.34,0.19c0.116,-0.035 0.237,-0.216 0.363,-0.541c0.126,-0.326 0.241,-0.71 0.344,-1.153c0.103,-0.443 0.199,-0.857 0.287,-1.243c0.088,-0.385 0.162,-0.661 0.221,-0.826c0.059,-0.165 0.096,-0.228 0.11,-0.189c0.02,0.055 0.085,0.229 0.192,0.521" style="fill:none;fill-rule:nonzero;stroke:#c2361a;stroke-width:0.85px;"/><path d="M159.877,26.815c0.066,-0.185 0.133,-0.412 0.2,-0.68c0.044,-0.174 0.009,-0.287 -0.106,-0.339c-0.114,-0.051 -0.283,-0.079 -0.508,-0.083c-0.224,-0.004 -0.461,0.041 -0.71,0.133c-0.249,0.092 -0.545,0.273 -0.888,0.543c-0.343,0.27 -0.714,0.644 -1.113,1.122c-0.399,0.479 -0.718,1.028 -0.957,1.65c-0.24,0.621 -0.315,1.193 -0.227,1.715c0.088,0.523 0.334,0.931 0.737,1.225c0.403,0.294 0.811,0.523 1.226,0.685c0.415,0.163 0.809,0.258 1.184,0.284c0.375,0.026 0.627,0.037 0.756,0.033c0.183,-0.006 0.441,-0.452 0.773,-1.338" style="fill:none;fill-rule:nonzero;stroke:#c2361a;stroke-width:0.85px;"/><path d="M161.959,30.098c0.093,-0.007 0.187,0.011 0.282,0.054c0.096,0.043 0.153,0.247 0.171,0.613c0.018,0.365 0.026,0.827 0.021,1.384c-0.004,0.556 -0.008,1.016 -0.01,1.379c-0.003,0.362 0.031,0.573 0.102,0.633c0.071,0.059 0.196,-0.036 0.375,-0.284c0.18,-0.249 0.389,-0.548 0.628,-0.899c0.238,-0.351 0.466,-0.619 0.682,-0.804c0.216,-0.185 0.386,-0.273 0.512,-0.266c0.125,0.007 0.207,0.137 0.246,0.388c0.039,0.252 0.087,0.544 0.143,0.876c0.056,0.332 0.149,0.651 0.281,0.956c0.131,0.306 0.265,0.564 0.402,0.775c0.137,0.21 0.27,0.418 0.401,0.624" style="fill:none;fill-rule:nonzero;stroke:#c2361a;stroke-width:0.85px;"/><path d="M158.066,75.29c-0.03,-0.061 -0.069,-0.15 -0.116,-0.269c-0.048,-0.119 -0.076,-0.242 -0.087,-0.37c-0.01,-0.128 -0.015,-0.269 -0.016,-0.424l0,-0.466c0,-0.156 0.004,-0.299 0.013,-0.429c0.009,-0.13 0.068,-0.234 0.178,-0.312c0.109,-0.078 0.263,-0.119 0.46,-0.125c0.197,-0.005 0.409,0.066 0.637,0.215c0.227,0.149 0.459,0.361 0.695,0.638c0.236,0.277 0.459,0.566 0.669,0.869c0.211,0.303 0.382,0.631 0.515,0.984c0.132,0.353 0.216,0.717 0.254,1.091c0.037,0.374 0.055,0.748 0.056,1.123c0.001,0.374 -0.032,0.729 -0.099,1.064c-0.066,0.335 -0.166,0.628 -0.298,0.879c-0.133,0.251 -0.272,0.483 -0.417,0.695c-0.145,0.212 -0.287,0.398 -0.424,0.556c-0.137,0.158 -0.237,0.265 -0.298,0.32c-0.062,0.055 -0.091,0.073 -0.088,0.054c0.002,-0.019 0.009,-0.066 0.021,-0.141c0.011,-0.075 0.091,-0.294 0.239,-0.654c0.148,-0.361 0.344,-0.795 0.588,-1.303c0.245,-0.508 0.542,-1.085 0.89,-1.731c0.349,-0.646 0.697,-1.298 1.044,-1.954c0.348,-0.657 0.644,-1.207 0.888,-1.652c0.245,-0.445 0.431,-0.752 0.559,-0.921c0.128,-0.17 0.223,-0.272 0.283,-0.306c0.061,-0.035 0.094,-0.052 0.1,-0.053c0.009,-0.001 -0.008,0.014 -0.05,0.044" style="fill:none;fill-rule:nonzero;stroke:#63b633;stroke-width:0.85px;"/><path d="M163.779,78.397c0.013,-0.105 0.024,-0.106 0.031,-0.001c0.005,0.078 0.019,0.274 0.041,0.587c0.022,0.313 0.037,0.667 0.043,1.062c0.007,0.395 0.024,0.725 0.05,0.988c0.026,0.263 0.047,0.453 0.062,0.567c0.016,0.115 0.028,0.182 0.038,0.201c0.01,0.02 0.02,0.028 0.032,0.026c0.012,-0.002 0.057,-0.048 0.136,-0.138c0.078,-0.09 0.215,-0.238 0.408,-0.444c0.194,-0.206 0.391,-0.39 0.591,-0.552c0.201,-0.162 0.371,-0.264 0.512,-0.307c0.141,-0.043 0.269,-0.019 0.386,0.073c0.117,0.091 0.243,0.224 0.379,0.398c0.136,0.174 0.262,0.355 0.38,0.544c0.118,0.189 0.207,0.376 0.267,0.562c0.061,0.186 0.106,0.328 0.135,0.426c0.039,0.133 0.05,0.116 0.031,-0.052" style="fill:none;fill-rule:nonzero;stroke:#63b633;stroke-width:0.85px;"/><path d="M27.126,127.132c-0.066,-0.009 -0.154,-0.034 -0.261,-0.076c-0.107,-0.042 -0.171,-0.122 -0.191,-0.24c-0.02,-0.118 -0.028,-0.281 -0.026,-0.489c0.002,-0.208 0.01,-0.453 0.025,-0.736c0.014,-0.282 0.035,-0.568 0.064,-0.858c0.028,-0.29 0.087,-0.547 0.177,-0.772c0.09,-0.225 0.207,-0.387 0.351,-0.486c0.144,-0.1 0.32,-0.142 0.526,-0.127c0.206,0.015 0.44,0.122 0.701,0.322c0.261,0.199 0.51,0.471 0.745,0.817c0.235,0.345 0.413,0.773 0.532,1.284c0.12,0.511 0.18,1.097 0.181,1.759c0.001,0.662 -0.046,1.308 -0.139,1.939c-0.093,0.631 -0.214,1.171 -0.361,1.618c-0.147,0.447 -0.279,0.759 -0.395,0.935c-0.117,0.176 -0.196,0.255 -0.237,0.239c-0.041,-0.016 -0.064,-0.077 -0.067,-0.183c-0.003,-0.106 -0.005,-0.185 -0.005,-0.238l0,-0.182c0,-0.068 0.042,-0.243 0.127,-0.523c0.085,-0.281 0.246,-0.751 0.484,-1.41c0.238,-0.659 0.496,-1.413 0.774,-2.262c0.278,-0.849 0.518,-1.59 0.72,-2.223c0.202,-0.633 0.376,-1.126 0.521,-1.478c0.145,-0.353 0.26,-0.584 0.345,-0.694c0.085,-0.11 0.143,-0.157 0.174,-0.142c0.031,0.015 0.031,0.023 0,0.022c-0.043,-0.001 -0.056,0.056 -0.038,0.173" style="fill:none;fill-rule:nonzero;stroke:#63b633;stroke-width:0.85px;"/><path d="M32.091,129.871c-0.067,-0.015 -0.137,-0.017 -0.21,-0.005c-0.049,0.008 -0.054,0.075 -0.015,0.201c0.039,0.126 0.119,0.287 0.241,0.483c0.122,0.195 0.239,0.407 0.352,0.634c0.112,0.227 0.208,0.459 0.288,0.695c0.08,0.236 0.142,0.444 0.186,0.625c0.045,0.18 0.084,0.308 0.118,0.382c0.034,0.075 0.085,0.095 0.154,0.061c0.068,-0.034 0.169,-0.18 0.303,-0.439c0.134,-0.259 0.278,-0.579 0.431,-0.96c0.153,-0.381 0.294,-0.75 0.421,-1.105c0.128,-0.355 0.215,-0.606 0.261,-0.753l0.035,-0.11l-0.104,0.33" style="fill:none;fill-rule:nonzero;stroke:#63b633;stroke-width:0.85px;"/><path d="M38.304,19.773l0,-0.518c0,-0.059 -0.014,-0.1 -0.041,-0.124c-0.028,-0.023 -0.072,-0.034 -0.134,-0.032c-0.062,0.002 -0.142,0.034 -0.241,0.096c-0.098,0.063 -0.205,0.158 -0.319,0.287c-0.114,0.13 -0.226,0.289 -0.335,0.479c-0.109,0.19 -0.204,0.395 -0.283,0.616c-0.08,0.221 -0.133,0.435 -0.159,0.642c-0.026,0.207 -0.037,0.396 -0.033,0.565c0.004,0.169 0.045,0.317 0.124,0.442c0.079,0.126 0.185,0.233 0.318,0.322c0.133,0.088 0.271,0.159 0.414,0.212c0.143,0.053 0.291,0.078 0.444,0.075c0.153,-0.003 0.299,-0.078 0.438,-0.227c0.139,-0.149 0.253,-0.361 0.34,-0.638c0.088,-0.276 0.145,-0.552 0.171,-0.828c0.026,-0.276 0.025,-0.518 -0.004,-0.725c-0.029,-0.207 -0.138,-0.38 -0.327,-0.517c-0.189,-0.138 -0.409,-0.219 -0.659,-0.245c-0.25,-0.025 -0.477,0.025 -0.682,0.151c-0.205,0.125 -0.375,0.292 -0.509,0.5c-0.135,0.207 -0.216,0.415 -0.244,0.621c-0.028,0.207 0.001,0.404 0.086,0.59c0.085,0.186 0.227,0.332 0.425,0.438c0.198,0.106 0.439,0.139 0.724,0.099c0.284,-0.04 0.553,-0.2 0.807,-0.481c0.254,-0.281 0.418,-0.591 0.493,-0.932c0.075,-0.341 -0.002,-0.608 -0.231,-0.8c-0.229,-0.192 -0.544,-0.288 -0.945,-0.287c-0.401,0.001 -0.714,0.09 -0.938,0.269c-0.224,0.179 -0.35,0.309 -0.378,0.39c-0.039,0.115 0.151,0.256 0.571,0.423" style="fill:none;fill-rule:nonzero;stroke:#348ad8;stroke-width:1.7px;"/><path d="M22.336,35.916c-0.033,-0.078 -0.078,-0.155 -0.135,-0.231c-0.057,-0.076 -0.109,-0.131 -0.155,-0.165c-0.046,-0.035 -0.104,-0.075 -0.173,-0.121c-0.069,-0.046 -0.164,-0.084 -0.286,-0.114c-0.122,-0.03 -0.268,-0.039 -0.44,-0.026c-0.171,0.012 -0.339,0.105 -0.503,0.277c-0.164,0.172 -0.273,0.418 -0.327,0.738c-0.054,0.32 0.029,0.615 0.25,0.887c0.221,0.273 0.542,0.438 0.964,0.498c0.422,0.059 0.791,-0.013 1.107,-0.216c0.316,-0.203 0.503,-0.499 0.561,-0.889c0.058,-0.39 -0.01,-0.743 -0.205,-1.061c-0.194,-0.318 -0.462,-0.486 -0.802,-0.503c-0.34,-0.017 -0.644,0.114 -0.911,0.392c-0.267,0.278 -0.451,0.582 -0.553,0.914c-0.101,0.331 -0.123,0.602 -0.067,0.813c0.057,0.21 0.217,0.308 0.481,0.292c0.264,-0.015 0.513,-0.141 0.747,-0.378c0.345,-0.347 0.487,-0.75 0.426,-1.209" style="fill:none;fill-rule:nonzero;stroke:#348ad8;stroke-width:1.7px;"/><path d="M53.966,36.069c0.043,-0.09 -0.016,-0.153 -0.178,-0.188c-0.162,-0.035 -0.322,-0.035 -0.479,-0.002c-0.157,0.034 -0.323,0.144 -0.498,0.33c-0.174,0.187 -0.317,0.415 -0.428,0.685c-0.111,0.271 -0.139,0.509 -0.084,0.716c0.055,0.206 0.277,0.307 0.667,0.301c0.39,-0.006 0.797,-0.136 1.22,-0.391c0.424,-0.254 0.728,-0.537 0.914,-0.848c0.185,-0.312 0.196,-0.569 0.031,-0.771c-0.165,-0.203 -0.482,-0.31 -0.953,-0.319c-0.47,-0.01 -0.894,0.099 -1.27,0.325c-0.376,0.227 -0.615,0.516 -0.715,0.866c-0.101,0.351 -0.019,0.639 0.245,0.866c0.264,0.226 0.631,0.309 1.101,0.248c0.47,-0.061 0.832,-0.254 1.087,-0.578c0.254,-0.324 0.361,-0.616 0.321,-0.875c-0.057,-0.366 -0.495,-0.476 -1.314,-0.332" style="fill:none;fill-rule:nonzero;stroke:#348ad8;stroke-width:1.7px;"/><path d="M69.934,20.539c-0.003,-0.093 -0.019,-0.214 -0.048,-0.365c-0.029,-0.15 -0.06,-0.293 -0.094,-0.43c-0.034,-0.136 -0.085,-0.252 -0.153,-0.346c-0.068,-0.095 -0.197,-0.139 -0.387,-0.132c-0.189,0.008 -0.405,0.132 -0.646,0.373c-0.241,0.242 -0.401,0.517 -0.478,0.826c-0.078,0.31 -0.028,0.556 0.15,0.74c0.178,0.183 0.455,0.289 0.831,0.318c0.376,0.029 0.708,-0.007 0.995,-0.108c0.287,-0.1 0.475,-0.262 0.562,-0.486c0.088,-0.223 0.089,-0.457 0.003,-0.703c-0.085,-0.246 -0.256,-0.432 -0.511,-0.56c-0.256,-0.128 -0.544,-0.146 -0.865,-0.054c-0.321,0.092 -0.602,0.359 -0.842,0.803c-0.24,0.444 -0.296,0.861 -0.167,1.25c0.129,0.39 0.447,0.589 0.955,0.597c0.508,0.008 0.916,-0.173 1.224,-0.543c0.308,-0.37 0.458,-0.748 0.449,-1.135c-0.009,-0.386 -0.043,-0.619 -0.101,-0.697c-0.083,-0.11 -0.344,0.003 -0.784,0.339" style="fill:none;fill-rule:nonzero;stroke:#348ad8;stroke-width:1.7px;"/><path d="M85.859,36.157c-0.01,-0.07 -0.034,-0.153 -0.071,-0.247c-0.037,-0.093 -0.083,-0.165 -0.138,-0.214c-0.055,-0.05 -0.146,-0.076 -0.274,-0.078c-0.128,-0.002 -0.29,0.112 -0.485,0.343c-0.196,0.231 -0.34,0.55 -0.433,0.957c-0.093,0.406 -0.058,0.738 0.104,0.994c0.163,0.257 0.459,0.374 0.888,0.353c0.429,-0.021 0.807,-0.168 1.133,-0.44c0.327,-0.272 0.496,-0.566 0.509,-0.883c0.012,-0.317 -0.183,-0.549 -0.586,-0.696c-0.403,-0.147 -0.839,-0.163 -1.308,-0.05c-0.469,0.114 -0.778,0.315 -0.927,0.604c-0.149,0.288 -0.095,0.527 0.163,0.716c0.258,0.189 0.611,0.271 1.061,0.248c0.45,-0.024 0.778,-0.107 0.986,-0.249c0.3,-0.206 0.401,-0.459 0.305,-0.759" style="fill:none;fill-rule:nonzero;stroke:#348ad8;stroke-width:1.7px;"/><path d="M102.505,20.91c-0.058,-0.075 -0.137,-0.152 -0.235,-0.229c-0.099,-0.076 -0.192,-0.136 -0.28,-0.178c-0.088,-0.041 -0.191,-0.071 -0.311,-0.089c-0.119,-0.019 -0.278,-0.013 -0.477,0.015c-0.199,0.029 -0.402,0.167 -0.611,0.416c-0.208,0.248 -0.327,0.544 -0.355,0.886c-0.028,0.343 0.118,0.613 0.437,0.81c0.32,0.198 0.7,0.262 1.141,0.192c0.441,-0.07 0.752,-0.282 0.931,-0.638c0.18,-0.356 0.183,-0.726 0.009,-1.111c-0.173,-0.384 -0.459,-0.626 -0.858,-0.724c-0.4,-0.098 -0.741,0.005 -1.024,0.309c-0.283,0.303 -0.401,0.657 -0.353,1.061c0.048,0.403 0.261,0.675 0.641,0.816c0.379,0.14 0.735,0.12 1.067,-0.061c0.333,-0.18 0.535,-0.392 0.607,-0.634l0.054,-0.181l-0.162,0.544" style="fill:none;fill-rule:nonzero;stroke:#348ad8;stroke-width:1.7px;"/><path d="M116.986,37.754c0.075,-0.027 0.186,-0.077 0.334,-0.151c0.147,-0.074 0.269,-0.144 0.365,-0.21c0.096,-0.066 0.172,-0.129 0.228,-0.187c0.055,-0.058 0.073,-0.116 0.052,-0.172c-0.02,-0.056 -0.166,-0.096 -0.437,-0.119c-0.271,-0.024 -0.611,0.001 -1.018,0.072c-0.407,0.072 -0.748,0.274 -1.023,0.605c-0.275,0.331 -0.37,0.684 -0.285,1.059c0.085,0.374 0.408,0.603 0.969,0.684c0.561,0.082 1.064,-0.007 1.51,-0.266c0.446,-0.259 0.693,-0.566 0.74,-0.921c0.047,-0.354 -0.113,-0.616 -0.481,-0.784c-0.368,-0.168 -0.768,-0.169 -1.199,-0.005c-0.431,0.165 -0.717,0.405 -0.856,0.72c-0.14,0.315 -0.079,0.54 0.183,0.673c0.261,0.133 0.6,0.105 1.017,-0.084c0.417,-0.189 0.707,-0.472 0.869,-0.85c0.235,-0.547 0.159,-1.252 -0.227,-2.115" style="fill:none;fill-rule:nonzero;stroke:#348ad8;stroke-width:1.7px;"/><path d="M134.817,20.833c-0.049,-0.094 -0.212,-0.235 -0.49,-0.425c-0.17,-0.116 -0.327,-0.198 -0.471,-0.246c-0.143,-0.048 -0.31,-0.064 -0.499,-0.048c-0.189,0.016 -0.389,0.141 -0.599,0.375c-0.21,0.234 -0.354,0.523 -0.43,0.867c-0.076,0.344 -0.032,0.631 0.134,0.861c0.165,0.231 0.46,0.341 0.882,0.331c0.423,-0.01 0.792,-0.154 1.108,-0.432c0.316,-0.277 0.491,-0.591 0.524,-0.94c0.034,-0.349 -0.139,-0.574 -0.517,-0.676c-0.379,-0.101 -0.779,-0.01 -1.201,0.275c-0.423,0.284 -0.622,0.624 -0.598,1.02c0.025,0.397 0.294,0.646 0.809,0.749c0.514,0.103 0.954,0.043 1.319,-0.18c0.364,-0.222 0.562,-0.463 0.594,-0.72c0.032,-0.258 -0.02,-0.322 -0.157,-0.193" style="fill:none;fill-rule:nonzero;stroke:#348ad8;stroke-width:1.7px;"/><path d="M150.935,35.872c-0.123,-0.045 -0.248,-0.106 -0.374,-0.185c-0.127,-0.079 -0.234,-0.173 -0.323,-0.281c-0.088,-0.108 -0.178,-0.215 -0.27,-0.321c-0.091,-0.105 -0.235,-0.17 -0.432,-0.193c-0.196,-0.024 -0.443,0.061 -0.74,0.253c-0.298,0.193 -0.519,0.429 -0.663,0.709c-0.145,0.279 -0.118,0.493 0.08,0.641c0.198,0.148 0.544,0.21 1.038,0.187c0.494,-0.024 0.878,-0.148 1.152,-0.372c0.274,-0.224 0.211,-0.408 -0.187,-0.55c-0.399,-0.142 -0.744,-0.19 -1.036,-0.142c-0.292,0.047 -0.477,0.119 -0.555,0.215c-0.077,0.097 -0.116,0.162 -0.117,0.196c-0.001,0.047 0.215,0.045 0.647,-0.007" style="fill:none;fill-rule:nonzero;stroke:#348ad8;stroke-width:1.7px;"/><path d="M134.223,54.334c-0.1,-0.138 -0.213,-0.277 -0.339,-0.416c-0.126,-0.139 -0.235,-0.231 -0.325,-0.274c-0.091,-0.044 -0.173,-0.067 -0.246,-0.071c-0.073,-0.003 -0.172,0.01 -0.298,0.038c-0.126,0.029 -0.283,0.162 -0.469,0.398c-0.186,0.237 -0.316,0.538 -0.39,0.903c-0.074,0.365 0.015,0.646 0.266,0.843c0.251,0.197 0.615,0.224 1.091,0.082c0.475,-0.142 0.82,-0.406 1.034,-0.791c0.213,-0.385 0.246,-0.762 0.098,-1.131c-0.149,-0.369 -0.411,-0.593 -0.787,-0.674c-0.377,-0.081 -0.683,-0.017 -0.919,0.191c-0.236,0.208 -0.365,0.425 -0.386,0.651c-0.021,0.226 0.039,0.384 0.181,0.475c0.142,0.091 0.313,0.114 0.513,0.07c0.199,-0.044 0.344,-0.105 0.434,-0.185c0.127,-0.112 0.034,-0.269 -0.279,-0.474" style="fill:none;fill-rule:nonzero;stroke:#348ad8;stroke-width:1.7px;"/><path d="M101.105,53.153c0.041,-0.089 0.092,-0.19 0.153,-0.302c0.061,-0.113 0.088,-0.205 0.081,-0.277c-0.007,-0.072 -0.101,-0.101 -0.28,-0.089c-0.18,0.013 -0.388,0.141 -0.626,0.385c-0.237,0.244 -0.386,0.515 -0.448,0.813c-0.061,0.298 0.025,0.499 0.258,0.603c0.234,0.104 0.512,0.062 0.836,-0.126c0.324,-0.188 0.523,-0.446 0.599,-0.773c0.076,-0.327 -0.011,-0.584 -0.26,-0.772c-0.355,-0.267 -0.926,-0.102 -1.712,0.495" style="fill:none;fill-rule:nonzero;stroke:#348ad8;stroke-width:1.7px;"/><path d="M70.188,53.071c-0.04,-0.071 -0.153,-0.189 -0.34,-0.356c-0.114,-0.102 -0.24,-0.149 -0.376,-0.141c-0.136,0.008 -0.283,0.129 -0.439,0.365c-0.157,0.236 -0.252,0.54 -0.287,0.913c-0.035,0.373 0.046,0.67 0.243,0.893c0.197,0.222 0.448,0.321 0.755,0.296c0.307,-0.025 0.526,-0.165 0.658,-0.421c0.132,-0.255 0.134,-0.533 0.005,-0.832c-0.129,-0.299 -0.334,-0.467 -0.614,-0.502c-0.281,-0.035 -0.471,0.024 -0.572,0.179" style="fill:none;fill-rule:nonzero;stroke:#348ad8;stroke-width:1.7px;"/><path d="M37.946,52.167c-0.016,-0.135 0.008,-0.356 0.07,-0.661c0.039,-0.192 0.024,-0.291 -0.045,-0.297c-0.069,-0.006 -0.226,0.095 -0.47,0.304c-0.244,0.209 -0.462,0.477 -0.652,0.805c-0.191,0.328 -0.31,0.641 -0.357,0.941c-0.047,0.299 0.032,0.515 0.236,0.646c0.204,0.132 0.515,0.128 0.932,-0.011c0.417,-0.139 0.772,-0.381 1.064,-0.725c0.292,-0.344 0.45,-0.66 0.474,-0.948c0.024,-0.288 -0.089,-0.478 -0.338,-0.568c-0.249,-0.09 -0.547,-0.077 -0.894,0.041c-0.497,0.169 -0.712,0.479 -0.646,0.928" style="fill:none;fill-rule:nonzero;stroke:#348ad8;stroke-width:1.7px;"/><path d="M21.548,68.137l0,-0.999c0,-0.12 -0.031,-0.184 -0.092,-0.194c-0.061,-0.009 -0.19,0.081 -0.385,0.272c-0.196,0.191 -0.39,0.466 -0.585,0.826c-0.194,0.36 -0.301,0.702 -0.319,1.025c-0.019,0.323 0.173,0.513 0.574,0.568c0.401,0.055 0.839,-0.052 1.314,-0.324c0.474,-0.271 0.778,-0.591 0.912,-0.96c0.134,-0.369 0.032,-0.679 -0.305,-0.93c-0.337,-0.251 -0.726,-0.357 -1.169,-0.32c-0.443,0.037 -0.708,0.097 -0.796,0.179c-0.124,0.116 0.16,0.428 0.849,0.935" style="fill:none;fill-rule:nonzero;stroke:#348ad8;stroke-width:1.7px;"/><path d="M54.315,67.785c-0.07,0.003 -0.199,-0.078 -0.386,-0.243c-0.116,-0.103 -0.209,-0.184 -0.28,-0.243c-0.071,-0.059 -0.154,-0.114 -0.249,-0.163c-0.096,-0.049 -0.222,-0.066 -0.38,-0.05c-0.158,0.016 -0.323,0.146 -0.494,0.392c-0.172,0.245 -0.274,0.536 -0.307,0.872c-0.033,0.336 0.076,0.578 0.326,0.725c0.251,0.147 0.548,0.168 0.893,0.061c0.345,-0.107 0.574,-0.333 0.687,-0.677c0.113,-0.344 0.037,-0.626 -0.229,-0.845c-0.266,-0.219 -0.539,-0.29 -0.819,-0.211c-0.402,0.113 -0.587,0.337 -0.555,0.674" style="fill:none;fill-rule:nonzero;stroke:#348ad8;stroke-width:1.7px;"/><path d="M85.771,68.531c0,-0.1 -0.003,-0.215 -0.01,-0.346c-0.007,-0.131 -0.033,-0.245 -0.08,-0.343c-0.047,-0.098 -0.144,-0.167 -0.293,-0.209c-0.149,-0.041 -0.35,-0.022 -0.605,0.059c-0.255,0.081 -0.49,0.272 -0.705,0.574c-0.215,0.302 -0.342,0.61 -0.381,0.923c-0.039,0.313 0.059,0.535 0.293,0.665c0.234,0.129 0.525,0.137 0.874,0.022c0.349,-0.115 0.601,-0.341 0.756,-0.679c0.155,-0.338 0.135,-0.623 -0.06,-0.855c-0.195,-0.232 -0.441,-0.317 -0.736,-0.253c-0.295,0.064 -0.468,0.134 -0.519,0.211c-0.072,0.108 0.128,0.445 0.601,1.011" style="fill:none;fill-rule:nonzero;stroke:#348ad8;stroke-width:1.7px;"/><path d="M117.555,69.778c0,-0.089 0.003,-0.191 0.009,-0.306c0.007,-0.115 0.051,-0.225 0.133,-0.332c0.082,-0.106 0.16,-0.213 0.232,-0.32c0.072,-0.107 0.108,-0.191 0.106,-0.252c-0.001,-0.061 -0.112,-0.064 -0.333,-0.009c-0.222,0.055 -0.497,0.21 -0.828,0.463c-0.33,0.254 -0.576,0.51 -0.738,0.767c-0.162,0.258 -0.16,0.438 0.006,0.542c0.165,0.104 0.46,0.139 0.884,0.104c0.424,-0.034 0.766,-0.134 1.025,-0.3c0.259,-0.166 0.404,-0.368 0.437,-0.607c0.032,-0.238 -0.061,-0.448 -0.281,-0.628c-0.315,-0.26 -0.697,-0.27 -1.146,-0.031" style="fill:none;fill-rule:nonzero;stroke:#348ad8;stroke-width:1.7px;"/><path d="M150.125,68.334c-0.1,-0.083 -0.208,-0.158 -0.324,-0.225c-0.116,-0.067 -0.234,-0.104 -0.355,-0.113c-0.121,-0.008 -0.248,0 -0.382,0.024c-0.133,0.025 -0.266,0.115 -0.401,0.27c-0.134,0.155 -0.229,0.346 -0.287,0.574c-0.057,0.227 -0.003,0.411 0.163,0.55c0.166,0.139 0.427,0.203 0.782,0.191c0.355,-0.012 0.656,-0.105 0.902,-0.279c0.247,-0.174 0.391,-0.369 0.434,-0.584c0.06,-0.303 -0.464,-0.427 -1.574,-0.373" style="fill:none;fill-rule:nonzero;stroke:#348ad8;stroke-width:1.7px;"/><path d="M133.501,84.915c-0.003,-0.089 -0.009,-0.205 -0.017,-0.348c-0.007,-0.143 -0.022,-0.256 -0.043,-0.338c-0.021,-0.082 -0.095,-0.118 -0.223,-0.105c-0.128,0.012 -0.319,0.15 -0.571,0.412c-0.253,0.263 -0.44,0.553 -0.562,0.87c-0.122,0.317 -0.058,0.552 0.192,0.703c0.25,0.151 0.613,0.195 1.089,0.129c0.476,-0.065 0.822,-0.219 1.038,-0.462c0.217,-0.243 0.248,-0.478 0.096,-0.706c-0.153,-0.228 -0.419,-0.353 -0.799,-0.375c-0.38,-0.023 -0.62,-0.016 -0.72,0.018c-0.142,0.05 -0.212,0.289 -0.21,0.718" style="fill:none;fill-rule:nonzero;stroke:#348ad8;stroke-width:1.7px;"/><path d="M100.121,84.455c0.067,-0.046 0.141,-0.09 0.223,-0.132c0.081,-0.042 0.14,-0.067 0.177,-0.075c0.037,-0.008 0.065,-0.012 0.082,-0.012c0.018,0 0.029,0.002 0.035,0.006c0.005,0.004 0,0.052 -0.016,0.142c-0.016,0.09 -0.058,0.221 -0.127,0.392c-0.069,0.171 -0.108,0.344 -0.117,0.52c-0.009,0.176 0.102,0.306 0.335,0.391c0.232,0.085 0.525,0.11 0.877,0.076c0.353,-0.034 0.614,-0.153 0.783,-0.356c0.169,-0.203 0.219,-0.423 0.148,-0.661c-0.071,-0.237 -0.253,-0.399 -0.544,-0.486c-0.291,-0.087 -0.56,-0.064 -0.807,0.07c-0.352,0.19 -0.419,0.63 -0.201,1.32" style="fill:none;fill-rule:nonzero;stroke:#348ad8;stroke-width:1.7px;"/><path d="M69.453,84.893c-0.039,-0.053 -0.101,-0.103 -0.185,-0.149c-0.084,-0.046 -0.198,-0.026 -0.341,0.06c-0.143,0.086 -0.26,0.272 -0.352,0.559c-0.092,0.286 -0.033,0.535 0.175,0.745c0.209,0.211 0.524,0.319 0.946,0.324c0.422,0.005 0.733,-0.114 0.934,-0.358c0.201,-0.244 0.236,-0.502 0.106,-0.776c-0.13,-0.274 -0.391,-0.439 -0.783,-0.495c-0.392,-0.057 -0.698,-0.015 -0.919,0.126c-0.22,0.141 -0.347,0.286 -0.381,0.437l-0.026,0.113l0.077,-0.338" style="fill:none;fill-rule:nonzero;stroke:#348ad8;stroke-width:1.7px;"/><path d="M38.681,84.652c0.01,-0.174 0.035,-0.372 0.077,-0.593c0.028,-0.145 -0.033,-0.192 -0.182,-0.14c-0.149,0.052 -0.359,0.181 -0.63,0.385c-0.271,0.205 -0.51,0.45 -0.718,0.737c-0.208,0.287 -0.319,0.56 -0.333,0.821c-0.014,0.261 0.148,0.434 0.485,0.518c0.337,0.085 0.69,0.076 1.06,-0.026c0.37,-0.102 0.605,-0.277 0.705,-0.526c0.1,-0.249 0.06,-0.495 -0.121,-0.739c-0.181,-0.243 -0.421,-0.396 -0.72,-0.456l-0.224,-0.045l0.672,0.136" style="fill:none;fill-rule:nonzero;stroke:#348ad8;stroke-width:1.7px;"/><path d="M22.423,101.036c-0.028,-0.162 -0.06,-0.338 -0.099,-0.529c-0.038,-0.191 -0.105,-0.333 -0.202,-0.426c-0.096,-0.093 -0.255,-0.118 -0.476,-0.073c-0.221,0.045 -0.457,0.202 -0.706,0.472c-0.249,0.27 -0.429,0.55 -0.54,0.841c-0.111,0.291 -0.115,0.526 -0.014,0.707c0.102,0.181 0.363,0.265 0.785,0.253c0.421,-0.012 0.807,-0.121 1.156,-0.327c0.35,-0.206 0.568,-0.421 0.656,-0.646c0.088,-0.225 0.008,-0.392 -0.238,-0.502c-0.247,-0.11 -0.518,-0.149 -0.816,-0.118c-0.297,0.031 -0.47,0.069 -0.517,0.113c-0.068,0.062 0.143,0.195 0.632,0.401" style="fill:none;fill-rule:nonzero;stroke:#348ad8;stroke-width:1.7px;"/><path d="M54.272,101.167c-0.006,-0.078 -0.014,-0.179 -0.025,-0.304c-0.011,-0.125 -0.032,-0.231 -0.063,-0.317c-0.031,-0.087 -0.114,-0.138 -0.249,-0.156c-0.136,-0.017 -0.332,0.055 -0.589,0.215c-0.257,0.161 -0.476,0.396 -0.657,0.705c-0.181,0.309 -0.255,0.578 -0.223,0.807c0.032,0.229 0.214,0.365 0.544,0.408c0.33,0.043 0.675,-0.007 1.033,-0.151c0.358,-0.143 0.606,-0.336 0.744,-0.577c0.138,-0.241 0.139,-0.468 0.002,-0.68c-0.137,-0.212 -0.392,-0.344 -0.766,-0.397c-0.374,-0.052 -0.566,-0.039 -0.574,0.041" style="fill:none;fill-rule:nonzero;stroke:#348ad8;stroke-width:1.7px;"/><path d="M86.187,100.883c0,-0.107 0.007,-0.232 0.02,-0.376c0.014,-0.144 0.041,-0.271 0.082,-0.381c0.041,-0.11 0.067,-0.201 0.078,-0.274c0.011,-0.072 -0.034,-0.111 -0.134,-0.116c-0.1,-0.005 -0.279,0.066 -0.535,0.215c-0.256,0.149 -0.5,0.357 -0.732,0.624c-0.232,0.267 -0.37,0.532 -0.415,0.793c-0.045,0.262 0.075,0.457 0.358,0.584c0.283,0.128 0.63,0.177 1.042,0.149c0.412,-0.029 0.724,-0.14 0.937,-0.333c0.213,-0.194 0.292,-0.429 0.235,-0.707c-0.057,-0.278 -0.278,-0.51 -0.665,-0.696c-0.386,-0.186 -0.768,-0.261 -1.145,-0.223c-0.376,0.037 -0.629,0.21 -0.758,0.517c-0.129,0.308 -0.107,0.597 0.065,0.867c0.237,0.372 0.462,0.37 0.674,-0.006" style="fill:none;fill-rule:nonzero;stroke:#348ad8;stroke-width:1.7px;"/><path d="M118.036,100.467c-0.018,-0.11 -0.029,-0.223 -0.035,-0.338c-0.006,-0.114 -0.009,-0.191 -0.009,-0.229c0,-0.038 -0.029,-0.056 -0.089,-0.053c-0.059,0.003 -0.181,0.071 -0.367,0.203c-0.187,0.132 -0.356,0.334 -0.508,0.605c-0.152,0.271 -0.218,0.526 -0.198,0.765c0.019,0.239 0.161,0.41 0.425,0.512c0.264,0.103 0.548,0.149 0.853,0.138c0.306,-0.011 0.55,-0.096 0.733,-0.255c0.184,-0.159 0.255,-0.37 0.213,-0.633c-0.041,-0.263 -0.245,-0.475 -0.611,-0.637c-0.366,-0.162 -0.738,-0.218 -1.117,-0.168c-0.379,0.05 -0.619,0.195 -0.72,0.434c-0.101,0.239 -0.024,0.426 0.232,0.561c0.255,0.135 0.576,0.202 0.961,0.201c0.385,-0.001 0.676,-0.03 0.873,-0.088l0.147,-0.043l-0.443,0.13" style="fill:none;fill-rule:nonzero;stroke:#348ad8;stroke-width:1.7px;"/><path d="M149.929,101.342c0,-0.059 0.009,-0.142 0.027,-0.249c0.019,-0.106 0.033,-0.189 0.044,-0.248c0.011,-0.059 -0.031,-0.097 -0.124,-0.113c-0.094,-0.016 -0.268,0.001 -0.524,0.053c-0.256,0.052 -0.489,0.161 -0.698,0.326c-0.208,0.165 -0.306,0.316 -0.292,0.452c0.014,0.136 0.23,0.219 0.648,0.25c0.419,0.031 0.854,0.003 1.306,-0.082c0.453,-0.085 0.757,-0.197 0.912,-0.335c0.155,-0.138 0.15,-0.269 -0.015,-0.394c-0.165,-0.125 -0.397,-0.232 -0.696,-0.321c-0.299,-0.089 -0.565,-0.144 -0.798,-0.163c-0.232,-0.019 -0.456,0.029 -0.671,0.146c-0.215,0.117 -0.374,0.281 -0.476,0.492c-0.103,0.211 -0.148,0.377 -0.135,0.498c0.013,0.121 0.108,0.19 0.284,0.208c0.254,0.025 0.597,-0.178 1.032,-0.609" style="fill:none;fill-rule:nonzero;stroke:#348ad8;stroke-width:1.7px;"/><path d="M134.07,116.982c-0.083,-0.01 -0.162,-0.035 -0.236,-0.075c-0.073,-0.04 -0.13,-0.075 -0.168,-0.107c-0.039,-0.032 -0.082,-0.06 -0.131,-0.085c-0.049,-0.025 -0.094,-0.044 -0.135,-0.06c-0.042,-0.015 -0.077,-0.023 -0.107,-0.023c-0.029,0 -0.06,0.047 -0.091,0.143c-0.031,0.096 -0.062,0.265 -0.092,0.507c-0.03,0.242 -0.037,0.485 -0.023,0.73c0.015,0.245 0.116,0.416 0.303,0.515c0.187,0.099 0.411,0.131 0.671,0.097c0.259,-0.034 0.473,-0.136 0.641,-0.304c0.167,-0.168 0.275,-0.383 0.322,-0.645c0.048,-0.261 0.068,-0.522 0.06,-0.782c-0.008,-0.26 -0.061,-0.456 -0.157,-0.587c-0.096,-0.132 -0.198,-0.215 -0.306,-0.249c-0.108,-0.034 -0.218,-0.044 -0.331,-0.029c-0.113,0.015 -0.251,0.103 -0.415,0.264c-0.163,0.162 -0.326,0.376 -0.488,0.643c-0.162,0.267 -0.264,0.519 -0.305,0.755c-0.041,0.236 -0.001,0.395 0.12,0.477c0.121,0.082 0.31,0.096 0.566,0.042c0.255,-0.054 0.466,-0.136 0.631,-0.246l0.125,-0.083l-0.373,0.248" style="fill:none;fill-rule:nonzero;stroke:#348ad8;stroke-width:1.7px;"/><path d="M101.499,116.435c0,-0.039 -0.002,-0.133 -0.007,-0.283c-0.004,-0.15 -0.034,-0.245 -0.09,-0.287c-0.056,-0.042 -0.151,-0.038 -0.283,0.011c-0.133,0.049 -0.3,0.206 -0.5,0.47c-0.201,0.265 -0.347,0.553 -0.438,0.865c-0.092,0.312 -0.033,0.547 0.174,0.706c0.208,0.158 0.505,0.224 0.89,0.196c0.386,-0.028 0.701,-0.118 0.946,-0.271c0.244,-0.152 0.397,-0.324 0.456,-0.515c0.06,-0.191 0.035,-0.4 -0.075,-0.627c-0.11,-0.228 -0.251,-0.421 -0.424,-0.581c-0.173,-0.16 -0.332,-0.249 -0.476,-0.269c-0.144,-0.019 -0.261,0.059 -0.348,0.234c-0.088,0.176 -0.139,0.4 -0.153,0.673c-0.015,0.273 0.024,0.477 0.115,0.612c0.092,0.135 0.201,0.21 0.328,0.225c0.18,0.021 0.265,-0.257 0.257,-0.833" style="fill:none;fill-rule:nonzero;stroke:#348ad8;stroke-width:1.7px;"/><path d="M70.153,117.026c-0.008,-0.053 -0.014,-0.153 -0.017,-0.301c-0.003,-0.148 -0.027,-0.244 -0.073,-0.287c-0.046,-0.043 -0.135,-0.069 -0.268,-0.077c-0.133,-0.008 -0.299,0.01 -0.499,0.055c-0.2,0.045 -0.382,0.157 -0.549,0.335c-0.166,0.178 -0.259,0.379 -0.277,0.602c-0.019,0.223 0.105,0.403 0.371,0.539c0.266,0.136 0.581,0.206 0.946,0.21c0.365,0.004 0.668,-0.08 0.91,-0.252c0.242,-0.172 0.383,-0.392 0.424,-0.658c0.041,-0.266 -0.005,-0.504 -0.137,-0.715c-0.132,-0.21 -0.292,-0.346 -0.479,-0.408c-0.188,-0.061 -0.362,-0.056 -0.523,0.016c-0.161,0.072 -0.3,0.219 -0.417,0.442c-0.117,0.223 -0.193,0.432 -0.23,0.629c-0.037,0.197 -0.027,0.339 0.029,0.426c0.056,0.087 0.154,0.109 0.294,0.066c0.14,-0.043 0.252,-0.178 0.335,-0.403c0.083,-0.225 0.13,-0.452 0.142,-0.68c0.012,-0.228 0.005,-0.4 -0.019,-0.517c-0.025,-0.117 -0.101,-0.169 -0.228,-0.157c-0.183,0.018 -0.62,0.162 -1.311,0.431" style="fill:none;fill-rule:nonzero;stroke:#348ad8;stroke-width:1.7px;"/><path d="M38.61,116.523l-0.649,0c-0.032,0 -0.069,0.008 -0.112,0.024c-0.043,0.016 -0.11,0.081 -0.2,0.196c-0.09,0.115 -0.175,0.283 -0.255,0.506c-0.079,0.223 -0.118,0.444 -0.117,0.665c0.001,0.221 0.111,0.364 0.33,0.429c0.219,0.065 0.483,0.031 0.792,-0.102c0.309,-0.133 0.556,-0.335 0.742,-0.607c0.186,-0.272 0.283,-0.539 0.289,-0.8c0.007,-0.262 -0.094,-0.467 -0.303,-0.616c-0.209,-0.149 -0.446,-0.223 -0.71,-0.221c-0.265,0.002 -0.514,0.106 -0.747,0.312c-0.233,0.206 -0.404,0.458 -0.515,0.756c-0.11,0.298 -0.119,0.555 -0.026,0.772c0.093,0.217 0.292,0.341 0.596,0.371c0.305,0.031 0.549,-0.001 0.733,-0.094c0.184,-0.093 0.289,-0.224 0.316,-0.392c0.027,-0.168 -0.013,-0.324 -0.12,-0.468l-0.08,-0.108l0.24,0.323" style="fill:none;fill-rule:nonzero;stroke:#348ad8;stroke-width:1.7px;"/><path d="M52.807,69.231c-0.03,0.026 -0.055,0.089 -0.077,0.189c-0.022,0.1 -0.022,0.164 -0.002,0.191c0.02,0.027 0.057,0.049 0.109,0.067c0.052,0.018 0.13,0.028 0.232,0.031c0.102,0.003 0.22,0.003 0.354,0.001c0.133,-0.002 0.262,-0.02 0.387,-0.052c0.124,-0.033 0.235,-0.084 0.331,-0.152c0.096,-0.069 0.18,-0.152 0.251,-0.248c0.072,-0.097 0.126,-0.194 0.164,-0.291c0.038,-0.097 0.062,-0.193 0.072,-0.285c0.01,-0.093 0.016,-0.183 0.016,-0.27c0,-0.088 -0.008,-0.178 -0.024,-0.273c-0.016,-0.094 -0.04,-0.194 -0.072,-0.298c-0.032,-0.105 -0.056,-0.203 -0.073,-0.296c-0.017,-0.093 -0.033,-0.176 -0.048,-0.25c-0.015,-0.074 -0.033,-0.136 -0.055,-0.188c-0.022,-0.052 -0.044,-0.099 -0.069,-0.14c-0.024,-0.042 -0.06,-0.074 -0.107,-0.096c-0.048,-0.023 -0.106,-0.036 -0.176,-0.039c-0.07,-0.003 -0.146,-0.004 -0.228,-0.004c-0.082,0 -0.176,0.001 -0.282,0.003c-0.106,0.002 -0.227,0.031 -0.365,0.086c-0.138,0.055 -0.278,0.153 -0.422,0.294c-0.144,0.141 -0.263,0.288 -0.359,0.442l-0.072,0.115l0.215,-0.347" style="fill:none;fill-rule:nonzero;stroke:#348ad8;stroke-width:1.7px;"/></svg>